<?xml version="1.0" encoding="utf-8"?>
<!-- Generator: Adobe Illustrator 14.0.0, SVG Export Plug-In . SVG Version: 6.00 Build 43363)  -->
<!DOCTYPE svg PUBLIC "-//W3C//DTD SVG 1.1//EN" "http://www.w3.org/Graphics/SVG/1.1/DTD/svg11.dtd" [
	<!ENTITY ns_extend "http://ns.adobe.com/Extensibility/1.0/">
	<!ENTITY ns_ai "http://ns.adobe.com/AdobeIllustrator/10.0/">
	<!ENTITY ns_graphs "http://ns.adobe.com/Graphs/1.0/">
	<!ENTITY ns_vars "http://ns.adobe.com/Variables/1.0/">
	<!ENTITY ns_imrep "http://ns.adobe.com/ImageReplacement/1.0/">
	<!ENTITY ns_sfw "http://ns.adobe.com/SaveForWeb/1.0/">
	<!ENTITY ns_custom "http://ns.adobe.com/GenericCustomNamespace/1.0/">
	<!ENTITY ns_adobe_xpath "http://ns.adobe.com/XPath/1.0/">
]>
<svg version="1.1" id="Layer_1" xmlns:x="&ns_extend;" xmlns:i="&ns_ai;" xmlns:graph="&ns_graphs;"
	 xmlns="http://www.w3.org/2000/svg" xmlns:xlink="http://www.w3.org/1999/xlink" x="0px" y="0px" width="269.29px"
	 height="255.12px" viewBox="0 0 269.29 255.12" enable-background="new 0 0 269.29 255.12" xml:space="preserve">
<metadata>
	<sfw  xmlns="&ns_sfw;">
		<slices></slices>
		<sliceSourceBounds  x="5.036" y="51.995" width="259.651" height="161.654" bottomLeftOrigin="true"></sliceSourceBounds>
	</sfw>
</metadata>
<g>
<defs>
   <linearGradient id="colour0"> 
     <stop offset="100%" stop-color="gray"/> 
   </linearGradient> 
   <linearGradient id="colour1"> 
     <stop offset="100%" stop-color="black"/> 
   </linearGradient> 
 </defs>	 
	<g>
		<path fill="url(#colour1)" d="M161.008,76.165c1.102,3.705,1.896,7.588,2.322,11.601c4.578-4.115,11.469-2.764,12.814,3.725
			c0.176-2.106,0.186-5.27-0.549-11.68C172.83,68.496,163.48,68.434,161.008,76.165 M165.031,67.085
			c3.973-1.275,8.619,0.755,10.416,5.719c0.039-0.203,0.09-0.394,0.148-0.584c-0.303-7.812-1.49-14.109-4.078-17.464
			c-4.016-5.197-10.455-1.158-8.582,6.119C163.605,63.472,164.391,65.581,165.031,67.085 M179.285,88.492
			c4.109-4.694,9.377-4.284,11.662,0.288c0.205-4.68,0.061-9.535-1.766-14.044c-3.131-7.75-10.988-5.432-10.24,3.14
			C179.273,81.55,179.479,84.854,179.285,88.492 M82.195,88.492c-0.186-3.637,0.023-6.942,0.352-10.617
			c0.755-8.572-7.1-10.89-10.234-3.14c-1.818,4.509-1.975,9.365-1.766,14.044C72.833,84.208,78.088,83.797,82.195,88.492
			 M99.638,89.419c0.203-3.536,0.673-7,1.413-10.331c-0.837-10.525-12.077-11.874-15.158,0.713
			c-0.729,6.419-0.725,9.586-0.546,11.689C86.856,84.247,95.273,83.409,99.638,89.419 M96.462,67.085
			c0.641-1.504,1.422-3.613,2.089-6.21c1.871-7.276-4.563-11.316-8.578-6.119c-2.582,3.354-3.769,9.652-4.069,17.464
			c0.062,0.191,0.103,0.382,0.147,0.582C87.838,67.84,92.488,65.81,96.462,67.085 M116.098,52.221
			c0.658-0.534,1.325-1.031,1.992-1.486l0.981-0.623c0.461-0.276,0.926-0.529,1.393-0.767c2.071-6.122-4.924-9.812-9.195-6.807
			c-4.001,2.817-6.516,7.776-8.895,13.674c0.003,0.109,0.012,0.221,0.021,0.335C106.259,51.848,111.092,50.529,116.098,52.221
			 M111.3,57.15c0.35-0.441,0.702-0.84,1.061-1.257c-3.354-0.576-8.504,1.328-11.427,7.203c-0.799,2.673-1.239,4.523-1.445,5.778
			c1.298,1.202,2.333,2.935,2.906,5.182C104.388,67.646,107.402,61.871,111.3,57.15 M149.754,55.82
			c0.107,0.123,0.219,0.231,0.326,0.343c4.049,4.451,7.291,9.95,9.623,16.122c0.578-1.401,1.369-2.538,2.303-3.411
			c-0.209-1.254-0.639-3.105-1.459-5.778C157.809,57.567,153.088,55.564,149.754,55.82 M141.977,49.557c0,0,1.008,0.555,1.023,0.564
			c0.951,0.579,1.883,1.251,2.795,1.965c4.861-1.486,9.551-0.108,13.303,4.465c0.004-0.117,0.02-0.229,0.031-0.338
			c-2.381-5.898-4.904-10.857-8.902-13.674c-4.209-2.952-11.045,0.546-9.322,6.492C141.268,49.204,141.609,49.351,141.977,49.557
			 M204.373,98.177c1.207-12.438-8.213-9.982-11.449,1.428c-6.277,22.12-12.326,27.34-36.426,36.085
			c27.17-12.541,29.869-21.894,33.271-36.026l-0.084-0.012c2.691-15.458-9.352-10.784-11.73-1.151
			c-2.359,9.624-5.178,18.263-16.998,25.913c7.041-7.045,9.707-8.843,13.789-26.048c0.967-10.044-6.873-10.429-11.074-5.743
			c0.008,0.232,0.02,0.458,0.02,0.679c0.527,20.76-8.512,39.497-22.48,46.625v-0.033c11.338-7.641,17.891-26.194,17.396-46.099
			c-0.402-16.163-5.814-31.062-14.461-39.834c-1.242-1.16-5.162-5.267-12.67-6.283c2.636,2.221,5.59,19.282,6.321,40.958
			c0.57-0.159,1.184-0.385,1.836-0.699c0,0,2.145,0.502,0.645,1.716c0,0-2.709,2.42-7.791,0.652c0,0-1.455-1.122,0.255-1.865
			c0,0,0.758,0.467,2.132,0.559c-0.443-21.13-1.413-38.024-3.771-41.341c-7.605,1.366-12.79,5.737-13.974,6.965
			c-8.21,9.198-12.873,24.344-12.47,40.518c0.491,19.896,7.958,38.119,19.652,45.189l0.035,0.018
			c-14.206-6.387-24.114-24.412-24.772-44.959c-3.079-7.309-13.951-8.746-12.819,2.955c4.083,17.229,6.739,19.027,13.774,26.072
			c-11.821-7.65-14.624-16.289-16.991-25.913c-2.365-9.632-14.415-14.306-11.718,1.151l-0.094,0.012
			c3.396,14.133,6.089,23.486,33.273,36.026c-24.103-8.745-30.166-13.965-36.429-36.085c-3.231-11.41-12.652-13.866-11.448-1.428
			c1.031,10.528,5.937,43.079,52.997,45.882c-8.458,0.494-15.904-0.273-22.396-1.98l-0.919,0.035
			c-0.103,0.016-9.418,0.564-18.472,8.684c5.223-2.389,13.437-2.896,24.555-3.287l0.041,0.016
			c-9.585,0.967-21.474,3.951-26.573,7.863c8.36,3.572,47.439,8.42,63.07-9.658c3.21,1.119,6.415,0,6.415,0
			c16.613,18.773,52.035,13.23,60.404,9.658c-5.098-3.912-17-6.896-26.566-7.863v-0.016c11.113,0.391,19.359,0.898,24.586,3.287
			c-9.066-8.119-18.375-8.668-18.479-8.684l-1.576-0.055c-6.678,1.838-14.068,2.502-22.832,2
			C198.43,141.256,203.346,108.705,204.373,98.177 M132.91,93.218c0,0,0.717,0.44,2.06,0.543c0-0.121,0-0.244,0-0.376
			c-0.012-0.237-0.021-0.467-0.023-0.699c1.171,0.147,2.158,0.062,2.957-0.127c0,0.294,0.01,0.576,0.027,0.855
			c0.57-0.167,1.201-0.385,1.877-0.705c0,0,2.133,0.502,0.629,1.718c0,0-2.707,2.415-7.796,0.655
			C132.639,95.083,131.194,93.949,132.91,93.218 M132.46,140.627c-0.118,0.018-0.22-0.006-0.334-0.053
			c2.43-1.504,3.107-17.366,2.949-37.968c1.117,0.162,2.076,0.118,2.863-0.026C137.662,124.042,135.086,140.381,132.46,140.627
			 M140.617,99.61c0,0-2.715,2.412-7.787,0.655c0,0-1.458-1.131,0.255-1.872c0,0,0.685,0.435,1.944,0.541
			c-0.002-0.491-0.008-0.978-0.008-1.483c1.15,0.159,2.14,0.085,2.941-0.08v1.275c0.627-0.183,1.289-0.415,2.023-0.755
			C139.986,97.892,142.121,98.394,140.617,99.61"/>
	</g>
</g>
</svg>
