<?xml version="1.0" encoding="utf-8"?>
<svg version="1.0" xmlns="http://www.w3.org/2000/svg" xmlns:xlink="http://www.w3.org/1999/xlink" viewBox="0 0 612 792">
<g>	 
<defs>
   <linearGradient id="colour1"> 
     <stop offset="100%" stop-color="#8DC63F"/> 
   </linearGradient> 
   <linearGradient id="colour2"> 
     <stop offset="100%" stop-color="#21409A"/> 
   </linearGradient> 
</defs>
<path fill="url(#colour2)" d="M264.182,420.166c0.119,0,0.133-0.061,0.119-0.131l-1.975-5.396c-0.025-0.088-0.04-0.195-0.105-0.195
	c-0.066,0-0.112,0.107-0.135,0.195l-2.016,5.377c-0.02,0.09,0,0.15,0.09,0.15H264.182z M259.725,421.263
	c-0.105,0-0.155,0.049-0.198,0.173l-1.181,3.128c-0.22,0.547-0.327,1.069-0.327,1.341c0,0.385,0.195,0.676,0.875,0.676h0.327
	c0.257,0,0.325,0.039,0.325,0.171c0,0.176-0.129,0.215-0.37,0.215c-0.699,0-1.639-0.065-2.316-0.065
	c-0.241,0-1.443,0.065-2.583,0.065c-0.282,0-0.41-0.039-0.41-0.215c0-0.132,0.088-0.171,0.257-0.171
	c0.198,0,0.505-0.027,0.677-0.049c1.009-0.127,1.417-0.874,1.863-1.968l5.489-13.73c0.258-0.635,0.391-0.876,0.608-0.876
	c0.2,0,0.33,0.197,0.548,0.7c0.527,1.201,4.022,10.122,5.425,13.447c0.83,1.97,1.462,2.275,1.922,2.388
	c0.33,0.061,0.654,0.088,0.917,0.088c0.174,0,0.291,0.018,0.291,0.171c0,0.176-0.203,0.215-1.014,0.215
	c-0.782,0-2.384,0-4.127-0.039c-0.396-0.026-0.663-0.026-0.663-0.176c0-0.132,0.093-0.171,0.313-0.198
	c0.148-0.039,0.306-0.236,0.198-0.502l-1.754-4.637c-0.041-0.103-0.103-0.151-0.221-0.151H259.725"/>
<path fill="url(#colour2)" d="M276.89,420.625c0,2.799,0,4.307,0.462,4.707c0.37,0.325,0.938,0.481,2.644,0.481
	c1.163,0,2.011-0.02,2.558-0.618c0.266-0.28,0.528-0.891,0.57-1.303c0.021-0.203,0.063-0.33,0.238-0.33
	c0.158,0,0.18,0.103,0.18,0.369c0,0.244-0.16,1.882-0.33,2.512c-0.129,0.483-0.243,0.596-1.382,0.596
	c-1.571,0-2.708-0.049-3.693-0.073c-0.987-0.039-1.765-0.065-2.666-0.065c-0.241,0-0.721,0.026-1.25,0.026
	c-0.499,0.024-1.069,0.039-1.506,0.039c-0.283,0-0.436-0.065-0.436-0.215c0-0.107,0.083-0.171,0.35-0.171
	c0.322,0,0.587-0.049,0.785-0.086c0.442-0.09,0.544-0.576,0.635-1.211c0.11-0.915,0.11-2.641,0.11-4.658v-3.845
	c0-3.325,0-3.933-0.045-4.636c-0.041-0.742-0.217-1.097-0.942-1.248c-0.174-0.044-0.437-0.063-0.716-0.063
	c-0.248,0-0.376-0.044-0.376-0.195c0-0.153,0.155-0.205,0.481-0.205c1.031,0,2.407,0.071,2.997,0.071
	c0.522,0,2.12-0.071,2.977-0.071c0.303,0,0.456,0.052,0.456,0.205c0,0.151-0.13,0.195-0.396,0.195c-0.237,0-0.587,0.02-0.85,0.063
	c-0.595,0.115-0.771,0.48-0.807,1.248c-0.047,0.703-0.047,1.311-0.047,4.636V420.625z"/>
<path fill="url(#colour2)" d="M292.896,418.902c-0.453-0.328-0.963-0.481-1.813-0.527c-0.394-0.022-0.618-0.022-0.938-0.022
	c-0.091,0-0.138,0.046-0.138,0.153v5.182c0,1.447,0.073,1.813,0.77,2.106c0.59,0.239,1.09,0.257,1.598,0.257
	c0.985,0,2.644-0.521,2.644-2.799C295.021,421.897,294.564,420.062,292.896,418.902 M290.008,417.148
	c0,0.176,0.073,0.221,0.16,0.244c0.193,0.039,0.522,0.071,1.028,0.071c0.72,0,1.202-0.095,1.572-0.42
	c0.565-0.462,0.897-1.245,0.897-2.321c0-1.468-0.857-3.389-2.734-3.389c-0.308,0-0.5,0-0.725,0.043
	c-0.15,0.042-0.198,0.13-0.198,0.377V417.148 M287.386,416.78c0-3.325,0-3.936-0.045-4.634c-0.04-0.747-0.217-1.099-0.939-1.248
	c-0.17-0.046-0.542-0.065-0.853-0.065c-0.233,0-0.373-0.044-0.373-0.195c0-0.153,0.155-0.205,0.488-0.205
	c1.152,0,2.534,0.073,2.972,0.073c1.072,0,1.92-0.073,2.665-0.073c3.96,0,4.66,2.129,4.66,3.286c0,1.795-1.029,2.863-2.229,3.828
	c1.792,0.607,3.979,2.16,3.979,4.719c0,2.342-1.82,4.773-5.842,4.773c-0.265,0-0.89-0.049-1.53-0.073
	c-0.66-0.042-1.313-0.063-1.636-0.063c-0.245,0-0.728,0.021-1.25,0.021c-0.501,0.027-1.071,0.042-1.505,0.042
	c-0.284,0-0.442-0.063-0.442-0.215c0-0.107,0.086-0.171,0.353-0.171c0.327,0,0.587-0.049,0.787-0.086
	c0.437-0.092,0.542-0.576,0.632-1.208c0.107-0.918,0.107-2.646,0.107-4.661V416.78"/>
<path fill="url(#colour2)" d="M301.908,416.78c0-3.325,0-3.936-0.042-4.634c-0.043-0.747-0.223-1.099-0.942-1.248
	c-0.175-0.046-0.55-0.065-0.85-0.065c-0.243,0-0.375-0.044-0.375-0.195c0-0.153,0.157-0.205,0.482-0.205
	c1.159,0,2.535,0.073,3.192,0.073c0.525,0,1.908-0.073,2.69-0.073c0.33,0,0.486,0.052,0.486,0.205c0,0.151-0.137,0.195-0.354,0.195
	c-0.239,0-0.369,0.02-0.635,0.065c-0.587,0.113-0.768,0.479-0.807,1.248c-0.045,0.698-0.045,1.309-0.045,4.634v3.06
	c0,3.176,0.64,4.506,1.704,5.383c0.981,0.811,1.987,0.894,2.734,0.894c0.965,0,2.146-0.303,3.018-1.187
	c1.203-1.191,1.27-3.164,1.27-5.418v-2.731c0-3.325,0-3.936-0.047-4.634c-0.036-0.747-0.219-1.099-0.941-1.248
	c-0.174-0.046-0.54-0.065-0.784-0.065c-0.239,0-0.368-0.044-0.368-0.195c0-0.153,0.153-0.205,0.461-0.205
	c1.113,0,2.485,0.073,2.51,0.073c0.259,0,1.641-0.073,2.495-0.073c0.308,0,0.456,0.052,0.456,0.205c0,0.151-0.129,0.195-0.393,0.195
	c-0.239,0-0.371,0.02-0.633,0.065c-0.593,0.113-0.764,0.479-0.808,1.248c-0.044,0.698-0.044,1.309-0.044,4.634v2.344
	c0,2.425-0.239,5.003-2.078,6.575c-1.557,1.34-3.129,1.579-4.548,1.579c-1.159,0-3.259-0.068-4.857-1.514
	c-1.112-1.003-1.947-2.622-1.947-5.794V416.78z"/>
<path fill="url(#colour2)" d="M324.063,418.506c0,0.24,0.039,0.325,0.195,0.396c0.456,0.158,1.118,0.222,1.665,0.222
	c0.874,0,1.157-0.088,1.553-0.378c0.649-0.477,1.287-1.48,1.287-3.281c0-3.104-2.057-3.994-3.348-3.994
	c-0.547,0-0.942,0.02-1.157,0.085c-0.156,0.039-0.195,0.127-0.195,0.303V418.506z M321.479,416.78c0-3.325,0-3.936-0.042-4.634
	c-0.039-0.747-0.22-1.099-0.938-1.248c-0.179-0.046-0.557-0.065-0.854-0.065c-0.244,0-0.376-0.044-0.376-0.195
	c0-0.153,0.156-0.205,0.488-0.205c1.157,0,2.529,0.073,2.991,0.073c0.744,0,2.406-0.073,3.088-0.073
	c1.375,0,2.842,0.134,4.023,0.944c0.61,0.416,1.479,1.533,1.479,2.998c0,1.619-0.671,3.104-2.884,4.896
	c1.951,2.456,3.457,4.395,4.749,5.749c1.221,1.27,2.116,1.424,2.451,1.492c0.239,0.041,0.439,0.068,0.608,0.068
	c0.178,0,0.261,0.063,0.261,0.171c0,0.173-0.149,0.215-0.41,0.215h-2.08c-1.226,0-1.772-0.098-2.339-0.413
	c-0.945-0.502-1.775-1.533-2.996-3.215c-0.876-1.201-1.879-2.686-2.16-3.016c-0.117-0.131-0.246-0.156-0.405-0.156l-1.895-0.043
	c-0.112,0-0.176,0.043-0.176,0.178v0.303c0,2.036,0,3.765,0.107,4.683c0.068,0.632,0.2,1.116,0.85,1.208
	c0.327,0.037,0.815,0.086,1.074,0.086c0.179,0,0.267,0.063,0.267,0.171c0,0.151-0.154,0.215-0.438,0.215
	c-1.27,0-2.893-0.063-3.218-0.063c-0.42,0-1.792,0.063-2.669,0.063c-0.28,0-0.437-0.063-0.437-0.215
	c0-0.107,0.088-0.171,0.342-0.171c0.332,0,0.596-0.049,0.796-0.086c0.438-0.092,0.545-0.576,0.633-1.208
	c0.107-0.918,0.107-2.646,0.107-4.661V416.78"/>
<path fill="url(#colour2)" d="M340.443,421.312c0-1.188-0.223-1.667-0.506-2.305c-0.151-0.347-3.081-5.159-3.843-6.289
	c-0.552-0.815-1.099-1.36-1.509-1.597c-0.288-0.164-0.659-0.288-0.926-0.288c-0.173,0-0.329-0.044-0.329-0.195
	c0-0.132,0.156-0.205,0.42-0.205c0.391,0,2.028,0.073,2.754,0.073c0.459,0,1.354-0.073,2.339-0.073c0.22,0,0.327,0.073,0.327,0.205
	c0,0.124-0.153,0.151-0.476,0.234c-0.201,0.052-0.306,0.229-0.306,0.394c0,0.176,0.104,0.441,0.259,0.742
	c0.303,0.661,3.369,5.93,3.721,6.54c0.215-0.521,2.967-5.332,3.281-6.011c0.215-0.48,0.298-0.854,0.298-1.138
	c0-0.212-0.083-0.459-0.459-0.547c-0.195-0.036-0.391-0.091-0.391-0.215c0-0.153,0.112-0.205,0.368-0.205
	c0.721,0,1.426,0.073,2.059,0.073c0.483,0,1.929-0.073,2.344-0.073c0.234,0,0.393,0.052,0.393,0.179c0,0.15-0.178,0.222-0.417,0.222
	c-0.22,0-0.635,0.091-0.96,0.269c-0.461,0.213-0.7,0.471-1.184,1.064c-0.723,0.874-3.774,6.016-4.175,6.958
	c-0.332,0.781-0.332,1.465-0.332,2.188v1.787c0,0.352,0,1.27,0.065,2.188c0.052,0.632,0.242,1.116,0.896,1.208
	c0.313,0.039,0.789,0.086,1.102,0.086c0.231,0,0.344,0.063,0.344,0.171c0,0.151-0.176,0.215-0.464,0.215
	c-1.37,0-2.754-0.063-3.335-0.063c-0.552,0-1.934,0.063-2.739,0.063c-0.308,0-0.479-0.039-0.479-0.215
	c0-0.107,0.11-0.171,0.347-0.171c0.308,0,0.571-0.047,0.767-0.086c0.439-0.092,0.638-0.576,0.677-1.208
	c0.068-0.918,0.068-1.836,0.068-2.188V421.312z"/>
<path fill="url(#colour2)" d="M259.858,438.206c0,0.117,0.023,0.163,0.1,0.198c0.248,0.078,0.58,0.114,0.866,0.114
	c0.457,0,0.604-0.044,0.807-0.195c0.343-0.254,0.667-0.774,0.667-1.706c0-1.609-1.06-2.08-1.73-2.08c-0.29,0-0.498,0.01-0.61,0.049
	c-0.077,0.017-0.1,0.059-0.1,0.148V438.206z M258.513,437.303c0-1.73,0-2.053-0.02-2.41c-0.023-0.391-0.112-0.568-0.487-0.646
	c-0.098-0.029-0.286-0.041-0.443-0.041c-0.127,0-0.193-0.02-0.193-0.101s0.076-0.103,0.241-0.103c0.608,0,1.325,0.031,1.563,0.031
	c0.384,0,1.255-0.031,1.61-0.031c0.711,0,1.473,0.07,2.09,0.49c0.315,0.221,0.766,0.799,0.766,1.556c0,0.845-0.351,1.616-1.49,2.549
	c1.009,1.274,1.795,2.285,2.459,2.991c0.646,0.661,1.102,0.736,1.276,0.775c0.129,0.02,0.227,0.032,0.322,0.032
	c0.093,0,0.135,0.029,0.135,0.091c0,0.088-0.085,0.111-0.216,0.111h-1.084c-0.636,0-0.918-0.059-1.213-0.215
	c-0.49-0.261-0.924-0.795-1.561-1.672c-0.456-0.625-0.979-1.396-1.124-1.567c-0.055-0.071-0.128-0.083-0.203-0.083l-0.99-0.018
	c-0.058,0-0.093,0.018-0.093,0.091v0.153c0,1.061,0,1.959,0.055,2.438c0.038,0.332,0.105,0.576,0.443,0.625
	c0.169,0.023,0.427,0.046,0.557,0.046c0.09,0,0.143,0.029,0.143,0.091c0,0.075-0.079,0.111-0.232,0.111
	c-0.663,0-1.496-0.036-1.667-0.036c-0.221,0-0.938,0.036-1.388,0.036c-0.158,0-0.229-0.036-0.229-0.111
	c0-0.062,0.044-0.091,0.182-0.091c0.17,0,0.305-0.022,0.408-0.046c0.229-0.049,0.28-0.293,0.332-0.625
	c0.052-0.479,0.052-1.377,0.052-2.42V437.303"/>
<path fill="url(#colour2)" d="M270.103,439.061c0.059,0,0.07-0.027,0.059-0.066l-1.025-2.805c-0.008-0.049-0.023-0.105-0.058-0.105
	c-0.03,0-0.055,0.057-0.068,0.105l-1.045,2.793c-0.01,0.051,0,0.078,0.05,0.078H270.103z M267.78,439.632
	c-0.052,0-0.075,0.022-0.098,0.085l-0.617,1.629c-0.112,0.291-0.17,0.564-0.17,0.693c0,0.21,0.103,0.356,0.455,0.356h0.172
	c0.138,0,0.167,0.02,0.167,0.088c0,0.091-0.067,0.114-0.193,0.114c-0.362,0-0.845-0.033-1.2-0.033c-0.125,0-0.752,0.033-1.35,0.033
	c-0.139,0-0.212-0.023-0.212-0.114c0-0.068,0.052-0.088,0.14-0.088c0.105,0,0.258-0.013,0.346-0.022
	c0.527-0.072,0.742-0.456,0.972-1.027l2.855-7.141c0.135-0.322,0.2-0.457,0.319-0.457c0.098,0,0.165,0.1,0.281,0.371
	c0.274,0.615,2.092,5.264,2.819,6.994c0.435,1.016,0.76,1.178,1,1.238c0.17,0.031,0.346,0.044,0.482,0.044
	c0.09,0,0.147,0.013,0.147,0.088c0,0.091-0.103,0.114-0.525,0.114c-0.413,0-1.238,0-2.15-0.023c-0.205-0.01-0.343-0.01-0.343-0.091
	c0-0.068,0.045-0.088,0.165-0.101c0.075-0.02,0.155-0.124,0.095-0.258l-0.904-2.412c-0.021-0.059-0.063-0.081-0.112-0.081H267.78"/>
<path fill="url(#colour2)" d="M275.688,441.521c-1.117-0.979-1.413-2.254-1.413-3.361c0-0.765,0.243-2.112,1.331-3.108
	c0.818-0.757,1.897-1.211,3.595-1.211c0.705,0,1.128,0.052,1.642,0.117c0.436,0.056,0.801,0.161,1.143,0.195
	c0.125,0.01,0.173,0.065,0.173,0.13c0,0.092-0.035,0.236-0.06,0.629c-0.026,0.377-0.014,1.002-0.033,1.229
	c-0.012,0.168-0.033,0.264-0.136,0.264c-0.089,0-0.117-0.096-0.117-0.254c-0.012-0.352-0.162-0.754-0.441-1.045
	c-0.374-0.396-1.264-0.698-2.306-0.698c-0.988,0-1.637,0.239-2.142,0.698c-0.825,0.762-1.045,1.836-1.045,2.949
	c0,2.7,2.065,4.043,3.58,4.043c1.02,0,1.63-0.109,2.085-0.637c0.19-0.218,0.342-0.543,0.387-0.75
	c0.031-0.184,0.055-0.232,0.143-0.232c0.085,0,0.105,0.084,0.105,0.176c0,0.137-0.132,1.126-0.248,1.517
	c-0.057,0.192-0.104,0.244-0.299,0.325c-0.45,0.18-1.318,0.264-2.043,0.264C278.031,442.76,276.724,442.415,275.688,441.521"/>
<path fill="url(#colour2)" d="M284.845,437.303c0-1.73,0-2.053-0.025-2.41c-0.02-0.391-0.137-0.58-0.39-0.639
	c-0.122-0.037-0.272-0.049-0.405-0.049c-0.11,0-0.185-0.02-0.185-0.113c0-0.068,0.094-0.09,0.275-0.09
	c0.43,0,1.15,0.031,1.475,0.031c0.288,0,0.955-0.031,1.39-0.031c0.148,0,0.239,0.021,0.239,0.09c0,0.094-0.074,0.113-0.179,0.113
	c-0.115,0-0.208,0.012-0.345,0.041c-0.308,0.051-0.395,0.246-0.418,0.646c-0.024,0.357-0.024,0.68-0.024,2.41v2.002
	c0,1.096,0,1.997,0.048,2.488c0.032,0.307,0.11,0.508,0.449,0.557c0.161,0.023,0.408,0.046,0.583,0.046
	c0.122,0,0.182,0.029,0.182,0.091c0,0.075-0.093,0.111-0.215,0.111c-0.756,0-1.468-0.036-1.775-0.036
	c-0.26,0-0.98,0.036-1.433,0.036c-0.149,0-0.232-0.036-0.232-0.111c0-0.062,0.055-0.091,0.188-0.091
	c0.169,0,0.301-0.022,0.409-0.046c0.226-0.049,0.298-0.237,0.329-0.569c0.06-0.479,0.06-1.38,0.06-2.476V437.303z"/>
<path fill="url(#colour2)" d="M290.842,441.055c0.027,0.887,0.175,1.182,0.399,1.26c0.193,0.068,0.413,0.081,0.596,0.081
	c0.125,0,0.189,0.02,0.189,0.088c0,0.091-0.103,0.112-0.263,0.112c-0.735,0-1.192-0.031-1.407-0.031
	c-0.103,0-0.633,0.031-1.232,0.031c-0.143,0-0.241-0.008-0.241-0.112c0-0.068,0.065-0.088,0.18-0.088
	c0.141,0,0.353-0.013,0.508-0.056c0.295-0.091,0.346-0.423,0.353-1.412l0.103-6.73c0-0.227,0.038-0.389,0.148-0.389
	c0.125,0,0.222,0.152,0.422,0.357c0.141,0.146,1.863,1.996,3.528,3.645c0.764,0.776,2.302,2.41,2.495,2.588h0.062l-0.118-5.103
	c-0.01-0.693-0.11-0.908-0.385-1.019c-0.174-0.072-0.439-0.072-0.602-0.072c-0.136,0-0.181-0.029-0.181-0.101
	c0-0.093,0.122-0.103,0.293-0.103c0.587,0,1.14,0.029,1.377,0.029c0.131,0,0.556-0.029,1.116-0.029c0.146,0,0.262,0.01,0.262,0.103
	c0,0.071-0.075,0.101-0.202,0.101c-0.116,0-0.205,0-0.351,0.039c-0.313,0.088-0.405,0.326-0.417,0.969l-0.122,7.17
	c0,0.252-0.047,0.352-0.15,0.352c-0.119,0-0.26-0.121-0.386-0.251c-0.721-0.679-2.172-2.168-3.35-3.343
	c-1.248-1.223-2.508-2.648-2.713-2.861h-0.038L290.842,441.055z"/>
<path fill="url(#colour2)" d="M308.106,441.836c0,0.309-0.01,0.335-0.151,0.413c-0.734,0.386-1.851,0.511-2.732,0.511
	c-2.79,0-5.255-1.318-5.255-4.461c0-1.821,0.945-3.088,1.98-3.713c1.087-0.66,2.101-0.742,3.055-0.742
	c0.784,0,1.787,0.139,2.014,0.18c0.234,0.049,0.635,0.12,0.898,0.13c0.129,0.01,0.161,0.052,0.161,0.132
	c0,0.125-0.078,0.447-0.078,1.867c0,0.184-0.044,0.237-0.132,0.237c-0.078,0-0.103-0.054-0.112-0.146
	c-0.032-0.259-0.093-0.628-0.386-0.944c-0.342-0.361-1.255-0.889-2.538-0.889c-0.622,0-1.452,0.046-2.248,0.71
	c-0.635,0.532-1.048,1.387-1.048,2.786c0,2.441,1.558,4.271,3.954,4.271c0.298,0,0.698,0,0.969-0.124
	c0.173-0.081,0.215-0.229,0.215-0.417v-1.077c0-0.566,0-0.993-0.005-1.335c-0.022-0.389-0.117-0.569-0.496-0.65
	c-0.083-0.023-0.283-0.039-0.439-0.039c-0.1,0-0.176-0.017-0.176-0.09c0-0.09,0.088-0.109,0.239-0.109
	c0.596,0,1.311,0.033,1.65,0.033c0.356,0,0.952-0.033,1.333-0.033c0.146,0,0.229,0.02,0.229,0.109c0,0.073-0.068,0.09-0.148,0.09
	c-0.094,0-0.174,0.016-0.311,0.039c-0.308,0.057-0.43,0.247-0.43,0.65c-0.015,0.342-0.015,0.791-0.015,1.367V441.836z"/>
<path fill="url(#colour2)" d="M315.318,441.521c-1.118-0.979-1.411-2.254-1.411-3.361c0-0.765,0.239-2.112,1.328-3.108
	c0.82-0.757,1.899-1.211,3.599-1.211c0.698,0,1.123,0.052,1.646,0.117c0.435,0.056,0.798,0.161,1.138,0.195
	c0.122,0.01,0.168,0.065,0.168,0.13c0,0.092-0.026,0.236-0.056,0.629c-0.022,0.377-0.013,1.002-0.032,1.229
	c-0.012,0.168-0.036,0.264-0.139,0.264c-0.093,0-0.112-0.096-0.112-0.254c-0.01-0.352-0.161-0.754-0.444-1.045
	c-0.376-0.396-1.265-0.698-2.305-0.698c-0.991,0-1.641,0.239-2.139,0.698c-0.835,0.762-1.05,1.836-1.05,2.949
	c0,2.7,2.061,4.043,3.587,4.043c1.008,0,1.623-0.109,2.08-0.637c0.195-0.218,0.336-0.543,0.383-0.75
	c0.039-0.184,0.059-0.232,0.148-0.232c0.078,0,0.098,0.084,0.098,0.176c0,0.137-0.127,1.126-0.246,1.517
	c-0.057,0.192-0.103,0.244-0.295,0.325c-0.457,0.18-1.321,0.264-2.044,0.264C317.662,442.76,316.349,442.415,315.318,441.521"/>
<path fill="url(#colour2)" d="M325.89,439.305c0,1.45,0,2.234,0.239,2.443c0.195,0.166,0.498,0.25,1.379,0.25
	c0.604,0,1.045-0.01,1.328-0.32c0.135-0.148,0.276-0.464,0.299-0.679c0.012-0.11,0.029-0.173,0.129-0.173
	c0.076,0,0.088,0.053,0.088,0.197c0,0.122-0.086,0.975-0.176,1.301c-0.063,0.25-0.125,0.311-0.713,0.311
	c-0.82,0-1.414-0.021-1.919-0.037c-0.518-0.023-0.923-0.033-1.392-0.033c-0.117,0-0.376,0.01-0.649,0.01
	c-0.261,0.014-0.557,0.023-0.778,0.023c-0.154,0-0.232-0.033-0.232-0.114c0-0.059,0.044-0.088,0.186-0.088
	c0.168,0,0.308-0.022,0.405-0.044c0.229-0.054,0.286-0.295,0.332-0.625c0.054-0.48,0.054-1.379,0.054-2.422v-2.002
	c0-1.729,0-2.053-0.018-2.41c-0.021-0.393-0.114-0.568-0.49-0.646c-0.096-0.027-0.232-0.041-0.376-0.041
	c-0.127,0-0.195-0.02-0.195-0.104c0-0.075,0.083-0.1,0.251-0.1c0.533,0,1.25,0.031,1.559,0.031c0.275,0,1.105-0.031,1.545-0.031
	c0.161,0,0.242,0.024,0.242,0.1c0,0.084-0.071,0.104-0.211,0.104c-0.127,0-0.305,0.014-0.439,0.041
	c-0.31,0.049-0.4,0.244-0.417,0.646c-0.029,0.357-0.029,0.682-0.029,2.41V439.305z"/>
<path fill="url(#colour2)" d="M331.09,437.303c0-1.73,0-2.053-0.02-2.41c-0.024-0.391-0.117-0.568-0.493-0.646
	c-0.093-0.029-0.286-0.041-0.444-0.041c-0.122,0-0.195-0.02-0.195-0.101s0.083-0.103,0.252-0.103c0.605,0,1.325,0.031,1.664,0.031
	c0.267,0,0.989-0.031,1.395-0.031c0.174,0,0.252,0.021,0.252,0.103s-0.066,0.101-0.179,0.101c-0.127,0-0.19,0.012-0.337,0.041
	c-0.305,0.051-0.396,0.246-0.412,0.646c-0.025,0.357-0.025,0.68-0.025,2.41v1.59c0,1.65,0.332,2.346,0.887,2.797
	c0.513,0.423,1.035,0.467,1.421,0.467c0.498,0,1.108-0.158,1.569-0.617c0.623-0.621,0.657-1.648,0.657-2.815v-1.421
	c0-1.73,0-2.053-0.022-2.41c-0.02-0.391-0.111-0.568-0.485-0.646c-0.093-0.029-0.288-0.041-0.415-0.041s-0.195-0.02-0.195-0.101
	s0.088-0.103,0.246-0.103c0.574,0,1.297,0.031,1.312,0.031c0.132,0,0.845-0.031,1.294-0.031c0.156,0,0.229,0.021,0.229,0.103
	s-0.063,0.101-0.198,0.101c-0.127,0-0.192,0.012-0.332,0.041c-0.303,0.051-0.397,0.246-0.42,0.646
	c-0.023,0.357-0.023,0.68-0.023,2.41v1.216c0,1.265-0.12,2.603-1.082,3.421c-0.806,0.695-1.619,0.817-2.363,0.817
	c-0.601,0-1.694-0.032-2.524-0.784c-0.581-0.521-1.011-1.361-1.011-3.01V437.303z"/>
<path fill="url(#colour2)" d="M344.361,438.404c-0.239-0.174-0.498-0.252-0.947-0.273c-0.203-0.013-0.317-0.013-0.488-0.013
	c-0.039,0-0.068,0.024-0.068,0.088v2.683c0,0.758,0.037,0.947,0.4,1.1c0.308,0.124,0.574,0.134,0.825,0.134
	c0.515,0,1.382-0.271,1.382-1.458C345.465,439.961,345.221,439.004,344.361,438.404 M342.857,437.496
	c0,0.092,0.037,0.114,0.08,0.121c0.101,0.02,0.273,0.037,0.535,0.037c0.379,0,0.625-0.044,0.82-0.22
	c0.293-0.234,0.464-0.647,0.464-1.201c0-0.759-0.444-1.763-1.419-1.763c-0.158,0-0.261,0-0.378,0.021
	c-0.073,0.027-0.103,0.066-0.103,0.191V437.496 M341.495,437.303c0-1.73,0-2.053-0.026-2.41c-0.02-0.391-0.107-0.568-0.486-0.646
	c-0.093-0.029-0.283-0.041-0.441-0.041c-0.127,0-0.193-0.02-0.193-0.101s0.078-0.103,0.252-0.103c0.598,0,1.315,0.031,1.54,0.031
	c0.563,0,1.003-0.031,1.39-0.031c2.058,0,2.422,1.105,2.422,1.707c0,0.932-0.533,1.491-1.16,1.992c0.93,0.319,2.07,1.123,2.07,2.455
	c0,1.217-0.939,2.479-3.029,2.479c-0.145,0-0.472-0.021-0.801-0.037c-0.338-0.023-0.682-0.036-0.853-0.036
	c-0.132,0-0.376,0.013-0.649,0.013c-0.266,0.014-0.557,0.023-0.783,0.023c-0.146,0-0.23-0.036-0.23-0.111
	c0-0.062,0.047-0.091,0.184-0.091c0.171,0,0.303-0.022,0.405-0.046c0.234-0.049,0.288-0.293,0.332-0.625
	c0.059-0.479,0.059-1.377,0.059-2.42V437.303"/>
<path fill="url(#colour1)" d="M305.646,398.768c29.331-0.764,54.761-6.653,65.817-14.041c-12.565,5.642-34.221,9.841-58.586,10.483
	c-39.556,1.021-65.966-7.603-59.674-18.162c1.593-2.668,5.128-5.181,10.045-7.432c-8.677,2.93-15.029,6.504-17.455,10.381
	C238.968,390.889,265.44,399.817,305.646,398.768"/>
<path fill="url(#colour2)" d="M281.766,383.934l9.392,5.994c0,0,8.525-8.75,21.167-10.085c11.335-1.201,18.848,3.101,18.848,3.101
	s-15.508-11.296-31.635-7.783C289.631,377.308,281.766,383.934,281.766,383.934"/>
<path fill="url(#colour2)" d="M266.193,374.009l10.155,6.516c0,0,5.439-5.396,21.172-8.21c17.478-3.135,33.304,8.257,33.304,8.257
	s-19.837-17.51-44.104-13.289C272.816,369.698,266.193,374.009,266.193,374.009"/>
<path fill="url(#colour2)" d="M286.721,361.497c8.31-1.448,16.098-0.342,22.748,1.733c0.027-0.293,0.044-0.591,0.044-0.894
	c0-5.945-4.822-10.759-10.764-10.759c-4.773,0-8.813,3.105-10.221,7.395c-0.964,0.627-2.862,1.47-5.752,3.306
	C284.023,362.005,285.326,361.736,286.721,361.497"/>
<path fill="url(#colour1)" d="M323.617,363.909c-5.955-4.297-11.016-6.213-12.82-6.907c1.128,2.043,1.76,4.392,1.729,6.897
	c-0.005,0.095-0.015,0.198-0.02,0.3c2.505,0.842,9.155,3.75,15.07,8.22c12.029,9.097,14.964,14.224,14.964,14.224
	S338.653,374.747,323.617,363.909"/>
 </g>
</svg>
