<?xml version="1.0" encoding="utf-8"?>
<!-- Generator: Adobe Illustrator 14.0.0, SVG Export Plug-In . SVG Version: 6.00 Build 43363)  -->
<!DOCTYPE svg PUBLIC "-//W3C//DTD SVG 1.1//EN" "http://www.w3.org/Graphics/SVG/1.1/DTD/svg11.dtd">
<svg version="1.1" xmlns="http://www.w3.org/2000/svg" xmlns:xlink="http://www.w3.org/1999/xlink" x="0px" y="0px" width="504px"
	 height="504px" viewBox="0 0 504 504" enable-background="new 0 0 504 504" xml:space="preserve">
<defs>
   <linearGradient id="colour1">
     <stop offset="100%" stop-color="red"/>
   </linearGradient>
</defs>
<g>
	<path fill="url(#colour1)" d="M195.5,165c0,0,23.5,28.5,45.5,0c0,0,35-23.5,57,0l7.5,12.667c0,0,7,11.833-4,18.833c0,0,3,12.5,0.5,15.5
		c0,0,17,13.5-4,16.5l-1,3.5l21.5,4c0,0,23.5-18.5,32.5,7.5l31,5.5c0,0,40,6.5,53.5,0c0,0,10.5-3,14-6.5L438,310
		c0,0-13.5-16.5-17.5-18c0,0-11-9.5-33-19.5c0,0-40.5-15.5-44-16.5c0,0-1.5,11.5-10.5,12.5l6.5,12c0,0-23.5,20-79-8.5
		c0,0-20,89-93.5,130c0,0-10-5.5-30-39.5c0,0-16,19.5-20.5-7.5c0,0-25.5,9-11.5-25c0,0,5.5-9.5,13.5-13.5c0,0-10.5-37-10.5-42.5
		c0,0,40.5,11,79.5-18c0,0-25.5,13-40.5,12.5c0,0-25.5,7.5-41.5-20.5c0,0-14-9-16.5-18c0,0-12-4.5-16.5-25c0,0,50,2.5,82-12
		c0,0,20.5-14,42.5,10C197,203,192,182,195.5,165z"/>
</g>
</svg>
