<?xml version="1.0" encoding="utf-8"?>
<svg version="1.0" id="Layer_1" xmlns="http://www.w3.org/2000/svg" xmlns:xlink="http://www.w3.org/1999/xlink" viewBox="0 0 800 600" xml:space="preserve">
<defs>
   <linearGradient id="colour1">
     <stop offset="100%" stop-color="black"/>
   </linearGradient> 
 </defs>
<g fill="url(#colour1)" stroke="none">
	<path d="M199.527,336.441c-64.578,0-117.116-52.538-117.116-117.116s52.538-117.116,117.116-117.116
		s117.116,52.538,117.116,117.116S264.105,336.441,199.527,336.441L199.527,336.441z M199.527,119.809
		c-54.873,0-99.516,44.643-99.516,99.516c0,54.874,44.643,99.517,99.516,99.517c54.874,0,99.517-44.643,99.517-99.517
		C299.044,164.452,254.401,119.809,199.527,119.809L199.527,119.809z"/>
	<path d="M180.845,111.938h37.085l76.683,214.773h-37.364l-18.683-56.854h-79.472l-18.679,56.854h-35.972L180.845,111.938z
		 M168.576,241.283h60.787l-29.836-92.344h-0.837L168.576,241.283z"/>
	<path d="M146.755,248.746c0,12.642,5.083,22,15.257,28.077c10.167,6.08,23.493,9.117,39.968,9.117
		c15.659,0,27.254-2.553,34.782-7.656c7.521-5.107,11.288-11.306,11.288-18.6c0-6.157-1.679-10.855-5.036-14.1
		c-3.356-3.238-7.677-5.672-12.965-7.293c-6.513-1.942-18.511-4.699-36.002-8.264c-13.424-2.756-23.088-4.78-28.985-6.081
		c-17.29-3.726-29.646-9.479-37.069-17.257c-7.428-7.782-11.137-16.69-11.137-26.741c0-8.425,2.185-15.84,6.561-22.243
		c4.37-6.403,10.373-11.752,18.001-16.044c7.627-4.293,16.171-7.495,25.628-9.605c9.458-2.104,19.27-3.158,29.442-3.158
		c11.595,0,22.425,1.177,32.493,3.525c10.069,2.35,18.966,5.918,26.698,10.696c7.729,4.78,13.729,10.657,18,17.624
		c4.271,6.97,6.406,14.831,6.406,23.581h-38.138c-0.814-10.696-5.338-18.478-13.574-23.338c-8.24-4.864-19.375-7.293-33.411-7.293
		c-4.88,0-9.611,0.366-14.187,1.096c-4.576,0.728-8.848,1.984-12.815,3.769c-3.966,1.784-7.122,4.131-9.457,7.049
		c-2.341,2.915-3.51,6.482-3.51,10.696c0,5.833,2.288,10.575,6.865,14.221c4.578,3.647,10.931,6.36,19.069,8.145l8.542,1.7
		c9.154,1.946,17.695,3.77,25.628,5.471c7.933,1.701,14.235,3.037,18.915,4.009c4.68,0.973,7.933,1.701,9.765,2.189
		c13.625,3.245,24.103,9.035,31.426,17.38c7.323,8.348,10.983,17.304,10.983,26.863c0,9.404-2.392,17.588-7.17,24.555
		c-4.781,6.97-11.241,12.641-19.372,17.017c-8.139,4.375-17.392,7.62-27.766,9.724c-10.372,2.102-21.155,3.158-32.339,3.158
		c-12.614,0-24.409-1.255-35.392-3.766c-10.982-2.513-20.594-6.281-28.833-11.306c-8.236-5.022-14.696-11.505-19.373-19.447
		c-4.683-7.94-7.122-17.097-7.323-27.471H146.755z"/>
</g>
</svg>
