<?xml version="1.0" encoding="utf-8"?>
<!-- Generator: Adobe Illustrator 14.0.0, SVG Export Plug-In . SVG Version: 6.00 Build 43363)  -->
<!DOCTYPE svg PUBLIC "-//W3C//DTD SVG 1.0//EN" "http://www.w3.org/TR/2001/REC-SVG-20010904/DTD/svg10.dtd">
<svg version="1.0" xmlns="http://www.w3.org/2000/svg" xmlns:xlink="http://www.w3.org/1999/xlink" x="0px" y="0px"
	 width="680.315px" height="493.229px" viewBox="0 0 680.315 493.229" enable-background="new 0 0 680.315 493.229"
	 xml:space="preserve">
<defs>
   <linearGradient id="colour0"> 
     <stop offset="100%" stop-color="gray"/> 
   </linearGradient> 
   <linearGradient id="colour1"> 
     <stop offset="100%" stop-color="red"/> 
   </linearGradient> 
 </defs>	 
<g id="atc_logo">
	<rect x="183.658" y="216.114" fill="none" stroke="url(#colour1)" stroke-width="0.3089" width="238" height="78"/>
	<g>
		<path fill="url(#colour1)" d="M224.419,249l-2.325,6.15h4.65L224.419,249z M217.549,261.323h1.86l5.707-15.135h0.509l5.749,15.135h1.882
			v0.296h-6.512v-0.296h2.347l-2.221-5.877h-4.902l-2.22,5.877h2.346v0.296h-4.545V261.323z"/>
		<g>
			<path fill="url(#colour1)" d="M243.56,261.619h-3.403v-2.135h-0.042c-0.127,0.282-0.279,0.567-0.455,0.855
				c-0.176,0.289-0.395,0.551-0.654,0.783c-0.262,0.231-0.564,0.422-0.909,0.57c-0.347,0.147-0.751,0.222-1.216,0.222
				c-0.564,0-1.022-0.063-1.373-0.189c-0.354-0.127-0.629-0.262-0.825-0.402c-0.101-0.071-0.208-0.158-0.327-0.264
				c-0.121-0.106-0.23-0.251-0.328-0.435c-0.1-0.182-0.184-0.418-0.255-0.707c-0.07-0.289-0.105-0.645-0.105-1.067v-6.003h-1.627
				v-0.297h3.445v6.489c0,0.367,0.025,0.706,0.074,1.016c0.05,0.31,0.144,0.58,0.286,0.813c0.141,0.233,0.323,0.417,0.549,0.55
				c0.224,0.136,0.521,0.201,0.888,0.201c0.31,0,0.631-0.092,0.961-0.275c0.332-0.182,0.635-0.443,0.909-0.781
				c0.276-0.338,0.504-0.743,0.688-1.216c0.183-0.473,0.274-1.004,0.274-1.596v-4.903h-1.606v-0.297h3.425v8.772h1.627V261.619z"/>
			<path fill="url(#colour1)" d="M244.542,258.66h0.234c0.096,0.338,0.223,0.68,0.379,1.025c0.155,0.346,0.363,0.662,0.623,0.951
				c0.261,0.289,0.583,0.526,0.963,0.708c0.38,0.183,0.838,0.274,1.374,0.274c0.45,0,0.853-0.138,1.205-0.411
				c0.351-0.275,0.528-0.724,0.528-1.343c0-0.535-0.138-0.912-0.413-1.132c-0.274-0.219-0.596-0.391-0.961-0.518l-1.649-0.57
				c-0.212-0.069-0.441-0.158-0.688-0.265c-0.245-0.106-0.475-0.253-0.686-0.443s-0.384-0.433-0.518-0.729
				c-0.135-0.296-0.201-0.677-0.201-1.142c0-0.395,0.077-0.762,0.232-1.1c0.154-0.338,0.367-0.633,0.635-0.888
				c0.267-0.253,0.589-0.45,0.962-0.592c0.374-0.141,0.777-0.211,1.215-0.211c0.31,0,0.56,0.024,0.75,0.073
				c0.19,0.05,0.355,0.1,0.498,0.148c0.14,0.05,0.266,0.099,0.38,0.148c0.112,0.05,0.246,0.074,0.401,0.074
				c0.154,0,0.268-0.057,0.338-0.17h0.233v2.41h-0.233c-0.099-0.311-0.211-0.609-0.338-0.898s-0.277-0.546-0.454-0.771
				s-0.396-0.401-0.654-0.529c-0.262-0.127-0.57-0.189-0.921-0.189c-0.676,0-1.201,0.151-1.575,0.453
				c-0.374,0.305-0.559,0.709-0.559,1.217c0,0.451,0.157,0.793,0.475,1.024c0.317,0.233,0.786,0.448,1.405,0.646l1.544,0.507
				c0.662,0.226,1.205,0.536,1.627,0.931c0.423,0.395,0.635,0.916,0.635,1.564c0,0.38-0.075,0.754-0.222,1.12
				c-0.148,0.366-0.366,0.687-0.655,0.962c-0.29,0.274-0.642,0.497-1.057,0.666c-0.417,0.169-0.893,0.253-1.428,0.253
				c-0.311,0-0.596-0.031-0.856-0.094c-0.26-0.064-0.5-0.132-0.719-0.202c-0.219-0.069-0.419-0.138-0.602-0.2
				c-0.183-0.064-0.354-0.095-0.508-0.095c-0.155,0-0.268,0.03-0.339,0.095c-0.071,0.063-0.126,0.131-0.167,0.2h-0.234V258.66z"/>
			<path fill="url(#colour1)" d="M251.668,252.551h1.628v-2.727c0.112,0.042,0.218,0.077,0.316,0.106c0.099,0.027,0.268,0.042,0.508,0.042
				c0.211,0,0.395-0.025,0.55-0.074c0.155-0.05,0.303-0.13,0.444-0.243v2.896h7.024v0.297h-7.024v6.911
				c0,0.395,0.038,0.716,0.115,0.963c0.077,0.245,0.181,0.437,0.307,0.569c0.127,0.134,0.265,0.223,0.413,0.266
				c0.146,0.042,0.292,0.063,0.433,0.063c0.493,0,0.891-0.179,1.194-0.539c0.303-0.358,0.497-0.771,0.581-1.237l0.296,0.106
				c-0.042,0.184-0.105,0.388-0.19,0.613c-0.084,0.226-0.214,0.44-0.391,0.645c-0.175,0.204-0.405,0.374-0.688,0.508
				s-0.634,0.2-1.057,0.2c-1.057,0-1.794-0.204-2.209-0.611c-0.416-0.409-0.623-0.987-0.623-1.735v-6.721h-1.628V252.551z"/>
			<path fill="url(#colour1)" d="M258.708,261.323h1.628v-8.477h-1.628v-0.295h3.405v2.135h0.041c0.057-0.212,0.147-0.451,0.274-0.72
				c0.127-0.268,0.304-0.524,0.528-0.771c0.227-0.247,0.497-0.455,0.814-0.624c0.316-0.169,0.701-0.253,1.152-0.253
				c0.324,0,0.605,0.054,0.846,0.158c0.238,0.107,0.436,0.24,0.592,0.402c0.155,0.162,0.268,0.349,0.338,0.561
				c0.07,0.21,0.106,0.422,0.106,0.633c0,0.466-0.106,0.776-0.317,0.931c-0.212,0.155-0.458,0.232-0.74,0.232
				c-0.621,0-0.931-0.196-0.931-0.592c0-0.127,0.015-0.229,0.043-0.306c0.028-0.078,0.06-0.155,0.095-0.233
				c0.036-0.077,0.067-0.165,0.095-0.264c0.029-0.1,0.043-0.24,0.043-0.423c0-0.451-0.246-0.678-0.739-0.678
				c-0.227,0-0.466,0.085-0.72,0.256c-0.253,0.169-0.489,0.414-0.708,0.738c-0.22,0.325-0.401,0.716-0.55,1.173
				c-0.147,0.458-0.222,0.983-0.222,1.575v4.841h1.839v0.296h-5.285V261.323z"/>
			<path fill="url(#colour1)" d="M272.817,256.439h-0.042c-0.028,0.184-0.26,0.367-0.697,0.551l-1.586,0.635
				c-0.451,0.182-0.795,0.439-1.035,0.77c-0.24,0.332-0.359,0.744-0.359,1.237c0,0.211,0.021,0.431,0.063,0.655
				c0.043,0.226,0.12,0.428,0.234,0.603c0.111,0.178,0.27,0.321,0.475,0.435c0.204,0.112,0.469,0.169,0.792,0.169
				c0.466,0,0.843-0.101,1.132-0.296c0.289-0.197,0.506-0.444,0.656-0.741c0.147-0.295,0.245-0.615,0.295-0.961
				c0.049-0.345,0.073-0.658,0.073-0.941V256.439z M276.517,261.387c-0.184,0.142-0.401,0.266-0.656,0.37
				c-0.253,0.105-0.563,0.158-0.929,0.158c-0.677,0-1.167-0.146-1.47-0.434c-0.304-0.287-0.511-0.693-0.623-1.215h-0.043
				c-0.056,0.126-0.134,0.285-0.232,0.476s-0.251,0.373-0.455,0.55c-0.204,0.176-0.475,0.325-0.813,0.444
				c-0.338,0.119-0.768,0.179-1.29,0.179c-0.591,0-1.063-0.067-1.416-0.2c-0.352-0.134-0.627-0.3-0.823-0.497
				c-0.198-0.198-0.328-0.419-0.392-0.666c-0.063-0.247-0.095-0.476-0.095-0.687c0-0.493,0.098-0.889,0.295-1.185
				c0.198-0.296,0.455-0.532,0.772-0.708c0.315-0.177,0.669-0.319,1.057-0.433c0.387-0.113,0.779-0.233,1.173-0.359
				c0.465-0.154,0.85-0.289,1.152-0.402c0.303-0.112,0.539-0.249,0.708-0.412c0.169-0.162,0.286-0.366,0.349-0.612
				c0.064-0.247,0.095-0.581,0.095-1.005c0-0.338-0.02-0.64-0.063-0.908c-0.042-0.267-0.119-0.497-0.231-0.688
				c-0.113-0.19-0.274-0.334-0.486-0.434c-0.212-0.098-0.493-0.147-0.846-0.147c-0.465,0-0.85,0.081-1.151,0.243
				c-0.304,0.161-0.455,0.427-0.455,0.793c0,0.239,0.021,0.475,0.063,0.707c0.043,0.233,0.065,0.406,0.065,0.519
				c0,0.197-0.071,0.363-0.212,0.496c-0.143,0.134-0.347,0.201-0.614,0.201c-0.464,0-0.753-0.084-0.866-0.253
				c-0.112-0.169-0.169-0.388-0.169-0.655c0-0.311,0.07-0.607,0.211-0.888c0.142-0.281,0.35-0.532,0.624-0.751
				c0.275-0.218,0.619-0.392,1.035-0.519c0.415-0.126,0.893-0.189,1.427-0.189c0.649,0,1.191,0.082,1.629,0.242
				c0.437,0.163,0.787,0.382,1.057,0.656c0.267,0.275,0.458,0.584,0.57,0.93c0.113,0.346,0.169,0.708,0.169,1.089v5.263
				c0,0.41,0.064,0.685,0.19,0.825c0.127,0.141,0.311,0.212,0.55,0.212c0.155,0,0.318-0.029,0.485-0.085
				c0.169-0.057,0.332-0.142,0.488-0.253L276.517,261.387z"/>
		</g>
		<polygon fill="url(#colour1)" points="276.731,261.323 278.359,261.323 278.359,246.675 276.731,246.675 276.731,246.378 
			280.176,246.378 280.176,261.323 281.803,261.323 281.803,261.619 276.731,261.619 		"/>
		<g>
			<path fill="url(#colour1)" d="M283.931,247.626c0-0.311,0.11-0.574,0.329-0.793c0.218-0.219,0.482-0.328,0.791-0.328
				c0.312,0,0.575,0.109,0.794,0.328c0.218,0.219,0.327,0.482,0.327,0.793c0,0.31-0.109,0.574-0.327,0.792
				c-0.219,0.219-0.482,0.328-0.794,0.328c-0.309,0-0.573-0.109-0.791-0.328C284.042,248.2,283.931,247.936,283.931,247.626
				 M282.558,261.323h1.628v-8.477h-1.628v-0.295h3.445v8.771h1.627v0.296h-5.072V261.323z"/>
			<path fill="url(#colour1)" d="M293.899,256.439h-0.043c-0.028,0.184-0.26,0.367-0.697,0.551l-1.586,0.635
				c-0.45,0.182-0.796,0.439-1.035,0.77c-0.239,0.332-0.359,0.744-0.359,1.237c0,0.211,0.021,0.431,0.063,0.655
				c0.043,0.226,0.12,0.428,0.234,0.603c0.112,0.178,0.271,0.321,0.475,0.435c0.204,0.112,0.468,0.169,0.793,0.169
				c0.464,0,0.843-0.101,1.131-0.296c0.288-0.197,0.509-0.444,0.655-0.741c0.147-0.295,0.246-0.615,0.295-0.961
				c0.051-0.345,0.075-0.658,0.075-0.941V256.439z M297.598,261.387c-0.185,0.142-0.401,0.266-0.656,0.37
				c-0.253,0.105-0.563,0.158-0.93,0.158c-0.676,0-1.166-0.146-1.47-0.434c-0.303-0.287-0.51-0.693-0.622-1.215h-0.043
				c-0.057,0.126-0.134,0.285-0.232,0.476c-0.098,0.19-0.251,0.373-0.453,0.55c-0.205,0.176-0.476,0.325-0.815,0.444
				c-0.338,0.119-0.769,0.179-1.289,0.179c-0.592,0-1.064-0.067-1.416-0.2c-0.353-0.134-0.627-0.3-0.825-0.497
				c-0.197-0.198-0.328-0.419-0.392-0.666c-0.063-0.247-0.094-0.476-0.094-0.687c0-0.493,0.098-0.889,0.295-1.185
				c0.198-0.296,0.455-0.532,0.772-0.708c0.317-0.177,0.669-0.319,1.057-0.433s0.779-0.233,1.173-0.359
				c0.465-0.154,0.849-0.289,1.152-0.402c0.304-0.112,0.539-0.249,0.708-0.412c0.169-0.162,0.286-0.366,0.349-0.612
				c0.063-0.247,0.096-0.581,0.096-1.005c0-0.338-0.021-0.64-0.063-0.908c-0.043-0.267-0.12-0.497-0.232-0.688
				c-0.113-0.19-0.274-0.334-0.486-0.434c-0.211-0.098-0.494-0.147-0.845-0.147c-0.466,0-0.85,0.081-1.153,0.243
				c-0.303,0.161-0.454,0.427-0.454,0.793c0,0.239,0.021,0.475,0.063,0.707c0.042,0.233,0.063,0.406,0.063,0.519
				c0,0.197-0.071,0.363-0.211,0.496c-0.141,0.134-0.346,0.201-0.614,0.201c-0.464,0-0.753-0.084-0.866-0.253
				c-0.112-0.169-0.169-0.388-0.169-0.655c0-0.311,0.071-0.607,0.211-0.888c0.142-0.281,0.35-0.532,0.624-0.751
				c0.275-0.218,0.619-0.392,1.036-0.519c0.416-0.126,0.892-0.189,1.426-0.189c0.648,0,1.191,0.082,1.629,0.242
				c0.437,0.163,0.79,0.382,1.057,0.656c0.268,0.275,0.458,0.584,0.57,0.93s0.17,0.708,0.17,1.089v5.263
				c0,0.41,0.063,0.685,0.189,0.825s0.31,0.212,0.549,0.212c0.156,0,0.317-0.029,0.486-0.085c0.169-0.057,0.332-0.142,0.487-0.253
				L297.598,261.387z"/>
			<path fill="url(#colour1)" d="M297.785,261.323h1.627v-8.477h-1.627v-0.295h3.402v2.261h0.042c0.085-0.182,0.208-0.416,0.37-0.697
				c0.162-0.282,0.385-0.556,0.666-0.824c0.282-0.268,0.635-0.497,1.058-0.687c0.423-0.191,0.936-0.286,1.544-0.286
				c0.93,0,1.687,0.227,2.271,0.678c0.585,0.449,0.879,1.169,0.879,2.154v6.173h1.627v0.296h-5.073v-0.296h1.628v-6.827
				c0-0.551-0.13-1.002-0.391-1.354c-0.262-0.352-0.667-0.528-1.217-0.528c-0.45,0-0.88,0.1-1.289,0.295
				c-0.409,0.198-0.768,0.474-1.078,0.825c-0.31,0.353-0.554,0.769-0.729,1.247c-0.177,0.48-0.266,1.001-0.266,1.565v4.776h1.629
				v0.296h-5.073V261.323z"/>
			<path fill="url(#colour1)" d="M315.652,261.323h2.346v-14.458h-1.227c-0.281,0-0.599,0.023-0.95,0.073
				c-0.353,0.049-0.708,0.187-1.067,0.412c-0.36,0.226-0.705,0.581-1.037,1.067c-0.33,0.486-0.616,1.16-0.854,2.02h-0.233v-3.869
				h12.852v3.869h-0.231c-0.24-0.859-0.525-1.533-0.857-2.02c-0.331-0.486-0.676-0.842-1.035-1.067s-0.716-0.363-1.067-0.412
				c-0.353-0.05-0.669-0.073-0.951-0.073h-1.226v14.458h2.347v0.296h-6.807V261.323z"/>
			<path fill="url(#colour1)" d="M335.216,261.619h-3.402v-2.135h-0.043c-0.126,0.282-0.278,0.567-0.454,0.855
				c-0.177,0.289-0.395,0.551-0.656,0.782c-0.26,0.232-0.563,0.423-0.908,0.571c-0.346,0.147-0.75,0.222-1.214,0.222
				c-0.565,0-1.023-0.063-1.374-0.189c-0.354-0.127-0.63-0.262-0.825-0.402c-0.1-0.071-0.209-0.158-0.328-0.264
				c-0.12-0.106-0.23-0.251-0.328-0.435c-0.098-0.182-0.182-0.418-0.253-0.708c-0.071-0.288-0.107-0.644-0.107-1.067v-6.002h-1.627
				v-0.297h3.446v6.489c0,0.366,0.024,0.705,0.073,1.016c0.05,0.309,0.145,0.58,0.286,0.813c0.141,0.233,0.323,0.417,0.549,0.55
				c0.226,0.136,0.521,0.201,0.888,0.201c0.311,0,0.631-0.092,0.962-0.275c0.332-0.183,0.635-0.443,0.91-0.781
				s0.503-0.743,0.686-1.216c0.185-0.473,0.275-1.004,0.275-1.596v-4.903h-1.606v-0.297h3.425v8.772h1.627V261.619z"/>
			<path fill="url(#colour1)" d="M335.922,261.323h1.628v-8.477h-1.628v-0.296h3.403v2.135h0.042c0.057-0.212,0.149-0.451,0.275-0.719
				c0.127-0.267,0.302-0.524,0.527-0.771c0.227-0.246,0.498-0.454,0.815-0.623c0.315-0.169,0.7-0.254,1.15-0.254
				c0.325,0,0.606,0.053,0.847,0.157c0.239,0.106,0.437,0.24,0.592,0.403c0.156,0.161,0.268,0.349,0.339,0.56
				c0.07,0.212,0.106,0.423,0.106,0.635c0,0.465-0.106,0.775-0.318,0.93c-0.211,0.155-0.458,0.233-0.739,0.233
				c-0.621,0-0.931-0.198-0.931-0.594c0-0.126,0.014-0.228,0.042-0.307c0.028-0.076,0.061-0.153,0.096-0.23
				c0.035-0.078,0.066-0.166,0.094-0.265c0.029-0.1,0.044-0.241,0.044-0.424c0-0.45-0.248-0.676-0.739-0.676
				c-0.227,0-0.466,0.084-0.719,0.254c-0.256,0.168-0.491,0.416-0.708,0.74c-0.221,0.323-0.402,0.715-0.552,1.173
				c-0.146,0.458-0.222,0.982-0.222,1.574v4.841h1.839v0.296h-5.284V261.323z"/>
			<path fill="url(#colour1)" d="M344.361,261.323h1.627v-8.477h-1.627v-0.296h1.627v-1.121c0-0.492,0.026-0.919,0.075-1.278
				s0.116-0.677,0.2-0.952c0.086-0.274,0.184-0.514,0.297-0.717c0.113-0.205,0.239-0.392,0.38-0.562
				c0.366-0.465,0.825-0.869,1.374-1.215c0.55-0.345,1.134-0.518,1.755-0.518c0.464,0,0.863,0.067,1.194,0.199
				c0.331,0.136,0.602,0.302,0.813,0.497c0.212,0.198,0.366,0.413,0.465,0.646c0.1,0.231,0.148,0.439,0.148,0.623
				c0,0.268-0.077,0.515-0.232,0.739c-0.155,0.226-0.416,0.339-0.781,0.339c-0.185,0-0.392-0.043-0.624-0.127
				c-0.233-0.084-0.351-0.269-0.351-0.551c0-0.237,0.068-0.454,0.202-0.644c0.133-0.191,0.201-0.405,0.201-0.646
				c0-0.31-0.128-0.517-0.382-0.623c-0.253-0.105-0.515-0.157-0.781-0.157c-0.578,0-1.078,0.253-1.501,0.76
				s-0.633,1.297-0.633,2.367v2.938h2.62v0.296h-2.62v8.477h1.923v0.296h-5.37V261.323z"/>
			<path fill="url(#colour1)" d="M370.024,261.619h-0.318c-0.098-0.113-0.211-0.215-0.338-0.307c-0.127-0.091-0.324-0.138-0.591-0.138
				c-0.212,0-0.441,0.039-0.688,0.116c-0.248,0.078-0.528,0.167-0.847,0.266c-0.315,0.098-0.672,0.186-1.065,0.264
				c-0.396,0.078-0.832,0.117-1.312,0.117c-0.888,0-1.751-0.163-2.589-0.487c-0.839-0.324-1.631-0.853-2.379-1.586
				c-0.69-0.689-1.269-1.507-1.733-2.451c-0.465-0.945-0.698-2.037-0.698-3.277c0-1.057,0.191-2.063,0.571-3.022
				s0.909-1.804,1.585-2.537c0.677-0.732,1.474-1.313,2.39-1.744c0.915-0.429,1.916-0.644,3.002-0.644
				c0.437,0,0.823,0.042,1.163,0.127c0.337,0.085,0.64,0.179,0.908,0.285c0.268,0.105,0.515,0.2,0.739,0.284
				c0.225,0.086,0.443,0.128,0.656,0.128c0.281,0,0.48-0.047,0.603-0.138c0.119-0.092,0.229-0.193,0.327-0.307h0.317v4.228h-0.233
				c-0.127-0.535-0.289-1.063-0.485-1.585c-0.198-0.521-0.473-0.983-0.825-1.385s-0.8-0.726-1.343-0.972
				c-0.542-0.246-1.215-0.37-2.019-0.37c-0.747,0-1.388,0.116-1.924,0.348c-0.535,0.233-0.985,0.542-1.354,0.932
				c-0.365,0.387-0.657,0.839-0.876,1.352c-0.219,0.515-0.384,1.057-0.497,1.628c-0.112,0.571-0.187,1.149-0.222,1.733
				c-0.036,0.585-0.053,1.138-0.053,1.659c0,1.479,0.12,2.706,0.359,3.679c0.239,0.972,0.573,1.741,1.004,2.304
				c0.43,0.564,0.947,0.959,1.554,1.183c0.606,0.227,1.274,0.34,2.008,0.34c0.945,0,1.705-0.135,2.284-0.402
				c0.578-0.267,1.042-0.615,1.395-1.046c0.352-0.43,0.62-0.915,0.803-1.458c0.184-0.543,0.346-1.082,0.486-1.618h0.233V261.619z"/>
		</g>
		<polygon fill="url(#colour1)" points="371.217,261.323 372.844,261.323 372.844,246.674 371.217,246.674 371.217,246.378 
			374.663,246.378 374.663,261.323 376.291,261.323 376.291,261.619 371.217,261.619 		"/>
		<g>
			<path fill="url(#colour1)" d="M387.647,261.619h-3.404v-2.135h-0.042c-0.128,0.282-0.279,0.567-0.455,0.855
				c-0.176,0.289-0.394,0.551-0.656,0.782c-0.261,0.232-0.563,0.423-0.908,0.571c-0.346,0.147-0.75,0.222-1.215,0.222
				c-0.563,0-1.021-0.063-1.375-0.189c-0.351-0.127-0.627-0.262-0.824-0.402c-0.099-0.071-0.207-0.158-0.327-0.264
				c-0.119-0.106-0.229-0.251-0.327-0.435c-0.1-0.182-0.184-0.418-0.253-0.708c-0.071-0.288-0.107-0.644-0.107-1.067v-6.002h-1.627
				v-0.297h3.446v6.489c0,0.366,0.023,0.705,0.073,1.016c0.049,0.309,0.145,0.58,0.287,0.813c0.139,0.233,0.321,0.417,0.548,0.55
				c0.226,0.136,0.521,0.201,0.888,0.201c0.31,0,0.63-0.092,0.962-0.275c0.33-0.183,0.635-0.443,0.91-0.781
				c0.273-0.338,0.503-0.743,0.685-1.216c0.185-0.473,0.276-1.004,0.276-1.596v-4.903h-1.607v-0.297h3.425v8.772h1.629V261.619z"/>
			<path fill="url(#colour1)" d="M396.639,256.778c0-0.648-0.035-1.229-0.105-1.744c-0.071-0.513-0.195-0.953-0.37-1.321
				c-0.177-0.365-0.423-0.647-0.74-0.846c-0.316-0.196-0.722-0.295-1.215-0.295c-0.521,0-0.952,0.091-1.29,0.274
				s-0.612,0.415-0.823,0.697c-0.155,0.197-0.278,0.409-0.37,0.634c-0.091,0.227-0.166,0.494-0.223,0.805
				c-0.056,0.309-0.095,0.665-0.115,1.066c-0.022,0.402-0.032,0.877-0.032,1.427c0,0.466,0.036,0.945,0.104,1.438
				c0.071,0.492,0.204,0.94,0.402,1.342c0.197,0.402,0.476,0.729,0.835,0.982c0.36,0.255,0.835,0.381,1.428,0.381
				c0.577,0,1.035-0.113,1.373-0.338c0.338-0.226,0.592-0.55,0.762-0.973c0.169-0.424,0.274-0.934,0.316-1.532
				C396.618,258.177,396.639,257.511,396.639,256.778 M387.909,261.323h1.628v-14.649h-1.628v-0.296h3.446v7.864h0.041
				c0.198-0.55,0.537-1.015,1.016-1.396c0.479-0.381,1.106-0.57,1.881-0.57c0.605,0,1.178,0.13,1.712,0.391
				c0.536,0.261,1.008,0.606,1.417,1.035c0.408,0.43,0.732,0.934,0.973,1.512c0.238,0.579,0.359,1.186,0.359,1.818
				c0,0.647-0.124,1.265-0.369,1.85c-0.248,0.585-0.582,1.103-1.005,1.553c-0.423,0.451-0.913,0.812-1.47,1.078
				c-0.557,0.269-1.145,0.402-1.765,0.402c-0.479,0-0.884-0.082-1.215-0.243s-0.606-0.354-0.825-0.582
				c-0.218-0.224-0.383-0.457-0.496-0.697c-0.113-0.238-0.198-0.443-0.254-0.612h-0.043v1.839h-3.403V261.323z"/>
		</g>
		
			<line fill="none" stroke="url(#colour1)" stroke-width="0.351" stroke-miterlimit="10" x1="217.549" y1="267.447" x2="398.753" y2="267.447"/>
		<g>
			<path fill="url(#colour0)" d="M310.036,267.499c0,0.916-0.742,1.656-1.657,1.656c-0.916,0-1.658-0.74-1.658-1.656c0-0.915,0.742-1.657,1.658-1.657
				C309.293,265.842,310.036,266.584,310.036,267.499"/>
			<circle fill="none" stroke="url(#colour1)" stroke-width="0.351" stroke-miterlimit="10" cx="308.378" cy="267.499" r="1.658"/>
		</g>
	</g>
</g>
</svg>
