<?xml version="1.0" encoding="utf-8"?>
<svg version="1.0"
	 xmlns="http://www.w3.org/2000/svg" xmlns:xlink="http://www.w3.org/1999/xlink" viewBox="0 0 595.275 841.89" xml:space="preserve">
<defs>
   <linearGradient id="colour1">
     <stop offset="100%" stop-color="#009F3B"/>
   </linearGradient> 
   <linearGradient id="colour2">
     <stop offset="100%" stop-color="#DEE608"/>
   </linearGradient> 
 </defs>
<g id="ausbred"> 
    <g display="none">
<path id="path479" stroke="#000000" stroke-width="1.175" stroke-linecap="round" stroke-linejoin="round" d="M679.354,857.619
	l0.569-1.01l-2.45-0.289l-3.31-6.33l0.29,1.15l-0.29-0.432l-0.14,0.432l0.14-1.301l-0.43-0.291l-1.3,1.01l-0.721-0.43l0.29,0.861
	l-0.72,1.299l-2.01,0.861l0.859,1.299l1.44-0.139l0.29,2.16l-1.15,0.719l1.721,0.721v1.58l0.289-0.58l0.58,0.58l0.431,2.74
	l-0.29,0.859l1.01,1.15h1.3l1.29-1.15l1.44,0.58l1.149-0.439l-0.279-0.281l-0.58,0.43l0.29-0.719l-0.721-0.871h0.721l0.569,1.16
	l-0.43-3.32l-0.29,1.16h-1.44l1.73-1.16L679.354,857.619z"/>
<path id="path481" stroke="#000000" stroke-width="1.175" stroke-linecap="round" stroke-linejoin="round" d="M669.993,918.669
	l-1.16-0.57l-0.14-0.721l1.3-0.15l0.57,1.441H669.993z"/>
<path id="path483" stroke="#000000" stroke-width="1.175" stroke-linecap="round" stroke-linejoin="round" d="M662.503,928.318
	l1.29-1.869l-1.149-0.289l1.59-2.301l0.859,0.57l0.721,1.73l-0.431,0.43l-1.3-0.281v1.58L662.503,928.318z"/>
<path id="path485" stroke="#000000" stroke-width="1.175" stroke-linecap="round" stroke-linejoin="round" d="M645.513,946.75
	l2.16-3.74l-0.149-0.43l-0.86,0.139l0.14-1.439l1.011-1.01l1.01-0.43l0.29,0.43l0.14-0.43l-0.86-4.75l-1.01,1.299l0.29,0.432
	l0.72-0.291l-0.149,0.58l-0.72,0.279l-0.57-0.43l-0.58,0.58l2.02,0.721l-0.149,0.859h-0.72v1.15l-1.01,0.721l-0.141-1.441
	L644.644,942l0.149,0.58l-0.58,0.43l-0.43-0.721l-0.58,2.881l-0.86-1.58l-0.43,0.279l0.72,2.02h0.57l0.87-1.869l0.57-0.15
	l-0.721,0.58l0.721,0.141l-0.141,1.439L645.513,946.75z"/>
<path id="path487" stroke="#000000" stroke-width="1.175" stroke-linecap="round" stroke-linejoin="round" d="M619.443,874.179
	l1.3-0.58l0.57,1.73l3.46,1.15l-0.141,1.01l1.721,1.58l2.739,1.01l3.74,2.74l1.59,0.289v0.57l0.141-0.721l1.87,0.43l0.149,0.871
	l0.14-0.58h1.87l1.59-1.01l0.431,2.02l-0.431,1.301l0.57-0.871l0.29,1.439l0.15-1.289l-0.44-0.439l0.58-1l-0.72,0.141v-0.432
	l1.15-0.289l0.869-1.01l0.57,0.15l0.72-0.721l1.44,1l0.29,1.16l-1.01,0.57l1.01-0.291l0.14,1.301h0.44l-0.29-0.861l0.43,0.281
	l0.43-0.57l0.87,0.721l-0.58,1.148l0.58-0.859h0.57l-1.29-1.439h-1.01l-0.58-2.16l2.02-0.721l1.44,0.281l1.439-1l2.011,0.568
	l0.72,0.58l-0.43,0.57l3.17-2.16l0.29,0.441l0.859-0.291l0.87,2.01l0.86-0.141l1.729-1.148l1.87-2.59l1.58-0.58l0.58,1.299
	l1.01-0.15l0.29,0.721l1.29,0.291l1.01-0.58l-0.289,0.58h0.579l-0.43-0.291l2.01-2.449l-0.43-0.861l1.44,0.291l0.43,0.859h0.87
	l0.72,1.59l0.86,0.281l-0.431,0.15l0.57-0.432l0.72,0.721l1.3,3.74l0.721,0.43l-1.44,1.439l0.141-0.719l-0.86,0.58l0.72,0.289
	l-1.58,3.449l0.57,0.58l-0.14,1.15l1.01,0.141l-0.72,1.01l-0.44-0.57l-0.28,0.861l-1.159,0.139l1.01,0.441l1.439-1.301l0.431,0.139
	l-1.87,2.16l-0.57,2.16l-0.58-0.139l0.58,0.289l-0.15,0.859l-0.289-0.43l0.869,2.451l-1.01,2.59v2.02l-1.15,2.01l0.86,2.311
	l-1.58,3.02l1.29,1.869l-1.149,1.592l1.01,0.43l-0.29,1.01l-1.44,1.439l-0.569-1.299l1-1.012l-0.57-0.859l1.01-0.721l-1.01-0.43
	l-0.29-1.299l-1.3-0.291l2.02-1.58l-0.72-0.869l0.14-0.43l-0.43,0.58l0.29,0.859l-0.43,0.43l-0.58-0.721l-0.57,1.301l0.14-0.43
	l0.29,0.43l-1.3,0.721l2.45,0.719l-3.021-0.139l-0.149,1.58l-1.58,1.729l-0.58,1.73l-1.58,0.721l0.57,0.43l0.72-1.15l0.58,0.141
	v1.01l-1.01,1.289l-0.141,0.871l0.431,0.43l-0.29,1.58l-1.44,0.869l-0.43-1.148l-0.14,0.859l-0.721,0.289l1.15,1.441l-0.43,0.568
	l0.43,0.721l-0.58-0.279l0.43,0.859l-0.43,1.301l-1.58,1.15l-0.15,1.729l-0.279-0.719l-1.301,1.719l1.73,0.58v-0.58l-0.72-0.279
	l0.72-0.721h0.57l0.149,0.861l0.721-0.141l0.14,2.59l-1.73,1.439l0.721,2.301l-0.57,0.869h1.01l-1.16,1.291l0.721,0.869l-2.011-1.01
	l-0.29-2.311l-0.43,1.16h0.43l-0.14,1.291l-1.01-0.291l-0.58,1.301l-1.729-2.16l-0.141-0.859l1.3-1.01l-1.729-0.291l-0.29-2.16
	l1.3-0.43l0.28-1.439l0.87,0.43l-0.58,1.439l0.29,0.58l0.29-0.289v0.719l1.58,0.721l0.289-0.721l0.141,0.721l0.439-0.871l1-0.139
	l-1.58-0.43l0.431-0.58l-0.72-0.57h0.72l0.29-0.58l-0.86-0.141v-1.16l-0.72,0.291l-0.87-0.57l-0.86,0.279l-0.58-0.279l0.721-0.721
	h-1.44l0.15-2.311l-0.87,0.291l-0.141-0.721l-0.149,0.861l-0.28-0.57l-0.72,0.43l-0.58-1.301l0.14,0.58l-0.43,0.141l0.72,1.16
	l0.721-0.289v0.43l1.729,0.58l-0.86-0.291l-1.3,0.57l-0.43,1.301l0.57,1.299l-0.431,0.141l0.29,0.43l0.29-0.57l0.141,0.721
	l-0.721,0.859l-2.159,0.43l-0.141-1.869l0.29-0.291l0.14,1.59l0.86,0.141l0.29-1.15l-0.57-0.58l0.57-1.01l0.43,0.15l-0.14-0.43
	l-0.86-0.15l-0.58,0.721l0.141-1.291l-1-0.439l0.28-0.721l-1.29-1.289v-1.301l-1.301-0.859l-0.72,0.57l0.87-0.281l0.72,0.861
	l0.431,0.58l-0.431,0.719l1,0.432l0.44,2.729l-0.87,1.301l-0.14,2.02h-0.58l-0.29-1.439l-0.431,0.43l-0.289,1.15l0.72,0.43l-1,0.869
	l-0.29,2.881l-1.15,1.289l-2.31-1.439l0.72-0.859l-0.29-1.01l-0.72,1.439l-1.44-1.01l0.44-1.871l-0.721,0.861v1.299l1.58,1.301
	l0.431,1.289l-0.72,0.871l-0.431-0.58l-1.3,0.289l1.439,0.721l-0.859,1.289v1.012h-1.58l-0.29-0.861l-0.29,0.861l1.15,0.289
	l0.289,0.721l-1.149-0.141v0.859l0.72-0.58l-0.58,1.16l-0.859,0.281l-0.15-0.861l-0.43,1.012v0.719l0.58-0.289v0.719l-2.16,1.01
	l0.29-0.58l-0.58-0.568l-2.021,0.719l-0.14-1.01l-0.58,0.141v-0.57l-1-0.721l-0.29-2.449l-0.43,1.01l0.57,0.859l-1.291-0.719
	l-0.579,0.43l-1.44-0.141l-1.15-0.719l-1.01,0.568l-0.29-1.148l-0.72-0.291l-0.72,1.16l-0.86-1.16l-0.87,1.301l-0.57-0.43
	l-1.01,0.859l0.29-2.881l-0.87-2.16l-0.859-0.139l1.149-0.58l0.15,1.01v-1.73l1.72,1.301l-0.28-0.721l1.291,0.291l0.149,1.289v-0.57
	l0.28,0.43l0.439-0.869l0.721,0.289v0.58l0.43-1.59h-1.01v-0.859l-1.301,1.301l-0.569-0.441l-0.15-1l-0.28,0.861h-1.01l-0.72-1.301
	l0.29-1.439l-0.87-0.721l0.43-0.57l-0.43,0.141l0.15,1.439l-1.301,0.58l0.29,0.43l0.86-0.58v1.01l-1.15,0.432l-0.579-0.281
	l0.289-0.58l-0.569-0.43l-0.15-1.869l-0.72-0.291l-0.29-2.311l-0.57,0.15l-0.58-0.719l0.431-1.01l-0.721-0.432l-0.72-1.869
	l-1.87,0.279l0.15-1.15l-0.58-1.148l-1.01-3.6l0.43-1.301l-0.43-1.721l-0.57-0.15l-0.439-1.148l-0.86-0.141l1.01-1.01l-0.87-1.439
	l0.44-2.311l-0.58-2.73l0.43-1.301l-0.72-2.158l1.01,0.43l0.43,2.02h1.301l-0.15,1.01l2.16,1.871l0.149,3.738l0.29-2.16
	l-0.439-0.139l0.87-0.43l0.569,0.859l-0.279-0.57l1.149-1.73l-0.87,0.291l0.29-0.291l-0.569-1.01l-0.29,1.01l-0.29-1.148
	l-1.58-2.021l-0.44-2.74l-0.43-0.139l0.149,0.719l-1.01,0.58l0.29,0.721l-1.159-0.289l1.159-3.031l-0.439-2.59l-4.17-7.77
	l-0.87-0.289v-0.871l1.01-0.859l-1.01,0.139l-0.721-3.309l-1.72-3.02l0.86-1.15l-1.44-3.6l0.29-5.191h-0.72l-0.43-1.15l0.72-1.01
	l-0.44-0.859l1.011-0.871l0.579,0.291l0.721-1.439l0.29-2.301l-0.58-1.301l0.29-1.148l0.86-0.721l0.579,2.59l0.431-0.721l1.01,0.432
	l0.14,1.01l0.15-0.57l1.439,0.859l1.15-0.43l0.57,1.291l0.58-0.141l0.72,1.15l0.29-0.291l0.14,0.721l1.01-0.43l-0.72-0.861
	l1.44,0.57l1.3-0.43l-0.87,0.58h0.87l0.28-2.449l0.869,1.439l-1.01,0.859l0.141,0.871l0.149-1.15l0.29,1.58L619.443,874.179z"/>
<path id="path495" stroke="#000000" stroke-width="1.175" stroke-linecap="round" stroke-linejoin="round" d="M591.073,848.4
	l-0.72-2.16l0.869-2.01l-0.149-3.32l1.729-1.15l0.15-1.869l0.72-0.291l2.88,2.59l-0.58,3.891l0.58,0.43l-0.72,1.439l0.57,1.16
	l-0.141,1.15l-0.72,1.73l-3.46,1.58l-0.57,1.148l-0.869-1.148l-0.29-1.441l0.72-0.139V848.4z"/>
</g>
<path id="path719" fill="url(#colour2)" d="M200.101,236.724l-0.29-0.36l-0.14,0.36l0.07-0.43l-0.29,0.359l-0.215-0.145v0.36l-0.285-0.145
	l0.215-0.43l0.215,0.07l-0.07-0.43l-0.58,0.07l-0.14-0.215l0.215-0.436h-0.36l0.505-0.215l-0.075-0.575l-0.575,0.575l0.29-0.645
	l-0.505,0.07l0.935-0.649l-0.29-0.285l-0.79,0.215l1.08-0.43l-0.505-0.22l-0.935,0.865l0.575-0.72l-0.43-0.146l0.505-0.575
	l-1.01,0.36l0.29-0.36h-0.29l0.07-0.36l-0.36,0.65l-0.36-0.29l-0.36,0.145l1.01,0.72l0.29-0.145l-0.29,0.575l0.215,0.359
	l-0.36-0.069l-0.07-0.65l-0.36-0.07l-0.215,0.215l0.43,0.36l-0.29,0.146l-0.07-0.29l-0.215,0.72v-0.575l-0.36-0.43l-0.145,0.145
	l0.505,1.08l0.215,0.14l0.935-0.285l0.865,0.865l-0.29,0.14l0.22,0.29l-0.359,0.72l-0.94,0.36l0.435,1.225l-1.01,0.646h-0.285
	l0.14,0.29l0.36-0.07l0.435,1.51l-0.575-0.07v0.645l-0.505-0.645l-0.575,0.285l-0.145,0.505l0.43,0.865l-0.145,0.215l-0.14-0.215
	l0.07,0.43l-0.29-0.215l-0.07,0.215l0.29-0.285l-0.145-0.29l-0.936-0.575l0.215-0.29l-0.29-0.215l0.29-0.146l-0.435-0.43l0.58-0.29
	l-0.145-0.285l-0.575,0.36l0.14-0.36l-0.215-0.145l-0.285,0.505l-0.435,0.07l0.145-0.43l-0.215-0.29l0.215-0.145l-0.36-0.07
	l-0.07,0.645l-0.94,2.665l0.58-2.085l-0.435-0.72l0.075-0.36l-0.22,0.215l0.22-0.36l-0.22-0.29l0.36-0.36l-0.14-0.285l0.79,0.07
	l-0.07-0.29l-0.29,0.075l0.36-0.575l-0.36,0.285l-0.72-0.79l-0.07,0.36l-0.146-0.505l-0.435,0.07l0.145,0.36l-0.215-0.215
	l-0.215,0.215l0.285,0.145l-0.215,0.575l0.29,0.36l-0.146,0.36l0.43,0.22l-0.36,1.58l0.29,0.145l-0.505,0.436l0.359,0.14
	l-0.865,0.075l0.36-0.65h-0.86l0.07,0.575l-0.359-0.285l0.145,0.43l-0.36,0.215l0.145,0.359l-0.36-0.14l0.141,0.72l-0.215-0.649
	l-0.215,0.359l0.146-0.505l-0.215-0.575l-0.795,1.01l0.29-0.65l-0.075-0.79l-0.285,0.215l0.07,0.575l-0.215-0.07l-0.07,0.285
	l-0.29-0.285v0.215l-0.575,0.36l0.145,0.505l0.285-0.145l0.505,0.36l-0.79,0.07v0.435l-0.36-0.36l-0.29,0.07v0.72l-0.145-0.29
	l-0.285,0.145l0.14,0.505l-0.36-0.215l-0.215,0.215l0.36,0.575h0.435l-0.22,0.65l0.36,0.285l0.435-0.43l-0.075,0.43l0.58-0.215
	l0.215,0.29l0.07-0.215l0.075,0.285h0.215l-0.435,0.29l0.075,0.43l-0.505-0.43l-0.07,0.285l-0.145-0.14l-0.72,0.72l0.285-0.145
	l0.22,0.215l0.43-0.36v0.505l0.65-0.36l-0.36,0.285l0.14,0.29l0.58-0.215l0.215,0.285l0.145-0.215l0.43,0.435l0.07-0.865l0.22,0.72
	l0.72-0.29l-1.3,0.72l-0.07,0.29l0.359-0.075l0.146,0.22l-0.65,0.36l1.37,0.215l0.645,0.431l-0.215-0.215l-1.08,0.215l-0.43-0.285
	l-0.575,0.14l0.14,0.36l-0.285-0.36l0.07,0.29l-0.575-0.29v-0.575l-0.146,0.215l-0.505-0.14l-0.86,0.79l-0.505-0.79l0.07-0.65
	l-0.285-0.145l-0.075,0.435l-0.36,0.07l0.145-0.36l-0.359-0.07l0.43-0.65l-0.72,0.146l-0.215-0.146v0.72l0.435,0.505l-0.22,0.505
	l-0.215-0.29l-0.43,0.575l-0.865-0.285l-1.01,0.79l0.075,0.29l0.79-0.22l-0.43,0.36l0.215,0.145l-0.146,0.505l0.29-0.215
	l-0.145,0.43l0.79-0.72l-0.07-0.285l0.43,0.215l-0.07-0.215l0.29-0.36l0.07,0.43l0.215-0.65l0.215,0.22l0.22-0.22l0.215,0.29
	l-0.72,0.865l-0.435-0.36l-0.575,0.36l-0.07,0.145h0.36l-0.36,0.14l0.215,0.36l-0.29-0.215l-0.43,0.505h0.29l-0.075,0.36l0.29-0.146
	l-0.215,0.215l0.575,0.146l1.08-1.005l0.145,0.285l0.575,0.145l-0.075-0.65l0.22,0.22l0.07-0.22l-0.145,0.94l0.795-0.22
	l-0.795,0.359l-0.215,1.226l2.375,1.655l-2.085-1.365l-0.505,0.145l0.07,0.5l-0.146-0.14l-0.069,0.359h-0.29l0.075-0.72l-0.29,0.36
	v-0.22h-0.505l0.58-0.43l-0.359-0.505l-0.22,0.29l-0.07-0.505l-0.36,0.07l0.07-0.285l-0.72-0.29l-0.07,0.29l-0.505-0.075l0.145-0.79
	l-0.29,0.36l-0.5-0.36l-0.36,0.79l-0.29-0.07l0.505-0.575l-0.29-0.29l-0.215,0.215l0.145-0.215l-0.36,0.075v-0.36l-0.215,0.36
	l-0.29-0.36l-0.145,0.645l0.36-0.07l0.145,0.285l-0.575,0.075l0.07,0.43l0.575-0.215v0.215h0.505l-0.936,0.575v0.72l0.29,0.145
	l-0.145,0.29l-0.36-0.145l-0.145-0.65l-0.146,1.3l-0.145-0.29l-0.43,0.29v-0.29l-0.36,0.07l-0.505-0.43l-0.865,0.505l0.58-0.215
	l0.215,0.431l-0.435-0.215l-0.14,0.43l-0.58,0.215l0.22,0.36l-0.29,0.649l0.215-0.43l0.075,0.215l0.285-0.145l-0.215,0.359
	l0.29,0.36l-0.36,0.29l-0.22-0.505l-0.07,0.645l-0.36-0.359l-0.145,0.29h0.29l0.145,0.65l0.285-0.075h-0.505l0.505,2.09l0.145-0.36
	l0.215,0.215l0.145-0.865l0.07,0.65l0.36,0.36l-0.07,0.79l0.145-0.285l0.285,0.07l-0.14,0.936l1.22-2.521l1.01-0.865l-0.36,0.505
	l0.505-0.146l0.07-0.43l-0.07,0.43l0.79,0.22l-0.645,0.14l-0.36,0.58l0.141,0.285l-0.431-0.36l-0.575,0.575l0.215,0.359l-0.215,0.65
	l0.43,0.145l-0.575-0.075l-0.145,0.359l0.29,0.36l-0.29-0.07l0.215,1.15l0.29-0.07v-0.43l0.145,0.285h0.285l-0.645,0.435
	l-0.435-0.075l-0.43,0.721l0.29,0.359l0.43-0.07l-0.72,0.285l0.215-0.285l-0.285-0.215l-0.075,0.215v-0.435l-0.645-0.645l0.215-0.36
	l-0.505-0.145v1.51h0.145l-0.649-0.07l-0.215,0.575l0.43,0.215l-0.285,0.58l0.285,0.285l-0.14,0.575l0.5,0.22l2.09-0.72
	l-0.146,0.215h1.37l1.51,0.865l1.155-0.075l0.575-0.936l0.36,0.36l-0.29-0.07l-0.575,0.646l-1.08,0.435l0.145-0.22l-1.155-0.43
	l-3.67,0.575l-0.865-0.79l-0.575,1.005l0.65-0.14l0.43,0.936l0.79,0.069l-0.215,0.075l0.29,0.36l-0.505-0.436l-0.29,0.075v0.5
	l0.29,0.075l-0.29-0.075l0.075,0.29l-0.145-0.215l-0.215,0.36l0.145-0.795l-0.36-0.79l-0.795,0.36l-1.005-0.07h0.79l0.29-0.36
	l-0.075-0.29l-1.295,0.145l-0.43-0.795l-0.22,0.146l0.22-0.285l-0.22-0.435l-0.72-0.285h-1.005l-0.215-0.22l-0.29,0.146
	l-1.149-0.646l0.069,0.285l0.575,0.215l-0.145,0.146l0.865,0.36l-0.215,0.215l-0.29-0.36l-0.575,0.29l0.72,0.935l0.435,0.146
	l-0.72-0.146l0.285,0.505l-0.215-0.145l-0.431-0.43h0.36l-1.01-0.795l0.43,0.649l-0.43-0.07l0.29,0.14l-0.29-0.07l0.215,0.936
	l-0.43-0.146l0.145,0.505l-0.505-1.149l0.575,0.145l-0.215-0.58l-0.36-0.14l-0.215,0.285l-1.226-0.936h0.505l-0.075-0.215
	l0.435,0.285l-0.58-0.935l0.436,0.435v-0.22l0.359,0.075l-0.359-0.215l0.215-0.22l-1.37-0.645l0.36,0.36h-0.215l0.145,0.146
	l-0.215-0.22v0.505l-0.215-0.505l-0.505,0.36l-0.36-0.14l0.215,0.359l-0.29-0.29l-0.36,0.07l0.58,0.795l-0.72-0.72l-0.22,0.145
	l0.075,0.431h0.505l-0.436,0.069l0.36,0.146l-0.146,0.145l0.58,0.215l-0.649-0.145l0.215,0.145l-0.285,0.29l-0.22-0.215l-0.07,0.215
	l0.72,0.505l0.36-0.075l-0.215-0.43l0.865,0.575l0.215-0.145l0.145,0.649h0.215h-0.72v0.146l-0.075-0.29l-0.359,0.07l0.649,0.65
	h0.505l-1.154,0.146l-0.07,0.215l-0.29-0.43h-0.86l0.646,0.36l-1.08-0.145l2.015,0.645l0.075,0.29l-0.935,0.145l0.935,0.215
	l-0.795,0.069l-1.58-0.575l-0.145,0.075l0.43,0.5l-0.865-0.069l0.58,0.145l0.575,1.005l0.07-0.43l0.36,0.07l-0.215-0.36l0.79-0.14
	l0.58,0.36h-0.58l0.29,0.431l-0.145-0.29l-0.43,0.145l-0.145,0.29l0.29,0.285l-0.865,0.22v0.285h1.51l0.795,0.865l0.36-0.29
	l0.014,0.29l0.363,0.458l-0.092,0.332l0.435,0.36l0.07-0.36v0.36l0.215,0.145l-0.36-0.145v0.435l0.575,0.43l1.01-0.72l0.721-0.145
	l-0.29-0.79l0.359,0.36l0.146-0.43l-0.146,0.285l0.29,0.145l-0.29,0.145v0.43l-1.51,1.37l0.65,0.07l-0.29,0.215l0.359,0.505h0.215
	l-0.285,0.145l-0.58-0.43l-0.43,0.14l0.36,0.795h0.36l-0.36,0.07l0.215,0.795l0.72,0.79l0.435-0.07l0.215,0.86l-0.29-0.72
	l-0.505,0.145l-0.72-0.43l-1.44-1.655l-0.285,0.5l-0.145-0.43l-0.215,0.07l-0.146-0.645l0.29,0.07l-0.435-0.215l-0.36,0.29
	l0.29,0.215h-0.29l-0.07-0.575l-0.435,0.86l0.29,0.795l1.37,1.439l-0.65-0.36l0.215,0.505l-0.43-0.435l-0.145,1.875l-0.36,0.43
	l-0.07,0.575l0.43,0.215l-0.43-0.07v0.29l0.5,0.86l-0.07,1.08l-0.29,0.146l0.075,0.29v-1.37l-0.435,0.075l0.36-0.22l-0.36-0.285
	l-0.5,0.145l0.215-0.72l-1.08-1.155l-0.215-0.285l-0.65,0.07l0.215-0.145l-0.146-0.935l-0.645-1.15l-0.575-0.505l-0.145,0.146
	l-0.145-1.155l-0.575-0.79l-0.935-0.435l-0.29,0.075l0.505-0.935l-0.36-0.72l-0.435-0.146l0.145,0.285l-0.285-0.215l-0.145-0.575
	l0.36-0.215l0.07-0.65l-0.36,0.36l-0.36-0.145v-0.43l-0.07,0.43l-0.29-0.07l-0.215-0.865l-0.215-0.215l-0.36,0.505v-0.435
	l-0.505-0.285l0.65-0.865h-0.505l0.285-0.43l-0.14-0.29l0.36-0.215l0.36,0.285l0.43-0.575l-0.29,0.145l-0.5-0.43l0.215-0.146
	l-0.215-0.29l0.215-0.285l-0.865,0.645l-0.575-0.07l-0.29,0.72l0.075,0.645l-0.58,0.36l0.36,0.22l-0.285-0.145l-0.795,0.79
	l0.22-0.43l-0.58,0.79l-0.215,1.155l0.29,0.359l0.215-0.22l-0.07,0.505l0.72,0.505l-0.58-0.359l0.075,0.29l-0.145-0.22l-0.29,0.22
	l0.075-0.29l-0.29,0.43l-1.295,0.435l-0.29-0.435h-0.43l-0.29,0.65l0.29,0.215l-0.29-0.07l-0.14,0.43l0.935,1.44l-1.155-0.145
	l-0.43-0.645v1.08l-0.43,0.145l0.285-0.65l-0.505,0.36l-0.72,0.575l0.435,0.215l-0.36-0.07l-1.295,1.37l0.14,0.43l0.436-0.36
	l-0.146,0.215h0.36l-0.43,0.145l0.43,0.145l-0.505-0.075l-0.36,0.22l-0.43,1.08l-0.436,0.36l-0.215,1.22l0.075,2.74l0.79,1.44
	l0.07,1.005h0.505l-0.505,0.215l0.29,2.16l-0.43,0.505l0.5,0.436l0.436-1.01l0.069,0.29l1.226,0.07l0.29,0.215l0.069,1.44
	l-0.649,1.01l-1.22,0.505l-0.22,0.79l-0.07-0.36l-0.72,1.08l-0.79,0.29l-0.505,0.935l-0.795,0.645l-1.005,0.58l-0.36-0.36
	l-0.29,0.14l-0.285,0.505l0.14,0.29l0.22-0.215l-0.22,0.5l-0.14-0.36l-0.505,0.94h0.285l-0.5,0.07l0.79,0.43l0.146,0.58
	l-0.505,0.285l-0.145,0.435h-0.505l-0.215,0.285l-0.575-0.145l-0.07,0.22l-0.145-0.22l0.07,0.505l0.435,0.29v0.865l-0.075-0.22
	l-0.505,0.795l-0.215,1.005l0.29-0.14l-0.575,0.14l0.14,0.36l-0.5,0.939l-0.075,0.79l-2.015,3.53l-1.295,1.655l-3.095,2.59
	l-8.93,4.68l-2.88,0.575l-1.73,0.72l-0.79-0.145l0.07,0.29l-0.141-0.146l-0.29,0.215l0.215,0.075l-0.215,0.65l-0.43,0.14
	l0.215-0.645l-0.435,0.215h0.22l-0.29,0.505l-1.295,0.79l0.145-0.215l-1.3-0.79l-0.215,0.215l-0.505-0.215l-0.575,0.354l0.075-0.354
	l-2.375-0.22l-0.145,0.795l0.645,0.215l-0.645-0.146l-0.29-0.43l-0.575-0.215l-0.29,0.79l-1.005,0.43l-0.146,1.155l-1.08,1.439
	l0.29,0.431l-0.36-0.29l-0.36,0.505l0.5,0.145l-1.15,0.07l-0.29,0.22l0.29,0.216l-0.215,0.069l-0.075-0.359l-0.285,0.505
	l-0.145,0.069l0.145-0.284l-0.575,0.505h-0.36l0.215-0.146l-0.215,0.07l0.14-0.146l-0.215-0.215l-0.79,0.215l0.505,0.075
	l-0.36,0.215l0.43-0.069l-0.43,0.14l0.43,0.075l-0.29,0.215l-0.215-0.29l0.075,0.36l-0.505-0.646l-0.215,0.43l0.07-0.43l-0.36,0.285
	l0.07,0.29l-0.285-0.29l-0.075,0.435l-0.645-0.145l-0.215,0.36l-0.505-0.146l-0.075,0.36l-0.215-0.146v-0.43l-0.72,0.36l0.29,0.069
	l-0.65,0.075v0.285l-0.505-0.07l-0.215,0.36l-0.285-0.72l-1.945,2.015l-0.795,0.36v0.574l0.36,0.146l0.075-0.215l0.07,0.215
	l-0.645,0.075l-0.075,0.5l-0.43-0.285l-0.075,0.215l0.22,0.07l-1.3,1.3l0.29,0.215l-0.36-0.145l-0.865,0.505l-0.145-0.36l-0.07,0.43
	l-0.145-0.284l-0.215,0.5l-0.07-0.431l-0.29,0.146l0.215-0.36l-0.645,0.285l0.14,0.36l-0.43,0.074v0.285l-0.07-0.285l-1.225,0.431
	l-0.146,0.505l-0.07-0.36l-0.435,0.07l-0.07,0.649l-0.215-0.574l-0.22,0.574l-0.285-0.145l0.285-0.07v-0.29l-1.725-0.145l-0.29-0.36
	l-0.07,0.29l0.145-0.43l-0.29-0.075l0.215-0.36l-0.285-0.505l-0.58,0.865l-0.43-0.36l-0.575,0.721l-0.075-0.285l-0.575,0.215
	l-0.645,1.005h-1.155l-0.645-0.5l0.72-2.02l-0.65,0.145l-0.29,0.72l0.22-0.069l-0.58,0.72l0.22,0.07l-1.37,1.225l0.36,0.146
	l-0.116,0.207l-0.75,0.083l0.146,0.215l-1.01,0.14l0.29,0.22l-0.29-0.145l0.075,0.359l-0.36,0.431l-0.575,0.215l0.215,0.22
	l-0.795-0.145l-1.295,1.005h-0.505l0.146-0.285l-0.646-0.215l-0.145,0.72l0.36-0.075l-0.36,0.29v1.005l-2.235,1.226l-0.645,0.795
	l-0.146-0.146l-0.79,1.801l-0.145,0.574h0.215l-0.575,0.07v0.29l-0.29-0.215v0.215l-0.145-0.215l-0.141,0.505l-0.435-0.075
	l-0.146,0.575l-0.285-0.14v0.43l-0.505,0.145l0.215,0.36l-0.36-0.075l-0.145,0.29l0.22,0.07l-0.22,0.22l-0.07-0.29l-0.36,0.575
	l0.145,0.146l-0.575,0.359v1.08l-0.075-0.29l-0.215-0.07l0.215,0.36l-0.285-0.215v0.43l-0.145-0.505l-0.215,0.58l-0.075-0.22
	l-0.43,0.075l-0.145,0.215l0.29,0.069l-0.865,0.436l0.145,0.215l-0.22-0.145l-0.935,0.359l-0.07-0.215v0.36l-0.575,0.145
	l0.215,0.215l-0.36-0.215l-0.435,0.575l0.22,0.215l-0.29,0.075l-0.29-0.436l-0.79,0.865h-0.865l-0.43,0.72l-0.146-0.43l-0.29,0.575
	l0.075-0.29l-0.435,0.435l0.145,0.07l-1.725,1.01l-0.36,0.5l0.07,0.436v-0.436l-0.43,0.221v0.859h0.215l-0.436,0.29l-0.07,1.01
	l-0.145-0.145l-0.145,0.36v-0.216l-0.36,0.79l-0.285-0.359l0.145-0.215l-0.36-0.075l-0.145,0.22l0.645,0.575l-0.36,0.145
	l0.075,0.216l0.215-0.146l-0.215,0.43l0.215,0.36h-0.359l0.215,0.36l-0.72,0.145l0.65,0.72l-0.215-0.215l-0.36,0.07l0.36,0.505
	h-0.435l0.29,0.29l-0.36,0.07l0.43,0.215l-0.07,0.22l0.285,0.285l-0.5-0.36l-0.359,0.436l0.575,0.285l-0.65,0.215l0.29,0.359h-0.29
	l0.29,0.436l-0.36,0.215l0.36,0.29h-0.29l-0.215,0.72l-0.215-0.29v0.505l-0.36-1.079h-0.505l-0.575,0.43l-0.145,0.72l-0.505,0.29
	l-0.285-0.29l-0.29,0.36l0.215-0.36l-0.285-1.08l0.285-0.215h-0.285l0.575-0.72l-0.075-0.65l-0.43,0.146l-0.36,0.649l0.145-1.225
	l-0.795-1.226l0.29-3.96l0.431-0.72l-0.36-0.36l-0.86,0.506l-1.01,1.01l-0.575,1.365l-0.795,4.895l-0.645,1.155l-0.29,1.585
	l-0.646,0.859l0.575,1.011l-0.075,0.79l0.94,0.145l1.365,2.521l0.215,1.154l-0.14,0.646l-0.58,0.575l0.72,2.159l0.145,2.45
	l-0.215,0.721l-1.44,1.585l-0.36,1.725l-0.43,0.435l-0.075,0.865l-0.36,0.72l0.146,1.44l-0.431,0.575l0.5,1.8l-0.5,0.646l0.72,3.314
	l2.95,2.88l0.29,0.79l0.431,0.075l-0.36,0.285l-0.07-0.285l-0.075,0.5l0.435,0.22l0.07,0.5l0.145-0.215l0.36,0.436l-0.215,0.43
	l0.215,0.935l0.935,1.08l1.226,0.575l0.215,0.94l0.29,0.069l-0.146-0.215l0.43,0.505l0.935,1.87l1.3,1.225l0.43,1.08l1.655,1.006
	l-0.285,0.289l0.285,0.506l1.37,0.284l-0.145,1.585l0.575,0.506l-1.08-0.07l0.865,1.08l-0.069,0.215l-0.36-0.36l0.5,1.08
	l-0.215,0.146l-0.146-0.505l-0.285,0.935l0.865,1.73l-0.359,0.859l-0.36,0.075v0.36l-0.865,0.864l-1.439-1.369l-0.215-0.65h-0.22
	v-0.5l-0.36,0.07v-0.431l0.29,0.285l-0.29-0.575l0.075-0.79l-0.435-0.145l-0.43-2.09h-0.29l0.145,0.359l-0.285-0.359l0.431,1.37
	l-0.65,1.725l-0.285,0.505l-0.29-0.215l-0.36,0.145l-0.645-2.015l0.36-0.435l0.07-1.726l-0.505-0.22l-0.145-0.935l-1.44-0.721
	l-0.5-1.005l-0.58-0.075l-0.575-1.364l-0.645,1.58v1.369l0.79,0.65l-0.43-0.72l0.07-0.58l0.145,0.075l0.145,1.585l0.721,0.43
	l0.14,0.935l0.58,0.216l0.5,1.875h0.65l-0.145,0.069l0.865,0.795l0.145,0.5l1.655,0.36l0.865,0.795l0.36,1.87l-0.505,1.08
	l0.215,0.435l-0.36-0.145l-0.07,0.505l-0.505-0.29l-0.29,0.505l0.145,0.43v-0.359l-0.43-0.215l0.146,0.43l-0.146-0.14l-0.145,0.284
	h0.215l-0.07,0.36l-0.075-0.215l-0.43,0.215l-0.07-0.935l-0.29,0.215l-0.36-1.87l0.07,0.935l-0.215-0.574l-0.145,0.935l0.505,0.72
	l-0.36,0.431v-0.575l-0.069,0.359l-0.215-0.645l-0.075,0.36l-0.146-0.146l0.146-1.225l-0.36-0.36l-0.145-1.51l-0.43-0.865h-0.36
	l-0.145,0.43l0.575,0.65l-0.14,1.225l0.14,0.36h-0.36l-0.07-1.875l-0.935-2.16h-0.29l-0.145-0.43l0.075,0.645h-0.215l-0.075-0.859
	l-0.575-1.08l0.649,2.59l-0.29-0.07l-0.145,1.221l0.865,1.225h-0.29l-0.285-0.865l-0.36,0.22l0.146-0.435l-0.436-0.865l-0.505-2.805
	l-0.215,0.215l0.29,2.735l-0.36-0.721l-1.225-0.215l1.655,1.585l0.435,1.295l3.74,2.811l2.88,2.95l3.46,4.39l1.655,2.52l1.005,2.45
	l0.075-0.864l0.145,0.574l-0.58,2.306l1.37,3.239l0.935,0.865l1.01,0.43l1.655,1.875l1.295,1.08l1.295,2.016l0.22,1.364l-0.36,0.29
	l0.43,0.07l0.43,1.01l3.17,2.665l0.865,1.655l1.365,2.95v2.52l0.65,2.16l0.145,2.021l-0.075,0.645l0.795,1.226l0.07,1.01
	l0.435,0.069l0.215,0.431l-0.215,0.58l0.36,0.215l0.575,1.725l-0.075,0.436l0.505,0.505v0.359l1.585,2.521l0.07,0.5l0.505,0.22
	l1.225,1.44l2.16,3.814l0.72,0.721l0.36-0.075l-0.29,0.22l3.24,4.39l0.795,2.306l0.069,1.87l0.436-0.506l-0.146-0.359h0.505
	l0.285-0.575h0.436l-0.436,0.146l0.29,0.789l0.36-0.215l-0.36,0.36l-0.215-0.505l-0.29,0.359l-0.36-0.14l-0.43,0.646l0.645,1.654
	l-0.145,1.011l-0.645,0.145l0.79,0.72l-0.215,0.575l0.43,0.43l0.145,0.865l-0.145,1.011l-0.285-0.36l-0.575,1.149l-0.145,0.936
	l1.8,5.04l0.36,3.1l0.145-1.439l0.215,1.364l-0.36,0.36l-0.36-0.145l-0.72,2.88l-1.44,1.875l-1.73,0.43l-0.865-0.215l-0.646-0.72
	l-0.865-0.29l0.43,1.3l-0.43,0.935l0.505,1.226l-0.075,0.935l0.72,3.025l0.72,1.08v0.79l1.516,1.37l0.285-0.581l-0.43-0.574
	l0.865-0.505l-0.575,0.649l0.07,0.29l0.935-0.359h1.08l3.745,1.51l0.43-0.215l-0.36,0.284l3.53,2.596l0.79,1.439l1.8-0.145
	l2.38,0.72l0.645-0.359l-0.505-0.291l0.22-0.284l1.365,0.864l-1.655,0.141l1.37,0.795l0.431-0.215l1.225,0.575l0.575-0.436
	l0.575-0.07l-0.505-0.29l0.29-0.284h0.285l-0.14,0.43l0.505-0.215l0.86,0.43l0.649-0.07l0.29-0.574h1.655l0.575,0.284l0.285-0.645
	l1.585,0.145l-0.07-0.359h0.36l1.51,0.72l0.72-0.22l0.72,0.58l0.29-0.075l-0.075-0.865l0.359-0.36l1.08,0.075l1.37,0.646h0.575
	l0.215-0.43l0.505,0.069l-0.285-0.285l-0.649,0.146l-0.29-0.58v0.58l-0.72-0.36l0.075-0.29h0.646l0.145-0.575l-0.285-0.649h0.5
	l-0.07-0.43l0.145,0.864l-0.29,0.285l0.36,0.146h0.72l0.65-0.575h0.575l0.36,0.43l0.146-0.575l-0.505-0.29v-0.284l1.585-0.865
	l0.79,0.215l0.145-0.36l-0.29-0.145l-0.07-0.431l0.43-1.295l2.74-1.585l0.5-0.72l-0.5-0.36l0.215-0.574l0.72-0.575l0.79-0.075
	l-0.72-0.645l0.505,0.215l1.8-0.36l1.73,0.285l0.07,0.435h0.36l0.29-0.359l-0.075-0.795l0.575-0.141l0.359,0.431l0.436-0.36
	l-0.36-0.43l0.215-0.65l0.72-0.07v0.36l0.215,0.07l0.795-0.431l-0.795-0.29l-0.215-0.864l-0.43,0.074l0.43-0.074l0.65-1.87
	l0.5-0.865l1.3-0.865l0.36-0.79l1.005-0.29v-0.43l0.146,0.07l-0.146,0.29l0.435,0.069l0.575-0.645l0.36-0.146l0.935,0.285
	l1.295-0.43l2.09,0.36l1.295-0.79l-0.07-0.29l0.36-0.216l2.445-0.29l0.575-0.574h1.515l1.08-0.431l0.79,0.36l0.215-0.505h0.72
	l0.36-0.436l0.795-0.14h1.944l1.15,0.79l0.505-0.575l1.08,0.505l1.15-0.505l0.075-0.505l0.936-0.215l0.935,0.72l0.65,1.655
	l1.08-0.215l0.07-0.36l0.65,0.146l-0.145-0.65l0.865-0.72l1.005,0.069l0.575,0.36l0.436-0.285l0.285,0.36l0.22-0.36l-0.146-0.29
	l0.285-0.285l1.44-0.145l0.359-0.29l0.58,0.435l1.295-0.649l0.285,0.145l0.36-0.435l1.225,0.435l0.436,0.575l-0.146,0.36l0.36,0.215
	l-0.075,0.36l1.3-0.575l0.79-1.226h1.15l0.72,0.36l0.36-0.72l0.649-0.146l0.215-0.43l1.08-0.79l-0.215-0.435l0.215-0.79l1.01-0.936
	l-0.075-0.435l1.08-0.721l0.29-2.665l0.865-3.095l1.08-1.51l1.8-1.08l3.025-0.72l1.44-0.65l2.085-1.945l0.795-0.284l2.16-1.516
	l2.445-1.005l3.025-2.81l1.51-1.005l1.3-0.221l1.44-0.72l2.23,0.505l3.169,0.146l5.9-0.79l3.24-1.011l2.02-1.08l3.815-1.149
	l2.521-1.155l3.959-1.945l3.455-2.3l11.59-1.8l3.096-0.29l5.834,0.29l2.306-0.94l1.655-1.08l6.55,2.956l3.89,2.805l1.51,1.439h1.516
	l0.936-0.43l0.574,0.36l-0.43-0.431l0.141-0.29l0.719-0.505l1.66,0.29l0.936-0.145l2.52,1.585l0.145,0.43l0.285-0.285l0.576,0.285
	l0.939,0.935l-0.145,0.436l0.285-0.505l1.08,0.505l0.434-0.36l1.295,0.216l0.432-0.291l0.504,0.36l-0.215-0.575h-0.574l0.504-0.069
	l-0.65,0.069l0.146-0.284h-0.216h0.575l0.07-0.506l0.504,0.36l-0.069,0.285l0.284-0.14l0.291,0.43l0.43-0.43l0.075-0.65l0.79,0.145
	l0.07,0.431l-0.285,0.145l0.504,0.146l-0.145,0.575l0.936,0.069l0.07,0.795l0.58-0.435l1.439,1.945l-0.221,0.574l-0.719-0.359
	l-0.141,1.944l0.5-0.069l0.29-0.575l0.79,0.14l0.505-0.645l0.505,0.145l0.359-0.22l0.721,0.36l0.936,1.3l0.289,1.51l-0.865,1.295
	h-0.215l0.07-0.575l-0.359-0.215h0.574l-1.799-0.145l0.864,1.51l-0.864,0.94l0.219,0.284l0.43-0.215l0.291,0.43l0.43-0.215
	l0.215,0.436l-0.145,0.645h-0.5l0.285,0.575l0.289-0.285l0.361,0.07l0.359,1.439l0.79,0.65l0.29-0.65l-1.01-0.864l0.145-0.79
	l0.145,0.649l0.721,0.721l0.145,0.574l0.936-0.359l1.51,0.79l0.436,0.505l0.359-0.215l-0.359-0.146l0.14-0.43l-0.5,0.14l-0.435-0.43
	l0.435-0.29l1.149,0.505l0.215,0.65l-0.72,0.069l1.585,1.295l0.65,2.381l-0.36,1.51l0.501,0.145l3.385,3.24l0.935,1.8l0.075,1.365
	l-0.436,0.36l0.721,0.505l0.359,1.01l0.145,2.015l0.291,0.29l0.07,0.721l-0.216,0.284l0.146,1.011l0.359,0.145l-0.215-0.145
	l0.215-0.575l-0.289-0.22l0.074-0.36l0.141,0.505l0.359-0.07l-0.14,0.936l0.43,0.145l-0.29-0.29l0.145-0.145l0.576,0.359l-1.58,0.36
	l0.359-0.215l-0.436-0.07l-0.069-0.574l-0.575-0.36l0.215-0.36h0.36l-1.44-0.359l-0.145-0.865l-0.721,0.935l-0.359,1.15l0.359,0.075
	l0.361-0.505l0.789-0.07l1.01,1.005l0.07,0.505l-0.285,0.29h0.575l1.08,0.79l1.585,2.16l-0.074,0.505h0.719l0.291-1.01l0.789-0.07
	l0.721,0.285v0.58l0.865,0.36l0.215,0.72l0.58-0.29l-0.436-1.8l0.575-0.721l-0.069-0.72l-0.291-0.07l-0.07,0.721l-0.215-0.436
	l-0.649,0.65l-1.226,0.07l0.65-0.721l0.215,0.215l0.36-0.284l-0.431-0.506l0.07-0.649l0.215-0.575l0.65,0.36l-0.07-0.431
	l-0.505-0.29h0.216l0.289-0.79l0.5-0.29l0.506,0.146l0.074-0.43l0.36-0.075l0.36,0.795l0.285-0.94l-0.216-0.645l0.36-0.146
	l-0.215-0.574l1.365-0.796l1.08-1.579l0.359-1.37l2.38-1.655l0.216-0.575l4.029-1.8l0.145-0.22l-0.43-0.141l-0.22,0.5l-0.36-0.069
	l-0.07-0.36l0.576-0.36l0.145-0.43l0.505,0.07l-0.146,0.215l0.36,0.075l-0.069,0.359l1.869-0.435l0.575-0.36l1.155-2.375l0.5-0.43
	l1.154-3.96l1.006-0.58l1.154-1.8l1.51,0.649l-0.284-1.01l0.5-0.36l0.22-1.939l-0.65-0.58l0.215-3.24l0.146,1.37h0.505l-0.215,0.65
	l0.5,0.43l-0.14,0.72l1.005,0.865l-0.43,0.215l0.43,2.88l0.865,0.575l0.289,0.72l-0.435,1.011l-0.069-0.505l-0.65,0.29l-0.285,0.43
	l-0.22-0.29l-0.5,0.29l-0.146,0.43l-0.074-0.285l-0.215,0.575l0.289,0.215h-0.435l0.435,0.865h0.36l-0.146,0.936l0.721,1.439
	l-0.07,0.575l0.43,0.075l-0.215,0.215l-0.29-0.215l-0.215,0.935l-0.215-0.07l0.36-0.435l-0.575,0.145l-3.171,3.53l0.291,0.575
	l-1.155,1.08l0.435,0.505l-0.505,1.15l-0.864,0.069l0.574,1.155v0.935l-0.359,1.226l-0.36,0.07l-0.36,0.72l0.215,0.29l0.221-0.575
	l0.359,0.14l-0.145,1.011l0.359,1.08l-0.795,4.029l-0.789,0.58l-1.08-0.795l-1.801,0.29l-1.01-0.36l-0.574,1.365l-0.431,0.36
	l0.36,0.72l-0.29,0.65l-0.575,0.649l-0.43,0.07l-0.291,0.72l0.65,0.721l0.646-0.146l0.72-0.79l1.8,0.215l0.72-0.935l1.011,0.069
	l0.284-0.505l0.795-0.359l1.296,0.29l0.864,0.72h0.431l0.935-0.72l-0.285-0.721h-0.215l0.575-0.215l0.575-2.305l0.65-1.08
	l0.574-2.16l-0.359-0.29l0.145-1.08l0.43-1.08l1.01-1.005l0.07-1.515l0.936-1.295l0.72,1.295l-0.215,0.505l0.396,0.075l0.469,0.575
	l0.361,2.159l0.719,0.575l0.285,0.865l0.436,0.215l0.43,1.295l0.865,0.575l0.29,1.155l-0.22-0.215l-0.215,0.215l-0.07-0.215
	l-0.215,0.43l0.215-1.01l-0.36,0.145l-0.146,1.08l0.361,2.305l-0.576,1.08l-0.435,3.025l-1.08,0.505l-1.149,1.365l-0.791,0.215
	l-0.864,1.08l0.069,0.359l1.011,0.506l0.935-0.285l2.59,0.14l0.94-0.575l0.285-0.645l0.864-0.436l1.801,0.721l-0.721-0.506
	l0.721,0.36l0.07-0.215l0.289,0.436l0.43-0.075l2.596,2.16l1.725,1.654l0.291,0.72l0.215-0.069l-0.146,0.36l0.36,0.289l-0.141-0.505
	l0.285,0.285l1.01,1.37l0.36,1.225l0.431,0.36l-0.146,0.07l0.72,1.944l-1.58-3.239l-1.875-2.59l-3.744-3.676l-1.08-0.359
	l1.729,1.225l2.521,2.45l1.799,2.375l1.656,3.025l1.225,3.31l0.65,3.095l-0.361,1.73l-0.649,0.72l-1.295,0.79l0.72,0.935v0.65
	l0.506,0.72l-0.146,0.431l-0.435-0.141l-0.07,0.36l2.449,4.175l0.5-0.145l0.721,0.72l-0.07,0.65l1.365,1.51l1.01,2.45l0.215-0.36
	l-0.359-0.36l-0.43-1.37v-0.43h0.289l0.575,1.58l0.07,0.865l-0.431,0.075l0.36,0.72l2.591,1.939l1.799-0.14l1.73,0.285l1.725,1.225
	l1.516,1.51l0.574,1.08l-0.359,0.65l0.359,0.29l0.36-0.435l0.865,0.435l0.14,0.575l0.436-0.575l0.505,0.285l0.285-0.215
	l-0.431-0.936l0.865-0.649l0.79-0.146l1.87,0.505l1.945,1.585l1.01,0.146l0.359-0.436l1.08-0.069l0.936,0.79l0.43-0.07l3.315,3.025
	l0.285-0.075l-0.14-0.36l0.14,0.505l1.3,0.29l0.859,0.575l1.226,1.44l1.295-0.07l0.649,0.43l0.721,1.08h0.505l1.226-0.865
	l0.215-0.574l1.944-0.721l2.16-2.375h0.646l0.359-0.435l1.225-0.43l0.936-0.865l1.08-0.431l0.721,0.146v-0.36v0.285l0.434-0.145
	l0.721,0.359l0.5-0.14l0.29-0.29l-0.575-0.07l0.645-0.649l0.146,0.29l0.29-0.58l-0.215-0.79l-0.58-0.146l-0.859,0.505l-0.795,0.07
	l-0.506-0.575l-0.14,0.436l-0.505-0.221v-0.5l0.645-0.58l-0.07,0.36l0.65-0.07l0.285,0.216l0.145-0.575l3.096-1.295l0.289-0.65
	l0.576-0.145l0.289,0.22v-0.36l0.215-0.074l0.506,0.289l0.43,1.87l0.29-0.069l0.285,0.43l0.145,1.585l-1.079,0.865l-0.506,1.225
	l-0.79,0.431l-1.079,0.215l-1.656-1.08l1.726,1.875l0.435,0.935h1.51l0.216-0.65l0.864-0.505l1.08,0.36l-0.43-0.5h0.36l-0.146-1.01
	l0.285,0.069l0.506-1.079h0.719l-0.284,0.145l0.215,0.146l0.215-0.216l1.011,0.07l0.43,0.29l0.289,0.865l-0.145,0.5l0.36,0.22
	l-0.146,0.5l-0.359,0.36l-1.01-0.285l0.074,1.225l-0.795,0.215l0.075,0.216l1.08,0.359l1.08,1.87l1.44-0.5l0.864,0.215l0.14,0.646
	l-0.359-0.5l-0.721-0.29l1.155,1.87l0.36,1.8l0.79-0.285l0.075-0.505l0.43-0.36l1.37,0.79l-0.435-0.72v-0.285l0.359,0.146
	l0.795,2.444l-0.22,0.215l0.72,0.65l0.145,0.36l-0.284,0.359l0.43,0.646l0.575-0.07l0.145-0.79h0.506v-0.505l-0.436-0.146
	l0.795-1.294l0.07-1.511l-0.36-0.29l-0.36,0.936l-1.295,0.574l-0.069-1.364h-0.435l-0.36-0.865l0.505-0.575l0.505-0.075v0.29
	l0.864-0.359l0.431,0.649l0.935-0.359l0.65,0.285v-0.285h0.285v0.285l0.074-0.285l0.646-0.075l0.075-0.285l0.145,0.215l-0.22,0.146
	l0.505,0.069l0.215-0.29l0.65,0.221v-0.436l0.505-0.215l0.79,0.146l0.29-0.216l-0.505,0.5l8.495-6.619l2.235-1.226l1.869-0.505
	l-1.439-0.07l-0.29,0.36l-0.431,0.07v0.215l1.511-0.43l-1.8,0.43l-0.646,0.505l0.285-0.575l-1.655,1.08l-1.225,0.146l0.22-0.65
	l0.646-0.215l-0.285,0.285l0.574,0.074l1.15-0.864l0.36,0.069l-0.146-0.215l0.436-0.145l-0.36-0.07l0.505,0.07v-0.431l-0.359-0.069
	l0.645-0.36l-0.72,0.285l-0.146-0.505l0.146,0.29l0.505-0.29l0.72,0.22l0.575,0.72l0.215-0.29l0.865,0.216l1.439-0.146l-0.145-0.575
	l0.29,0.36l0.29-0.43l0.215,0.215l-0.575,0.43l2.66-0.36l3.96,0.65l0.865-0.29l3.17,0.29l1.225,0.146l0.43,0.43l0.865-0.285
	l1.365,0.215l0.36-0.359l-0.07-0.36l0.07,0.36l1.8-0.575l1.225-1.301l-0.069-0.43l-0.216-0.359l-0.359,0.069l0.359-0.14l-0.435-0.36
	l0.65,0.14l-0.075,0.436l0.29-0.075l0.069-0.36h0.436l-0.359,0.436l0.145,0.146l-0.436,0.359l2.16-0.29l0.29-0.935l-0.145-0.936
	l0.36-0.649l-0.216-0.65l0.575-0.43l0.575,0.359l-0.285-0.649l0.069-1.005l-0.649-0.65l-0.646,0.215l0.36-0.069l-0.29-0.431h0.436
	l0.14-0.359l0.146,0.14l0.215-0.5l-0.215-0.145l0.289-0.721h-0.504l0.215-0.075l0.145-0.72l-0.359,0.29l-0.07-0.36l0.645,0.216
	l0.436-1.44l-0.36-0.146l0.5,0.146l0.29-1.08l1.225-1.8l0.36-2.015l1.08-1.585v-0.721l-0.649,0.075l0.649-0.075l0.36-1.51
	l-0.215-0.505l-0.36,0.069l0.284-0.43l0.291,0.505l0.43-0.935l0.215-1.08l-0.72-0.145l0.075-0.146l0.504,0.215l0.141-0.43
	l0.436-0.146l-0.146-0.43l0.575,0.285l0.145-0.79l-0.215-0.865l-0.505-0.29l1.295,0.505l0.36-0.505v-0.5h0.289l1.15-1.3v-0.86
	l0.721-0.649l-0.07-0.36l0.07,0.215l0.574-0.359v-0.575l-0.215-0.29l1.01-0.575l-0.145-0.359l0.79-0.285v-0.29l1.01,0.069
	l0.07,0.506l0.72-0.285l0.145-0.58l-0.43,0.075l-0.289-0.29l0.145-0.575l-0.29-0.72l0.075,0.215l0.789-0.506l0.361,0.221v-0.29
	l0.145,0.72l-0.29,0.575l0.29,0.29l0.43-0.36l0.221-0.795l-0.436,0.075l-0.145-0.935l-0.285,0.215l0.07-0.36h0.289l-0.074-0.505
	l-0.36,0.145l0.146,0.216h-0.576l0.431-0.146l-0.14-0.575l-0.58-0.359h-0.646l1.295,0.215l1.08-1.15l0.215,0.215l0.65-1.37
	l-0.146-0.645l0.721-0.215l-0.291-0.146v-0.72l-0.719,0.215l-0.07-0.215l0.289-0.505l0.5-0.215l0.361,0.145l-0.285,0.646
	l0.645-0.505l-0.359-0.646l0.145,0.146l0.145-0.721l0.43-0.359l0.076-0.65l0.935-1.149l2.229-1.44v-0.22l-0.859,0.075l0.07-0.436
	h-0.361l0.576-0.14l-0.07,0.359l0.43-0.145v0.215l0.29-0.36l0.646-0.069v-0.36l-0.5,0.215l-0.146-0.359l-0.29,0.505l-0.359-0.58
	l-0.646,0.145l0.285-0.285l-0.36-0.145l0.36-0.146l-0.07,0.216l0.36-0.07l0.215,0.285l0.215-0.141l-0.07,0.285l0.506-0.935
	l0.789,1.08l0.36-0.431l0.431-1.729l-0.215,0.43l-0.721-0.285l-0.359,0.146l0.215-0.29l-0.5,0.215l0.215-0.146l-0.146-0.284
	l0.36,0.069l-0.36-0.215l1.08,0.505l0.29-0.29l-0.22-0.284l-0.215,0.14l0.145-0.43l-0.29-0.216l0.29,0.07l0.29,0.65l0.07-0.215
	l0.29,0.284l0.14-0.145l-0.215-0.285l0.436-0.575l-0.146-0.359l0.646-1.155v-0.505l-0.431,1.01l-0.36-0.29l0.576-0.86l-1.08,0.141
	v0.435l-0.146-0.29v0.36l-0.215-0.285l-0.36,0.215l0.65-0.359l-0.146-0.216l0.575-0.074l-0.359-0.146l0.289-0.285l-0.359-0.075
	v-0.43l0.574,0.29v0.575l0.146-0.215l0.431,0.07l0.574-0.431l-0.285-0.795l0.285-0.36v0.29l0.29-0.074l-0.36,0.435l0.431,0.215
	l-0.431,0.146l-0.07,0.575l1.221-0.575l-0.145-0.436l1.08-1.295l-0.07-0.215l-0.29,0.36l-0.216-0.146l-0.069-0.359h0.285
	l-0.216-0.285l0.65-0.505l0.506,0.145l-0.58,0.86l0.795-0.5l0.069-0.58l0.72-0.575l0.721-1.295l-0.215-0.07l2.015-1.875h-0.431
	l0.146-0.359l-0.505-0.36l0.43,0.215l0.075-0.215v0.29l0.146-0.36l-0.365-0.29l0.435,0.215l0.07-0.359l0.36,0.075l-0.5,1.149
	l0.5-0.575l0.865-0.359l2.09-0.36l0.43,0.215l0.865-0.574l0.07-0.36h-1.08l-0.216-0.43l-0.145,0.645l-1.296,0.215l1.15-0.43
	l-0.574-0.29l-0.865,0.29l0.074-0.505l0.215,0.359l0.506-0.359l-0.575-0.505l0.14-0.216l0.221,0.36l0.574-0.43l-0.145,0.359h0.43
	l0.146,0.285l0.215-0.43l-0.14,0.36l0.359,0.215l0.43-0.285l0.431,0.285l0.146-0.505v0.505h-0.361l0.65,0.359v-0.645l1.08-0.58
	l0.645-0.72l2.521-0.79l-0.215-0.505l0.575-0.865l-0.215-0.575l0.649-1.005l-0.36-0.505l-0.435,0.145l0.36,0.5l-0.215,0.146
	l-0.07,1.225l-0.36,0.07l0.07-0.5l-0.431-0.505l0.36-0.436l-0.29-0.359l-0.145,0.22l-0.285-0.505l-0.215,0.505l0.14-0.58l-0.36-0.14
	l0.65,0.215l0.43,0.145l0.146-0.505l0.36,0.36l0.795-1.295l0.285-0.795l-0.215-0.07l0.289,0.07l1.365-1.511l1.01-0.29l-0.074-0.574
	l1.584-1.87l-0.285-0.075l0.431-0.79l1.226-1.155l-0.146-0.645l0.935-1.37v-1.08l0.36-0.79l1.226-1.295l-0.216-0.795l0.79-0.865
	l-0.07-0.575l-0.649-0.145l-0.07-0.721l0.07-1.294l0.505-0.936l0.43-2.09l1.801-2.085v-0.72l0.939-1.155l0.141-1.44l1.154-1.51
	l0.646-2.229l0.505-0.721l0.359-1.515l0.36-0.36l0.29-1.149l-0.72-0.936l0.505,0.215l0.215,0.506l0.215-0.796l-0.289-0.284
	l0.074-0.65l1.655-1.8l-0.216-0.36l0.36-0.865l1.87-1.944l-0.645-0.141l0.645,0.141l0.29-0.36v-0.86l0.79-1.8l-0.505-0.145
	l-0.431-1.37l0.216,0.075l0.935-3.53l-0.14-1.15l-0.146,0.721l0.07-0.865h-0.285l-0.505-0.505l-0.075-0.505l-0.215,0.074
	l0.215-0.145l-0.215-2.95l0.29-1.08l-0.435-0.22l-0.07-1.08l-0.43-0.575v-0.865l0.285-0.14l-0.36-0.505l0.215-0.435h-0.36
	l-0.14-0.721l-0.146,0.221l-0.504-0.146l-0.07-1.01l-0.506,0.29l-0.504,0.145l0.649-0.29l0.285-0.72l-0.79-0.505l-0.145-0.72
	l-0.431,0.074l0.5-0.145l-0.069-0.575l0.215,0.43l0.359,0.07l0.215-0.645v-0.29l-0.859-0.07v-0.935l0.14,0.359l0.36-0.505
	l0.939-0.29l-0.359-0.145l-0.221-0.79l-0.215,0.069l0.146-0.359l-0.36-0.07l0.07-0.215l0.29,0.145l-0.216-0.505l0.431-0.359
	l-0.146,0.935l0.865,1.73l0.506-0.36l-0.576-2.595l0.216-0.936l-0.36,0.936l-0.43,0.145l0.43-0.145l0.215-0.936h0.36l0.075-1.654
	l-1.01-0.865l0.649,0.29l0.14-1.516l0.65-1.87h-0.936l0.431-0.074l0.215-1.94l1.945-3.675l-0.431,0.215l-0.504-0.36l-0.216-1.51
	l-0.36-0.215l0.285,0.285l-0.359,0.29l0.145,0.505l-0.145,0.285l-0.36-0.141l0.36,0.431l-0.285,0.069l-0.29,0.65l-0.215-0.36
	l0.505-0.43l-0.145-0.435l-0.431,0.074l0.575-0.074v-0.431l-0.436-0.074l0.36,0.074l0.075-0.505l-0.36-0.43l-0.435,0.07v0.215
	l-0.07-0.36l-0.215,0.29l0.215-0.29h0.505l0.07-0.285l-0.505-0.22l-0.36-0.575l0.22-0.215l-0.58-0.215l0.221-0.29l0.359,0.145
	l-0.359-1.654l0.359-0.075l-0.22-0.215l0.435,0.074v-0.435l-0.435,0.075l0.29,0.07l0.43-0.506l-0.43,0.075l0.43-0.22l0.146,0.145
	l0.29-0.43l-1.37,0.646l-1.08-0.07l1.08-0.07l0.435-0.649h0.431l-0.505-0.29l0.359,0.074l0.29,0.285v-2.015l-0.72-0.146l-0.145-0.5
	l-0.36,0.285l-1.511-0.505l-0.435-0.935l-0.72-0.146l-0.145,0.29l0.145-0.359l-0.215-0.07l1.01,0.14l0.215-0.215l-0.865-1.225
	l-0.215,0.074l0.215-0.074l-0.574-1.44l0.145-0.5l-0.436,0.14l0.506-0.284l-0.146-1.37l-0.575-0.936h-0.215l-0.145,0.505h-0.29
	l0.075,0.506l-0.146-0.506h0.29l0.07-0.795l-1.01-0.284l-0.936-1.155l0.29,0.359l-0.215-0.14l-0.58,0.285l0.29,0.215h-0.43
	l0.645-0.5l-0.936-1.3l-0.069,0.505l0.069-0.505l-0.43-0.936l-0.289,0.146l0.215-0.215l-0.646-1.295l-0.22-2.45l-0.575-1.295
	l-0.505,0.865l0.359-0.58h-0.43l-0.505-0.79l-0.505-0.146l0.505,0.075l-0.36-1.155l0.215-0.215l-0.285-0.215l-0.359,1.005
	l-0.074-0.575l0.359-0.215l-1.005-0.72l-0.435-0.07l-0.07,0.43l0.359-0.069v0.359l0.43,0.36l0.076,0.215l-0.216-0.075l0.14,0.506
	l-0.5-0.646l-0.719-0.435l-0.291,0.435l0.291,0.285l-0.221-0.215l-0.215,0.505l-0.215-0.865l-0.43-0.145l-0.221,0.359l-0.215-0.645
	l-0.07,0.79l-0.289-0.79l0.215-0.146l-0.575-1.08h-0.216l-0.215-1.01l-0.435,0.505l0.146-0.79l-1.44-0.795l-0.285-0.575l0.14-0.574
	l-0.215,0.145l-0.215-0.58l0.215-0.14l-0.359-0.22h0.289l-0.795-0.575l-0.285-1.005v0.72h-0.215l0.141-0.58l-0.43-0.285l-0.07,0.575
	l-0.436,0.145l0.215,0.216l-0.285-0.216l-0.074,0.865l-0.215-0.865l-0.646-0.864l0.36,0.069v-0.215l-0.939-0.72l0.795,0.145
	l0.215-0.29l-0.575-1.079l-0.146-1.15l-0.289-0.146v-0.215l0.359,0.215l0.505-0.645l-0.069-0.505l-0.576-0.29h0.285l0.075-0.505
	l-0.505-0.431l0.575-2.229l-0.215,0.43l0.215-0.72l-0.36,0.29l-0.145-0.58l0.865,0.29l-0.07-0.72l0.859-2.521l-0.645-0.575
	l0.145-1.585l-0.289-0.069l0.215,0.43l-0.506,0.505l0.146,0.575l-0.505-0.07l-0.215-0.435l0.435,0.359v-1.005l-0.505,0.07
	l0.145-0.215l-0.359-0.936l0.285,0.216l0.074-0.216l0.431,0.646l0.505-0.865l-0.72-0.36l-0.146-1.079l-0.289,0.22l0.219,0.43
	l-0.145,0.65l-0.074-0.36l-0.36,0.215l0.145-0.29l0.216-0.069l-0.5-0.36l0.359-0.075l-0.22-0.43l0.22,0.215l0.141-0.285
	l-1.006-0.505l-0.505,1.08l0.29,0.43l-0.29-0.145l0.07,0.22l0.579,0.36l-0.649-0.221l0.79,0.796l-0.359-0.29l-0.215,0.074
	l1.079,0.721l-0.069,0.285l-0.291-0.216v0.29l-0.145-0.58l-0.5-0.14l0.359,1.295l0.501,0.146h-0.431l0.215,0.5l-0.719-1.295
	l-0.431,0.359l0.146-0.285l-0.291-0.29l0.291,0.07l-0.65-0.575l0.215,0.721l-0.215-0.646l-0.43-0.075l-0.436-0.72l-1.15-0.935v-0.29
	l-1.01-0.216l-0.43-0.505l0.215-0.43l-0.359-0.36v-0.574l-0.65-0.65l-0.07-0.865l-0.43-0.43l-1.155,0.649l-0.646,1.726l0.646,0.215
	l-0.72,0.075l1.01,3.96l0.29,0.359l-0.649-0.505l-0.291-1.149l-0.859-0.795l-0.795-1.585l-0.36,0.58l-1.295,0.79l0.146,0.145
	l-0.436-0.075l-0.5,0.94l0.359-1.08l0.716-0.436l0.146-0.935l-0.146-0.575l-0.5,0.285l-0.505-0.285l-0.43,0.575l0.285-0.146
	l-0.146-0.359h0.864l-0.285-0.79l-0.795-0.075l-0.43,0.505l-0.289-0.145l1.295-0.646l-0.431-1.154l-0.215,0.074l0.285-0.29
	l-0.431-1.364l0.146-0.58l-0.649-1.44l0.215-1.08h-0.431l0.36-0.215l-0.29-0.285l-0.07-0.795l0.36-0.145l-0.145-0.141l0.435,0.36
	l0.069-0.22l-0.359-0.216l-0.07-1.005l0.79-1.154l-0.29-0.216l-0.359,0.575l-0.07-0.359h-0.43l-0.221-0.285l0.29-0.58l-0.575,0.145
	l-0.074-0.43l-0.575,0.285l-0.07,0.36v-0.575l-0.29-0.215h0.436l0.069-0.575l0.431,0.145v-0.22l-0.791-0.36h0.646l-0.069-1.58h-0.36
	l-0.216-0.435l-0.935,0.865l0.285-0.505l-0.36-0.07l0.506-0.436l-0.285-0.5l-0.36,0.07l0.285-0.145l0.215,0.215l0.22-0.936
	l-0.58-0.145h0.65l0.07,0.29l0.22-1.01h-0.29l-0.359-0.575l-0.146-0.43l-0.285-0.146l-0.146,0.43l-0.289-0.79l-0.791,0.07
	l-0.289,0.29l0.145-0.72l0.215,0.069l-0.215-0.359h0.575l-0.285-0.431l-0.36,0.146l-0.58-0.575l-0.5,0.141l-0.289-0.5l-0.721,0.5
	l0.146-1.006l-0.575-0.145l0.141-0.29h0.504l-1.295-1.15v-0.505l-0.504,0.075l0.649-0.505l-1.08-1.37l0.431,0.29l0.574-0.795
	l-0.359-0.86l1.01,0.646l0.505-0.36v-0.36l0.215,1.08l0.36,0.436l0.935,0.215l-0.505-0.65l0.359-0.145l-0.14-0.14h-0.29l-0.43-0.58
	l0.07-0.5l-0.215-0.146l0.285-0.359l-0.861-0.936l0.431-0.075l-0.29-0.145v-0.5l-0.285-0.075l-0.29,0.505l-0.646-0.07l0.141-0.505
	l-0.285,0.07v-0.285l0.285-0.58l-0.43,0.505l-0.07-0.645l-0.145,0.645l-0.36-0.145l0.285-0.43l-0.5,0.215l0.215-0.431l-0.36,0.07
	v-1.439l-0.435,0.359l-0.86-0.575l-0.22,0.721l0.58,0.215l-0.72,0.435l0.5,0.07l-0.646-0.146l-0.075,0.29l-0.14-0.074l-0.075-0.285
	l-0.79-0.146l0.07-0.145l-0.79-0.79l0.215-0.146l-0.65-0.505l0.146-0.285l0.36,0.07l-0.07-0.65l-0.29,0.075l-0.215-0.435
	l-0.865-0.215l0.146,0.29l-0.576-0.36l-0.289-0.865l-1.225,0.436l-0.576-0.146l-0.504-0.58l0.145,0.365l-0.43-0.725l-0.146-1.58
	l-0.29-0.436l-0.859-0.14l-0.146,0.86l0.36,0.864l0.285,0.075l-0.215,0.07l-1.365-0.36l-0.94-1.439l-0.215,0.215l0.146-0.431
	l-1.08-0.864l0.649,0.649l0.575,0.285l0.07-0.43l-0.791-0.29l0.721-0.07l-0.145-0.649l-0.431-0.216l0.431,0.146v-0.29l-0.216-0.646
	l-0.36,0.141l0.285-0.07l-0.07-0.215l-0.574-0.936l-0.721-2.02l-0.289-0.215l0.72,1.295l-0.285,0.435l-1.585-0.435l-0.795,0.435
	l-0.07-0.359l-0.72-0.215l-0.215,0.359l0.069-0.435h-0.359l-0.145,0.575l-0.141-0.86l-0.795-1.3l0.29-0.5l-0.505-1.01l0.07,0.359
	l-0.791,1.15l-1.01-0.141l-0.43-0.435l-0.215,0.075l0.145-0.36l-0.58-0.22l-0.14-0.72l-1.515-0.141l-2.305-1.729l-2.23-3.025
	l1.15-2.88l-0.36-0.07l0.36-0.29l-0.07-0.505l-0.145-0.215l0.359,0.075l-0.07-0.435l-0.215-0.145l-0.074,0.22l-0.216-0.36
	l-0.29,0.07l0.221,0.29l-0.36-0.58l-0.435-0.07l-0.285,0.29l0.215-0.435l-0.36-0.145l0.215-0.07l-0.145-0.29l-0.36,0.145
	l-0.215-1.295v0.505l-1.439-2.235l-0.146-1.08l0.435-1.005l-0.22-0.146l0.22,0.146l0.36-0.65l-0.36-0.145l0.36,0.075l0.215-0.65
	l0.07,0.215l0.36-0.14v-0.94l0.359-0.575l-0.359-1.005l0.359-0.145l-0.145-0.865l0.649-0.72l-0.145-0.65l-0.285,0.435l-0.36-0.145
	l0.285,0.145l0.29-0.505l-0.72-1.15l0.215-1.515l-0.79-1.005l-0.58-2.595l-0.646-1.005l0.146-0.865l0.79-1.295l-0.43-0.435
	l-0.221,0.435l-0.359,0.07l-0.285-0.505l-0.936,0.649l-0.22-0.29l0.22-0.359l-0.289-0.146l-0.36-0.935l-0.431-0.36l-0.145-0.505
	l-1.08-0.79l-1.154-1.945l-0.07-0.865l-0.721-0.285l0.146-1.585l0.431-0.72l-0.431-0.145l0.935,0.075l-0.574-1.37l0.574-1.225
	l-0.789-1.945l-0.721-0.14l0.43-1.225l-0.289-0.435l0.22-1.08l-0.58-1.08l0.146-0.936l-1.296-0.79l0.72,0.145l0.146-0.435
	l-0.29-0.505h-0.72h0.505l0.79-1.365l-0.14-0.36l0.935-0.505l-0.215-0.72l-0.36,0.43l-0.58-0.07l-0.215-1.439l-0.359-0.36
	l0.359,0.215l0.505-1.005l1.011-0.94l-0.076-0.43h-0.864l-0.72-1.08l0.145-0.575l-1.51-0.215l-0.215-0.36l-0.221,0.285v-0.36
	l-0.43,0.145l-0.359-0.72l-0.721-0.36v-0.79l-0.359-0.22l-0.146-0.72l-1.365-0.285l-0.22-0.65l-1.221-0.07l-0.795-1.08v-0.575
	l0.506-0.865l-0.79-0.075l0.215-1.295l-1.01-1.365h-0.36l-0.43,0.86l-0.65,0.36l0.145,0.145l-0.359-0.069l-0.65,0.359l-0.789-0.145
	l-0.791-0.72l-0.289,0.07v0.865l-0.36,0.795l-1.729,1.15l-1.006-0.07l-0.215,0.43l-0.145-0.505l-0.865-0.215l-0.65-0.505l-0.72-1.15
	l-0.5-2.015l-0.146-2.595l-0.795-0.72l-0.285-1.295l-0.795-1.37l0.506-2.16l0.435-0.646l-0.58-0.075h0.505l0.215-1.51l-0.215-0.65
	l-0.645-0.645l0.07-1.945l-0.216-0.649v-2.59l0.646-1.15l-0.79,0.215l-0.431-0.215l-0.649,0.43l0.215,0.505l-0.36,0.285v-0.285
	l-0.43-0.145l0.285-0.145l-0.359-0.145l0.074-0.86l0.936-1.944l-0.291-0.146l0.506-0.65l-1.586-0.935l-0.43-0.79l-0.43,0.215
	l0.5-0.359l-0.07-1.01l-0.289-0.36l-0.861-0.575h-0.579l0.146,0.215l-0.361-0.36l-0.215,0.29l-0.289-0.29l0.289-2.16l-0.43-0.575
	l0.43,0.29l1.295-2.09l0.506,0.075l0.145-0.29l-0.359-0.215l-0.506,0.285l-0.289-0.79l-0.646-0.359l-0.865,0.505l-0.72-0.075
	l-1.51-1.365l0.14-2.595l-0.36-2.23l0.58-1.01l-0.289-0.86l-0.576-0.65v-2.665l-0.864-1.655l-0.575,0.146l-0.29,0.43l0.29-0.72
	l-0.359-0.215l-0.65,0.145l0.359-0.575l-0.359-0.505v0.215l-0.43-0.215l-0.216,0.285l0.285,0.72l-0.43-0.359l-0.216,0.359
	l-1.01,0.36l0.791-0.285l0.289-1.51l0.36-0.075l0.864-1.08l-0.649-0.285l-0.36-0.58l-0.43,0.36l-0.936-0.07l-0.504,1.44
	l-0.936,0.935l-1.37,0.07l0.216,0.435l-0.576-0.36l0.216-0.146l-1.005,0.575l0.215,1.585l0.145-0.43l-0.22,0.72l0.146,0.285
	l0.145-0.285l-0.07,0.36l-0.65,1.22l0.146,1.875l-0.505,1.08l-0.43,0.865v0.285h-0.146l-0.435,1.515l-0.07,0.14l-0.29,0.865
	l0.075,0.215l1.225-0.07l-0.289,0.43l-1.226-0.14l-0.646,2.445l0.07,0.215l0.29-0.14l-0.22,0.215l0.505,0.215l0.29,0.65l0.359-0.72
	h0.576h-0.506l-0.285,1.15l-0.939-0.505l-0.285,0.505l0.215,0.865l-0.574,0.285l0.504-0.36l-0.649-2.085l0.29-0.36l-0.436-0.075
	l-0.359,0.359l-1.51,3.025l0.359,0.145l0.36-0.359l-0.216,0.215l0.431,0.29l-0.431-0.075l-0.145,0.22l0.07-0.22l-0.721-0.07
	l-1.725,4.175l0.43,0.29l0.865-0.29v-0.285h-0.574l0.359-1.226l-0.145,0.215l0.359,0.29l0.936-0.075l-0.936,0.505l0.865,0.43
	l0.721,0.865l0.789-0.285l0.215,0.215l0.576-0.36l0.504,0.43l-0.645-0.07l-0.29,0.285l-0.146-0.215l-0.935,0.65l0.72,0.285
	l0.506,0.795l0.719-0.145l-0.215,0.07l0.215,0.145l-0.864,0.215l0.36,2.09l-0.65-1.01l0.075-1.365l-0.505-0.575l-0.43,0.14v-0.36
	l-1.011,2.235l-1.225,0.79l-0.216-0.145l-0.43,0.58l-0.22,0.5l0.435,0.721v1.515l0.865,1.295l-0.58,1.01l0.221,0.141l0.5-0.431
	h0.359l-0.72,0.431l0.795,0.58l-0.29-0.075l0.145,0.505l-0.289-0.36l-0.215,0.146l0.145-0.36l-0.575,0.215l-0.29-0.29l-1.295,2.021
	l-1.08,4.1l-0.07,1.01l1.51,2.09l0.291,1.365l-0.291-0.069l0.07,1.149l-1.08,2.735l0.721,4.9l0.58,1.005l0.359,1.515l-0.58,0.86
	l0.146,0.58l-0.646,0.575l-0.074,0.07l-0.576,1.655l-0.069,0.29l-1.08,2.45l-1.08,4.605l-0.22,0.29l0.65,2.085l-1.01,1.585
	l-0.791,2.375l-0.145,0.22l0.074,0.936l-0.504,0.935l-0.436,0.43l-0.359,1.3l-0.07,0.07l-1.37,1.37l-0.14-0.075l-0.36,1.155
	l-1.3,1.365l-0.141,0.575h0.285l-0.505,1.729l-0.14,0.29l-0.58,2.375l-0.79,1.08l-1.655,0.575l-1.295,0.935l-0.359,0.075
	l-1.516,0.72l0.075-0.29l-1.08,0.43l-1.729,0.145h-0.291l-1.439,0.215l-1.15-0.215l-0.574-0.43l-0.291-0.72l-1.225-0.436
	l-0.215-0.359l-0.79,0.075l-0.36-0.36l-0.935-0.215l-0.435-0.505l-0.146,0.43l-0.07-0.646l-0.575-0.29l-0.865-1.01l-0.359,0.22
	l0.07-0.29l-0.36-0.215l-1.51-0.145l-0.79-0.65l-0.936-1.725l-0.22-1.37l0.22-0.72l-0.795-0.36l-0.649-0.79v-0.505l-3.525-1.08
	l-1.585-1.01l-1.87,0.145l-1.515-0.645h-0.285h-0.074l-2.16-0.94v-0.07l-0.646-0.29l-3.386-3.455l0.146-0.07l-1.155-1.655
	l-0.14,0.36l-0.075-0.795l-2.305-0.935h-0.141l-1.584-0.36l-1.44-0.865l-0.36-0.645l-0.215,0.36l-0.145-0.29l0.359-0.215
	l-0.215-0.145l-0.29-0.07l0.29,0.07l-0.22,0.145l-0.86-0.72l-0.939-0.215l-1.08-1.08l0.074,0.215l-0.289-0.075l-0.36-0.14
	l-0.575,0.285l0.506,0.435l-0.146,0.215l-0.935-0.505l-0.291,0.29l0.215-0.29l-0.5-0.215l-0.719,0.285l0.069-0.431l-0.505,0.65
	l-0.43-0.29l-0.291,0.145l0.291-0.215l-0.215-0.29l0.284-0.069l0.216-0.22l-0.5-0.36l0.284,0.145l-0.069-0.285l-0.436-0.074
	l0.145-0.36h-0.43l-0.865-0.72l-0.504,0.145l0.215-0.29l-1.44-1.005l-0.215-0.36l-1.005-0.36l-0.221,0.285v-0.431l-0.645-0.649
	l-0.29-1.655l-0.575-0.145l0.215-0.215l-0.43,0.075l-1.654-1.08l-1.011-0.36l0.146-0.145l-1.586-1.37l-1.369-0.865l-0.43,0.145
	l-0.291-0.645l-0.43,0.5l0.215-0.645l-0.285-0.215l-0.865-0.075l-0.289,0.435l0.215-0.505l-1.221-0.795l-0.58-0.86l-0.284,0.285
	l0.215-0.43l-0.431-1.225l-0.289-0.07h0.289l-0.145-1.01l-0.574-0.146l0.43-0.069l0.505,0.359l0.43-0.649l1.155-0.43l-0.221-0.29
	l0.221-0.865l0.72-0.936l0.215-0.79l0.79-0.075v-0.5l0.721-1.155l-0.36-0.43l0.575,0.145l1.515-1.08h0.575l-0.36-0.36l0.431-2.16
	l0.435-0.58l-0.075-0.36l0.145,0.36l0.506-0.721l0.359-1.87l0.791-1.295l-0.721-0.075l0.145,0.36l-1.004,0.865h-0.506l-0.435-0.43
	v-0.215l0.58-0.29l-0.146-0.215l-0.435,0.07l-0.14-0.575l-0.506-0.43l0.506-0.36l-0.076-1.515l0.506-0.215l0.43,0.575v-0.36
	l0.36,0.075l0.145-0.505l-0.575,0.069l-0.069-0.505l-0.505-0.215l0.359-1.005l0.506-0.435l0.215,0.575l0.145-0.79l0.5-0.215
	l0.359,1.225l0.146-1.01h0.36l0.215-1.01l0.58-0.36l-0.145,1.08l0.574,1.01l-0.215-0.575l0.505,0.07l0.216-0.505l0.359,0.075
	l0.07-0.505l-0.43-0.43l0.359,0.069l0.145-0.29l0.36,0.58l0.431-0.145v-0.435l-0.291-0.215l0.506-0.79l0.435,0.285l-0.146,1.08
	l0.431,1.01l-0.285,0.36h-0.505l0.145,0.29l-0.289,0.285l0.289,0.359l0.791-1.08l0.574-0.285v0.36h0.29l0.146-1.01l0.43-0.36
	l0.215,0.215l0.436-1.295l-0.36-0.07v-0.436l-0.435-0.359l-0.285,0.29l-0.36-0.436l1.005,0.146l0.29-0.36l0.069,0.65l0.216,0.069
	l0.435-0.72l0.215,0.72l0.506-0.215l-0.36-0.72l-1.226-0.43l0.146-0.435l-0.505-0.07l-0.43-0.435l0.14-0.575l-0.285-0.36
	l0.935,0.435l-0.145-0.65l0.29-0.215l0.646,0.646l-0.215-0.141l-0.07,0.431l0.505,0.359l-0.146-1.51l0.285-0.36l0.865,0.215
	l-0.215-0.575l0.145-0.436l0.645-0.72h0.291l-0.146-0.285l-0.505,0.141l0.505-0.431l-0.284-0.07l0.139-0.075l-0.139-0.646
	l0.859-0.22v0.505l-0.43,0.435l0.145,0.36l0.145-0.435l1.58-1.655l0.795-0.215l0.216-0.36h-0.79l0.285-0.29l-0.146-0.505l-0.36-0.07
	l0.076-0.43l-0.65-0.505h-0.506l-0.43-0.72l-1.295,0.36l-0.074,0.285l0.359-0.215l-0.07,0.505l0.146-0.43l0.146,0.43l0.359-0.215
	l0.141,0.285l-0.141,0.435l-0.359-0.075l-0.221,0.29l-0.645-0.145l-0.075-0.505l-0.646-0.5l-0.215-0.65l0.07-0.865l-0.29-0.07
	l-0.431-1.155l-0.649,0.146l0.22,0.215l-0.505-0.36l0.215-0.43l1.37-0.505l-0.22-0.575l0.146,0.36l-0.216,0.215l-0.36-0.07
	l-0.504,0.505l-0.576-0.22l-0.145,0.36l-0.215-0.14l-1.01,1.295l-0.215-0.145l-0.721,0.215l-0.72,0.865l0.075,0.29l-0.65,0.14
	l0.07,0.36l0.65-0.07l0.069,0.36h1.155v-0.215l0.574,0.72l0.431-0.215l-0.72,0.36l0.145,0.14l-0.43,0.435l-0.29,1.295l-0.935,0.935
	l-0.865-0.215l-0.07-0.29l-0.865,0.22l-0.289-0.36l-0.576,0.86v-0.431l-0.574-0.145l0.505-0.72l-0.72,0.215l0.865-1.22l-0.146-0.36
	l0.215,0.07l0.431-0.72h-0.646l-0.146,0.36l-0.505,0.07l-0.43-0.72l0.646-0.5l0.864-1.585l-0.575,0.36v0.36l-0.505,0.43h-0.575
	l-0.289,0.505l-0.07-0.505l-1.08,0.575l-0.36,0.359v0.72l-0.215-0.36l-0.505,0.505l-0.865-1.15l0.145-0.72l1.011-0.795l1.149-1.295
	l0.721-0.07l0.359-0.435l-3.31,1.155l-1.3,1.149l0.22-0.36l-0.435-0.505l-0.285-0.07l-0.865,0.72l-0.505-0.145l0.146-0.215
	l-0.721-0.07l-0.795,0.575v0.43l-1.08,0.36l1.155,0.72l0.575-0.505l-0.146,0.505l-0.864,0.215l-0.216-0.5h-1.295l0.865,0.86
	l-0.146,0.145l-0.574-0.43l-0.146,0.145l-0.215-0.505l-1.226,0.505l-0.935-1.515l-0.649-0.285l-0.506,0.285l0.221-0.215l-0.29-0.146
	l-0.505,0.146l-0.07-0.575v-0.575l-0.505-0.145l0.069,0.215l-0.359-0.79l-0.285-0.146l0.215-0.435l-0.359-0.14l-0.791,0.215
	l-0.289,0.575l-0.865,0.575l0.145,0.436l-0.359-0.436l-1.08,0.29l-0.936-0.145l-0.935-0.36l-0.795-0.79l-0.505,0.07l0.145,0.65
	l-0.789,0.5l-0.076,0.865l-0.43,0.435l0.359-0.435l-0.289-0.43l0.436-1.01l-0.216-0.505l-0.36-0.07v-0.29l0.36-0.07l-0.649-0.79
	l-0.865,0.5l0.215-0.43l-0.575-0.65l-1.585,1.01l0.074-0.29h-0.574l-0.436-0.5l-0.145-0.435l1.439-0.935l-0.285-0.36l-0.719,0.145
	l-0.291-0.36h-0.574l0.215,0.145l-0.936,0.646l-0.865-0.145l0.216,0.22l-0.72,0.645h-0.36v-0.36h-0.5l-0.649,0.935l0.289-1.58
	l-0.939,0.575l-0.285-0.36l-0.436,0.07l-0.07-0.646l-0.43,0.575l-0.649-0.075v-0.575l0.505-0.07l-0.215-0.36l-1.08,0.575
	l-1.439-0.505l-1.01-1.945l0.069-0.359l-2.085-2.445l-0.65,0.145l0.575,0.575l-0.216,0.575l-0.645-0.43l-1.439,1.655l-0.795-0.075
	l-0.43-0.5l-0.146-0.795l-1.011-0.935l-0.574-0.215l0.145-0.435l-0.289,0.075l0.219-0.359l-0.719-0.72l-0.361,0.07l-0.359,1.01
	l-0.289-0.075l0.145-1.08l-0.65-1.221l-0.215,0.72l-0.721,0.07l0.291,1.295l-1.301-1.87l-0.645-0.145l0.865,1.37l-0.36,1.295
	l0.284-0.29l0.506,0.505l-0.145,0.36l-0.506-0.146l0.221,0.795l-0.291-0.29l-0.069,0.36l-0.36-0.505l0.141-0.79l-0.215-0.29
	l-0.215,0.65l-0.291-0.29l0.146-1.51l-0.36,0.215l-0.145-0.65l-0.359,0.29l-0.646-1.005l-0.359,0.14l0.359,0.505l-0.434,0.07
	l0.289,0.58l-0.289,0.07v0.36l-0.431,0.07l-0.575-1.005l-0.074,0.72l-0.215-0.36l-0.285,0.215l-0.361-0.145l0.576,0.865
	l-0.795-0.146l0.074,0.36l-0.505,0.075v0.215l1.011-0.075l0.215-0.215l1.149,0.29l-0.36,0.575l0.721-0.215l0.215,0.359l-0.645,0.285
	l0.359,0.22l0.574-0.145l-0.215,0.36l0.576-0.145l0.289,0.215l-0.359,0.575l0.43,0.58l0.575,0.215l0.146-0.36l0.289,0.07l1.15-0.79
	l0.936,0.07l0.649-0.36l1.295,0.215l0.431,0.29l0.504-0.575l0.215,0.145l-0.139,0.215h0.43h-0.36l0.069,0.215l-0.43-0.069
	l-0.215,0.359l0.285,0.215l0.65-0.435l0.215,0.29l-0.285-0.215l-0.506,0.505l1.006,0.07l-0.141,0.069l0.215,0.29l-0.795,0.146
	l0.291,0.215l0.65-0.07l-1.08-0.075l0.934,0.795l0.865-0.36l0.07-0.36l-0.145,0.646l0.72-0.215v0.29l0.216-0.075l-0.285,0.075v0.575
	h-0.215l0.215-0.215h-0.721l-0.215,0.72l-0.795,0.86l0.65,0.36l0.215,0.795h0.65l-0.721,0.215l-0.29,2.375l0.72,0.435l0.07-0.359
	l0.221,0.72l0.859,0.215l-2.086-0.36l-0.648-0.505l-0.576,0.575l-0.935,0.29l-0.29,0.72l0.436,1.225l-0.221,0.43l-0.936-1.729
	l-0.864,0.29l-0.216,0.505l-0.145-1.08l-0.285-0.146l-2.234,1.655l0.22,0.29l-1.944-0.505l-0.506-0.72l-1.869,0.864l-3.676,0.146
	l-0.936-0.29l-0.864-0.865l-0.069-1.295l-0.436-0.65l-0.721,2.16l0.221,0.22l-0.359,0.14l-0.721-0.86l-0.721,0.36l0.07-0.505
	l-0.65,0.145l-0.284-0.29l-0.575,0.505l0.43,0.645l-0.145,1.225l0.145-0.215l0.36,0.29l-0.36,0.07l0.36,0.145l-0.146,0.575
	l-0.069-0.36l-1.8-0.36l-0.721,0.649v0.431l-0.359-0.07l0.285,0.285l-0.215,0.435l0.359,0.141l0.291-0.36l0.504,0.29l-0.145,0.29
	l0.574-0.22v0.649l0.65,0.146l0.07,0.285l-0.359-0.285l-0.361,0.215l-0.215-0.575l-0.215,0.43l-0.074-0.36l-0.576-0.07l0.576,0.646
	l-0.285-0.07l0.07,0.36l0.934,0.215l0.291,0.795l-0.145,0.14l-0.431-0.72l-0.649-0.07l0.215,0.865l-0.215-0.505l-0.215,0.215v-0.505
	l-0.216,0.22l0.216-0.36l-0.361-0.58l-0.289,0.075l0.215,0.36h-0.285v-0.65l-0.29,0.145l-0.069,0.935l-0.076-0.79l-0.574,0.36
	l0.504-0.505l0.07-0.935l-0.645,0.72l0.506-1.155l-1.945-0.72l-0.506,0.29l0.65,0.505l-0.58,0.215l0.29,0.575l-0.216-0.07
	l-0.289,0.865l0.074,0.43l0.361-0.215l0.215,0.43l-0.291,0.075l-0.07,0.575l-0.074-0.505l-0.43-0.07v0.215l0.504,0.646l0.506-0.215
	l0.645,0.29v0.215l0.36-0.29l-0.284,0.36l0.719-0.07l-0.219,0.07l0.219,0.145l-0.359-0.145l-0.221,0.505l-0.069-0.36l-0.79-0.285
	l0.215,0.5l-0.215,0.36l0.07-0.575l-0.43-0.07l-0.291,0.285l0.145-0.285h-0.359v-0.215l-0.505,0.07l0.069,0.36l-0.284-0.145
	l0.146-0.72l-0.361,0.145l0.141-0.215l-0.43-0.29l-0.291-0.07l-0.359,0.431h-0.215l0.074,0.215l0.361,0.65l-0.94-0.79l0.075,1.8
	l-0.29,1.15l-1.15,0.79l-0.505-0.07l-0.145-0.43h-0.215l-0.506,0.285l-0.145,0.435l0.22,0.43l-0.29,2.229l0.575,0.146l0.935,1.295
	l0.94,0.435l0.215,0.646l-0.649-0.43l-0.431,0.07l-1.01,1.44l-2.085,1.225l-1.01-0.215l-0.215-0.935l-0.36,0.505l0.145,0.285h-0.864
	l0.215,0.795l-0.506,1.365l-0.145,1.37l0.145,0.146l0.216-0.436l0.29,0.29l-0.215-0.215l-0.146,0.43l-1.005,1.01l-0.075,0.43
	l0.431,0.36v0.865l-1.295,0.865l-0.576-0.435l0.216,0.649l-0.36,0.72l0.65,0.285l-0.65-0.215l-0.215-0.505v1.515l-0.145,0.215
	v-0.575l-0.285,0.645l0.14-0.575l0.146-0.215l-0.506-0.29l0.36-0.5l-0.14-0.58l-0.221,0.22l-0.5-0.22l0.5,1.01l-0.285-0.07
	l-0.359,0.935l-0.65,0.575l0.075,0.65l-0.575,0.645l-0.145,1.226l0.645,0.07l0.65,1.01l0.29-0.29l-0.22-0.431l0.289,0.575l0.36-0.43
	l-0.215,0.505l0.43,0.575l0.65,0.145h0.5l0.505-0.72l-0.43,0.79l0.645,0.07l1.585-0.721l0.146-0.285l0.07,0.505l-0.431-0.075
	l-0.43,0.505l0.069,0.29h0.36l-1.149,0.575l-0.075,0.215h0.29h-0.506l-0.504,0.36h0.649l-0.575,0.145l0.285,0.36l0.65-0.436
	l-0.29,0.36l0.435,0.075l0.07,0.43l-0.146-0.43l-0.645,0.285l0.79,0.58l0.574-0.359l0.076,0.285l0.43-0.79l-0.146,0.215l0.146,0.29
	l-0.721,0.575l0.215,0.285l0.865-0.285l0.506-0.505l0.864-0.145l-0.435-0.145l-0.215-0.5h0.289h-0.22l0.075,0.285l0.285-0.069
	l-0.141,0.145l0.431,0.43l0.36-0.29l0.145-0.575l-0.215-0.07l0.285,0.215l0.074-0.29l-0.504,1.08l0.504,0.29l-0.435,0.07
	l-0.285-0.43l-0.939,0.36l0.939,0.79l-0.22,0.075l-0.575-0.65l-0.36,0.146l0.146,0.359l-0.29,1.37l0.145-1.515l-0.72,0.435
	l0.075-0.22l-0.359-0.215l-0.721,0.215l-0.359-0.07v0.215l-0.36-0.43l-0.22,0.215v0.505l0.725,0.285l-0.22,0.58l0.359,0.14
	l-0.215,0.36l0.146-0.36l-0.36-0.14l0.215-0.58l-0.215-0.14l-0.575,0.215l-0.074,0.72l0.289,0.146l-0.289-0.075v0.29l0.215,0.43
	l0.435-0.069l-0.36,0.215v0.43l0.575,0.72l-1.37,0.36l-0.07,0.36l0.431,0.29l-0.431-0.07l-0.215-0.435l0.646-0.575l-0.36-0.07
	l0.36-0.145l-0.935-1.01l-0.36,0.075l-0.07,0.43l0.285-0.72l-0.646-0.935l-1.154-0.29v0.36l0.58,0.29l0.43,0.865l-0.285,0.215
	l0.215-0.215l-0.359-0.72l-0.721-0.435l-0.359-0.79h-1.08l0.07,0.36l0.505,0.285l0.29-0.14l0.14,0.215l-0.14-0.215l-0.436,0.215
	l-0.43-0.215l-0.145,0.36l0.284,0.36l-0.5-0.65l0.07,1.226l0.72,0.285l-0.43,0.145l-0.29,0.29l0.215,0.43l0.94,0.075l0.215,0.285
	l-0.58-0.285l-0.43,0.215l-0.285-0.29l-0.146,0.795v-0.359l-0.145,0.285l0.215,0.435l-0.36,0.645l0.146,0.215l-0.216-0.215
	l0.431-0.645l-0.431-0.505l-0.359,1.005l-0.65,0.22l0.146,0.575l-0.215-0.575l0.575-0.29l-0.07-0.215l-0.075,0.215l0.146-0.43
	l0.504-1.01l-0.864-1.226l-0.29-0.215l-0.141,0.43l0.141-1.15l-0.5-0.575l-0.221,0.145l0.436,0.285l-0.29-0.215l-0.36,0.215
	l0.215,0.36l-0.284,0.29l0.14-0.935l-0.215-0.29l-3.525-0.431l-0.074,0.575l-0.07-0.575l-0.575-0.505l-1.08-0.075l0.505,0.36
	l-1.154-0.575l-0.36,0.215l0.075,0.146l-0.36-0.146l-1.66,0.58l1.515,0.86l-0.359,0.075l0.359,0.285l-0.289,0.22l0.435,0.5
	l0.215-0.215l-0.075,0.72l0.291,0.29l-1.73-1.945l0.435,1.226l0.72,0.285l0.146,0.36l-0.146-0.285h-0.504l0.215,0.36l-0.215-0.145
	v0.215l0.069,0.359l-0.36-0.07l-0.645-0.72l-0.215,0.215l-0.075-0.29l0.505,1.37l-0.215-0.43l-0.29,0.5l0.215-0.285l-0.215-0.36
	l-0.285,0.36l0.07-0.435l-0.65-1.005v0.575l-0.215-0.215l-0.36,0.215l0.36-0.43l-0.505,0.285l-0.43,0.935v0.36l0.649,0.795
	l-0.359-0.29l0.069,0.435l0.431,0.215l-0.07,0.215l-0.36-0.36v0.431l1.15,1.66l0.145,1.655l0.215,0.36h0.506l-0.43,0.285
	l-0.36-0.215l-0.436-2.015l-1.939-1.945l-0.36,0.795l0.43,0.5l0.07,0.65h-0.14l-0.146,1.225l-0.505,0.865l0.146,0.141l-0.936,0.145
	l0.575-0.505l0.43-1.005l-0.359-1.08l-0.72-0.29l0.72,0.145l0.359-0.29v-1.51l-0.43-1.08l0.43-0.29v-1.58l0.436-0.94h-0.65v0.22
	v-0.36l1.44-0.29l-0.215-1.226l-0.506-0.215l0.936,0.215l-0.07-0.575h-0.72l-1.01-0.865l-0.216,0.215v-0.36l-1.01-0.72l-0.43,0.58
	l-0.29-0.58l0.22-0.43l-0.865-0.72l-0.359,0.215l0.285-0.36l-0.141-0.43l-0.58,0.36l0.075-0.72l-0.505-0.146l-0.145-0.43
	l-0.36,0.285l0.36-0.505l-1.15-1.15l-0.359-0.79l-1.516-1.01l-0.43,0.215l0.145-0.43l-0.359,0.07l0.145-0.285h-0.29l-0.145,0.285
	l-0.07-0.285l-0.215,0.07l0.07-0.865l-0.505-0.43v-0.29l-0.285,0.36l-0.65-0.79l-0.43,0.145l0.36,0.36l-0.22,0.215l0.36,0.43
	l0.29-0.145l-0.215,0.145l-0.649-0.215l0.145-0.215l-0.649-0.215l-0.141-0.505l-0.435,0.07l-0.285,0.865l-0.29-0.29l0.07-0.575
	l-0.575,1.08l-0.36-0.07l0.075-0.36l-0.36-0.29l0.07-0.505l-0.505,0.29l0.215-0.935l-0.43,0.215v-0.575l-0.146,0.36l-0.069-0.215
	l-0.29,0.07l0.215-0.29l-0.285-0.07l-0.075-0.36l-0.07,0.215l-0.43-0.575l-0.649,0.07l0.43,0.29l-0.215,0.145l-0.646-0.29
	l-0.359,0.145l0.5,0.505h-0.431l-0.145,0.285l-0.285-0.575l-0.94,0.29l0.795,1.8l0.43-0.075l0.865,0.72l0.29-0.141l-0.505,0.285
	l-0.72-0.215l-0.145,0.215l-0.865-0.215l0.075,0.215l-0.436,0.146l-0.285-0.29v0.649l0.285,0.146l0.36-0.36l0.075,0.505l-0.36,0.215
	l-0.075,0.72l-0.285,0.215l-0.145-0.505l-0.575-0.215l0.14,1.225l-0.215,0.285l-0.36-0.07l0.145,0.865l-0.29-0.215l-0.359,0.215
	v-1.37l-0.575,0.215l-0.285-0.285l0.215-0.72l-0.505,0.43l-0.29-0.145l0.505-0.645l-0.145-0.505l1.01-0.935l0.145,0.145l-0.505-0.29
	l-0.505,0.43l-0.145,0.505l-0.575,0.075v-0.22l-0.645,0.436v0.505h-0.72l0.14,0.575l-0.36,0.07l-0.215,0.575l0.865,0.65l-0.65,0.145
	L200.101,236.724z"/>
<g display="none">
<path id="path9199" stroke="#000000" stroke-width="1.175" stroke-linecap="round" stroke-linejoin="round" d="M717.363,733.779
	l-0.72-0.58l-7.341,4.041l-0.149,1.869l-1.44,2.73l0.15,2.449l-0.721,1.59l0.57,0.57l-0.14,0.58"/>
<path id="path9201" stroke="#000000" stroke-width="1.175" stroke-linecap="round" stroke-linejoin="round" d="M707.573,747.029
	l1.01,2.01l0.86-1l-0.431,2.301l1.301,2.449l1.72,0.861l0.58-1.012"/>
<path id="path9203" stroke="#000000" stroke-width="1.175" stroke-linecap="round" stroke-linejoin="round" d="M712.613,752.638
	l0.72-0.719l0.86-3.881l-0.141-2.879l1.301,0.279l0.569-2.439"/>
<path id="path9205" stroke="#000000" stroke-width="1.175" stroke-linecap="round" stroke-linejoin="round" d="M715.923,743
	l-0.14-1.16l0.57-1.15"/>
<path id="path9207" stroke="#000000" stroke-width="1.175" stroke-linecap="round" stroke-linejoin="round" d="M716.354,740.689
	l2.31-1.73l2.16,0.871l1.01-0.58"/>
<path id="path9209" stroke="#000000" stroke-width="1.175" stroke-linecap="round" stroke-linejoin="round" d="M721.833,739.25
	l0.14-0.57l-2.59-1.16l-0.43-1.439l-0.72,0.15l-0.15-1.73l-0.72-0.721"/>
</g>
<g>
	<path fill="url(#colour1)" d="M132.569,347.444h15.05l18.2,49.98h-15.96l-2.1-7.14h-15.89l-2.24,7.14h-15.47L132.569,347.444z
		 M144.679,379.574l-4.48-15.4h-0.14l-4.83,15.4H144.679z"/>
	<path fill="url(#colour1)" d="M214.608,378.104c0,13.674-7.584,20.51-22.75,20.51c-15.214,0-22.82-6.836-22.82-20.51v-30.66h15.4v27.23
		c0,1.774,0.058,3.244,0.175,4.41c0.116,1.167,0.396,2.299,0.84,3.395c0.443,1.097,1.19,1.984,2.24,2.66
		c1.05,0.677,2.461,1.015,4.235,1.015c1.726,0,3.103-0.338,4.13-1.015c1.026-0.676,1.761-1.563,2.205-2.66
		c0.443-1.096,0.711-2.228,0.805-3.395c0.093-1.166,0.14-2.636,0.14-4.41v-27.23h15.4V378.104z"/>
	<path fill="url(#colour1)" d="M234.627,380.625c0,1.214,0.186,2.31,0.56,3.29c0.513,1.354,1.435,2.299,2.765,2.835
		c1.33,0.537,2.858,0.805,4.585,0.805c0.7,0,1.411-0.07,2.135-0.21c0.723-0.14,1.411-0.373,2.065-0.7
		c0.653-0.326,1.178-0.793,1.575-1.4c0.396-0.606,0.595-1.353,0.595-2.24c0-0.653-0.164-1.201-0.49-1.645
		c-0.327-0.443-0.875-0.863-1.645-1.26c-0.77-0.396-1.82-0.805-3.15-1.225c-1.33-0.42-3.162-0.956-5.495-1.61l-0.84-0.21
		c-2.707-0.793-4.865-1.481-6.475-2.065c-1.61-0.583-3.162-1.388-4.655-2.415c-1.494-1.026-2.695-2.345-3.605-3.955
		c-0.91-1.61-1.365-3.558-1.365-5.845c0-2.753,0.548-5.191,1.645-7.315c1.096-2.123,2.59-3.861,4.48-5.215
		c1.89-1.353,4.036-2.356,6.44-3.01c2.403-0.653,4.935-0.98,7.595-0.98c2.846,0,5.483,0.292,7.91,0.875
		c2.426,0.584,4.596,1.517,6.51,2.8c1.913,1.284,3.441,2.975,4.585,5.075c1.143,2.1,1.761,4.62,1.855,7.56h-14.56
		c0-0.093,0-0.21,0-0.35c0.046-0.186,0.07-0.303,0.07-0.35c0-1.353-0.63-2.45-1.89-3.29c-0.607-0.42-1.307-0.735-2.1-0.945
		c-0.794-0.21-1.61-0.315-2.45-0.315c-1.4,0-2.672,0.245-3.815,0.735c-1.144,0.49-1.715,1.365-1.715,2.625
		c0.093,1.26,0.933,2.229,2.52,2.905c1.586,0.677,4.083,1.435,7.49,2.275c2.146,0.514,3.64,0.887,4.48,1.12
		c2.006,0.56,3.815,1.19,5.425,1.89c1.61,0.7,3.068,1.599,4.375,2.695c1.306,1.097,2.345,2.462,3.115,4.095
		c0.77,1.634,1.155,3.547,1.155,5.74c0,3.127-0.654,5.799-1.96,8.015c-1.307,2.217-3.057,4.002-5.25,5.355
		c-2.194,1.354-4.655,2.334-7.385,2.94s-5.565,0.91-8.505,0.91c-1.867,0-3.979-0.222-6.335-0.665
		c-2.357-0.444-4.737-1.295-7.14-2.555c-2.404-1.26-4.41-3.103-6.02-5.53c-1.61-2.426-2.439-5.506-2.485-9.24H234.627z"/>
	<path fill="url(#colour1)" d="M269.067,347.444h27.37c3.126,0,5.751,0.385,7.875,1.155c2.123,0.77,3.768,1.785,4.936,3.045
		c1.166,1.26,1.982,2.602,2.449,4.025c0.467,1.424,0.7,2.859,0.7,4.305c0,2.38-0.524,4.329-1.575,5.845
		c-1.05,1.517-2.578,2.835-4.584,3.955c2.565,0.887,4.654,2.334,6.264,4.34c1.611,2.007,2.416,4.714,2.416,8.12
		c0,2.427-0.479,4.597-1.436,6.51c-0.957,1.914-2.264,3.512-3.92,4.795c-1.656,1.284-3.535,2.252-5.635,2.905
		c-2.1,0.654-4.27,0.98-6.51,0.98h-28.35V347.444z M284.467,366.904h8.12c1.726,0,3.033-0.303,3.92-0.91
		c0.886-0.606,1.33-1.68,1.33-3.22c0-1.213-0.455-2.088-1.365-2.625c-0.91-0.536-2.205-0.805-3.885-0.805h-8.12V366.904z
		 M284.467,385.524h9.03c1.82,0,3.278-0.35,4.375-1.05c1.096-0.7,1.645-1.936,1.645-3.71c0-3.033-1.797-4.55-5.39-4.55h-9.66
		V385.524z"/>
	<path fill="url(#colour1)" d="M320.937,347.444h29.33c4.619,0,8.492,1.249,11.619,3.745c3.127,2.497,4.69,6.009,4.69,10.535
		c0,2.754-0.642,5.309-1.925,7.665c-1.284,2.357-3.139,3.979-5.564,4.865c2.1,0.794,3.779,2.275,5.039,4.445s2.03,4.842,2.311,8.015
		c0.046,0.374,0.093,0.934,0.14,1.68c0.093,2.147,0.245,3.979,0.455,5.495c0.21,1.517,0.571,2.695,1.085,3.535h-15.4
		c-0.56-1.913-0.979-4.48-1.26-7.7v-0.07c-0.14-1.586-0.292-2.881-0.455-3.885c-0.164-1.003-0.479-1.948-0.945-2.835
		c-0.467-0.886-1.144-1.598-2.029-2.135c-0.887-0.536-2.055-0.805-3.5-0.805h-8.189v17.43h-15.4V347.444z M336.337,369.284h8.049
		c0.887,0,1.703-0.058,2.451-0.175c0.745-0.116,1.445-0.338,2.1-0.665c0.652-0.326,1.189-0.828,1.609-1.505
		c0.42-0.676,0.631-1.551,0.631-2.625c0-1.68-0.572-2.928-1.715-3.745c-1.145-0.816-3.115-1.225-5.916-1.225h-7.209V369.284z"/>
	<path fill="url(#colour1)" d="M372.806,347.444h41.37v12.81h-25.97v6.23h23.59v11.9h-23.59v6.23h26.74v12.81h-42.141V347.444z"/>
	<path fill="url(#colour1)" d="M422.086,347.444h25.27c4.013,0,7.466,0.677,10.36,2.03c2.893,1.354,5.238,3.209,7.035,5.565
		c1.796,2.357,3.103,5.005,3.92,7.945c0.816,2.94,1.225,6.067,1.225,9.38c0,7.887-2.135,14.035-6.404,18.445
		c-4.271,4.41-10.652,6.615-19.146,6.615h-22.26V347.444z M437.485,384.614h6.021c2.286,0,4.165-0.396,5.635-1.19
		c1.47-0.793,2.59-1.82,3.36-3.08c0.77-1.26,1.295-2.59,1.574-3.99c0.28-1.4,0.42-2.8,0.42-4.2c0-1.073-0.129-2.251-0.385-3.535
		c-0.257-1.283-0.794-2.566-1.609-3.85c-0.817-1.283-2.055-2.356-3.711-3.22c-1.656-0.863-3.791-1.295-6.404-1.295h-4.9V384.614z"/>
</g>
</g>
</svg>
