<?xml version="1.0" encoding="utf-8"?>
<!-- Generator: Adobe Illustrator 14.0.0, SVG Export Plug-In . SVG Version: 6.00 Build 43363)  -->
<!DOCTYPE svg PUBLIC "-//W3C//DTD SVG 1.0//EN" "http://www.w3.org/TR/2001/REC-SVG-20010904/DTD/svg10.dtd">
<svg version="1.0" id="Layer_1" xmlns="http://www.w3.org/2000/svg" xmlns:xlink="http://www.w3.org/1999/xlink" x="0px" y="0px"
	 width="192px" height="298px" viewBox="0 0 192 298" enable-background="new 0 0 192 298" xml:space="preserve">
<defs>
   <linearGradient id="colour1">
     <stop offset="100%" stop-color="red"/>
   </linearGradient> 
 </defs>
<g>
	<path fill="url(#colour1)" d="M66.58,29.01c1.13,5.69,5.82,9.68,9.96,13.34c2.43-1.57,4.87-3.12,7.3-4.68c-4.35-4-10.5-5.99-13.48-11.38
		c1.02-2.22,2-4.45,2.89-6.72C69.97,21.68,66.16,24.62,66.58,29.01"/>
	<path fill="url(#colour1)" d="M118.3,19.48c1.11,2.87,4,6.39,1.55,9.33c-3.49,3.56-8.229,5.55-11.959,8.86
		c2.479,1.54,4.969,3.09,7.449,4.64c3.971-3.77,8.82-7.56,9.87-13.25C125.68,24.54,121.721,21.55,118.3,19.48"/>
	<path fill="url(#colour1)" d="M89.33,38.48c-6.93,0.87-13.34,5.41-15.82,12.04c-1.31,3.71-3.3,7.91-1.92,11.84
		c5.47,1,10.92-0.59,16.38-0.9c7.32-0.46,14.719-0.41,21.959,0.88c2.971,0.4,6.01,1.05,9.01,0.52c2.041-0.21,1.19-2.49,1.19-3.82
		c-0.79-6.28-2.63-13.32-8.3-16.94C105.2,37.91,96.9,37.67,89.33,38.48"/>
	<path fill="url(#colour1)" d="M87.39,64.42c-10.97,0.94-21.98,3.18-32,7.9c-9.25,4.43-18.02,11.2-22.3,20.77
		c-2.16,5.09-3.03,11.65,0.51,16.33c2.89,3.78,8.21,3.03,12.38,3.59c15.42,0.87,30.09,6.76,42.98,15.03
		c2.78,1.22,5.77,4.53,8.96,2.87c4-1.84,7.62-4.37,11.5-6.43c11.16-6.3,23.76-9.97,36.54-10.83c3.56-0.42,7.521-0.01,10.66-2.03
		c4.55-3.56,4.521-10.29,2.899-15.33c-3.64-11.2-13.479-19.13-23.799-24.02C120.68,65.44,103.779,63.28,87.39,64.42"/>
	<path fill="url(#colour1)" d="M41.31,117.47c-3.81,0.52-5.89,4.33-7.39,7.47c-4.69,11.03-4.96,23.29-4.42,35.07
		c2.06,29.19,13.97,57.95,34.61,78.91c3.06,2.971,5.92,6.35,9.79,8.29c3.9,1.649,7.95-0.89,10.56-3.681
		c4.87-5.34,8.73-12.119,8.86-19.51c0.69-26.629-1.52-53.279,0.23-79.89c0.44-3.42-1.24-6.65-3.99-8.63
		c-9.73-7.73-21.48-12.54-33.39-15.79C51.31,118.57,46.35,117.14,41.31,117.47"/>
	<path fill="url(#colour1)" d="M147.34,117.43c-13.869,1.67-27.3,6.61-39.279,13.75c-3.511,2.32-7.42,4.61-9.48,8.41
		c-0.93,4.07-0.17,8.3-0.16,12.43c0.58,23.681-0.391,47.36-0.15,71.041c-0.17,8.289,4.291,16.01,10.09,21.629
		c2.961,3.061,8.131,4.301,11.531,1.19c22.129-18.479,36.18-45.63,40.779-73.92c2.18-13.5,2.58-27.53-0.87-40.86
		c-1.319-4.48-2.899-9.27-6.54-12.4C151.641,117.26,149.359,117.31,147.34,117.43"/>
	<path fill="url(#colour1)" d="M13.38,156.08c-0.85,6.779-0.89,14.13,2.46,20.29c1.95-3.351,3.33-6.99,5.14-10.399
		c1.7-3.281,6.57-4.461,6.54-8.591c0.56-6.229,0.63-12.55-0.51-18.72C19.7,141.45,14.44,148.37,13.38,156.08"/>
	<path fill="url(#colour1)" d="M165,138.66c-1.16,6.97-1.37,14.24,0,21.189c1.95,2.43,5,3.91,6.391,6.791c1.6,3.25,2.969,6.619,4.779,9.77
		c3.33-6.189,3.34-13.551,2.46-20.35C177.529,148.36,172.279,141.48,165,138.66"/>
	<path fill="url(#colour1)" d="M23.28,193.109c-1.41,6.73-1.2,13.681-0.83,20.511c0.91,9.101,2.96,18.659,8.91,25.899
		c1.65,1.92,4.29,4.44,6.99,2.91c2.93-2.57,3.47-6.82,3.9-10.479c0.46-9.71-3.6-18.87-7.78-27.4c-2.74-5.271-4.4-11.03-7.51-16.12
		C25.56,189.811,23.63,191.01,23.28,193.109"/>
	<path fill="url(#colour1)" d="M165.09,189.1c-2.97,2.76-3.49,7.101-5.279,10.59c-4.99,10.771-11.431,22.031-9.811,34.36
		c0.68,3.25,1.311,7.851,5.061,8.9c3.84-0.271,6.119-4.011,8.069-6.91c6.63-11.54,7.28-25.431,6.32-38.41
		C168.99,194.52,168.971,189.9,165.09,189.1"/>
	<path fill="url(#colour1)" d="M88.81,245.08c0.95,3.4,5.39,3.24,8.23,3.279c2.39,0,6.44-1.069,5.569-4.27
		c-1.029-4.6-4.229-8.279-6.779-12.109C93.18,236.109,89.39,240.01,88.81,245.08z"/>
	<g id="_x23_231f20ff">
		<path fill="url(#colour1)" d="M38.48,0h2.78c-2,2.79-4.26,5.47-5.55,8.69c-1.16,3.35-0.91,6.96-1.09,10.44
			c-1.36,1.49-4.01,2.53-3.89,4.87c0.58,3.39,2.99,6.03,4.89,8.77c-1.71,0.56-3.41,1.12-5.12,1.7c1.54,4.29,4.02,8.14,7.12,11.47
			c-1.41,1.37-3.4,2.42-4.19,4.25c0.03,3.81,3.92,6.97,7.58,7.12c1.87-0.67,3.54-1.8,5.27-2.77c-0.63,3.11-0.78,6.49-2.54,9.23
			c-3.49,4.71-8.59,7.83-13.03,11.55c-3.46-2.48-7.03-4.78-10.7-6.93c2.67-4.07,5.53-8.38,5.71-13.41
			c0.74-12.13-3.14-24.36-0.14-36.38C27.3,11.01,32.34,4.6,38.48,0z"/>
		<path fill="url(#colour1)" d="M150.561,0h2.92c6.42,4.72,11.539,11.49,13.119,19.41c2.73,12.08-1.25,24.3-0.24,36.45
			c0.311,4.67,3.08,8.59,5.67,12.31c-3.649,2.33-7.26,4.71-10.84,7.14c-4.069-3.44-8.59-6.41-12.119-10.44
			c-2.57-2.77-2.631-6.73-3.15-10.26c2.18,1.03,4.33,3.46,6.939,2.39c2.851-1,5.75-3.58,5.721-6.8c-0.801-1.83-2.77-2.9-4.17-4.29
			c3.07-3.32,5.51-7.16,7.109-11.4c-1.729-0.59-3.449-1.17-5.18-1.74c1.93-2.75,4.391-5.39,4.95-8.82c-0.04-2.38-2.63-3.5-4.06-5.04
			c-0.08-3.19,0.189-6.46-0.67-9.56C155.33,5.81,152.971,2.81,150.561,0z"/>
		<path fill="url(#colour1)" d="M66.58,29.01c-0.42-4.39,3.39-7.33,6.67-9.44c-0.89,2.27-1.87,4.5-2.89,6.72
			c2.98,5.39,9.13,7.38,13.48,11.38c-2.43,1.56-4.87,3.11-7.3,4.68C72.4,38.69,67.71,34.7,66.58,29.01z"/>
		<path fill="url(#colour1)" d="M118.3,19.48c3.421,2.07,7.38,5.06,6.91,9.58c-1.05,5.69-5.899,9.48-9.87,13.25
			c-2.48-1.55-4.97-3.1-7.449-4.64c3.729-3.31,8.469-5.3,11.959-8.86C122.3,25.87,119.41,22.35,118.3,19.48z"/>
		<path fill="url(#colour1)" d="M89.33,38.48c7.57-0.81,15.87-0.57,22.5,3.62c5.67,3.62,7.51,10.66,8.3,16.94c0,1.33,0.851,3.61-1.19,3.82
			c-3,0.53-6.039-0.12-9.01-0.52c-7.24-1.29-14.64-1.34-21.959-0.88c-5.46,0.31-10.91,1.9-16.38,0.9
			c-1.38-3.93,0.61-8.13,1.92-11.84C75.99,43.89,82.4,39.35,89.33,38.48z"/>
		<path fill="url(#colour1)" d="M87.39,64.42c16.389-1.14,33.29,1.02,48.331,7.85c10.319,4.89,20.159,12.82,23.799,24.02
			c1.621,5.04,1.65,11.77-2.899,15.33c-3.14,2.02-7.101,1.61-10.66,2.03c-12.78,0.86-25.38,4.53-36.54,10.83
			c-3.88,2.06-7.5,4.59-11.5,6.43c-3.19,1.66-6.18-1.65-8.96-2.87c-12.89-8.27-27.56-14.16-42.98-15.03
			c-4.17-0.56-9.49,0.19-12.38-3.59c-3.54-4.68-2.67-11.24-0.51-16.33c4.28-9.57,13.05-16.34,22.3-20.77
			C65.41,67.6,76.42,65.36,87.39,64.42 M92.11,70.91c-8.65,0.66-17.39,2.2-25.23,6.06c-6.17,3.021-11.95,7.62-14.83,14.01
			c-1.59,3.61-2.36,8.31,0.34,11.59c1.8,2.35,5.02,2.04,7.64,2.45c9.44,0.54,18.75,3.24,26.88,8.1c3,1.64,5.79,3.81,9.11,4.77
			c3.52-1.09,6.509-3.37,9.759-5.06c8.031-4.53,17.15-6.88,26.33-7.36c2.451-0.26,5.391-0.25,7.111-2.33
			c2.309-2.63,1.84-6.55,1.159-9.71c-2.21-6.98-8.03-12.2-14.29-15.62C115.71,72.38,103.71,70.51,92.11,70.91z"/>
		<path fill="url(#colour1)" d="M9.68,70.75c6.97-2.96,15.44,1.33,19,7.62c2.31,3.94,0.73,8.57-0.7,12.51
			c-2.78,7.08-2.51,15.34,1.01,22.11c1.13,2.52,2.75,4.95,3,7.76c-1.69,3.78-4.27,7.18-7.27,10.03c-1.69,1.8-4.3,0.55-6.04-0.48
			C8.66,123.81,2.49,112.78,0,101.3V88.85C2.03,82.42,3.51,74.57,9.68,70.75z"/>
		<path fill="url(#colour1)" d="M163.33,78.36c3.561-6.3,12.029-10.56,19.01-7.61c6.141,3.83,7.6,11.66,9.66,18.07v12.45
			c-2.46,11.49-8.66,22.51-18.67,29c-1.73,1.04-4.37,2.34-6.04,0.51c-3.011-2.86-5.61-6.26-7.319-10.05
			c0.239-2.82,1.92-5.23,3.049-7.75c3.371-6.51,3.791-14.43,1.271-21.29C162.82,87.48,160.84,82.6,163.33,78.36z"/>
		<path fill="url(#colour1)" d="M41.31,117.47c5.04-0.33,10,1.1,14.86,2.24c11.91,3.25,23.66,8.06,33.39,15.79
			c2.75,1.98,4.43,5.21,3.99,8.63c-1.75,26.61,0.46,53.261-0.23,79.89c-0.13,7.391-3.99,14.17-8.86,19.51
			c-2.61,2.791-6.66,5.33-10.56,3.681c-3.87-1.94-6.73-5.319-9.79-8.29c-20.64-20.96-32.55-49.72-34.61-78.91
			c-0.54-11.78-0.27-24.04,4.42-35.07C35.42,121.8,37.5,117.99,41.31,117.47 M52.25,125.55c-0.57,31.39,1.05,62.8,4.6,93.979
			c0.87,2.99,3.72,4.82,5.69,7.08c-3.46-33.239-5.13-66.649-4.97-100.069C55.81,126.12,54.04,125.77,52.25,125.55 M61.81,128.35
			c0.23,33.95,1.47,67.94,5.24,101.69c0.77,2.16,3.35,2.81,5.05,4.06c-2.94-34.35-4.73-68.8-4.7-103.28
			C65.54,129.99,63.68,129.17,61.81,128.35 M38.56,165.971c-0.2,16.85,3.72,34.09,13.24,48.18c-0.34-10.101-2.03-20.09-2.38-30.19
			c-1.38-17.71-1.65-35.48-1.93-53.24C41.3,141.36,38.78,153.76,38.56,165.971 M71.65,133.05c0.28,33.851,1.53,67.72,4.69,101.421
			c1.44-0.521,2.89-1.031,4.34-1.531c-1.74-32.27-3.41-64.56-3.48-96.89C75.35,135.06,73.5,134.05,71.65,133.05 M81.48,138.75
			c0.26,30.33,1.38,60.65,3.2,90.93c1.58-1.729,3.12-3.479,4.68-5.22c-0.95-12.46-0.7-24.97-1.49-37.44
			c-0.6-14.89-0.18-29.81-1.12-44.689C84.99,141.14,83.24,139.94,81.48,138.75z"/>
		<path fill="url(#colour1)" d="M147.34,117.43c2.02-0.12,4.301-0.17,5.92,1.27c3.641,3.13,5.221,7.92,6.54,12.4
			c3.45,13.33,3.05,27.36,0.87,40.86c-4.6,28.29-18.65,55.44-40.779,73.92c-3.4,3.11-8.57,1.87-11.531-1.19
			c-5.799-5.619-10.26-13.34-10.09-21.629c-0.24-23.681,0.73-47.36,0.15-71.041c-0.01-4.129-0.77-8.359,0.16-12.43
			c2.061-3.8,5.97-6.09,9.48-8.41C120.04,124.04,133.471,119.1,147.34,117.43 M131.641,127.45c1.43,32.5,0.709,65.04-0.49,97.54
			c1.729-1.92,3.459-3.85,5.17-5.79c1.68-31.15,1.84-62.38,0.88-93.57C135.34,126.21,133.49,126.82,131.641,127.45 M122.189,131.84
			c0.601,33.75,0.881,67.54-0.439,101.28c1.66-1.25,3.3-2.5,4.93-3.78c1.061-17.43,1.051-34.9,1.541-52.359
			c0.18-15.931-0.49-31.84-0.771-47.771C125.7,130.09,123.939,130.96,122.189,131.84 M141.641,127.07
			c-0.23,10.33,0.819,20.64,0.59,30.97c0.08,18.36-0.57,36.72-1.551,55.05c2.811-4.27,5.45-8.73,6.971-13.64
			c6.289-19.04,6.92-40.101,1.01-59.31C147.27,135.34,144.721,130.97,141.641,127.07 M112.57,137.17
			c0.1,13.27,0.09,26.551,0.6,39.82c0.18,18.84-0.01,37.689,0.01,56.529c1.5,0.34,3,0.681,4.51,1.01
			c1.11-33.42,1.141-66.889,0.07-100.309C116.061,135.26,114.279,136.16,112.57,137.17 M103.26,144.08
			c-0.439,2.95-0.09,5.949-0.07,8.93c0.36,20.99,0.311,41.99,1,62.98c0.15,3.5-0.279,7.08,0.451,10.52
			c1.17,1.811,2.969,3.08,4.51,4.561c0.149-30.37-0.521-60.73-0.84-91.09C106.6,141.31,104.74,142.48,103.26,144.08z"/>
		<path fill="url(#colour1)" d="M13.38,156.08c1.06-7.71,6.32-14.63,13.63-17.42c1.14,6.17,1.07,12.49,0.51,18.72
			c0.03,4.13-4.84,5.31-6.54,8.591c-1.81,3.409-3.19,7.049-5.14,10.399C12.49,170.21,12.53,162.859,13.38,156.08z"/>
		<path fill="url(#colour1)" d="M165,138.66c7.279,2.82,12.529,9.7,13.63,17.4c0.88,6.799,0.87,14.16-2.46,20.35
			c-1.811-3.15-3.18-6.52-4.779-9.77c-1.391-2.881-4.44-4.361-6.391-6.791C163.63,152.9,163.84,145.63,165,138.66z"/>
		<path fill="url(#colour1)" d="M23.28,193.109c0.35-2.1,2.28-3.299,3.68-4.68c3.11,5.09,4.77,10.85,7.51,16.12
			c4.18,8.53,8.24,17.69,7.78,27.4c-0.43,3.659-0.97,7.909-3.9,10.479c-2.7,1.53-5.34-0.99-6.99-2.91
			c-5.95-7.24-8-16.799-8.91-25.899C22.08,206.79,21.87,199.84,23.28,193.109z"/>
		<path fill="url(#colour1)" d="M165.09,189.1c3.881,0.801,3.9,5.42,4.36,8.53c0.96,12.979,0.31,26.87-6.32,38.41
			c-1.95,2.899-4.229,6.64-8.069,6.91c-3.75-1.05-4.381-5.65-5.061-8.9c-1.62-12.329,4.82-23.59,9.811-34.36
			C161.6,196.2,162.12,191.859,165.09,189.1z"/>
		<path fill="url(#colour1)" d="M88.81,245.08c0.58-5.07,4.37-8.971,7.02-13.1c2.55,3.83,5.75,7.51,6.779,12.109
			c0.871,3.2-3.18,4.27-5.569,4.27C94.2,248.32,89.76,248.48,88.81,245.08z"/>
		<path fill="url(#colour1)" d="M31.27,245.27c4.87,1.971,10.1,2.91,15.35,2.25c0.59,2.291,0.91,4.701,2.03,6.82
			c1.41,1.42,3.21,2.36,4.87,3.439c-0.51,3.441-2.14,7.471,0.17,10.601c1.93,1.729,4.57,2.28,6.91,3.25
			c-0.37,2.41-0.85,4.841-0.71,7.3c1.59,1.85,4.06,2.58,6.15,3.74c0.75,2.811,1.05,5.93,2.97,8.26c2.1,2.57,4.64,4.75,7.01,7.07
			h-2.66c-9.51-6.41-17.16-15.141-24.4-23.93C42.06,265.16,35.08,255.99,31.27,245.27z"/>
		<path fill="url(#colour1)" d="M145.32,247.52c5.289,0.641,10.56-0.27,15.459-2.27c-1.549,3.84-3.119,7.689-5.319,11.221
			c-6.989,11.329-15.26,21.889-24.681,31.309c-3.76,3.711-7.649,7.351-12.109,10.221h-2.9c2.57-2.17,5.101-4.42,7.211-7.05
			c1.899-2.341,2.229-5.45,2.99-8.271c2.1-1.14,4.489-1.939,6.149-3.74c0.13-2.449-0.341-4.879-0.72-7.279
			c2.35-0.99,5.02-1.54,6.93-3.32c2.279-3.119,0.65-7.13,0.141-10.561c1.659-1.09,3.449-2.039,4.879-3.439
			C144.49,252.24,144.75,249.8,145.32,247.52z"/>
	</g>
	<g id="_x23_b5b9bfff">
		<path fill="url(#colour1)" d="M92.11,70.91c11.6-0.4,23.6,1.47,33.98,6.9c6.26,3.42,12.08,8.64,14.29,15.62
			c0.681,3.16,1.149,7.08-1.159,9.71c-1.721,2.08-4.66,2.07-7.111,2.33c-9.18,0.48-18.299,2.83-26.33,7.36
			c-3.25,1.69-6.239,3.97-9.759,5.06c-3.32-0.96-6.11-3.13-9.11-4.77c-8.13-4.86-17.44-7.56-26.88-8.1
			c-2.62-0.41-5.84-0.1-7.64-2.45c-2.7-3.28-1.93-7.98-0.34-11.59c2.88-6.39,8.66-10.99,14.83-14.01
			C74.72,73.11,83.46,71.57,92.11,70.91z"/>
		<path fill="url(#colour1)" d="M52.25,125.55c1.79,0.22,3.56,0.57,5.32,0.99c-0.16,33.42,1.51,66.83,4.97,100.069
			c-1.97-2.26-4.82-4.09-5.69-7.08C53.3,188.35,51.68,156.939,52.25,125.55z"/>
		<path fill="url(#colour1)" d="M131.641,127.45c1.85-0.63,3.699-1.24,5.56-1.82c0.96,31.19,0.8,62.42-0.88,93.57
			c-1.711,1.94-3.44,3.87-5.17,5.79C132.35,192.49,133.07,159.95,131.641,127.45z"/>
		<path fill="url(#colour1)" d="M61.81,128.35c1.87,0.82,3.73,1.64,5.59,2.47c-0.03,34.48,1.76,68.93,4.7,103.28
			c-1.7-1.25-4.28-1.899-5.05-4.06C63.28,196.29,62.04,162.3,61.81,128.35z"/>
		<path fill="url(#colour1)" d="M122.189,131.84c1.75-0.88,3.511-1.75,5.261-2.63c0.28,15.93,0.95,31.84,0.771,47.771
			c-0.49,17.459-0.48,34.93-1.541,52.359c-1.63,1.28-3.27,2.53-4.93,3.78C123.07,199.38,122.79,165.59,122.189,131.84z"/>
		<path fill="url(#colour1)" d="M141.641,127.07c3.08,3.9,5.629,8.27,7.02,13.07c5.91,19.209,5.279,40.27-1.01,59.31
			c-1.521,4.909-4.16,9.37-6.971,13.64c0.98-18.33,1.631-36.689,1.551-55.05C142.46,147.71,141.41,137.4,141.641,127.07z"/>
		<path fill="url(#colour1)" d="M38.56,165.971c0.22-12.211,2.74-24.611,8.93-35.25c0.28,17.76,0.55,35.53,1.93,53.24
			c0.35,10.101,2.04,20.09,2.38,30.19C42.28,200.061,38.36,182.82,38.56,165.971z"/>
		<path fill="url(#colour1)" d="M71.65,133.05c1.85,1,3.7,2.01,5.55,3c0.07,32.33,1.74,64.62,3.48,96.89c-1.45,0.5-2.9,1.011-4.34,1.531
			C73.18,200.77,71.93,166.9,71.65,133.05z"/>
		<path fill="url(#colour1)" d="M112.57,137.17c1.709-1.01,3.49-1.91,5.189-2.95c1.07,33.42,1.04,66.889-0.07,100.309
			c-1.51-0.329-3.01-0.67-4.51-1.01c-0.02-18.84,0.17-37.689-0.01-56.529C112.66,163.721,112.67,150.439,112.57,137.17z"/>
		<path fill="url(#colour1)" d="M81.48,138.75c1.76,1.19,3.51,2.39,5.27,3.58c0.94,14.88,0.52,29.8,1.12,44.689
			c0.79,12.471,0.54,24.98,1.49,37.44c-1.56,1.74-3.1,3.49-4.68,5.22C82.86,199.4,81.74,169.08,81.48,138.75z"/>
		<path fill="url(#colour1)" d="M103.26,144.08c1.48-1.6,3.34-2.77,5.051-4.1c0.319,30.36,0.989,60.72,0.84,91.09
			c-1.541-1.48-3.34-2.75-4.51-4.561c-0.73-3.439-0.301-7.02-0.451-10.52c-0.689-20.99-0.64-41.99-1-62.98
			C103.17,150.029,102.82,147.03,103.26,144.08z"/>
	</g>
</g>
</svg>
