<svg xmlns:rdf="http://www.w3.org/1999/02/22-rdf-syntax-ns#" xmlns="http://www.w3.org/2000/svg" enable-background="new 0 0 339.97 339.971" xml:space="preserve" height="340px" width="340px" version="1.1" y="0px" x="0px" xmlns:cc="http://creativecommons.org/ns#" xmlns:dc="http://purl.org/dc/elements/1.1/" viewBox="0 0 339.97 339.971"><metadata><rdf:RDF><cc:Work rdf:about=""><dc:format>image/svg+xml</dc:format><dc:type rdf:resource="http://purl.org/dc/dcmitype/StillImage"/><dc:title/></cc:Work></rdf:RDF></metadata>
<defs>
   <linearGradient id="colour1">
     <stop stop-color="red" offset="0"/>
   </linearGradient>
</defs>
<g groupmode="layer" label="Layer 1" transform="translate(-202.06233,-356.19617)">
	<g transform="translate(2.1093749e-7,286.52215)">
			<path stroke-linecap="square" rx="11.898944" ry="26.772625" stroke="#000" d="M384,370c0,14.8-5.33,26.8-11.9,26.8s-11.9-12-11.9-26.8,5.33-26.8,11.9-26.8c7,1,12,13,12,27z" cy="386.0213" cx="378.21643" type="arc" fill="url(#colour1)"/>
		<g transform="translate(89.086316,0)">
			<path d="M159,350h249l-2.98-20.2-28.5-39.7c-48.5-39.8,11.5-109-70.1-110,0,0,3.76-52-22.8-50.2-26.5-1.81-22.8,50.2-22.8,50.2-81.6,1.08-21.6,70.6-70.1,110l-28.5,39.7-3,20z" stroke="#000" nodetypes="cccccccccc" fill="url(#colour1)"/>
				<polygon points="306,180,260,180,260,179,306,179,306,180"/>
				<polygon points="376,291,190,291,190,290,376,290,376,291"/>
				<polygon points="404,330,162,330,162,329,404,329,404,330"/>
		</g>
			<path stroke-linecap="square" rx="24.435331" ry="24.435331" stroke="#000" d="M396,107c0,13.5-10.9,24.4-24.4,24.4s-24.4-10.9-24.4-24.4c0-13.5,10.9-24.4,24.4-24.4s24,10.5,24,24.4z" cy="111.70815" cx="289.61179" type="arc" fill="url(#colour1)"/>
	</g>
</g>
</svg>
