<?xml version="1.0" encoding="utf-8"?>
<!-- Generator: Adobe Illustrator 13.0.0, SVG Export Plug-In . SVG Version: 6.00 Build 14948)  -->
<!DOCTYPE svg PUBLIC "-//W3C//DTD SVG 1.1//EN" "http://www.w3.org/Graphics/SVG/1.1/DTD/svg11.dtd">
<svg version="1.1" id="Layer_1" xmlns="http://www.w3.org/2000/svg" xmlns:xlink="http://www.w3.org/1999/xlink" x="0px" y="0px"
	 width="303.386px" height="226.468px" viewBox="0 0 303.386 226.468" enable-background="new 0 0 303.386 226.468"
	 xml:space="preserve">
<g id="Campion">
	 <defs>
   <linearGradient id="colour0"> 
     <stop offset="100%" stop-color="#E31937"/> 
   </linearGradient> 
   <linearGradient id="colour1"> 
     <stop offset="100%" stop-color="#FFFFFF"/> 
   </linearGradient> 
</defs>	 
	
		<rect x="109.638" y="80.111" display="inline" fill-rule="evenodd" clip-rule="evenodd" fill="url(#colour0)" width="91.765" height="114.118"/>
	<path id="Campion_Throughbreds" display="inline" fill="url(#colour1)" d="M201.922,168.269c0,0-6.5,3.25-10.5,5.25s-5-1.25-5-1.25
		c-2.75-12.25-8.25-25.25-8.25-25.25s-4-0.25-4.25,0.5s-3.25,6.75-13.25,6.75s-15.5,4.75-16,7.5s-4.75,4.75-4.75,4.75
		c-14.25,0.5-13.75-5.25-14.25-9.75s8.25-15.5,10.75-23s18-27,18-27c-1.75-2-1.75-14.25-1.75-14.25c6.5,9.75,12.25,9,12.25,9
		c-0.75-7.25,2-11.5,2-11.5c2.5,11,8.75,12.25,8.75,12.25c17.75-1,25,1.75,25,1.75v-14c0,0,0.205,0.033,0.572,0.104
		c-9.011-5.801-19.801-9.187-31.406-9.187c-31.525,0-57.083,24.923-57.083,55.667c0,30.742,25.557,55.666,57.083,55.666
		c12.264,0,23.613-3.783,32.916-10.201c-0.551,0.16-0.832,0.201-0.832,0.201V168.269z"/>
</g>
</svg>