<?xml version="1.0" encoding="utf-8"?>
<!-- Generator: Adobe Illustrator 14.0.0, SVG Export Plug-In . SVG Version: 6.00 Build 43363)  -->
<!DOCTYPE svg PUBLIC "-//W3C//DTD SVG 1.0//EN" "http://www.w3.org/TR/2001/REC-SVG-20010904/DTD/svg10.dtd">
<svg version="1.0" xmlns="http://www.w3.org/2000/svg" xmlns:xlink="http://www.w3.org/1999/xlink" x="0px" y="0px" width="800px"
	 height="600px" viewBox="0 0 800 600" enable-background="new 0 0 800 600" xml:space="preserve">
<defs>
   <linearGradient id="colour1">
     <stop offset="100%" stop-color="red"/>
   </linearGradient>
 </defs>
<g id="Layer_2">
	<path fill="url(#colour1)" d="M347.5,162.5c0,0,5.5,88.5-5,93.5s10.5,20.5,17.5,17.5s86.5-22,92.5-18.5c0,0,2,52-18.5,78c0,0-21-3-20,0.5
		s8.5,9.5,11.5,13S432,360,438,358s28.5-41.5,31-62.5s4-31.5,6.5-35.5s12-7.5,8-11s-20-20-24-20s-6,5-6,5s-31,10-44.5,8.5l1-13.5
		c0,0,24-5.5,22-11.5s-9-7.5-13-7s-10,1-10,1v-11c0,0,30-6,21.5-15.5s-18-1-18-1s-2-16.5-1-19s25.5-7.5,25.5-9.5s-7-13-14-11.5
		s-23.5,9-44.5,12.5s15,19,15,19l-1,11l-16,7.5c0,0-5,8.5,3,10s11.5,1.5,11.5,1.5l-0.5,11.5c0,0-18,7-18,9.5s-10,11.5,4.5,11.5
		c0,0,2.5,3,13.5-4c0,0,4,4,3.5,12c0,0-8,9-33.5,7c0,0-0.5-74.5-0.5-80S354,164,347.5,162.5z"/>
	<path fill="url(#colour1)" d="M315.5,298c0,0,10.5,37.5,23,23S321,294.5,321,294.5S314.5,294.5,315.5,298z"/>
	<path fill="url(#colour1)" d="M383.5,282c0,0,10.5,37.5,23,23S389,278.5,389,278.5S382.5,278.5,383.5,282z"/>
	<path fill="url(#colour1)" d="M413.49,275.207c0,0,9.496,34.358,20.801,21.073C445.597,282.995,418.465,272,418.465,272
		S412.586,272,413.49,275.207z"/>
	<path fill="url(#colour1)" d="M351.498,287.941c0,0,10.299,36.871,22.56,22.614c12.261-14.257-17.165-26.056-17.165-26.056
		S350.517,284.5,351.498,287.941z"/>
</g>
</svg>
