<?xml version="1.0" encoding="utf-8"?>
<!-- Generator: Adobe Illustrator 14.0.0, SVG Export Plug-In . SVG Version: 6.00 Build 43363)  -->
<!DOCTYPE svg PUBLIC "-//W3C//DTD SVG 1.0//EN" "http://www.w3.org/TR/2001/REC-SVG-20010904/DTD/svg10.dtd">
<svg version="1.0" id="Layer_1" xmlns="http://www.w3.org/2000/svg" xmlns:xlink="http://www.w3.org/1999/xlink" x="0px" y="0px"
	 width="491px" height="333px" viewBox="0 0 491 333" enable-background="new 0 0 491 333" xml:space="preserve">
<defs>
   <linearGradient id="colour0">
     <stop offset="100%" stop-color="white"/>
   </linearGradient> 
   <linearGradient id="colour1">
     <stop offset="100%" stop-color="#1900BF"/>
   </linearGradient> 
 </defs>
<g id="_x23_ffffffff">
	<path fill="url(#colour1)" d="M243.61,59.5c6.08-1.63,11,3.53,14.701,7.6c-4.92,4.45-9.9,8.84-14.271,13.84
		c-3.04-3.6-6.29-7.02-9.13-10.77C232.3,64.33,239.24,60.97,243.61,59.5 M237.67,66c2.25,3.28,4.5,6.56,6.79,9.82
		c2.61-3.57,5.24-7.15,7.34-11.04C247.061,64.46,242.28,64.88,237.67,66z"/>
	<path fill="url(#colour1)" d="M194.84,68.94c15.24-6.28,35.17-2.51,44.84,11.49c3.78,4.9,2.85,11.48,2.95,17.24
		c-0.61,14.1-0.72,28.23-0.66,42.35c-4.28-0.03-8.53-0.05-12.8-0.08c0.78-17.49,2.61-36.71-6.84-52.34
		c-7.71-8.61-23.73-6.78-29.57,3.15c-3.52,6.39-3.21,14.07-1.23,20.87c2.75,9.66,6.61,19.11,12.28,27.45
		c-3.72-0.02-11.15-0.06-14.87-0.09c-7.92-15.48-14.05-33.25-10.49-50.78C181.06,79.97,187.38,73.13,194.84,68.94 M205.82,73.82
		c1.88,1.38,3.61,3.18,5.91,3.85c1.7-0.78,3.22-1.88,4.78-2.9c-0.66-1.42-1.31-2.83-1.96-4.25
		C211.58,71.51,208.65,72.52,205.82,73.82 M192.06,75.87c0.93,1.48,1.81,3,2.92,4.36c4.14,1.29,6.07-0.59,5.78-5.64
		C197.83,74.79,194.92,75.2,192.06,75.87 M222.8,75.91c-0.24,4.1,1.68,6.5,5.75,7.2c0.62-2.26,1.22-4.52,1.79-6.79
		C227.84,75.95,225.32,75.63,222.8,75.91 M184.54,84.15c-0.94,2.19-1.89,4.37-2.82,6.55c2.67,0.45,6.42,2.29,7.97-1
		C191.09,86.35,186.58,85.57,184.54,84.15 M227.77,91.16c2.63,1.37,5.35,2.63,8.3,3.13c0.6-2.67,0.43-5.42,0.37-8.13
		C233.38,87.53,230.5,89.22,227.77,91.16 M181.25,100.12c-0.56,2.24-1,4.51-1.3,6.81c2.71-0.41,5.4-0.94,8.07-1.53
		c0.02-1,0.06-2.99,0.07-3.99C185.84,100.85,183.57,100.28,181.25,100.12 M231.67,106.45c1.92,0,5.74,0,7.66,0
		c-0.33-1.26-0.99-3.79-1.32-5.05C235.07,97.82,230.39,102.63,231.67,106.45 M181.78,115.39c0.68,1.9,1.38,3.79,2.11,5.67
		c1.3-0.07,2.6-0.14,3.9-0.21c0.82-1.58,1.65-3.16,2.46-4.74c-1.12-1.12-2.24-2.24-3.36-3.36
		C185.19,113.63,183.49,114.52,181.78,115.39 M230.93,118.73c2.93,0.98,5.81,1.84,8.8,2.7c-0.1-2.56-0.05-5.17-0.8-7.65
		C235.4,113.55,232.96,116.25,230.93,118.73 M187.16,134.69c3.21-0.25,6.35-0.97,9.32-2.21c-1.45-2.23-2.97-4.42-4.53-6.58
		C189.79,128.48,188.21,131.48,187.16,134.69 M234.15,125.88c-0.88,2.93-1.72,5.86-2.45,8.84c2.48-0.14,4.97-0.27,7.38-0.91
		C239.89,129.72,237.15,127.56,234.15,125.88z"/>
	<path fill="url(#colour1)" d="M274.45,66.55c18-2.82,36.72,12.18,37.38,30.47c1.22,10.11-2.52,19.63-6.03,28.85
		c-2.069,5.2-4.55,10.24-7.739,14.85c-4.66-0.1-9.32,0.09-13.98,0.24c5.93-9.9,11.25-20.43,14.13-31.65
		c2.851-9-0.979-19.68-9.28-24.21c-5.59-2.18-12.39-3.27-17.81,0.08c-4.32,2.79-6.8,7.55-8.601,12.22
		c-4.49,13.72-4.529,28.33-4.629,42.61c-4.271-0.02-8.521-0.02-12.781-0.04c1.23-17.99,1.66-36.04,2.83-54.04
		c-0.06-5.17,4.461-8.86,8-11.98C260.939,69.21,267.8,67.39,274.45,66.55 M277.21,71c0.011,1.99,0.04,5.95,0.05,7.93
		c2.28-0.89,5.9-0.61,6.051-3.63C284.189,72,279.57,71.01,277.21,71 M261.029,77.06c0,1.29,0,2.57,0.011,3.85
		c1.37,0.78,2.739,1.56,4.12,2.33c1.439-1.43,2.869-2.86,4.29-4.31c-1.511-1.33-3.04-2.63-4.57-3.93
		C263.59,75.68,262.311,76.37,261.029,77.06 M290.2,79.12c1.71,1.97,3.47,3.9,5.29,5.79c1.47-2.34,2.91-4.76,3.58-7.48
		C296.061,77.84,293.109,78.33,290.2,79.12 M249.7,91.8c3.1,0.97,6.3,1.64,9.54,1.9c-0.471-2.64-1.03-5.25-1.641-7.86
		C254.51,87.18,251.87,89.26,249.7,91.8 M297.93,90.37c1.631,3.1,4.42,5.23,7.94,5.62c0.36-2.23,0.71-4.46,1.01-6.7
		C303.87,89.62,300.91,89.97,297.93,90.37 M250.1,101.42c0.4,2.34,0.84,4.71,1.961,6.83c2.049-0.47,4-1.35,5.76-2.51
		c-0.461-2.03-1.37-3.92-2.221-5.81C253.77,100.44,251.93,100.94,250.1,101.42 M301.91,103.59c-0.551,1.6-0.91,3.24-1.27,4.89
		c1.779,0.15,5.35,0.46,7.139,0.61c0.48-1.34,0.971-2.67,1.461-4C306.859,104.38,304.359,103.89,301.91,103.59 M249.24,115.44
		c-0.01,1.73-0.01,3.46,0.01,5.19c1.7,0.09,5.09,0.28,6.79,0.38c0.399-2.01,0.79-4.02,1.17-6.03
		C254.55,115.13,251.891,115.28,249.24,115.44 M297.2,118.11c-0.091,0.98-0.271,2.94-0.36,3.92c3.221,0.6,6.41-0.11,9.061-2.02
		c-1.32-1.43-2.641-2.85-3.961-4.28C300.35,116.52,298.779,117.32,297.2,118.11 M247.73,131.97c1.369,1.86,3.129,3.39,4.83,4.93
		c1.76-1.77,3.5-3.56,5.199-5.39c-1.85-1.27-3.67-2.65-5.76-3.49C250.279,128.96,248.891,130.4,247.73,131.97 M292.34,131.14
		c0.08,2.1,0.631,4.14,1.08,6.18c2.051-0.49,4.1-1,6.15-1.51c-0.541-2.39-1.18-4.76-1.92-7.09
		C295.689,128.96,293.63,129.53,292.34,131.14z"/>
	<path fill="url(#colour1)" d="M58.37,127.32c0.8-5.03,4.7-10.32,10.5-9.44c2.2,1.95,6.46,2.98,6.64,6.51c0.93,12.46-0.4,24.93-1.13,37.37
		c-0.91,9.051-0.76,18.51-4.3,27.051c-4.2-0.271-10.33,0.399-12.66-4.181c-2.67-6.18-1.59-13.18-1.33-19.65
		C56.94,152.43,56.39,139.77,58.37,127.32z"/>
	<path fill="url(#colour1)" d="M79.98,126.9c18.04-0.16,36.1,1.25,53.86,4.46c8.71,2.43,16.84,6.51,24.74,10.84
		c9.35,4.49,18.79,8.88,27.54,14.51c-0.04,0.93-0.11,2.79-0.15,3.72c-12.54,2.34-25.08-2.2-37.7-0.87c0.7,8.209,4.96,15.35,8.8,22.4
		c9.42,15.569,20,30.41,31.38,44.61c5.15,6.93,10.94,13.63,14.24,21.699c-3.62-0.14-7.71,1.19-10.86-1.06
		c-13.07-9.31-22.04-22.989-31.1-35.95c-4.32-5.939-7.02-13.73-14.13-17.01c1.46,8.54,8.26,14.4,12.88,21.3
		c5.95,8.96,13.04,17.091,19.13,25.95c-1.87,1.27-3.75,2.54-5.64,3.79c-5.9-3.66-11.77-7.62-16.17-13.09
		c-8.56-10.37-15.5-21.95-22.84-33.19c-1.45,0.07-2.9,0.141-4.34,0.221c7.14,11.89,15.29,23.109,23.19,34.51
		c-2.08,1.23-4.11,3.18-6.68,3.08c-3.99-0.58-6.91-3.61-9.71-6.23c-8.93-7.949-13.98-19.15-22.45-27.54
		c-1.01,0.41-2.02,0.82-3.02,1.24c5.33,7.51,11.13,14.681,16.63,22.069c-5.94,0.311-11.56-1.989-15.64-6.279
		c-12.84-12.73-18.82-31.74-34.91-41.25C77.85,161.52,78.21,144.15,79.98,126.9z"/>
	<path fill="url(#colour1)" d="M414.71,126.1c3.49,1.09,9.09-0.12,11.25,3.86c4.5,7.8,3.72,17.38,4.18,26.03
		c-0.189,11.76,0.67,23.76-1.84,35.35c-0.97,3.641-3.16,8.891-8.29,6.68c-5.189,1.98-7.72-3.539-8.43-7.43
		c-1.21-16.51-0.78-33.1-0.49-49.63C410.94,135.75,412.35,130.68,414.71,126.1z"/>
	<path fill="url(#colour1)" d="M358.439,134.61c16.48-1.24,33.021-0.49,49.541-0.6c-0.15,17.01,0.489,34.03-0.061,51.03
		c-0.09,3.17-3.82,4.3-5.64,6.319c-12.751,9.48-19.15,24.641-30.53,35.41c-4.1,3.91-9.98,4.9-15.41,5.311
		c5.35-7.53,11.82-14.189,17.09-21.79c-1.47-0.11-2.93-0.21-4.38-0.31c-10.521,12.51-19.829,28.52-36.62,32.97
		c-0.33-2.15-0.97-4.31-0.729-6.49c7.09-11.36,18.85-20.181,22.7-33.33c-4.82,2.5-7.67,7.261-10.92,11.39
		c-6.721,9.15-13.53,18.34-21.78,26.19c-4.271,4.14-9.94,6.64-15.82,7.399c0.649-3.399,1.11-7.029,3.601-9.639
		c9.83-12.021,18.89-24.641,28.66-36.711c-1.061-0.65-2.121-1.289-3.181-1.93c-11.5,12.38-19.56,27.57-31.81,39.32
		c-4.23,4.02-8.43,8.529-14.061,10.57c-3.22,0.799-6.5,1.18-9.779,1.59c2.83-7.531,8.229-13.621,13.039-19.931
		c11.211-13.521,23.461-26.36,32.471-41.53c4.02-6.439,8.869-12.52,11.06-19.92c1.38-2.479,0.5-6.87-2.83-7.09
		c-11.409-1.9-23.13,5.96-34.18,0.6c0.05-0.87,0.149-2.61,0.2-3.48c9.369-5.56,18.99-10.76,29.039-15.02
		C337.83,140.52,347.67,135.76,358.439,134.61z"/>
	<path fill="url(#colour1)" d="M190.98,143c34.95,0.25,70.01-1.08,104.87,2.3c-0.05,4.95-0.33,9.89-0.789,14.82
		c-9.36-3.99-19.75-7.69-29.971-4.69c-9.67,2.57-19.78,1.94-29.68,1.85c-10.34,0.17-19.97-5.12-30.36-4.09
		c-4.81,0.66-9.34,2.51-13.95,3.96C191.05,152.43,191.02,147.72,190.98,143z"/>
	<path fill="url(#colour1)" d="M192.52,160.67c13.55-5.89,32.15-5.43,42.47,6.32c2.57,2.939,4.19,6.539,6.05,9.939
		c0.74,0.041,2.22,0.11,2.97,0.141c3.711-5.211,7.051-11.11,12.86-14.25c9.01-4.68,20.149-6.08,29.771-2.44
		c8.239,3.85,15.479,10.591,18.5,19.341c1.739,7.119,2.069,15.139-1.351,21.84c-11.38,22.299-26.069,42.81-43.021,61.219
		c-6.68,7.141-13.119,14.511-19.77,21.691c-14.4-15.861-28.28-32.25-40.69-49.721c-7.73-11.609-15.74-23.29-20.64-36.439
		C174.31,184.74,180,168.05,192.52,160.67z"/>
	<path fill="url(#colour0)" d="M233.93,160.03c6.09,0,12.19,0.01,18.28,0.06c-3.29,3.76-6.53,7.58-9.49,11.62
		C239.94,167.71,236.89,163.89,233.93,160.03z"/>
</g>
<g id="_x23_000000ff">
	<path d="M228.87,66.56c4.36-5.24,9.69-10.93,17.18-10.61c6.521-0.18,11.22,5.32,15.46,9.57c11.15-3.88,23.6-3.21,34.4,1.42
		c11.8,6.19,20.23,19.5,19.18,33.04c0.811,11.08-3.369,21.54-7.609,31.51c-3.871,7.61-9.49,14.64-8.951,23.79
		c8.701-5.01,18.061-8.62,27.211-12.69c9.8-4.82,20.029-9.22,30.92-10.75c16.6-1.82,33.35,0.11,49.97-1.41
		c3.34-1.79,5.811-4.8,8.811-7.07c7.09-0.34,15.319,2.88,16.46,10.73c2.159,18.69,1.369,37.721,0.569,56.5
		c-0.43,5.27-4.51,11.221-10.5,10.42c-8.02,3.11-11.33-4.779-14.489-10.14c-13.641,10.12-20.881,26.09-32.73,37.909
		c-5.74,5.671-14.33,6.381-21.88,7.691c-6.22,2.359-10.69,8.719-17.87,8.52c-2.891-0.82-5.24-2.87-7.811-4.33
		c-4.699,3.83-9.39,8.58-15.609,9.689c-4.189,1.5-7.03-2.09-10.28-3.76c-4.56,2.689-8.75,6.381-14,7.65
		c-4.1,0.859-7.84-1.02-11.37-2.73c-11.38,12.971-22.13,26.57-35.09,38.04c-11.69-13.3-24.56-25.739-34.17-40.72
		c-3.65,1.891-7.94,3.859-12.11,2.699c-5.12-1.069-9.28-4.279-13.35-7.35c-2.8,1.391-5.58,3.73-8.87,3.41
		c-6.7-1.85-12.19-6.35-16.9-11.279c-3.44,2.489-7.79,4.459-12.11,3.359c-5.31-1.561-8.83-6.21-12.63-9.9
		c-6.47-0.49-13.56-0.47-18.97-4.619c-14-11.891-19.15-31.66-34.69-42.021c-3.62,7.101-12.18,10.82-19.5,7.29
		c-6.23-4.23-5.25-12.92-5.34-19.38c0.69-14.34,1.03-28.7,2.11-43.02c0.58-7.35,7.7-14.46,15.37-12.69c4.48,0.93,7.17,4.95,9.8,8.33
		c18.61,0.02,37.26,1.15,55.6,4.38c13.42,3.38,24.84,11.57,37.07,17.7c5.16,2.4,10.34,4.75,15.46,7.24
		c0.07-4.77,0.25-9.84-2.58-13.97c-8.53-14.98-11.89-32.62-10.73-49.729c2.62-12.32,13.18-21.9,25.22-24.89
		C209.09,60.75,219.6,63.22,228.87,66.56 M243.61,59.5c-4.37,1.47-11.31,4.83-8.7,10.67c2.84,3.75,6.09,7.17,9.13,10.77
		c4.37-5,9.351-9.39,14.271-13.84C254.609,63.03,249.689,57.87,243.61,59.5 M194.84,68.94c-7.46,4.19-13.78,11.03-16.39,19.26
		c-3.56,17.53,2.57,35.3,10.49,50.78c3.72,0.03,11.15,0.07,14.87,0.09c-5.67-8.34-9.53-17.79-12.28-27.45
		c-1.98-6.8-2.29-14.48,1.23-20.87c5.84-9.93,21.86-11.76,29.57-3.15c9.45,15.63,7.62,34.85,6.84,52.34
		c4.27,0.03,8.52,0.05,12.8,0.08c-0.06-14.12,0.05-28.25,0.66-42.35c-0.1-5.76,0.83-12.34-2.95-17.24
		C230.01,66.43,210.08,62.66,194.84,68.94 M274.45,66.55c-6.65,0.84-13.511,2.66-18.511,7.4c-3.539,3.12-8.06,6.81-8,11.98
		c-1.17,18-1.6,36.05-2.83,54.04c4.26,0.02,8.51,0.02,12.781,0.04c0.1-14.28,0.139-28.89,4.629-42.61
		c1.801-4.67,4.28-9.43,8.601-12.22c5.42-3.35,12.22-2.26,17.81-0.08c8.301,4.53,12.131,15.21,9.28,24.21
		c-2.88,11.22-8.2,21.75-14.13,31.65c4.66-0.15,9.32-0.34,13.98-0.24c3.189-4.61,5.67-9.65,7.739-14.85
		c3.511-9.22,7.25-18.74,6.03-28.85C311.17,78.73,292.45,63.73,274.45,66.55 M195.19,94.17c-3.49,9.66,0.88,20.1,4.37,29.08
		c2.34,5.67,5.18,11.33,9.42,15.78c5.34,2.25,11.41,0.26,17.04,0.28c-0.57-16.13,2.66-33.69-6.06-48.29
		C213.92,82.54,198.97,84.46,195.19,94.17 M274.1,86.47c-2.789,4.15-6.459,7.9-7.869,12.8c-4.23,13.16-4.541,27.07-4.391,40.76
		c5.96-0.06,11.91-0.12,17.881-0.2c6.729-9.58,11.979-20.31,14.359-31.82c2.33-7.79-0.359-18.3-9.26-20.47
		C282.141,87.27,276.779,86.74,274.1,86.47 M58.37,127.32c-1.98,12.45-1.43,25.11-2.28,37.66c-0.26,6.47-1.34,13.47,1.33,19.65
		c2.33,4.58,8.46,3.91,12.66,4.181c3.54-8.541,3.39-18,4.3-27.051c0.73-12.44,2.06-24.91,1.13-37.37c-0.18-3.53-4.44-4.56-6.64-6.51
		C63.07,117,59.17,122.29,58.37,127.32 M79.98,126.9c-1.77,17.25-2.13,34.62-2.95,51.93c16.09,9.51,22.07,28.52,34.91,41.25
		c4.08,4.29,9.7,6.59,15.64,6.279c-5.5-7.389-11.3-14.56-16.63-22.069c1-0.42,2.01-0.83,3.02-1.24
		c8.47,8.39,13.52,19.591,22.45,27.54c2.8,2.62,5.72,5.65,9.71,6.23c2.57,0.1,4.6-1.85,6.68-3.08c-7.9-11.4-16.05-22.62-23.19-34.51
		c1.44-0.08,2.89-0.15,4.34-0.221c7.34,11.24,14.28,22.82,22.84,33.19c4.4,5.47,10.27,9.43,16.17,13.09
		c1.89-1.25,3.77-2.521,5.64-3.79c-6.09-8.859-13.18-16.99-19.13-25.95c-4.62-6.899-11.42-12.76-12.88-21.3
		c7.11,3.279,9.81,11.07,14.13,17.01c9.06,12.961,18.03,26.641,31.1,35.95c3.15,2.25,7.24,0.92,10.86,1.06
		c-3.3-8.069-9.09-14.77-14.24-21.699c-11.38-14.2-21.96-29.041-31.38-44.61c-3.84-7.05-8.1-14.19-8.8-22.4
		c12.62-1.33,25.16,3.21,37.7,0.87c0.04-0.93,0.11-2.79,0.15-3.72c-8.75-5.63-18.19-10.02-27.54-14.51
		c-7.9-4.33-16.03-8.41-24.74-10.84C116.08,128.15,98.02,126.74,79.98,126.9 M414.71,126.1c-2.36,4.58-3.77,9.65-3.62,14.86
		c-0.29,16.53-0.72,33.12,0.49,49.63c0.71,3.891,3.24,9.41,8.43,7.43c5.13,2.211,7.32-3.039,8.29-6.68
		c2.51-11.59,1.65-23.59,1.84-35.35c-0.46-8.65,0.32-18.23-4.18-26.03C423.8,125.98,418.2,127.19,414.71,126.1 M358.439,134.61
		c-10.77,1.15-20.609,5.91-30.33,10.33c-10.049,4.26-19.67,9.46-29.039,15.02c-0.051,0.87-0.15,2.61-0.2,3.48
		c11.05,5.36,22.771-2.5,34.18-0.6c3.33,0.22,4.21,4.61,2.83,7.09c-2.19,7.4-7.04,13.48-11.06,19.92
		c-9.01,15.17-21.26,28.01-32.471,41.53c-4.81,6.31-10.209,12.399-13.039,19.931c3.279-0.41,6.56-0.791,9.779-1.59
		c5.631-2.041,9.83-6.551,14.061-10.57c12.25-11.75,20.31-26.94,31.81-39.32c1.06,0.641,2.12,1.279,3.181,1.93
		c-9.771,12.07-18.83,24.69-28.66,36.711c-2.49,2.609-2.951,6.239-3.601,9.639c5.88-0.76,11.55-3.26,15.82-7.399
		c8.25-7.851,15.06-17.04,21.78-26.19c3.25-4.129,6.1-8.89,10.92-11.39c-3.851,13.149-15.61,21.97-22.7,33.33
		c-0.24,2.181,0.399,4.34,0.729,6.49c16.791-4.45,26.1-20.46,36.62-32.97c1.45,0.1,2.91,0.199,4.38,0.31
		c-5.27,7.601-11.74,14.26-17.09,21.79c5.43-0.41,11.311-1.4,15.41-5.311c11.38-10.77,17.779-25.93,30.53-35.41
		c1.819-2.02,5.55-3.149,5.64-6.319c0.55-17-0.09-34.02,0.061-51.03C391.46,134.12,374.92,133.37,358.439,134.61 M190.98,143
		c0.04,4.72,0.07,9.43,0.12,14.15c4.61-1.45,9.14-3.3,13.95-3.96c10.39-1.03,20.02,4.26,30.36,4.09c9.9,0.09,20.01,0.72,29.68-1.85
		c10.221-3,20.61,0.7,29.971,4.69c0.459-4.93,0.739-9.87,0.789-14.82C260.99,141.92,225.93,143.25,190.98,143 M192.52,160.67
		c-12.52,7.38-18.21,24.07-12.85,37.641c4.9,13.149,12.91,24.83,20.64,36.439c12.41,17.471,26.29,33.859,40.69,49.721
		c6.65-7.181,13.09-14.551,19.77-21.691c16.951-18.409,31.641-38.92,43.021-61.219c3.42-6.701,3.09-14.721,1.351-21.84
		c-3.021-8.75-10.261-15.491-18.5-19.341c-9.621-3.64-20.761-2.24-29.771,2.44c-5.81,3.14-9.149,9.04-12.86,14.25
		c-0.75-0.03-2.23-0.1-2.97-0.141c-1.86-3.4-3.48-7-6.05-9.939C224.67,155.24,206.07,154.78,192.52,160.67 M233.93,160.03
		c2.96,3.86,6.01,7.68,8.79,11.68c2.96-4.04,6.2-7.86,9.49-11.62C246.12,160.04,240.02,160.03,233.93,160.03 M152.4,160.86
		c1.18,6.04,3.67,11.71,6.76,17c5.63,9.521,11.13,19.221,18.23,27.75c-2.11-7.459-4.83-15.08-3.66-22.949
		c0.5-6.4,4.12-11.9,7.1-17.4C171.26,164.38,161.94,161.89,152.4,160.86 M303.23,168.189c2.859,4.99,6.379,9.84,6.93,15.771
		c2.811,10.03-2.76,19.63-6.641,28.54c11.69-14.311,23.681-29.17,29.771-46.85C323.221,165.75,313.26,167.59,303.23,168.189z"/>
	<path d="M237.67,66c4.61-1.12,9.391-1.54,14.13-1.22c-2.1,3.89-4.729,7.47-7.34,11.04C242.17,72.56,239.92,69.28,237.67,66z"/>
	<path d="M205.82,73.82c2.83-1.3,5.76-2.31,8.73-3.3c0.65,1.42,1.3,2.83,1.96,4.25c-1.56,1.02-3.08,2.12-4.78,2.9
		C209.43,77,207.7,75.2,205.82,73.82z"/>
	<path d="M277.21,71c2.36,0.01,6.979,1,6.101,4.3c-0.15,3.02-3.771,2.74-6.051,3.63C277.25,76.95,277.221,72.99,277.21,71z"/>
	<path d="M192.06,75.87c2.86-0.67,5.77-1.08,8.7-1.28c0.29,5.05-1.64,6.93-5.78,5.64C193.87,78.87,192.99,77.35,192.06,75.87z"/>
	<path d="M222.8,75.91c2.52-0.28,5.04,0.04,7.54,0.41c-0.57,2.27-1.17,4.53-1.79,6.79C224.48,82.41,222.56,80.01,222.8,75.91z"/>
	<path d="M261.029,77.06c1.281-0.69,2.561-1.38,3.851-2.06c1.53,1.3,3.06,2.6,4.57,3.93c-1.421,1.45-2.851,2.88-4.29,4.31
		c-1.381-0.771-2.75-1.55-4.12-2.33C261.029,79.63,261.029,78.35,261.029,77.06z"/>
	<path d="M290.2,79.12c2.909-0.79,5.86-1.28,8.87-1.69c-0.67,2.72-2.11,5.14-3.58,7.48C293.67,83.02,291.91,81.09,290.2,79.12z"/>
	<path d="M184.54,84.15c2.04,1.42,6.55,2.2,5.15,5.55c-1.55,3.29-5.3,1.45-7.97,1C182.65,88.52,183.6,86.34,184.54,84.15z"/>
	<path d="M227.77,91.16c2.73-1.94,5.61-3.63,8.67-5c0.06,2.71,0.23,5.46-0.37,8.13C233.12,93.79,230.4,92.53,227.77,91.16z"/>
	<path d="M249.7,91.8c2.17-2.54,4.81-4.62,7.899-5.96c0.61,2.61,1.17,5.22,1.641,7.86C256,93.44,252.8,92.77,249.7,91.8z"/>
	<path d="M297.93,90.37c2.98-0.4,5.94-0.75,8.95-1.08c-0.3,2.24-0.649,4.47-1.01,6.7C302.35,95.6,299.561,93.47,297.93,90.37z"/>
	<path d="M181.25,100.12c2.32,0.16,4.59,0.73,6.84,1.29c-0.01,1-0.05,2.99-0.07,3.99c-2.67,0.59-5.36,1.12-8.07,1.53
		C180.25,104.63,180.69,102.36,181.25,100.12z"/>
	<path d="M231.67,106.45c-1.28-3.82,3.4-8.63,6.34-5.05c0.33,1.26,0.99,3.79,1.32,5.05C237.41,106.45,233.59,106.45,231.67,106.45z"
		/>
	<path d="M250.1,101.42c1.83-0.48,3.67-0.98,5.5-1.49c0.851,1.89,1.76,3.78,2.221,5.81c-1.76,1.16-3.711,2.04-5.76,2.51
		C250.939,106.13,250.5,103.76,250.1,101.42z"/>
	<path d="M301.91,103.59c2.449,0.3,4.949,0.79,7.33,1.5c-0.49,1.33-0.98,2.66-1.461,4c-1.789-0.15-5.359-0.46-7.139-0.61
		C301,106.83,301.359,105.19,301.91,103.59z"/>
	<path d="M181.78,115.39c1.71-0.87,3.41-1.76,5.11-2.64c1.12,1.12,2.24,2.24,3.36,3.36c-0.81,1.58-1.64,3.16-2.46,4.74
		c-1.3,0.07-2.6,0.14-3.9,0.21C183.16,119.18,182.46,117.29,181.78,115.39z"/>
	<path d="M230.93,118.73c2.03-2.48,4.47-5.18,8-4.95c0.75,2.48,0.7,5.09,0.8,7.65C236.74,120.57,233.86,119.71,230.93,118.73z"/>
	<path d="M249.24,115.44c2.65-0.16,5.31-0.31,7.97-0.46c-0.38,2.01-0.771,4.02-1.17,6.03c-1.7-0.1-5.09-0.29-6.79-0.38
		C249.23,118.9,249.23,117.17,249.24,115.44z"/>
	<path d="M297.2,118.11c1.579-0.79,3.149-1.59,4.739-2.38c1.32,1.43,2.641,2.85,3.961,4.28c-2.65,1.91-5.84,2.62-9.061,2.02
		C296.93,121.05,297.109,119.09,297.2,118.11z"/>
	<path d="M187.16,134.69c1.05-3.21,2.63-6.21,4.79-8.79c1.56,2.16,3.08,4.35,4.53,6.58C193.51,133.72,190.37,134.44,187.16,134.69z"
		/>
	<path d="M234.15,125.88c3,1.68,5.74,3.84,4.93,7.93c-2.41,0.64-4.9,0.77-7.38,0.91C232.43,131.74,233.27,128.81,234.15,125.88z"/>
	<path d="M247.73,131.97c1.16-1.57,2.549-3.01,4.27-3.95c2.09,0.84,3.91,2.22,5.76,3.49c-1.699,1.83-3.439,3.62-5.199,5.39
		C250.859,135.36,249.1,133.83,247.73,131.97z"/>
	<path d="M292.34,131.14c1.29-1.61,3.35-2.18,5.311-2.42c0.74,2.33,1.379,4.7,1.92,7.09c-2.051,0.51-4.1,1.02-6.15,1.51
		C292.971,135.28,292.42,133.24,292.34,131.14z"/>
</g>
</svg>
