<!-- Generator: Adobe Illustrator 14.0.0, SVG Export Plug-In . SVG Version: 6.00 Build 43363)  -->
<svg xmlns:rdf="http://www.w3.org/1999/02/22-rdf-syntax-ns#" xmlns="http://www.w3.org/2000/svg" enable-background="new 0 0 304.382 357.664" xml:space="preserve" height="358px" viewBox="0 0 304.382 357.664" width="304px" version="1.1" y="0px" x="0px" xmlns:cc="http://creativecommons.org/ns#" xmlns:dc="http://purl.org/dc/elements/1.1/"><metadata><rdf:RDF><cc:Work rdf:about=""><dc:format>image/svg+xml</dc:format><dc:type rdf:resource="http://purl.org/dc/dcmitype/StillImage"/><dc:title/></cc:Work></rdf:RDF></metadata>
<defs>
   <linearGradient id="colour1">
     <stop stop-color="red" offset="0"/>
   </linearGradient>
</defs>
<path d="M280,86.6l-45.2,41c-20.5,15.6-23.9,8.62-49.9,33.1l-132,119,7.6,6.81-7.23,6.89-21.1-20.2,6.2-6.43,7.56,6.77,0.006,0.005,132-123c23.5-22.5,19.7-27.9,32.1-44.9l45-43.7,0.489,0.472c0.676-0.788,1.39-1.56,2.18-2.29,8.54-7.92,20.4-9.04,26.4-2.5,6.06,6.54,4.05,18.3-4.49,26.2-0.339,0.313-0.688,0.596-1.04,0.889l2,0.5z" fill="url(#colour1)"/>
<path d="M41.1,86.6l45.2,41c20.5,15.6,23.9,8.62,49.9,33.1l131,119-7.6,6.81,7.23,6.89,21.1-20.2-6.2-6.43-7.56,6.77-0.007,0.005-132-123c-23.5-22.5-19.7-27.9-32.1-44.9l-43.8-43.7-0.489,0.472c-0.676-0.788-1.39-1.56-2.18-2.29-8.54-7.92-20.4-9.04-26.4-2.5-6.06,6.54-4.05,18.3,4.49,26.2,0.339,0.313,0.688,0.596,1.04,0.889l-0.5,0.5z" fill="url(#colour1)"/>
</svg>
