<?xml version="1.0" encoding="UTF-8" standalone="no"?>
<svg version="1.0" xmlns="http://www.w3.org/2000/svg" xmlns:xlink="http://www.w3.org/1999/xlink" viewBox="0 0 330 600" xml:space="preserve">
<defs>
   <linearGradient id="colour1">
     <stop offset="100%" stop-color="#C00000"/>
   </linearGradient> 
 </defs>
<g transform="scale(0.775,-0.775)" fill="url(#colour1)" stroke="none">
<path d="M277.889,680 C277.889,686.678,272.475,692.093,265.797,692.093 C259.118,692.093,253.704,686.678,253.704,680 C248.593,684.208,245.632,690.481,245.632,697.102 C245.632,709.335,255.549,719.252,267.782,719.252 C272.919,719.252,277.896,717.467,281.861,714.203 C281.861,727.164,288.775,739.14,300,745.621 C311.224,739.14,318.139,727.164,318.139,714.203 C322.104,717.467,327.081,719.252,332.217,719.252 C344.451,719.252,354.368,709.335,354.368,697.102 C354.368,690.481,351.407,684.208,346.296,680 C346.296,686.678,340.882,692.093,334.203,692.093 C327.525,692.093,322.11,686.678,322.11,680 L322.11,440 C322.11,433.322,327.525,427.907,334.203,427.907 C340.882,427.907,346.296,433.322,346.296,440 C351.407,435.792,354.368,429.519,354.368,422.898 C354.368,420.963,354.114,419.035,353.614,417.165 L300,10 L246.386,417.165 C245.885,419.035,245.632,420.963,245.632,422.898 C245.632,429.519,248.593,435.792,253.704,440 C253.704,433.322,259.118,427.907,265.797,427.907 C272.475,427.907,277.889,433.322,277.889,440Z"/>
<path d="M420,582.111 C426.678,582.111,432.093,587.525,432.093,594.203 C432.093,600.882,426.678,606.296,420,606.296 C424.208,611.407,430.481,614.368,437.102,614.368 C449.335,614.368,459.252,604.451,459.252,592.218 C459.252,587.081,457.467,582.104,454.203,578.139 C467.164,578.139,479.14,571.225,485.621,560 C479.14,548.776,467.164,541.861,454.203,541.861 C457.467,537.896,459.252,532.919,459.252,527.783 C459.252,515.549,449.335,505.632,437.102,505.632 C430.481,505.632,424.208,508.593,420,513.704 C426.678,513.704,432.093,519.118,432.093,525.797 C432.093,532.475,426.678,537.89,420,537.89 L180,537.89 C173.322,537.89,167.907,532.475,167.907,525.797 C167.907,519.118,173.322,513.704,180,513.704 C175.792,508.593,169.519,505.632,162.898,505.632 C150.665,505.632,140.747,515.549,140.747,527.783 C140.747,532.919,142.532,537.896,145.797,541.861 C132.836,541.861,120.86,548.776,114.379,560 C120.86,571.225,132.836,578.139,145.797,578.139 C142.532,582.104,140.747,587.081,140.747,592.218 C140.747,604.451,150.665,614.368,162.898,614.368 C169.519,614.368,175.792,611.407,180,606.296 C173.322,606.296,167.907,600.882,167.907,594.203 C167.907,587.525,173.322,582.111,180,582.111Z"/>
</g>
</svg>