<?xml version="1.0" encoding="utf-8"?>
<!-- Generator: Adobe Illustrator 14.0.0, SVG Export Plug-In . SVG Version: 6.00 Build 43363)  -->
<!DOCTYPE svg PUBLIC "-//W3C//DTD SVG 1.0//EN" "http://www.w3.org/TR/2001/REC-SVG-20010904/DTD/svg10.dtd">
<svg version="1.0" id="Layer_1" xmlns="http://www.w3.org/2000/svg" xmlns:xlink="http://www.w3.org/1999/xlink" x="0px" y="0px"
	 width="800px" height="600px" viewBox="0 0 800 600" enable-background="new 0 0 800 600" xml:space="preserve">
<defs>
   <linearGradient id="colour1">
     <stop offset="100%" stop-color="#006BAD"/>
   </linearGradient>
</defs>
<g>
	<path fill="url(#colour1)" d="M404.209,208.685c-8.706,0.663-17.412,1.984-24.185,6.611c-4.834-3.305-12.573-3.966-19.346-1.982
		c-4.834,1.322-8.706,5.288-9.673,8.593c0,4.628,1.934,8.594,7.739,11.239c1.934,0.661,3.867,1.322,5.806,1.984
		c0,0.661-0.967,1.322-0.967,1.982c-0.608,0.484-1.262,0.911-1.929,1.323h-1.792c-1.802,1.231-4.417,2.439-6.333,3.137
		c-3.972,0.813-8.21,0.849-12.197,0.167c-7.739-0.661-14.507-5.288-16.445-10.577c0-1.321-0.967-2.645-0.967-3.966
		c6.772,0,11.606-2.645,14.512-5.95c2.9-3.305,2.9-8.594,0-11.898c-3.872-3.968-10.64-5.29-17.412-5.29
		c-5.806,0.661-11.606,3.966-13.545,7.933c-0.967,3.305-0.967,7.932,3.872,11.239c0.967,1.322,2.9,1.982,4.839,2.645
		c-0.781,5.317-6.594,10.163-13.862,12.561h-1.465c-2.458,0.959-5.43,1.56-8.538,1.822c-9.802,0.546-18.494-2.691-23.538-8.434
		c-2.9-3.306-4.834-7.271-3.867-11.238c4.839,3.306,11.606,4.627,18.379,3.306c4.834-1.323,9.673-3.968,10.64-7.271
		c1.934-3.968,0.967-8.595-3.867-11.9c-3.872-2.645-9.673-3.966-15.479-3.306c-0.254,0.087-0.457,0.168-0.681,0.255
		c-1.418,0.087-2.793,0.269-4.082,0.564c0.938-6.442,1.716-12.869-3.943-18.669c-1.934-1.982-4.834-4.627-7.739-6.611
		c-0.271,0.185-0.588,0.411-0.891,0.621c-0.303-0.21-0.62-0.436-0.891-0.621c-2.905,1.984-5.806,4.628-7.739,6.611
		c-5.659,5.8-4.88,12.227-3.943,18.669c-1.289-0.295-2.664-0.477-4.082-0.564c-0.225-0.087-0.427-0.168-0.681-0.255
		c-5.806-0.661-11.606,0.661-15.479,3.306c-4.834,3.305-5.801,7.932-3.867,11.9c0.967,3.304,5.806,5.948,10.64,7.271
		c6.772,1.321,13.54,0,18.379-3.306c0.967,3.966-0.967,7.932-3.867,11.238c-5.044,5.743-13.735,8.98-23.538,8.434
		c-3.108-0.262-6.079-0.862-8.538-1.822h-1.465c-7.268-2.398-13.081-7.243-13.862-12.561c1.938-0.663,3.872-1.323,4.839-2.645
		c4.839-3.307,4.839-7.934,3.872-11.239c-1.938-3.966-7.739-7.271-13.545-7.933c-6.772,0-13.54,1.322-17.412,5.29
		c-2.9,3.304-2.9,8.593,0,11.898c2.905,3.306,7.739,5.95,14.512,5.95c0,1.321-0.967,2.645-0.967,3.966
		c-1.938,5.29-8.706,9.916-16.445,10.577c-3.987,0.682-8.225,0.646-12.197-0.167c-1.917-0.697-4.531-1.905-6.333-3.137h-1.792
		c-0.667-0.412-1.321-0.839-1.929-1.323c0-0.661-0.967-1.321-0.967-1.982c1.938-0.662,3.872-1.323,5.806-1.984
		c5.806-2.645,7.739-6.61,7.739-11.239c-0.967-3.306-4.839-7.271-9.673-8.593c-6.772-1.984-14.512-1.323-19.346,1.982
		c-6.772-4.627-15.479-5.948-24.185-6.611c13.545,13.222,24.185,27.105,29.019,42.309c3.872,9.255,4.839,19.833,3.872,30.41v33.714
		h3.716h220.698h3.716v-33.714c-0.967-10.577,0-21.155,3.872-30.41C380.024,235.79,390.664,221.906,404.209,208.685z"/>
</g>
</svg>
