<?xml version="1.0" encoding="utf-8"?>
<svg version="1.0" id="Layer_1" xmlns:svg="http://www.w3.org/2000/svg"
	 xmlns="http://www.w3.org/2000/svg" xmlns:xlink="http://www.w3.org/1999/xlink" viewBox="0 0 540 600" xml:space="preserve">
<defs>
   <linearGradient id="colour1">
     <stop offset="100%" stop-color="#0F004E"/>
   </linearGradient>
   <linearGradient id="colour2">
     <stop offset="100%" stop-color="#009B7A"/>
   </linearGradient>
   <linearGradient id="colour3">
     <stop offset="100%" stop-color="#9D3393"/>
   </linearGradient> 
 </defs>
<g>
	<path id="path3130" fill="#009B7A" d="M313.357,345.596c-1.477,0.619-4.893,2.697-7.592,5.904
		c-0.171-8.098,7.93-17.546,10.459-20.414c2.53-2.867,5.735-6.916,5.063-13.16c-0.398-3.703-2.868-6.918-4.725-14.17
		c-3.037,11.471-8.436,10.627-11.474,4.721c-3.037-5.9-7.592-25.305-8.94-37.791c-3.375,8.773-4.387,30.033-2.361,42.179
		c2.025,12.146,5.396,24.633,2.023,40.151c-0.338-7.086-1.181-12.82-3.373-17.545c-2.42-5.213-4.455-4.203-3.713,0
		c3.037,17.209-4.05,34.08-3.373,43.528c-2.025-7.087-1.688-10.799-3.375-13.497c-1.687-2.697-3.375-4.389-3.375,2.022
		c0,6.41-2.361,16.197-5.734,21.935c1.349-5.398,1.349-7.423,1.012-10.123c-0.338-2.699-3.037-4.05-4.387,1.688
		c-1.35,5.738-0.674,17.886-6.749,26.658c1.012-6.75,1.702-5.398,0.353-13.838c-1.42,12.396-12.837,10.8-12.837,10.8
		s-1.315,21.176-18.333,33.757c-0.207,0.255-0.44,0.479-0.688,0.684c5.731,0.932,14.088-1.078,25.094-4.916
		c11.135-3.879,10.966-6.241,7.254-5.734s-5.061,0.34-8.773,0c0,0,2.193-1.182,3.374-3.036s3.037-4.217,6.074-6.072
		c3.037-1.856,6.074-2.192,6.074-2.192s-2.025-1.015-4.725-0.17c-2.699,0.843-5.567,2.192-9.279,1.013
		c5.736-0.17,8.604-2.191,10.966-4.22c2.361-2.021,4.893-5.903,11.641-7.758c6.748-1.855,11.138-0.51,12.99-0.34
		c1.855,0.17,3.543-1.181,0.844-2.362c-2.696-1.181-6.242-1.181-9.785-0.842c4.218-4.049,10.8-5.569,15.187-7.256
		c4.388-1.688,12.82-7.253,16.364-14.85c-2.193,2.025-3.559,2.656-8.771,4.221c-3.375,1.014-4.388,3.882-4.388,3.882
		s-0.676-4.726,0.845-7.086c0,0-6.244,3.709-11.644,3.204c0.17-11.303,13.498-23.788,17.886-28.007
		c4.387-4.22,7.712-6.315,9.784-10.462C320.443,341.717,316.563,344.245,313.357,345.596z"/>
	<path id="path3132" fill="#009B7A" d="M216.39,437.248c-9.661-8.809-10.675-25.87-11.683-29.229
		c-1.012-3.374-4.387,1.013-3.037,4.05c1.349,3.037,3.037,10.124,2.361,14.509c0,0-4.049-11.135-9.11-19.233
		c-4.082-6.529-5.736-16.193-5.736-24.293c-7.085,2.362-12.147-6.41-12.147-13.16c0-6.748,0.675-22.942,0.675-22.942
		s-2.896,4.866-4.724,10.121c-2.7,7.762,3.037,12.821-0.338,21.596c-0.337-8.437-4.723-17.547-7.761-25.98
		c-3.037-8.438-4.724-15.521,0-27.329c-4.724,1.348-7.423-4.726-4.387-12.822c3.037-8.102,9.786-29.357-0.337-51.628
		c-0.675,8.773-1.35,13.498-4.386,19.908c-3.037,6.411-5.062,19.91-4.05,30.031c1.013,10.123,4.05,19.571,5.062,30.031
		c-1.688-5.398-6.074-13.834-10.461-19.572c-4.386-5.734-5.736-7.084-7.761-16.195c-1.687,11.137,9.448,37.795,12.485,41.169
		c3.037,3.373,6.749,8.772,6.749,8.772s-3.375-3.375-9.449-6.752c-6.073-3.373-9.447-2.361-13.16-8.098
		c2.7,7.423,7.424,13.498,14.173,18.223c6.749,4.726,8.436,6.074,11.81,10.459c3.374,4.39,6.749,9.448,6.749,9.448
		s-5.622-4.705-9.786-7.086c-2.362-1.352-8.773-2.022-8.773-2.022s4.049,2.361,7.085,6.748c3.037,4.386,12.147,12.484,12.147,12.484
		s-7.761-5.063-15.184-7.762c-7.423-2.699-14.172-5.062-18.222-9.784c1.013,4.385,6.074,10.796,14.847,13.158
		c-13.834-1.014-17.208-6.411-20.583-9.449c2.699,7.426,8.098,11.476,16.534,12.484c8.436,1.014,13.497,4.727,13.497,4.727
		s-7.085-1.352-12.484,4.724c7.423-2.023,12.147-2.701,20.246,0.678c8.099,3.372,16.534,7.422,25.645,17.882
		c6.162,7.073,8.436,14.509,14.847,18.558c-2.024,0-11.948-6.549-16.196-10.796c-3.037-3.037-10.123-2.701-15.184-0.339
		c7.423-0.336,11.81,0.676,16.534,4.725c4.705,4.031,9.417,10.404,23.457,10.122l0.012-0.045
		C216.366,437.33,216.375,437.299,216.39,437.248z"/>
	<path id="path3134" fill="#009B7A" d="M223.246,378.832c0.005,0.151,0.01,0.299,0.01,0.452c0,1.521-0.201,3.252-0.86,4.837
		c-0.459,1.1-0.637,1.961-0.637,2.729c-0.01,1.998,1.25,3.418,1.995,6.627c0.174,0.755,0.249,1.595,0.249,2.479
		c0,4.316-1.774,9.817-2.612,13.45c-0.285,1.223-0.406,2.513-0.406,3.849c-0.003,3.375,0.79,7.062,1.755,10.922
		c0.328,1.309,0.458,2.465,0.458,3.513c-0.003,3.308-1.305,5.505-1.808,8.034c-0.114,0.566-0.17,1.038-0.17,1.421
		c0.029,1.143,0.41,1.408,1.296,1.438c0.513,0,1.187-0.129,1.985-0.328c0.257-0.552,2.113-4.621,2.113-9.885
		c0-1.417-0.135-2.917-0.466-4.456c-0.793-3.657-0.678-4.744-1.352-8.104c-0.17-0.851-0.256-1.533-0.256-2.15
		c0.003-1.878,0.781-3.102,2.291-6.378c0.827-1.802,1.024-2.665,1.024-3.383c0-0.702-0.194-1.315-0.194-2.519
		c0-0.563,0.043-1.26,0.171-2.154c0.335-2.358,0.419-4.123,0.419-5.719c0-1.599-0.082-3.029-0.082-4.72
		c-0.003-3.383,0.341-5.453,1.703-8.17c0.163-0.327,0.276-0.625,0.393-0.925c-1.07-0.862-2.39-1.411-4.218-1.411
		C224.948,378.28,224.037,378.487,223.246,378.832z"/>
	<path id="path3136" fill="#9D3393" d="M229.083,246.543c-0.042,0-0.039,0.121,0.006,0.295
		C229.127,246.664,229.125,246.543,229.083,246.543z"/>
	<path id="path3138" fill="#9D3393" d="M227.439,262.928C226.726,262.939,228.958,263.001,227.439,262.928L227.439,262.928z"/>
	<path id="path3140" fill="#9D3393" d="M232.012,246.849c-0.004-0.178-0.032-0.306-0.032-0.306S231.982,246.67,232.012,246.849z"/>
	<path id="path3142" fill="#9D3393" d="M190.62,256.093c-0.337,0.759-0.253,1.096,0.506,1.519c0.759,0.422,2.108-1.181,2.108-1.181
		s-0.59,1.771,0.675,2.361c1.265,0.591,2.446-1.434,2.446-1.434s-0.506,2.025,0.843,2.447c1.35,0.421,2.193-1.519,2.193-1.519
		s-0.421,2.193,1.181,2.446c1.603,0.254,2.193-2.024,2.193-2.024s-0.271,2.284,1.603,2.616c1.435,0.252,2.193-1.771,2.193-1.771
		s-0.084,1.939,1.519,2.193c1.603,0.252,2.109-1.856,2.109-1.856s-0.168,2.024,1.772,2.277c1.939,0.253,1.855-2.108,1.855-2.108
		s0.337,2.193,2.277,2.362c1.94,0.169,1.855-2.108,1.855-2.108s-0.084,2.277,2.025,2.361c2.108,0.085,1.855-2.193,1.855-2.193
		s0.169,2.446,1.94,2.446s1.771-2.446,1.771-2.446s0.084,2.362,1.856,2.446c0.016,0.001,0.025,0.001,0.041,0.002
		c0.071-0.001,0.161-0.002,0.296-0.002c1.519,0,1.772-2.614,1.772-2.614s0,2.699,1.771,2.614c1.771-0.084,1.856-2.446,1.856-2.446
		s0,2.446,1.771,2.446c1.772,0,1.94-2.446,1.94-2.446s-0.252,2.278,1.856,2.193c2.109-0.084,2.024-2.361,2.024-2.361
		s-0.084,2.277,1.856,2.108c1.94-0.168,2.277-2.362,2.277-2.362s-0.084,2.362,1.856,2.108c1.939-0.253,1.771-2.277,1.771-2.277
		s0.507,2.108,2.109,1.856c1.603-0.254,1.518-2.193,1.518-2.193s0.759,2.024,2.194,1.771c1.874-0.332,1.603-2.616,1.603-2.616
		s0.589,2.278,2.193,2.024c1.602-0.253,1.181-2.446,1.181-2.446s0.844,1.94,2.194,1.519c1.349-0.422,0.843-2.447,0.843-2.447
		s1.181,2.025,2.446,1.434c1.265-0.59,0.675-2.361,0.675-2.361s1.349,1.603,2.108,1.181c0.759-0.422,0.844-0.674,0.507-1.434
		c2.867-0.168,0.68-2.716,0.68-2.716s-0.321,0.721-1.287,0.577c-0.965-0.144-0.804-2.162-0.804-2.162s-0.644,0.864-1.609,0.72
		c-0.966-0.145-0.966-1.946-0.966-1.946s-0.804,1.081-1.77,0.937c-0.965-0.145-1.126-1.73-1.126-1.73s-0.804,1.009-1.931,1.009
		c-1.126,0-1.287-1.586-1.287-1.586s-0.16,1.154-1.287,1.009c-1.126-0.144-1.609-1.585-1.609-1.585s-0.483,1.369-1.529,1.225
		c-1.046-0.144-1.207-1.729-1.207-1.729s-0.161,1.369-1.608,1.297c-1.449-0.073-1.208-1.658-1.208-1.658s-0.321,1.513-1.448,1.441
		c-1.126-0.071-1.528-1.729-1.528-1.729s-0.161,1.514-1.288,1.441c-1.125-0.071-1.448-1.657-1.448-1.657s-0.08,1.442-1.207,1.369
		c-1.126-0.072-1.448-1.729-1.448-1.729s-0.321,1.657-1.528,1.585c-1.208-0.071-1.208-1.73-1.208-1.73s-0.643,1.442-1.77,1.442
		c-1.125,0-1.608-1.73-1.608-1.73s-0.161,1.658-1.609,1.658c-1.054,0-1.338-0.874-1.416-1.352c0.008,0.436-0.153,1.203-1.399,1.352
		c-0.896,0.106-1.392-0.859-1.522-1.363c-0.107,0.504-0.558,1.47-1.454,1.363c-1.311-0.157-1.471-1.004-1.468-1.423
		c-0.061,0.456-0.319,1.423-1.428,1.423c-1.448,0-1.608-1.658-1.608-1.658s-0.482,1.73-1.609,1.73c-1.127,0-1.77-1.442-1.77-1.442
		s0,1.659-1.206,1.73c-1.208,0.072-1.529-1.585-1.529-1.585s-0.322,1.657-1.448,1.729c-1.126,0.073-1.207-1.369-1.207-1.369
		s-0.322,1.585-1.448,1.657c-1.126,0.073-1.288-1.441-1.288-1.441s-0.402,1.659-1.528,1.729c-1.126,0.072-1.448-1.441-1.448-1.441
		s0.241,1.585-1.208,1.658c-1.448,0.072-1.608-1.297-1.608-1.297s-0.161,1.585-1.207,1.729c-1.046,0.144-1.529-1.225-1.529-1.225
		s-0.483,1.442-1.609,1.585c-1.125,0.145-1.287-1.009-1.287-1.009s-0.161,1.586-1.287,1.586s-1.93-1.009-1.93-1.009
		s-0.161,1.585-1.126,1.73c-0.965,0.144-1.77-0.937-1.77-0.937s0,1.801-0.965,1.946c-0.965,0.144-1.609-0.72-1.609-0.72
		s0.161,2.018-0.804,2.162c-0.965,0.144-1.288-0.577-1.288-0.577S187.919,256.346,190.62,256.093z"/>
	<path id="path3144" fill="#9D3393" d="M226.167,246.778c0.019-0.139,0.02-0.235,0.02-0.235S226.168,246.636,226.167,246.778z"/>
	<path id="path3146" fill="#9D3393" d="M192.729,261.913c-2.024-2.361-5.568-2.699,1.181,7.086
		c5.376,7.796,7.86,25.009,9.332,35.954c0.275,0.219,0.551,0.434,0.818,0.673C202.854,272.391,194.639,264.142,192.729,261.913z"/>
	<path id="path3148" fill="#9D3393" d="M200.658,269.169c4.218,8.437,6.242,33.742,6.411,39.31
		c0.336-25.813-2.531-37.284-4.387-43.357C201.949,262.72,197.52,262.892,200.658,269.169z"/>
	<path id="path3150" fill="#9D3393" d="M209.599,266.468c-0.254-2.495-3.766-2.886-2.699,4.049
		c1.152,7.486,2.671,15.484,3.931,28.984c0.228,0.273,0.454,0.545,0.676,0.819C211.548,279.956,210.366,273.976,209.599,266.468z"/>
	<path id="path3152" fill="#9D3393" d="M212.805,271.53c0.675,9.617,1.688,15.353,3.038,33.574
		c0.337-25.813,0.506-29.355-0.338-37.623C215.25,264.986,212.313,264.53,212.805,271.53z"/>
	<path id="path3154" fill="#9D3393" d="M220.372,294.452c0.376-17.825,0.935-19.887,0.194-27.14c-0.254-2.494-3.19-2.951-2.699,4.05
		c0.674,9.616,1.012,13.328,2.362,31.549c0.03-2.323,0.064-4.442,0.102-6.395c-0.131-0.856-0.283-1.762-0.453-2.83
		C220.015,293.926,220.187,294.184,220.372,294.452z"/>
	<path id="path3156" fill="#9D3393" d="M225.796,267.65c-0.254-2.495-3.191-2.951-2.7,4.05c0.647,9.215,0.368,13.044,1.531,29.378
		c0.063,0.143,0.122,0.288,0.182,0.432C225.19,277.375,226.621,275.726,225.796,267.65z"/>
	<path id="path3158" fill="#9D3393" d="M262.576,269.337c6.749-9.785,3.206-9.448,1.181-7.085
		c-1.91,2.229-10.121,10.473-11.33,43.686c0.266-0.207,0.536-0.412,0.813-0.614C254.71,294.378,257.193,277.141,262.576,269.337z"/>
	<path id="path3160" fill="#9D3393" d="M253.634,264.95c-1.855,6.074-4.724,17.547-4.387,43.359
		c0.169-5.567,2.193-30.875,6.411-39.312C258.796,262.723,254.367,262.551,253.634,264.95z"/>
	<path id="path3162" fill="#9D3393" d="M249.416,270.349c1.067-6.935-2.444-6.544-2.699-4.049
		c-0.752,7.368-1.905,13.274-1.908,32.743c0.258-0.234,0.514-0.456,0.766-0.659C246.816,285.456,248.292,277.659,249.416,270.349z"
		/>
	<path id="path3164" fill="#9D3393" d="M240.643,267.312c-0.844,8.267-0.675,11.811-0.337,37.622
		c1.349-18.219,2.362-23.956,3.036-33.57C243.833,264.361,240.897,264.818,240.643,267.312z"/>
	<path id="path3166" fill="#9D3393" d="M237.774,271.699c0.491-7.001-2.444-6.544-2.7-4.05c-0.826,8.097-0.034,9.735,0.316,34.046
		c0.055-0.187,0.119-0.371,0.178-0.557C236.788,284.754,237.127,280.926,237.774,271.699z"/>
	<path id="path3168" fill="#9D3393" d="M231.532,271.362c0.491-7-2.445-6.544-2.699-4.05c-0.775,7.605,0.446,9.515,0.91,29.864
		c0.188-0.267,0.373-0.523,0.554-0.771C231.122,283.618,230.947,279.705,231.532,271.362z"/>
	<path id="path3170" fill="#0F004E" d="M252.067,324.155c-1.741,0.842-4.216,1.742-7.354,1.742c-5.87,0-8.43-6.172-8.43-6.172
		s-2.258,6.774-10.235,6.774c-7.979,0-10.235-6.774-10.235-6.774s-2.56,6.172-8.43,6.172c-3.326,0-5.977-1.016-7.648-1.895
		c1.274-1.859,2.98-3.5,4.609-5.046c5.689,5.394,6.484-6.028,6.484-6.028s0.001,5.276,4.84,5.445
		c7.375,0.26,9.911-9.334,9.911-9.334s2.305,9.594,9.68,9.334c4.838-0.169,5.301-5.705,5.301-5.705s0.152,9.764,6.195,5.146
		C248.813,319.569,250.512,321.932,252.067,324.155L252.067,324.155z"/>
	<path id="path3172" fill="#0F004E" d="M194.438,337.422c7.7,7.715,12.343-0.383,12.343-0.383s0.002,3.717,6.322,3.913
		c9.633,0.299,12.945-8.431,12.945-8.431s3.612,8.431,13.246,8.128c6.319-0.197,6.322-3.913,6.322-3.913s4.508,7.91,12.156,0.563
		c-0.659-4.272-2.342-8.338-4.513-11.875c-0.67,1.217-3.366,5.59-8.246,5.59c-5.687,0-9.074-9.168-9.074-9.168
		s-2.187,8.865-9.916,8.865c-7.728,0-9.915-8.865-9.915-8.865s-3.943,8.869-9.63,8.869c-4.666,0-6.867-3.68-7.544-5.015
		C196.765,329.326,195.019,333.045,194.438,337.422L194.438,337.422z"/>
	<path id="path3174" fill="#0F004E" d="M194.289,342.608c7.622,7.055,12.494-2.561,12.494-2.561s0.002,6.123,6.322,6.32
		c9.633,0.303,12.945-10.836,12.945-10.836s3.01,11.139,12.644,10.836c6.319-0.197,6.924-6.624,6.924-6.624
		s4.48,10.867,12.494,2.259c0,3.764-1.004,7.604-1.591,9.484c-0.896,0.619-5.422,3.1-10.812,3.1c-6.223,0-8.935-4.867-8.935-4.867
		s-2.394,6.639-10.85,6.639s-10.85-6.639-10.85-6.639s-2.712,4.867-8.935,4.867c-5.55,0-9.525-2.638-10.276-3.171
		C195.355,349.79,194.138,345.617,194.289,342.608L194.289,342.608z"/>
	<path id="path3176" fill="#0F004E" d="M243.748,368.48c5.153-3.421,9.249-8.306,11.695-14.063
		c-1.225,1.563-5.618,5.438-10.378,5.438c-6.029,0-8.656-8.056-8.656-8.056s-2.318,9.863-10.511,9.863
		c-8.191,0-10.51-9.863-10.51-9.863s-2.627,8.056-8.655,8.056c-5.077,0-8.53-3.528-9.521-4.863
		c2.475,5.518,6.887,10.33,11.879,13.639c2.545-0.742,4.062-4.354,4.062-4.354s0.002,6.09,4.2,6.207
		c6.399,0.179,8.599-7.043,8.599-7.043s2.4,7.043,8.798,6.862c4.199-0.116,4.2-6.207,4.2-6.207s1.531,3.789,4.26,4.4L243.748,368.48
		L243.748,368.48z"/>
</g>
</svg>
