<?xml version="1.0" encoding="utf-8"?>
<!-- Generator: Adobe Illustrator 13.0.0, SVG Export Plug-In . SVG Version: 6.00 Build 14948)  -->
<!DOCTYPE svg PUBLIC "-//W3C//DTD SVG 1.1//EN" "http://www.w3.org/Graphics/SVG/1.1/DTD/svg11.dtd">
<svg version="1.1" id="Layer_1" xmlns="http://www.w3.org/2000/svg" xmlns:xlink="http://www.w3.org/1999/xlink" 
	  viewBox="0 0 102.75 59.4" enable-background="new 0 0 102.75 59.4" xml:space="preserve">
<g id="Darby_Racing">
	 <defs>
   <linearGradient id="colour1"> 
     <stop offset="100%" stop-color="gray"/> 
   </linearGradient> 
   <linearGradient id="colour2"> 
     <stop offset="100%" stop-color="#121345"/> 
   </linearGradient> 
</defs>	 
	<ellipse fill="url(#colour2)" cx="51.375" cy="29.7" rx="51.375" ry="29.7"/>
	<ellipse fill="url(#colour1)" cx="51.3" cy="29.476" rx="47.1" ry="27.375"/>
	<path fill="url(#colour2)" d="M32.3,33.3h-2.6c0,0-0.6-9.25,7.3-17.599c6.3-6.3,13-8.302,13-8.302L51.6,8.7l-1.5-0.5
		c0,0-7.4,2.2-13.5,11.199C32.15,25.7,32.3,33.3,32.3,33.3z"/>
	<path fill="url(#colour2)" d="M40.8,33.399h-2.2c0,0,0.25-8.25,5.1-15.2c4.85-6.949,9.65-7.8,9.65-7.8s-5.2,3.201-7,6.251
		C44.55,19.699,42.25,20.449,40.8,33.399z"/>
	<path fill="url(#colour2)" d="M50.15,14.3c-1.2,1.199-4.451,7,1.6,11.151c0,0-0.15,6.499,2.05,8.05l1.35-0.051c0,0-1.3-4.2-0.049-6.9
		c0,0,1.35-0.199,2.1-0.249c0,0,5.449,2.1,7.899,4.8c0,0-0.1,2.449,3.501,2.449c3.6,0,4.899-0.35,6.349-6.6
		C72.5,25.65,60.351,8.051,57.2,7.101c-0.251-3.699-0.45-4.4-0.65-4.851c-1.3,0.45-3.351,3.9-3.75,6.2l1.3-0.249
		c0,0,1.25-3.801,2.051-3.9c0,0,0.55,2.149,0.15,3.399c0,0-0.064,0.653,0.199,0.601c1-0.2-0.8-1.75,7.9,7.95
		c0.649,1.8,9.1,10.299,9.699,11.1c0,0-0.349,4.499-2.649,4.75c-2.3,0.25-3.551,1.25-5.15-1.1c-1.6-2.351-5.75-5.45-6.65-5.45
		c0,0,2.15-1.101,2.051-2.45c0,0-1.751,1.6-3.551,1.8s-7.149,0.3-9-4.399C48.2,17.601,50.15,14.3,50.15,14.3z"/>
	<path fill="url(#colour2)" d="M59.7,14.951c1.8,0.45,3.699,1.6,3.1,2.8C62.199,18.95,60.2,17.8,60.9,16.65
		C60.9,16.65,61.3,16.2,59.7,14.951z"/>
	<path fill="url(#colour2)" d="M72.3,27.551c-0.523,0.196-0.999-0.6-1.6,0.3c-0.6,0.9-0.7,1.399-0.551,1.45c0,0-0.699-0.602-0.1-2.15
		C70.65,25.601,72.699,27.401,72.3,27.551z"/>
	<g>
		<path fill="url(#colour2)" d="M21.513,43.611V34.88h4.713c1.064,0,1.875,0.042,2.436,0.125c0.784,0.115,1.453,0.324,2.006,0.625
			c0.723,0.389,1.262,0.887,1.62,1.493c0.357,0.604,0.537,1.296,0.537,2.075c0,0.662-0.122,1.25-0.364,1.763
			c-0.243,0.512-0.554,0.937-0.934,1.271s-0.795,0.6-1.246,0.792s-0.996,0.339-1.633,0.438c-0.638,0.099-1.371,0.148-2.199,0.148
			H21.513z M23.33,42.587h2.917c0.9,0,1.607-0.054,2.12-0.161c0.513-0.106,0.921-0.258,1.226-0.454
			c0.428-0.273,0.762-0.643,1.001-1.105c0.239-0.465,0.359-1.025,0.359-1.687c0-0.914-0.235-1.617-0.704-2.108
			c-0.469-0.492-1.04-0.821-1.709-0.988c-0.485-0.119-1.265-0.179-2.34-0.179h-2.87V42.587z"/>
		<path fill="url(#colour2)" d="M33.793,43.611l5.223-8.731h1.986l5.559,8.731h-2.058l-1.56-2.639h-5.741l-1.488,2.639H33.793z
			 M37.711,40.035h4.66l-1.44-2.431c-0.428-0.736-0.751-1.344-0.97-1.822c-0.191,0.563-0.437,1.124-0.738,1.68L37.711,40.035z"/>
		<path fill="url(#colour2)" d="M48.033,43.611V34.88H54.1c1.219,0,2.145,0.078,2.777,0.235c0.634,0.156,1.141,0.434,1.52,0.83
			c0.379,0.397,0.568,0.835,0.568,1.315c0,0.619-0.313,1.142-0.94,1.566c-0.628,0.424-1.598,0.693-2.908,0.81
			c0.478,0.146,0.841,0.292,1.089,0.435c0.528,0.311,1.027,0.698,1.498,1.162l2.365,2.378H57.81l-1.808-1.817
			c-0.528-0.525-0.964-0.926-1.306-1.205c-0.341-0.277-0.647-0.471-0.918-0.58c-0.271-0.108-0.546-0.185-0.825-0.229
			c-0.205-0.026-0.541-0.039-1.006-0.039H49.85v3.87H48.033z M49.85,38.733h3.887c0.826,0,1.472-0.055,1.936-0.163
			c0.465-0.109,0.817-0.282,1.06-0.522c0.241-0.24,0.362-0.501,0.362-0.782c0-0.411-0.234-0.75-0.702-1.016
			c-0.468-0.265-1.207-0.397-2.217-0.397H49.85V38.733z"/>
		<path fill="url(#colour2)" d="M61.697,43.611V34.88h5.141c1.047,0,1.887,0.089,2.52,0.266c0.633,0.178,1.129,0.45,1.487,0.818
			c0.357,0.369,0.536,0.754,0.536,1.155c0,0.374-0.159,0.727-0.478,1.058c-0.319,0.33-0.8,0.598-1.442,0.8
			c0.826,0.155,1.461,0.417,1.906,0.79c0.443,0.373,0.666,0.813,0.666,1.319c0,0.408-0.137,0.788-0.406,1.138
			c-0.271,0.351-0.605,0.621-1.004,0.812s-0.898,0.334-1.499,0.431c-0.601,0.098-1.337,0.146-2.208,0.146H61.697z M63.515,38.56
			h2.959c0.802,0,1.378-0.034,1.726-0.102c0.461-0.088,0.808-0.233,1.042-0.438c0.232-0.204,0.35-0.459,0.35-0.768
			c0-0.292-0.109-0.549-0.327-0.77c-0.218-0.223-0.528-0.374-0.933-0.456s-1.099-0.123-2.083-0.123h-2.733V38.56z M63.515,42.587
			h3.406c0.585,0,0.996-0.014,1.233-0.042c0.417-0.047,0.765-0.126,1.045-0.237s0.51-0.273,0.69-0.485
			c0.181-0.214,0.271-0.458,0.271-0.736c0-0.325-0.13-0.609-0.392-0.85c-0.263-0.24-0.623-0.409-1.087-0.506
			c-0.465-0.098-1.131-0.146-2.003-0.146h-3.164V42.587z"/>
		<path fill="url(#colour2)" d="M78.351,43.611v-3.699l-5.263-5.032h2.181l2.695,2.636c0.507,0.488,0.976,0.978,1.402,1.468
			c0.414-0.452,0.911-0.965,1.491-1.538l2.658-2.565h2.105l-5.453,5.032v3.699H78.351z"/>
	</g>
	<rect x="20.925" y="44.625" fill="#FFFFFF" width="62.25" height="0.3"/>
	<g>
		<path fill="#FFFFFF" d="M21.525,48.762v-2.61h2.905c0.607,0,1.055,0.024,1.343,0.073c0.289,0.048,0.526,0.13,0.711,0.243
			s0.278,0.246,0.278,0.395c0,0.198-0.156,0.357-0.469,0.479c-0.313,0.123-0.767,0.2-1.363,0.234
			c0.236,0.047,0.417,0.094,0.54,0.143c0.258,0.1,0.485,0.21,0.68,0.333l1.144,0.71h-1.091l-0.877-0.541
			c-0.34-0.212-0.597-0.355-0.768-0.429c-0.171-0.074-0.337-0.123-0.498-0.149c-0.161-0.025-0.385-0.038-0.674-0.038h-0.996v1.157
			H21.525z M22.392,47.302h1.868c0.408,0,0.718-0.016,0.929-0.047c0.211-0.033,0.379-0.083,0.502-0.151
			c0.124-0.069,0.186-0.148,0.186-0.24c0-0.131-0.119-0.234-0.355-0.31c-0.236-0.074-0.588-0.113-1.054-0.113h-2.076V47.302z"/>
		<path fill="#FFFFFF" d="M32.335,48.762l2.523-2.61h0.932l2.67,2.61h-0.992l-0.75-0.791h-2.767l-0.708,0.791H32.335z
			 M34.205,47.688h2.246l-0.685-0.723c-0.212-0.222-0.368-0.402-0.466-0.541c-0.085,0.168-0.205,0.333-0.361,0.498L34.205,47.688z"
			/>
		<path fill="#FFFFFF" d="M49.05,47.849l0.866,0.076c-0.192,0.297-0.529,0.519-1.01,0.664c-0.481,0.145-1.066,0.218-1.756,0.218
			c-0.606,0-1.125-0.048-1.555-0.146c-0.43-0.096-0.782-0.252-1.057-0.465c-0.274-0.215-0.411-0.467-0.411-0.758
			c0-0.287,0.137-0.53,0.411-0.729c0.274-0.198,0.645-0.35,1.113-0.45c0.468-0.102,0.991-0.152,1.568-0.152
			c0.631,0,1.174,0.064,1.627,0.192c0.453,0.129,0.771,0.317,0.952,0.565l-0.846,0.078c-0.292-0.36-0.875-0.541-1.751-0.541
			c-0.437,0-0.815,0.038-1.135,0.11c-0.32,0.073-0.576,0.187-0.767,0.341c-0.19,0.154-0.286,0.35-0.286,0.586
			c0,0.357,0.193,0.625,0.579,0.805c0.386,0.179,0.899,0.268,1.541,0.268c0.473,0,0.882-0.055,1.226-0.164
			S48.933,48.07,49.05,47.849z"/>
		<path fill="#FFFFFF" d="M56.398,48.762v-2.61h0.867v2.61H56.398z"/>
		<path fill="#FFFFFF" d="M64.32,48.762v-2.61h0.882l3.451,2.06v-2.06h0.826v2.61h-0.888l-3.445-2.057v2.057H64.32z"/>
		<path fill="#FFFFFF" d="M79.212,47.739v-0.309h2.796v0.971c-0.426,0.135-0.865,0.236-1.319,0.303
			c-0.455,0.068-0.923,0.103-1.401,0.103c-0.641,0-1.212-0.052-1.714-0.157c-0.501-0.104-0.898-0.257-1.19-0.457
			c-0.293-0.201-0.439-0.441-0.439-0.723c0-0.285,0.146-0.533,0.441-0.744c0.296-0.213,0.68-0.368,1.158-0.469
			c0.476-0.1,1.041-0.15,1.692-0.15c0.48,0,0.899,0.029,1.261,0.089c0.359,0.059,0.656,0.142,0.89,0.25s0.407,0.257,0.523,0.445
			l-0.787,0.077c-0.105-0.147-0.239-0.258-0.398-0.33c-0.161-0.074-0.372-0.132-0.634-0.173c-0.262-0.042-0.557-0.063-0.885-0.063
			c-0.478,0-0.888,0.038-1.232,0.114c-0.343,0.076-0.621,0.193-0.829,0.353c-0.21,0.159-0.314,0.354-0.314,0.582
			c0,0.351,0.223,0.612,0.669,0.787c0.447,0.173,1.028,0.261,1.743,0.261c0.341,0,0.69-0.026,1.049-0.081
			c0.357-0.054,0.641-0.117,0.852-0.19v-0.487H79.212z"/>
	</g>
</g>
</svg>