<?xml version="1.0" encoding="utf-8"?>
<!-- Generator: Adobe Illustrator 14.0.0, SVG Export Plug-In . SVG Version: 6.00 Build 43363)  -->
<!DOCTYPE svg PUBLIC "-//W3C//DTD SVG 1.0//EN" "http://www.w3.org/TR/2001/REC-SVG-20010904/DTD/svg10.dtd">
<svg version="1.0" id="Layer_1" xmlns="http://www.w3.org/2000/svg" xmlns:xlink="http://www.w3.org/1999/xlink" x="0px" y="0px"
	 width="800px" height="600px" viewBox="0 0 800 600" enable-background="new 0 0 800 600" xml:space="preserve">
<defs>
   <linearGradient id="colour1">
     <stop offset="100%" stop-color="#E31837"/>
   </linearGradient>
   <linearGradient id="colour2">
     <stop offset="100%" stop-color="#B3B3B3"/>
   </linearGradient>
 </defs>
<path fill="#CCCCCC" d="M137.638,428.523c-5.05-7.006-19.686-11.528-35.181-16.315c-21.87-6.758-44.485-13.745-44.601-29.159
	c-0.188-25.089-0.002-147.753,0-148.989l0.001-0.999h159.152L217,234.072c-0.014,1.297-1.361,129.912-0.002,148.897
	c1.065,14.879-25.778,24.037-49.46,32.117c-13.784,4.703-26.804,9.146-28.139,13.167l-0.617,1.856L137.638,428.523z"/>
<path fill="url(#colour1)" d="M216,383.041c1.667,23.292-73.769,33.503-77.551,44.897C126,410.667,59.047,408.415,58.857,383.041
	s0-148.979,0-148.979H216C216,234.062,214.623,363.795,216,383.041z"/>
<g>
	<path fill="#FFFFFF" d="M216,383.041c-0.292-4.071-0.459-13.1-0.543-24.786L91.996,234.062H58.857c0,0-0.025,16.64-0.048,38.955
		l131.789,132.57C205.042,399.551,216.666,392.339,216,383.041z"/>
</g>
<g>
	<g>
		<path fill-rule="evenodd" clip-rule="evenodd" fill="url(#colour2)" d="M156.058,352.674c-0.485-0.678-0.467-1.39-1.437-2.031
			c-1.142,1.596-2.246,3.189-3.867,4.821c-0.899,0.092-1.757-0.325-2.558-1.417c-0.589-0.421-1.27,0.292-1.859-0.131
			c-0.179-0.61,1.478-1.354,0.421-1.899c-1.231-1.284-2.624-0.592-3.879-1.588c0.484-0.479,0.969-0.96,1.455-1.44
			c-0.407-0.858-2.273-0.019-1.773-1.206c0.3-0.276,0.569-0.591,0.872-0.864c0.299-0.271,0.412,0.031,0.539-0.041
			c1.81-1.013,1.823-1.107,3.022-1.021c0.391,0.028,0.937-0.062,1.322,0.17c1.037,1.214,1.053,1.915,2.513,1.955
			c1.066-0.7,0.807-1.307,1.498-1.979c-0.601-0.273-1.1-1.813-1.771-1.207c-0.667,0.523-1.24-0.091-1.86-0.131
			c0.522-2.265-1.239-4.362-0.259-6.659c0.906-1.223,1.475-2.421,2.704-3.668c-0.92-0.724-1.943-0.217-2.934-0.053
			c-0.938-0.519-1.945-0.196-2.937-0.055c-0.679,0.673-1.356,1.346-2.035,2.019c-1.298,0.109-2.473,0.578-3.807,0.811
			c-0.244,0.044-0.531-0.263-0.785-0.209c-0.428,0.091-0.727,0.551-1.12,0.616c-0.572,0.095-1.343,0.184-1.86-0.132
			c0.76-0.678,1.08-1.326,0.961-1.94c-1.564,0.126-3.01,0.897-4.592,0.603c-0.563-0.104-0.634-0.459-1.278-0.709
			c-0.458-0.175-0.613-0.001-1.076,0.079c-0.461,0.08-1.468-1.575-1.728-1.744c-0.758-0.488-1.607-0.233-2.354-0.63
			c0.606-0.487,0.363-0.916,0.916-1.399c-0.748-0.659-1.562-0.512-2.309-1.17c2.465-1.64-0.871-1.472,0.217-2.685
			c0.941-0.611,1.814-0.384,2.733-0.733c0.951-0.724,1.847-0.79,2.689-0.195c1.519,0.546,2.943,6.082,5.854,3.578
			c-0.199-0.52-1.616-0.95-0.943-1.533c2.939,0.356,4.822-2.69,7.905-1.912c2.208,0.559,4.363,4.821,6.568,1.393
			c-2.267-1.696-4.673-1.694-7.061-1.891c-0.607-0.546-1.488-0.917-2.311-1.167c-0.194-0.059-0.838,0.14-1.075,0.079
			c-0.559-0.143-0.739-0.561-1.279-0.708c-0.209-0.056-0.83,0.142-1.076,0.079c-0.556-0.145-0.737-0.571-1.278-0.709
			c-0.225-0.058-0.197,0.228-0.538,0.038c-0.803-0.442-1.155-0.486-1.859-0.131c0.037,0.621,0.265,1.228,0.114,1.861
			c-0.717-0.268-2.192-0.515-2.6-0.879c-0.285-0.255-0.358,0.096-0.538,0.04c-0.553-0.17-0.98-0.8-1.525-0.958
			c-0.125-0.035-0.666,0.34-0.829,0.328c-0.738-0.054-1.128-0.736-1.525-0.959c-0.61-0.336-1.204-0.391-1.816-0.667
			c-1.048-0.474-2.025-0.78-2.558-1.417c-0.851-1.017-0.441-2.515-1.306-3.645c-1.436-0.093-2.546,0.526-4.012,0.026
			c-0.543-0.187-1.422-1.05-2.018-1.455c-0.854-0.583-1.643-0.915-2.266-1.704c0.821-0.037,1.574-1.011,0.668-1.652
			c-1.43-0.634-1.428,1.563-2.82,1.809c-0.893-1.062-1.998,0.471-2.891-0.592c-0.413-0.504,0.833-1.128,0.669-1.649
			c-0.886-0.159-1.266-1.092-2.019-1.455c-0.796-0.388-1.757-0.053-2.354-0.631c-0.18-0.611,1.479-1.354,0.421-1.898
			c-0.302-1.121-2.046-0.479-1.481-1.495c1.046-1.165,1.811-1.002,2.484-0.981c0.15,0.004,0.425-0.522,0.582-0.577
			c0.547-0.189,1.132,0.004,1.613-0.118c0.672-0.172,1.015-1.034,1.657-0.654c1.685-0.368,2.82,1.963,3.21,3.238
			c0.464-0.465,0.598,0.301,1.031,0.458c0.462,0.168,0.847,0.092,1.323,0.171c0.812,0.136,1.073,0.434,1.815,0.669
			c0.135,0.042,0.657-0.366,0.829-0.328c0.552,0.125,0.759,0.537,1.278,0.708c0.887-0.808,0.254-1.883,0.22-2.686
			c-0.017-0.382,0.444-0.99,0.378-1.363c-0.093-0.527-0.975-0.752-0.696-1.283c0.162-1.003,0.792-2.137,0.756-2.728
			c-0.034-0.542-0.695-0.741-0.16-1.323c0.323-0.349-0.026-0.286,0.044-0.538c0.312-1.113-0.27-2.112,0.511-2.975
			c0.892-0.008,1.704,0.942,2.732-0.733c0.089-1.478-1.529-0.511-2.266-1.704c0.251-1.532-1.038-2.951,0.641-4.587
			c0.39,0.229,0.578,0.799,0.987,0.996c0.127,0.061,0.898-0.163,1.076-0.078c0.384,0.182-0.105,0.853,0.45,1.035
			c0.193,0.063,0.867-0.4,1.119-0.616c-0.677-0.752-1.775-1.473-1.686-2.28c1.039-0.783,0.599-1.67,1.745-1.73
			c0.955-0.807,0.339-1.918,1.498-1.979c0.97,0.642,0.951,1.355,1.438,2.032c0.129-0.391,0.77-0.284,0.829-0.327
			c1.039-0.785,0.257-2.378,1.745-1.73c0.896,0.914,0.282,1.938,0.565,2.896c0.521,0.168,1.156-1.072,1.657-0.655
			c0.512,1.02-0.262,1.969-0.756,2.727c-0.465,0.711,0.137,1.305-0.96,1.939c-1.254,1.172-2.336,0.239-3.648,2.135
			c-0.771,1.465-0.72,3.545-0.642,4.586c0.081,1.091-0.173,2.435,0.812,3.146c1.97-2.306,3.821-3.164,5.684-4.153
			c0.972-1.322,2.786-4.147,4.274-3.248c0.714,0.481,0.006,1.067,0.943,1.533c0.248,0.402,0.827-0.17,1.075-0.079
			c0.417,0.157,0.571,0.844,0.988,0.998c0.162,0.058,0.231-0.208,0.538-0.04c0.426,0.236,0.605,0.48,1.031,0.458
			c0.427-0.021,0.347-0.149,0.786,0.209c0.574,0.471,1.352,1.128,1.729,1.744c0.26,0.43-0.17,0.711-0.089,1.076
			c0.226,1.007,1.112,1.273,1.438,2.032c0.111,0.259-0.561,1.064,0.159,1.323c1.003,0.404,1.332,0.736,1.728,1.742
			c-1.228,1.694-2.704,2.117-3.735,3.211c-1.128,1.196-1.512,3.222-3.577,4.532c1.145,2.754,2.297,4.839,4.269,6.634
			c0.717,0.652,1.836,1.063,2.805,1.664c1.019,0.635,2.031,1.376,3.05,1.915c2.016,1.065,4.202,1.706,5.898,3.042
			c1.537,1.211,3.217,3.52,3.66,4.273c0.176,0.298,0.556,0.455,0.74,0.746c0.898,1.422,1.538,2.64,3.21,3.238
			c0.485-0.479,0.969-0.961,1.453-1.44c0.603-2.359-1.698-1.154-2.147-1.734c-0.756-0.978-2.847-3.054-3.575-3.457
			c-0.692-0.384-1.407-1.231-1.728-1.744c-0.243-0.387,0.223-0.688,0.087-1.073c-0.527,0.46-0.794-0.444-1.278-0.708
			c-0.026-0.016-0.25,0.281-0.291,0.288c-0.12,0.021-0.385-0.442-0.494-0.498c-0.737-0.386-0.872-0.375-1.525-0.958
			c-0.226-0.201-0.48,0.073-0.538,0.04c-0.496-0.295-0.898-0.62-1.525-0.957c-1.824-0.984-3.979-1.985-5.607-3.331
			c-1.375-1.135-2.796-2.89-2.629-3.814c0.026-0.144-0.454-0.357-0.494-0.498c-0.014-0.047,0.28-0.23,0.291-0.289
			c0.029-0.164-0.488-0.331-0.494-0.498c-0.038-1.123,0.764-2.784,1.629-3.59c1.024-0.951,2.416-1.073,3.023-1.022
			c0.288,0.025,0.781-0.15,1.075-0.077c0.564,0.142-1.36,3.254-1.542,2.515c-0.753,0.589-1.077,1.147-1.207,1.691
			c0.214,0.412,0.08,0.614,0.449,1.036c0.196,0.223-0.073,0.486-0.043,0.537c0.887,1.471,3.059,2.695,3.5,2.949
			c0.621,0.356,0.652,0.815,1.279,0.709c0.228-0.039,1.766,1.2,1.773,1.205c0.259,0.232,0.417-0.092,0.537-0.038
			c1.267,0.563,2.252,1.52,3.096,1.375c0.131-0.021,0.367,0.449,0.493,0.499c0.839,0.33,1.691,0.824,2.31,1.167
			c0.664,0.368,1.495,0.677,2.311,1.167c0.533,0.321,1.446,0.634,1.771,1.206c1.652-1.685,3.064-0.423,4.505,0.473
			c-0.679,0.687-1.282,0.42-1.992,1.481c0.725,3.143,3.81,7.096-1.079,9.959c-0.034,0.021-0.204-0.247-0.248-0.25
			c-0.159-0.003-0.414,0.536-0.582,0.578c-0.848,0.211-1.908-0.13-2.645-0.341c-0.811-0.234-1.464-1.396-2.601-0.88
			c-0.088,1.431-0.947,2.917-0.888,4.338c0.658,0.664,2.292,3.395,1.264,4.181c-0.061,0.628,0.007,0.913-0.132,1.611
			c-0.055,0.277-0.254,0.569-0.335,0.828c-0.349,1.108-0.337,2.241-1.048,3.013c-0.314,0.342,0.039,0.313-0.044,0.537
			c-0.214,0.596-0.988,1.384-0.669,1.651C156.251,352.481,156.155,352.577,156.058,352.674z"/>
		<path fill-rule="evenodd" clip-rule="evenodd" fill="url(#colour2)" d="M114.72,315.627c0.962,1.238,3.955-1.186,3.719,0.262
			c-0.66,0.443-1.262,0.189-1.948,0.943c1.145,1.265,2.561-0.812,3.72,0.265c0.691-0.674,0.431-1.279,1.499-1.979
			c0.608,0.185,1.366-1.467,1.905-0.406c-0.907,1.278-1.692,1.075-2.574,2.059c0.213,0.517,0.192,1.053,0.406,1.573
			c0.75-0.451,1.605-2.204,2.283-1.771c0.251,0.871-1.734,1.907-2.37,2.843c0.486,0.677,0.468,1.392,1.437,2.032
			c1.174-0.797-0.431-1.393,0.176-2.148c1.469,0.151,1.511-2.574,2.864-2.347c-0.02,0.981-0.975,2.031-2.124,3.094
			c0.66,0.841-0.017,1.781,1.395,2.567c1.176-0.976-0.65-1.731,0.219-2.686c1.55-0.842,1.542-2.937,2.908-2.883
			c0,1.068-1.195,2.226-2.414,3.382c0.396,0.844,0.197,3.409,1.932,2.53c-0.249-0.873-0.425-1.752-0.319-2.648
			c2.132-0.404,1.824-4.396,4.071-4.036c-1.068,0.702-0.43,1.278-1.499,1.98c2.146,1.784,2.301-3.472,3.939-2.425
			c-0.508,0.572-0.81,1.128-0.668,1.651c1.846-0.329,1.939-2.316,2.95-3.419c0.301,0.333-0.03,0.713,0.451,1.034
			c0.582-0.576,1.163-1.152,1.745-1.73c-0.129-0.256-0.044-0.53,0.334-0.824c-0.248-0.626-0.001-2.643,1.004-2.477
			c0.434,0.502-0.791,1.126-0.132,1.612c1.774-1.376,1.888-2.631,2.458-3.919c0.804-0.032,1.652-0.602,2.529-1.519
			c-0.802-1.093-1.801,0.239-2.689,0.196c0.802-0.592,0.181-1.082,1.207-1.69c0.807-0.063,1.495,1.333,2.398,0.092
			c-0.576-0.594-1.228-0.236-1.772-1.207c-0.158-0.458-0.103-0.85-0.16-1.322c-0.118-0.985-1.194-1.523-1.146-2.321
			c0.046-0.774-0.803-1.523-1.438-2.031c-0.393-0.315-0.908,0.061-1.323-0.172c-0.377-0.211-0.576-0.847-0.988-0.996
			c-0.16-0.057-0.858,0.115-1.075,0.079c-0.405-0.067-0.659-0.157-1.032-0.46c-0.938-0.465-0.229-1.05-0.944-1.531
			c-1.487,0.997,0.703,1.727-0.219,2.686c-0.576,0.502-1.135,0.799-1.657,0.654c1.012-0.875,1.106-1.683,0.466-2.437
			c-1.423,0.993-0.894,1.846-1.833,2.804c-1.242-0.059-2.582,1.087-3.895,1.887c0.611,1.236,1.481-0.687,2.107,0.381
			c-1.806,1.485-4.229,0.165-5.306,2.79c0.31,0.543,1.064,0.211,0.741,0.749c-1.035,0.677-2.001,0.511-3.112,2.094
			c0.538,1.053,1.267-0.231,1.86,0.132c0.033,1.497-4.281,1.701-2.704,3.67c0.771-0.711,1.526-1.232,2.239-1.231
			c-0.623,1.844-3.406,1.623-2.704,3.667c0.944-0.648,1.829-0.582,2.775-1.27c0.082-1.059,0.749-4.149,2.705-3.669
			c-1.087,0.791-1.185,1.512-1.789,2.268c0.399,0.574,0.882,0.104,1.323,0.17c-0.582,0.577-1.163,1.153-1.745,1.73
			c0.425,1.334,1.136-0.829,1.613-0.118c0.098,0.883-2.107,1.933-1.295,2.765c0.557-0.281,1.213-1.779,1.701-1.191
			c0.817,0.563-1.778,1.375-0.959,1.938c0.881,0.106,1.951-2.09,2.775-1.27c-0.433,0.476-1.042,0.967-0.379,1.363
			c0.654-0.362,1.41-1.994,1.991-1.48c-0.326,0.38-0.614,0.757-0.086,1.074c0.777,0.293,1.761-1.931,2.529-1.52
			c-0.572,2.332-2.741,1.968-3.648,2.136c-0.063,0.013-0.238,0.241-0.291,0.288c-0.745,0.675-1.34,0.033-1.86-0.131
			c-0.137-0.045-0.655,0.371-0.829,0.326c-0.637-0.16-1.267-0.689-1.525-0.957c-0.527-1.029,0.058-2.141-0.813-3.145
			c-0.399,0.369-0.758,0.787-1.163,1.151c-0.24,0.22-0.502,0.015-0.537,0.04c-0.51,0.373-1.031,1.555-1.701,1.192
			c0.498-1.193,0.584-2.357,0.015-3.474c-3.171-1.527-6.521-0.857-9.662-2.768c-0.666-0.932-0.78-1.901-1.641-2.817
			c-0.411,0.387-0.522,0.75-0.625,1.113c-1.112-0.565-2.251-0.807-3.474-0.014c0.418,0.593-0.302,1.269,0.116,1.861
			c0.991-1.063,3.283-1.146,3.183,0.302c-0.664-0.6-1.381-0.546-2.15,0.157c0.524,0.762-0.124,1.611,0.609,2.358
			c0.848-0.562,1.706-1.27,2.441-0.445c-0.287,0.555-1.791,1.198-1.206,1.69c1.56-1.191,1.369,2.047,2.601,0.879
			c0.26-1.904,2.619-1.678,3.472,0.014c-0.507,0.572-0.809,1.127-0.669,1.653c0.736-0.286,1.445-0.241,2.195-0.696
			c0.426-0.373,2.099-0.151,1.57,0.42C116.402,314.65,115.573,315,114.72,315.627z"/>
		<path fill-rule="evenodd" clip-rule="evenodd" fill="url(#colour2)" d="M119.244,302.744c-2.668,1.888,2.552,3.196,1.466,4.969
			c-0.412-0.416-0.823-0.83-1.235-1.245c-0.77,0.679-0.532,1.285-0.422,1.898c0.686,0.345,1.262,1.993,2.019,1.456
			c-0.494-0.823,0.937-1.52,1.251-2.227c0.055-0.124-0.237-0.629-0.203-0.788c0.09-0.409,0.767-0.731,0.625-1.112
			c0.679-0.674,1.357-1.346,2.036-2.018c-0.416-0.234,0.314-0.561,0.334-0.826c0.056-0.774-0.259-1.093-0.407-1.572
			c-0.036-0.12,0.351-0.667,0.335-0.827c-0.039-0.401-0.412-0.686-0.45-1.035c-0.016-0.153,0.304-0.656,0.335-0.826
			c0.029-0.166-0.492-0.329-0.494-0.498c-0.009-0.907,0.239-2.085,0.51-2.975c0.302-0.993,0.892-2.156,1.832-2.805
			c1.076-0.543,3.069-0.698,3.402-2.384c-0.399-0.576-0.882-0.104-1.323-0.17c1.093-1.201,0.237-2.259-0.856-2.608
			c-1.461,0.102-0.084,1.361-1.25,2.227c-0.347-0.597,0.384-1.274-0.653-1.821c-1.057,0.933-1.923-0.45-2.979,0.483
			c0.128,0.258,0.043,0.531-0.335,0.826c0.657,0.843,2.245,1.617,1.395,2.569c-2.083,2.063-1.68-0.175-2.936-0.053
			c0.432,0.681-1.536,1.537-1.251,2.229c0.712,1.1,1.577,0.331,2.311,1.166c0.192,0.52,0.148,1.059-0.131,1.612
			c-1.132,2.085-2.859,0.65-3.111,2.096c0.735,1.104,3.014,2.097,2.134,3.316c-0.576-0.581-1.151-1.162-1.729-1.744
			c-0.411,0.387-0.521,0.75-0.625,1.114c0.123,0.193,0.384,0.298,0.493,0.498c0.068,0.124,0.008,0.608-0.044,0.539
			c0.631,0.85,2.6,2.175,1.147,2.319C121.046,303.861,119.51,303.35,119.244,302.744z"/>
		<path fill-rule="evenodd" clip-rule="evenodd" fill="url(#colour2)" d="M144.219,311.074c-1.173,1.257-1.093,3.45-0.35,4.299
			c0.203,0.231-0.082,0.47-0.045,0.536c0.633,1.124,3.052,2.681,3.501,2.949c1.179,0.709,1.539,1.396,2.514,1.955
			c0.025,0.013,0.251-0.283,0.291-0.29c0.121-0.02,0.382,0.441,0.493,0.497c0.978,0.499,2.604,1.462,3.094,1.379
			c0.122-0.021,0.384,0.442,0.494,0.498c1.581,0.805,2.914,1.727,4.082,2.373c0.882,0.488,1.567-0.197,2.442-0.445
			c-3.517-2.165-8.378-3.845-11.55-5.835c-1.582-0.991-3.372-2.919-3.951-3.984c-0.38-0.702-0.699-0.989-0.406-1.573
			c-0.665-0.752,0.761-1.657,1.542-2.516c0.62,0.034,1.195,0.637,1.816,0.668c0.747,0.837-0.343,1.807,0.319,2.647
			c0.535-0.002,1.149-0.986,1.613-0.116c0.506,0.652,1.064,1.353,1.729,1.743c0.684,0.402,1.68,1.133,2.644,0.342
			C151.896,312.985,147.761,307.278,144.219,311.074z"/>
		<path fill-rule="evenodd" clip-rule="evenodd" fill="url(#colour2)" d="M128.124,331.475c1.481,0.781,0.172,1.768,1.395,2.567
			c0.75,0.621,1.644-0.502,2.441-0.443c-0.284,0.728-0.568,1.668,0.407,1.572c0.688,0.293,1.433-0.105,2.192-0.692
			c1.328,1.207,2.908-0.688,4.302-0.314c-0.813,0.949-2.022,1.929-1.293,2.764c1.764-0.422,1.745-3.287,3.444-2.92
			c-0.713,0.765-1.449,1.529-0.712,2.188c0.941-0.628,1.995-2.604,2.863-2.345c-0.38,0.651-1.081,1.325-0.961,1.94
			c0.806-0.034,1.707-1.258,2.574-2.059c0.582-0.569,1.043,0.314,1.657-0.654c-0.457-1.012-1.417-0.444-1.568-0.419
			c-0.145,0.023-0.355-0.458-0.494-0.5c-0.048-0.013-0.234,0.279-0.292,0.29c-0.16,0.026-0.333-0.479-0.494-0.497
			c-0.78-0.095-2.813,0.919-2.397-0.095c1.063-1.081,3.253-0.979,4.055-0.563c1.625,0.847,2.048,1.087,2.76,2.203
			c1.337-0.014,2.654,0.216,4.055-0.563c0.13-1.522-0.164-3.014-2.047-4.391c-0.801,0.594-0.18,1.081-1.207,1.689
			c-0.256-0.129-0.531-0.048-0.828,0.327c-2.247,0.231-4.252-2.478-6.437-3.002c-1.744,0.632-3.482,1.188-5.263,2.253
			c0.2,0.52,1.618,0.95,0.945,1.533c-1.301-0.699-2.741,1.076-4.301,0.314c-1.544-0.757-1.998-2.506-2.875-4.064
			c-0.192,0.163-0.381,0.305-0.538,0.039c-0.829-0.76-1.746-0.441-2.733,0.734c0.717,1.037,1.638-0.41,2.354,0.629
			c-0.744,0.459-1.644,0.22-1.699,1.192c0.489,0.856,2.471-0.138,2.062,0.918C129.068,330.833,128.572,331.457,128.124,331.475z"/>
	</g>
	<path fill-rule="evenodd" clip-rule="evenodd" d="M139.562,299.396c1.564-0.78-0.462,3.117,1.481,1.495
		c0.912,0.645-0.13,1.433,0.362,2.11c-1.252,0.884-0.501-2.32-1.816-0.671C138.681,301.418,139.66,300.368,139.562,299.396z"/>
	<path fill-rule="evenodd" clip-rule="evenodd" d="M137.992,298.977c1.134-0.639,0.324,0.994,0.697,1.284
		C137.556,300.899,137.986,299.292,137.992,298.977z"/>
	<path fill-rule="evenodd" clip-rule="evenodd" d="M134.431,300.036c0.914-0.22,2.45,1.762,2.469,2.49
		c-0.275,0.423-0.544-0.267-0.784-0.21c-0.401,0.098-1.231,1.585-1.904,0.407c0.067-0.451,0.392-0.92,0.916-1.403
		C134.489,300.923,134.673,300.463,134.431,300.036z"/>
	<path fill-rule="evenodd" clip-rule="evenodd" d="M140.648,305.726c-0.465,0.246-0.914,0.273-1.323-0.171
		c-0.5-0.417-1.136,0.823-1.657,0.655c-1.444-0.696,1.079-1.681-0.071-2.398C138.738,302.936,139.637,305.017,140.648,305.726z"/>
	<path fill-rule="evenodd" clip-rule="evenodd" d="M133.444,299.039c0.404,0.772-1.829,1.736-1.542,2.518
		c-0.384,0.829-0.158,1.612,0.609,2.357c-1.902,1.306-0.618,2.536,0.565,2.897c0.732-0.588,1.034-1.145,0.67-1.651
		c0.673-0.606,1.17,0.936,1.771,1.207c-0.58,0.568-1.042-0.314-1.656,0.653c-0.535,1.27,1.366,2.911,2.601,0.881
		c1.393,1.485,2.963,0.804,4.636-1.141c0.707,1.07-1.546,2.354-2.37,2.845c-0.78-0.271-1.615,0.14-2.354-0.632
		c-0.69,0.826-1.342,1.149-1.904,0.406c-1.86,1.712-2.256,1.883-3.78,3.747c-1.378,0.323-3.791-2.11-3.456-3.486
		c1.688-1.494,2.237-1.715,3.489-3.458c0.459-0.657-0.727-1.194,0.422-1.901c0.286-0.732-0.333-1.399-0.362-2.11
		c0.508-0.481,0.569-0.931,0.379-1.362C131.936,300.045,132.729,299.068,133.444,299.039z M128.6,309.273
		c-1.578,1.03,1.426,4.061,2.469,2.49C130.369,310.483,129.873,309.985,128.6,309.273z"/>
	<path fill-rule="evenodd" clip-rule="evenodd" d="M129.664,302.787c0.314,1.093-1.483,1.089-1.991,1.48
		C127.358,303.174,129.155,303.179,129.664,302.787z"/>
	<path fill-rule="evenodd" clip-rule="evenodd" d="M137.318,310.508c0.252,0.783-0.105,1.61-1.004,2.477
		C136.062,312.201,136.419,311.375,137.318,310.508z"/>
	<path fill-rule="evenodd" clip-rule="evenodd" d="M127.584,305.343c0.339,0.798-1.559,2.026-1.947,0.941
		C126.322,305.529,126.925,305.784,127.584,305.343z"/>
	<path fill-rule="evenodd" clip-rule="evenodd" d="M134.745,312.565c0.287,0.69-0.117,1.432-0.712,2.188
		C133.127,314.106,133.864,313.342,134.745,312.565z"/>
	<path fill-rule="evenodd" clip-rule="evenodd" d="M156.058,352.674c-0.485-0.678-0.467-1.39-1.437-2.031
		c-1.142,1.596-2.246,3.189-3.867,4.821c-0.899,0.092-1.757-0.325-2.558-1.417c-0.589-0.421-1.27,0.292-1.859-0.131
		c-0.179-0.61,1.478-1.354,0.421-1.899c-1.231-1.284-2.624-0.592-3.879-1.588c0.484-0.479,0.969-0.96,1.455-1.44
		c-0.407-0.858-2.273-0.019-1.773-1.206c0.3-0.276,0.569-0.591,0.872-0.864c0.299-0.271,0.412,0.031,0.539-0.041
		c1.81-1.013,1.823-1.107,3.022-1.021c0.391,0.028,0.937-0.062,1.322,0.17c1.037,1.214,1.053,1.915,2.513,1.955
		c1.066-0.7,0.807-1.307,1.498-1.979c-0.601-0.273-1.1-1.813-1.771-1.207c-0.667,0.523-1.24-0.091-1.86-0.131
		c0.522-2.265-1.239-4.362-0.259-6.659c0.906-1.223,1.475-2.421,2.704-3.668c-0.92-0.724-1.943-0.217-2.934-0.053
		c-0.938-0.519-1.945-0.196-2.937-0.055c-0.679,0.673-1.356,1.346-2.035,2.019c-1.298,0.109-2.473,0.578-3.807,0.811
		c-0.244,0.044-0.531-0.263-0.785-0.209c-0.428,0.091-0.727,0.551-1.12,0.616c-0.572,0.095-1.343,0.184-1.86-0.132
		c0.76-0.678,1.08-1.326,0.961-1.94c-1.564,0.126-3.01,0.897-4.592,0.603c-0.563-0.104-0.634-0.459-1.278-0.709
		c-0.458-0.175-0.613-0.001-1.076,0.079c-0.461,0.08-1.468-1.575-1.728-1.744c-0.758-0.488-1.607-0.233-2.354-0.63
		c0.606-0.487,0.363-0.916,0.916-1.399c-0.748-0.659-1.562-0.512-2.309-1.17c2.465-1.64-0.871-1.472,0.217-2.685
		c0.941-0.611,1.814-0.384,2.733-0.733c0.951-0.724,1.847-0.79,2.689-0.195c1.519,0.546,2.943,6.082,5.854,3.578
		c-0.199-0.52-1.616-0.95-0.943-1.533c2.939,0.356,4.822-2.69,7.905-1.912c2.208,0.559,4.363,4.821,6.568,1.393
		c-2.267-1.696-4.673-1.694-7.061-1.891c-0.607-0.546-1.488-0.917-2.311-1.167c-0.194-0.059-0.838,0.14-1.075,0.079
		c-0.559-0.143-0.739-0.561-1.279-0.708c-0.209-0.056-0.83,0.142-1.076,0.079c-0.556-0.145-0.737-0.571-1.278-0.709
		c-0.225-0.058-0.197,0.228-0.538,0.038c-0.803-0.442-1.155-0.486-1.859-0.131c0.037,0.621,0.265,1.228,0.114,1.861
		c-0.717-0.268-2.192-0.515-2.6-0.879c-0.285-0.255-0.358,0.096-0.538,0.04c-0.553-0.17-0.98-0.8-1.525-0.958
		c-0.125-0.035-0.666,0.34-0.829,0.328c-0.738-0.054-1.128-0.736-1.525-0.959c-0.61-0.336-1.204-0.391-1.816-0.667
		c-1.048-0.474-2.025-0.78-2.558-1.417c-0.851-1.017-0.441-2.515-1.306-3.645c-1.436-0.093-2.546,0.526-4.012,0.026
		c-0.543-0.187-1.422-1.05-2.018-1.455c-0.854-0.583-1.643-0.915-2.266-1.704c0.821-0.037,1.574-1.011,0.668-1.652
		c-1.43-0.634-1.428,1.563-2.82,1.809c-0.893-1.062-1.998,0.471-2.891-0.592c-0.413-0.504,0.833-1.128,0.669-1.649
		c-0.886-0.159-1.266-1.092-2.019-1.455c-0.796-0.388-1.757-0.053-2.354-0.631c-0.18-0.611,1.479-1.354,0.421-1.898
		c-0.302-1.121-2.046-0.479-1.481-1.495c1.046-1.165,1.811-1.002,2.484-0.981c0.15,0.004,0.425-0.522,0.582-0.577
		c0.547-0.189,1.132,0.004,1.613-0.118c0.672-0.172,1.015-1.034,1.657-0.654c1.685-0.368,2.82,1.963,3.21,3.238
		c0.464-0.465,0.598,0.301,1.031,0.458c0.462,0.168,0.847,0.092,1.323,0.171c0.812,0.136,1.073,0.434,1.815,0.669
		c0.135,0.042,0.657-0.366,0.829-0.328c0.552,0.125,0.759,0.537,1.278,0.708c0.887-0.808,0.254-1.883,0.22-2.686
		c-0.017-0.382,0.444-0.99,0.378-1.363c-0.093-0.527-0.975-0.752-0.696-1.283c0.162-1.003,0.792-2.137,0.756-2.728
		c-0.034-0.542-0.695-0.741-0.16-1.323c0.323-0.349-0.026-0.286,0.044-0.538c0.312-1.113-0.27-2.112,0.511-2.975
		c0.892-0.008,1.704,0.942,2.732-0.733c0.089-1.478-1.529-0.511-2.266-1.704c0.251-1.532-1.038-2.951,0.641-4.587
		c0.39,0.229,0.578,0.799,0.987,0.996c0.127,0.061,0.898-0.163,1.076-0.078c0.384,0.182-0.105,0.853,0.45,1.035
		c0.193,0.063,0.867-0.4,1.119-0.616c-0.677-0.752-1.775-1.473-1.686-2.28c1.039-0.783,0.599-1.67,1.745-1.73
		c0.955-0.807,0.339-1.918,1.498-1.979c0.97,0.642,0.951,1.355,1.438,2.032c0.129-0.391,0.77-0.284,0.829-0.327
		c1.039-0.785,0.257-2.378,1.745-1.73c0.896,0.914,0.282,1.938,0.565,2.896c0.521,0.168,1.156-1.072,1.657-0.655
		c0.512,1.02-0.262,1.969-0.756,2.727c-0.465,0.711,0.137,1.305-0.96,1.939c-1.254,1.172-2.336,0.239-3.648,2.135
		c-0.771,1.465-0.72,3.545-0.642,4.586c0.081,1.091-0.173,2.435,0.812,3.146c1.97-2.306,3.821-3.164,5.684-4.153
		c0.972-1.322,2.786-4.147,4.274-3.248c0.714,0.481,0.006,1.067,0.943,1.533c0.248,0.402,0.827-0.17,1.075-0.079
		c0.417,0.157,0.571,0.844,0.988,0.998c0.162,0.058,0.231-0.208,0.538-0.04c0.426,0.236,0.605,0.48,1.031,0.458
		c0.427-0.021,0.347-0.149,0.786,0.209c0.574,0.471,1.352,1.128,1.729,1.744c0.26,0.43-0.17,0.711-0.089,1.076
		c0.226,1.007,1.112,1.273,1.438,2.032c0.111,0.259-0.561,1.064,0.159,1.323c1.003,0.404,1.332,0.736,1.728,1.742
		c-1.228,1.694-2.704,2.117-3.735,3.211c-1.128,1.196-1.512,3.222-3.577,4.532c1.145,2.754,2.297,4.839,4.269,6.634
		c0.717,0.652,1.836,1.063,2.805,1.664c1.019,0.635,2.031,1.376,3.05,1.915c2.016,1.065,4.202,1.706,5.898,3.042
		c1.537,1.211,3.217,3.52,3.66,4.273c0.176,0.298,0.556,0.455,0.74,0.746c0.898,1.422,1.538,2.64,3.21,3.238
		c0.485-0.479,0.969-0.961,1.453-1.44c-0.582-0.651-0.219-1.312-1.233-1.245c-0.594-0.364-1.353,1.299-1.86-0.133
		c1.042-0.764,2.027-0.832,2.979-0.482c0.323,0.776,1.17,1.517,0.609,2.359c-1.197,1.564-2.264,1.546-3.314,1.308
		c-2.673-2.686-3.967-5.88-7.072-8.297c-0.284-0.221-0.524-0.053-0.785-0.21c-1.058-0.635-1.491-1.28-2.267-1.704
		c-0.025-0.014-0.25,0.281-0.291,0.287c-0.125,0.023-0.641-0.658-0.74-0.746c-0.251-0.224-0.435,0.09-0.537,0.039
		c-1.762-0.857-3.132-1.951-4.577-2.871c-1.133-0.721-2.448-1.305-3.296-2.163c-0.458-0.463-0.328-0.788-0.697-1.284
		c-1.231-1.657-2.022-2.354-2.629-3.814c-1.353,1.656-2.875,1.76-3.489,3.458c-0.796-0.059-1.69,1.064-2.441,0.445
		c-0.71,1.061-1.312,0.796-1.992,1.481c-0.756-0.556-1.586-0.205-2.484,0.981c-0.418,1.003,0.25,3.65,1.597,3.354
		c0.235-0.661-0.896-2.575-0.072-2.396c1.353,0.931,0.213,2.993,1.888,3.066c0.854,0.094,0.387-1.521,1.745-1.73
		c0.839,0.56,1.872,0.364,2.354,0.631c0.188,0.104,0.287,0.428,0.494,0.498c0.179,0.061,0.848-0.143,1.076-0.078
		c1.043,0.295,2.046,0.94,2.847,1.127c0.227,0.052,0.816-0.143,1.074-0.078c0.604,0.154,1.187,0.515,1.817,0.669
		c3.383,0.832,6.992,0.762,9.778,4.629c0.017,1.521,0.16,2.647-0.599,4.05c-0.87,1.61-2.706,3.084-3.284,4.244
		c0.282,0.96-0.332,1.983,0.564,2.897c0.656,0.931-0.236,1.976,0.566,2.896c0.534-0.003,1.151-0.985,1.613-0.117
		c0.494,0.498,0.987,0.997,1.482,1.495c-0.886,1.043-0.576,2-2.124,3.092c-1.276,0.349-2.389-1.304-3.545-2.412
		c-0.859,0.318-2.372-0.016-2.528,1.52c0.813,0.943,1.851-0.86,2.644,0.342c-1.746,0.158-0.905,1.635-1.003,2.477
		c0.889,1.108,2.064-1.281,2.936,0.053c-0.472,0.312-0.907,0.196-1.411,0.905c0.475,0.717,1.067,0.015,1.526,0.956
		c-0.285,0.733-0.551,1.464,0.362,2.11c1.723-0.761,3.568-3.568,4.157-5.11c0.577,0.582,1.152,1.163,1.729,1.744
		c2.109-1.579-1.676-2.728-0.725-4.221c0.773,0.357,1.404,2.462,2.311,1.166c0.295-1.177-2.674-2.118-1.597-3.354
		c0.685,0.344,1.264,1.993,2.019,1.456c0.173-0.818-0.199-0.935-0.653-1.822c-0.308-0.604-1.458-1.018-0.652-1.822
		c0.684,0.34,1.245,2.196,2.063,0.918c0.078-0.896-1.218-1.692-1.931-2.53c0.15-0.914-0.197-1.841-0.072-2.397
		c0.088-0.397,0.538-0.766,0.625-1.113c0.018-0.074-0.246-0.175-0.248-0.25c-0.002-0.148,0.526-0.42,0.582-0.578
		c0.088-0.242-0.012-0.796,0.088-1.072c0.172-0.479,0.287-1.519,0.917-1.403c2.46,3.056,5.388,2.959,7.192,0.278
		c0.336-0.502,0.453-2.421,0.219-2.688c-0.262-0.3,0.088-0.321,0.044-0.538c-0.133-0.635-0.729-1.03-0.944-1.533
		c-0.014-0.034,0.282-0.24,0.291-0.288c0.103-0.573-1.059-1.09-0.944-1.534c-0.121-0.88,1.2-1.865,0.757-2.725
		c-0.753,0.321-1.456,0.188-1.904,0.405c-0.292,0.141-0.573,0.583-0.829,0.327c-1.303-0.419-2.627-0.559-4.055,0.563
		c1.218,1.449,2.696-0.286,3.924,1.048c-0.808,0.06-1.614,0.123-2.443,0.446c0.843,1.824,3.38-0.123,3.341,1.626
		c-0.562-0.743-1.243-0.041-1.903,0.406c0.245,0.338,0.75,0.656,0.45,1.035c-0.78-0.878-1.772-1.661-2.222-2.241
		c-0.756-0.978-0.26-0.594-0.988-0.997c-0.692-0.384-1.407-1.231-1.728-1.744c-0.243-0.387,0.223-0.688,0.087-1.073
		c-0.527,0.46-0.794-0.444-1.278-0.708c-0.026-0.016-0.25,0.281-0.291,0.288c-0.12,0.021-0.385-0.442-0.494-0.498
		c-0.737-0.386-0.872-0.375-1.525-0.958c-0.226-0.201-0.48,0.073-0.538,0.04c-0.496-0.295-0.898-0.62-1.525-0.957
		c-1.824-0.984-3.979-1.985-5.607-3.331c-1.375-1.135-2.796-2.89-2.629-3.814c0.026-0.144-0.454-0.357-0.494-0.498
		c-0.014-0.047,0.28-0.23,0.291-0.289c0.029-0.164-0.488-0.331-0.494-0.498c-0.038-1.123,0.764-2.784,1.629-3.59
		c1.024-0.951,2.416-1.073,3.023-1.022c0.288,0.025,0.781-0.15,1.075-0.077c0.564,0.142,1.661,0.65,2.063,0.918
		c1.612,1.069,2.896,3.468,3.66,4.273c0.873,0.921,1.866,2.021,3.007,2.452c-2.501,1.156-5.994,0.76-7.308-2.139
		c-0.833,0.377-1.615,0.143-2.354-0.629c-0.403-0.418,0.667-0.94,0.378-1.364c0.708-1.027-0.806-0.258-0.988-0.997
		c-0.753,0.589-1.077,1.147-1.207,1.691c0.214,0.412,0.08,0.614,0.449,1.036c0.196,0.223-0.073,0.486-0.043,0.537
		c0.887,1.471,3.059,2.695,3.5,2.949c0.621,0.356,0.652,0.815,1.279,0.709c0.228-0.039,1.766,1.2,1.773,1.205
		c0.259,0.232,0.417-0.092,0.537-0.038c1.267,0.563,2.252,1.52,3.096,1.375c0.131-0.021,0.367,0.449,0.493,0.499
		c0.839,0.33,1.691,0.824,2.31,1.167c0.664,0.368,1.495,0.677,2.311,1.167c0.533,0.321,1.446,0.634,1.771,1.206
		c1.652-1.685,3.064-0.423,4.505,0.473c-0.679,0.687-1.282,0.42-1.992,1.481c0.725,3.143,3.81,7.096-1.079,9.959
		c-0.034,0.021-0.204-0.247-0.248-0.25c-0.159-0.003-0.414,0.536-0.582,0.578c-0.848,0.211-1.908-0.13-2.645-0.341
		c-0.811-0.234-1.464-1.396-2.601-0.88c-0.088,1.431-0.947,2.917-0.888,4.338c0.658,0.664,1.316,1.328,1.975,1.992
		c-0.61,0.758,0.317,1.402-0.711,2.188c-0.061,0.628,0.007,0.913-0.132,1.611c-0.055,0.277-0.254,0.569-0.335,0.828
		c-0.349,1.108-0.337,2.241-1.048,3.013c-0.314,0.342,0.039,0.313-0.044,0.537c-0.214,0.596-0.988,1.384-0.669,1.651
		C156.251,352.481,156.155,352.577,156.058,352.674z M114.72,315.627c0.962,1.238,3.955-1.186,3.719,0.262
		c-0.66,0.443-1.262,0.189-1.948,0.943c1.145,1.265,2.561-0.812,3.72,0.265c0.691-0.674,0.431-1.279,1.499-1.979
		c0.608,0.185,1.366-1.467,1.905-0.406c-0.907,1.278-1.692,1.075-2.574,2.059c0.213,0.517,0.192,1.053,0.406,1.573
		c0.75-0.451,1.605-2.204,2.283-1.771c0.251,0.871-1.734,1.907-2.37,2.843c0.486,0.677,0.468,1.392,1.437,2.032
		c1.174-0.797-0.431-1.393,0.176-2.148c1.469,0.151,1.511-2.574,2.864-2.347c-0.02,0.981-0.975,2.031-2.124,3.094
		c0.66,0.841-0.017,1.781,1.395,2.567c1.176-0.976-0.65-1.731,0.219-2.686c1.55-0.842,1.542-2.937,2.908-2.883
		c0,1.068-1.195,2.226-2.414,3.382c0.396,0.844,0.197,3.409,1.932,2.53c-0.249-0.873-0.425-1.752-0.319-2.648
		c2.132-0.404,1.824-4.396,4.071-4.036c-1.068,0.702-0.43,1.278-1.499,1.98c2.146,1.784,2.301-3.472,3.939-2.425
		c-0.508,0.572-0.81,1.128-0.668,1.651c1.846-0.329,1.939-2.316,2.95-3.419c0.301,0.333-0.03,0.713,0.451,1.034
		c0.582-0.576,1.163-1.152,1.745-1.73c-0.129-0.256-0.044-0.53,0.334-0.824c-0.248-0.626-0.001-2.643,1.004-2.477
		c0.434,0.502-0.791,1.126-0.132,1.612c1.774-1.376,1.888-2.631,2.458-3.919c0.804-0.032,1.652-0.602,2.529-1.519
		c-0.802-1.093-1.801,0.239-2.689,0.196c0.802-0.592,0.181-1.082,1.207-1.69c0.807-0.063,1.495,1.333,2.398,0.092
		c-0.576-0.594-1.228-0.236-1.772-1.207c-0.158-0.458-0.103-0.85-0.16-1.322c-0.118-0.985-1.194-1.523-1.146-2.321
		c0.046-0.774-0.803-1.523-1.438-2.031c-0.393-0.315-0.908,0.061-1.323-0.172c-0.377-0.211-0.576-0.847-0.988-0.996
		c-0.16-0.057-0.858,0.115-1.075,0.079c-0.405-0.067-0.659-0.157-1.032-0.46c-0.938-0.465-0.229-1.05-0.944-1.531
		c-1.487,0.997,0.703,1.727-0.219,2.686c-0.576,0.502-1.135,0.799-1.657,0.654c1.012-0.875,1.106-1.683,0.466-2.437
		c-1.423,0.993-0.894,1.846-1.833,2.804c-1.242-0.059-2.582,1.087-3.895,1.887c0.611,1.236,1.481-0.687,2.107,0.381
		c-1.806,1.485-4.229,0.165-5.306,2.79c0.31,0.543,1.064,0.211,0.741,0.749c-1.035,0.677-2.001,0.511-3.112,2.094
		c0.538,1.053,1.267-0.231,1.86,0.132c0.033,1.497-4.281,1.701-2.704,3.67c0.771-0.711,1.526-1.232,2.239-1.231
		c-0.623,1.844-3.406,1.623-2.704,3.667c0.944-0.648,1.829-0.582,2.775-1.27c0.082-1.059,0.749-4.149,2.705-3.669
		c-1.087,0.791-1.185,1.512-1.789,2.268c0.399,0.574,0.882,0.104,1.323,0.17c-0.582,0.577-1.163,1.153-1.745,1.73
		c0.425,1.334,1.136-0.829,1.613-0.118c0.098,0.883-2.107,1.933-1.295,2.765c0.557-0.281,1.213-1.779,1.701-1.191
		c0.817,0.563-1.778,1.375-0.959,1.938c0.881,0.106,1.951-2.09,2.775-1.27c-0.433,0.476-1.042,0.967-0.379,1.363
		c0.654-0.362,1.41-1.994,1.991-1.48c-0.326,0.38-0.614,0.757-0.086,1.074c0.777,0.293,1.761-1.931,2.529-1.52
		c-0.572,2.332-2.741,1.968-3.648,2.136c-0.063,0.013-0.238,0.241-0.291,0.288c-0.745,0.675-1.34,0.033-1.86-0.131
		c-0.137-0.045-0.655,0.371-0.829,0.326c-0.637-0.16-1.267-0.689-1.525-0.957c-0.527-1.029,0.058-2.141-0.813-3.145
		c-0.399,0.369-0.758,0.787-1.163,1.151c-0.24,0.22-0.502,0.015-0.537,0.04c-0.51,0.373-1.031,1.555-1.701,1.192
		c0.498-1.193,0.584-2.357,0.015-3.474c-3.171-1.527-6.521-0.857-9.662-2.768c-0.666-0.932-0.78-1.901-1.641-2.817
		c-0.411,0.387-0.522,0.75-0.625,1.113c-1.112-0.565-2.251-0.807-3.474-0.014c0.418,0.593-0.302,1.269,0.116,1.861
		c0.991-1.063,3.283-1.146,3.183,0.302c-0.664-0.6-1.381-0.546-2.15,0.157c0.524,0.762-0.124,1.611,0.609,2.358
		c0.848-0.562,1.706-1.27,2.441-0.445c-0.287,0.555-1.791,1.198-1.206,1.69c1.56-1.191,1.369,2.047,2.601,0.879
		c0.26-1.904,2.619-1.678,3.472,0.014c-0.507,0.572-0.809,1.127-0.669,1.653c0.736-0.286,1.445-0.241,2.195-0.696
		c0.426-0.373,2.099-0.151,1.57,0.42C116.402,314.65,115.573,315,114.72,315.627z M119.244,302.744
		c-2.668,1.888,2.552,3.196,1.466,4.969c-0.412-0.416-0.823-0.83-1.235-1.245c-0.77,0.679-0.532,1.285-0.422,1.898
		c0.686,0.345,1.262,1.993,2.019,1.456c-0.494-0.823,0.937-1.52,1.251-2.227c0.055-0.124-0.237-0.629-0.203-0.788
		c0.09-0.409,0.767-0.731,0.625-1.112c0.679-0.674,1.357-1.346,2.036-2.018c-0.416-0.234,0.314-0.561,0.334-0.826
		c0.056-0.774-0.259-1.093-0.407-1.572c-0.036-0.12,0.351-0.667,0.335-0.827c-0.039-0.401-0.412-0.686-0.45-1.035
		c-0.016-0.153,0.304-0.656,0.335-0.826c0.029-0.166-0.492-0.329-0.494-0.498c-0.009-0.907,0.239-2.085,0.51-2.975
		c0.302-0.993,0.892-2.156,1.832-2.805c1.076-0.543,3.069-0.698,3.402-2.384c-0.399-0.576-0.882-0.104-1.323-0.17
		c1.093-1.201,0.237-2.259-0.856-2.608c-1.461,0.102-0.084,1.361-1.25,2.227c-0.347-0.597,0.384-1.274-0.653-1.821
		c-1.057,0.933-1.923-0.45-2.979,0.483c0.128,0.258,0.043,0.531-0.335,0.826c0.657,0.843,2.245,1.617,1.395,2.569
		c-2.083,2.063-1.68-0.175-2.936-0.053c0.432,0.681-1.536,1.537-1.251,2.229c0.712,1.1,1.577,0.331,2.311,1.166
		c0.192,0.52,0.148,1.059-0.131,1.612c-1.132,2.085-2.859,0.65-3.111,2.096c0.735,1.104,3.014,2.097,2.134,3.316
		c-0.576-0.581-1.151-1.162-1.729-1.744c-0.411,0.387-0.521,0.75-0.625,1.114c0.123,0.193,0.384,0.298,0.493,0.498
		c0.068,0.124,0.008,0.608-0.044,0.539c0.631,0.85,2.6,2.175,1.147,2.319C121.046,303.861,119.51,303.35,119.244,302.744z
		 M144.219,311.074c-1.173,1.257-1.093,3.45-0.35,4.299c0.203,0.231-0.082,0.47-0.045,0.536c0.633,1.124,3.052,2.681,3.501,2.949
		c1.179,0.709,1.539,1.396,2.514,1.955c0.025,0.013,0.251-0.283,0.291-0.29c0.121-0.02,0.382,0.441,0.493,0.497
		c0.978,0.499,2.604,1.462,3.094,1.379c0.122-0.021,0.384,0.442,0.494,0.498c1.581,0.805,2.914,1.727,4.082,2.373
		c0.882,0.488,1.567-0.197,2.442-0.445c-3.517-2.165-8.378-3.845-11.55-5.835c-1.582-0.991-3.372-2.919-3.951-3.984
		c-0.38-0.702-0.699-0.989-0.406-1.573c-0.665-0.752,0.761-1.657,1.542-2.516c0.62,0.034,1.195,0.637,1.816,0.668
		c0.747,0.837-0.343,1.807,0.319,2.647c0.535-0.002,1.149-0.986,1.613-0.116c0.506,0.652,1.064,1.353,1.729,1.743
		c0.684,0.402,1.68,1.133,2.644,0.342C151.896,312.985,147.761,307.278,144.219,311.074z M128.124,331.475
		c1.481,0.781,0.172,1.768,1.395,2.567c0.75,0.621,1.644-0.502,2.441-0.443c-0.284,0.728-0.568,1.668,0.407,1.572
		c0.688,0.293,1.433-0.105,2.192-0.692c1.328,1.207,2.908-0.688,4.302-0.314c-0.813,0.949-2.022,1.929-1.293,2.764
		c1.764-0.422,1.745-3.287,3.444-2.92c-0.713,0.765-1.449,1.529-0.712,2.188c0.941-0.628,1.995-2.604,2.863-2.345
		c-0.38,0.651-1.081,1.325-0.961,1.94c0.806-0.034,1.707-1.258,2.574-2.059c0.582-0.569,1.043,0.314,1.657-0.654
		c-0.457-1.012-1.417-0.444-1.568-0.419c-0.145,0.023-0.355-0.458-0.494-0.5c-0.048-0.013-0.234,0.279-0.292,0.29
		c-0.16,0.026-0.333-0.479-0.494-0.497c-0.78-0.095-2.813,0.919-2.397-0.095c1.063-1.081,3.253-0.979,4.055-0.563
		c1.625,0.847,2.048,1.087,2.76,2.203c1.337-0.014,2.654,0.216,4.055-0.563c0.13-1.522-0.164-3.014-2.047-4.391
		c-0.801,0.594-0.18,1.081-1.207,1.689c-0.256-0.129-0.531-0.048-0.828,0.327c-2.247,0.231-4.252-2.478-6.437-3.002
		c-1.744,0.632-3.482,1.188-5.263,2.253c0.2,0.52,1.618,0.95,0.945,1.533c-1.301-0.699-2.741,1.076-4.301,0.314
		c-1.544-0.757-1.998-2.506-2.875-4.064c-0.192,0.163-0.381,0.305-0.538,0.039c-0.829-0.76-1.746-0.441-2.733,0.734
		c0.717,1.037,1.638-0.41,2.354,0.629c-0.744,0.459-1.644,0.22-1.699,1.192c0.489,0.856,2.471-0.138,2.062,0.918
		C129.068,330.833,128.572,331.457,128.124,331.475z"/>
	<path fill-rule="evenodd" clip-rule="evenodd" d="M150.949,339.959c0.378-0.278,0.409,0.092,0.248,0.25
		c0.804,1.366,3.958,2.56,2.337,4.103C151.947,342.913,150.668,341.494,150.949,339.959z"/>
</g>
</svg>
