<?xml version="1.0" encoding="utf-8"?>
<!-- Generator: Adobe Illustrator 14.0.0, SVG Export Plug-In . SVG Version: 6.00 Build 43363)  -->
<!DOCTYPE svg PUBLIC "-//W3C//DTD SVG 1.0//EN" "http://www.w3.org/TR/2001/REC-SVG-20010904/DTD/svg10.dtd">
<svg version="1.0" xmlns="http://www.w3.org/2000/svg" xmlns:xlink="http://www.w3.org/1999/xlink" x="0px" y="0px" width="800px"
	 height="600px" viewBox="0 0 800 600" enable-background="new 0 0 800 600" xml:space="preserve">
<defs>
   <linearGradient id="colour1">
     <stop offset="100%" stop-color="#FFD24F"/>
   </linearGradient> 
 </defs>
	<g>
		<line fill="none" stroke="url(#colour1)" stroke-width="4.8096" x1="295.293" y1="578.479" x2="572.362" y2="301.409"/>
		<line fill="none" stroke="url(#colour1)" stroke-width="4.8096" x1="274.08" y1="557.266" x2="551.149" y2="280.196"/>
		<line fill="none" stroke="url(#colour1)" stroke-width="4.8096" x1="252.866" y1="536.053" x2="529.937" y2="258.983"/>
		<line fill="none" stroke="url(#colour1)" stroke-width="4.8096" x1="231.653" y1="514.839" x2="508.723" y2="237.77"/>
		<line fill="none" stroke="url(#colour1)" stroke-width="4.8096" x1="210.44" y1="493.626" x2="487.51" y2="216.556"/>
		<line fill="none" stroke="url(#colour1)" stroke-width="4.8096" x1="189.227" y1="472.413" x2="466.297" y2="195.343"/>
		<line fill="none" stroke="url(#colour1)" stroke-width="4.8096" x1="168.014" y1="451.2" x2="445.083" y2="174.13"/>
		<line fill="none" stroke="url(#colour1)" stroke-width="4.8096" x1="146.8" y1="429.986" x2="423.87" y2="152.917"/>
		<line fill="none" stroke="url(#colour1)" stroke-width="4.8096" x1="125.587" y1="408.773" x2="402.657" y2="131.704"/>
		<line fill="none" stroke="url(#colour1)" stroke-width="4.8096" x1="104.374" y1="387.561" x2="381.444" y2="110.49"/>
		<line fill="none" stroke="url(#colour1)" stroke-width="4.8096" x1="83.161" y1="366.347" x2="360.23" y2="89.277"/>
		<line fill="none" stroke="url(#colour1)" stroke-width="4.8096" x1="61.948" y1="345.134" x2="339.018" y2="68.064"/>
		<line fill="none" stroke="url(#colour1)" stroke-width="4.8096" x1="40.734" y1="323.921" x2="317.804" y2="46.851"/>
		<line fill="none" stroke="url(#colour1)" stroke-width="4.8096" x1="19.521" y1="302.707" x2="296.591" y2="25.638"/>
	</g>
	<g>
		<line fill="none" stroke="url(#colour1)" stroke-width="4.7971" x1="572.407" y1="301.222" x2="296.779" y2="25.594"/>
		<line fill="none" stroke="url(#colour1)" stroke-width="4.7971" x1="551.193" y1="322.435" x2="275.566" y2="46.807"/>
		<line fill="none" stroke="url(#colour1)" stroke-width="4.7971" x1="529.98" y1="343.647" x2="254.353" y2="68.02"/>
		<line fill="none" stroke="url(#colour1)" stroke-width="4.7971" x1="508.768" y1="364.861" x2="233.14" y2="89.233"/>
		<line fill="none" stroke="url(#colour1)" stroke-width="4.7971" x1="487.554" y1="386.074" x2="211.926" y2="110.446"/>
		<line fill="none" stroke="url(#colour1)" stroke-width="4.7971" x1="466.341" y1="407.287" x2="190.713" y2="131.66"/>
		<line fill="none" stroke="url(#colour1)" stroke-width="4.7971" x1="445.128" y1="428.501" x2="169.5" y2="152.873"/>
		<line fill="none" stroke="url(#colour1)" stroke-width="4.7971" x1="423.914" y1="449.714" x2="148.287" y2="174.086"/>
		<line fill="none" stroke="url(#colour1)" stroke-width="4.7971" x1="402.701" y1="470.927" x2="127.074" y2="195.299"/>
		<line fill="none" stroke="url(#colour1)" stroke-width="4.7971" x1="381.488" y1="492.14" x2="105.86" y2="216.512"/>
		<line fill="none" stroke="url(#colour1)" stroke-width="4.7971" x1="360.275" y1="513.354" x2="84.647" y2="237.726"/>
		<line fill="none" stroke="url(#colour1)" stroke-width="4.7971" x1="339.062" y1="534.566" x2="63.434" y2="258.939"/>
		<line fill="none" stroke="url(#colour1)" stroke-width="4.7971" x1="317.849" y1="555.779" x2="42.221" y2="280.152"/>
		<line fill="none" stroke="url(#colour1)" stroke-width="4.7971" x1="296.635" y1="576.993" x2="21.008" y2="301.365"/>
	</g>
</svg>
