<?xml version="1.0" encoding="utf-8"?>
<!-- Generator: Adobe Illustrator 14.0.0, SVG Export Plug-In . SVG Version: 6.00 Build 43363)  -->
<!DOCTYPE svg PUBLIC "-//W3C//DTD SVG 1.0//EN" "http://www.w3.org/TR/2001/REC-SVG-20010904/DTD/svg10.dtd">
<svg version="1.0"
	 id="svg3742" inkscape:output_extension="org.inkscape.output.svg.inkscape" inkscape:export-filename="/home/roger/mis-dibujos/open/die.png" xmlns:inkscape="http://www.inkscape.org/namespaces/inkscape" xmlns:rdf="http://www.w3.org/1999/02/22-rdf-syntax-ns#" xmlns:dc="http://purl.org/dc/elements/1.1/" xmlns:sodipodi="http://sodipodi.sourceforge.net/DTD/sodipodi-0.dtd" xmlns:svg="http://www.w3.org/2000/svg" xmlns:cc="http://creativecommons.org/ns#" sodipodi:docname="die.svg" sodipodi:version="0.32" inkscape:version="0.46" inkscape:export-ydpi="90" inkscape:export-xdpi="90"
	 xmlns="http://www.w3.org/2000/svg" xmlns:xlink="http://www.w3.org/1999/xlink" x="0px" y="0px" width="210.516px"
	 height="199.262px" viewBox="0 0 210.516 199.262" enable-background="new 0 0 210.516 199.262" xml:space="preserve">
<defs>
   <linearGradient id="colour1">
     <stop offset="100%" stop-color="black"/>
   </linearGradient>
   <linearGradient id="colour2">
     <stop offset="100%" stop-color="white"/>
   </linearGradient>
</defs>
<g id="layer1_1_" transform="translate(-250.83442,-290.95112)" inkscape:label="Capa 1" inkscape:groupmode="layer">
	<g id="g99997_1_" transform="matrix(-0.71,-0.3549976,0,1,314.21003,198.35453)">
	</g>
	<g id="g100166_1_" transform="matrix(-0.71,-0.3549976,0,1,341.61249,265.7452)">
	</g>
	<g id="g100661_1_" transform="translate(206.46496,112.07608)">
		<g id="g100401_1_" transform="matrix(-0.71,-0.3549976,0,1,267.26189,204.38053)">
		</g>
	</g>
	
		<path id="rect100560_1_" sodipodi:nodetypes="ccccccccccccc" fill="url(#colour1)" stroke="#C7C7C7" stroke-width="3" stroke-linecap="round" stroke-linejoin="bevel" d="
		M405.415,416.42l74.5-37.25l0.125,0.063v-0.125l0.344-0.188l-0.344-0.156V273.232l-75.25-37.625v-0.25l-75.25,37.625v106
		l0.906-0.063L405.415,416.42z"/>
	
	<polygon id="rect100395_1_" fill="url(#colour1)" points="404.795,341.617 480.055,379.247 480.055,273.247 404.795,235.617 
			"/>
	
		<path fill="url(#colour2)" id="path100397_1_" sodipodi:rx="24.285715" sodipodi:ry="24.285715" sodipodi:cx="225.71428" sodipodi:type="arc" sodipodi:cy="232.36218" inkscape:tile-y0="372.58015" inkscape:tile-x0="161.95484" d="
		M426.68,272.215c0.001-4.618-2.656-9.692-5.937-11.334c-3.279-1.642-5.938,0.771-5.939,5.39c0,0.003,0,0.005,0,0.007
		c-0.002,4.618,2.656,9.693,5.936,11.334c3.279,1.642,5.939-0.771,5.94-5.39C426.68,272.219,426.68,272.218,426.68,272.215z"/>
	
		<path fill="url(#colour2)" id="path100399_1_" sodipodi:rx="24.285715" sodipodi:ry="24.285715" sodipodi:cx="225.71428" sodipodi:type="arc" sodipodi:cy="232.36218" inkscape:tile-y0="372.58015" inkscape:tile-x0="161.95484" d="
		M448.391,283.07c0-4.618-2.656-9.692-5.936-11.334c-3.28-1.642-5.939,0.771-5.941,5.39c0,0.002,0,0.005,0,0.007
		c-0.001,4.618,2.656,9.692,5.936,11.334s5.939-0.771,5.941-5.39C448.391,283.075,448.391,283.073,448.391,283.07z"/>
	
		<path fill="url(#colour2)" id="path100403_1_" inkscape:tile-w="16.726587" inkscape:tile-h="16.726587" sodipodi:rx="24.285715" sodipodi:ry="24.285715" sodipodi:cx="225.71428" sodipodi:type="arc" sodipodi:cy="232.36218" inkscape:tile-cy="380.94344" inkscape:tile-cx="170.31813" inkscape:tile-y0="372.58015" inkscape:tile-x0="161.95484" d="
		M426.653,328.405c0.001-4.618-2.655-9.693-5.936-11.335c-3.279-1.642-5.938,0.771-5.94,5.391c0,0.002,0,0.004,0,0.006
		c-0.001,4.618,2.656,9.693,5.936,11.335s5.939-0.771,5.94-5.39C426.653,328.409,426.653,328.407,426.653,328.405z"/>
	
		<path fill="url(#colour2)" id="path100405_1_" sodipodi:rx="24.285715" sodipodi:ry="24.285715" sodipodi:cx="225.71428" sodipodi:type="arc" sodipodi:cy="232.36218" inkscape:tile-y0="372.58015" inkscape:tile-x0="161.95484" d="
		M448.364,339.26c0.001-4.619-2.656-9.693-5.936-11.335s-5.939,0.771-5.94,5.39c0,0.003,0,0.005,0,0.007
		c-0.001,4.618,2.656,9.693,5.936,11.335c3.279,1.641,5.938-0.772,5.94-5.391C448.364,339.264,448.364,339.262,448.364,339.26z"/>
	
		<path fill="url(#colour2)" id="path100407_1_" sodipodi:rx="24.285715" sodipodi:ry="24.285715" sodipodi:cx="225.71428" sodipodi:type="arc" sodipodi:cy="232.36218" inkscape:tile-y0="372.58015" inkscape:tile-x0="161.95484" d="
		M470.075,350.115c0-4.618-2.656-9.692-5.936-11.334c-3.28-1.642-5.939,0.771-5.941,5.39c0,0.002,0,0.005,0,0.007
		c-0.001,4.618,2.656,9.692,5.936,11.334s5.939-0.771,5.941-5.39C470.075,350.12,470.075,350.117,470.075,350.115z"/>
	
		<path fill="url(#colour2)" id="path100409_1_" sodipodi:rx="24.285715" sodipodi:ry="24.285715" sodipodi:cx="225.71428" sodipodi:type="arc" sodipodi:cy="232.36218" inkscape:tile-y0="372.58015" inkscape:tile-x0="161.95484" d="
		M470.101,293.926c0.001-4.618-2.656-9.693-5.936-11.335c-3.28-1.641-5.938,0.772-5.94,5.391c0,0.002,0,0.004,0,0.006
		c-0.002,4.619,2.656,9.693,5.936,11.335s5.939-0.771,5.94-5.39C470.101,293.929,470.101,293.927,470.101,293.926z"/>
	
	<polygon id="rect100425_1_" fill="url(#colour1)" points="404.806,341.368 329.545,378.997 329.545,272.997 404.806,235.368 
			"/>
	
		<path fill="url(#colour2)" id="path100427_1_" sodipodi:rx="24.285715" sodipodi:ry="24.285715" sodipodi:cx="225.71428" sodipodi:type="arc" sodipodi:cy="232.36218" inkscape:tile-y0="372.58015" inkscape:tile-x0="161.95484" d="
		M382.921,271.966c-0.002-4.619,2.656-9.693,5.936-11.335s5.939,0.771,5.94,5.39c0,0.003,0,0.005,0,0.007
		c0.001,4.618-2.656,9.693-5.936,11.335c-3.28,1.641-5.939-0.772-5.94-5.391C382.921,271.969,382.921,271.968,382.921,271.966z"/>
	<g id="g100431_1_" transform="matrix(0.71,-0.3549976,0,1,295.45307,316.7066)">
		
			<path fill="url(#colour2)" id="path100433_1_" inkscape:tile-w="16.726587" inkscape:tile-h="16.726587" sodipodi:rx="24.285715" sodipodi:ry="24.285715" sodipodi:cx="225.71428" sodipodi:type="arc" sodipodi:cy="232.36218" inkscape:tile-cy="380.94344" inkscape:tile-cx="170.31813" inkscape:tile-y0="372.58015" inkscape:tile-x0="161.95484" d="
			M123.233,55.196c-0.003-4.619,3.741-8.365,8.36-8.367c4.619-0.002,8.364,3.742,8.365,8.36c0,0.002,0,0.004,0,0.006
			c0.003,4.62-3.741,8.365-8.36,8.367c-4.619,0.002-8.364-3.741-8.365-8.359C123.233,55.2,123.233,55.198,123.233,55.196z"/>
		
			<path fill="url(#colour2)" id="path100437_1_" sodipodi:rx="24.285715" sodipodi:ry="24.285715" sodipodi:cx="225.71428" sodipodi:type="arc" sodipodi:cy="232.36218" inkscape:tile-y0="372.58015" inkscape:tile-x0="161.95484" d="
			M62.076,55.195c-0.001-4.619,3.741-8.364,8.36-8.366s8.365,3.741,8.367,8.36c0,0.002,0,0.005,0,0.007
			c0.001,4.619-3.74,8.365-8.36,8.366c-4.619,0.002-8.364-3.741-8.367-8.36C62.076,55.2,62.076,55.197,62.076,55.195z"/>
	</g>
	
		<path fill="url(#colour2)" id="path100439_1_" sodipodi:rx="24.285715" sodipodi:ry="24.285715" sodipodi:cx="225.71428" sodipodi:type="arc" sodipodi:cy="232.36218" inkscape:tile-y0="372.58015" inkscape:tile-x0="161.95484" d="
		M339.5,293.676c-0.001-4.618,2.655-9.693,5.936-11.334c3.279-1.642,5.938,0.771,5.94,5.39c0,0.002,0,0.004,0,0.007
		c0.001,4.618-2.656,9.692-5.936,11.334s-5.939-0.771-5.94-5.39C339.5,293.679,339.5,293.677,339.5,293.676z"/>
	<polygon id="rect100473_1_" fill="url(#colour1)" points="480.379,378.932 405.425,416.409 330.472,378.932 405.425,341.456 	"/>
	
		<path fill="url(#colour2)" id="path100475_1_" sodipodi:rx="24.285715" sodipodi:ry="24.285715" sodipodi:cx="225.71428" sodipodi:type="arc" sodipodi:cy="232.36218" inkscape:tile-y0="372.58015" inkscape:tile-x0="161.95484" d="
		M401.772,361.424c-3.268-1.632-3.27-4.279-0.005-5.913s8.561-1.635,11.828-0.003c0.001,0.001,0.002,0.002,0.004,0.003
		c3.268,1.632,3.27,4.279,0.005,5.913s-8.56,1.635-11.827,0.003C401.775,361.426,401.773,361.425,401.772,361.424z"/>
	
		<path fill="url(#colour2)" id="path100481_1_" inkscape:tile-w="16.726587" inkscape:tile-h="16.726587" sodipodi:rx="24.285715" sodipodi:ry="24.285715" sodipodi:cx="225.71428" sodipodi:type="arc" sodipodi:cy="232.36218" inkscape:tile-cy="380.94344" inkscape:tile-cx="170.31813" inkscape:tile-y0="372.58015" inkscape:tile-x0="161.95484" d="
		M441.54,381.281c-3.267-1.632-3.27-4.279-0.004-5.913c3.265-1.634,8.561-1.635,11.827-0.003c0.001,0.001,0.003,0.002,0.005,0.003
		c3.268,1.632,3.27,4.279,0.004,5.913c-3.264,1.634-8.56,1.635-11.826,0.003C441.543,381.283,441.542,381.282,441.54,381.281z"/>
	
		<path fill="url(#colour2)" id="path100483_1_" sodipodi:rx="24.285715" sodipodi:ry="24.285715" sodipodi:cx="225.71428" sodipodi:type="arc" sodipodi:cy="232.36218" inkscape:tile-y0="372.58015" inkscape:tile-x0="161.95484" d="
		M399.511,381.889c-3.267-1.633-3.27-4.28-0.004-5.914c3.265-1.634,8.561-1.635,11.827-0.002c0.002,0.001,0.003,0.001,0.005,0.002
		c3.268,1.633,3.27,4.28,0.005,5.914s-8.561,1.635-11.827,0.002C399.515,381.89,399.513,381.89,399.511,381.889z"/>
	
		<path fill="url(#colour2)" id="path100485_1_" sodipodi:rx="24.285715" sodipodi:ry="24.285715" sodipodi:cx="225.71428" sodipodi:type="arc" sodipodi:cy="232.36218" inkscape:tile-y0="372.58015" inkscape:tile-x0="161.95484" d="
		M398.296,402.903c-3.268-1.632-3.27-4.279-0.005-5.913s8.56-1.635,11.827-0.003c0.002,0.001,0.004,0.002,0.005,0.003
		c3.268,1.632,3.27,4.279,0.005,5.913c-3.266,1.634-8.561,1.635-11.828,0.003C398.299,402.905,398.298,402.904,398.296,402.903z"/>
	
		<path fill="url(#colour2)" id="path100487_1_" sodipodi:rx="24.285715" sodipodi:ry="24.285715" sodipodi:cx="225.71428" sodipodi:type="arc" sodipodi:cy="232.36218" inkscape:tile-y0="372.58015" inkscape:tile-x0="161.95484" d="
		M358.528,383.046c-3.268-1.632-3.27-4.279-0.005-5.913s8.561-1.635,11.828-0.003c0.001,0.001,0.002,0.002,0.004,0.003
		c3.268,1.632,3.27,4.279,0.005,5.913s-8.56,1.635-11.827,0.003C358.531,383.048,358.529,383.047,358.528,383.046z"/>
	<path id="path100717_1_" fill="none" stroke="#FFFFFF" stroke-width="2" stroke-linecap="round" stroke-linejoin="bevel" d="
		M478.971,378.111l-71.419-36.416l-2.475-0.707l-73.893,36.416"/>
	
		<path id="path100719_1_" sodipodi:nodetypes="cc" fill="url(#colour1)" stroke="#FFFFFF" stroke-linecap="round" stroke-linejoin="bevel" d="
		M405.181,340.387l-0.104-103.698"/>
	<path id="path3268_1_" opacity="0.6" fill="url(#colour1)" enable-background="new" d="M409.333,341.695
		c-0.354-0.707-4.243-7.425-4.419-6.718c-0.178,0.707-3.713,7.955-3.713,7.955l4.242-1.944L409.333,341.695z"/>
</g>
<g id="layer1" transform="translate(-250.83442,-290.95112)" inkscape:label="Capa 1" inkscape:groupmode="layer">
	<g id="g99997" transform="matrix(-0.71,-0.3549976,0,1,314.21003,198.35453)">
	</g>
	<g id="g100166" transform="matrix(-0.71,-0.3549976,0,1,341.61249,265.7452)">
	</g>
	<g id="g100661" transform="translate(206.46496,112.07608)">
		<g id="g100401" transform="matrix(-0.71,-0.3549976,0,1,267.26189,204.38053)">
		</g>
	</g>
	
		<path id="rect100560" sodipodi:nodetypes="ccccccccccccc" fill="url(#colour1)" stroke="#C7C7C7" stroke-width="3" stroke-linecap="round" stroke-linejoin="bevel" d="
		M310.975,348.451l-74.5,37.25l-0.125-0.063v0.125l-0.344,0.188l0.344,0.156v105.531l75.25,37.625v0.25l75.25-37.625v-106
		l-0.906,0.063L310.975,348.451z"/>
	
	<polygon id="rect100395" fill="url(#colour1)" points="311.595,423.254 236.335,385.624 236.335,491.624 311.595,529.254 	
		"/>
	
		<path fill="url(#colour2)" id="path100397" sodipodi:rx="24.285715" sodipodi:ry="24.285715" sodipodi:cx="225.71428" sodipodi:type="arc" sodipodi:cy="232.36218" inkscape:tile-y0="372.58015" inkscape:tile-x0="161.95484" d="
		M289.71,492.656c-0.001,4.618,2.656,9.692,5.937,11.334c3.279,1.642,5.938-0.771,5.939-5.39c0-0.003,0-0.005,0-0.007
		c0.002-4.618-2.656-9.693-5.936-11.334c-3.279-1.642-5.939,0.771-5.94,5.39C289.71,492.651,289.71,492.653,289.71,492.656z"/>
	
		<path fill="url(#colour2)" id="path100399" sodipodi:rx="24.285715" sodipodi:ry="24.285715" sodipodi:cx="225.71428" sodipodi:type="arc" sodipodi:cy="232.36218" inkscape:tile-y0="372.58015" inkscape:tile-x0="161.95484" d="
		M268,481.801c-0.001,4.618,2.656,9.692,5.936,11.334c3.28,1.642,5.939-0.771,5.94-5.39c0-0.002,0-0.005,0-0.007
		c0.001-4.618-2.656-9.692-5.936-11.334s-5.939,0.771-5.94,5.39C268,481.796,268,481.798,268,481.801z"/>
	
		<path fill="url(#colour2)" id="path100403" inkscape:tile-w="16.726587" inkscape:tile-h="16.726587" sodipodi:rx="24.285715" sodipodi:ry="24.285715" sodipodi:cx="225.71428" sodipodi:type="arc" sodipodi:cy="232.36218" inkscape:tile-cy="380.94344" inkscape:tile-cx="170.31813" inkscape:tile-y0="372.58015" inkscape:tile-x0="161.95484" d="
		M289.738,436.466c-0.001,4.618,2.655,9.693,5.936,11.335c3.279,1.642,5.938-0.771,5.94-5.391c0-0.002,0-0.004,0-0.006
		c0.001-4.618-2.656-9.693-5.936-11.335s-5.939,0.771-5.94,5.39C289.738,436.462,289.738,436.464,289.738,436.466z"/>
	
		<path fill="url(#colour2)" id="path100405" sodipodi:rx="24.285715" sodipodi:ry="24.285715" sodipodi:cx="225.71428" sodipodi:type="arc" sodipodi:cy="232.36218" inkscape:tile-y0="372.58015" inkscape:tile-x0="161.95484" d="
		M268.027,425.61c-0.001,4.619,2.656,9.693,5.936,11.335c3.279,1.642,5.939-0.771,5.94-5.39c0-0.003,0-0.005,0-0.007
		c0.001-4.618-2.656-9.693-5.936-11.335c-3.279-1.641-5.939,0.772-5.94,5.391C268.027,425.606,268.027,425.608,268.027,425.61z"/>
	
		<path fill="url(#colour2)" id="path100407" sodipodi:rx="24.285715" sodipodi:ry="24.285715" sodipodi:cx="225.71428" sodipodi:type="arc" sodipodi:cy="232.36218" inkscape:tile-y0="372.58015" inkscape:tile-x0="161.95484" d="
		M246.316,414.756c-0.001,4.618,2.656,9.692,5.936,11.334c3.28,1.642,5.939-0.771,5.94-5.39c0-0.002,0-0.005,0-0.007
		c0.001-4.618-2.656-9.692-5.936-11.334s-5.939,0.771-5.94,5.39C246.316,414.751,246.316,414.754,246.316,414.756z"/>
	
		<path fill="url(#colour2)" id="path100409" sodipodi:rx="24.285715" sodipodi:ry="24.285715" sodipodi:cx="225.71428" sodipodi:type="arc" sodipodi:cy="232.36218" inkscape:tile-y0="372.58015" inkscape:tile-x0="161.95484" d="
		M246.29,470.945c-0.001,4.618,2.656,9.693,5.936,11.335c3.28,1.641,5.939-0.772,5.94-5.391c0-0.002,0-0.004,0-0.006
		c0.001-4.619-2.656-9.693-5.936-11.335s-5.939,0.771-5.94,5.39C246.29,470.941,246.29,470.943,246.29,470.945z"/>
	
	<polygon id="rect100425" fill="url(#colour1)" points="311.584,423.503 386.845,385.874 386.845,491.874 311.584,529.503 	
		"/>
	
		<path fill="url(#colour2)" id="path100427" sodipodi:rx="24.285715" sodipodi:ry="24.285715" sodipodi:cx="225.71428" sodipodi:type="arc" sodipodi:cy="232.36218" inkscape:tile-y0="372.58015" inkscape:tile-x0="161.95484" d="
		M333.469,492.905c0.002,4.619-2.656,9.693-5.936,11.335s-5.939-0.771-5.94-5.39c0-0.003,0-0.005,0-0.007
		c-0.001-4.618,2.656-9.693,5.936-11.335c3.28-1.641,5.939,0.772,5.94,5.391C333.469,492.901,333.469,492.903,333.469,492.905z"/>
	<g id="g100431" transform="matrix(0.71,-0.3549976,0,1,295.45307,316.7066)">
		
			<path fill="url(#colour2)" id="path100433" inkscape:tile-w="16.726587" inkscape:tile-h="16.726587" sodipodi:rx="24.285715" sodipodi:ry="24.285715" sodipodi:cx="225.71428" sodipodi:type="arc" sodipodi:cy="232.36218" inkscape:tile-cy="380.94344" inkscape:tile-cx="170.31813" inkscape:tile-y0="372.58015" inkscape:tile-x0="161.95484" d="
			M53.505,139.003c0.003,4.619-3.741,8.365-8.36,8.367c-4.619,0.002-8.364-3.742-8.365-8.36c0-0.002,0-0.004,0-0.006
			c-0.003-4.62,3.741-8.365,8.36-8.367c4.619-0.002,8.364,3.741,8.365,8.359C53.505,138.999,53.505,139.001,53.505,139.003z"/>
		
			<path fill="url(#colour2)" id="path100437" sodipodi:rx="24.285715" sodipodi:ry="24.285715" sodipodi:cx="225.71428" sodipodi:type="arc" sodipodi:cy="232.36218" inkscape:tile-y0="372.58015" inkscape:tile-x0="161.95484" d="
			M114.663,139.004c0.001,4.619-3.741,8.364-8.36,8.366c-4.619,0.002-8.365-3.741-8.367-8.36c0-0.002,0-0.005,0-0.007
			c-0.001-4.619,3.74-8.365,8.36-8.366c4.619-0.002,8.364,3.741,8.367,8.36C114.663,138.999,114.663,139.002,114.663,139.004z"/>
	</g>
	
		<path fill="url(#colour2)" id="path100439" sodipodi:rx="24.285715" sodipodi:ry="24.285715" sodipodi:cx="225.71428" sodipodi:type="arc" sodipodi:cy="232.36218" inkscape:tile-y0="372.58015" inkscape:tile-x0="161.95484" d="
		M376.89,471.195c0.001,4.618-2.655,9.693-5.936,11.334c-3.279,1.642-5.938-0.771-5.94-5.39c0-0.002,0-0.004,0-0.007
		c-0.001-4.618,2.656-9.692,5.936-11.334s5.939,0.771,5.94,5.39C376.89,471.191,376.89,471.193,376.89,471.195z"/>
	<polygon id="rect100473" fill="url(#colour1)" points="236.012,385.938 310.965,348.462 385.918,385.938 310.965,423.415 	"/>
	
		<path fill="url(#colour2)" id="path100475" sodipodi:rx="24.285715" sodipodi:ry="24.285715" sodipodi:cx="225.71428" sodipodi:type="arc" sodipodi:cy="232.36218" inkscape:tile-y0="372.58015" inkscape:tile-x0="161.95484" d="
		M314.619,403.447c3.268,1.632,3.27,4.279,0.005,5.913s-8.561,1.635-11.828,0.003c-0.001-0.001-0.002-0.002-0.004-0.003
		c-3.268-1.632-3.27-4.279-0.005-5.913s8.56-1.635,11.827-0.003C314.616,403.445,314.618,403.446,314.619,403.447z"/>
	
		<path fill="url(#colour2)" id="path100481" inkscape:tile-w="16.726587" inkscape:tile-h="16.726587" sodipodi:rx="24.285715" sodipodi:ry="24.285715" sodipodi:cx="225.71428" sodipodi:type="arc" sodipodi:cy="232.36218" inkscape:tile-cy="380.94344" inkscape:tile-cx="170.31813" inkscape:tile-y0="372.58015" inkscape:tile-x0="161.95484" d="
		M274.851,383.59c3.267,1.632,3.27,4.279,0.004,5.913c-3.265,1.634-8.56,1.635-11.827,0.003c-0.001-0.001-0.003-0.002-0.005-0.003
		c-3.267-1.632-3.27-4.279-0.004-5.913c3.265-1.634,8.56-1.635,11.827-0.003C274.847,383.588,274.849,383.589,274.851,383.59z"/>
	
		<path fill="url(#colour2)" id="path100483" sodipodi:rx="24.285715" sodipodi:ry="24.285715" sodipodi:cx="225.71428" sodipodi:type="arc" sodipodi:cy="232.36218" inkscape:tile-y0="372.58015" inkscape:tile-x0="161.95484" d="
		M316.879,382.981c3.267,1.633,3.27,4.28,0.004,5.914c-3.265,1.634-8.561,1.635-11.827,0.002c-0.002-0.001-0.003-0.001-0.005-0.002
		c-3.268-1.633-3.27-4.28-0.005-5.914s8.561-1.635,11.827-0.002C316.875,382.98,316.877,382.98,316.879,382.981z"/>
	
		<path fill="url(#colour2)" id="path100485" sodipodi:rx="24.285715" sodipodi:ry="24.285715" sodipodi:cx="225.71428" sodipodi:type="arc" sodipodi:cy="232.36218" inkscape:tile-y0="372.58015" inkscape:tile-x0="161.95484" d="
		M318.094,361.968c3.268,1.632,3.27,4.279,0.005,5.913s-8.56,1.635-11.827,0.003c-0.002-0.001-0.004-0.002-0.005-0.003
		c-3.268-1.632-3.27-4.279-0.005-5.913c3.266-1.634,8.561-1.635,11.828-0.003C318.091,361.966,318.092,361.967,318.094,361.968z"/>
	
		<path fill="url(#colour2)" id="path100487" sodipodi:rx="24.285715" sodipodi:ry="24.285715" sodipodi:cx="225.71428" sodipodi:type="arc" sodipodi:cy="232.36218" inkscape:tile-y0="372.58015" inkscape:tile-x0="161.95484" d="
		M357.863,381.825c3.268,1.632,3.27,4.279,0.005,5.913s-8.561,1.635-11.828,0.003c-0.001-0.001-0.002-0.002-0.004-0.003
		c-3.268-1.632-3.27-4.279-0.005-5.913s8.56-1.635,11.827-0.003C357.86,381.823,357.862,381.824,357.863,381.825z"/>
	<path id="path100717" fill="none" stroke="#FFFFFF" stroke-width="2" stroke-linecap="round" stroke-linejoin="bevel" d="
		M237.42,386.76l71.418,36.416l2.475,0.707l73.893-36.416"/>
	
		<path id="path100719" sodipodi:nodetypes="cc" fill="url(#colour1)" stroke="#FFFFFF" stroke-linecap="round" stroke-linejoin="bevel" d="
		M311.209,424.483l0.104,103.698"/>
	<path id="path3268" opacity="0.6" fill="url(#colour1)" enable-background="new    " d="M307.058,423.176
		c0.354,0.707,4.243,7.425,4.419,6.718c0.178-0.707,3.713-7.955,3.713-7.955l-4.242,1.944L307.058,423.176z"/>
</g>
</svg>
