<?xml version="1.0" encoding="utf-8"?>
<!DOCTYPE svg PUBLIC "-//W3C//DTD SVG 1.1//EN" "http://www.w3.org/Graphics/SVG/1.1/DTD/svg11.dtd">
<svg version="1.1" id="svg2" xmlns:svg="http://www.w3.org/2000/svg"
	 xmlns="http://www.w3.org/2000/svg" xmlns:xlink="http://www.w3.org/1999/xlink" x="0px" y="0px" width="637.344px"
	 height="637.469px" viewBox="0 0 637.344 637.469" enable-background="new 0 0 637.344 637.469" xml:space="preserve">
<defs>
   <linearGradient id="colour1">
     <stop offset="100%" stop-color="#F78E1E"/>
   </linearGradient>
</defs>
<path id="Verbot" fill="url(#colour1)" d="M318.686,18.388c-165.868,0-300.328,134.463-300.302,300.332
	c-0.026,165.868,134.434,300.36,300.302,300.36s300.3-134.492,300.272-300.36C618.986,152.851,484.554,18.388,318.686,18.388z
	 M318.686,77.4c115.324,0,211.746,80.904,235.606,189.051c32.551,14.932,47.209,39.364,42.846,52.651s-16.79,34.713-41.845,46.997
	c-6.629,33.33-20.135,64.176-38.958,91.021l-51.386,53.535c-40.574,30.973-91.273,49.383-146.264,49.383
	c-133.271,0-241.312-108.049-241.289-241.319c-0.009-51.496,16.129-99.216,43.61-138.401l51.386-53.506
	C212.98,95.82,263.677,77.4,318.686,77.4z"/>
<path id="Schnauze" fill="none" stroke="url(#colour1)" stroke-width="7.5385" stroke-linecap="round" stroke-linejoin="round" d="
	M572.268,277.465c0.295,10.075-5.892,37.38,22.043,35.673"/>
<path id="Hund" fill="url(#colour1)" d="M325.4,133.91c-14.234,0.253-27.962,3.245-42.728,14.311
	c-123.74,96.575-100.819,109.365-249.712,202.596c222.648-96.705,252.092-225.826,319.384-197.207
	c8.38,3.41,20.342,8.61,44.082,13.458c34.263,9.455,52.346,17.376,70.673,48.323c9.208,12.149,25.541,28.761,93.554,59.13
	c44.894,22.503,29.823,47.805,13.134,76.65c-49.401,23.844-109.434,22.99-183.426,15.137
	c-83.633-3.457-149.067,24.258-160.192,146.734c22.402-75.6,66.628-135.767,165.581-129.891c53.474,7.734,78.771,5.514,102.299,2.68
	c19.196-2.98,43.867-7.566,72.028-16.167c45.997-37.874,41.238-93.867-3.387-100.12c-61.895-31.774-73.582-47.261-73.677-46.792
	c-25.078-40.422-32.73-48.663-65.638-57.01c-6.951-2.564-16.298-5.899-26.237-10.1c-14.675-10.542-50.101-20.463-55.861-20.878
	C338.448,134.247,331.871,133.794,325.4,133.91L325.4,133.91z M297.426,184.912c-17.725,8.078-24.19,43.26-23.086,72.292
	c-2.014,57.625,35.175,64.133,68.582,69.053c18.522,2.863,35.547,1.984,39.047-17.167c0.389-61.018-4.525-62.784,6.39-99.62
	c1.604-6.291,3.371-11.682,0.678-23.881c-8.293,5.573-28.57,47.594-23.087,92.876c-2.162,20.789-0.764,29.264-31.773,29.3
	C292.931,308.036,276.177,262.722,297.426,184.912z M442.364,203.582c-12.16,3.723-19.15,14.17-23.911,21.113
	C447.88,242.979,481.719,229.625,442.364,203.582z"/>
</svg>
