<?xml version="1.0" encoding="utf-8"?>
<!-- Generator: Adobe Illustrator 14.0.0, SVG Export Plug-In . SVG Version: 6.00 Build 43363)  -->
<!DOCTYPE svg PUBLIC "-//W3C//DTD SVG 1.0//EN" "http://www.w3.org/TR/2001/REC-SVG-20010904/DTD/svg10.dtd">
<svg version="1.0" id="Layer_1" xmlns="http://www.w3.org/2000/svg" xmlns:xlink="http://www.w3.org/1999/xlink" x="0px" y="0px"
	 width="800px" height="600px" viewBox="0 0 800 600" enable-background="new 0 0 800 600" xml:space="preserve">
<defs>
  <linearGradient id="colour1">
     <stop offset="100%" stop-color="#00AA4F"/>
   </linearGradient>
</defs>
<g display="none">
	<path fill="none" d="M89.56,181.322c-1.814-1.283-4.761-2.214-8.815-2.804v16.748c3.702-0.12,6.552-0.874,8.527-2.28
		c2.16-1.536,3.24-3.503,3.24-5.904C92.512,184.634,91.528,182.715,89.56,181.322z"/>
	<path fill="none" d="M68.068,157.382c-1.944,1.321-2.916,3.181-2.916,5.58c0,2.16,0.959,3.924,2.88,5.292
		c1.858,1.325,4.49,2.184,7.88,2.585v-15.7C72.569,155.361,69.95,156.105,68.068,157.382z"/>
	<path fill="url(#colour1)" d="M95.14,176.39c-2.896-2.074-7.71-3.699-14.395-4.887v-16.32c2.868,0.241,5.185,0.948,6.943,2.126
		c1.967,1.321,3.12,3.252,3.456,5.796h7.2c-0.336-4.271-2.041-7.668-5.112-10.188c-2.887-2.367-7.061-3.629-12.487-3.815v-6.436
		h-1.049v-0.008H76.24v0.008h-0.328v6.41c-2.142,0.025-4.241,0.293-6.296,0.818c-2.16,0.552-4.129,1.404-5.904,2.556
		c-1.776,1.152-3.181,2.653-4.212,4.5c-1.033,1.848-1.548,4.021-1.548,6.516c0,2.497,0.528,4.597,1.584,6.3
		c1.055,1.704,2.448,3.072,4.176,4.104c1.728,1.033,3.6,1.825,5.616,2.376c1.929,0.528,4.128,1,6.584,1.418v17.595
		c-2.157-0.162-3.998-0.553-5.504-1.193c-1.584-0.671-2.82-1.5-3.708-2.484c-0.889-0.983-1.512-2.003-1.872-3.06
		c-0.36-1.055-0.588-2.111-0.684-3.168h-7.2c0,2.545,0.504,4.813,1.512,6.804c1.008,1.992,2.412,3.672,4.212,5.04
		c1.8,1.368,3.852,2.4,6.156,3.096c2.207,0.666,4.572,1.005,7.088,1.033v6.339h0.328v0.08h3.456v-0.08h1.049v-6.358
		c2.216-0.068,4.365-0.337,6.439-0.834c2.4-0.576,4.536-1.487,6.408-2.736c1.872-1.248,3.359-2.832,4.464-4.752
		c1.104-1.919,1.656-4.151,1.656-6.696C99.712,181.875,98.188,178.575,95.14,176.39z M68.032,168.254
		c-1.92-1.368-2.88-3.132-2.88-5.292c0-2.399,0.972-4.259,2.916-5.58c1.881-1.277,4.5-2.021,7.844-2.242v15.7
		C72.522,170.438,69.891,169.579,68.032,168.254z M89.272,192.986c-1.976,1.406-4.826,2.16-8.527,2.28v-16.748
		c4.054,0.59,7.001,1.521,8.815,2.804c1.968,1.393,2.952,3.312,2.952,5.76C92.512,189.483,91.432,191.45,89.272,192.986z"/>
</g>
			<path display="inline" fill="url(#colour1)" d="M295.097,453.327c-3.782-0.152-7.111-0.642-9.981-1.465
				c-2.87-0.826-5.394-2.215-7.567-4.172c-2.175-1.951-3.902-4.582-5.188-7.893c-1.282-3.305-2.011-7.436-2.184-12.398h17.613
				c0.176,2.774,0.785,4.898,1.827,6.357c1.046,1.465,2.872,2.423,5.481,2.871v-15.82l-7.824-1.913
				c-6.041-1.503-10.27-3.981-12.682-7.444c-2.414-3.457-3.618-8.414-3.618-14.877c0-5.033,0.772-9.211,2.317-12.516
				c1.544-3.305,3.501-5.842,5.871-7.605c2.372-1.77,4.862-2.971,7.471-3.609c2.611-0.639,5.176-0.961,7.7-0.961v-10.011h3.653
				v10.011c7.569,0.68,13.288,2.977,17.155,6.896c3.873,3.917,6.029,9.932,6.463,18.035h-17.223
				c-0.133-2.473-0.688-4.459-1.668-5.962c-0.977-1.503-2.553-2.549-4.727-3.149v14.493l11.565,3.038
				c4.746,1.201,8.295,3.498,10.646,6.908c2.35,3.41,3.527,8.408,3.527,15c0,5.769-0.896,10.456-2.68,14.051
				c-1.787,3.592-4.012,6.258-6.672,7.978c-2.654,1.72-5.303,2.848-7.939,3.369s-5.199,0.788-7.684,0.788v10.014h-3.653V453.327z
				 M294.333,387.702c-0.653,0-1.37,0.073-2.153,0.223c-0.782,0.152-1.576,0.469-2.381,0.955c-0.804,0.486-1.467,1.213-1.987,2.183
				c-0.522,0.97-0.784,2.2-0.784,3.694c0,2.854,0.98,4.573,2.934,5.177l4.372,1.345V387.702z M298.75,436.628
				c2.156-0.073,3.926-0.668,5.313-1.775c1.387-1.113,2.078-2.968,2.078-5.558c0-2.399-0.516-4.087-1.553-5.065
				c-1.033-0.973-2.938-1.761-5.709-2.361h-0.129V436.628z"/>

</svg>
