<?xml version="1.0" encoding="utf-8"?>
<!-- Generator: Adobe Illustrator 14.0.0, SVG Export Plug-In . SVG Version: 6.00 Build 43363)  -->
<!DOCTYPE svg PUBLIC "-//W3C//DTD SVG 1.0//EN" "http://www.w3.org/TR/2001/REC-SVG-20010904/DTD/svg10.dtd">
<svg version="1.0" id="Layer_1" xmlns="http://www.w3.org/2000/svg" xmlns:xlink="http://www.w3.org/1999/xlink" x="0px" y="0px"
	 width="320px" height="230px" viewBox="0 0 320 230" enable-background="new 0 0 320 230" xml:space="preserve">
<defs>
   <linearGradient id="colour1">
     <stop offset="100%" stop-color="#020202"/>
   </linearGradient> 
 </defs>
<g id="_x23_020202ff">
	<path fill="url(#colour1)" d="M148.65,10.52c3.5-2.77,7.59-5.59,12.31-4.87c4.79-0.04,6.7,4.91,9.56,7.83c2.01,2.42,5.621,3.96,5.78,7.5
		c0.28,4.71-1.979,9.49-0.46,14.15c1.051,2.99,4.131,4.38,6.95,5.24c16.351-4.39,32.86-8.17,49.271-12.36
		c4.539-1.41,9.35-0.8,14.029-0.9c6.12,0.16,12.25-0.16,18.36,0.2c6.899,1.09,13.75,2.46,20.659,3.5
		c8.23,1.13,16.771,4.33,22.271,10.79c2.899,4.97,3.229,12.97-1.87,16.66c-12.939,5.91-27.359,8.37-41.529,8.01
		c-15.66,0.68-31.5-1-46.961,2.35c3.871,2.3,7.94,4.23,11.78,6.58c8.74,5.64,18.39,9.8,28.31,12.86
		c12.75,3.89,26.69,3.68,38.66,10.06c3.291,1.89,7.301,3.87,8.49,7.78c0.52,6.51-2.279,13.64-8.01,17.14
		c-6.55,4.14-14.55,4.41-22.04,5.101c-7.69,0.51-15.41,0.369-23.101,1.069c-9.08,0.12-18.139-0.92-27.18-1.76
		c-8.27-1.4-15.979-4.86-23.76-7.851c-8.449-4.72-14.3-13.26-16.859-22.49c-2.86-10.54-2.961-21.68-6.271-32.12
		c-2.67,6.72-4,14.05-8.04,20.16c-0.99,1.41-0.75,3.19-0.83,4.82c-0.029,5.7-0.66,11.39-0.24,17.09
		c0.641,5.98-0.84,11.911-0.729,17.9c-0.65,10.431-0.81,20.931-2.66,31.24c-0.819,5.479-0.37,11.05,0.229,16.521
		c-2.949,0.639-1.479-3.131-2.08-4.851c-0.539-4.17-6.109-5.55-9.069-3c-0.95,1.11-1.24,2.58-1.37,3.989
		c-0.52,4.961-0.61,9.951-0.54,14.94c3.8-0.39,7.64-0.409,11.44-0.021c0.24-3.709-0.641-7.859,1.81-11.029
		c0.11,8.471,1.95,16.9,1.16,25.37c-1.39,7-4.101,13.89-8.51,19.54c-6.58-7.93-9.78-18.61-8.61-28.881
		c3.78,3.611,0.54,10.381,4.89,13.5c2.78,0,6.08,0.871,8.49-0.85c1.521-3.63,1.851-7.699,1.87-11.59
		c-1.029-6.439-12.5-6.59-13.35,0.04c-0.57-0.659-1.16-1.31-1.74-1.96c0.28-7.641,1.36-15.21,1.73-22.84
		c0.37-6.109-1.56-11.99-2.06-18.03c-0.25-3.079,0.76-6.06,0.96-9.11c-0.42-1.979-1.38-3.83-1.51-5.89
		c-1.42-14.59-0.66-29.31-1.08-43.93c-3.67-7.71-5.42-16.12-8.25-24.14c-4.37,7.81-7.41,16.42-9.1,25.19
		c-1.07,11.57-5.96,24.05-16.54,30.03c-7.55,4.229-15.61,7.829-24.21,9.21c-9.62,1.49-19.43,1.561-29.11,0.6
		c-10.31-0.74-20.72,0.27-31-0.99c-5.68-0.649-10.2-4.33-14.97-7.109c-5.4-3.27-7.2-10.61-5.27-16.37
		c4.56-5.98,12.06-8.78,19.15-10.45c13.06-2.12,26.48-4.03,38.53-9.83c5.89-3.45,11.8-6.89,18.01-9.74
		c3.41-1.79,7.29-2.97,9.99-5.84c-13.1-3.86-26.95-2.32-40.4-2.22c-11.06-0.69-22.41-1.17-32.94-4.88
		C16.17,58.67,8.85,55.9,9.15,49.03c0.21-3.021-0.68-6.74,1.78-9.03c3.55-3.87,8.56-5.95,13.5-7.4c9.03-2.46,18.21-4.49,27.54-5.41
		c9.7,0.38,19.42,0.48,29.1,1.32c8.7,1.36,17.42,2.65,26.1,4.14c7.83,1.79,15.51,4.21,23.32,6.07c2.75,0.66,5.99-0.26,7.41-2.85
		c3.33-5.99,0.86-13.43,3.8-19.54C143.65,14.01,146.33,12.45,148.65,10.52 M152.44,10.6c-2.25,0.9-4.24,2.61-5.18,4.88
		c-0.57,1.41,0.12,3.22,1.75,3.43c3.4,0.4,6.54-2.07,9.96-1.26c3.23,0.6,6.51,1.64,9.78,0.61c1.061-1.05-0.49-2.17-0.891-3.15
		c-1.42-1.92-2.76-4.12-4.979-5.2C159.44,9.3,155.71,9.16,152.44,10.6 M146.36,21.47c-4.11,1.67-5.33,6.67-4.77,10.69
		c0.62,1.35,2.02,1.91,3.44,1.58c3.27-0.31,6.51-1.54,9.04-3.66c1.91-1.88,1-4.9,0.17-7.1C152.62,20.52,148.81,20.02,146.36,21.47
		 M163.35,21.48c-3.26,1.06-3.51,5.36-2.8,8.15c2.58,2.93,6.671,4.12,10.44,4.62c3.41-0.05,3.02-4.11,2.56-6.43
		C172.939,23.16,167.82,19.92,163.35,21.48 M57.99,29.6c-10.9,1.09-21.85,2.53-32.35,5.79c-5.2,1.85-11.6,4.08-13.16,10.08
		c-1.9,4.89,2.55,9.23,6.6,11.15c12.41,5.66,26.42,7.88,39.96,6.12c6.41-0.9,12.84,0.14,19.09,1.53
		c15.88,1.13,31.77-0.69,47.59-1.94c0.8,0.53-4.18,3-7.48,3.67c0.5,0.69,7.72,13.809,8.26,14.269c1.35-0.76,3.61-11.959,3.61-11.959
		c0.65-1.43,1.21-2.89,1.7-4.37c-1.84-0.12-3.52-0.82-5.03-1.84c2.85-0.3,5.69-0.71,8.45-1.5c1.14-2.82,2.66-5.45,4.53-7.84
		c-9.19-5.22-18.6-10.3-28.81-13.25C93.77,34.24,76.08,29.59,57.99,29.6 M198.13,42.38c-6.909,3.13-13.87,6.29-20.229,10.45
		c0.949,1.81,1.725,3.545,3.43,6.7l2.109,1.42c8.371,1.98,17.021,1.88,25.531,2.78c8.629,0.92,17.329,0.86,25.989,0.84
		c5.16,0.14,10.04-1.89,15.181-2.05c5.31-0.46,10.569,0.71,15.869,0.78c10.461,0.32,20.93-1.91,30.6-5.84
		c3.871-1.61,7.801-4.4,8.871-8.68c0.189-4.73-3.141-9-7.381-10.811c-11.129-5.24-23.58-6.59-35.649-8.08
		c-9.89-1.14-19.66,1.33-29.45,2.19 M153.38,35.61c-2.91,1.24-5.79,2.61-8.37,4.45c-1.23,0.73-2.68,2.53-1.04,3.72
		c2.58,2.66,6.14,4.11,9.53,5.43c5.07,1.7,10.141-0.86,14.54-3.18c1.47-0.97,3.81-1.87,3.41-4.061c-1.91-2.66-5.021-4.02-7.841-5.47
		C160.45,34.86,156.7,33.5,153.38,35.61 M148.9,53.84c-3.23,0.5-7,1.75-8.15,5.18c1.17,5.59,8.52,9.19,13.7,6.7
		c4.15-2.34,8.37,2.26,12.521,0.38c3.049-1.32,6.709-3.27,7.299-6.88c-0.77-3.66-5.02-4.86-8.25-5.39
		C160.34,53.34,154.58,53.32,148.9,53.84 M180.58,63.62c2.359,8,4.811,16.01,6.061,24.27c1.239,7.17,1.799,15,6.659,20.84
		c5.46,7.7,14.671,11.2,23.36,13.799c8.811,2.891,18.199,2.65,27.359,2.591c4.971-0.11,9.94,0.08,14.891,0.489
		c7.75-0.689,15.6,0.24,23.29-1.17c6.28-1.09,11.93-4.52,16.44-8.939c2-1.95,2.899-4.89,2.569-7.63c-1.351-4.39-5.88-6.34-9.7-8.12
		c-10.72-4.27-22.49-4.42-33.63-7.04c-5.899-1.99-11.479-4.82-17.01-7.65c-12.729-6.83-25.841-13.2-39.841-16.97
		C194.3,66.3,187.609,63.8,180.58,63.62 M74.4,83.55c-6.1,3.32-12.36,6.38-18.85,8.85c-12.6,3.39-26.39,2.77-38.13,9.04
		c-3.13,1.69-7,4.61-6.08,8.66c0.44,5.41,5.66,8.23,9.67,10.95c9.98,5.921,21.98,3.55,32.98,4.57
		c13.65-1.511,27.77,1.25,41.11-2.899c8.41-2.521,17.33-5.611,23-12.73c4.53-4.92,6.21-11.61,7.03-18.06
		c1.13-7.74-8.38-28.18-11.21-24.63C100.11,71.01,86.97,76.79,74.4,83.55 M156.04,70.93c-2.9,0.25-5.91,0.46-8.57,1.77
		c-1.19,0.63-2.58,1.79-1.83,3.32c0.87,2.86,1.97,5.79,4,8.05c3,2.96,7.68,2.35,11.5,2.04c3.969-0.34,5.77-4.39,7.319-7.5
		c0.56-1.62,2-3.85,0.101-5.13C164.939,71.03,160.26,70.99,156.04,70.93 M153.35,90.42c-4.22,2.62-2.85,8.43-3.15,12.62
		c0.42,3.12-0.75,7.04,1.71,9.46c3.34,0.16,6.69-0.44,10.05-0.01c1.521,0.43,2.67-1.28,2.771-2.58
		c0.609-5.34,0.66-10.81-0.521-16.07C163.09,89.14,157.01,88.44,153.35,90.42 M151.89,118.04c-1.56,5.13-1.5,10.59-1.32,15.89
		c-0.04,2.41,1.63,4.211,3.1,5.91c2.48-1.32,5.3-1.3,7.801,0.01c3.469-3.34,2.709-8.539,3.709-12.85
		c0.66-4.67-1.449-11.46-7.08-11.67C155.89,115.779,153.58,116.48,151.89,118.04 M152.18,144.91c-0.14,5.869-0.06,11.84,1.68,17.5
		c2.26-1.439,5.01-1.391,7.291-0.01c1.56-5.67,1.959-11.59,2.08-17.44C163.17,139.16,151.69,138.7,152.18,144.91 M155.57,204.391
		c-1.02,3.139,0.72,6.289,1.66,9.219c1.48-2.279,2.6-4.889,2.71-7.639C160.09,203.74,156.79,202.2,155.57,204.391z"/>
</g>
</svg>
