<?xml version="1.0" encoding="utf-8"?>
<!-- Generator: Adobe Illustrator 14.0.0, SVG Export Plug-In . SVG Version: 6.00 Build 43363)  -->
<!DOCTYPE svg PUBLIC "-//W3C//DTD SVG 1.1//EN" "http://www.w3.org/Graphics/SVG/1.1/DTD/svg11.dtd">
<svg version="1.1" xmlns="http://www.w3.org/2000/svg" xmlns:xlink="http://www.w3.org/1999/xlink" x="0px" y="0px"
	 width="595.445px" height="720px" viewBox="0 0 595.445 720" enable-background="new 0 0 595.445 720" xml:space="preserve">
<defs>
   <linearGradient id="colour1">
     <stop offset="100%" stop-color="red"/>
   </linearGradient>
   <linearGradient id="colour2">
     <stop offset="100%" stop-color="orange"/>
   </linearGradient>
 </defs>
	<g id="Dream">
		<g id="_x23_ffffffff">
			<path fill="url(#colour1)" d="M318.886,338.426c-0.055-4.482,0.692-9.333,4.096-12.564c-0.118,1.701,1.062,3.797-0.262,5.283
				c-1.566,2.132-3.366,4.257-3.277,7.083c1.107-0.359,2.215-0.765,3.304-1.206c0.521-2.781-0.639-6.453,2.116-8.342
				c-0.118,2.628-0.153,5.256,0.179,7.866c4.438-0.352,9.199-2.188,13.455-0.154c3.753,1.53,7.533,3.006,11.206,4.725
				c-0.946,1.863-2.135,3.583-3.601,5.068c-5.166-1.882-10.719-2.188-16.165-2.179c2.296,1.719,4.699,3.285,7.119,4.843
				c9.136,5.462,15.626,16.029,13.708,26.882c-0.072-1.296-0.145-2.592-0.208-3.888c-0.396,2.421-0.603,5.454-3.185,6.588
				c-4.546,1.692-9.45,0.019-13.933-1.106c2.755-0.1,6.174,0.387,8.227-1.881c1.521-2.322,0.477-5.302-0.514-7.614
				c-3.429-7.758-9.917-13.464-14.607-20.394c-0.862-0.459-1.736-0.9-2.591-1.35c0.387-0.019,1.169-0.055,1.564-0.072
				c-0.251-1.08-0.935-1.53-2.042-1.341c-7.893,0.388-17.902,4.725-18.333,13.797c-1.144,0.936-0.314,3.276,1.036,1.666
				c6.335-2.494,13.606-4.978,20.33-2.619c4.49,1.898,4.42,8.019,1.206,11.079c-5.977-1.17-12.141-1.008-18.108,0.091
				c-6.967,1.196-13.914,4.761-17.658,10.961c-1.341,2.476-3.095,5.292-1.97,8.173l-0.559-0.153l-0.504-0.145
				c-0.179,1.414-0.315,2.826-0.404,4.248c-2.727-12.555,5.363-24.759,16.021-30.726c-0.559-4.744,0.072-9.756,2.727-13.824
				C309.949,343.034,314.25,340.1,318.886,338.426z"/>
			<path fill="url(#colour1)" d="M317.985,381.563c4.014-3.455,9.586-4.842,14.805-4.4c-5.372-0.612-10.898,3.51-10.656,9.171
				c-0.09,2.33,0.173,4.697,1.145,6.849c2.32,5.634,4.634,11.395,5.058,17.542c0.721,4.328-0.586,8.604-0.702,12.932
				c0,0-0.774,2.053-0.81,3.187l-0.19-2.25c-1.151,1.962-2.149,4.014-3.401,5.922c3.186-6.417,2.034-14.139-0.837-20.457
				c-2.169-5.166-6.931-8.946-8.172-14.544C312.811,390.662,314.025,384.893,317.985,381.563z"/>
			<path fill="url(#colour1)" d="M312.604,396.313c1.404,3.853,2.602,8.227,0.594,12.114c-2.808,5.724-9.54,7.821-15.363,8.928
				c-11.844,1.737-24.101,6.669-31.238,16.74c-0.36,0.514-1.081,1.548-1.44,2.062c3.978-13.608,14.868-24.813,28.053-29.836
				c4.382-1.809,9.107-2.528,13.581-4.067c-1.243-0.819-2.494-1.603-3.753-2.385c1.521,0.684,2.978,1.477,4.445,2.259
				C309.58,400.589,312.171,399.148,312.604,396.313z"/>
			<path fill="url(#colour1)" d="M264.94,457.596c0.719,1.484,1.414,2.987,2.124,4.473c1.529-0.505,3.069-1.009,4.607-1.485
				c-0.702,1.521-1.44,3.033-2.141,4.563c1.368,0.819,2.735,1.647,4.104,2.493c-1.667,0.369-3.34,0.738-5.004,1.099
				c0.188,1.655,0.369,3.32,0.548,4.986c-1.287-1.125-2.556-2.241-3.825-3.366c-1.169,1.116-2.331,2.241-3.5,3.356
				c0.018-1.62,0.026-3.249,0.053-4.868c-1.628-0.253-3.257-0.505-4.878-0.819c1.324-0.946,2.665-1.863,4.015-2.781
				c-0.874-1.44-1.737-2.871-2.61-4.302c1.638,0.405,3.277,0.836,4.913,1.259C263.859,460.663,264.39,459.125,264.94,457.596z"/>
			<path fill="url(#colour1)" d="M282.597,466.441c1.234-2.132,2.431-4.302,3.357-6.587c-1.647,17.702-15.156,32.453-31.329,38.735
				c-1.702,0.72-3.401,1.431-5.121,2.124c-8.181,3.582-17.406,5.266-24.58,10.836c-3.069,1.998-0.603,5.688,0.199,8.334
				c6.813-0.009,13.616-0.063,20.42,0.09c-8.207,0.108-16.471,0.297-24.651-0.107c1.306-0.108,2.619-0.189,3.934-0.244
				c-0.666-1.881-1.295-3.771-1.926-5.66c-0.522,0.612-1.566,1.845-2.097,2.466c1.846-5.13,5.455-9.368,9.253-13.167
				c6.064-6.22,22.311-16.992,23.138-17.487c9.19-6.236,20.628-9.288,28.125-17.855c1.693-1.477-0.225-3.591-0.603-5.22
				C281.383,463.931,281.977,465.19,282.597,466.441z"/>
		</g>
		<g id="_x23_ec008cff">
			<path fill="url(#colour2)" d="M329.937,344.005c5.446-0.009,10.999,0.297,16.165,2.179c-2.817,1.476-5.913,2.259-9.046,2.664
				C334.636,347.291,332.232,345.725,329.937,344.005z"/>
			<path fill="url(#colour2)" d="M323.476,344.671c1.107-0.189,1.791,0.261,2.042,1.341c-0.396,0.018-1.178,0.054-1.564,0.072
				C323.836,345.734,323.593,345.023,323.476,344.671z"/>
			<path fill="url(#colour2)" d="M306.179,360.134c-1.351,1.611-2.18-0.729-1.036-1.666C305.395,358.883,305.916,359.72,306.179,360.134z"
				/>
			<path fill="url(#colour2)" d="M309.606,368.685c5.968-1.099,12.132-1.261,18.108-0.091
				C322.243,371.501,315.023,371.924,309.606,368.685z"/>
			<path fill="url(#colour2)" d="M347.371,378.431c2.582-1.134,2.789-4.167,3.185-6.588c0.063,1.296,0.136,2.592,0.208,3.888
				c-0.19,3.43-3.069,6.103-6.193,7.083c-5.867,1.891-12.032-0.171-18.018,0.532c-1.925,0.143-3.121,1.772-4.419,2.987
				c-0.242-5.661,5.284-9.783,10.656-9.171l0.648,0.162C337.921,378.449,342.825,380.123,347.371,378.431z"/>
			<path fill="url(#colour2)" d="M288.915,387.521l0.504,0.145c1.854,1.593,3.762,3.556,6.436,3.438c5.787,0.225,12.96-0.063,16.749,5.211
				c-0.433,2.835-3.023,4.275-5.121,5.814c-1.468-0.782-2.925-1.575-4.445-2.259c-3.259-0.801-6.75-0.576-9.874-1.908
				c-2.501-1.089-4.104-3.601-4.653-6.192C288.6,390.347,288.736,388.935,288.915,387.521z"/>
			<path fill="url(#colour2)" d="M323.232,430.514c1.252-1.908,2.25-3.96,3.401-5.922l0.19,2.25
				c-4.321,14.112-16.912,23.886-30.061,29.394c2.331-5.651,5.535-10.881,8.235-16.361
				C312.127,439.738,319.073,436.346,323.232,430.514z"/>
			<path fill="url(#colour2)" d="M265.156,436.157c0.359-0.514,1.08-1.548,1.44-2.062c4.166,5.454,11.016,7.75,15.507,12.87
				c3.13,3.394,4.887,8.298,3.851,12.889c-0.926,2.285-2.123,4.455-3.357,6.587c-0.62-1.251-1.214-2.511-1.881-3.743
				c-3.707-6.039-10.413-9.378-14.391-15.192C264.049,444.248,263.49,439.784,265.156,436.157z"/>
		</g>
	</g>
</svg>