<?xml version="1.0" encoding="utf-8"?>
<!-- Generator: Adobe Illustrator 13.0.0, SVG Export Plug-In . SVG Version: 6.00 Build 14948)  -->
<!DOCTYPE svg PUBLIC "-//W3C//DTD SVG 1.1//EN" "http://www.w3.org/Graphics/SVG/1.1/DTD/svg11.dtd">
<svg version="1.1" id="Layer_1" xmlns="http://www.w3.org/2000/svg" xmlns:xlink="http://www.w3.org/1999/xlink" x="0px" y="0px"
	 width="160px" height="114.118px" viewBox="0 0 160 114.118" enable-background="new 0 0 160 114.118" xml:space="preserve">
<g id="Dynamic_Sol_Logo">
	 <defs>
   <linearGradient id="colour0"> 
     <stop offset="100%" stop-color="gray"/> 
   </linearGradient> 
   <linearGradient id="colour1"> 
     <stop offset="100%" stop-color="#E31937"/> 
   </linearGradient> 
</defs>	 
	<ellipse fill="" cx="86.172" cy="38.098" rx="47.372" ry="23.618"/>
	<ellipse fill="#FFD200" cx="86.492" cy="25.329" rx="29.201" ry="11.397"/>
	<path fill="url(#colour1)" d="M73.585,22.445c0,0-1.648,0.732-2.197,0.55c-0.549-0.183-1.832,0.548-3.295,1.28
		c-1.465,0.734-2.38-1.098-2.38-1.098s5.126-3.844,5.31-4.942l6.773,0.182v0.733l1.465,0.366l0.549-0.732l-1.098-0.549
		c0,0-0.733-1.649,0.732-1.832c1.464-0.183,3.295,0.367,3.295,0.367s8.604-0.367,8.789,0.731C91.71,18.6,91.71,18.6,91.71,18.6
		s-0.55,1.099-2.929,2.014c0,0-0.55,1.099,6.406,0.732c6.959-0.365,8.238,0.916,8.238,0.916s2.932,0.732,4.029,1.647
		c1.099,0.915,5.675-1.281,7.506-0.55l-2.014,1.1h2.746c0,0-2.746,0.731-3.844,0.731c-1.099,0,2.746,0.732,3.479,0.732
		c0,0-3.113,1.282-4.761,1.282c-1.648,0-5.493-0.917-5.493-1.465c0,0-2.014,2.746-3.662,2.746c0,0-0.914,1.098-0.365,2.015
		c0.55,0.915,1.281,2.196,0.183,2.196c-1.098,0-5.492,1.647-5.857,2.746l-0.917,0.184l0.185-0.915c0,0,3.111-2.381,4.394-2.931
		c1.281-0.55-2.197-1.647-1.282-2.746l-1.647,0.916l-0.366,2.93l-4.76,3.111h-2.015l1.282-0.915c0,0,3.113-2.014,3.295-2.563
		c0.185-0.548-0.914-3.295-0.914-3.295l-3.479,0.55l-4.76,4.211c0,0,3.113,1.647,4.028,0.548l0.109-0.145l0.439-0.588l0.916,0.55
		c0,0-4.211,2.563-7.689,0.367c0,0,0.733-2.931,1.465-3.113s0.732-0.731-1.282-0.731c-2.014,0-6.225,0-6.591,0.731
		c-0.367,0.732,0.915,2.929,1.464,3.661h-1.464c0,0-2.563-2.379-2.38-3.479c0.183-1.098,3.296-2.013,3.662-2.746
		c0.366-0.732-1.099-0.549-1.099-2.013C75.965,25.557,73.585,22.445,73.585,22.445z"/>
	<g>
		<path fill="#FFFFFF" d="M51.941,39.192h4.654c0.822,0,1.51,0.108,2.062,0.325c0.551,0.219,0.985,0.524,1.299,0.921
			c0.315,0.394,0.536,0.853,0.665,1.377c0.129,0.524,0.193,1.117,0.193,1.777c0,0.508-0.062,1.007-0.187,1.494
			c-0.125,0.488-0.334,0.938-0.628,1.354s-0.688,0.75-1.179,1.004c-0.492,0.254-1.089,0.381-1.79,0.381h-5.089V39.192z
			 M53.761,46.469h2.544c0.37,0,0.708-0.038,1.014-0.114c0.306-0.077,0.587-0.222,0.844-0.436c0.257-0.215,0.46-0.516,0.609-0.906
			s0.223-0.889,0.223-1.493c0-0.661-0.091-1.194-0.271-1.601c-0.182-0.407-0.415-0.71-0.7-0.906
			c-0.285-0.198-0.577-0.325-0.874-0.381c-0.298-0.057-0.611-0.084-0.941-0.084h-2.448V46.469z"/>
		<path fill="#FFFFFF" d="M65.794,44.536l-3.77-5.344h2.211l2.469,3.842l2.469-3.842h2.211l-3.771,5.344v3.289h-1.82V44.536z"/>
		<path fill="#FFFFFF" d="M72.935,39.192h2.075l5.127,6.487h0.024v-6.487h1.733v8.633h-2.039l-5.164-6.487h-0.024v6.487h-1.733
			V39.192z"/>
		<path fill="#FFFFFF" d="M87.273,39.192h2.15l3.842,8.633h-2.018l-0.905-2.146h-4.061l-0.895,2.146h-1.957L87.273,39.192z
			 M89.797,44.324l-1.473-3.639l-1.498,3.639H89.797z"/>
		<path fill="#FFFFFF" d="M94.776,39.192h2.61l3.021,6.694l2.996-6.694h2.586v8.633h-1.702l0.07-7.14h-0.023l-3.189,7.14h-1.548
			l-3.166-7.14h-0.022l0.072,7.14h-1.705V39.192z"/>
		<path fill="#FFFFFF" d="M108.503,39.192h1.819v8.633h-1.819V39.192z"/>
		<path fill="#FFFFFF" d="M119.928,42.385c-0.089-0.652-0.384-1.162-0.883-1.528s-1.131-0.549-1.896-0.549
			c-0.87,0-1.573,0.287-2.108,0.862c-0.536,0.576-0.804,1.408-0.804,2.494c0,0.443,0.073,0.853,0.217,1.227
			c0.146,0.375,0.354,0.698,0.628,0.974c0.274,0.273,0.596,0.482,0.968,0.627c0.371,0.146,0.777,0.218,1.22,0.218
			c0.443,0,0.828-0.066,1.154-0.199c0.326-0.134,0.594-0.311,0.804-0.532c0.208-0.221,0.368-0.454,0.478-0.701
			c0.107-0.245,0.184-0.496,0.224-0.755h1.957c-0.072,0.467-0.208,0.909-0.405,1.324c-0.196,0.414-0.483,0.789-0.857,1.125
			c-0.375,0.333-0.866,0.6-1.475,0.797c-0.607,0.198-1.339,0.297-2.192,0.297c-0.758,0-1.427-0.118-2.007-0.356
			c-0.58-0.237-1.063-0.567-1.45-0.99c-0.387-0.424-0.677-0.909-0.865-1.458c-0.19-0.547-0.284-1.132-0.284-1.752
			c0-0.622,0.094-1.204,0.284-1.753c0.188-0.548,0.482-1.033,0.877-1.457c0.396-0.422,0.898-0.752,1.512-0.99
			c0.612-0.237,1.329-0.357,2.149-0.357c0.727,0,1.373,0.089,1.941,0.267c0.567,0.178,1.049,0.423,1.443,0.739
			c0.395,0.313,0.703,0.68,0.924,1.095c0.223,0.413,0.357,0.859,0.405,1.334H119.928z"/>
	</g>
	<g>
		<path fill="#FFD200" d="M52.176,50.402c0.053-0.094,0.127-0.168,0.221-0.227c0.095-0.059,0.205-0.102,0.33-0.129
			s0.262-0.041,0.409-0.041c0.116,0,0.233,0.009,0.352,0.023c0.119,0.018,0.237,0.051,0.354,0.102
			c0.117,0.051,0.216,0.127,0.298,0.229c0.081,0.104,0.129,0.233,0.145,0.394h-0.534c-0.008-0.103-0.062-0.191-0.16-0.267
			c-0.098-0.074-0.243-0.111-0.434-0.111c-0.169,0-0.303,0.026-0.4,0.08c-0.098,0.055-0.146,0.136-0.146,0.242
			c0,0.058,0.018,0.104,0.053,0.141c0.035,0.036,0.083,0.065,0.143,0.087c0.061,0.021,0.126,0.039,0.196,0.051
			c0.07,0.013,0.167,0.026,0.29,0.042c0.169,0.019,0.308,0.04,0.417,0.062c0.11,0.023,0.215,0.058,0.316,0.104
			c0.101,0.047,0.182,0.115,0.244,0.204c0.061,0.089,0.092,0.202,0.092,0.338c0,0.145-0.034,0.268-0.1,0.367
			c-0.067,0.1-0.156,0.179-0.266,0.237c-0.109,0.059-0.229,0.101-0.36,0.123c-0.13,0.025-0.265,0.037-0.403,0.037
			c-0.207,0-0.386-0.021-0.537-0.059c-0.152-0.041-0.275-0.097-0.37-0.168c-0.096-0.071-0.167-0.157-0.213-0.259
			c-0.046-0.101-0.07-0.215-0.072-0.342h0.532c0.007,0.15,0.069,0.266,0.188,0.342c0.119,0.077,0.281,0.115,0.487,0.115
			c0.08,0,0.154-0.005,0.222-0.018c0.068-0.012,0.13-0.031,0.185-0.059c0.055-0.027,0.099-0.064,0.129-0.108
			c0.03-0.046,0.046-0.099,0.046-0.16c0-0.063-0.019-0.113-0.055-0.152c-0.036-0.042-0.085-0.074-0.148-0.1
			c-0.063-0.023-0.133-0.042-0.209-0.057c-0.077-0.014-0.175-0.029-0.293-0.045c-0.161-0.023-0.295-0.047-0.403-0.069
			c-0.108-0.021-0.21-0.056-0.307-0.103c-0.096-0.048-0.174-0.113-0.232-0.196s-0.087-0.19-0.087-0.319
			C52.098,50.607,52.124,50.495,52.176,50.402z"/>
		<path fill="#FFD200" d="M59.156,51.53l-1.028-1.456h0.604l0.671,1.049l0.672-1.049h0.603L59.65,51.53v0.895h-0.494V51.53z"/>
		<path fill="#FFD200" d="M64.629,50.074h0.567l1.4,1.763h0.006v-1.763h0.476v2.351h-0.557l-1.411-1.763h-0.006v1.763h-0.477V50.074
			z"/>
		<path fill="#FFD200" d="M71.29,50.074h1.269c0.225,0,0.412,0.03,0.563,0.089c0.15,0.06,0.269,0.144,0.354,0.25
			c0.086,0.107,0.146,0.233,0.182,0.376c0.036,0.142,0.053,0.305,0.053,0.483c0,0.139-0.017,0.275-0.051,0.407
			c-0.035,0.132-0.092,0.256-0.171,0.368c-0.08,0.114-0.188,0.205-0.322,0.273c-0.134,0.069-0.297,0.104-0.488,0.104H71.29V50.074z
			 M71.783,52.056h0.697c0.101,0,0.193-0.011,0.277-0.031c0.083-0.021,0.161-0.062,0.231-0.118c0.07-0.059,0.125-0.141,0.166-0.248
			c0.042-0.106,0.062-0.242,0.062-0.407c0-0.179-0.025-0.323-0.075-0.436c-0.049-0.11-0.113-0.192-0.191-0.247
			c-0.078-0.054-0.158-0.088-0.239-0.104c-0.082-0.015-0.167-0.022-0.258-0.022h-0.67V52.056z"/>
		<path fill="#FFD200" d="M77.828,50.074h0.493v2.351h-0.493V50.074z"/>
		<path fill="#FFD200" d="M84.468,50.941c-0.024-0.178-0.104-0.316-0.241-0.417c-0.136-0.1-0.308-0.149-0.517-0.149
			c-0.238,0-0.429,0.078-0.575,0.234c-0.146,0.158-0.219,0.384-0.219,0.681c0,0.121,0.02,0.232,0.06,0.335
			c0.039,0.102,0.096,0.19,0.171,0.266c0.074,0.073,0.163,0.132,0.263,0.172c0.101,0.039,0.212,0.058,0.333,0.058
			c0.121,0,0.225-0.018,0.314-0.055c0.089-0.035,0.162-0.083,0.219-0.145c0.058-0.06,0.101-0.124,0.131-0.19
			c0.029-0.067,0.049-0.136,0.061-0.207h0.535c-0.021,0.129-0.057,0.249-0.111,0.362c-0.054,0.113-0.132,0.215-0.234,0.306
			c-0.102,0.092-0.236,0.164-0.401,0.219c-0.167,0.053-0.366,0.08-0.598,0.08c-0.207,0-0.389-0.033-0.547-0.097
			c-0.159-0.066-0.29-0.155-0.396-0.271c-0.105-0.115-0.184-0.248-0.236-0.397c-0.051-0.149-0.078-0.309-0.078-0.478
			c0-0.17,0.026-0.328,0.078-0.479c0.052-0.148,0.131-0.28,0.239-0.396c0.108-0.116,0.246-0.206,0.413-0.272
			c0.167-0.063,0.362-0.096,0.586-0.096c0.197,0,0.374,0.023,0.529,0.072c0.155,0.048,0.286,0.115,0.394,0.2
			c0.107,0.086,0.191,0.186,0.252,0.299c0.061,0.114,0.098,0.234,0.111,0.364H84.468z"/>
		<path fill="#FFD200" d="M89.909,50.074h0.586l1.048,2.351h-0.551l-0.246-0.582h-1.107l-0.243,0.582H88.86L89.909,50.074z
			 M90.596,51.472l-0.401-0.991l-0.409,0.991H90.596z"/>
		<path fill="#FFD200" d="M95.947,50.443h-0.884v-0.369h2.26v0.369H96.44v1.981h-0.493V50.443z"/>
		<path fill="#FFD200" d="M101.294,50.074h0.494v2.351h-0.494V50.074z"/>
		<path fill="#FFD200" d="M106.628,52.393c-0.177-0.066-0.321-0.155-0.435-0.271c-0.111-0.115-0.194-0.248-0.247-0.396
			c-0.054-0.146-0.079-0.307-0.079-0.479c0-0.173,0.025-0.332,0.079-0.48c0.053-0.15,0.134-0.282,0.246-0.396
			c0.11-0.114,0.255-0.203,0.433-0.27c0.179-0.063,0.388-0.096,0.629-0.096s0.451,0.032,0.628,0.096
			c0.178,0.066,0.321,0.156,0.432,0.272c0.11,0.115,0.193,0.246,0.246,0.395c0.054,0.148,0.079,0.307,0.079,0.479
			c0,0.172-0.025,0.332-0.079,0.481c-0.053,0.148-0.136,0.28-0.246,0.395s-0.254,0.203-0.432,0.27
			c-0.177,0.063-0.387,0.097-0.628,0.097S106.806,52.457,106.628,52.393z M107.894,51.881c0.153-0.159,0.23-0.369,0.23-0.634
			c0-0.264-0.077-0.476-0.23-0.635c-0.155-0.16-0.367-0.238-0.64-0.238c-0.273,0-0.486,0.078-0.642,0.238
			c-0.153,0.159-0.229,0.371-0.229,0.635c0,0.265,0.076,0.475,0.229,0.634c0.155,0.16,0.368,0.238,0.642,0.238
			C107.527,52.12,107.739,52.042,107.894,51.881z"/>
		<path fill="#FFD200" d="M112.717,50.074h0.567l1.398,1.763h0.008v-1.763h0.477v2.351h-0.558l-1.41-1.763h-0.007v1.763h-0.476
			V50.074z"/>
		<path fill="#FFD200" d="M119.333,50.402c0.052-0.094,0.127-0.168,0.221-0.227s0.204-0.102,0.33-0.129
			c0.124-0.027,0.261-0.041,0.407-0.041c0.117,0,0.234,0.009,0.354,0.023c0.119,0.018,0.237,0.051,0.354,0.102
			c0.118,0.051,0.218,0.127,0.299,0.229c0.081,0.104,0.13,0.233,0.146,0.394h-0.534c-0.008-0.103-0.063-0.191-0.16-0.267
			c-0.098-0.074-0.242-0.111-0.433-0.111c-0.17,0-0.304,0.026-0.401,0.08c-0.098,0.055-0.146,0.136-0.146,0.242
			c0,0.058,0.017,0.104,0.052,0.141s0.083,0.065,0.144,0.087s0.126,0.039,0.195,0.051c0.071,0.013,0.168,0.026,0.291,0.042
			c0.167,0.019,0.307,0.04,0.418,0.062c0.108,0.023,0.214,0.058,0.314,0.104c0.102,0.047,0.183,0.115,0.244,0.204
			c0.061,0.089,0.092,0.202,0.092,0.338c0,0.145-0.034,0.268-0.102,0.367c-0.065,0.1-0.153,0.179-0.265,0.237
			c-0.108,0.059-0.229,0.101-0.359,0.123c-0.131,0.025-0.266,0.037-0.404,0.037c-0.205,0-0.384-0.021-0.535-0.059
			c-0.152-0.041-0.275-0.097-0.371-0.168c-0.097-0.071-0.166-0.157-0.213-0.259c-0.046-0.101-0.07-0.215-0.072-0.342h0.531
			c0.007,0.15,0.07,0.266,0.188,0.342c0.119,0.077,0.283,0.115,0.488,0.115c0.08,0,0.152-0.005,0.222-0.018
			c0.068-0.012,0.13-0.031,0.185-0.059s0.098-0.064,0.129-0.108c0.03-0.046,0.047-0.099,0.047-0.16c0-0.063-0.02-0.113-0.055-0.152
			c-0.037-0.042-0.087-0.074-0.148-0.1c-0.063-0.023-0.132-0.042-0.21-0.057c-0.077-0.014-0.174-0.029-0.293-0.045
			c-0.16-0.023-0.295-0.047-0.402-0.069c-0.108-0.021-0.21-0.056-0.306-0.103c-0.097-0.048-0.175-0.113-0.234-0.196
			c-0.057-0.083-0.086-0.19-0.086-0.319C119.252,50.607,119.279,50.495,119.333,50.402z"/>
	</g>
</g>
</svg>