<?xml version="1.0" encoding="utf-8"?>
<!-- Generator: Adobe Illustrator 14.0.0, SVG Export Plug-In . SVG Version: 6.00 Build 43363)  -->
<!DOCTYPE svg PUBLIC "-//W3C//DTD SVG 1.0//EN" "http://www.w3.org/TR/2001/REC-SVG-20010904/DTD/svg10.dtd">
<svg version="1.0" xmlns="http://www.w3.org/2000/svg" xmlns:xlink="http://www.w3.org/1999/xlink" x="0px" y="0px" width="800px"
	 height="600px" viewBox="0 0 800 600" enable-background="new 0 0 800 600" xml:space="preserve">
<g id="Layer_2">
	<g>
		<path fill="#00AEEF" d="M363.333,261.333c0,0,35-6,44.667,61.667l-3.666-0.333c0,0-6.334-43-29-45.333
			C375.333,277.333,369,265,363.333,261.333z"/>
		<path fill="#00AEEF" d="M474,266.333c0,0,9.666-6,5-10s-49-36.333-99-48c-9.667-2-21.667,8.333-21.667,8.333h-11.667
			c0,0-3.667,15.667,9.667,22.667c0,0-6-11-2-17h2c0,0,3.333,8,7.333,9.333c1-10,33.334-10,59.667,14L422.667,229l4.333,1.333
			c0,0,5.668,19.667,19.334,23.667c0,0-6.334-8.667-4.667-17l6.667,4.333c0,0,7.666,16.667,9.666,17.667S474,266.333,474,266.333z"
			/>
		<path fill="#00AEEF" d="M322.333,216c0,0,16,3.333,16.333,4.667s-1,12.333-1,12.333S333,219.333,322.333,216z"/>
		<path fill="#00AEEF" d="M326.333,234.667c0,0-21,24.667,9,42c0,0-6.667-9.666-6.333-14.333c0,0,6.667,3.333,10,3.333
			C339,265.667,324.333,261.333,326.333,234.667z"/>
		<path fill="#00AEEF" d="M321.667,279.667c0,0,2.333,9.667,5,9.667c0,0-4,13.333,3,34.333c0,0-10.333,0.665-9.333-19.334
			C321.333,284.333,321.667,279.667,321.667,279.667z"/>
		<path fill="#00AEEF" d="M339,323c0,0,6.11,2.038,6.667-7c0.708-11.5,0.208-12.75,11.708-19.875
			c12.197-7.557,4.292-27.458,4.292-27.458s-3.333,1-2.333,5S358.299,290.527,351.5,295c-9.5,6.25-7.607,10.657-8.375,19.875
			C342.75,319.375,341,320.333,339,323z"/>
	</g>
	<g>
		<path d="M322.264,331.075h32.016v6.528h-22.704v7.104h21.552v6.239h-21.552v7.872h22.896v6.528h-32.208V331.075z"/>
		<path d="M360.424,331.075h9.312v27.456h20.88v6.816h-30.192V331.075z"/>
		<path d="M395.895,331.075h9.312v34.272h-9.312V331.075z"/>
		<path d="M421.959,337.604h-12.721v-6.528h34.752v6.528h-12.72v27.744h-9.312V337.604z"/>
		<path d="M448.021,331.075h32.017v6.528h-22.704v7.104h21.552v6.239h-21.552v7.872h22.896v6.528h-32.208V331.075z"/>
	</g>
	<g>
		<path d="M325.073,374.876v-6.542h-2.336v-1.332h6.257v1.332h-2.331v6.542H325.073z"/>
		<path d="M334.7,374.876v-7.874h1.59v3.1h3.115v-3.1h1.59v7.874h-1.59v-3.442h-3.115v3.442H334.7z"/>
		<path d="M346.991,370.987c0-0.802,0.12-1.476,0.36-2.02c0.179-0.401,0.423-0.761,0.733-1.079c0.31-0.319,0.649-0.556,1.018-0.709
			c0.491-0.208,1.056-0.313,1.697-0.313c1.16,0,2.088,0.36,2.785,1.08c0.697,0.72,1.045,1.721,1.045,3.002
			c0,1.271-0.346,2.267-1.037,2.984s-1.615,1.076-2.771,1.076c-1.171,0-2.102-0.356-2.793-1.071
			C347.337,373.225,346.991,372.24,346.991,370.987z M348.629,370.934c0,0.892,0.206,1.567,0.618,2.027s0.935,0.69,1.568,0.69
			s1.154-0.229,1.561-0.685c0.406-0.457,0.609-1.142,0.609-2.055c0-0.902-0.198-1.575-0.594-2.02
			c-0.396-0.444-0.921-0.666-1.576-0.666s-1.184,0.225-1.584,0.674S348.629,370.027,348.629,370.934z"/>
		<path d="M360.55,374.876v-7.874h3.346c0.841,0,1.453,0.07,1.834,0.212c0.381,0.142,0.687,0.394,0.916,0.755
			s0.344,0.775,0.344,1.24c0,0.592-0.174,1.079-0.521,1.464s-0.867,0.628-1.558,0.728c0.344,0.201,0.627,0.421,0.852,0.661
			c0.224,0.24,0.525,0.666,0.905,1.278l0.961,1.536h-1.901l-1.149-1.714c-0.408-0.611-0.688-0.998-0.838-1.157
			s-0.31-0.269-0.478-0.327c-0.168-0.06-0.435-0.089-0.8-0.089h-0.322v3.287H360.55z M362.14,370.332h1.176
			c0.763,0,1.239-0.032,1.429-0.097s0.338-0.176,0.446-0.333s0.161-0.354,0.161-0.591c0-0.265-0.071-0.479-0.212-0.642
			c-0.142-0.163-0.341-0.266-0.599-0.309c-0.129-0.019-0.516-0.027-1.16-0.027h-1.241V370.332z"/>
		<path d="M372.841,370.987c0-0.802,0.12-1.476,0.36-2.02c0.179-0.401,0.423-0.761,0.733-1.079c0.31-0.319,0.649-0.556,1.018-0.709
			c0.491-0.208,1.056-0.313,1.697-0.313c1.16,0,2.088,0.36,2.785,1.08c0.696,0.72,1.044,1.721,1.044,3.002
			c0,1.271-0.346,2.267-1.037,2.984s-1.615,1.076-2.771,1.076c-1.171,0-2.102-0.356-2.793-1.071
			C373.187,373.225,372.841,372.24,372.841,370.987z M374.479,370.934c0,0.892,0.206,1.567,0.618,2.027s0.935,0.69,1.568,0.69
			s1.154-0.229,1.56-0.685c0.407-0.457,0.61-1.142,0.61-2.055c0-0.902-0.198-1.575-0.593-2.02c-0.396-0.444-0.921-0.666-1.577-0.666
			s-1.184,0.225-1.584,0.674S374.479,370.027,374.479,370.934z"/>
		<path d="M386.384,367.002h1.59v4.265c0,0.677,0.02,1.115,0.059,1.315c0.068,0.322,0.23,0.581,0.486,0.776
			c0.256,0.195,0.606,0.293,1.05,0.293c0.451,0,0.792-0.092,1.021-0.276s0.367-0.411,0.414-0.68s0.07-0.715,0.07-1.338v-4.355h1.59
			v4.136c0,0.945-0.043,1.613-0.129,2.003c-0.086,0.391-0.245,0.721-0.475,0.988c-0.231,0.27-0.54,0.483-0.927,0.643
			s-0.892,0.238-1.515,0.238c-0.752,0-1.322-0.086-1.711-0.26c-0.388-0.174-0.695-0.399-0.921-0.677s-0.374-0.568-0.446-0.873
			c-0.104-0.451-0.156-1.117-0.156-1.998V367.002z"/>
		<path d="M402.676,371.98v-1.326h3.428v3.137c-0.334,0.322-0.816,0.606-1.448,0.852s-1.272,0.367-1.92,0.367
			c-0.823,0-1.542-0.172-2.154-0.518c-0.612-0.346-1.072-0.84-1.38-1.482s-0.462-1.342-0.462-2.098c0-0.82,0.172-1.549,0.516-2.186
			c0.344-0.638,0.847-1.127,1.509-1.467c0.505-0.262,1.133-0.393,1.885-0.393c0.978,0,1.741,0.205,2.291,0.615
			s0.903,0.977,1.061,1.7l-1.579,0.296c-0.111-0.387-0.319-0.692-0.626-0.916c-0.306-0.224-0.688-0.336-1.146-0.336
			c-0.694,0-1.247,0.221-1.657,0.66c-0.41,0.441-0.615,1.095-0.615,1.961c0,0.935,0.208,1.636,0.623,2.103
			c0.416,0.468,0.96,0.701,1.633,0.701c0.334,0,0.668-0.065,1.002-0.196c0.335-0.131,0.623-0.289,0.862-0.475v-1H402.676z"/>
		<path d="M412.25,374.876v-7.874h1.59v3.1h3.115v-3.1h1.59v7.874h-1.59v-3.442h-3.115v3.442H412.25z"/>
		<path d="M424.869,367.002h3.146c0.623,0,1.088,0.026,1.395,0.078c0.306,0.052,0.58,0.16,0.821,0.324
			c0.242,0.165,0.443,0.385,0.604,0.658c0.161,0.274,0.242,0.581,0.242,0.922c0,0.368-0.1,0.707-0.299,1.015
			c-0.198,0.308-0.468,0.539-0.809,0.692c0.48,0.141,0.85,0.378,1.107,0.715s0.387,0.732,0.387,1.188
			c0,0.357-0.084,0.706-0.25,1.044c-0.167,0.339-0.395,0.609-0.683,0.812s-0.644,0.326-1.065,0.373
			c-0.266,0.028-0.904,0.047-1.918,0.054h-2.68V367.002z M426.459,368.313v1.82h1.041c0.62,0,1.005-0.009,1.155-0.026
			c0.272-0.032,0.486-0.126,0.642-0.282c0.156-0.155,0.234-0.36,0.234-0.615c0-0.243-0.067-0.44-0.202-0.593
			c-0.134-0.152-0.333-0.245-0.599-0.276c-0.158-0.019-0.61-0.027-1.359-0.027H426.459z M426.459,371.443v2.105h1.471
			c0.573,0,0.938-0.016,1.091-0.048c0.236-0.043,0.429-0.147,0.577-0.314c0.148-0.166,0.223-0.39,0.223-0.669
			c0-0.236-0.057-0.437-0.172-0.602c-0.114-0.164-0.279-0.284-0.496-0.359s-0.688-0.113-1.41-0.113H426.459z"/>
		<path d="M437.488,374.876v-7.874h3.346c0.842,0,1.453,0.07,1.834,0.212c0.382,0.142,0.688,0.394,0.916,0.755
			s0.344,0.775,0.344,1.24c0,0.592-0.174,1.079-0.521,1.464c-0.347,0.385-0.866,0.628-1.557,0.728
			c0.344,0.201,0.627,0.421,0.851,0.661s0.526,0.666,0.905,1.278l0.961,1.536h-1.9l-1.15-1.714
			c-0.408-0.611-0.688-0.998-0.838-1.157s-0.309-0.269-0.478-0.327c-0.169-0.06-0.435-0.089-0.8-0.089h-0.322v3.287H437.488z
			 M439.078,370.332h1.176c0.763,0,1.238-0.032,1.429-0.097s0.339-0.176,0.446-0.333s0.16-0.354,0.16-0.591
			c0-0.265-0.07-0.479-0.212-0.642s-0.341-0.266-0.599-0.309c-0.129-0.019-0.516-0.027-1.16-0.027h-1.24V370.332z"/>
		<path d="M450.102,374.876v-7.874h5.838v1.332h-4.248v1.746h3.953v1.326h-3.953v2.143h4.398v1.327H450.102z"/>
		<path d="M462.107,367.002h2.906c0.654,0,1.154,0.05,1.498,0.15c0.462,0.136,0.857,0.378,1.188,0.725
			c0.329,0.348,0.58,0.773,0.752,1.276s0.258,1.123,0.258,1.86c0,0.648-0.081,1.207-0.242,1.676
			c-0.197,0.573-0.479,1.037-0.844,1.392c-0.275,0.269-0.647,0.478-1.117,0.628c-0.351,0.111-0.819,0.167-1.406,0.167h-2.992
			V367.002z M463.697,368.334v5.215h1.188c0.443,0,0.764-0.024,0.961-0.074c0.258-0.064,0.472-0.174,0.642-0.328
			c0.171-0.154,0.31-0.407,0.417-0.76s0.16-0.834,0.16-1.442s-0.053-1.076-0.16-1.401c-0.107-0.326-0.258-0.58-0.451-0.764
			c-0.193-0.182-0.439-0.306-0.736-0.37c-0.223-0.05-0.657-0.075-1.305-0.075H463.697z"/>
		<path d="M474.329,372.314l1.547-0.15c0.093,0.519,0.282,0.9,0.566,1.144c0.285,0.243,0.669,0.365,1.152,0.365
			c0.513,0,0.897-0.108,1.157-0.325s0.39-0.47,0.39-0.76c0-0.187-0.055-0.345-0.164-0.476c-0.108-0.131-0.3-0.244-0.571-0.341
			c-0.187-0.064-0.611-0.179-1.273-0.344c-0.852-0.211-1.45-0.471-1.794-0.779c-0.483-0.433-0.726-0.961-0.726-1.584
			c0-0.401,0.114-0.776,0.342-1.125c0.227-0.35,0.555-0.615,0.982-0.798s0.945-0.274,1.55-0.274c0.988,0,1.732,0.217,2.231,0.65
			c0.5,0.434,0.762,1.012,0.787,1.734l-1.59,0.07c-0.068-0.404-0.214-0.695-0.438-0.873c-0.225-0.177-0.56-0.266-1.008-0.266
			c-0.461,0-0.823,0.095-1.084,0.285c-0.169,0.121-0.253,0.284-0.253,0.488c0,0.187,0.079,0.346,0.236,0.479
			c0.2,0.168,0.688,0.344,1.461,0.525c0.773,0.184,1.346,0.372,1.716,0.567c0.371,0.195,0.661,0.462,0.87,0.8
			c0.21,0.339,0.314,0.757,0.314,1.254c0,0.451-0.126,0.874-0.376,1.268c-0.25,0.395-0.605,0.688-1.063,0.879
			s-1.029,0.287-1.714,0.287c-0.995,0-1.76-0.23-2.293-0.69S474.434,373.195,474.329,372.314z"/>
	</g>
</g>
</svg>
