<?xml version="1.0" encoding="utf-8"?>
<!-- Generator: Adobe Illustrator 14.0.0, SVG Export Plug-In . SVG Version: 6.00 Build 43363)  -->
<!DOCTYPE svg PUBLIC "-//W3C//DTD SVG 1.0//EN" "http://www.w3.org/TR/2001/REC-SVG-20010904/DTD/svg10.dtd">
<svg version="1.0" id="Layer_1" xmlns="http://www.w3.org/2000/svg" xmlns:xlink="http://www.w3.org/1999/xlink" x="0px" y="0px"
	 width="800px" height="600px" viewBox="0 0 800 600" enable-background="new 0 0 800 600" xml:space="preserve">
<defs>
   <linearGradient id="colour1">
     <stop offset="100%" stop-color="red"/>
   </linearGradient>
   <linearGradient id="colour2">
     <stop offset="100%" stop-color="orange"/>
   </linearGradient>
 </defs>
<circle fill="url(#colour1)" cx="400" cy="300" r="152.381"/>
<ellipse fill="url(#colour2)" cx="354.286" cy="246.667" rx="19.048" ry="30.476"/>
<ellipse fill="url(#colour2)" cx="445.715" cy="246.667" rx="19.048" ry="30.476"/>
<path fill="url(#colour2)" d="M510.286,344.044c-6.699,0-13.289-2.189-18.657-6.215c-5.628-4.221-9.693-10.296-11.448-17.107
	c-0.082-0.321,0.11-0.648,0.432-0.73c0.319-0.085,0.647,0.109,0.73,0.431c3.515,13.639,15.8,22.844,29.877,22.407
	c0.006,0,0.013,0,0.02,0c0.322,0,0.589,0.256,0.599,0.58c0.011,0.332-0.249,0.608-0.58,0.619
	C510.934,344.038,510.609,344.044,510.286,344.044L510.286,344.044z"/>
<path fill="url(#colour2)" d="M289.714,344.044c-0.324,0-0.647-0.006-0.971-0.016c-0.332-0.011-0.591-0.287-0.581-0.619
	c0.01-0.33,0.29-0.6,0.618-0.58c14.067,0.432,26.362-8.769,29.876-22.407c0.083-0.321,0.41-0.516,0.73-0.431
	c0.321,0.082,0.514,0.409,0.432,0.73c-1.755,6.812-5.821,12.887-11.448,17.107C303.003,341.854,296.413,344.044,289.714,344.044
	L289.714,344.044z"/>
<path fill="url(#colour2)" d="M308.572,338.096c26.024,50.494,88.055,70.331,138.549,44.308c19.019-9.802,34.506-25.29,44.308-44.308
	c-21.039,50.494-79.029,74.372-129.524,53.333C337.789,381.381,318.62,362.211,308.572,338.096"/>
</svg>
