<?xml version="1.0" encoding="utf-8"?>
<!-- Generator: Adobe Illustrator 14.0.0, SVG Export Plug-In . SVG Version: 6.00 Build 43363)  -->
<!DOCTYPE svg PUBLIC "-//W3C//DTD SVG 1.0//EN" "http://www.w3.org/TR/2001/REC-SVG-20010904/DTD/svg10.dtd">
<svg version="1.0" id="Layer_1" xmlns="http://www.w3.org/2000/svg" xmlns:xlink="http://www.w3.org/1999/xlink" x="0px" y="0px"
	 width="800px" height="600px" viewBox="0 0 800 600" enable-background="new 0 0 800 600" xml:space="preserve">
<circle fill="#FFFFFF" cx="180.286" cy="200.388" r="110.204"/>
<g>
	<path fill="#E31837" d="M101.612,249.727l-3.194-7.948l-2.555-3.269l-5.75-4.457l15.331,9.507l6.229,6.166l2.555,3.565l1.278,4.159
		l-3.833,16.861v4.456l4.472,7.428l3.833,2.599l5.11,2.378l7.027,1.484l7.027-1.188l5.11-2.376l2.555-3.193v-8.914l-4.472-7.13
		l-15.97-15.97l-2.555-3.564l-3.194-7.651l3.194-46.198l-3.194-20.128l-7.027-10.621l-3.673-3.268l0.648-0.892l14.693,11.947
		l6.863,10.874l3.833,44.699l2.555,7.946l5.75,6.832l4.472,2.378l7.501,2.375h5.75l5.11-2.378l2.555-3.269l1.278-4.158l-1.278-8.839
		l-12.138-22.207l-1.278-13.369l1.917-8.542l15.97-29.934l3.194-21.911l-3.194-10.917l4.472,7.13l2.555,12.998l-12.138,40.852
		l0.639,9.135l1.916,3.564l3.195,3.268l5.11,2.081l8.304,0.891l7.028-1.189l4.312-2.674l3.194-3.268v-8.543l-8.145-29.932
		l0.639-7.946l4.312-11.885l7.741-10.615l-5.789,16.397l1.907,21.686l12.08,26.612l-4.494,21.458l-17.08,24.508l-1.277,4.159
		l1.277,3.862l3.677,2.975l5.759,2.004l7.031,1.189l8.957-0.595l5.115-2.007l3.837-2.97l2.56-5.052v-7.724l-7.027-24.51
		l-0.639-9.209l3.194-7.725l7.667-7.055l-5.111,10.62v13.37l13.893,35.503v4.752l-3.194,7.652l-15.029,16.407l-2.077,3.849
		l-0.621,4.328l3.194,2.972l10.86,4.381l6.866,1.189l0.402,0.824l3.221-5.35V281l-3.833-16.86l1.278-4.159l2.555-3.565l6.229-6.165
		l15.331-9.508l-5.75,4.457l-2.555,3.269l-3.194,7.947l0.639,8.913l3.526,10.468c18.508-19.714,29.849-46.235,29.849-75.41
		c0-60.864-49.34-110.204-110.204-110.204S70.082,139.523,70.082,200.388c0,27.319,9.945,52.313,26.406,71.568l4.485-13.316
		L101.612,249.727z"/>
</g>
</svg>
