<?xml version="1.0" encoding="utf-8"?>
<!-- Generator: Adobe Illustrator 14.0.0, SVG Export Plug-In . SVG Version: 6.00 Build 43363)  -->
<!DOCTYPE svg PUBLIC "-//W3C//DTD SVG 1.1//EN" "http://www.w3.org/Graphics/SVG/1.1/DTD/svg11.dtd">
<svg version="1.1"
	 id="svg2" sodipodi:docname="AJAX.svg" inkscape:version="0.48.1 " xmlns:inkscape="http://www.inkscape.org/namespaces/inkscape" xmlns:svg="http://www.w3.org/2000/svg" xmlns:cc="http://creativecommons.org/ns#" xmlns:dc="http://purl.org/dc/elements/1.1/" xmlns:rdf="http://www.w3.org/1999/02/22-rdf-syntax-ns#" xmlns:sodipodi="http://sodipodi.sourceforge.net/DTD/sodipodi-0.dtd"
	 xmlns="http://www.w3.org/2000/svg" xmlns:xlink="http://www.w3.org/1999/xlink" x="0px" y="0px" width="465.025px"
	 height="313.836px" viewBox="0 0 465.025 313.836" enable-background="new 0 0 465.025 313.836" xml:space="preserve">
<defs>
   <linearGradient id="colour0">
     <stop offset="100%" stop-color="gray"/>
   </linearGradient>
   <linearGradient id="colour1">
     <stop offset="100%" stop-color="red"/>
   </linearGradient>
</defs>
<g>
	<path id="path10" inkscape:connector-curvature="0" fill="url(#colour0)" d="M267.999,182.315c0.313-1.335,0.557-3.082,0.699-4.161
		c0.141-1.08-2.025-7.014-2.516-8.479s-1.277-5.745-0.979-6.785c0.42-1.463,0.838-2.387,1.396-3.545
		c0.561-1.156,0.979-1.849,2.098-3.237c1.117-1.387,3.635-5.551,4.475-9.249c0.266-1.183,3.563-6.012,3.771-6.167
		c0.26-0.192,0.141,3.237,0,4.007s3.845-0.771,4.192-1.08c0.352-0.307-1.605,5.087-1.956,5.55c-0.348,0.462,1.817-0.076,2.376-0.309
		c0.559-0.231,2.027,0.54,1.818,0.925c-0.211,0.385-6.011,6.63-7.128,7.246c-1.119,0.617-2.029,2.236-2.518,3.083
		s-0.77,5.627,0,4.47c0.77-1.155,4.473-3.853,4.893-4.007c0.42-0.155,2.097,1.233,2.097,1.233s-7.966,9.173-8.106,10.174
		c-0.143,1.001,2.322-0.507,2.322-0.507s-0.996,9.988-1.344,12.069c-0.35,2.081-1.467,4.085-2.098,4.933
		c-0.629,0.849-2.795,1.619-4.191,1.85l-3.807,0.622c0.377,2.113,0.73,4.778,0.59,5.544c-0.209,1.156-1.049,4.395-3.215,6.938
		c-2.166,2.545-3.285,3.932-3.914,5.087c-0.627,1.157-1.047,5.241-0.42,6.321c0.629,1.08,3.074,6.244,3.074,7.4
		s-0.488,2.158-0.977,3.082c-0.488,0.928-2.027,4.857-2.375,6.32c-0.35,1.465-0.699,5.859-0.699,5.859
		c0,0.693-1.746,4.779-1.816,5.086c-0.072,0.311-2.586,2.082-4.055,1.85c-1.469-0.23-3.354,0.154-3.635-0.307
		c-0.279-0.461-0.697-1.543-0.557-2.16c0.137-0.615,2.723-3.236,3.354-3.852c0.629-0.617,2.936-5.781,3.494-7.863
		c0.561-2.08,1.117-6.705,0.838-7.399c-0.277-0.694-5.031-5.087-5.73-6.321c-0.699-1.232-2.08-4.824-2.848-7.059
		c-0.771-2.236-3.441,0.354-4.139,1.201c-0.703,0.848-2.24,4.162-1.82,5.396c0.42,1.231,2.098,3.236,2.098,3.545
		s-1.326,2.391-1.957,2.467c-0.629,0.076-2.725,0.385-3.773,0.615c-1.047,0.233-8.387,3.084-8.807,3.084h-2.236
		c-0.629,0-1.326,3.623-1.537,4.162c-0.209,0.541-1.473,1.688-1.957,1.852c-1.816,0.615-4.611-0.617-5.451-1.234
		c-0.521-0.385-1.678-1.928-0.979-2.775s3.076-4.162,4.193-5.549c0.604-0.75,5.033-0.309,8.105-1.389
		c1.199-0.422,6.57-2.312,6.99-3.391c0.42-1.078,0.855-1.278,0.576-1.973c-0.279-0.692-1.117-1.771-1.957-2.697
		c-0.838-0.925-5.469-4.889-3.23-7.816c1.441,0.016,6.848,0.616,4.471,0c-2.375-0.617-4.611-0.154-6.988-0.154
		s-3.494-0.154-5.311-0.618c-1.818-0.462-6.85-4.471-8.525-6.319c-1.678-1.85-8.807-7.091-9.926-7.555
		c-1.117-0.461-1.957-0.771-2.516-1.232c-0.559-0.463-0.473-1.355-1.311-3.051c-0.838-1.696-5.398-8.975-6.238-9.591
		c-0.838-0.616-3.773,5.087-4.473,6.628c-0.697,1.543-0.279,3.238,0,4.01c0.281,0.771,0.559,1.387,0.559,2.156
		c0,0.771-0.277,2.314-0.977,3.239s0.279,1.077,0.838,2.003c0.559,0.925-0.559,3.7-1.258,4.934
		c-0.699,1.232-1.537,2.006-2.096,1.851c-0.561-0.154-1.398-1.851-2.098-3.084c-0.699-1.231-0.559-2.312-0.139-3.392
		c0.418-1.079,0.559-1.541,0.559-2.466s-1.258-1.696-1.398-2.93c-0.139-1.232,0.279-2.157,1.119-3.546
		c0.838-1.387,3.215-7.707,3.494-8.941c0.279-1.232,0.484-3.846,0.979-4.777c0.977-1.852,3.215-1.852,4.193-1.234
		c0.979,0.615,7.355,3.887,5.887,2.883c-0.027-0.115-0.197-0.869-0.436-3.19c-0.268,0.286-3.477-4.604-4.055-5.241
		c-0.838-0.926-1.396-1.697-2.516-0.772c-1.117,0.925-7.129,6.167-6.289,7.4c0.838,1.233-0.84,2.93-0.84,2.93
		s-0.309,1.603,0.699,2.157c3.076,1.695-0.117,5.421-0.279,5.859c0,0-2.703-0.014-3.215-0.154c-0.186-0.052-2.795-3.546-2.656-4.471
		c0.141-0.926,0.561-2.16,0.699-2.93c0.141-0.771-0.279-1.851-0.559-2.313c-0.139-0.229-0.078-0.837,0.559-1.695
		c1.258-1.695,3.076-4.471,4.613-6.166s5.17-7.708,5.871-8.017c0.697-0.309,1.117-1.079,1.955-0.616
		c0.84,0.461,4.102,2.461,4.102,2.461c-0.723-1.549-1.797-3.859-2.057-4.433c-0.42-0.925-0.926-2.808-0.367-2.962
		c0.559-0.154,1.398-0.154,2.516,1.234c1.119,1.386-2.848-4.902-3.547-5.981c-0.699-1.078-0.926-2.96-0.926-2.96
		s2.098,0.771,2.797,1.696c0.697,0.925-1.172-2.588-1.73-3.513c-0.559-0.925-1.625-2.653-1.066-3.117
		c0.561-0.462,1.904-0.893,0.926-2.279c-0.977-1.387-2.322-5.428-2.742-6.506c-0.42-1.079,3.635,0.462,3.635,0.462
		c-1.119-1.387-7.02-11.032-6.43-12.333c0.697-1.541,5.396,2.499,4.418,1.112c-0.977-1.388-9.377-12.594-7.912-14.061
		c1.18-1.183,2.77,0.357,2.814,0.302c0.014-0.016-0.113-0.18-0.439-0.61c-1.398-1.851-6.85-8.171-5.73-9.558
		c1.117-1.386,1.117-1.386,2.936,0c1.816,1.387,1.418,0.225-0.473-1.356c-4.279-3.576-4.994-6.476-4.979-6.506
		c0.012-0.025,5.244,0.509,9.24,4.356c-3.432-3.866-13.039-15.021-12.316-15.919c1.119-1.387,10.902,5.396,14.816,9.096
		s11.182,13.72,14.396,19.116c2.883,4.837,8.504,20.599,8.387,20.658c0.807,0.164,1.381,0.482,2.236,0.771
		c1.609,0.54,4.473,2.542,6.012,4.007c1.537,1.465,2.863,3.7,4.053,5.857c1.188,2.159,2.236,6.168,2.795,8.787
		c0.561,2.623,0.42,6.861,0.279,8.788c-0.139,1.928-0.762,4.938-1.117,5.86c-0.438,1.123-1.006,2.109-1.121,2.311
		c-0.064-0.947-0.346,1.774,0.283,4.162c0.406,1.545,1.096,3.57,1.609,4.512c0.98-0.878,3.094-2.727,4.121-4.048
		c1.678-2.159,2.654-7.016,2.518-11.563c-0.131-4.164-0.98-12.024-1.68-15.879c-0.699-3.854-1.119-9.558-0.699-13.412
		c0.42-3.853,2.656-11.253,4.473-14.645c1.82-3.391,7.408-10.482,10.764-13.719c3.354-3.239,4.611-4.471,8.805-8.017
		c4.193-3.546,13.979-9.096,17.332-10.946c3.355-1.85,9.925-4.625,12.722-5.396c2.795-0.771,14.484-4.162,16.211-4.162
		c2.52,0,0,2.775-1.258,3.7c-1.258,0.925-5.588,4.78-7.408,6.167c-1.4,1.07,0.42,1.85,1.82,1.541
		c1.395-0.309,2.514,1.234,1.814,2.621c-0.697,1.387-10.482,10.483-8.945,10.176c1.537-0.309,3.914-0.463,4.334,1.078
		c0.4,1.478-12.02,10.33-10.623,9.867c1.396-0.461,1.955,1.696,1.678,2.466c-0.281,0.771-3.354,3.854-5.452,4.934
		c-2.096,1.078-5.172,2.775-3.354,2.775c1.816,0-1.258,3.698-2.516,4.932c-1.26,1.234-4.746,4.669-4.475,5.396
		c0.701,1.85-1.119,4.162-3.354,6.012c-2.236,1.85-3.389,2.195-2.236,3.082c1.396,1.08-0.277,3.084-1.537,4.471
		c-1.258,1.389-4.139,3.239-2.236,3.239c2.516,0,1.258,3.237,0.139,4.316c-1.117,1.08-3.773,1.85-2.936,3.391
		c0.979,1.799-0.42,2.93-1.535,3.7c-1.119,0.771-3.422,0.046-1.539,1.232c0.979,0.618-3.076,4.78-3.076,5.396
		c0,1.541-1.955,2.466-1.955,3.854c0,3.464-5.453,3.699-5.172,4.471c0.641,1.77-0.98,2.928-2.236,3.546
		c-1.258,0.616-3.494,0.923-2.238,2.157c1.311,1.283-3.887,3.66-3.213,3.546c0.176,0.244,5.73,2.081,7.406,2.005
		c1.678-0.078,11.604,0.154,12.301,0.309c0.699,0.152,6.012,3.622,7.131,5.087c1.117,1.463,2.234,3.392,2.654,4.778
		C263.019,188.656,266.882,187.096,267.999,182.315L267.999,182.315z"/>
	<path id="path12" inkscape:connector-curvature="0" fill="url(#colour1)" d="M229.521,208.356c0.137,0.313,0.279,0.628,0.402,0.923
		c0.42,1.004,1.469,2.006,2.307,2.93c0.84,0.926,1.678,2.006,1.957,2.699c0.279,0.692,0.07,1.617-0.35,2.697
		s-1.818,1.695-3.076,2.235s-2.934,0.925-4.121,1.387c-1.189,0.464-2.795,0.54-3.914,0.849c-1.119,0.307-1.328,0.154-2.445,0.154
		c-1.121,0-0.838-0.232-1.678,0.152c-0.838,0.388-0.629,0.695-0.91,1.465c-0.279,0.771-0.906,1.311-1.537,2.16
		c-0.627,0.848-0.697,0.693-1.396,1.541c-0.699,0.846-0.211,0.461-0.211,1.158c0,0.691,0.279,0.537,1.189,1.152
		c0.906,0.619,2.027,0.85,3.074,1.004c1.049,0.154,1.469-0.076,1.959-0.23c0.488-0.154,0.908-1.004,1.117-1.543
		c0.209-0.541,0.068-0.926,0.209-1.926c0.139-1.002,0.35-1.387,0.559-2.006c0.209-0.615,0.418-0.539,1.049-0.539
		c0.629,0,1.957,0.154,2.375,0.154c0.42,0,0.352-0.23,0.768-0.461c0.42-0.232,2.379-1.156,3.705-1.62
		c1.328-0.462,3.635-0.847,4.684-1.079c1.049-0.231,3.006-0.386,3.635-0.462c0.629-0.079,0.699-0.31,0.908-0.616
		c0.211-0.309,0.35-0.618,0.35-0.926c0-0.309-0.629-0.924-1.398-1.773c-0.77-0.847-0.488-1.001-0.908-2.235
		c-0.42-1.233,0-1.927,0.068-2.774c0.07-0.848,1.119-2.236,1.818-3.083c0.625-0.759,2.088-1.146,2.99-1.387h1.99
		c0.066,0.18,0.129,0.358,0.189,0.538c0.771,2.235,2.588,5.705,3.285,6.938c0.701,1.233,2.098,2.468,3.566,3.623
		c1.465,1.156,1.955,2.391,2.236,3.082c0.277,0.695,0.209,1.852,0.209,3.006c0,1.158-0.49,1.93-1.049,4.01
		c-0.559,2.082-1.746,4.393-2.307,5.934c-0.559,1.543-1.256,2.236-1.885,2.854c-0.631,0.617-1.328,1.002-2.1,1.771
		c-0.766,0.771-0.557,0.85-0.697,1.465c-0.141,0.619,0.279,1.002,0.561,1.465c0.279,0.465,0.42,0,1.885,0.232
		c1.469,0.232,3.146-0.156,3.703-0.387c0.561-0.23,0.771-0.461,0.84-0.77c0.068-0.307,0.068-0.771,0-1.541
		c-0.068-0.771,0.352-1.004,0.559-1.619c0.211-0.617,0.629-0.848,0.979-1.311c0.352-0.465,0.279-0.771,0.279-1.465
		c0-0.695-0.068-1.85-0.068-2.621s0.629-1.771,0.979-3.236c0.348-1.465,0.629-2.391,0.836-3.393c0.213-1.002,1.121-2.234,1.611-3.16
		c0.488-0.925,0.488-1.619,0.488-2.775c0-1.155-0.141-1.771-0.631-2.311c-0.488-0.541-0.559-1.08-1.398-1.774
		c-0.836-0.692-0.697-1.387-1.326-2.466c-0.629-1.08-0.279-2.236-0.209-3.623c0.053-1.053,0.387-1.705,0.818-2.462l1.906-0.004
		c-0.691,1.232-0.904,2.361-1.047,3.159c-0.213,1.157,0,2.08,0.348,3.16c0.35,1.08,1.748,2.467,2.377,3.314s0.77,1.619,0.77,2.313
		s0.07,2.544-0.07,3.314c-0.141,0.771-0.279,1.85-0.279,1.85s-1.119,0.695-1.818,1.465c-0.699,0.771-0.348,1.078-0.559,1.928
		c-0.209,0.848-0.348,2.234-0.768,3.006c-0.42,0.77-0.559,1.771-0.77,2.467c-0.209,0.693,0.211,2.004,0.211,2.773
		c0,0.773-0.281,1.158-0.91,1.928c-0.629,0.771-0.91,1.232-0.979,1.697c-0.068,0.461,0,0.691,0.279,1.08
		c0.281,0.385,0.281,0.307-0.139,0.768c-0.42,0.463-0.91,1.158-1.748,1.85c-0.838,0.695-1.537,0.465-3.146,0.771
		c-1.605,0.309-1.328,0-2.723-0.076c-1.398-0.078-1.049-0.23-1.748-0.385c-0.697-0.156-0.49-0.695-0.697-1.543
		c-0.213-0.848,0.137-1.697,0.346-2.389c0.211-0.695,1.33-1.695,2.1-2.543c0.768-0.848,1.326-1.465,1.814-1.85
		c0.49-0.385,0.352-0.619,0.701-1.465c0.348-0.85,1.256-2.391,1.676-3.471c0.42-1.076,1.049-4.777,1.189-6.473
		c0.139-1.697-0.838-3.314-1.33-4.01c-0.488-0.693-2.305-1.771-3.145-2.389c-0.838-0.617-0.629-1.156-1.605-2.697
		c-0.98-1.543-1.326-3.315-1.678-4.24c-0.119-0.309-0.297-0.738-0.498-1.203c-0.145,0.011-0.307,0.025-0.48,0.047
		c-0.629,0.076-0.701,0.23-2.238,0.771c-1.537,0.539-1.467,1.388-1.814,2.08c-0.35,0.694-0.279,1.543-0.279,2.391
		c0,0.846,1.605,2.544,2.025,3.16c0.42,0.615,0.211,0.925-0.209,1.771c-0.42,0.85-0.771,0.926-1.398,1.543
		c-0.629,0.616-0.77,0.462-2.654,0.848c-1.889,0.385-3.914,0.539-5.662,1.002c-1.746,0.463-3.564,1.232-4.262,1.773
		c-0.699,0.539-0.699,0.539-1.051,0.691c-0.348,0.156-0.977-0.076-1.814,0c-0.84,0.078-0.631,0.463-0.771,1.004
		c-0.139,0.539-0.139,1.234-0.277,2.158c-0.143,0.926-0.561,1.387-1.189,1.928c-0.629,0.539-1.746,0.924-2.584,1.154
		c-0.84,0.232-1.959-0.23-2.518-0.307c-0.559-0.078-1.467-0.771-2.518-1.773c-1.045-1.002-0.699-1.08-1.258-2.08
		c-0.559-1.004,0.213-1.697,0.701-2.236s1.537-1.928,2.025-2.391c0.49-0.461,0.91-1.386,1.469-2.311
		c0.559-0.926,2.234-0.85,3.143-0.771c0.91,0.076,1.748-0.154,2.938-0.309c1.186-0.154,1.605-0.309,2.166-0.463
		c0.559-0.153,1.188-0.462,3.354-1.156c2.168-0.692,3.217-1.311,3.775-1.927s-0.213-1.772-0.701-2.698
		c-0.488-0.924-1.746-1.772-2.516-2.697c-0.768-0.926-0.979-1.541-1.535-2.621c-0.121-0.234-0.232-0.465-0.33-0.69L229.521,208.356
		L229.521,208.356L229.521,208.356z"/>
	<path id="path14" inkscape:connector-curvature="0" fill="url(#colour1)" d="M179.353,171.207c-0.057,0.078-0.113,0.154-0.168,0.227
		c-0.637,0.859-0.807,1.046-0.785,1.08c0.023,0.035,0.229-0.074,0.365,0.154c0.281,0.462,0.84,1.695,0.701,2.467
		c-0.141,0.77-0.84,1.232-0.979,2.156c-0.141,0.926,0.42,1.389,1.117,2.93c0.467,1.031,0.561,1.303,0.736,1.418
		c0.088,0.055,0.197,0.072,0.383,0.124c0.512,0.142,2.666-0.104,3.025-0.147l0.27-0.627c0.16-0.439,0.389-1.033,0.619-1.537
		c0.42-0.926,0.139-1.234-0.84-1.851s-0.979-1.541-1.119-2.313c-0.139-0.771,0.701-1.695,0.701-1.695s1.117,0.154,0.277-1.078
		c-0.385-0.566-0.355-1.004-0.215-1.309l1.844,0.002c-0.121,0.18-0.238,0.353-0.371,0.535c-0.559,0.771,0.143,1.078,0,1.849
		c-0.139,0.772-0.838,1.079-0.977,1.696c-0.141,0.617,0.699,0.771,1.396,1.543c0.127,0.137,0.238,0.252,0.336,0.349l0.223-0.503
		c0.42-0.926,0.42-1.851,0.42-2.775c0-0.926-0.697-1.696,0.141-2.467c0.086-0.078,0.174-0.154,0.27-0.227h2.49
		c-0.121,0.064-0.248,0.141-0.385,0.227c-0.977,0.616-1.396,0.926-1.396,2.005c0,1.077,0,1.695-0.281,2.928
		c-0.277,1.233-0.697,3.7-1.396,4.935c-0.697,1.232-0.979,3.082-1.816,4.471c-0.84,1.387-1.398,2.312-1.26,3.545
		c0.141,1.232,1.26,2.004,1.26,2.928c0,0.926,0,0.926-0.42,2.006c-0.42,1.079-0.699,2.156,0,3.391s0.838,2.159,1.396,2.313
		c0.561,0.153,0.701,0.308,1.398-0.925c0.699-1.234,1.258-1.85,1.398-2.775c0.141-0.925-0.141-1.234-0.699-2.159
		s-0.979-1.695-0.281-2.62c0.701-0.926,1.26-1.232,1.26-2.005c0-0.771-0.697-1.696-0.979-2.466c-0.281-0.771-0.699-1.851,0-3.392
		c0.699-1.542,1.539-4.162,1.955-5.551c0.42-1.386,0.42-2.312,1.4-2.928c0.979-0.618,1.256-0.771,2.096-0.154
		c0.838,0.616,2.236,2.62,3.074,4.161c0.84,1.542,2.518,4.626,3.355,6.322c0.84,1.695,0.979,2.62,1.539,3.082
		c0.559,0.463,0.836-0.152,1.955,0.309c1.117,0.463,3.914,2.159,5.172,3.236c1.26,1.08,3.494,2.621,5.17,4.471
		c1.678,1.851,2.518,3.085,4.195,4.316c1.678,1.234,2.377,1.696,4.191,2.16c1.82,0.461,2.938,0.615,5.314,0.615
		c2.375,0,4.471-0.307,6.848,0.309c2.377,0.617,3.074,0.617,4.473,1.387c1.398,0.771,2.654,2.006,2.654,2.006
		s-3.352-1.542-6.43-1.696c-1.797-0.09-3.402-0.128-4.844-0.144c-0.064,0.293-0.148,0.691-0.188,0.992
		c-0.049,0.38,0.25,1.104,0.576,1.85h-1.883c-0.357-0.811-0.6-1.556-0.928-2.158c-0.143-0.262-0.295-0.498-0.42-0.694
		c-2.098,0-4.611,0-6.43-0.616s-6.01-4.471-7.547-6.012c-1.539-1.543-4.895-5.087-6.57-6.012c-1.678-0.926-4.193-2.16-4.895-2.314
		c-0.697-0.154-1.115-0.307-1.115-0.307s-2.236-4.935-3.215-6.939c-0.98-2.002-1.818-3.697-2.656-4.471
		c-0.838-0.771-1.678-1.541-2.238-1.387c-0.559,0.154-0.979,1.695-1.396,2.621c-0.418,0.925-1.26,2.775-1.537,3.546
		c-0.281,0.771-0.838,1.079-0.281,2.312c0.559,1.234,1.121,2.469,0.979,3.238c-0.139,0.771-0.979,2.313-0.979,2.313
		s-0.139,1.079,0.143,1.695c0.277,0.618,1.537,1.695,1.117,2.467c-0.42,0.77-1.537,4.009-2.375,5.088
		c-0.84,1.078-1.4,1.541-1.959,1.695c-0.559,0.153-0.42,0-1.258-1.079c-0.84-1.079-2.096-2.93-2.236-4.009
		c-0.139-1.078-0.559-1.541,0-2.313c0.561-0.77,1.119-2.156,1.119-2.156l-0.84-1.234c-0.418-0.616-1.396-1.387-0.977-2.775
		c0.418-1.387,0.977-3.546,1.396-4.471l0.283-0.641c-0.545-0.05-1.775-0.166-2.52-0.285c-0.979-0.154-1.119-0.77-1.678-1.541
		c-0.559-0.77-0.559-2.466-1.119-3.236c-0.559-0.771-0.277-1.85,0-2.467c0.281-0.617,0.84-1.388,0.84-1.388
		s-0.697-1.079-0.979-2.005c-0.174-0.578,0.088-1.215,0.309-1.613H179.353L179.353,171.207L179.353,171.207z M194.79,171.207
		c0.584,0.376,1.174,0.77,1.717,1.133c-0.002-0.281,0.002-0.643,0.018-1.047c-0.016-0.028-0.033-0.055-0.049-0.084l1.561-0.002
		c-0.115,0.952-0.234,1.807-0.191,1.999c1.469,1.003,6.779,5.936,7.758,6.86c0.979,0.926,1.119,1.389-0.279,0.771
		s-2.238-1.08-4.193-2.621s-3.354-2.621-5.311-4.008c-1.957-1.389-3.496-2.311-4.473-2.93c-0.039-0.024-0.078-0.047-0.113-0.068
		L194.79,171.207L194.79,171.207L194.79,171.207z M225.681,171.207c-0.482,0.302-0.939,0.54-1.348,0.691
		c-2.098,0.77-6.15,1.231-6.15,1.231s2.064-0.88,4.154-1.919L225.681,171.207L225.681,171.207L225.681,171.207z M239.698,171.207
		c-0.609,0.32-1.168,0.551-1.666,0.691c-1.121,0.307,0.277,1.386-0.701,2.311c-0.979,0.926-0.979,1.695-2.236,2.005l-0.127,0.028
		c0.264,0.178,0.588,0.375,0.896,0.51c0.699,0.309,1.467,0.154,3.074,0.078c1.609-0.078,5.73-0.078,7.828-0.078
		s2.377-0.154,4.893,0.232c2.516,0.385,3.844,1.387,6.15,2.852c2.305,1.465,3.633,3.546,4.682,4.933
		c0.475,0.63,0.936,1.667,1.324,2.71l0.213-0.09c0.908-0.385,2.098-1.926,2.727-4.238s1.119-5.24,0.908-6.398
		c-0.162-0.887-1.107-3.552-1.758-5.543l1.838-0.002c0.352,0.842,0.711,1.719,0.971,2.617c0.488,1.695,0.906,3.391,0.766,4.471
		c-0.139,1.08-0.277,3.006-0.84,4.238c-0.559,1.234-1.744,3.084-2.305,3.776c-0.559,0.694-1.328,1.543-1.678,1.851l-0.457,0.418
		l0.16,0.499c0.104,0.042,0.227,0.095,0.369,0.162c0.488,0.231,0.906,0.771,2.305,0.54c1.396-0.23,3.006-0.848,3.635-1.695
		c0.627-0.85,1.957-2.621,2.305-4.702c0.352-2.081,0.488-4.471,0.699-5.781c0.209-1.31,0.281-2.62,0.561-3.622
		c0.211-0.763,0.668-2.149,0.873-2.77l1.715-0.002c-0.387,1.469-1.195,6.321-1.262,7.626c-0.068,1.388-0.629,5.241-1.814,7.324
		c-1.191,2.081-1.611,3.16-2.518,3.776c-0.908,0.616-1.467,1.465-2.514,1.387c-1.051-0.076-2.449-0.152-3.078-0.385
		c-0.314-0.115-0.592-0.174-0.795-0.203c0.244,1.176,0.297,4.23,0.166,5.907c-0.139,1.772-1.117,3.622-2.025,5.396
		c-0.91,1.772-2.027,2.773-3.775,4.624c-0.541,0.574-0.949,1.146-1.258,1.699l-1.906-0.002c0.141-0.238,0.287-0.491,0.439-0.772
		c0.627-1.156,1.746-2.388,3.914-4.932c2.166-2.545,2.725-5.627,2.936-6.783c0.209-1.158-0.84-5.781-1.26-7.17
		c-0.42-1.387-1.605-3.313-2.725-4.777s-3.285-3.392-3.984-3.855c-0.699-0.461-1.607-1.001-2.305-1.155
		c-0.699-0.155-2.797-0.31-4.686-0.231c-1.885,0.076-5.799,0-7.477,0.076c-1.676,0.077-3.703-0.076-4.82-0.309
		c-1.119-0.23-1.051-0.615-1.818-1.078c-0.451-0.27-0.758-0.621-0.934-0.865c-0.674,0.114-1.398,0.303-2.281,0.787
		c-1.678,0.926-4.893,3.393-5.451,4.626l-0.561,1.233c0,0-0.42-1.388,0.42-2.93c0.84-1.541,1.396-2.465,3.494-3.545
		s5.313-1.85,6.012-2.467s1.955-2.004-0.281-1.234c-2.236,0.771-4.193,1.389-5.311,1.389c0,0,0.281-0.463,2.516-1.543
		c1.01-0.486,2.246-1.066,3.412-1.613H239.698L239.698,171.207L239.698,171.207z M274.794,171.207
		c-0.135,0.122-0.295,0.294-0.492,0.536c-0.629,0.771-1.188,1.696-1.396,2.081s-0.141,0.692-0.42,0.692
		c-0.277,0-0.42,0.232-0.49-0.308c-0.07-0.539-0.279-1.465-0.139-2.466c0.023-0.171,0.051-0.353,0.084-0.538L274.794,171.207
		L274.794,171.207L274.794,171.207z M242.698,208.356c0.107-0.026,0.207-0.054,0.295-0.078l0.104-0.026l-0.176-0.359
		c-0.418-0.848-0.766-1.695-1.256-2.62s-1.748-2.39-2.727-3.237s-1.469-1.619-2.725-2.62c-1.258-1.003-1.328-1.543-2.027-2.39
		c-0.699-0.85-0.35-1.004-0.35-1.004s0.07,0.232,1.119,1.004c1.047,0.77,1.607,1.001,3.004,2.004
		c1.398,1.002,3.146,2.852,4.123,4.162c0.9,1.203,1.859,3.127,2.605,5.165H242.698L242.698,208.356z"/>
	<path id="path16" inkscape:connector-curvature="0" fill="url(#colour1)" d="M177.677,171.207c0.133-0.238,0.25-0.389,0.25-0.389
		s3.775-4.779,4.893-6.166c1.119-1.389,4.055-5.551,5.033-6.939c0.977-1.387,0.977-1.542,2.096-2.157
		c1.117-0.616,1.537,0.154,2.795,0.616c0.371,0.138,0.744,0.382,1.127,0.677c-0.584-0.856-1.439-2.161-1.826-3.759
		c-0.559-2.313-0.697-1.696-0.139-2.313c0.559-0.616,1.119-0.462,1.119-0.462s-1.818-2.466-2.379-4.009
		c-0.557-1.541-0.697-3.237-0.697-3.237s0.42-0.616,0.979-0.461c0.303,0.082,0.441,0.166,0.504,0.225
		c-0.273-0.423-1.514-2.369-1.762-3.464c-0.281-1.232-0.559-1.541,0.141-1.695c0.697-0.155,1.537-0.307,1.537-0.307
		s-2.379-4.471-2.795-5.859c-0.42-1.387-0.561-1.696-0.281-2.312c0.281-0.616,0-0.771,0.979-0.461
		c0.979,0.307,2.098,0.923,2.098,0.923s-2.379-3.544-3.355-5.549c-0.979-2.004-1.816-2.93-2.236-4.471s-0.697-2.159-0.697-2.159
		s0.277-0.616,1.117-0.616c0.838,0,1.957,0.154,1.957,0.154s-4.193-6.167-5.313-8.48c-1.117-2.312-1.957-3.544-1.537-4.316
		c0.42-0.771,1.537-0.461,1.537-0.461l0.561,0.154c0,0-3.914-5.55-4.615-6.785c-0.697-1.232-0.838-1.541-0.559-2.312
		c0.281-0.771,0.84-0.771,1.398-0.925c0.559-0.155,1.119,0,1.119,0s-3.355-2.775-3.914-4.007c-0.559-1.234-0.699-1.542-0.699-2.159
		c0-0.616-0.279-0.925,0.699-0.925s2.236,0.155,3.215,0.618c0.977,0.461,2.377,1.078,2.377,1.078s-3.637-4.469-5.033-6.167
		c-1.396-1.696-2.656-3.082-3.494-4.162c-0.84-1.079-1.537-1.85-0.979-2.621c0.559-0.771,0.139-1.232,2.375-0.616
		c2.236,0.616,7.689,3.7,9.926,5.548c2.236,1.85,7.828,7.709,9.084,9.25c1.258,1.541,5.592,7.398,6.85,9.558
		s5.73,10.329,6.85,13.413c1.117,3.083,2.795,7.246,3.215,8.942c0.232,0.95,0.383,1.755,0.467,2.279
		c0.492,0.087,0.998,0.221,1.488,0.417c2.516,1.003,6.85,3.931,7.898,5.781c0.764,1.347,3.145,4.007,3.914,6.167
		c0.77,2.157,2.725,9.096,2.725,11.563c0,2.466,0.072,7.477-0.768,10.097c-0.84,2.621-1.469,3.546-1.678,4.238
		c-0.096,0.32-0.193,0.59-0.268,0.787c0.045,0.404,0.09,0.724,0.129,0.91c0.209,1.002,0.488,2.158,0.908,3.082
		c0.232,0.514,0.572,1.029,0.83,1.383c1.918-1.812,4.793-5.27,5.039-9.09c0.281-4.316,0-14.337-1.537-22.354
		s-0.979-8.633-0.697-11.87c0.277-3.237,1.807-11.005,3.771-14.492c3.217-5.703,9.646-13.719,14.119-17.729
		c4.473-4.007,12.301-9.712,16.354-12.024c4.053-2.312,12.721-6.937,17.61-8.633c4.895-1.696,12.58-4.009,16.354-4.471
		c3.775-0.462,6.43-0.771,4.754,1.695c-1.678,2.466-4.754,5.396-6.15,6.476c-1.4,1.078-3.635,3.237-3.635,3.237
		s1.957-0.925,3.355-0.309c1.396,0.618,1.955,1.543,0.418,3.855c-1.539,2.312-4.053,5.241-5.59,6.63
		c-1.537,1.387-2.516,2.466-2.516,2.466s2.238-0.155,2.936,0.461s1.396,1.696-0.697,4.007c-2.1,2.313-5.594,4.935-6.852,5.859
		c-1.26,0.925-1.537,1.234-1.537,1.234s1.678,1.542,0.561,2.928c-1.121,1.388-2.658,3.391-4.896,4.779
		c-2.234,1.387-3.633,2.312-3.633,2.312s0.838,1.696-1.117,3.855c-1.959,2.157-6.01,6.012-6.01,6.012s1.957,2.004,0.559,3.7
		s-5.453,5.548-5.453,5.548s0.838,1.696-0.699,3.546l-3.074,3.7c0,0,1.818,0.925,1.537,1.85c-0.277,0.925-1.537,3.237-2.793,4.471
		c-1.26,1.232-1.959,2.005-1.959,2.005s1.258,1.078-0.139,2.773c-1.4,1.697-2.795,2.775-2.795,2.775s0.277,1.696-1.26,2.93
		c-1.537,1.232-1.957,1.541-1.957,1.541s0.561,1.08-0.979,2.314c-1.535,1.231-1.256,1.077-1.256,1.077s0.838,1.079,0.141,1.851
		c-0.701,0.77-2.379,2.466-4.197,3.238c0,0,0.98,1.848-0.697,3.082c-0.928,0.684-1.768,1.223-2.525,1.621l-4.406,0.002
		c1.424-0.668,2.746-1.284,3.438-1.623c1.26-0.616,4.191-2.93,0.979-2.158c-3.215,0.771-5.033,1.542-5.732,1.849
		c-0.697,0.31-0.559-0.616,0.143-1.077c0.697-0.464,1.395-0.618,3.633-1.543c2.238-0.926,5.871-2.313,6.988-2.928
		c1.119-0.618,2.096-2.314-0.838-1.08c-2.936,1.234-3.912,1.85-4.611,2.157c-0.701,0.31-2.236,0-0.84-0.616
		c1.396-0.615,5.311-2.621,6.428-3.236c1.119-0.616,4.195-3.084,1.82-2.159c-2.379,0.925-4.055,1.543-4.895,1.851
		c-0.838,0.309-2.377,0.309-0.559-0.463c1.818-0.77,6.15-3.083,7.547-4.009c1.4-0.925,3.355-3.082,1.26-2.466
		c-2.098,0.616-3.773,1.541-5.732,2.621c-1.955,1.08-1.676,1.387-2.236,1.234c-0.557-0.154-0.699-0.309,0.561-1.234
		c1.258-0.925,2.234-1.85,4.611-2.775c2.377-0.925,3.914-1.387,5.031-2.157c1.121-0.771,3.076-2.93,0.561-2.159
		c-2.518,0.771-6.289,2.775-7.688,3.546s-1.676,0.771-1.676,0.771s0.836-1.232,2.654-2.312c1.816-1.08,2.516-2.005,5.73-3.7
		c3.215-1.696,4.193-2.621,5.311-3.7c1.121-1.078,1.539-3.237-0.277-2.621c-1.818,0.618-4.615,2.468-6.01,3.394
		c-1.398,0.923-3.496,2.619-4.193,3.391c-0.701,0.771-1.539,1.696-1.539,1.078c0-0.616,0.281-1.078,1.258-2.003
		c0.979-0.925,5.592-4.471,7.268-5.859c1.678-1.386,4.053-2.928,5.313-4.316c1.258-1.387,2.654-3.392,1.258-3.237
		c-1.398,0.154-2.656,1.08-4.193,2.004c-1.539,0.925-4.893,3.546-5.59,4.471c-0.699,0.923-2.1,2.621-2.238,2.003
		c-0.139-0.616,0.701-1.85,2.936-3.7c2.238-1.848,4.334-4.007,6.43-5.394c2.096-1.389,3.217-2.313,5.453-4.164
		c2.236-1.849,3.074-2.312,3.213-3.083c0.141-0.771,0.141-1.08-0.699-0.925c-0.836,0.154-1.814,0.309-3.914,1.541
		c-2.096,1.234-5.871,3.854-6.988,4.625c-1.117,0.771-3.494,2.466-4.334,2.775c-0.836,0.307-1.256,0.307-0.977-0.309
		c0.279-0.616,1.676-0.925,3.215-2.157c1.537-1.234,8.105-6.167,11.184-8.017c3.074-1.85,5.729-4.164,6.988-5.396
		c1.256-1.234,3.352-4.009,1.537-4.009c-1.816,0-1.68,0.154-3.074,0.771c-1.398,0.618-8.947,5.089-10.625,6.167
		c-1.676,1.08-3.914,2.775-4.473,2.93c-0.559,0.154-1.258-0.309,0.139-1.08c1.4-0.771,10.486-6.783,12.859-8.017
		c2.377-1.232,7.828-4.007,9.926-5.087c2.096-1.08,4.472-2.928,4.751-3.699c0.281-0.772-0.139-2.004-1.537-1.543
		c-1.397,0.464-10.063,4.009-13.837,6.476s-5.313,2.621-6.85,3.546c-1.537,0.925-2.377,2.004-2.936,1.387
		c-0.559-0.616-0.977-0.155,1.117-1.387c2.1-1.234,12.869-7.378,15.098-8.479c4.053-2.004,6.987-3.7,10.065-5.396
		c3.074-1.696,7.125-5.55,7.408-6.321c0.277-0.771,0.137-1.85-1.398-1.541c-1.539,0.307-3.217,0.925-5.59,2.157
		c-2.379,1.234-12.015,6.691-13.56,7.862c-2.238,1.695-8.807,5.55-9.365,6.012c-0.559,0.464-1.502,0.307-0.281-0.771
		c2.098-1.85,9.785-6.167,11.322-7.091c1.537-0.925,10.483-6.783,12.581-8.324c2.094-1.543,10.205-8.633,10.902-10.021
		c0.697-1.387,1.258-2.775-0.141-2.466c-1.396,0.309-6.57,1.85-7.828,2.775c-1.258,0.925-11.181,7.246-13.278,8.787
		c-2.096,1.542-5.869,4.007-7.408,5.242l-3.076,2.466c0,0,1.709-2.058,3.494-3.7c2.52-2.312,16.915-12.64,20.55-15.108
		c3.633-2.466,10.342-8.015,11.602-8.94c1.256-0.925,3.914-3.238,2.234-2.775c-1.678,0.461-13.137,3.237-15.934,4.007
		c-2.795,0.771-9.226,3.391-12.581,5.241c-3.352,1.85-12.998,7.4-17.191,10.946s-5.451,4.778-8.805,8.017
		c-3.354,3.237-8.668,9.558-10.482,12.949c-1.818,3.391-3.775,10.637-4.195,14.49c-0.418,3.855-0.559,9.56,0.139,13.413
		c0.701,3.855,1.832,11.717,1.957,15.879c0.143,4.547-0.836,10.021-2.514,12.178c-1.35,1.738-3.787,4.074-5.781,5.322l-3.344,0.001
		c1.275-0.632,2.561-1.325,3.393-1.915c-0.523-0.879-1.393-2.49-1.816-4.101c-0.629-2.39-1.258-2.93-1.258-6.014
		c0-3.083-0.209-9.712-0.139-12.101c0.068-2.39-0.35-5.396-1.119-7.862c-0.77-2.468-2.795-5.705-3.984-6.937
		c-1.188-1.234-3.633-3.315-5.172-4.164c-1.537-0.847-2.305-1.156-2.305-1.156s-0.42-0.309,0.277-0.309
		c0.699,0,1.889,0.078,2.936,0.694c1.049,0.616,3.217,1.85,4.055,2.699c0.838,0.847,3.424,3.853,3.912,5.008
		c0.49,1.156,1.4,2.545,1.957,4.935c0.561,2.39,1.049,6.243,1.049,8.941c0,2.697,0.279,6.088,0.35,7.63
		c0.025,0.503,0.076,1.35,0.143,2.297c0.111-0.203,0.234-0.455,0.348-0.754c0.35-0.926,1.188-4.165,1.328-6.091
		s0.068-5.55-0.488-8.171c-0.561-2.621-1.537-6.012-2.729-8.169c-1.186-2.159-2.373-4.24-3.914-5.705
		c-1.537-1.465-3.631-3.236-5.24-3.776c-1.605-0.54-3.354-1.08-4.264-1.08c-0.598,0-1.105,0.035-1.383,0.057
		c0.047,0.568-0.02,1.526-0.084,2.024c-0.07,0.54-0.279,0.925-0.279,0.925s-0.49,0.078-0.49-0.231s0.211-1.541-0.068-2.235
		s-0.979-1.62-1.258-1.927c-0.281-0.309-0.84-0.771-0.84-0.771v1.078c0,0.618-0.139,0.925,0.141,1.389
		c0.279,0.461,0.279,0.925,0.279,1.311s-0.209,1.08-0.209,1.08s-0.84-0.75-1.279-1.713c-0.152,0.057-0.32,0.137-0.469,0.248
		c-0.42,0.307-0.631,0.385-0.908,1.08c-0.281,0.692-0.42,1.232-0.49,1.617c-0.068,0.385-0.279,0.54-0.977,0.849
		c-0.699,0.307-0.98,0.307-1.398,0.925c-0.42,0.616-0.838,1.156-1.049,2.081c-0.209,0.925-0.49,1.617-0.209,2.697
		c0.279,1.08,0.629,1.465,0.629,2.775c0,1.31,0.068,2.697-0.07,3.854c-0.139,1.156-0.35,2.775-0.631,3.391
		c-0.277,0.616-1.047,1.542-1.326,1.927s-0.279,0.54,0,0.925s0.629,0.849,1.117,1.234c0.49,0.385,0.91,0.847,1.189,1.001
		c0.279,0.155,0.141,0.694,0.141,0.694s-1.049,0-1.889-0.771c-0.838-0.771-1.258-1.234-1.537-1.85
		c-0.279-0.618-0.559-1.08-0.141-1.465c0.42-0.385,0.979-0.925,1.189-1.465c0.209-0.54,0.559-2.466,0.629-4.162
		c0.07-1.696,0.418-1.85,0.139-2.775s-1.117-1.85-1.047-3.161c0.068-1.31,0.35-2.697,0.838-4.007c0.488-1.31,0.488-1.85,1.328-2.39
		c0.838-0.54,1.537-0.925,1.957-1.234c0.418-0.307,0.488-0.847,0.488-0.847s-1.117-0.463-1.537-1.31
		c-0.418-0.849-1.047-1.234-1.119-2.236c-0.068-1.003-0.209-1.388-0.209-1.388s0.141-0.385,0.979-0.077
		c0.84,0.309,1.189,0.385,1.957,1.156c0.768,0.771,1.119,1.541,1.398,1.773c0.279,0.231,0.629,0.231,0.629,0.231l0.172-0.032
		c-0.018-0.092-0.027-0.183-0.033-0.277c-0.068-1.387-0.209-2.466,0.141-3.16c0.35-0.694,0.42-1.08,0.697-1.387
		c0.281-0.309,0.701-0.616,0.84-0.231c0.141,0.385-0.07,0.538,0.42,1.311c0.488,0.771,0.629,0.692,1.188,1.387
		c0.24,0.297,0.453,0.61,0.627,0.912c0.297-0.057,1.555-0.267,3.041-0.126c-0.984-2.512-5.887-14.91-8.77-19.747
		c-3.215-5.396-9.785-14.954-13.699-18.654c-3.912-3.7-7.967-7.246-10.482-8.171c-2.514-0.925-3.076-1.387-3.076-0.461
		c0,0.925-0.139,0.152,1.26,1.695c1.396,1.542,5.73,6.628,8.246,9.558c2.518,2.928,11.742,15.724,12.021,16.649
		c0.279,0.925-0.141,1.234-0.699,0.155c-0.561-1.08-5.311-7.71-6.85-9.251c-1.535-1.541-4.752-4.471-6.988-5.857
		s-3.076-1.695-3.914-1.695c-0.4,0-0.578-0.071-0.594-0.044c-0.014,0.03,0.164,0.179,0.455,0.66
		c0.559,0.925,2.654,3.084,4.332,4.935c1.678,1.848,2.795,3.082,4.893,5.703c2.098,2.621,7.129,8.633,8.525,10.792
		c1.4,2.157,2.238,3.237,1.678,2.928c-0.559-0.307-2.375-3.391-3.354-4.471c-0.98-1.078-4.475-5.394-5.871-6.937
		c-1.398-1.542-2.795-3.083-4.611-4.471c-1.818-1.386-2.236-1.541-2.797-1.386c-0.559,0.154-0.42,0.309,0,1.08
		c0.418,0.771,3.494,5.396,4.893,7.246c1.398,1.85,5.17,6.628,6.43,8.632c1.258,2.003,4.752,6.474,4.752,6.474
		s-0.279,1.08-0.838,0.154c-0.559-0.925-3.775-5.086-5.592-7.398c-1.818-2.313-3.635-4.316-4.893-5.396s-1.678-1.389-1.955-0.771
		c-0.281,0.616-0.561,0.462,0.418,1.696c0.979,1.232,6.15,10.019,7.129,11.408c0.979,1.387,5.592,8.942,5.592,8.942
		s0,0.461-0.84-0.618c-0.838-1.078-3.494-4.316-4.473-5.548c-0.979-1.234-2.096-2.159-3.215-2.775
		c-1.117-0.618-1.26-0.154-0.559,1.08c0.699,1.232,5.311,10.019,6.43,11.408c1.117,1.387,2.516,3.546,2.516,3.546
		s-0.141,0.923-0.84,0c-0.697-0.925-0.697-0.772-2.236-2.313c-1.535-1.541-2.096-2.157-2.934-2.312
		c-0.838-0.154-0.98-0.309-0.559,0.771c0.418,1.079,1.256,3.7,2.234,5.087c0.98,1.386,3.355,6.012,3.355,6.012
		s0.139,0.925-1.119-0.771c-1.256-1.696-2.236-2.775-2.795-2.312c-0.559,0.461,0.139,1.541,0.699,2.466
		c0.559,0.925,2.656,5.55,2.656,5.55s-0.42,0-1.119-0.925c-0.697-0.925-2.098-1.85-2.098-1.85s-0.277,0.925,0.42,2.002
		c0.699,1.08,2.797,4.935,3.217,5.859c0.418,0.925,1.396,2.775,1.396,2.775s-0.139,0.461-1.258-0.925
		c-1.119-1.388-1.678-2.004-2.236-1.85c-0.559,0.155-0.139,0.925,0.279,1.85c0.375,0.828,1.648,3.512,1.91,4.063
		c0.49,0.391,1.014,0.761,1.586,1.023c1.176,0.543,2.768,1.008,3.611,1.236c0.436-0.871,0.689-1.518,1.42-2.624
		c1.115-1.696,1.605-2.312,2.166-3.237c0.559-0.925,1.887-3.161,2.305-4.547c0.42-1.388,1.049-3.237,1.26-4.24
		c0.209-1.001,0.348-1.387,0.348-1.387s0.49,0.771,0.352,1.926c-0.141,1.156-0.281,2.699-1.119,4.78
		c-0.84,2.081-0.84,2.39-1.816,3.853c-0.979,1.465-2.027,3.161-3.006,4.78c-0.979,1.617-1.748,3.467-2.445,4.777
		c-0.699,1.311-1.748,3.7-1.818,5.089c-0.025,0.519-0.092,1.128-0.158,1.699h-1.561c-0.418-0.708-0.939-1.548-1.357-2.085
		c-0.838-1.079-1.816-2.62-2.934-3.545c-1.119-0.926-1.119-0.464-1.678,0c-0.559,0.461-1.678,1.695-3.213,3.236
		c-1.176,1.177-1.617,1.816-2.008,2.394h-1.844c0.168-0.362,0.496-0.544,0.496-0.544s1.678-2.158,2.793-3.391
		c1.121-1.234,2.656-2.93,3.775-3.855c1.117-0.924,2.098,0,2.936,0.926c0.578,0.637,2.281,3.174,3.287,4.691
		c0.084-0.516,0.195-1.018,0.348-1.455c0.699-2.002,1.258-3.545,2.516-5.549l0.135-0.219c-0.176-0.112-0.445-0.256-0.834-0.398
		c-0.838-0.307-2.795-1.387-4.193-2.003c-1.398-0.618-2.795-2.004-3.635-2.468c-0.838-0.462-0.838,0-1.535,0.309
		c-0.701,0.309-0.979,1.541-1.539,2.467c-0.559,0.925-2.656,3.854-4.193,5.55c-1.471,1.624-3.199,4.232-4.445,5.941L177.677,171.207
		L177.677,171.207L177.677,171.207z M186.724,171.207c0.818-0.639,1.898-1.053,2.525-1.469c0.699-0.463,1.539-0.77,3.074,0
		c0.674,0.338,1.564,0.883,2.467,1.467l-3.557,0.002c-0.779-0.454-1.295-0.398-2.02-0.002L186.724,171.207L186.724,171.207
		L186.724,171.207z M265.905,171.207c-0.197-0.597-0.365-1.135-0.479-1.545c-0.49-1.773-1.467-3.084-1.33-5.165
		c0.143-2.081,0.072-3.239,0.98-4.78s1.605-2.696,3.217-4.855c1.605-2.157,2.234-3.237,2.793-4.316s0.559-1.232,0.629-2.466
		c0.072-1.232-0.07-1.619,0.561-2.93c0.629-1.31,0.42-1.387,1.746-3.16c1.328-1.772,2.445-3.237,3.494-3.777
		c1.049-0.54,2.378-1.001,1.958,0.231c-0.421,1.234-1.05,2.468-1.188,3.393s-0.35,1.85-0.281,2.233
		c0.07,0.387,0.07,0.463,0.07,0.463s0-0.463,0.979-1.156c0.979-0.694,2.099-1.156,2.798-1.388c0.697-0.231,1.395-0.153,1.746-0.153
		c0.35,0,0.908,0.153,0.35,0.54c-0.559,0.386-0.979,0.692-1.607,1.463c-0.631,0.772-1.678,2.081-1.889,2.93
		c-0.209,0.849-0.209,1.234-0.209,1.234s0.279-0.078,1.047-0.154c0.771-0.079,1.818-0.079,2.52,0.076
		c0.697,0.154,0.977,0.309,1.258,0.616c0.279,0.309,0.209,0.463-0.281,0.772c-0.488,0.307-1.396,1.001-1.748,1.463
		c-0.35,0.463-0.768,1.234-1.117,1.85c-0.35,0.618-0.631,1.543-1.049,1.928c-0.42,0.385-0.699,0.847-1.258,1.696
		c-0.56,0.847-1.677,1.387-2.374,1.85c-0.703,0.462-1.33,0.616-1.889,1.463c-0.561,0.85-1.049,1.543-1.188,2.16
		c-0.141,0.615-0.209,1.155-0.209,1.155s0.209-0.308,0.768-1.001c0.561-0.695,0.42-0.85,1.4-1.465
		c0.977-0.617,1.047-0.771,1.953-0.85c0.91-0.076,0.91,0.078,1.747-0.307c0.84-0.385,0.91-0.616,1.33-1.004
		c0.418-0.385,0.977-1.001,0.908-0.23c-0.07,0.771-0.141,2.314-0.49,3.392c-0.35,1.079-0.908,2.468-1.398,3.006
		c-0.488,0.54-1.815,1.543-2.655,2.083c-0.838,0.537-1.887,1.232-2.516,1.848c-0.629,0.619-0.91,1.234-0.91,1.234
		s0.563-0.385,1.4-0.847c0.838-0.464,1.537-0.927,2.166-1.157c0.629-0.231,1.467-0.693,0.838,0.23
		c-0.629,0.927-1.256,2.082-1.607,3.16c-0.021,0.064-0.041,0.145-0.066,0.236h-1.715c0.064-0.192,0.104-0.313,0.104-0.313
		s-0.131,0.036-0.416,0.309l-2.854,0.004c0.156-0.9,0.42-1.91,0.824-2.549c0.49-0.771,0.98-1.619,1.816-2.62
		c0.766-0.914,1.398-1.001,2.518-1.62c1.117-0.615,1.258-0.846,1.746-1.387c0.489-0.539,0.769-1.387,0.769-1.387
		s-0.208-0.309-0.628-0.154s-1.049,0.154-1.678,0.54s-1.537,0.616-2.307,1.772c-0.768,1.155-1.607,2.004-1.816,2.466
		c-0.211,0.464-0.42,1.003-0.42,1.003l-0.279,0.154c0,0-0.07-0.463-0.07-1.079c0-0.618-0.207-1.695-0.07-2.544
		c0.141-0.848,0.352-3.237,0.84-4.086c0.488-0.847,1.537-3.082,2.654-3.7c1.117-0.616,2.377-1.463,3.215-2.235
		c0.84-0.771,1.259-1.387,1.887-2.233c0.63-0.849,0.91-1.158,1.12-1.543c0.209-0.386,0.137-0.925-0.42-0.692
		c-0.559,0.23-1.12,0.385-1.537,0.925c-0.42,0.538-1.188,1.387-1.188,1.387l-0.42,0.309c0,0-0.139,0.152-0.07-0.771
		c0.07-0.925,0-2.468,0.211-3.239c0.209-0.771,0.558-1.772,0.906-2.235c0.352-0.462,0.63-1.001,0.63-1.001s0.07-0.463-0.278-0.155
		c-0.352,0.309-1.049,0.771-1.469,1.465c-0.42,0.694-1.396,2.081-1.537,2.39c-0.139,0.307-0.488,0.385-0.488,0.385
		s-0.277,0.076-0.277-0.385c0-0.463-0.283-0.309-0.143-1.774c0.143-1.465,0.143-2.312,0.279-3.082
		c0.141-0.771,0.4-1.734,0.141-1.543c-0.209,0.154-0.141-0.077-0.77,0.925c-0.629,1.003-1.396,1.698-1.748,2.854
		c-0.348,1.156-0.557,1.31-0.768,2.466c-0.209,1.156,0,1.541-0.561,2.851c-0.559,1.311-0.908,1.927-1.537,2.697
		c-0.627,0.772-0.627,1.158-1.746,2.544c-1.119,1.387-1.328,1.62-1.887,2.775c-0.559,1.156-0.979,1.542-1.398,3.007
		c-0.297,1.039-0.209,1.386,0,3.084c0.209,1.695,0.42,2.388,0.91,3.853c0.23,0.688,0.535,1.411,0.848,2.161L265.905,171.207
		L265.905,171.207L265.905,171.207z M200.112,123.668c0,0,0.055,0.486,0.164,0.782c0.129,0.068,0.256,0.146,0.326,0.227l1.217,1.333
		l0.381,0.482l0.344-0.503l-0.449-0.564l-1.215-1.333C200.687,123.88,200.112,123.668,200.112,123.668L200.112,123.668z
		 M202.108,135.952c0.127-0.402,0.313-0.736,0.619-0.872c0.32-0.141,0.449-0.211,0.832-0.211c0.385,0,0.703,0.141,0.961,0.282
		c0.256,0.141,0.447,0.494,0.127,0.494c-0.145,0-0.371-0.015-0.604-0.011l0.199,0.103c0.129,0.07,0.24,0.192,0.281,0.297
		c0.338-0.152,0.52,0.035,0.699,0.035c0.191,0-0.064,0.353-0.318,0.494l-0.104,0.061c0.051,0.017,0.1,0.031,0.146,0.031
		c0.191,0-0.064,0.353-0.32,0.494c-0.256,0.141-0.576,0.423-0.959,0.635c-0.385,0.212-0.385,0.282-0.961,0.212
		c-0.576-0.071-0.633-0.423-0.633-0.423s0.195-0.189,0.42-0.355c-0.125-0.114-0.145-0.23-0.145-0.23s0.441-0.424,0.762-0.565
		c0.215-0.095,0.574-0.126,0.904-0.2c-0.34-0.008-0.762,0-0.988,0.151c-0.32,0.211-0.889,0.494-0.889,0.494l-0.449,0.353
		c0,0,0-0.212,0.129-0.635C201.894,136.341,201.985,136.122,202.108,135.952L202.108,135.952z M202.095,150.162l-0.262-0.046
		c-0.178,0.322-0.014,0.631-0.014,0.631s-0.447-0.071-0.703-0.141s-0.256-0.353-0.32-0.769c-0.064-0.416,0-0.494,0.256-0.847
		c0.002-0.215,0.082-0.32,0.275-0.585c0.256-0.353,0.896-0.282,1.279-0.353c0.385-0.071,0.889,0.706,0.889,0.706
		s-0.127,0.141-0.574,0.211c0.172,0.183,0.299,0.374,0.299,0.374s-0.127,0.141-0.574,0.212c-0.354,0.055-0.463,0.11-0.619,0.299
		C202.026,150.032,202.095,150.162,202.095,150.162L202.095,150.162L202.095,150.162z M200.849,151.315h0.98
		c0.84,0,1.256,0.078,1.818-0.307c0.33-0.23,0.639-0.433,0.863-0.738c0.02-0.068,0.035-0.141,0.047-0.219
		c0.141-0.847,0.209-3.006,0.49-4.085c0.248-0.961,0.109-1.615,0.52-2.075c0.066-0.299,0.182-0.543,0.455-0.744
		c0.225-0.166,0.369-0.321,0.486-0.456c-0.074,0.051-0.17,0.088-0.342,0.116c-0.49,0.077-0.77,0-0.77,0s0.127-0.74,0.443-1.217
		c0.121-0.353,0.314-0.753,0.6-0.912c0.559-0.307,0.979-0.307,1.678-0.461c0.701-0.155,1.047-0.155,1.398-0.616
		c0.352-0.463,0.908-1.158,1.328-1.774c0.418-0.616,0.559-0.847,0.979-0.925c0.418-0.077,1.119,0.078,1.119,0.078
		s0.277,0.385-0.141,0.538l-0.139,0.048c0,0,0.283,0.383-0.137,0.538c-0.42,0.155-0.771,0.079-1.189,0.773
		c-0.42,0.692-0.836,1.926-1.328,2.388c-0.488,0.463-0.279,0.771-1.117,0.849c-0.807,0.074-1.225-0.138-1.754,0.12
		c0.631-0.09,1.471-0.09,1.471-0.09s0.211,0.309-0.07,0.618l-0.135,0.156c0.016,0.114,0,0.271-0.143,0.427
		c-0.277,0.309-0.348,0.463-0.977,0.925c-0.379,0.279-0.732,0.557-0.969,0.87c-0.084,0.704-0.154,2.09-0.154,2.63
		c0,0.54-0.068,1.465-0.068,2.159c0,0.576,0.096,0.833-0.273,1.259c-0.029,0.271-0.146,0.502-0.563,0.868
		c-0.699,0.616-0.838,0.925-1.957,0.849c-1.117-0.078-1.746-0.154-2.236-0.309c-0.488-0.154-0.488-0.694-0.488-0.694h0.555
		C200.849,151.688,200.849,151.315,200.849,151.315L200.849,151.315L200.849,151.315z"/>
</g>
</svg>
