<?xml version="1.0" encoding="utf-8"?>
<!-- Generator: Adobe Illustrator 14.0.0, SVG Export Plug-In . SVG Version: 6.00 Build 43363)  -->
<!DOCTYPE svg PUBLIC "-//W3C//DTD SVG 1.0//EN" "http://www.w3.org/TR/2001/REC-SVG-20010904/DTD/svg10.dtd">
<svg version="1.0" id="Layer_1" xmlns="http://www.w3.org/2000/svg" xmlns:xlink="http://www.w3.org/1999/xlink" x="0px" y="0px"
	 width="504px" height="504px" viewBox="0 0 504 504" enable-background="new 0 0 504 504" xml:space="preserve">
<defs>
   <linearGradient id="colour1">
     <stop offset="100%" stop-color="red"/>
   </linearGradient>
 </defs>
	<path fill="url(#colour1)" d="M250,217.5c0,0-17-83.5,6-114.5c0,0,17.5-31,40.5-17.5c0,0,14,9.5,21.5,16c0,0,13,15.5,29.5,17.5
		c0,0,34,5.5,33.5,30.5c0,0,3,23-16.5,42.5c0,0-25.5,25.5-65,41.5c0,0-14,9.5-1.5,6.5c0,0,29-18,67.5-15c0,0,43-1.5,45,27.5
		c0,0,4.5,15-13.5,38.5c0,0-19.5,19-23.5,29c0,0-15,42.5-52.5,30.5c0,0-34.5-7-52.5-55c0,0-5-14-5,1c0,0-6.5,45,35.5,107
		c0,0,16.5,18.5-2,16.5c0,0-26,3.5-37.5-16c0,0-21-37.5-9.5-91c0,0,4-16-6-1.5c0,0,0.5,15.5-17,37.5c0,0-21,31.5-43.5,12
		c0,0-5-4-8.5-9c0,0-6.5-15.5-22-19.5c0,0-47.5-19.5-38.5-39c0,0,3-12,40-39c0,0,11.5-12,43-9.5c0,0,12.5,0.5,17.5-1.5c0,0,7-5-3-5
		c0,0-70,8-103-12.5c0,0-27-9.5-9-42.5c0,0,3-6.5,16.5-18c0,0,18.5-13.5,31-42.5c0,0,17-45,51-18c0,0,36.5,39,44,100
		c0,0,1.5,17.5,3.5,18C246,223,251.5,227.5,250,217.5z"/>
</svg>
