<?xml version="1.0" encoding="utf-8"?>
<svg version="1.0" xmlns="http://www.w3.org/2000/svg" xmlns:xlink="http://www.w3.org/1999/xlink" viewBox="0 0 800 600" xml:space="preserve">
<g>
	<path fill="#29ABE2" d="M126.906,229.175l0.844-0.675l3-0.75l-5.5-5.25L125,226l-0.744,0.62c-3.062-2.418-6.867-3.87-11.006-3.87
		c-10.08,0-18.25,8.507-18.25,19s8.17,19,18.25,19s18.25-8.507,18.25-19C131.5,236.921,129.756,232.527,126.906,229.175z"/>
	<path fill="#1B1464" d="M128.906,229.175l0.844-0.675l3-0.75l-5.5-5.25L127,226l-0.744,0.62c-3.062-2.418-6.867-3.87-11.006-3.87
		c-10.08,0-18.25,8.507-18.25,19s8.17,19,18.25,19s18.25-8.507,18.25-19C133.5,236.921,131.756,232.527,128.906,229.175z"/>
	<g>
		<path fill="#1B1464" d="M72.035,238.952c0.922-4.154,3.071-8.188,7.59-8.188c2.063,0,3.818,1.049,4.212,2.944h0.087
			c0.483-2.017,1.669-2.944,3.336-2.944c1.491,0,2.325,0.927,1.844,2.944l-4.74,20.609c-1.184,4.96-4.344,7.138-9.696,7.138
			c-3.994,0-6.757-1.208-6.101-4.072c0.353-1.373,1.669-2.178,3.203-2.178c1.229,0,1.844,0.686,2.019,1.453
			c0.22,0.967,0.879,1.33,1.536,1.33c2.326,0,3.158-1.371,3.817-4.315l0.702-3.025h-0.086c-1.711,2.017-3.028,2.46-5.309,2.46
			c-4.827,0-4.784-4.033-3.73-8.51L72.035,238.952z M76.685,243.105c-1.14,4.799-0.965,6.131,0.834,6.131
			c1.271,0,2.853-0.886,3.861-5.284l0.877-3.831c1.052-4.395-0.308-5.284-1.316-5.284c-1.491,0-2.633,1.251-3.465,4.8
			L76.685,243.105z"/>
		<path fill="#FF0000" d="M144.696,233.427c0.35-1.614,1.359-2.663,3.115-2.663c1.754,0,2.236,1.049,1.886,2.663l-0.482,2.056h0.087
			c1.404-2.742,3.248-4.719,5.089-4.719c1.449,0,2.414,0.968,1.887,3.187c-0.351,1.492-1.535,2.944-4.036,2.944
			c-1.668,0-3.247,1.048-3.686,2.985l-2.501,10.807c-0.482,2.017-1.754,2.944-3.378,2.944c-1.624,0-2.458-0.928-1.975-2.944
			L144.696,233.427z"/>
		<path fill="#FF0000" d="M170.371,248.43c-0.351,1.411-0.307,2.581-0.483,3.266c-0.263,1.291-1.404,1.936-3.115,1.936
			c-1.447,0-2.633-0.646-2.148-2.783l-0.09,0.041c-1.447,1.977-3.598,2.742-5.527,2.742c-3.16,0-5.134-1.734-4.17-5.847
			c0.747-3.307,2.194-5.203,5.354-6.574l5.309-2.299c1.316-0.565,2.019-1.371,2.238-2.299c0.262-1.169-0.22-2.177-1.582-2.177
			c-1.841,0-2.588,0.845-3.203,2.581c-0.35,0.967-1.491,1.573-2.896,1.573c-1.185,0-2.72-0.525-2.369-2.018
			c0.877-3.791,4.695-5.807,8.819-5.807c7.151,0,7.24,2.904,6.448,6.453L170.371,248.43z M166.553,241.814l-2.193,1.21
			c-2.72,1.534-3.335,2.298-3.773,4.154c-0.352,1.653,0.175,2.582,1.317,2.582c1.754,0,3.203-1.773,3.728-4.074L166.553,241.814z"/>
		<path fill="#FF0000" d="M176.26,240.202c1.229-5.243,2.896-9.438,10.048-9.438c6.141,0,6.493,3.993,6.012,5.97
			c-0.44,1.936-1.756,2.782-3.248,2.782c-1.799,0-2.544-0.766-2.106-2.782c0.352-1.373-0.395-2.098-1.537-2.098
			c-2.148,0-2.763,2.218-3.465,5.123l-1.097,4.839c-0.834,3.631-0.615,5.163,1.097,5.163c1.01,0,2.062-0.483,2.501-2.219
			c0.79-2.781,1.843-3.548,3.555-3.548c1.579,0,2.413,1.049,1.974,2.863c-0.527,2.177-2.676,6.775-8.994,6.775
			c-7.152,0-6.89-4.194-5.661-9.437L176.26,240.202z"/>
		<path fill="#FF0000" d="M197.199,233.708c0.482-2.017,1.754-2.944,3.377-2.944c1.625,0,2.457,0.927,1.975,2.944l-3.905,16.979
			c-0.482,2.017-1.754,2.944-3.378,2.944s-2.458-0.928-1.974-2.944L197.199,233.708z"/>
		<path fill="#FF0000" d="M207.515,233.708c0.483-2.017,1.754-2.944,3.378-2.944c1.624,0,2.458,0.927,2.019,2.824H213
			c1.317-1.896,3.598-2.824,5.661-2.824c2.983,0,4.737,1.694,3.86,5.405l-3.336,14.518c-0.482,2.017-1.754,2.944-3.377,2.944
			c-1.624,0-2.457-0.928-1.974-2.944l3.071-13.349c0.395-1.612-0.395-2.299-1.536-2.299c-1.709,0-3.071,1.169-3.685,3.913
			l-2.721,11.735c-0.482,2.017-1.754,2.944-3.377,2.944c-1.624,0-2.458-0.928-1.974-2.944L207.515,233.708z"/>
		<path fill="#FF0000" d="M226.131,238.952c0.922-4.154,3.071-8.188,7.59-8.188c2.063,0,3.817,1.049,4.212,2.944h0.086
			c0.483-2.017,1.669-2.944,3.336-2.944c1.492,0,2.326,0.927,1.844,2.944l-4.739,20.609c-1.185,4.96-4.344,7.138-9.697,7.138
			c-3.994,0-6.757-1.208-6.1-4.072c0.352-1.373,1.669-2.178,3.203-2.178c1.229,0,1.844,0.686,2.019,1.453
			c0.22,0.967,0.878,1.33,1.536,1.33c2.326,0,3.158-1.371,3.817-4.315l0.702-3.025h-0.087c-1.711,2.017-3.028,2.46-5.309,2.46
			c-4.827,0-4.783-4.033-3.729-8.51L226.131,238.952z M230.78,243.105c-1.14,4.799-0.964,6.131,0.834,6.131
			c1.272,0,2.854-0.886,3.862-5.284l0.877-3.831c1.053-4.395-0.307-5.284-1.316-5.284c-1.492,0-2.633,1.251-3.465,4.8
			L230.78,243.105z"/>
	</g>
	<g>
		<path fill="none" d="M202.654,222.363l2.033,2.033l-0.707,0.707l-2.3-2.3l-0.184-2.825c-0.034-0.011-0.069-0.023-0.103-0.035
			l-0.056,3.244l3.158,2.659l-0.029-0.429l3.232-0.22l0.224-3.308c-1.552-0.418-3.621-0.998-5.401-1.57L202.654,222.363z"/>
		<path fill="#FF0000" d="M217.5,211.25l-2.25,2.75l-2.75,1.5v-2.25l1.25-1.5h1.5l0.5-1.25l-2.25,0.25c0,0-2-1.5-5.75-0.25
			s2,2.25,2,2.25l0.48,2.401c-0.492-0.036-1.33-0.084-2.73-0.151c-5.25-0.25-8.75,2.75-8.75,2.75c-4.75,0.25-5,2.5-5,2.5l-4,0.5
			c0,0,3.083,0.5,4.083,0.333s2.833-2,2.833-2l2.167-0.333c0.17,0.222,0.753,0.51,1.566,0.828l-0.07,4.067l4.932,4.153l0.645-0.765
			l-0.783-0.659l3.513-0.24l0.27-3.984c0.821,0.216,1.344,0.348,1.344,0.348c0.727,0,1.186-0.13,1.484-0.282l0.778,0.596
			l-3.38,3.681l0.736,0.677l4.12-4.486l-2.516-1.929c0.013-0.001,0.014-0.007,0.028-0.007c0.75,0,6-5.5,6-5.5h4.25L217.5,211.25z
			 M207.698,225.197l-3.232,0.22l0.029,0.429l-3.158-2.659l0.056-3.244c0.033,0.011,0.069,0.023,0.103,0.035l0.184,2.825l2.3,2.3
			l0.707-0.707l-2.033-2.033l-0.133-2.044c1.78,0.572,3.85,1.152,5.401,1.57L207.698,225.197z"/>
	</g>
</g>
</svg>
