<?xml version="1.0" encoding="utf-8"?>
<!-- Generator: Adobe Illustrator 14.0.0, SVG Export Plug-In . SVG Version: 6.00 Build 43363)  -->
<!DOCTYPE svg PUBLIC "-//W3C//DTD SVG 1.0//EN" "http://www.w3.org/TR/2001/REC-SVG-20010904/DTD/svg10.dtd">
<svg version="1.0" id="Layer_1" xmlns="http://www.w3.org/2000/svg" xmlns:xlink="http://www.w3.org/1999/xlink" x="0px" y="0px"
	 width="800px" height="600px" viewBox="0 0 800 600" enable-background="new 0 0 800 600" xml:space="preserve">
<defs>
   <linearGradient id="colour0">
     <stop offset="100%" stop-color="#0000D9"/>
   </linearGradient> 
   <linearGradient id="colour1">
     <stop offset="100%" stop-color="#FDBC11"/>
   </linearGradient> 
   <linearGradient id="colour2">
     <stop offset="100%" stop-color="black"/>
   </linearGradient> 
 </defs>
<rect display="none" x="105.796" y="116.714" fill="url(#colour0)" width="382.653" height="398.98"/>
<path fill-rule="evenodd" clip-rule="evenodd" fill="url(#colour1)" d="M268.618,169.607c0,0,7.201-0.021,9.438,0
	c3.855,0.041,4.664,0.804,5.729,2.114c1.564,1.929,2.227,3.861,1.182,7.393c-1.065,3.601-6.911,11.358-6.911,11.358
	c-3.476,5.96-6.168,12.454-6.706,15.896c-1.553,9.933,0.353,14.076,1.986,17.884c1.595,3.715,7.453,9.686,10.185,11.18
	c2.73,1.485,7.45,4.219,15.149,4.465c7.699,0.249,14.824-4.274,14.824-4.274c5.32-3.747,9.656-8.675,11.432-17.347
	c1.825-8.93-1.972-18.331-3.902-22.834c-1.38-3.215-7.453-11.424-7.945-16.644c-0.501-5.216,3.164-7.837,5.713-8.194
	c1.359-0.359,11.613,0.127,11.613,0.127s0.791,7.578,0.293,9.07l-3.217-0.256c-3.229-0.498-0.993,3.724-0.993,3.724
	s5.856,9.016,9.082,17.462c3.231,8.442,2.71,15.315,2.341,20.539c-0.568,8.039-4.113,16.521-14.561,24.401
	c-5.684,4.292-15.176,10.254-32.379,7.638c-7.712-1.172-15.896-4.723-23.347-13.412c-8.115-9.469-10.745-18.305-9.129-31.874
	c1.356-11.369,12.357-25.499,13.351-27.485c0.993-1.985-0.249-1.985-0.249-1.985l-4.172,0.164L268.618,169.607L268.618,169.607z
	 M277.809,183.683c0.58,0,1.055-0.628,1.055-1.403c0-0.778-0.475-1.406-1.055-1.406c-0.582,0-1.053,0.628-1.053,1.406
	C276.755,183.055,277.227,183.683,277.809,183.683L277.809,183.683z M320.277,184.515c0.583,0,1.055-0.63,1.055-1.406
	c0-0.775-0.472-1.406-1.055-1.406s-1.055,0.631-1.055,1.406C319.223,183.885,319.694,184.515,320.277,184.515L320.277,184.515z
	 M331.703,211.584c0.583,0,1.052-0.628,1.052-1.402c0-0.778-0.469-1.403-1.052-1.403s-1.052,0.625-1.052,1.403
	C330.651,210.956,331.12,211.584,331.703,211.584L331.703,211.584z M325.243,235.925c0.586,0,1.055-0.63,1.055-1.4
	c0-0.779-0.469-1.412-1.055-1.412c-0.58,0-1.049,0.633-1.049,1.412C324.194,235.295,324.663,235.925,325.243,235.925
	L325.243,235.925z M297.925,248.095c0.582,0,1.053-0.627,1.053-1.406c0-0.773-0.472-1.403-1.053-1.403
	c-0.583,0-1.053,0.63-1.053,1.403C296.872,247.468,297.342,248.095,297.925,248.095L297.925,248.095z M270.854,234.932
	c0.582,0,1.055-0.63,1.055-1.406s-0.473-1.403-1.055-1.403c-0.583,0-1.053,0.627-1.053,1.403S270.271,234.932,270.854,234.932
	L270.854,234.932z M265.142,211.089c0.583,0,1.053-0.628,1.053-1.403c0-0.776-0.47-1.406-1.053-1.406s-1.055,0.63-1.055,1.406
	C264.087,210.46,264.559,211.089,265.142,211.089L265.142,211.089z"/>
<g>
	<path fill="url(#colour2)" d="M287.496,283.929l0.198,4.192h-0.501c-0.097-0.738-0.229-1.266-0.396-1.582
		c-0.272-0.51-0.635-0.885-1.087-1.127c-0.453-0.242-1.048-0.363-1.787-0.363h-2.518v13.658c0,1.099,0.119,1.784,0.356,2.057
		c0.334,0.369,0.848,0.554,1.542,0.554h0.62v0.487h-7.581v-0.487h0.633c0.756,0,1.292-0.229,1.608-0.686
		c0.193-0.281,0.29-0.923,0.29-1.925v-13.658h-2.149c-0.835,0-1.428,0.062-1.78,0.185c-0.457,0.167-0.848,0.488-1.173,0.962
		s-0.519,1.116-0.58,1.925h-0.501l0.211-4.192H287.496z"/>
	<path fill="url(#colour2)" d="M293.916,292.221h8.306v-5.115c0-0.914-0.057-1.516-0.171-1.806c-0.088-0.22-0.272-0.409-0.554-0.567
		c-0.378-0.211-0.778-0.316-1.2-0.316h-0.633v-0.488h7.646v0.488h-0.633c-0.422,0-0.822,0.101-1.2,0.303
		c-0.281,0.141-0.473,0.354-0.573,0.64c-0.102,0.286-0.152,0.868-0.152,1.747v11.536c0,0.905,0.057,1.503,0.171,1.793
		c0.088,0.22,0.268,0.409,0.541,0.567c0.387,0.211,0.791,0.316,1.213,0.316h0.633v0.487h-7.646v-0.487h0.633
		c0.729,0,1.261-0.216,1.595-0.646c0.22-0.281,0.33-0.958,0.33-2.03v-5.445h-8.306v5.445c0,0.905,0.057,1.503,0.171,1.793
		c0.088,0.22,0.272,0.409,0.554,0.567c0.378,0.211,0.778,0.316,1.2,0.316h0.646v0.487h-7.66v-0.487h0.633
		c0.738,0,1.274-0.216,1.608-0.646c0.211-0.281,0.316-0.958,0.316-2.03v-11.536c0-0.914-0.057-1.516-0.171-1.806
		c-0.088-0.22-0.268-0.409-0.541-0.567c-0.387-0.211-0.791-0.316-1.213-0.316h-0.633v-0.488h7.66v0.488h-0.646
		c-0.422,0-0.822,0.101-1.2,0.303c-0.272,0.141-0.461,0.354-0.567,0.64s-0.158,0.868-0.158,1.747V292.221z"/>
	<path fill="url(#colour2)" d="M313.507,284.904v7.066h3.929c1.02,0,1.701-0.154,2.043-0.461c0.457-0.404,0.712-1.116,0.765-2.136h0.488
		v6.223h-0.488c-0.123-0.87-0.246-1.428-0.369-1.674c-0.158-0.308-0.417-0.549-0.778-0.725s-0.914-0.264-1.661-0.264h-3.929v5.893
		c0,0.791,0.035,1.272,0.105,1.443c0.07,0.172,0.193,0.308,0.369,0.409s0.51,0.151,1.002,0.151h3.032
		c1.011,0,1.745-0.07,2.202-0.211s0.896-0.417,1.318-0.831c0.545-0.545,1.103-1.367,1.674-2.465h0.527l-1.542,4.482h-13.777v-0.487
		h0.633c0.422,0,0.822-0.102,1.2-0.304c0.281-0.141,0.472-0.352,0.573-0.633s0.152-0.857,0.152-1.727V287.04
		c0-1.134-0.114-1.833-0.343-2.096c-0.316-0.352-0.844-0.527-1.582-0.527h-0.633v-0.488h13.777l0.198,3.916h-0.514
		c-0.185-0.94-0.389-1.586-0.613-1.938c-0.224-0.352-0.556-0.62-0.995-0.804c-0.352-0.132-0.971-0.198-1.859-0.198H313.507z"/>
	<path fill="url(#colour2)" d="M204.261,325.834v5.208c0,1.125,0.123,1.824,0.369,2.097c0.334,0.387,0.839,0.58,1.516,0.58h0.686v0.487
		h-7.66v-0.487h0.672c0.756,0,1.296-0.246,1.622-0.738c0.176-0.272,0.264-0.919,0.264-1.938v-11.549
		c0-1.125-0.119-1.823-0.356-2.097c-0.343-0.386-0.853-0.58-1.529-0.58h-0.672v-0.487h6.552c1.6,0,2.861,0.165,3.784,0.494
		c0.923,0.33,1.701,0.886,2.333,1.668s0.949,1.71,0.949,2.782c0,1.459-0.481,2.646-1.444,3.559c-0.962,0.915-2.322,1.371-4.08,1.371
		c-0.431,0-0.896-0.03-1.397-0.092S204.833,325.958,204.261,325.834z M204.261,325.083c0.466,0.088,0.879,0.154,1.239,0.198
		s0.668,0.065,0.923,0.065c0.914,0,1.703-0.354,2.366-1.062c0.664-0.707,0.996-1.623,0.996-2.748c0-0.773-0.158-1.492-0.475-2.156
		c-0.316-0.663-0.765-1.16-1.345-1.489c-0.58-0.33-1.239-0.495-1.978-0.495c-0.448,0-1.024,0.084-1.727,0.251V325.083z"/>
	<path fill="url(#colour2)" d="M232.883,316.329h4.852l10.929,13.407v-10.309c0-1.099-0.123-1.784-0.369-2.057
		c-0.325-0.369-0.839-0.555-1.542-0.555h-0.62v-0.487h6.223v0.487h-0.633c-0.756,0-1.292,0.229-1.608,0.686
		c-0.193,0.282-0.29,0.924-0.29,1.926v15.068h-0.475L237.563,320.1v11.008c0,1.1,0.119,1.785,0.356,2.057
		c0.334,0.369,0.848,0.555,1.542,0.555h0.633v0.487h-6.223v-0.487h0.62c0.765,0,1.305-0.229,1.622-0.686
		c0.193-0.281,0.29-0.924,0.29-1.926v-12.432c-0.519-0.606-0.912-1.006-1.18-1.199c-0.269-0.193-0.662-0.374-1.18-0.541
		c-0.255-0.079-0.642-0.119-1.16-0.119V316.329z"/>
	<path fill="url(#colour2)" d="M268.36,316.329l0.198,4.192h-0.501c-0.097-0.738-0.229-1.266-0.396-1.582
		c-0.272-0.51-0.635-0.886-1.087-1.127c-0.453-0.242-1.048-0.363-1.787-0.363h-2.518v13.658c0,1.1,0.119,1.785,0.356,2.057
		c0.334,0.369,0.848,0.555,1.542,0.555h0.62v0.487h-7.581v-0.487h0.633c0.756,0,1.292-0.229,1.608-0.686
		c0.193-0.281,0.29-0.924,0.29-1.926v-13.658h-2.149c-0.835,0-1.428,0.063-1.78,0.186c-0.457,0.167-0.848,0.487-1.173,0.962
		s-0.519,1.116-0.58,1.925h-0.501l0.211-4.192H268.36z"/>
	<path fill="url(#colour2)" d="M274.873,317.305v7.066h3.929c1.02,0,1.701-0.153,2.043-0.461c0.457-0.404,0.712-1.116,0.765-2.137h0.488
		v6.223h-0.488c-0.123-0.869-0.246-1.428-0.369-1.674c-0.158-0.308-0.417-0.549-0.778-0.725s-0.914-0.264-1.661-0.264h-3.929v5.893
		c0,0.791,0.035,1.272,0.105,1.443c0.07,0.172,0.193,0.308,0.369,0.409c0.176,0.101,0.51,0.151,1.002,0.151h3.032
		c1.011,0,1.745-0.07,2.202-0.211s0.896-0.417,1.318-0.83c0.545-0.545,1.103-1.367,1.674-2.466h0.527l-1.542,4.482h-13.777v-0.487
		h0.633c0.422,0,0.822-0.102,1.2-0.304c0.281-0.141,0.472-0.352,0.574-0.633c0.101-0.281,0.151-0.856,0.151-1.728V319.44
		c0-1.134-0.114-1.833-0.343-2.097c-0.316-0.351-0.844-0.527-1.582-0.527h-0.633v-0.487h13.777l0.198,3.915h-0.514
		c-0.185-0.939-0.389-1.586-0.613-1.938c-0.225-0.352-0.556-0.619-0.996-0.805c-0.352-0.131-0.971-0.197-1.859-0.197H274.873z"/>
	<path fill="url(#colour2)" d="M303.969,334.206h-4.772l-6.051-8.358c-0.448,0.018-0.813,0.026-1.094,0.026
		c-0.114,0-0.237-0.002-0.369-0.007c-0.132-0.004-0.268-0.011-0.409-0.02v5.194c0,1.125,0.123,1.824,0.369,2.097
		c0.334,0.387,0.835,0.58,1.503,0.58h0.699v0.487h-7.66v-0.487h0.672c0.756,0,1.296-0.246,1.622-0.738
		c0.185-0.272,0.277-0.919,0.277-1.938v-11.549c0-1.125-0.123-1.823-0.369-2.097c-0.343-0.386-0.853-0.58-1.529-0.58h-0.672v-0.487
		h6.513c1.898,0,3.298,0.139,4.199,0.415c0.9,0.277,1.665,0.787,2.294,1.529c0.628,0.743,0.942,1.629,0.942,2.656
		c0,1.1-0.358,2.053-1.074,2.861c-0.717,0.809-1.826,1.38-3.329,1.714l3.691,5.128c0.844,1.179,1.569,1.961,2.175,2.348
		s1.397,0.633,2.373,0.738V334.206z M291.273,325.018c0.167,0,0.312,0.002,0.435,0.006c0.123,0.005,0.224,0.007,0.303,0.007
		c1.705,0,2.99-0.369,3.856-1.107c0.865-0.738,1.298-1.679,1.298-2.821c0-1.116-0.349-2.023-1.048-2.723
		c-0.698-0.698-1.624-1.048-2.775-1.048c-0.51,0-1.2,0.084-2.07,0.251V325.018z"/>
	<path fill="url(#colour2)" d="M316.111,315.92v6.184h-0.488c-0.158-1.187-0.442-2.131-0.85-2.834c-0.409-0.703-0.991-1.262-1.747-1.675
		s-1.538-0.62-2.347-0.62c-0.914,0-1.67,0.279-2.268,0.838c-0.598,0.558-0.896,1.193-0.896,1.904c0,0.546,0.189,1.042,0.567,1.49
		c0.545,0.659,1.841,1.538,3.889,2.637c1.67,0.896,2.81,1.584,3.421,2.063c0.611,0.479,1.081,1.044,1.411,1.694
		c0.329,0.65,0.494,1.331,0.494,2.043c0,1.354-0.525,2.521-1.575,3.5c-1.051,0.98-2.402,1.471-4.054,1.471
		c-0.519,0-1.006-0.04-1.463-0.119c-0.272-0.044-0.837-0.204-1.694-0.481c-0.856-0.276-1.399-0.415-1.628-0.415
		c-0.22,0-0.394,0.066-0.521,0.197c-0.128,0.133-0.222,0.405-0.284,0.818h-0.488v-6.131h0.488c0.229,1.283,0.536,2.243,0.923,2.881
		c0.387,0.637,0.978,1.166,1.773,1.588s1.668,0.633,2.617,0.633c1.099,0,1.966-0.289,2.604-0.869s0.956-1.266,0.956-2.057
		c0-0.439-0.121-0.884-0.362-1.332c-0.242-0.448-0.618-0.865-1.127-1.252c-0.343-0.264-1.279-0.824-2.808-1.682
		c-1.529-0.856-2.617-1.54-3.263-2.05c-0.646-0.51-1.136-1.072-1.47-1.688s-0.501-1.292-0.501-2.03c0-1.283,0.492-2.389,1.477-3.315
		c0.984-0.928,2.237-1.392,3.757-1.392c0.949,0,1.956,0.233,3.019,0.699c0.492,0.22,0.839,0.33,1.042,0.33
		c0.229,0,0.415-0.068,0.561-0.205c0.145-0.136,0.261-0.41,0.349-0.824H316.111z"/>
	<path fill="url(#colour2)" d="M341.753,315.92l0.409,6.078h-0.409c-0.545-1.819-1.323-3.129-2.333-3.929s-2.224-1.2-3.639-1.2
		c-1.187,0-2.259,0.302-3.217,0.903c-0.958,0.603-1.712,1.563-2.261,2.881c-0.55,1.318-0.824,2.958-0.824,4.917
		c0,1.618,0.259,3.02,0.778,4.206s1.298,2.097,2.34,2.729c1.041,0.633,2.23,0.949,3.566,0.949c1.16,0,2.184-0.249,3.072-0.745
		c0.888-0.497,1.863-1.483,2.927-2.96l0.409,0.264c-0.896,1.591-1.942,2.756-3.138,3.494s-2.615,1.107-4.258,1.107
		c-2.962,0-5.256-1.099-6.882-3.297c-1.213-1.635-1.819-3.559-1.819-5.773c0-1.784,0.4-3.424,1.2-4.918s1.9-2.652,3.302-3.474
		c1.402-0.822,2.934-1.233,4.595-1.233c1.292,0,2.566,0.316,3.823,0.949c0.369,0.194,0.633,0.291,0.791,0.291
		c0.237,0,0.444-0.084,0.62-0.251c0.229-0.237,0.391-0.567,0.488-0.989H341.753z"/>
	<path fill="url(#colour2)" d="M358.984,329.262l0.435,0.093l-1.529,4.852h-13.843v-0.487h0.672c0.756,0,1.296-0.246,1.622-0.738
		c0.185-0.281,0.277-0.932,0.277-1.951v-11.536c0-1.116-0.123-1.814-0.369-2.097c-0.343-0.386-0.853-0.58-1.529-0.58h-0.672v-0.487
		h8.095v0.487c-0.949-0.008-1.615,0.08-1.998,0.264c-0.382,0.186-0.644,0.418-0.784,0.699s-0.211,0.954-0.211,2.018v11.232
		c0,0.729,0.07,1.23,0.211,1.502c0.105,0.186,0.268,0.321,0.488,0.409s0.905,0.132,2.057,0.132h1.305
		c1.371,0,2.333-0.101,2.887-0.303s1.059-0.561,1.516-1.075C358.07,331.181,358.527,330.369,358.984,329.262z"/>
	<path fill="url(#colour2)" d="M372.879,316.816v-0.487h6.328v0.487h-0.672c-0.703,0-1.244,0.295-1.622,0.884
		c-0.185,0.272-0.277,0.905-0.277,1.898v7.251c0,1.793-0.178,3.184-0.534,4.173c-0.356,0.988-1.055,1.837-2.097,2.544
		c-1.041,0.708-2.458,1.062-4.251,1.062c-1.951,0-3.432-0.339-4.443-1.015c-1.011-0.677-1.727-1.587-2.149-2.729
		c-0.281-0.782-0.422-2.25-0.422-4.403v-6.987c0-1.099-0.152-1.819-0.455-2.162c-0.304-0.343-0.793-0.515-1.47-0.515h-0.672v-0.487
		h7.726v0.487h-0.686c-0.738,0-1.266,0.233-1.582,0.699c-0.22,0.316-0.33,0.976-0.33,1.978v7.792c0,0.694,0.063,1.489,0.191,2.386
		s0.358,1.595,0.692,2.097c0.334,0.5,0.815,0.914,1.443,1.238c0.628,0.326,1.4,0.488,2.314,0.488c1.169,0,2.215-0.255,3.138-0.765
		s1.553-1.162,1.892-1.958c0.338-0.795,0.507-2.143,0.507-4.041v-7.237c0-1.116-0.123-1.814-0.369-2.097
		c-0.343-0.386-0.853-0.58-1.529-0.58H372.879z"/>
	<path fill="url(#colour2)" d="M391.969,325.083c1.239,0.264,2.167,0.686,2.782,1.266c0.853,0.809,1.279,1.798,1.279,2.966
		c0,0.889-0.281,1.738-0.844,2.552c-0.563,0.813-1.334,1.406-2.313,1.779c-0.98,0.374-2.477,0.561-4.489,0.561h-8.438v-0.487h0.672
		c0.747,0,1.283-0.238,1.608-0.713c0.202-0.307,0.303-0.962,0.303-1.964v-11.549c0-1.107-0.127-1.806-0.382-2.097
		c-0.343-0.386-0.853-0.58-1.529-0.58h-0.672v-0.487h7.726c1.441,0,2.597,0.105,3.467,0.316c1.318,0.316,2.325,0.877,3.019,1.681
		c0.694,0.805,1.042,1.729,1.042,2.775c0,0.896-0.272,1.698-0.817,2.406C393.837,324.215,393.033,324.74,391.969,325.083z
		 M385.061,324.371c0.325,0.062,0.696,0.107,1.114,0.139c0.417,0.03,0.876,0.046,1.377,0.046c1.283,0,2.248-0.139,2.894-0.415
		c0.646-0.277,1.14-0.701,1.483-1.272s0.514-1.195,0.514-1.872c0-1.046-0.426-1.938-1.279-2.676s-2.096-1.107-3.731-1.107
		c-0.879,0-1.67,0.097-2.373,0.289V324.371z M385.061,332.914c1.02,0.237,2.026,0.355,3.019,0.355c1.591,0,2.804-0.357,3.639-1.074
		c0.835-0.716,1.252-1.602,1.252-2.656c0-0.694-0.189-1.362-0.567-2.004s-0.993-1.146-1.846-1.516s-1.907-0.555-3.164-0.555
		c-0.545,0-1.011,0.01-1.397,0.027s-0.699,0.048-0.936,0.092V332.914z"/>
</g>
<path fill-rule="evenodd" clip-rule="evenodd" fill="url(#colour1)" d="M216.223,316.485c0,0,1.686-0.005,2.209,0
	c0.903,0.008,1.092,0.183,1.341,0.479c0.366,0.439,0.521,0.879,0.277,1.682c-0.25,0.819-1.618,2.584-1.618,2.584
	c-0.813,1.354-1.444,2.831-1.569,3.615c-0.363,2.258,0.083,3.2,0.464,4.066c0.374,0.845,1.745,2.202,2.384,2.543
	c0.64,0.337,1.744,0.959,3.546,1.016c1.801,0.056,3.47-0.973,3.47-0.973c1.245-0.853,2.26-1.973,2.676-3.945
	c0.427-2.031-0.462-4.168-0.913-5.192c-0.324-0.731-1.745-2.599-1.86-3.785c-0.117-1.188,0.74-1.782,1.337-1.863
	c0.319-0.081,2.719,0.028,2.719,0.028s0.184,1.724,0.068,2.063l-0.753-0.059c-0.756-0.113-0.232,0.847-0.232,0.847
	s1.37,2.051,2.125,3.971c0.756,1.92,0.634,3.484,0.547,4.671c-0.133,1.828-0.962,3.757-3.408,5.55
	c-1.33,0.976-3.552,2.332-7.579,1.737c-1.805-0.267-3.721-1.075-5.464-3.05c-1.9-2.154-2.515-4.163-2.137-7.25
	c0.317-2.585,2.893-5.799,3.125-6.251c0.232-0.451-0.058-0.451-0.058-0.451l-0.977,0.038L216.223,316.485L216.223,316.485z
	 M218.374,319.686c0.136,0,0.247-0.144,0.247-0.318c0-0.178-0.111-0.321-0.247-0.321c-0.136,0-0.247,0.144-0.247,0.321
	C218.127,319.542,218.238,319.686,218.374,319.686L218.374,319.686z M228.315,319.875c0.136,0,0.246-0.144,0.246-0.32
	c0-0.175-0.11-0.319-0.246-0.319c-0.137,0-0.248,0.145-0.248,0.319C228.067,319.731,228.178,319.875,228.315,319.875
	L228.315,319.875z M230.989,326.03c0.136,0,0.247-0.143,0.247-0.318c0-0.177-0.111-0.318-0.247-0.318
	c-0.137,0-0.246,0.142-0.246,0.318C230.743,325.888,230.852,326.03,230.989,326.03L230.989,326.03z M229.477,331.566
	c0.137,0,0.248-0.144,0.248-0.318c0-0.177-0.111-0.321-0.248-0.321c-0.136,0-0.245,0.145-0.245,0.321
	C229.232,331.423,229.341,331.566,229.477,331.566L229.477,331.566z M223.083,334.335c0.136,0,0.246-0.144,0.246-0.321
	c0-0.175-0.11-0.319-0.246-0.319c-0.137,0-0.247,0.145-0.247,0.319C222.836,334.191,222.946,334.335,223.083,334.335
	L223.083,334.335z M216.746,331.34c0.136,0,0.247-0.143,0.247-0.319s-0.111-0.319-0.247-0.319c-0.137,0-0.247,0.143-0.247,0.319
	S216.609,331.34,216.746,331.34L216.746,331.34z M215.409,325.919c0.137,0,0.247-0.144,0.247-0.319c0-0.177-0.11-0.32-0.247-0.32
	c-0.136,0-0.247,0.144-0.247,0.32C215.162,325.775,215.273,325.919,215.409,325.919L215.409,325.919z"/>
</svg>
