<?xml version="1.0" encoding="utf-8"?>
<!DOCTYPE svg PUBLIC "-//W3C//DTD SVG 1.1//EN" "http://www.w3.org/Graphics/SVG/1.1/DTD/svg11.dtd">
<svg version="1.1" id="Layer_1" xmlns="http://www.w3.org/2000/svg" xmlns:xlink="http://www.w3.org/1999/xlink" x="0px" y="0px"
	 width="643.46px" height="850.39px" viewBox="0 0 643.46 850.39" enable-background="new 0 0 643.46 850.39" xml:space="preserve">
<g>
	<linearGradient id="SVGID_1_" gradientUnits="userSpaceOnUse" x1="129.9014" y1="179.2856" x2="129.9014" y2="376.4287">
		<stop  offset="0" style="stop-color:#F15A24"/>
		<stop  offset="0.1648" style="stop-color:#E76427"/>
		<stop  offset="0.4482" style="stop-color:#CE802D"/>
		<stop  offset="0.8135" style="stop-color:#A4AD39"/>
		<stop  offset="1" style="stop-color:#8CC63F"/>
	</linearGradient>
	<path fill="url(#SVGID_1_)" d="M83.355,292.945l1.017-10.872v5.105l2.689,5.723l9.956,10.828l2.107,4.446v5.767l-2.616,9.552
		l0.979,5.105l2.803,4.048l6.221,1.222l5.28-2.209l3.11-3.845l1.591-4.817l-3.707-8.927l-15.26-19.225l-2.108-4.463l-1.017-5.126
		l4.215-24.307l-3.198-8.618l3.707,3.491l2.616,3.845l1.599,5.126l-0.508,16.617l1.526,4.817l2.688,3.845l5.232,2.563l5.814-1.945
		l3.633-3.491l1.09-4.817l-0.509-5.436l-2.107-4.154l-18.458-17.28l-2.616-4.154l-1.599-4.464l-0.509-5.436l8.938-23.025
		l0.509-5.436l-3.125-7.999l1.599,0.931l5.741,7.71l1.096,9.616l-4.187,10.208l-1.63,10.187l1.579,4.819l3.709,3.194l6.838,0.976
		l4.729-2.563l2.619-4.154l0.508-5.126l-1.526-4.773l-10.538-16.308l-1.09-4.817l0.582-5.436l7.849-18.252l2.107-9.899
		l-1.017-10.563l1.526,1.274l3.707,8.916v9.839l-5.829,25.647l1.091,4.851l3.128,3.872l1.601,0.623h3.709l4.729-3.845l1.527-4.773
		l-0.509-10.872l-5.232-19.534l1.599-10.253l4.142-7.336l-1.526,12.153l11.046,32.969l-1.09,5.083l-10.538,16.308l-2.035,4.508
		l0.509,4.463l2.618,4.817l4.22,3.182h5.236l5.819-3.855l1.583-4.52v-5.735l-5.813-19.192l1.018-5.074l2.107-4.191l5.305-5.074
		l-1.599,2.563l-1.017,10.518l7.849,17.943l1.599,9.281l-2.107,5.745l-5.813,7.69l-11.555,9.899l-5.814,7.69l-1.017,5.082
		l1.019,5.126l2.696,3.845l5.757,2.254l6.337-1.957l2.574-3.777l2.109-8.355l-1.017-12.467l1.017-4.819l2.108-4.465l5.813-5.128
		l-1.599,1.945l-2.616,9.899l4.215,24.97l-19.984,28.461l-1.599,4.463l0.509,4.508l2.616,5.083l4.796,2.563l3.634,0.663l3.197-0.972
		l3.125-3.536l1.599-4.773l-2.616-15.379l1.526-4.773l12.645-14.717v-8.971l2.107,4.508v5.745l-7.34,12.772l-2.107,7.69
		l4.215,10.872l0.509,5.436l-1.09,5.126l-2.107,4.463l-36.263,39.996l-3.125,7.999l-7.413-14.407l-27.324-28.771l-5.232-7.999
		l-1.599-4.817l0.509-5.436l3.707-8.927l0.509-5.436l-1.599-4.817L83.355,292.945z"/>
</g>
</svg>
