<?xml version="1.0" encoding="utf-8"?>
<!-- Generator: Adobe Illustrator 14.0.0, SVG Export Plug-In . SVG Version: 6.00 Build 43363)  -->
<!DOCTYPE svg PUBLIC "-//W3C//DTD SVG 1.1//EN" "http://www.w3.org/Graphics/SVG/1.1/DTD/svg11.dtd">
<svg version="1.1" id="Layer_1" xmlns:svg="http://www.w3.org/2000/svg"
	 xmlns="http://www.w3.org/2000/svg" xmlns:xlink="http://www.w3.org/1999/xlink" x="0px" y="0px" width="330px" height="354px"
	 viewBox="0 0 330 354" enable-background="new 0 0 330 354" xml:space="preserve">
 <defs>
   <linearGradient id="colour1">
     <stop offset="100%" stop-color="#F7AEC3"/>
   </linearGradient>
</defs>
<g>
	<path fill="url(#colour1)" d="M276.902,124.427c0.378-0.455,0.561-1.557,0.599-2.84c0.047-0.197,0.047-0.354,0.008-0.474
		c0.009-2.953-0.682-6.54-1.535-5.61c-0.409,0.447-1.05,2.95-1.423,5.563C273.864,125.87,274.706,127.073,276.902,124.427z"/>
	<path fill="url(#colour1)" d="M309.692,113.338c-0.1-0.579-0.297-1.103-0.617-1.653c-0.594-1.167-1.543-2.386-3.048-4.096
		c-3.131-3.557-4.861-4.65-8.201-5.185c-2.327-0.372-4.812-1.157-5.519-1.745c-1.9-1.577-5.393-0.342-9.533,3.369
		c-4.808,4.31-5.896,7.348-4.622,12.902c1.497,6.525,0.529,12.848-2.304,15.044c-2.003,1.553-2.13,1.974-0.854,2.818
		c1.221,0.807,1.081,0.995-0.75,1.007c-0.12,0.001-0.226,0.012-0.335,0.02c-0.041-0.005-0.07,0.004-0.105,0.006
		c-1.243,0.119-1.81,0.725-1.81,1.931c0,1.067-0.45,2.219-1,2.559s-1.029,2.054-1.064,3.809c-0.096,4.778-2.325,14.48-3.626,15.781
		c-0.628,0.628-2.188,1.664-3.467,2.301c-2.744,1.368-3.74,4.609-1.416,4.609c1.295,0,1.225,0.349-0.401,1.975
		c-1.086,1.086-2.26,3.111-2.608,4.5c-0.098,0.388-0.233,0.74-0.398,1.053c-0.229,0.307-0.452,0.604-0.667,0.883
		c-0.399,0.372-0.863,0.59-1.354,0.59c-2.277,0-2.998,1.944-2.998,8.081c0,4.047-0.315,4.919-1.778,4.919
		c-0.978,0-2.548-0.899-3.49-2c-0.941-1.101-2.863-2-4.271-2c-1.406,0-4.421-0.899-6.697-2c-0.929-0.448-1.95-0.823-2.983-1.128
		c-1.705-0.762-2.342-0.872-3.267-0.872c-0.221,0-0.43,0.033-0.619,0.09c-2.218-0.225-3.895,0.041-3.895,0.91c0,0.55-0.62,1-1.378,1
		s-1.938,0.675-2.622,1.5s-2.315,1.5-3.623,1.5s-2.385,0.563-2.393,1.25c0,0.007-0.001,0.011-0.001,0.017
		c-0.272,0.014-0.519,0.023-0.765,0.034c-0.051-0.074-0.102-0.147-0.158-0.236c-0.753-1.19-1.179-1.212-2.484-0.128
		c-0.178,0.147-0.333,0.271-0.474,0.372c-0.473-0.044-0.805-0.126-1.039-0.251c-0.047-0.299-0.063-0.715-0.063-1.275
		c0-1.689,0.827-2.838,2.64-3.664c1.513-0.689,2.152-1.028,2.311-2.673c0.026-0.058,0.043-0.112,0.042-0.163
		c-0.001-0.061-0.008-0.148-0.011-0.218c0.057-1.197-0.077-2.998-0.298-5.857c-0.162-2.098-0.475-4.461-0.849-6.589
		c-0.019-1.206-0.213-2.165-0.492-2.489c-0.248-1.118-0.505-2.076-0.752-2.757c-1.531-4.223-0.765-10.529,1.446-11.895
		c0.529-0.327,0.963-2.32,0.963-4.429c0-2.144,0.551-4.046,1.25-4.316c1.651-0.637,7.75-12.973,7.75-15.679
		c0-1.165,0.686-3.758,1.522-5.762c1.038-2.485,1.197-3.971,0.5-4.668c-0.491-0.491-0.803-2.256-0.955-4.538
		c0.012-1.279,0.011-2.556-0.008-3.773c-0.02-1.276-0.015-2.539,0.01-3.745c0.204-3.574,0.685-6.743,1.397-7.53
		c0.646-0.713,1.132-3.306,1.463-7.833c0.402-2.719,0.557-5.794,0.438-9.001c0.002-0.392-0.003-0.777-0.015-1.158
		c0.124-5.839,0.135-13.112,0.034-21.845c0.375-3.398,0.313-6.556-0.181-9.467c-0.317-6.152-1.534-8.698-5.728-13.297
		c-3.654-4.006-8.995-3.73-12.913,0.667c-1.42,1.594-2.916,2.904-3.324,2.913c-0.408,0.008-1.821,2.214-3.141,4.901
		c-0.806,1.643-1.353,2.878-1.657,4.305c-0.395,0.572-0.509,2.167-0.362,3.642c-0.106,0.965-0.069,1.798,0.119,2.443
		c0.049,0.392,0.116,0.779,0.2,1.165c0.238,2.426,0.646,5.546,1.214,9.751c0.609,4.506-0.246,7.776-3.664,14.014
		c-1.26,2.299-1.224,11.478,0.049,12.264c0.082,0.051,0.161,0.176,0.237,0.353c0.513,5.107,0.65,9.564,0.379,12.333
		c-0.057,0.394-0.116,0.781-0.18,1.16c-0.131,0.417-0.278,0.655-0.437,0.655c-0.55,0-1.015,0.788-1.032,1.75s-0.692,2.624-1.5,3.691
		c-0.808,1.068-1.468,2.755-1.468,3.75c0,0.995-0.45,1.809-1,1.809c-1.242,0-1.35,13.666-0.113,14.43
		c0.487,0.302,1.174,2.083,1.526,3.958c0.739,3.941,4.08,8.612,6.159,8.612c0.785,0,1.428,0.675,1.428,1.5
		c0,0.825,0.675,1.5,1.5,1.5s1.5,0.413,1.5,0.918c0,0.505,0.309,1.743,0.687,2.75c0.122,0.325,0.204,0.571,0.26,0.771
		c-0.179,0.061-0.378,0.123-0.614,0.184c-0.005,0.001-0.009,0.003-0.013,0.005c-0.138-0.102-0.292-0.221-0.475-0.369
		c-2.101-1.706-2.84-0.638-2.877,4.158c-0.053,6.843-3.739,9.243-8.392,5.464c-0.592-0.481-3.552-2.655-6.576-4.83
		c-0.716-0.515-1.432-1.035-2.121-1.54c-0.598-0.749-1.379-1.331-1.992-1.474c-1.308-0.977-2.322-1.759-2.697-2.086
		c-0.963-0.84-2.025-0.853-4-0.051c-7.395,3.005-23.967,4.62-31.5,3.069c-2.918-0.601-3.875-0.51-5.789,1.19
		c-0.43,0.181-0.673,0.425-0.794,0.739c-0.082,0.079-0.16,0.153-0.245,0.236c-2.112,2.065-3.608,2.762-4.987,2.325
		c-0.271-0.086-0.571-0.134-0.881-0.147c-0.312-0.066-0.657-0.036-1.091,0.094c-0.503,0.104-0.969,0.29-1.324,0.545
		c-0.427,0.207-0.926,0.466-1.501,0.771c-0.045-0.025-0.077-0.066-0.077-0.137c0-0.361-1.013-0.1-2.25,0.583
		s-2.947,1.135-3.799,1.006c-2.28-0.344-6.373,4.495-6.444,7.618c-0.034,1.488-0.587,5.181-1.229,8.206
		c-2.636,12.439-2.852,15.399-1.403,19.228c0.776,2.051,2.246,3.994,3.268,4.318s1.857,1.008,1.857,1.521
		c0,0.513,0.675,0.933,1.5,0.933c0.319,0,0.581,0.031,0.794,0.084l0.677,0.541c0.093,0.565-0.814,1.37-2.471,1.786
		c-2.677,0.671-3.475,4.215-1.413,6.275c1.153,1.154,0.044,2.938-5.337,8.582c-1.513,1.587-2.75,3.499-2.75,4.249
		c0,0.751-0.45,1.643-1,1.982s-1,1.312-1,2.157c0,2.353-2.114,6.355-5.228,10.146c-0.002,0.001-0.003,0.003-0.005,0.004
		c-0.594,0.439-1.12,1.063-1.44,1.657c-0.309,0.336-0.623,0.67-0.944,0.996c-2.411,2.445-4.383,5.126-4.383,5.957
		c0,0.832-0.87,1.979-1.933,2.547c-1.059,0.566-2.188,1.859-2.517,2.879c-0.224,0.312-0.444,0.65-0.657,1.006
		c-1.002,0.754-3.4,0.904-10.091,0.982c-6.996,0.081-10.424,0.515-11.021,1.394c-0.319,0.47-0.456,1.539-0.462,2.819
		c-0.007,0.04-0.014,0.074-0.021,0.115c-0.045,0.29-0.02,0.715,0.057,1.232c0.167,2.887,0.851,6.169,1.664,6.443
		c0.103,0.034,0.18,0.092,0.257,0.149c0.097,0.262,0.195,0.523,0.295,0.785c-0.021,0.091-0.042,0.183-0.097,0.271
		c-0.702,1.136,2.151,7.959,3.328,7.959c0.498,0,2.119,1.125,3.603,2.5s3.05,2.5,3.48,2.5c0.354,0,0.525,2.354,0.445,5.559
		c-0.144,0.781-0.235,1.671-0.274,2.603c-0.034,0.468-0.056,0.951-0.056,1.447c0,0.067,0.001,0.126,0.001,0.192
		c-0.033,0.639-0.023,1.232,0.033,1.737l-0.218,3.962l7.977,8c9.222,9.249,16.089,13.963,14.568,10
		c-0.345-0.899-0.014-1.45,0.87-1.492c0.047-0.001,0.091-0.005,0.14-0.005c1.921,0.028,3.384,2.246,1.805,2.771
		c-0.192,0.064-0.353,0.148-0.496,0.242c-0.734,0.063-0.915,0.356-0.619,0.809c-0.261,0.968,0.567,2.236,2.188,2.742
		c1.237,0.387,2.475,0.979,2.75,1.317c0.274,0.339,2.274,1.515,4.444,2.615c2.169,1.1,5.007,3.058,6.306,4.351
		c0.774,0.771,1.416,1.272,2.086,1.574l0.03-0.105c0.017,0.012,0.036,0.026,0.052,0.039l-0.057,0.077
		c0.13,0.057,0.26,0.112,0.393,0.154c0.376,0.254,0.66,0.41,0.787,0.41c0.194,0,0.388-0.022,0.582-0.048
		c0.242,0.046,0.644-0.039,1.178-0.276c0.236-0.034,0.473-0.068,0.738-0.118c2.833-0.531,3.326-0.374,2.838,0.9
		c-0.326,0.848-0.132,1.542,0.432,1.542c0.563,0,1.251-0.563,1.528-1.25s0.539,0.212,0.583,2c0.089,3.663,0.478,3.803,5.207,1.876
		c4.58-1.865,11.227-3.009,10.481-1.804c-0.723,1.17,9.304,2.532,11.745,1.595c0.968-0.371,1.531-1.273,1.251-2.004
		c-0.397-1.034,0.05-1.115,2.026-0.363c2.75,1.046,4.368,0.534,4.368-1.382c0-0.749,1.53-1.214,4-1.214c2.2,0,4,0.139,4,0.309
		c0,0.169-0.727,1.416-1.615,2.772c-1.572,2.399-1.547,2.465,0.95,2.465c0.157,0,0.316-0.012,0.475-0.028
		c0.062,0.018,0.125,0.028,0.19,0.028c0.104,0,0.202-0.042,0.297-0.104c1.091-0.221,2.097-0.778,2.463-1.433
		c0.746-1.332,1.842-1.135,8.3,1.49c4.092,1.664,7.963,3.736,8.602,4.605c0.64,0.869,3.339,1.946,6,2.393
		c1.915,0.321,3.354,0.558,4.507,0.681c0.152,0.223,0.41,0.335,0.764,0.343c0.532,0.086,1.228-0.034,1.925-0.327
		c1.525-0.241,2.623-1.037,4.715-2.62c2.997-2.268,5.008-2.979,8.479-3c5.071-0.031,6.95-1.31,6.95-4.729
		c0-0.145,0.006-0.285,0.015-0.423c0.184-0.529,0.369-1.131,0.561-1.798c0.061-0.047,0.123-0.079,0.188-0.079
		c0.419,0,1.621-3.038,2.672-6.75c0.281-0.993,0.566-1.951,0.841-2.832c0.315-0.684,0.555-1.415,0.66-2.03
		c0.448-1.31,0.807-2.2,0.974-2.371c0.03-0.005,0.06-0.017,0.091-0.017c0.521,0,0.946-0.622,0.991-1.406
		c1.343-2.145,3.009-5.843,3.009-6.998c0-0.878,0.482-1.596,1.073-1.596c0.722,0,0.905-2.864,0.559-8.75
		c-0.661-11.25-0.887-12.647-2.319-14.373c-0.722-0.87-1.008-3.722-0.83-8.081c0.225-0.999,0.36-2.542,0.414-4.346
		c0.065-0.491,0.074-0.882,0.022-1.198c0.008-0.936-0.003-1.916-0.033-2.91c0.327-7.808,0.119-9.457-0.761-11.657
		c-1.642-4.107-1.397-5.465,1.125-6.252c1.237-0.387,2.475-1.001,2.75-1.366c0.274-0.364,3.521-2.413,7.212-4.551
		c7.094-4.108,7.877-5.276,6.631-9.894c-0.471-1.746-0.33-3.712,0.358-4.999c0.521-0.972,0.923-3.515,1.18-6.553
		c0.276-0.458,0.453-1.17,0.534-1.999c0.079-0.402,0.096-0.856,0.052-1.341c-0.014-0.854-0.11-1.729-0.286-2.511
		c0.034-1.654,0.025-3.267-0.03-4.701c0.191-0.342,0.269-0.77,0.25-1.256c0.059-0.084,0.1-0.171,0.1-0.263
		c0-0.276-0.096-0.527-0.25-0.709c-0.084-0.317-0.2-0.647-0.352-0.992c-0.137-0.994-0.321-1.705-0.558-1.99
		c-1.826-2.2-1.17-7.329,1.27-9.927c1.231-1.311,2.625-2.382,3.098-2.382c0.751,0,3.941-3.134,8.144-8
		c2.581-2.987,3.885-7.688,2.731-9.844c-0.02-0.037-0.036-0.073-0.055-0.11c-0.104-0.407-0.25-0.777-0.484-1.067
		c-0.592-1.523-0.72-2.901-0.406-3.404c0.217-0.027,0.464-0.041,0.752-0.037c0.097,0.067,0.199,0.15,0.311,0.262
		c0.659,0.66,2.045,1.2,3.078,1.2c2.316,0,9.145-7.166,10.85-11.386c0.41-1.015,0.866-1.993,1.237-2.684
		c0.033-0.062,0.067-0.123,0.101-0.185c0.21-0.377,0.388-0.648,0.5-0.745c1.187-1.023,4.034-5.967,4.034-7.004
		c0-0.591,1.8-2.892,4-5.114s4-4.394,4-4.825c0-0.432,1.101-1.885,2.445-3.23c3.95-3.95,7.555-12.1,7.555-17.082
		C309.995,115.271,309.92,114.262,309.692,113.338z M108.495,278.815c0.34-0.55,0.066-1-0.607-1c-0.675,0-0.99-0.235-0.702-0.523
		c0.747-0.747,3.81,0.563,3.81,1.63c0,0.492-0.702,0.894-1.56,0.894S108.155,279.365,108.495,278.815z M180.599,177.861
		c0.479,0.149,0.938,0.77,1.271,1.67c-0.016,0.31-0.057,0.636-0.133,0.956c-0.414,1.747-0.469,1.748-1.212,0.034
		C180.022,179.36,180.153,178.232,180.599,177.861z M200.995,189.815c0-1.101,0.45-2,1-2s1,0.899,1,2c0,1.1-0.45,2-1,2
		S200.995,190.915,200.995,189.815z M207.003,183.861c0.346,0.206,0.458,1.163,0.257,2.326c-0.217,0.277-0.264,0.585-0.18,0.862
		c-0.243,1.017-0.53,1.766-0.702,1.766c-0.021,0-0.04-0.02-0.06-0.04c-0.021-0.128-0.039-0.256-0.063-0.383
		c-0.057-0.297-0.126-0.544-0.201-0.768c-0.036-0.383-0.059-0.829-0.059-1.31c0-1.04,0.222-1.935,0.535-2.31
		C206.705,183.939,206.862,183.891,207.003,183.861z M208.053,189.815c0.583,0,0.781,0.45,0.441,1s-0.816,1-1.06,1
		c-0.242,0-0.44-0.45-0.44-1S207.471,189.815,208.053,189.815z M208.411,196.736c-1.164-0.048-1.401-0.285-0.604-0.604
		c0.722-0.289,1.584-0.254,1.916,0.078c0.07,0.07,0.091,0.134,0.083,0.193c-0.104,0.024-0.192,0.047-0.312,0.073
		c-0.357,0.08-0.706,0.168-1.05,0.259C208.433,196.736,208.423,196.736,208.411,196.736z M206.135,214.914
		c-0.088-0.16-0.14-0.333-0.14-0.516c0-0.779-0.563-1.617-1.25-1.863c-0.688-0.245-0.917-0.803-0.51-1.24
		c0.042-0.045,0.101-0.067,0.163-0.086c0.613,0.175,1.392,0.587,2.178,1.117c0.284,0.248,0.574,0.522,0.861,0.832
		c2.28,2.461,2.318,2.657,0.51,2.657c-0.111,0-0.22-0.011-0.326-0.024C207.125,215.552,206.611,215.252,206.135,214.914z
		 M209.632,237.57c-1.363,0.622-3.637,3.521-5.233,6.672c-1.552,3.065-3.333,5.573-3.957,5.573c-1.47,0-3.069,1.796-3.89,3.976
		c-0.483,0.732-0.557,1.405-0.557,2.438c0,0.748-0.426,2.102-1.094,3.7c-0.558,0.447-1.536,2.245-2.354,4.387
		c-0.311,0.813-0.673,1.566-1.045,2.227c-0.213,0.352-0.426,0.692-0.64,1.022c-0.548,0.77-1.074,1.251-1.451,1.251
		c-0.779,0-1.417,0.45-1.417,1s-0.638,1-1.417,1s-1.566,0.419-1.75,0.933c-0.184,0.513-2.319,1.158-4.747,1.434
		c-3.154,0.357-5.272,1.359-7.426,3.512c-1.977,1.977-3.252,4.49-3.711,7.316c-0.385,2.368-0.756,3.512-0.824,2.542
		c-0.152-2.149-2.213-5.97-3.76-6.972c-0.623-0.404-1.442-2.793-1.819-5.309c-0.399-2.661-1.319-4.815-2.2-5.154
		c-0.396-0.151-0.653-0.284-0.8-0.418c-0.05-0.085-0.087-0.171-0.129-0.259c0-0.002-0.001-0.005-0.002-0.007
		c0.016-0.194,0.247-0.409,0.711-0.696c1.023-0.632,0.936-1.196-0.416-2.689c-0.58-0.642-1.094-1.698-1.403-2.78
		c-0.03-0.122-0.062-0.246-0.094-0.374c-0.131-0.548-0.213-1.091-0.213-1.578c0-1.563-0.768-3.69-1.706-4.728
		c-1.323-1.462-1.458-2.28-0.604-3.648c1.202-1.926,0.613-7.124-0.808-7.124c-0.117,0-0.217-0.037-0.31-0.089
		c-0.352-1.326-0.485-2.293-0.41-3.104c0.235-1.007,0.7-1.925,1.337-2.169c1.972-0.756,1.915-4.079-0.103-6.098
		c-0.882-0.881-1.747-3.155-1.923-5.053c-0.208-2.23-1.266-4.264-2.992-5.749c-2.438-2.097-2.609-2.71-1.964-7.019
		c0.342-2.275,0.901-3.732,1.667-4.381c0.834-0.129,1.824,0.061,2.981,0.556c0.374,0.319,0.765,0.714,1.179,1.196
		c1.354,1.58,2.444,1.928,4.463,1.421c1.469-0.368,2.9-0.972,3.182-1.341c0.406-0.534,1.259-1.243,2.233-1.934
		c0.207-0.139,0.404-0.274,0.593-0.408c1.979-1.324,4.184-2.429,4.184-1.859c0,1.313,2.723,1.355,3.166,0.05
		c0.53-1.558,10.834-1.843,10.834-0.3c0,1.967,1.624,1.533,4.605-1.23c3.034-2.812,3.085-2.63-1.355-4.888
		c-1.788-0.909-3.25-1.882-3.25-2.163c0-0.279,0.876-0.04,1.946,0.533c1.07,0.572,4.107,1.15,6.75,1.285
		c2.77,0.141,4.049,0.056,4.842-0.587l0.462-0.011v-0.494c0.166-0.239,0.313-0.52,0.46-0.854c0.529-1.203,1.767-2.399,2.75-2.656
		c0.984-0.258,1.79-1.189,1.79-2.07c0-1.352,0.313-1.406,2-0.354c2.519,1.573,2.564,2.769,0.106,2.769
		c-1.463,0-2.14,0.397-2.434,2.452c-0.023,0.046-0.052,0.093-0.069,0.139c-0.185,0.481-0.192,0.908-0.054,1.162
		c-0.07,1.137-0.087,2.598-0.078,4.496c0.002,0.488,0.001,0.927-0.004,1.339c-0.055,0.526-0.07,1.017-0.043,1.456
		c-0.128,2.406-0.554,2.955-1.675,2.955c-2.645,0.001-2.097,2.918,0.75,4.001c0.461,0.175,0.889,0.381,1.261,0.594
		c0.395,0.396,0.818,0.815,1.266,1.253c0.138,0.555,1.561,2.367,3.3,4.183c4.967,5.182,7.096,9.578,6.262,12.577
		c-0.569,0.924-1.349,1.915-2.125,2.702C210.202,237.284,209.93,237.435,209.632,237.57z M134.059,203.982
		c0.201,0.406,0.975,1.058,2.044,1.745c0.306,0.213,0.618,0.403,0.926,0.563c0.312,0.178,0.632,0.354,0.966,0.525
		c2.2,1.122,4,2.481,4,3.021s0.701,0.979,1.559,0.979c0.193,0,0.361,0.025,0.507,0.067c0.197,0.391,0.307,0.759,0.315,1.085
		c-0.355,0.476-0.903,0.848-1.301,0.848c-1.89,0-11.104-7.143-12.003-9.181c0.155-0.395,0.544-0.647,1.021-0.745
		C132.627,203.011,133.311,203.382,134.059,203.982z M140.745,316.152c0.688-0.277,1.813-0.277,2.5,0
		c0.688,0.278,0.125,0.505-1.25,0.505S140.057,316.431,140.745,316.152z M235.117,208.141c0.583,1.004,0.87,2.016,0.636,2.25
		c-0.708,0.709-1.76-0.809-1.728-2.492C234.051,206.598,234.245,206.642,235.117,208.141z M153.219,327.283
		c0.818,0.039,1.715,0.063,2.698,0.074c-0.194,0.232-0.756,0.564-1.422,0.819c-0.825,0.317-1.5,0.14-1.5-0.393
		C152.995,327.601,153.079,327.43,153.219,327.283z M204.065,161.78c0.038-0.806,0.44-2.365,0.893-3.464
		c0.69-1.679,0.837-1.868,1.354-0.681c0.092,0.527,0.188,1.079,0.292,1.671c0.03,0.173,0.049,0.318,0.073,0.477
		c-0.131,0.636-0.478,1.257-1.045,1.825C204.281,162.958,204.007,162.988,204.065,161.78z M125.089,325.342l0.438-1.526
		c0.281-0.979,0.513-1.691,0.728-2.185c0.373-0.272,0.828-0.443,1.36-0.513c0.282,0.37-0.201,1.642-1.11,2.882l-1.089,1.488
		C125.258,325.524,125.151,325.479,125.089,325.342z M142.91,327.315c-1.259,0-2.118-0.146-2.543-0.368
		c0.19-0.412,0.441-0.807,0.734-1.144c0.244-0.092,0.524-0.182,0.856-0.269c1.08-0.282,2.392,0.002,2.915,0.633
		C145.552,326.986,144.988,327.315,142.91,327.315z M240.636,241.815c-0.113,0-0.207-0.005-0.291-0.013
		c0.139-0.276,0.312-0.555,0.516-0.83c0.489-0.275,1.192-0.629,2.134-1.077c0.884-0.421,1.44-0.681,1.694-0.764
		c-0.018,0.061-0.032,0.12-0.057,0.184c-0.011,0.026-0.01,0.044-0.02,0.069c-0.213,0.191-0.56,0.475-1.06,0.875
		C242.486,241.115,241.174,241.815,240.636,241.815z"/>
	<path fill="url(#colour1)" d="M151.807,332.133c-0.798,0.318-0.561,0.556,0.604,0.604c1.055,0.043,1.646-0.193,1.313-0.525
		C153.391,331.879,152.529,331.844,151.807,332.133z"/>
	<path fill="url(#colour1)" d="M274.995,130.815c0.55,0,1-0.675,1-1.5c0-0.825-0.45-1.5-1-1.5s-1,0.675-1,1.5
		C273.995,130.14,274.445,130.815,274.995,130.815z"/>
	<path fill="url(#colour1)" d="M48.051,213.656c0.794-1.147,2.064-2.732,2.823-3.521c0.499-0.519,1.031-1.838,1.417-3.369
		c0.74-0.246,0.875-1.521,0.527-3.176c0.274-2.895-0.011-3.909-1.168-4.354c-0.881-0.338-1.876-2.258-2.213-4.268
		c-0.859-5.137-2.475-10.153-3.271-10.155c-0.369-0.001-2.208-2.255-4.084-5.009c-2.556-3.749-4.377-5.295-7.25-6.156
		c-2.111-0.632-3.838-1.478-3.838-1.878c0-0.745-2.998-1.331-5.994-1.479c-0.951-0.174-1.741-0.174-2.531-0.012
		c-1.094,0.053-2.055,0.186-2.68,0.424c-3.539,1.346-7.013,4.949-9.056,9.396c-2.257,4.908-2.231,5.201,1.011,11.701
		c2.304,4.62,3.241,6.275,5.002,8.387c0.088,0.152,0.178,0.297,0.268,0.435c0.052,0.666,0.422,1.193,0.885,1.193
		c0.125,0,0.316,0.121,0.555,0.339c0.822,1.023,1.668,2.493,1.98,3.475c1.152,3.629,6.446,9.377,10.765,11.687
		c3.966,2.121,5.872,2.228,8.295,0.46c0.55-0.4,2.375-1.022,4.056-1.381C45.231,216.035,47.257,214.803,48.051,213.656z"/>
	<path fill="url(#colour1)" d="M95.089,73.802c0.233,0.328,0.434,0.682,0.606,1.077c0.182,0.818,0.3,2.026,0.3,3.388
		c0,5.749,1.827,14.233,3.405,15.814c0.506,0.507,1.251,2.326,1.877,4.473c0.053,0.24,0.105,0.479,0.145,0.691
		c0.156,0.839,0.427,1.896,0.758,3.006c1.805,8.053,2.13,9.078,2.845,9.565c1.018,0.694,3.969,9.642,3.969,12.035
		c0,1.081,0.45,1.965,1,1.965c0.124,0,0.241,0.101,0.35,0.264c0.101,0.175,0.208,0.434,0.318,0.769
		c0.202,0.721,0.332,1.751,0.332,2.902c0,4.388,1.524,9.153,3.273,10.234c0.631,0.39,1.199,2.874,1.263,5.52
		c0.007,0.293,0.014,0.558,0.021,0.831c-0.006,0.059-0.009,0.115-0.014,0.173c-0.24,1.56-0.19,2.869,0.189,3.977
		c0.232,3.013,0.723,3.331,2.159,3.331c1.041,0,2.176,0.736,2.521,1.636c0.581,1.515,0.762,1.515,2.436,0
		c0.912-0.825,2.395-1.511,3.45-1.625c0.133-0.004,0.267-0.01,0.4-0.01c0.42,0,0.819-0.028,1.189-0.074
		c3.24-0.267,5.03-1.475,5.604-3.771c0.364-1.46,1.338-3.405,2.164-4.322c1.081-1.2,1.229-2.18,0.527-3.5
		c-0.438-0.825-1.022-4.242-1.431-8.17c0.156-0.477,0.115-0.886-0.104-1.064c-0.05-0.529-0.096-1.063-0.138-1.599
		c-0.129-1.656-0.317-3.463-0.536-5.238c0.011-0.535,0.005-1.06-0.023-1.547c0.091-1.317-0.085-2.339-0.563-2.626
		c-0.298-1.878-0.611-3.509-0.896-4.589c-0.726-2.75-1.352-5.675-1.39-6.5c-0.097-2.059-0.464-4.106-0.999-5.853
		c-0.131-0.849-0.326-1.537-0.583-2.072c0.196-0.304-0.026-0.61-0.668-0.923c-0.011-0.009-0.022-0.019-0.033-0.029
		c-0.32-0.533-0.66-0.973-1.014-1.281c-0.44-0.384-0.776-0.813-1.039-1.307c-0.212-0.504-0.4-1.102-0.564-1.794
		c-0.12-0.795-0.146-1.738-0.092-2.899c0.227-4.792-2.733-18.49-4.19-19.39c-0.084-0.052-0.162-0.127-0.234-0.219
		c-0.243-1.625-0.433-3.358-0.579-5.268c0.135-2.063,0.485-4.59,1.054-7.423c0.846-4.213,0.864-6.269,0.068-7.543
		c-0.603-0.964-1.402-3.395-1.779-5.4c-0.376-2.006-1.459-4.199-2.406-4.873c-0.947-0.674-2.027-2.455-2.399-3.958
		c-0.669-2.704-4.971-5.768-8.097-5.768c-0.071,0-0.139-0.008-0.207-0.014c-0.35-0.147-0.723-0.302-1.104-0.459
		c-0.149-0.154-0.239-0.333-0.239-0.527c0-1.7-6.331-1.096-9.635,0.918c-3.943,2.405-6.029,6.542-6.93,13.746
		c-0.676,5.417-0.62,5.617,1.43,5.081c3.209-0.839,2.565,0.576-0.975,2.143c-2.801,1.24-3.055,1.712-2.561,4.762
		C87.883,63.897,93.503,73.508,95.089,73.802z M92.495,48.815c-0.825,0-1.5-0.436-1.5-0.969s0.675-0.709,1.5-0.393
		c0.825,0.317,1.5,0.752,1.5,0.969S93.32,48.815,92.495,48.815z"/>
	<path fill="url(#colour1)" d="M124.809,326.315l0.047-0.064c-0.008-0.004-0.017-0.007-0.026-0.011L124.809,326.315z"/>
	<path fill="url(#colour1)" d="M150.185,35.912c-0.045,1.073-0.05,2.269-0.023,3.669c0.03,1.61,0.137,3.167,0.293,4.506
		c-0.576,0.974-0.381,1.754,0.471,2.755c0.163,0.637,0.341,1.082,0.524,1.253c1.2,1.121,0.871,6.4-0.449,7.216
		c-0.904,0.559-0.078,9.56,1.01,11.004c0.438,0.581,0.85,1.724,1.195,3.188c0.188,1.153,0.401,2.392,0.638,3.716
		c0.2,1.649,0.318,3.413,0.318,5.113c0,2.465,0.3,4.485,0.667,4.487c0.366,0.003,0.776,1.915,0.912,4.249
		c0.135,2.334,0.697,4.394,1.25,4.578c0.203,0.068,0.371,0.344,0.51,0.739c0.165,1.233,0.285,2.398,0.361,3.468
		c-0.062,1.488-0.165,3.002-0.309,4.425c-0.148,0.517-0.332,0.896-0.559,1.036c-0.465,0.287-0.854,1.413-0.965,2.664
		c-0.219,0.93-0.438,2.182-0.664,3.789c-0.144,0.315-0.303,0.578-0.472,0.747c-0.698,0.699-0.972,4.581-0.75,10.645
		c0.04,1.087,0.08,2.052,0.124,2.921c-0.043,1.44,0.023,2.511,0.214,3.072c0.327,3.296,0.902,4.38,2.262,5.646
		c1.237,1.152,2.25,2.752,2.25,3.556c0,0.803,0.354,1.461,0.787,1.461s0.857,0.938,0.944,2.083c0.086,1.146,1.33,3.171,2.764,4.5
		c3.038,2.815,2.894,2.786,5.693,1.167c6.915-3.999,11.626-11.911,11.795-19.814c0.162-7.549-0.913-17.274-1.983-17.936
		c-0.25-0.154-0.467-0.525-0.657-1.025c-0.297-3.012-0.478-5.85-0.536-8.381c0.03-1.128,0.078-2.271,0.139-3.415
		c0.158-0.773,0.354-1.444,0.604-1.92c0.791-1.517,1.448-4.108,1.46-5.758c0.011-1.65,0.701-5.889,1.534-9.42
		c1.137-4.824,1.443-11.142,1.235-25.413c-0.048-3.248-0.073-5.995-0.073-8.312c0.105-3.992,0.253-7.438,0.423-9.781
		c0.157-0.829,0.363-1.234,0.622-1.321c1.474-0.496,1.727-8.253,0.269-8.253c-0.309,0-0.677-0.415-1-1.047
		c-0.221-0.834-0.48-1.664-0.793-2.475c-1.886-7.629-5.075-10.401-12.708-11.189c-5.038-0.52-5.61-0.351-8.461,2.5
		c-1.682,1.681-3.057,3.767-3.057,4.634s-0.401,1.577-0.892,1.577s-1.185,1.167-1.542,2.592c-0.358,1.426-1.751,4.874-3.096,7.662
		c-1.102,2.282-1.724,4.027-2.042,6.159C150.131,34.17,150.061,35.1,150.185,35.912z M152.728,39.691
		c0.678-0.684,1.485-0.991,1.793-0.683c0.308,0.308-0.247,0.867-1.233,1.243C151.863,40.794,151.748,40.679,152.728,39.691z"/>
	<path fill="url(#colour1)" d="M56.146,222.078c-1.873-1.935-4.445-3.999-6.25-4.852c-0.162-0.379-0.513-0.478-0.91-0.339
		c-0.018-0.005-0.033-0.004-0.05-0.008c-0.136-0.038-0.266-0.064-0.382-0.064c-0.006,0-0.011,0.002-0.018,0.002
		c-0.004,0-0.01-0.002-0.015-0.002c-5.071,0-3.007,5.381,1.461,7.969c0.406,0.488,1.04,0.771,2.035,0.913
		c0.6,0.193,1.223,0.33,1.863,0.398c1.987,0.211,3.699,0.459,3.804,0.552c0.105,0.093,0.453-0.255,0.772-0.772
		c0.184-0.298,0.001-0.834-0.416-1.496C58.312,223.658,57.719,222.777,56.146,222.078z"/>
</g>
</svg>
