<svg xmlns:rdf="http://www.w3.org/1999/02/22-rdf-syntax-ns#" xmlns="http://www.w3.org/2000/svg" enable-background="new 0 0 200 220" xml:space="preserve" viewBox="0 0 200 220" version="1.1" y="0px" x="0px" xmlns:cc="http://creativecommons.org/ns#" xmlns:dc="http://purl.org/dc/elements/1.1/"><metadata><rdf:RDF><cc:Work rdf:about=""><dc:format>image/svg+xml</dc:format><dc:type rdf:resource="http://purl.org/dc/dcmitype/StillImage"/><dc:title/></cc:Work></rdf:RDF></metadata>
<defs>
   <linearGradient id="colour1">
     <stop stop-color="#00A94F" offset="0"/>
   </linearGradient>
   <linearGradient id="colour2">
     <stop stop-color="#000" offset="0"/>
   </linearGradient>
</defs>
		<path d="M73.8,42.2l-0.706-0.482,0.158-0.229,0.163-0.227,0.167-0.23,0.169-0.228,0.175-0.228,0.175-0.225,0.178-0.226,0.182-0.225,0.181-0.222,0.183-0.219,0.182-0.219,0.183-0.214,0.183-0.211,0.181-0.208,0.18-0.204,0.178-0.2,0.174-0.195,0.173-0.19,0.17-0.186,0.166-0.178,0.159-0.174,0.157-0.167,0.152-0.161,0.145-0.152,0.14-0.146,0.132-0.137,0.127-0.131,0.119-0.122,0.109-0.112,0.102-0.103,0.094-0.095,0.083-0.083,0.605,0.603-0.083,0.083-0.09,0.092-0.102,0.103-0.109,0.111-0.116,0.119-0.123,0.127-0.132,0.137-0.137,0.143-0.145,0.152-0.148,0.157-0.154,0.164-0.159,0.17-0.163,0.178-0.166,0.182-0.169,0.187-0.174,0.192-0.175,0.196-0.177,0.201-0.178,0.205-0.179,0.208-0.179,0.211-0.18,0.212-0.179,0.216-0.178,0.218h-0.4l-0.175,0.22-0.172,0.222-0.168,0.221-0.166,0.221-0.16,0.22-0.156,0.221v0.3zm-10.8,15.4l-0.736-0.432,0.348-0.587,0.356-0.588,0.366-0.586,0.372-0.585,0.377-0.583,0.383-0.578,0.389-0.577,0.391-0.571,0.391-0.568,0.394-0.561,0.395-0.555,0.395-0.549,0.394-0.542,0.389-0.534,0.388-0.525,0.383-0.516,0.378-0.504,0.372-0.496,0.364-0.483,0.359-0.471,0.349-0.459,0.339-0.446,0.329-0.432,0.317-0.418,0.304-0.403,0.292-0.386,0.276-0.371,0.264-0.353,0.245-0.333,0.229-0.317,0.21-0.296,0.191-0.275,0.706,0.482-0.198,0.285-0.216,0.303-0.233,0.32-0.249,0.34-0.263,0.356-0.28,0.371-0.292,0.389-0.308,0.403-0.317,0.418-0.328,0.433-0.34,0.446-0.349,0.458-0.354,0.472-0.365,0.483-0.371,0.492-0.376,0.504-0.382,0.513-0.385,0.522-0.389,0.53-0.39,0.538-0.392,0.545-0.391,0.552-0.391,0.558-0.392,0.562-0.387,0.567-0.382,0.57-0.379,0.575-0.374,0.576-0.368,0.578-0.359,0.58-0.354,0.579-0.3,0.5zm2.5,94.4l-0.696,0.495-1.63-2.41-1.52-2.52-1.42-2.61-1.32-2.7-1.21-2.79-1.11-2.87-1.01-2.94-0.907-3-0.805-3.06-0.705-3.1-0.604-3.15-0.505-3.19-0.405-3.22-0.308-3.24-0.208-3.26-0.11-3.27-0.013-3.27,0.083-3.27,0.18-3.26,0.277-3.24,0.373-3.22,0.468-3.19,0.563-3.15,0.658-3.11,0.752-3.06,0.846-3,0.94-2.94,1.03-2.87,1.13-2.8,1.22-2.71,1.31-2.62,1.4-2.53,0.736,0.432-1.38,2.49-1.3,2.59-1.2,2.68-1.11,2.76-1.02,2.84-0.931,2.91-0.839,2.98-0.745,3.03-0.652,3.08-0.559,3.13-0.465,3.16-0.369,3.19-0.274,3.22-0.18,3.23-0.083,3.24,0.013,3.25,0.11,3.24,0.208,3.23,0.304,3.22,0.402,3.19,0.502,3.16,0.598,3.12,0.698,3.08,0.798,3.03,0.897,2.97,0.997,2.9,1.1,2.83,1.2,2.76,1.3,2.67,1.4,2.58,1.5,2.48,1.5,3zm7.5,11l-0.776,0.358-0.163-0.354-0.152-0.322-0.142-0.296-0.133-0.271-0.126-0.249-0.119-0.231-0.115-0.214-0.114-0.203-0.111-0.192-0.114-0.187-0.116-0.183-0.121-0.182-0.127-0.187-0.135-0.189-0.146-0.2-0.156-0.21-0.17-0.227-0.186-0.241-0.201-0.263-0.219-0.285-0.237-0.309-0.258-0.338-0.28-0.369-0.305-0.401-0.329-0.438-0.358-0.479-0.384-0.519-0.417-0.565-0.446-0.612-0.481-0.663-0.516-0.715-0.552-0.773,0.696-0.495,0.552,0.77,0.513,0.715,0.478,0.659,0.446,0.609,0.413,0.563,0.385,0.518,0.354,0.476,0.329,0.437,0.302,0.4,0.28,0.366,0.258,0.337,0.237,0.31,0.219,0.285,0.201,0.263,0.186,0.245,0.173,0.229,0.163,0.218,0.149,0.206,0.143,0.2,0.136,0.195,0.129,0.195,0.125,0.196,0.122,0.2,0.121,0.206,0.12,0.216,0.123,0.228,0.126,0.241,0.129,0.26,0.136,0.277,0.146,0.303,0.152,0.326h0.3zm2.6,8l-0.854,0.061-0.015-0.19-0.018-0.188-0.021-0.186-0.023-0.183-0.025-0.181-0.031-0.182-0.033-0.18-0.036-0.18-0.04-0.183-0.045-0.183-0.048-0.186-0.053-0.188-0.055-0.191-0.062-0.196-0.065-0.2-0.071-0.206-0.075-0.211-0.08-0.217-0.086-0.225-0.092-0.232-0.098-0.24-0.102-0.248-0.108-0.257-0.115-0.268-0.119-0.276-0.128-0.289-0.132-0.298-0.141-0.31-0.146-0.324-0.151-0.334-0.3-7-0.167-0.361,0.776-0.358,0.168,0.364,0.16,0.35,0.154,0.338,0.147,0.324,0.14,0.313,0.136,0.303,0.128,0.291,0.122,0.28,0.116,0.271,0.11,0.264,0.105,0.255,0.099,0.246,0.094,0.239,0.09,0.232,0.084,0.227,0.078,0.221,0.074,0.217,0.069,0.213,0.064,0.207,0.062,0.205,0.057,0.201,0.051,0.199,0.048,0.199,0.044,0.195,0.04,0.197,0.036,0.196,0.03,0.194,0.029,0.197,0.026,0.197,0.021,0.199,0.02,0.201,0.1,7zm-6.5,4l-0.412-0.75,0.279-0.133,0.287-0.102,0.29-0.071,0.293-0.045,0.292-0.022,0.292-0.005,0.29,0.009,0.288,0.022,0.286,0.028,0.28,0.037,0.276,0.037,0.27,0.039,0.261,0.036,0.253,0.03,0.241,0.022,0.229,0.014,0.216,0.002,0.198-0.013,0.179-0.026,0.16-0.038,0.141-0.057,0.125-0.069,0.11-0.088,0.104-0.11,0.096-0.143,0.086-0.182,0.077-0.223,0.061-0.273,0.046-0.322,0.023-0.375,0.001-0.431-0.025-0.485,0.854-0.061,0.025,0.525-0.001,0.475-0.027,0.432-0.052,0.393-0.081,0.35-0.106,0.317-0.138,0.281-0.165,0.247-0.193,0.211-0.219,0.172-0.234,0.133-0.248,0.096-0.254,0.066-0.259,0.036-0.262,0.016-0.263-0.002-0.266-0.015-0.269-0.025-0.27-0.033-0.271-0.036-0.27-0.038-0.27-0.038-0.267-0.033-0.263-0.028-0.259-0.02-0.253-0.009-0.245,0.005-0.235,0.02-0.226,0.035-0.214,0.051-0.202,0.071h-0.1zm5.3,6l-0.776-0.358,0.525,0.584-0.39,0.111-0.401,0.07-0.41,0.036-0.413,0.002-0.42-0.03-0.421-0.059-0.42-0.09-0.414-0.113-0.411-0.138-0.403-0.163-0.392-0.184-0.38-0.203-0.364-0.223-0.347-0.24-0.328-0.258-0.306-0.273-0.279-0.288-0.253-0.301-0.223-0.317-0.188-0.328-0.15-0.342-0.108-0.352-0.063-0.361-0.011-0.367,0.046-0.371,0.103-0.367,0.165-0.36,0.225-0.347,0.284-0.332,0.343-0.315,0.403-0.3,0.466-0.283,0.412,0.75-0.402,0.243-0.337,0.249-0.272,0.252-0.213,0.248-0.159,0.246-0.11,0.243-0.069,0.241-0.029,0.24,0.007,0.246,0.043,0.248,0.078,0.252,0.113,0.254,0.146,0.255,0.179,0.253,0.21,0.251,0.238,0.244,0.263,0.233,0.285,0.225,0.307,0.213,0.323,0.197,0.337,0.182,0.352,0.164,0.356,0.143,0.363,0.125,0.368,0.1,0.366,0.076,0.363,0.053,0.356,0.026,0.351-0.002,0.336-0.028,0.321-0.059,0.306-0.087,0.5-2zm-0.5-1l0.946-0.323-0.421,0.907-0.5-1zm2.5,3l0.201,0.83-0.386,0.085-0.358,0.058-0.33,0.033-0.303,0.008-0.283-0.015-0.259-0.039-0.24-0.063-0.22-0.087-0.197-0.112-0.172-0.134-0.146-0.15-0.12-0.166-0.094-0.178-0.068-0.179-0.048-0.183-0.03-0.182-0.013-0.181-0.001-0.175,0.009-0.174,0.02-0.169,0.026-0.162,0.029-0.154,0.035-0.147,0.038-0.138,0.1-3,0.038-0.115,0.036-0.102,0.034-0.088,0.029-0.072,0.021-0.053,0.015-0.035,0.009-0.018,0.776,0.358-0.002,0.004-0.011,0.024-0.019,0.043-0.022,0.057-0.027,0.073-0.03,0.085-0.031,0.096-0.032,0.104-0.03,0.114-0.029,0.117-0.026,0.125-0.02,0.125-0.013,0.125-0.009,0.123,0.001,0.122,0.01,0.113,0.017,0.108,0.024,0.096,0.035,0.088,0.04,0.077,0.05,0.069,0.06,0.063,0.075,0.057,0.093,0.052,0.115,0.047,0.144,0.039,0.176,0.025,0.206,0.012,0.242-0.008,0.273-0.026,0.309-0.052,0.3,2zm13-7l0.636,0.572-0.396,0.428-0.399,0.41-0.406,0.396-0.411,0.381-0.414,0.365-0.419,0.354-0.424,0.337-0.426,0.324-0.43,0.312-0.43,0.298-0.435,0.284-0.436,0.272-0.438,0.262-0.437,0.247-0.439,0.238-0.438,0.226-0.439,0.216-0.437,0.206-0.437,0.195-0.436,0.186-0.433,0.176-0.433,0.168-0.427,0.158-0.427,0.15-0.422,0.144-0.421,0.135-0.414,0.128-0.411,0.12-0.405,0.112-0.399,0.109-0.396,0.102-0.389,0.096-0.201-0.83,0.382-0.096,0.386-0.099,0.393-0.104,0.396-0.113,0.4-0.117,0.404-0.125,0.407-0.131,0.411-0.137,0.413-0.147,0.418-0.155,0.418-0.161,0.421-0.171,0.421-0.18,0.423-0.189,0.424-0.199,0.423-0.208,0.425-0.22,0.422-0.228,0.423-0.241,0.421-0.251,0.419-0.263,0.417-0.274,0.417-0.288,0.413-0.297,0.409-0.313,0.406-0.326,0.403-0.337,0.4-0.353,0.395-0.367,0.389-0.381,0.387-0.396zm5.9-8l0.763,0.381-0.085,0.172-0.086,0.173-0.088,0.174-0.091,0.176-0.093,0.177-0.096,0.182-0.1,0.186-0.104,0.188-0.108,0.193-0.115,0.197-0.119,0.203-0.127,0.208-0.133,0.214-0.143,0.221-0.147,0.228-0.159,0.235-0.168,0.242-0.177,0.251-0.188,0.262-0.198,0.27-0.212,0.279-0.222,0.29-0.236,0.299-0.249,0.313-0.262,0.324-0.279,0.335-0.292,0.351-0.308,0.361-0.324,0.375-0.341,0.393-0.358,0.405-0.377,0.421-0.636-0.572,0.373-0.418,0.355-0.402,0.338-0.385,0.32-0.372,0.305-0.358,0.289-0.344,0.271-0.332,0.259-0.316,0.245-0.307,0.229-0.295,0.219-0.283,0.205-0.273,0.195-0.262,0.182-0.252,0.173-0.244,0.162-0.236,0.151-0.225,0.146-0.221,0.136-0.211,0.129-0.207,0.12-0.199,0.116-0.195,0.108-0.188,0.105-0.186,0.1-0.182,0.097-0.178,0.092-0.176,0.09-0.174,0.088-0.172,0.087-0.172,0.086-0.169-0.1,1zm1.4-3l0.398-0.756,0.206,0.512,0.001,0.003-0.006,0.013-0.005,0.017-0.007,0.019-0.01,0.025-0.011,0.031-0.013,0.037-0.017,0.043-0.018,0.047-0.021,0.053-0.022,0.058-0.025,0.063-0.026,0.068-0.029,0.073-0.033,0.079-0.035,0.084-0.038,0.09-0.04,0.096-0.044,0.1-0.045,0.106-0.049,0.11-0.053,0.117-0.054,0.121-0.059,0.127-0.061,0.133-0.065,0.139-0.066,0.143-0.071,0.148-0.073,0.153-0.078,0.159-0.08,0.165-0.086,0.169-0.763-0.381,0.082-0.166,0.08-0.162,0.074-0.155,0.073-0.15,0.068-0.146,0.067-0.14,0.062-0.134,0.061-0.13,0.055-0.124,0.055-0.117,0.05-0.113,0.048-0.108,0.045-0.103,0.041-0.097,0.04-0.092,0.035-0.087,0.034-0.08,0.029-0.076,0.029-0.07,0.026-0.064,0.022-0.061,0.022-0.055,0.018-0.049,0.017-0.043,0.014-0.037,0.013-0.033,0.011-0.027,0.007-0.022,0.007-0.019,0.004-0.01v-0.004l0.002-0.002h0.3zm0.4,0l0.32,0.169-0.114,0.343h-0.2zm-12.4-11l0.666-0.531,0.618,0.761,0.608,0.729,0.599,0.699,0.587,0.665,0.575,0.636,0.564,0.605,0.549,0.576,0.538,0.547,0.522,0.519,0.507,0.489,0.493,0.463,0.475,0.436,0.459,0.408,0.44,0.383,0.424,0.358,0.403,0.333,0.384,0.309,0.365,0.283,0.342,0.262,0.323,0.238,0.299,0.215,0.275,0.194,0.254,0.173,0.228,0.153,0.205,0.132,0.178,0.111,0.151,0.095,0.125,0.074,0.098,0.058,0.069,0.038,0.042,0.023,0.008,0.005-0.398,0.756-0.021-0.012-0.048-0.025-0.077-0.045-0.106-0.062-0.133-0.081-0.161-0.098-0.188-0.119-0.211-0.138-0.238-0.157-0.261-0.179-0.286-0.2-0.309-0.223-0.329-0.245-0.353-0.268-0.372-0.291-0.394-0.315-0.413-0.34-0.431-0.363-0.45-0.391-0.466-0.418-0.485-0.442-0.499-0.47-0.517-0.499-0.53-0.525-0.544-0.554-0.56-0.586-0.57-0.613-0.583-0.645-0.596-0.676-0.605-0.706-0.615-0.739-0.7-1zm-16.5-32l0.827-0.215,0.415,1.56,0.419,1.51,0.425,1.45,0.431,1.4,0.436,1.35,0.44,1.3,0.447,1.26,0.454,1.21,0.457,1.17,0.464,1.13,0.472,1.09,0.477,1.06,0.483,1.02,0.488,0.991,0.496,0.963,0.502,0.937,0.509,0.909,0.516,0.887,0.522,0.867,0.529,0.846,0.536,0.83,0.544,0.814,0.551,0.803,0.558,0.792,0.565,0.782,0.574,0.775,0.58,0.773,0.589,0.768,0.598,0.77,0.604,0.77,0.614,0.772,0.621,0.78-0.666,0.531-0.624-0.779-0.614-0.776-0.608-0.772-0.601-0.772-0.593-0.774-0.587-0.776-0.577-0.783-0.572-0.792-0.564-0.799-0.558-0.812-0.55-0.825-0.543-0.84-0.536-0.859-0.529-0.877-0.522-0.9-0.516-0.922-0.509-0.947-0.502-0.977-0.496-1-0.489-1.04-0.483-1.07-0.475-1.1-0.471-1.14-0.465-1.18-0.456-1.22-0.451-1.27-0.447-1.31-0.438-1.36-0.434-1.41-0.429-1.46-0.422-1.52-0.3-3zm-0.9-36.2l0.841,0.164-0.157,0.8-0.156,0.81-0.155,0.821-0.152,0.833-0.147,0.844-0.144,0.856v0.9l-0.131,0.887-0.121,0.903-0.111,0.922-0.102,0.939-0.088,0.959-0.076,0.98-0.062,1-0.047,1.02-0.03,1.05-0.012,1.07,0.006,1.1,0.027,1.12,0.048,1.15,0.07,1.18,0.095,1.21,0.117,1.24,0.145,1.27,0.2,3,0.199,1.34,0.229,1.38,0.259,1.41,0.291,1.45,0.323,1.49,0.357,1.53,0.394,1.57-0.827,0.215-0.396-1.58-0.36-1.54-0.327-1.5-0.294-1.46-0.263-1.43-0.229-1.39-0.202-1.36-0.174-1.32-0.146-1.29-0.12-1.26-0.094-1.23-0.071-1.2-0.048-1.17-0.027-1.14-0.006-1.11,0.012-1.09,0.03-1.06,0.047-1.04,0.062-1.02,0.077-0.993,0.091-0.972,0.102-0.953,0.114-0.932,0.121-0.914,0.131-0.897,0.139-0.879,0.145-0.866,0.15-0.851,0.152-0.836,0.155-0.824,0.156-0.813,0.1-1.3zm12.7-27.8l0.706,0.482-0.349,0.518-0.368,0.565-0.387,0.61-0.403,0.654-0.419,0.693-0.431,0.73-0.442,0.765-0.452,0.797-0.46,0.827-0.5,0.8-0.471,0.878-0.473,0.902-0.475,0.92-0.475,0.937-0.472,0.951-0.467,0.963-0.462,0.972-0.453,0.979-0.445,0.983-0.434,0.983-0.421,0.984-0.405,0.979-0.392,0.974-0.373,0.965-0.354,0.955-0.332,0.939-0.31,0.923-0.286,0.903-0.258,0.882-0.231,0.857-0.201,0.829-0.169,0.8-0.841-0.164,0.177-0.824,0.207-0.853,0.235-0.877,0.265-0.899,0.289-0.919,0.313-0.937,0.338-0.953,0.357-0.964,0.377-0.975,0.394-0.983,0.412-0.99,0.425-0.991,0.438-0.993,0.447-0.99,0.458-0.986,0.464-0.979,0.471-0.97,0.475-0.958,0.476-0.943,0.478-0.926,0.477-0.905,0.474-0.885,0.47-0.86,0.463-0.833,0.456-0.804,0.446-0.772,0.437-0.737,0.422-0.7,0.408-0.661,0.393-0.619,0.375-0.575,0.4-0.5zm8.5-9l0.559-0.646,0.006,0.643-0.06,0.051-0.081,0.072-0.102,0.094-0.123,0.112-0.143,0.131-0.162,0.15-0.179,0.17-0.196,0.186-0.212,0.203-0.227,0.22-0.241,0.236-0.254,0.252-0.267,0.267-0.277,0.282-0.287,0.294-0.298,0.31-0.306,0.323-0.314,0.336-0.318,0.347-0.326,0.36-0.332,0.37-0.333,0.381-0.338,0.393-0.339,0.401-0.339,0.411-0.342,0.42-0.339,0.426-0.337,0.436-0.335,0.443-0.331,0.449-0.327,0.456-0.321,0.461-0.706-0.482,0.328-0.471,0.333-0.465,0.338-0.459,0.342-0.45,0.344-0.443,0.346-0.437,0.345-0.426,0.347-0.417,0.345-0.408,0.342-0.396,0.34-0.388,0.334-0.377,0.33-0.364,0.325-0.353,0.317-0.34,0.31-0.326,0.301-0.313,0.294-0.301,0.281-0.285,0.27-0.271,0.258-0.255,0.244-0.24,0.23-0.223,0.215-0.207,0.199-0.189,0.182-0.17,0.163-0.153,0.146-0.134,0.126-0.116,0.105-0.094,0.084-0.076,0.06-0.055,0.1,0.8zm0.6-0.6l0.37,0.319-0.364,0.324v-0.6zm-8.2-7.6l0.689-0.502h0.002l0.197,0.271,0.201,0.271,0.204,0.269,0.206,0.27,0.209,0.269,0.212,0.267,0.214,0.267,0.214,0.265,0.219,0.265,0.221,0.262,0.224,0.263,0.226,0.262,0.228,0.259,0.229,0.259,0.231,0.256,0.234,0.257,0.236,0.255,0.237,0.252,0.241,0.252,0.6-0.5,0.245,0.25,0.246,0.247,0.248,0.247,0.251,0.245,0.252,0.242,0.255,0.242,0.257,0.24,0.257,0.238,0.261,0.235,0.261,0.234,0.264,0.232,0.266,0.23-0.559,0.646-0.27-0.234-0.268-0.236-0.268-0.238-0.264-0.241-0.264-0.241-0.26-0.243-0.258-0.245-0.259-0.248-0.254-0.249-0.252-0.25-0.253-0.253-0.248-0.253-0.246-0.254-0.244-0.256-0.243-0.259-0.24-0.259-0.238-0.26-0.235-0.263-0.234-0.263-0.231-0.266-0.229-0.265-0.227-0.266-0.225-0.269-0.222-0.268-0.222-0.271-0.217-0.271-0.215-0.273-0.212-0.272-0.21-0.273-0.207-0.275-0.205-0.275-0.204-0.277h-0.316zm0.7-0.5h0.002l0.646,0.889-0.6-0.9zm-0.8,0.4l0.69-0.502,0.044,0.06-0.689,0.502v-0.1zl-0.219-0.3,0.2,0.3zm-0.3-0.5l0.7-0.489v-0.002l0.009,0.016,0.011,0.015,0.011,0.015,0.011,0.015,0.011,0.014,0.011,0.015,0.011,0.015,0.011,0.017,0.011,0.014,0.011,0.015,0.011,0.015,0.011,0.015,0.011,0.015,0.01,0.014,0.012,0.017,0.011,0.015,0.01,0.014,0.011,0.015,0.011,0.015,0.011,0.015,0.013,0.015,0.009,0.015,0.011,0.015,0.012,0.015,0.011,0.015,0.011,0.015,0.011,0.015,0.011,0.015,0.011,0.015,0.012,0.015,0.011,0.015,0.011,0.014-0.692,0.502-0.012-0.017-0.011-0.015-0.011-0.015-0.011-0.015-0.011-0.015-0.011-0.015-0.012-0.015-0.011-0.015-0.011-0.015-0.011-0.015-0.013-0.015-0.009-0.015-0.011-0.015-0.012-0.015-0.011-0.015-0.013-0.017-0.011-0.015-0.009-0.014-0.013-0.017-0.011-0.016,0.1,0.2-0.011-0.015-0.011-0.015-0.011-0.017-0.011-0.014-0.011-0.015-0.011-0.015-0.011-0.017-0.011-0.015-0.011-0.016-0.011-0.015-0.013-0.015v-0.17zv0.03l0.187,0.265-0.2-0.3zm-0.1-0.1l0.701-0.487,0.124,0.177-0.7,0.489-0.124-0.177zl-0.001-0.002-0.401-0.573,0.4,0.6zm0-0.1l0.701-0.487,0.004,0.005-0.703,0.485-0.004-0.005zl0.002,0.001,0.111,0.161-0.1-0.2zm-0.4-0.5l0.707-0.479,0.011,0.016,0.011,0.016,0.011,0.016,0.011,0.016,0.011,0.016,0.011,0.014,0.011,0.016,0.011,0.018,0.011,0.016,0.011,0.014,0.011,0.016,0.011,0.016,0.012,0.016,0.009,0.014,0.011,0.016,0.013,0.018,0.011,0.016,0.01,0.014,0.011,0.016,0.011,0.016,0.011,0.016,0.011,0.016,0.013,0.018,0.01,0.014,0.011,0.016,0.011,0.016,0.012,0.016,0.011,0.016,0.011,0.016,0.01,0.014,0.011,0.016,0.011,0.016-0.699,0.488-0.012-0.016-0.011-0.016-0.013-0.017-0.011-0.016-0.011-0.016-0.012-0.016-0.011-0.016-0.011-0.016-0.013-0.018-0.009-0.014-0.012-0.016-0.011-0.016-0.011-0.016-0.011-0.016-0.013-0.017-0.011-0.016-0.01-0.014-0.011-0.016-0.013-0.017-0.011-0.016-0.011-0.016-0.011-0.016-0.011-0.018-0.011-0.016-0.011-0.014-0.011-0.016-0.012-0.018-0.011-0.016-0.011-0.016-0.011-0.016-0.011-0.016zm0.7-0.4zm-0.7,0.4l0.708-0.479,0.023,0.033-0.707,0.479-0.022-0.033h-0.016zh-0.002l-0.415-0.615,0.4,0.6zm-1.2-3l-0.605-0.603,0.676,0.094,0.054,0.094,0.053,0.096,0.054,0.094,0.055,0.094,0.054,0.096,0.055,0.094,0.056,0.094,0.055,0.095,0.056,0.094,0.057,0.096,0.056,0.094,0.057,0.095,0.058,0.094,0.056,0.094,0.059,0.095,0.059,0.093,0.057,0.096,0.06,0.093,0.058,0.093,0.061,0.095,0.06,0.093,0.059,0.095,0.062,0.093,0.061,0.095,0.06,0.093,0.062,0.095,0.061,0.093,0.063,0.093,0.063,0.095,0.062,0.093,0.063,0.095,0.063,0.093-0.71,0.479-0.063-0.096-0.063-0.094-0.064-0.097-0.063-0.094-0.063-0.096-0.063-0.097-0.062-0.095-0.063-0.097-0.061-0.095-0.062-0.097-0.062-0.095-0.061-0.097-0.06-0.095-0.062-0.097-0.059-0.097-0.061-0.095-0.059-0.097-0.059-0.095-0.06-0.097-0.058-0.097-0.057-0.095-0.059-0.097-0.057-0.096-0.057-0.097-0.058-0.095-0.055-0.098-0.056-0.097-0.057-0.096-0.055-0.098-0.054-0.097-0.056-0.096-0.054-0.097h0.6zm-0.6-0.6l0.4-0.401,0.275,0.495-0.7-0.1z" fill="url(#colour2)"/>
	<path d="M78.5,36.2c-0.833,0.834-3.34,3.41-4.97,5.78-1.97,2.88-7.27,9.2-10.9,15.4-15.4,26.2-15.3,70.1,2.53,95.1,6.08,8.54,5.65,6.99,7.47,10.9,1.82,3.95,2.43,5.47,2.58,7.59,0.406,5.68-3.76,1.98-6.22,3.34-4.99,2.75,1.5,7.54,5.12,6.31,0,0-1.67,3.61,2.4,2.62,4.08-0.99,9.18-2.85,13.3-7.41,4.1-4.56,5.01-6.38,5.92-8.2,0.911-1.82,1.22-2.73,1.22-2.73s-5.16-2.73-11.8-11.1c-6.68-8.35-12-15.5-16.4-32.5s-2.58-27-0.911-35.5,8.96-22.3,12.6-27.6c3.43-5,7.94-9.07,8.45-9.52-2.86-2.47-5.43-5.27-7.55-8.19l-0.044-0.06c-0.116-0.162-0.231-0.323-0.347-0.485l-0.123-0.177-0.004-0.005c-0.118-0.169-0.233-0.338-0.349-0.508l-0.022-0.033c-0.8-1.6-1.5-2.7-2-3.7z" fill="url(#colour1)"/>
	<path d="M89.4,20.2l0.638,0.034,1.67,2.08-0.666,0.532-1.67-2.08,0.1-0.5zl0.337-0.342,0.301,0.375-0.6-0.1zm-15,15.8l0.008-0.591,15-15.2,0.609,0.599-15,15.3-0.6-0.1zl-0.279-0.299,0.287-0.292v0.6zm3.5,3.1l-0.637,0.014-2.85-3.06,0.625-0.583,2.85,3.06,0.1,0.6zl-0.311,0.364-0.326-0.351h0.6zm13.8-16.7l-0.009,0.544-13.8,16.2-0.648-0.556,13.8-16.2,0.6,0.1zl0.221,0.276-0.229,0.268v-0.6z" fill="url(#colour2)"/>
	<polygon points="91.4,22.6,89.7,20.5,74.7,35.8,77.6,38.8" fill="url(#colour1)"/>
		<path d="M123,42.7l-0.321-0.79,0.825-0.336,0.863-0.343,0.898-0.345,0.929-0.343,0.954-0.337,0.976-0.322,0.993-0.307,1.01-0.284,1.02-0.257,1.02-0.225,1.03-0.186,1.03-0.146,1.02-0.097,1.02-0.042,1,0.014,0.989,0.078,0.968,0.148,0.943,0.224,0.917,0.305,0.883,0.39,0.843,0.482,0.802,0.58,0.75,0.68,0.696,0.783,0.635,0.893,0.574,1,0.505,1.12,0.436,1.24,0.361,1.36,0.283,1.49,0.203,1.62,0.12,1.76-0.854,0.033-0.116-1.72-0.197-1.57-0.273-1.43-0.345-1.3-0.411-1.17-0.475-1.05-0.53-0.931-0.586-0.819-0.635-0.716-0.681-0.617-0.725-0.523-0.767-0.438-0.805-0.356-0.84-0.278-0.874-0.207-0.904-0.138-0.928-0.075-0.954-0.014-0.969,0.042-0.983,0.093-0.991,0.139-0.996,0.183-0.998,0.218-0.995,0.25-0.986,0.278-0.977,0.3-0.959,0.319-0.94,0.33-0.916,0.339-0.888,0.342-0.857,0.339-1,0.2zm-31.1-20.2l-0.596-0.613,0.628,0.035,1.26,1.52,1.24,1.46,1.21,1.41,1.19,1.35,1.16,1.29,1.14,1.24,1.11,1.18,1.09,1.12,1.07,1.06,1.05,1.01,1.03,0.947,1.01,0.891,0.988,0.832,0.967,0.771,0.951,0.716,0.932,0.655,0.914,0.598,0.898,0.537,0.881,0.48,0.864,0.422,0.85,0.361,0.834,0.306,0.821,0.245,0.806,0.188,0.794,0.132,0.783,0.073,0.773,0.016,0.764-0.042,0.755-0.099,0.748-0.156,0.742-0.214,0.739-0.271,0.321,0.79-0.796,0.294-0.803,0.231-0.812,0.169-0.819,0.106-0.826,0.044-0.834-0.017-0.843-0.079-0.852-0.139-0.862-0.201-0.868-0.262-0.881-0.319-0.89-0.381-0.901-0.439-0.914-0.497-0.926-0.558-0.94-0.614-0.956-0.672-0.97-0.729-0.988-0.789-1-0.845-1.02-0.901-1.04-0.96-1.06-1.02-1.08-1.07-1.1-1.13-1.12-1.19-1.15-1.24-1.17-1.3-1.19-1.36-1.22-1.41-1.24-1.47-1.27-1.53,0.4,0.2zm-0.6-0.6l0.332-0.323,0.296,0.358-0.6-0.1zm-12.9,13.3l-0.757,0.398,0.08-0.505,0.424-0.412,0.424-0.412,0.424-0.412,0.424-0.413,0.423-0.412,0.424-0.412,0.424-0.412,0.424-0.412,0.423-0.412,0.424-0.413,0.424-0.412,0.424-0.412,0.423-0.412,0.424-0.413,0.424-0.412,0.424-0.412,0.423-0.412,0.424-0.412,0.424-0.413,0.424-0.412,0.423-0.412,0.424-0.413,0.424-0.412,0.424-0.412,0.423-0.412,0.424-0.412,0.424-0.413,0.423-0.412,0.424-0.412,0.424-0.412,0.424-0.413,0.423-0.412,0.596,0.613-0.423,0.412-0.424,0.412-0.424,0.413-0.424,0.412-0.423,0.412-0.424,0.412-0.424,0.412-0.423,0.412-0.424,0.413-0.424,0.412-0.424,0.412-0.423,0.413-0.424,0.412-0.424,0.412-0.424,0.412-0.423,0.412-0.424,0.413-0.424,0.412-0.424,0.412-0.423,0.412-0.424,0.413-0.424,0.412-0.2,0.3-0.423,0.412-0.424,0.412-0.424,0.412-0.424,0.413-0.424,0.412-0.423,0.412-0.424,0.412-0.424,0.413-0.424,0.412-0.1-0.4zm-0.8,0.4l-0.148-0.282,0.229-0.223-0.1,0.5zm38.4,21.2l0.214,0.827-1.44,0.323-1.44,0.227-1.45,0.131-1.45,0.041-1.45-0.045-1.44-0.129-1.44-0.211-1.43-0.289-1.42-0.363-1.41-0.435-1.4-0.502-1.38-0.567-1.36-0.628-1.34-0.688-1.32-0.743-1.3-0.796-1.28-0.845-1.25-0.891-7.2-0.9-1.19-0.974-1.16-1.01-1.12-1.05-1.09-1.08-1.05-1.1-1.01-1.13-0.965-1.15-0.921-1.17-0.875-1.19-0.827-1.2-0.775-1.21-0.726-1.22-0.67-1.22,0.757-0.398,0.656,1.2,0.708,1.19,0.763,1.19,0.811,1.18,0.857,1.16,0.904,1.15,0.948,1.13,0.99,1.11,1.03,1.09,1.07,1.06,1.1,1.03,1.14,0.995,1.17,0.958,1.2,0.917,1.23,0.874,1.25,0.828,1.27,0.779,1.29,0.727,1.31,0.671,1.33,0.615,1.35,0.554,1.36,0.489,1.37,0.421,1.38,0.353,1.39,0.279,1.4,0.204,1.4,0.126,1.4,0.045,1.4-0.041,1.4-0.128,1.39-0.216,5-0.6zm19-8l-0.509,0.686-0.039-0.019-0.091-0.015-0.159,0.002-0.217,0.037-0.266,0.07-0.309,0.107-0.351,0.142-0.385,0.174-0.421,0.202-0.453,0.229-0.483,0.253-0.513,0.277-0.542,0.298-0.57,0.315-0.597,0.33-0.62,0.343-0.646,0.353-0.668,0.363-0.693,0.369-0.714,0.374-0.733,0.375-0.755,0.375-0.773,0.373-0.793,0.368-0.808,0.359-0.826,0.352-0.842,0.34-0.855,0.326-0.87,0.31-0.883,0.292-0.896,0.27-0.905,0.249-0.214-0.827,0.885-0.242,0.873-0.266,0.863-0.285,0.853-0.303,0.839-0.319,0.826-0.333,0.812-0.345,0.798-0.356,0.779-0.362,0.764-0.366,0.745-0.371,0.727-0.372,0.708-0.37,0.686-0.366,0.665-0.36,0.643-0.354,0.621-0.343,0.596-0.33,0.57-0.314,0.546-0.298,0.52-0.28,0.493-0.26,0.466-0.236,0.438-0.212,0.412-0.184,0.383-0.155,0.359-0.124,0.336-0.091,0.316-0.05,0.304-0.006,0.299,0.059,1,0.1zm0,0.6zm1,1.4l-0.215,0.827-0.311-0.5-0.001,0.003v-0.006l0.004-0.016,0.005-0.024,0.003-0.027,0.006-0.034,0.004-0.04,0.005-0.045,0.004-0.049,0.004-0.054,0.003-0.058,0.002-0.062,0.001-0.066-0.002-0.065-0.003-0.068-0.007-0.071-0.007-0.071-0.01-0.072-0.012-0.072-0.015-0.071-0.017-0.071-0.021-0.07-0.024-0.068-0.026-0.067-0.03-0.065-0.033-0.061-0.037-0.061-0.04-0.058-0.044-0.054-0.049-0.052-0.053-0.05-0.058-0.046,0.509-0.686,0.107,0.086,0.097,0.09,0.089,0.096,0.081,0.1,0.073,0.102,0.063,0.104,0.058,0.107,0.05,0.106,0.044,0.107,0.037,0.108,0.031,0.106,0.026,0.105,0.022,0.104,0.018,0.102,0.014,0.1,0.01,0.098,0.007,0.094,0.003,0.092,0.002,0.089-0.001,0.082-0.002,0.079-0.003,0.075-0.004,0.07-0.007,0.065-0.006,0.059-0.007,0.053-0.006,0.047-0.007,0.04-0.004,0.03-0.004,0.023-0.004,0.019-0.003,0.011-1-0.1zm0,0.8l-0.395-0.102,0.084-0.398v0.5zm11,1l0.854-0.033-0.402,0.443-0.368,0.021-0.366,0.017-0.362,0.012-0.36,0.008-0.357,0.004h-0.354l-0.353-0.004-0.352-0.008-0.351-0.013-0.35-0.016-0.349-0.021-0.349-0.024-0.349-0.03-0.349-0.033-0.35-0.037-0.352-0.041-0.353-0.046-0.353-0.049-0.355-0.055-0.359-0.057-0.36-0.061-0.362-0.067-0.367-0.069-0.371-0.075-0.375-0.077-0.377-0.081-0.384-0.087-0.39-0.089-0.395-0.095-0.398-0.097-0.405-0.101-0.413-0.107,0.215-0.827,0.406,0.103,0.401,0.101,0.396,0.097,0.388,0.092,0.383,0.089,0.377,0.083,0.374,0.081,0.367,0.077,0.362,0.072,0.36,0.069,0.355,0.063,0.354,0.061,0.349,0.058,0.347,0.051,0.346,0.049,0.343,0.043,0.341,0.041,0.34,0.037,0.339,0.033,0.339,0.027,0.338,0.025,0.339,0.021,0.339,0.016,0.341,0.013,0.342,0.008,0.343,0.004h0.347l0.348-0.004,0.35-0.008,0.353-0.012,0.356-0.017,0.361-0.021-1,0.4zm1,0l0.017,0.417-0.419,0.026v-0.4z" fill="url(#colour2)"/>
	<path d="M147,52.6c-0.804-19.3-16.3-13.7-24.9-10.2-8.15,3.33-17.2-3.6-30.9-20.2-4.52,4.4-9.04,8.79-13.6,13.2,6.78,12.9,23.1,25.7,38.1,21.8,9.6-2.49,17.6-9.23,19-8.12,0.913,0.68,0.611,2.12,0.611,2.12,4,1.2,7,1.6,11,1.4z" fill="url(#colour1)"/>
	<path d="M132,54.4l-0.847,0.127,0.065-0.298,0.576-0.796,0.624-0.715,0.67-0.639,0.707-0.559,0.741-0.484,0.77-0.409,0.794-0.334,0.811-0.265,0.826-0.195,0.833-0.127,0.835-0.061,0.834,0.002,0.828,0.063,0.817,0.125,0.804,0.183,0.783,0.241,0.757,0.295,0.729,0.348,0.694,0.401,0.656,0.453,0.612,0.502,0.564,0.548,0.512,0.596,0.45,0.642,0.387,0.684,0.318,0.725,0.241,0.764,0.163,0.802-4,0.9-0.013,0.862-0.107,0.892-0.208,0.917-0.823-0.228,0.188-0.834,0.098-0.805,0.013-0.775-0.068-0.742-0.143-0.708-0.216-0.677-0.281-0.645-0.346-0.609-0.404-0.572-0.458-0.536-0.51-0.498-0.557-0.455-0.599-0.412-0.638-0.368-0.67-0.321-0.699-0.272-0.723-0.221-0.74-0.169-0.757-0.115-0.766-0.06-0.771-0.002-0.771,0.057-0.767,0.117-0.755,0.178-0.744,0.241-0.724,0.308-0.703,0.372-0.677,0.44-0.647,0.512-0.609,0.582-0.574,0.658-0.528,0.732,5-0.3zm0,0.1l-0.024-0.161,0.09-0.137v0.3zm1,4.1l-0.214,0.827-0.316-0.35-0.021-0.141-0.022-0.142-0.021-0.144-0.022-0.142-0.021-0.141-0.022-0.142-0.021-0.144-0.021-0.142-0.022-0.142-0.021-0.141-0.021-0.142-0.022-0.144-0.021-0.143-0.022-0.142-0.021-0.143-0.021-0.14-0.022-0.142-0.021-0.144-0.022-0.142-0.021-0.142-0.021-0.14-0.022-0.142-0.021-0.144-0.021-0.142-0.022-0.142-0.021-0.141-0.022-0.142-0.021-0.144-0.021-0.142-0.022-0.141-0.021-0.142-0.022-0.144,0.847-0.127,0.022,0.141,0.021,0.142,0.022,0.144,0.021,0.142,0.021,0.141,0.022,0.142,0.021,0.144,0.022,0.142,0.021,0.143,0.021,0.14,0.022,0.142,0.021,0.144,0.022,0.142,0.021,0.142,0.021,0.14,0.022,0.142,0.021,0.144,0.022,0.142,0.021,0.142,0.021,0.142,0.022,0.141,0.021,0.142,0.021,0.144,0.022,0.142,0.021,0.142,0.022,0.141,0.021,0.142,0.021,0.144,0.022,0.142,0.021,0.141,0.022,0.142,0.021,0.144-1-0.3zm0,0.8l-0.273-0.071-0.043-0.278v0.4zm11,2.1l0.244,0.82-0.229,0.004-0.355-0.093-0.355-0.093-0.354-0.093-0.355-0.093-0.355-0.093-0.355-0.093-0.355-0.093-0.354-0.093-0.355-0.093-0.355-0.093-0.355-0.093-0.354-0.093-0.355-0.093-0.355-0.093-0.355-0.093-0.355-0.093-0.354-0.093-0.355-0.093-0.355-0.093-0.355-0.093-0.355-0.093-0.354-0.093-0.355-0.093-0.355-0.093-0.355-0.093-0.355-0.093-0.354-0.093-0.355-0.093-0.355-0.093-0.355-0.093-0.355-0.093-0.354-0.093,0.214-0.827,0.355,0.093,0.355,0.093,0.354,0.093,0.355,0.093,0.355,0.093,0.355,0.093,0.355,0.093,0.354,0.093,0.355,0.093,0.355,0.093,0.355,0.093,0.355,0.093,0.354,0.093,0.355,0.093,0.355,0.093,0.355,0.093,0.355,0.093,0.354,0.093,0.355,0.093,0.355,0.093,0.355,0.093,0.355,0.093,0.354,0.093,0.355,0.093,0.355,0.093,0.355,0.093,0.355,0.093,0.354,0.093,0.355,0.093,0.355,0.093,0.355,0.093,0.354,0.093zm0,0.9l-0.113,0.034-0.116-0.03zm5-2.1l0.823,0.228-0.289,0.296-0.164,0.049-0.164,0.049-0.164,0.049-0.164,0.049-0.164,0.049-0.164,0.049-0.163,0.049-0.164,0.049-0.164,0.049-0.164,0.049-0.164,0.049-0.164,0.049-0.164,0.049-0.164,0.049-0.164,0.049-0.164,0.049-0.164,0.049-0.163,0.049-0.164,0.049-0.164,0.049-0.164,0.049-0.164,0.049-0.164,0.049-0.164,0.049-0.164,0.049-0.164,0.049-0.164,0.049-0.163,0.049-0.164,0.049-0.164,0.049-6,1.5-0.164,0.049-0.244-0.82,0.164-0.049,0.163-0.049,0.164-0.049,0.164-0.049,0.164-0.049,0.164-0.049,0.164-0.049,0.164-0.049,0.164-0.049,0.164-0.049,0.164-0.049,0.163-0.049,0.164-0.049,0.164-0.049,0.164-0.049,0.164-0.049,0.164-0.049,0.164-0.049,0.164-0.049,0.164-0.049,0.164-0.049,0.164-0.049,0.163-0.049,0.164-0.049,0.164-0.05,0.164-0.049,0.164-0.049,0.164-0.049,0.164-0.049,0.164-0.049,0.164-0.049,0.164-0.049,5-1.1zm1,0.2l-0.063,0.229-0.227,0.068v-0.3z" fill="url(#colour2)"/>
	<path d="M149,60.4c2.63-9.48-11.7-14.5-17.3-5.95,0.233,1.52,0.467,3.03,0.7,4.55,3.79,0.991,7.58,1.98,11.4,2.97,2-0.6,4-1.1,5-1.6z" fill="url(#colour1)"/>
	<path d="M133,53.3l0.017,0.455-53.3,92.3-0.739-0.428,53.3-92.3,1-0.4zm-1,0.1l0.34-0.588,0.384,0.562zm3,4.2l-0.74,0.061-2.62-3.85,0.707-0.482,2.62,3.85v0.4zm0-0.4l0.138,0.201-0.104,0.221v-0.4zm-47.3,101l-0.071-0.47,46.9-100,0.773,0.361-46.6,99.6h-0.7zm0.7,0l-0.271,0.577-0.431-0.469,0.7-1zm-3.7-4l0.666-0.531,0.099,0.12,0.098,0.122,0.097,0.119,0.098,0.121,0.098,0.117,0.096,0.119,0.097,0.118,0.097,0.115,0.095,0.116,0.097,0.113,0.096,0.115,0.095,0.114,0.095,0.111,0.094,0.112,0.096,0.109,0.095,0.111v3l0.095,0.109,0.094,0.108,0.092,0.105,0.094,0.107,0.093,0.104,0.092,0.105,0.093,0.105,0.092,0.102,0.091,0.104,0.092,0.1,0.09,0.102,0.091,0.1,0.091,0.1,0.089,0.1,0.091,0.098-0.63,0.578-0.09-0.1-0.093-0.1-0.091-0.1-0.091-0.103-0.094-0.102-0.092-0.104-0.094-0.103-0.092-0.105-0.093-0.104-0.095-0.105-0.093-0.107-0.094-0.107-0.096-0.109-0.094-0.108-0.095-0.108-0.096-0.112-0.095-0.11-0.095-0.113-0.098-0.113-0.096-0.114-0.097-0.114-0.097-0.114-0.096-0.117-0.099-0.116-0.097-0.119-0.098-0.117-0.099-0.119-0.098-0.121-0.098-0.121-0.1-0.123-0.098-0.121-0.1-3zm-6.1-8l0.739,0.428-0.015-0.451,0.175,0.26,0.177,0.259,0.177,0.257,0.179,0.256,0.178,0.256,0.178,0.256,0.182,0.252,0.18,0.252,0.183,0.251,0.182,0.252,0.184,0.249,0.184,0.25,0.186,0.249,0.185,0.248,0.187,0.247,0.187,0.248,0.188,0.247,0.189,0.247,0.188,0.246,0.191,0.248,0.191,0.246,0.191,0.246,0.193,0.248,0.194,0.246,0.194,0.248,0.194,0.248,0.196,0.248,0.198,0.247,0.198,0.249,0.198,0.25,0.2,0.25,0.199,0.252-0.666,0.531-0.202-0.251-0.2-0.25-0.199-0.25-0.198-0.249-0.197-0.25-0.197-0.249-0.197-0.248-0.194-0.247-0.194-0.25-0.193-0.248-0.194-0.246-0.192-0.25-0.19-0.247-0.192-0.249-0.189-0.248-0.188-0.25-0.189-0.248-0.187-0.25-0.188-0.252-0.186-0.25-0.187-0.252-0.184-0.252-0.186-0.252-0.182-0.255-0.184-0.255-0.182-0.257-0.182-0.255-0.181-0.259-0.179-0.259-0.18-0.262-0.178-0.262-0.178-0.264v-1zm0.1,0l-0.148-0.221,0.134-0.23z" fill="url(#colour2)"/>
	<path d="M79,146l53.3-92.3,2.62,3.85-46.9,99.4c-0.962-1.05-1.98-2.22-3.03-3.54-2.2-2-4.2-4-6.1-7z" fill="url(#colour1)"/>
		<path d="M133,57.4l0.764,0.381-0.199,0.41-0.447,0.921-0.675,1.4-0.887,1.83-1.08,2.24-1.26,2.61-1.42,2.95-1.57,3.26-1.7,3.53-1.82,3.76-1.92,3.97-2,4.14-2.06,4.28-2.11,4.38-2.15,4.45-2.16,4.48-2.16,4.49-2.15,4.46-2.12,4.39-2.07,4.29-2.01,4.16-1.93,3.99-1.83,3.79-1.72,3.56-1.59,3.29-1.44,2.99-1.28,2.66-1.1,2.29-0.911,1.89-0.701,1.45-0.475,0.984-0.232,0.482-0.771-0.371,0.233-0.482,0.475-0.984,0.701-1.45,0.911-1.89,1.1-2.29,1.28-2.66,1.44-2.99,1.59-3.29,1.72-3.56,1.83-3.79,1.93-3.99,2.01-4.16,2.07-4.29,2.12-4.39,2.15-4.46,2.16-4.49,2.16-4.48,2.15-4.45,2.11-4.38,2.06-4.28,2-4.14,1.92-3.97,1.82-3.76,1.7-3.53,1.57-3.26,1.42-2.95,1.26-2.61,1.08-2.24,0.887-1.83,0.676-1.4,0.446-0.921v-0.9zm6,2.2l-0.844-0.141,0.039-0.295,0.02-0.286-0.001-0.276-0.021-0.265-0.036-0.253-0.053-0.242-0.067-0.229-0.082-0.215-0.095-0.201-0.106-0.186-0.115-0.171-0.125-0.154-0.133-0.139-0.14-0.12-0.146-0.104-0.15-0.085-0.152-0.067-0.156-0.051-0.157-0.031-0.161-0.014-0.164,0.005-0.166,0.026-0.168,0.045-0.17,0.068-0.175,0.091-0.177,0.118-0.178,0.146-0.178,0.174-0.179,0.207-0.175,0.237-0.17,0.272-0.166,0.307-0.764-0.381,0.19-0.354,0.203-0.322,0.212-0.291,0.222-0.257,0.231-0.228,0.241-0.196,0.247-0.165,0.255-0.134,0.261-0.102,0.262-0.072,0.264-0.039,0.261-0.009,0.258,0.021,0.254,0.051,0.244,0.077,0.235,0.104,0.225,0.128,0.212,0.15,0.2,0.173,0.186,0.192,0.172,0.211,0.156,0.228,0.14,0.246,0.122,0.261,0.104,0.276,0.085,0.289,0.066,0.302,0.046,0.314,0.023,0.325,0.001,0.333-0.022,0.343,2,0.6zm-6,17.3l-0.786-0.332-0.014,0.037,0.014-0.044,0.041-0.128,0.066-0.207,0.089-0.281,0.109-0.349,0.131-0.412,0.148-0.47,0.165-0.523,0.181-0.571,0.193-0.611,0.204-0.65,0.214-0.682,0.222-0.708,0.229-0.729,0.232-0.746,0.235-0.755,0.235-0.763,0.235-0.763,0.232-0.757,0.229-0.749,0.221-0.733,0.216-0.711,0.205-0.687,0.194-0.654,0.182-0.618,0.165-0.577,0.151-0.53,0.131-0.477,0.112-0.418,0.09-0.354,0.065-0.283,0.04-0.201,0.844,0.141-0.047,0.241-0.072,0.303-0.093,0.368-0.113,0.428-0.134,0.483-0.151,0.534-0.169,0.581-0.181,0.622-0.194,0.658-0.206,0.687-0.215,0.714-0.224,0.733-0.229,0.748-0.233,0.76-0.235,0.763-0.235,0.763-0.235,0.758-0.232,0.746-0.228,0.729-0.223,0.708-0.214,0.682-0.204,0.65-0.193,0.614-0.18,0.571-0.166,0.523-0.148,0.47-0.131,0.412-0.112,0.349-0.09,0.281-0.065,0.207-0.041,0.128-0.014,0.044v0.2zl-0.007,0.021-0.007,0.017zm-34.5,83.1l-0.765-0.377,34.9-82.9,0.786,0.332-34.9,82.9h-0.6zl-0.012,0.026-0.011,0.019zm-3.2,5l-0.131-0.563,2.53-4.47,0.743,0.422-2.53,4.47-0.6,1zm0.6-1l-0.229,0.404-0.384-0.264h0.6zm-10-9l0.771,0.371-0.059-0.461,0.382,0.445,0.375,0.436,0.373,0.42,0.367,0.41,0.363,0.396,0.356,0.383,0.354,0.374,0.347,0.36,0.342,0.35,0.336,0.336,0.331,0.326,0.322,0.314,0.317,0.304,0.313,0.291,0.305,0.282,0.299,0.27,0.291,0.26,0.283,0.248,0.278,0.24,0.269,0.229,0.264,0.218,0.254,0.209,0.246,0.199,0.239,0.188,0.229,0.18,0.221,0.17,0.215,0.16,0.204,0.151,0.194,0.144,0.188,0.133,0.177,0.125,0.167,0.117-0.481,0.703-0.174-0.12-0.184-0.128-0.19-0.138-0.202-0.146-0.211-0.155-0.217-0.166-0.229-0.174-0.236-0.184-0.242-0.193-0.253-0.203-0.261-0.213-0.267-0.224-0.275-0.232-0.281-0.243-0.291-0.255-0.297-0.264-0.303-0.276-0.311-0.285-0.316-0.298-0.323-0.308-0.33-0.32-0.335-0.33-0.342-0.343-0.346-0.353-0.353-0.367-0.356-0.377-0.364-0.391-0.366-0.402-0.373-0.413-0.377-0.427-0.382-0.439-0.386-0.452v-1zm0.1,1l-0.179-0.212,0.12-0.25h0.1z" stroke="#000" fill="url(#colour2)"/>
	<path d="M86.3,155c1.13-2.35,46.4-96.2,47.2-97.8,1.85-3.71,5.29-1.54,4.71,1.95-0.324,1.95-5.19,17.2-5.19,17.2l-34.9,82.9-2.53,4.47c-2.8,0-6.2-3-10.3-8z" fill="url(#colour1)"/>
		<path d="M60.1,87.8l-0.847-0.124,0.123-0.786,0.133-0.796,0.146-0.801,0.155-0.808,0.169-0.813,0.181-0.819,0.191-0.822,0.202-0.825,0.215-0.828,0.226-0.829,0.238-0.831,0.249-0.83,0.26-0.828,0.272-0.826,0.283-0.823,0.295-0.821,0.308-0.815,0.317-0.812,0.328-0.803,0.342-0.798,0.354-0.79,0.362-0.781,0.376-0.772,0.387-0.762,0.4-0.75,0.41-0.738,0.421-0.725,0.434-0.713,0.445-0.698,0.456-0.681,0.47-0.667,0.48-0.649,0.68,0.515-0.468,0.633-0.455,0.65-0.447,0.668-0.435,0.681-0.424,0.696-0.414,0.712-0.403,0.725-0.39,0.737-0.381,0.748-0.369,0.758-0.359,0.768-0.347,0.777-0.335,0.785-0.325,0.793-0.314,0.798-0.301,0.805-0.291,0.808-0.28,0.813-0.269,0.816-0.257,0.818-0.246,0.819-0.3,0.5-0.223,0.819-0.211,0.817-0.201,0.815-0.188,0.812-0.178,0.809-0.165,0.804-0.156,0.798-0.143,0.792-0.132,0.783-0.1,0.8zm0.5,33.2l-0.844,0.141-0.169-1.05-0.163-1.04-0.151-1.04-0.143-1.04-0.136-1.04-0.124-1.03-0.115-1.03-0.105-1.03-0.096-1.03-0.088-1.02-0.077-1.03-0.066-1.02-0.057-1.02-0.047-1.02-0.037-1.02-0.026-1.02-0.016-1.02-0.006-1.02,0.005-1.02,0.016-1.03,0.026-1.02,0.037-1.03,0.048-1.03,0.06-1.03,0.07-1.03,0.081-1.04,0.095-1.04,0.104-1.04,0.116-1.05,0.129-1.05,0.139-1.05,0.15-1.06,0.847,0.124-0.15,1.05-0.139,1.04-0.126,1.04-0.115,1.04-0.104,1.04-0.091,1.03-0.081,1.03-0.07,1.03-0.06,1.02-0.048,1.02-0.037,1.02-0.026,1.02-0.016,1.02-0.005,1.02,0.006,1.02,0.016,1.01,0.026,1.02,0.037,1.01,0.047,1.02,0.057,1.01,0.066,1.02,0.077,1.02,0.084,1.02,0.096,1.02,0.106,1.02,0.114,1.02,0.125,1.02,0.132,1.03,0.143,1.03,0.151,1.03,0.159,1.04,0.2,1zm4.7,15l-0.816-0.258,0.003,0.268-0.164-0.479-0.167-0.477-0.168-0.477-0.169-0.477-0.169-0.477-0.171-0.475-0.169-0.477-0.17-0.478-0.17-0.476-0.169-0.476-0.167-0.478-0.167-0.477-0.166-0.479-0.163-0.479-0.161-0.479-0.161-0.48-0.156-0.482-0.155-0.48-0.15-0.484-0.148-0.485-0.144-0.486-0.142-0.487-0.136-0.489-0.134-0.491-0.128-0.491-0.122-0.495-0.118-0.498-0.113-0.498-0.105-0.502-0.102-0.503-0.094-0.505-0.089-0.508,0.844-0.141,0.085,0.497,0.094,0.495,0.099,0.494,0.105,0.49,0.109,0.489,0.115,0.487,0.122,0.484,0.125,0.486,0.13,0.483,0.136,0.482,0.138,0.481,0.144,0.479,0.146,0.479,0.15,0.479,0.152,0.478,0.156,0.476,0.157,0.477,0.161,0.477,0.163,0.475,0.163,0.475,0.167,0.477,0.168,0.475,0.168,0.475,0.17,0.477,0.17,0.475,0.169,0.475,0.171,0.479,0.169,0.477,0.169,0.477,0.168,0.48,0.167,0.479,0.168,0.479-0.1,4zl0.046,0.133-0.043,0.135zm-2.1,6l-0.225-0.826-0.296,0.284,0.058-0.183,0.059-0.183,0.06-0.183,0.056-0.183,0.059-0.183,0.06-0.183,0.058-0.183,0.057-0.183,0.058-0.183,0.06-0.183,0.058-0.183,0.057-0.183,0.058-0.183,0.06-0.183,0.057-0.183,0.058-0.183,0.06-0.183,0.059-0.182,0.056-0.184,0.059-0.183,0.06-0.183,0.058-0.182,0.057-0.184,0.058-0.182,0.06-0.184,0.059-0.182,0.056-0.184,0.058-0.182,0.061-0.184,0.056-0.182,0.058-0.183,0.059-0.183,0.816,0.258-0.058,0.182-0.059,0.184-0.06,0.182-0.056,0.184-0.059,0.182-0.06,0.184-0.058,0.182-0.057,0.184-0.058,0.182-0.06,0.183-0.058,0.183-0.057,0.183-0.058,0.183-0.06,0.183-0.059,0.183-0.056,0.183-0.059,0.183-0.06,0.183-0.056,0.183-0.059,0.183-0.06,0.183-0.058,0.183-0.057,0.183-0.058,0.183-0.06,0.183-0.059,0.183-0.056,0.183-0.058,0.183-0.061,0.183-0.056,0.183-0.058,0.183-0.059,0.183-0.3,1zm0.2,0l-0.07,0.224-0.226,0.061h0.3zm-4.6,1l0.794-0.314-0.509-0.256,0.119-0.033,0.119-0.031,0.119-0.033,0.12-0.032,0.119-0.032,0.119-0.033,0.119-0.031,0.119-0.033,0.12-0.032,0.119-0.032,0.119-0.033,0.119-0.031,0.119-0.033,0.119-0.032,0.12-0.032,0.119-0.033,0.119-0.031,0.119-0.033,0.119-0.032,0.119-0.032,0.12-0.033,0.119-0.031,0.119-0.033,0.119-0.032,0.119-0.032,0.119-0.033,0.119-0.031,0.12-0.033,0.119-0.032,0.119-0.032,0.119-0.033,0.119-0.031,0.225,0.826-0.119,0.033-0.119,0.031-0.12,0.033-0.119,0.032-0.119,0.032-0.119,0.033-0.119,0.031-0.119,0.033-0.12,0.032-0.119,0.032-0.119,0.033-0.119,0.031-0.119,0.033-0.119,0.032-0.119,0.032-0.12,0.032-0.119,0.032-0.119,0.033-0.119,0.032-0.119,0.032-0.119,0.033-0.12,0.031-0.119,0.033-0.119,0.032-0.119,0.032-0.119,0.033-0.12,0.031-0.119,0.033-0.119,0.032-0.119,0.032-0.119,0.033-0.119,0.031-0.5-1zm0.5,0l-0.367,0.1-0.143-0.355h0.5zm-0.8-1l0.767-0.382,0.014,0.032,0.01,0.027,0.011,0.025,0.01,0.023,0.011,0.025,0.01,0.027,0.011,0.025,0.01,0.026,0.011,0.025,0.01,0.025,0.01,0.026,0.011,0.023,0.011,0.025,0.01,0.027,0.01,0.025,0.011,0.025,0.01,0.026,0.011,0.025,0.01,0.025,0.011,0.026,0.01,0.025,0.011,0.025,0.01,0.025,0.011,0.025,0.01,0.023,0.011,0.026,0.01,0.027,0.011,0.025,0.01,0.025,0.011,0.026,0.01,0.025,0.01,0.025,0.011,0.025-0.794,0.314-0.01-0.025-0.01-0.025-0.011-0.025-0.01-0.025-0.011-0.026-0.01-0.025-0.011-0.024-0.01-0.025-0.011-0.027-0.01-0.025-0.011-0.025-0.01-0.025-0.011-0.025-0.01-0.025-0.011-0.026-0.01-0.025-0.011-0.026-0.01-0.025-0.01-0.025-0.011-0.023-0.01-0.025-0.011-0.027-0.01-0.025-0.011-0.025-0.01-0.026-0.011-0.025-0.01-0.025-0.011-0.024-0.01-0.025-0.011-0.027-0.01-0.025-0.011-0.023zm0.8,0l0.004,0.007,0.01,0.025zm-7-19l0.837-0.171,0.128,0.619,0.131,0.618,0.135,0.616,0.136,0.615,0.141,0.615,0.145,0.612,0.146,0.613,0.151,0.61,0.154,0.61,0.16,0.608,0.162,0.606,0.168,0.604,0.171,0.605,0.178,0.603,0.18,0.601,0.188,0.6,0.189,0.597,0.195,0.596,0.201,0.594,0.205,0.591,0.211,0.59,0.216,0.588,0.223,0.586,0.229,0.582,0.233,0.582,0.239,0.578,0.244,0.576,0.252,0.573,0.259,0.573,0.264,0.568,0.271,0.566,0.278,0.563-0.767,0.382-0.281-0.573-0.274-0.574-0.269-0.578-0.261-0.579-0.256-0.584-0.25-0.584-0.243-0.588-0.237-0.588-0.229-0.592-0.226-0.593-0.22-0.595-0.214-0.597-0.208-0.601-0.202-0.601-0.198-0.603-0.193-0.604-0.187-0.605-0.184-0.607-0.177-0.609-0.175-0.608-0.168-0.612-0.166-0.613-0.16-0.614-0.157-0.614-0.151-0.617-0.15-0.616-0.145-0.619-0.141-0.618-0.139-0.621-0.135-0.621-0.131-0.621v-1zm0.8,0zm-0.5-42.2l0.82,0.237-0.336,1.22-0.313,1.23-0.284,1.25-0.262,1.26-0.236,1.28-0.214,1.29-0.189,1.3-0.166,1.31-0.145,1.32-0.121,1.33-0.101,1.34-0.08,1.34-0.059,1.35-0.039,1.35-0.019,1.35,0.001,1.36,0.02,1.35,0.037,1.36,0.057,1.35,0.072,1.35,0.091,1.35,0.106,1.34,0.121,1.34,0.138,1.33,0.153,1.32,0.166,1.31,0.182,1.3,0.194,1.29,0.209,1.28,0.22,1.26,0.233,1.25,0.243,1.24-0.837,0.171-0.246-1.24-0.234-1.26-0.223-1.27-0.209-1.29-0.197-1.3-0.182-1.31-0.169-1.32-0.153-1.33-0.139-1.34-0.124-1.35-0.106-1.35-0.09-1.36-0.073-1.36-0.057-1.36-0.037-1.36-0.02-1.37h-0.1l0.019-1.36,0.039-1.36,0.059-1.36,0.08-1.35,0.101-1.35,0.124-1.34,0.146-1.33,0.169-1.33,0.192-1.32,0.214-1.31,0.24-1.3,0.265-1.28,0.291-1.27,0.315-1.25,0.4-1.6zm10.4-24.5l0.301,0.8,0.159-0.105-0.432,0.479-0.426,0.521-0.42,0.56-0.41,0.596-0.406,0.632-0.396,0.661-0.391,0.691-0.383,0.719-0.375,0.743-0.367,0.766-0.358,0.786-0.351,0.802-0.343,0.819-0.334,0.831-0.327,0.841-0.318,0.849-0.311,0.855-0.304,0.858-0.295,0.859-0.285,0.857-0.279,0.854-0.27,0.849-0.263,0.839-0.255,0.83-0.245,0.816-0.238,0.8-0.231,0.783-0.222,0.764-0.215,0.74-0.204,0.717-0.199,0.689-0.191,0.662-0.82-0.237,0.188-0.658,0.198-0.69,0.209-0.717,0.214-0.743,0.223-0.764,0.23-0.786,0.238-0.804,0.248-0.819,0.255-0.833,0.264-0.845,0.272-0.853,0.279-0.86,0.289-0.864,0.298-0.866,0.304-0.865,0.313-0.862,0.322-0.858,0.33-0.851,0.341-0.841,0.347-0.829,0.356-0.816,0.366-0.799,0.373-0.78,0.382-0.76,0.393-0.736,0.4-0.711,0.411-0.685,0.419-0.652,0.431-0.622,0.439-0.587,0.449-0.55,0.462-0.512h0.2zm-0.2,0.1l0.066-0.071h0.1l-0.2,0.1zm3.8-1.2l-0.615,0.592,0.458,0.104-0.099,0.038-0.099,0.037-0.099,0.038-0.1,0.038-0.099,0.038-0.099,0.038-0.099,0.038-0.1,0.038-0.099,0.038-0.099,0.038-0.099,0.037-0.099,0.038-0.1,0.038-0.099,0.038-0.099,0.038-0.099,0.038-0.1,0.038-0.099,0.038-0.099,0.038-0.099,0.037-0.1,0.038-0.099,0.038-0.099,0.038-0.099,0.038-0.099,0.038-0.1,0.038-0.099,0.038-0.099,0.038-0.099,0.037-0.099,0.038-0.1,0.038-0.099,0.038-0.3,0.4,0.099-0.038,0.099-0.038,0.099-0.038,0.1-0.038,0.099-0.038,0.099-0.038,0.099-0.038,0.099-0.037,0.1-0.038,0.099-0.038,0.099-0.038,0.099-0.038,0.1-0.038,0.099-0.038,0.099-0.038,0.099-0.038,0.099-0.037,0.1-0.038,0.099-0.038,0.099-0.038,0.099-0.038,0.1-0.038,0.099-0.038,0.099-0.038,0.099-0.038,0.099-0.037,0.1-0.038,0.099-0.038,0.099-0.038,0.099-0.038,0.1-0.038,0.099-0.038,0.4-1.1zm-0.4-0.1l0.263-0.1,0.195,0.204-0.5-0.1zm3.4,3.3l-0.854,0.01,0.119,0.291-0.089-0.092-0.089-0.092-0.088-0.092-0.089-0.092-0.089-0.092-0.089-0.092-0.088-0.092-0.089-0.092-0.089-0.092-0.089-0.092h0.1l-0.089-0.092-0.089-0.092-0.1-0.1-0.089-0.092-0.088-0.092-0.089-0.092-0.089-0.092-0.089-0.092-0.088-0.092-0.089-0.092-0.089-0.092-0.088-0.092-0.089-0.092-0.089-0.092-0.089-0.092-0.089-0.092-0.088-0.092-0.089-0.092-0.089-0.092-0.088-0.092-0.089-0.092,0.615-0.592,0.089,0.092,0.089,0.092,0.089,0.092,0.088,0.092,0.089,0.092,0.089,0.092,0.089,0.092,0.088,0.092,0.089,0.092,0.089,0.092,0.089,0.092,0.088,0.092,0.089,0.092,0.089,0.092,0.089,0.092,0.088,0.092,0.089,0.092,0.089,0.092,0.089,0.092,0.088,0.092,0.089,0.092,0.089,0.092,0.089,0.092,0.089,0.092,0.088,0.092,0.089,0.092,0.089,0.092,0.089,0.092,0.088,0.092,0.089,0.092,0.089,0.092,0.089,0.092v0.2zm-0.1-0.3l0.116,0.121,0.002,0.17-0.1-0.3zm0,5.1l-0.68-0.515v0.2l-0.002-0.14-0.001-0.14-0.002-0.142v-0.3l-0.002-0.14-0.001-0.142-0.002-0.138-0.002-0.14-0.002-0.142-0.001-0.14-0.002-0.138-0.002-0.14-0.002-0.142-0.001-0.138-0.002-0.14-0.002-0.142-0.001-0.138-0.002-0.14-0.002-0.142-0.002-0.138-0.002-0.14-0.1-0.8-0.002-0.138-0.002-0.14v-0.2l-0.002-0.14-0.002-0.138-0.002-0.14-0.001-0.142-0.002-0.138-0.002-0.14-0.002-0.14,0.854-0.01,0.002,0.14,0.002,0.14,0.001,0.141,0.002,0.139,0.002,0.14,0.002,0.142,0.001,0.14,0.002,0.138,0.002,0.14,0.002,0.141,0.001,0.139,0.002,0.14,0.002,0.142,0.002,0.138,0.001,0.14,0.002,0.142,0.002,0.138,0.002,0.14,0.001,0.141,0.002,0.139,0.002,0.14,0.002,0.142,0.001,0.14,0.002,0.138,0.002,0.14,0.002,0.142,0.001,0.139,0.002,0.14,0.002,0.142,0.001,0.138,0.002,0.14,0.002,0.14-0.1,1.3zm0.1-0.3l0.002,0.146-0.089,0.117,0.1-0.2z" fill="url(#colour2)"/>
	<path d="M69.2,62.9c-5.12,6.74-8.31,16.6-9.54,24.8-1.67,11.2-1.31,21.8,0.545,32.9,0.895,5.37,2.93,10.3,4.69,15.5-0.618,1.95-1.24,3.9-1.85,5.84-1.27,0.346-2.54,0.691-3.82,1.04-0.109-0.273-0.219-0.547-0.327-0.82-3.02-6.05-4.87-12.5-6.22-19.2-2.68-13.1-3.44-29.1,0.327-42.1,1.99-6.88,5.34-19.2,10.1-24.2,1.06-0.4,2.11-0.801,3.16-1.2,0.945,0.982,1.89,1.97,2.84,2.95,0.1,1.5,0.1,3,0.1,4.5z" fill="url(#colour1)"/>
	<path d="M73.9,182l-0.763-0.382,0.41-0.817,0.41-0.814,0.412-0.815,0.411-0.815,0.412-0.814,0.413-0.814,0.413-0.813,0.412-0.813,0.414-0.814,0.413-0.814,0.413-0.813,0.413-0.813,0.414-0.814,0.413-0.814,0.412-0.813,0.413-0.814,0.412-0.814,0.412-0.814,0.411-0.815,0.411-0.814,0.411-0.815,0.409-0.813,0.409-0.816,0.407-0.816,0.407-0.816,0.406-0.816,0.406-0.817,0.404-0.818,0.404-0.819,0.402-0.816,0.399-0.82,0.4-0.82,0.77,0.375-0.399,0.82-0.403,0.82-0.402,0.82-0.404,0.818-0.404,0.818-0.406,0.818-0.406,0.818-0.407,0.816-0.41,0.816-0.409,0.816-0.41,0.817-0.41,0.815-0.411,0.814-0.411,0.815-0.412,0.814-0.412,0.814-0.413,0.814-0.413,0.813-0.413,0.814-0.413,0.814-0.413,0.813-0.413,0.813-0.414,0.814-0.413,0.814-0.413,0.813-0.413,0.814-0.412,0.814-0.412,0.814-0.412,0.814-0.411,0.815-0.411,0.814-0.4,1zm-0.8,0zm2.2,1l0.733,0.439-0.103,0.154-0.113,0.143-0.125,0.123-0.132,0.11-0.141,0.093-0.146,0.076-0.149,0.059-0.154,0.043-0.154,0.027-0.153,0.01-0.151-0.003-0.152-0.019-0.147-0.029-0.143-0.045-0.14-0.055-0.133-0.068-0.128-0.077-0.12-0.089-0.113-0.1-0.104-0.111-0.094-0.119-0.084-0.129-0.073-0.138-0.059-0.147-0.046-0.154-0.028-0.161-0.013-0.165,0.004-0.17,0.023-0.173,0.042-0.173,0.058-0.177,0.079-0.172,0.763,0.382-0.045,0.105-0.035,0.096-0.021,0.092-0.01,0.087-0.004,0.082,0.006,0.079,0.016,0.073,0.019,0.071,0.028,0.066,0.033,0.064,0.04,0.063,0.047,0.059,0.052,0.054,0.057,0.05,0.063,0.045,0.064,0.041,0.069,0.034,0.069,0.028,0.072,0.021,0.074,0.016,0.071,0.009,0.074,0.003,0.073-0.007,0.07-0.011,0.068-0.02,0.068-0.027,0.066-0.033,0.063-0.043,0.065-0.053,0.062-0.064,0.063-0.074h-0.7zm4.2-9l0.776,0.358-0.133,0.29-0.132,0.293-0.13,0.292-0.129,0.293-0.129,0.292-0.125,0.295-0.126,0.293-0.125,0.295-0.125,0.292-0.124,0.294-0.124,0.293-0.123,0.293-0.124,0.292-0.123,0.293-0.124,0.291-0.125,0.292-0.127,0.29-0.126,0.29-0.129,0.288-0.128,0.287-0.131,0.286-0.133,0.285-0.133,0.285-0.136,0.281-0.139,0.281-0.14,0.279-0.143,0.279-0.146,0.276-0.147,0.273-0.15,0.273-0.155,0.271-0.158,0.27-0.733-0.439,0.151-0.258,0.148-0.262,0.147-0.263,0.145-0.267,0.14-0.27,0.139-0.27,0.137-0.272,0.135-0.274,0.133-0.278,0.133-0.278,0.13-0.279,0.128-0.282,0.128-0.284,0.125-0.285,0.126-0.285,0.124-0.287,0.124-0.289,0.124-0.291,0.124-0.289,0.124-0.293,0.123-0.292,0.124-0.294,0.124-0.293,0.124-0.296,0.126-0.294,0.126-0.297,0.128-0.295,0.129-0.296,0.129-0.296,0.133-0.296,0.133-0.296h0.2zm0.8,0zm6.7-18l0.783,0.342-0.228,0.521-0.227,0.52-0.225,0.522-0.225,0.521-0.225,0.521-0.225,0.524-0.224,0.524-0.224,0.525-0.224,0.527-0.224,0.525-0.225,0.529-0.225,0.53-0.226,0.532-0.226,0.532-0.227,0.536-0.229,0.536-0.229,0.538-0.23,0.539-0.231,0.542-0.233,0.545-0.235,0.546-0.238,0.547-0.239,0.552-0.241,0.552-0.243,0.557-0.246,0.557-0.25,0.561-0.251,0.563-0.254,0.566-0.257,0.566-0.263,0.572-0.264,0.575-0.776-0.358,0.264-0.571,0.259-0.569,0.257-0.566,0.254-0.563,0.252-0.562,0.246-0.559,0.246-0.557,0.243-0.553,0.241-0.552,0.239-0.548,0.235-0.547,0.235-0.546,0.232-0.542,0.232-0.541,0.23-0.54,0.229-0.538,0.228-0.535,0.228-0.533,0.226-0.533,0.226-0.531,0.225-0.53,0.224-0.528,0.224-0.53,0.225-0.526,0.224-0.525,0.224-0.525,0.225-0.523,0.224-0.525,0.226-0.521,0.228-0.522,0.227-0.523,0.2-1zl-0.77-0.375,0.057-0.104,0.06-0.099,0.066-0.091,0.07-0.084,0.078-0.077,0.082-0.066,0.089-0.06,0.096-0.048,0.101-0.037,0.106-0.023,0.109-0.008,0.108,0.006,0.109,0.023,0.104,0.039,0.097,0.053,0.087,0.065,0.075,0.076,0.066,0.085,0.053,0.089,0.046,0.095,0.034,0.1,0.025,0.104,0.019,0.106,0.008,0.109,0.001,0.112-0.007,0.116-0.015,0.12-0.021,0.122-0.032,0.127-0.037,0.13-0.049,0.131-0.056,0.137-0.783-0.342,0.042-0.1,0.032-0.094,0.027-0.087,0.019-0.079,0.015-0.076,0.009-0.066,0.003-0.061-0.001-0.054-0.004-0.046-0.006-0.037-0.008-0.029-0.008-0.022-0.006-0.015-0.006-0.008v-0.002l0.002,0.004,0.008,0.006,0.013,0.007,0.015,0.005,0.017,0.004h0.025l0.007-0.002-0.006,0.004-0.012,0.007-0.019,0.017-0.021,0.02-0.026,0.03-0.026,0.038-0.029,0.047h-0.2z" fill="url(#colour2)"/>
	<path d="M86.6,156c-4.26,8.76-8.74,17.4-13.1,26.1-0.748,1.49,1.32,2.61,2.15,1.23,1.67-2.8,2.78-6.01,4.22-9.14,2.83-6.13,5.07-11.7,7.5-17.3,0.6-2-0.2-2-0.7-1z" fill="url(#colour1)"/>
	<path d="M77,29.7l0.601,0.606-0.073,0.077-0.068,0.079-0.063,0.082-0.06,0.082-0.055,0.086-0.048,0.087-0.046,0.09-0.04,0.09-0.034,0.092-0.031,0.094-0.027,0.096-0.02,0.096-0.019,0.096-0.012,0.099-0.007,0.097-0.002,0.098,0.001,0.099,0.006,0.097,0.013,0.098,0.016,0.097,0.019,0.096,0.027,0.095,0.029,0.095,0.033,0.092,0.041,0.092,0.042,0.089,0.049,0.089,0.054,0.086,0.059,0.083,0.062,0.083,0.067,0.079,0.073,0.079-0.606,0.601-0.102-0.107-0.096-0.113-0.09-0.115-0.082-0.121-0.075-0.123v-0.6l-0.063-0.129-0.055-0.13-0.05-0.133-0.043-0.133-0.034-0.136-0.03-0.136-0.023-0.138-0.015-0.138-0.01-0.14-0.003-0.138,0.004-0.139,0.012-0.14,0.018-0.137,0.022-0.139,0.032-0.136,0.036-0.134,0.044-0.134,0.051-0.132,0.057-0.13,0.063-0.126,0.072-0.125,0.076-0.122,0.083-0.12,0.091-0.115,0.097-0.111v-0.8zm4.1,0.6l-0.601-0.606-0.003,0.604-0.078-0.074-0.078-0.068-0.082-0.063-0.082-0.059-0.086-0.055-0.087-0.048-0.091-0.046-0.091-0.041-0.092-0.034-0.094-0.032-0.096-0.026-0.097-0.02-0.096-0.018-0.099-0.012-0.098-0.007-0.098-0.002-0.099,0.001-0.097,0.005-0.098,0.013-0.098,0.016-0.097,0.019-0.096,0.026-0.095,0.03-0.092,0.034-0.092,0.041-0.089,0.043-0.089,0.048-0.087,0.054-0.082,0.059-0.083,0.062-0.079,0.067-0.078,0.073-0.601-0.606,0.107-0.102,0.112-0.096,0.115-0.09,0.121-0.082,0.122-0.075,0.124-0.069,0.129-0.063,0.13-0.055,0.133-0.05,0.135-0.042,0.134-0.035,0.137-0.031,0.138-0.022,0.138-0.015,0.14-0.01,0.139-0.003,0.139,0.004,0.14,0.012,0.137,0.017,0.139,0.023,0.136,0.032,0.134,0.037,0.134,0.043,0.133,0.051,0.13,0.057,0.127,0.063,0.125,0.072,0.121,0.077,0.12,0.083,0.114,0.091,0.111,0.097,0.106,0.103,1.2,0.6zm0-0.6l0.3,0.303-0.303,0.301v-0.6zm-4.1,4l0.003-0.604,3.51-3.48,0.601,0.606-3.51,3.48h-0.6zm0.6,0.1l-0.304,0.3-0.3-0.303h0.6z" fill="url(#colour2)"/>
	<path d="M77.3,33.4c-0.96-0.97-0.952-2.53,0.018-3.49,0.969-0.96,2.53-0.953,3.49,0.017l-3.5,3.5z" fill="url(#colour1)"/>
	<path d="M84.7,21.9l0.601,0.606-0.074,0.078-0.068,0.079-0.063,0.082-0.059,0.082-0.055,0.086-0.048,0.087-0.046,0.091-0.04,0.09-0.035,0.092-0.031,0.094-0.026,0.096-0.021,0.096-0.018,0.096-0.013,0.099-0.006,0.097-0.003,0.099,0.002,0.098,0.005,0.097,0.013,0.098,0.016,0.097,0.02,0.096,0.025,0.097,0.031,0.094,0.033,0.092,0.04,0.092,0.043,0.089,0.049,0.089,0.054,0.087,0.059,0.083,0.062,0.082,0.067,0.079,0.072,0.079-0.606,0.601-0.101-0.107-0.096-0.112-0.09-0.116-0.082-0.121-0.075-0.122-0.069-0.125-0.063-0.129-0.055-0.13-0.05-0.133-0.042-0.134-0.035-0.134-0.031-0.137v-0.7l-0.015-0.138-0.01-0.14-0.004-0.139,0.005-0.139,0.012-0.139,0.017-0.137,0.023-0.139,0.031-0.136,0.037-0.134,0.043-0.134,0.052-0.132,0.057-0.13,0.063-0.126,0.072-0.125,0.076-0.121,0.083-0.12,0.091-0.114,0.097-0.112,0.1-0.7zm4.1,0.7l-0.601-0.606-0.003,0.604-0.077-0.074-0.079-0.068-0.081-0.063-0.082-0.059-0.086-0.055-0.088-0.048-0.091-0.046-0.09-0.041-0.094-0.031-0.097-0.026-0.096-0.02-0.096-0.018-0.1-0.012-0.097-0.006-0.099-0.002-0.098,0.001-0.098,0.005-0.098,0.013-0.097,0.016-0.097,0.019-0.097,0.026-0.094,0.03-0.093,0.041-0.088,0.042-0.089,0.048-0.087,0.054-0.083,0.058-0.082,0.062-0.079,0.067-0.078,0.073-0.601-0.606,0.106-0.101,0.112-0.096,0.116-0.09,0.12-0.082,0.122-0.075,0.125-0.069,0.129-0.063,0.13-0.055,0.133-0.05,0.134-0.042,0.135-0.036,0.137-0.03,0.137-0.023,0.139-0.015,0.14-0.01,0.139-0.003,0.139,0.005,0.139,0.012,0.137,0.017,0.139,0.023,0.137,0.032,0.134,0.037,0.134,0.043,0.132,0.051,0.131,0.057,0.126,0.063,0.125,0.072,0.121,0.076,0.12,0.083,0.115,0.091,0.111,0.097,0.105,0.103,1,0.5zm0-0.6l0.301,0.303-0.304,0.301v-0.6zm-4.1,4l0.003-0.604,3.51-3.48,0.601,0.606-3.51,3.48h-0.6zm0.6,0l-0.303,0.3-0.301-0.303h0.6z" fill="url(#colour2)"/>
	<path d="M85,25.7c-0.96-0.969-0.952-2.53,0.017-3.49,0.97-0.96,2.53-0.952,3.49,0.017l-3.5,3.5z" fill="url(#colour1)"/>
		<path d="M145,73.2l0.816,0.251-0.33,1.05-0.462,1.44-0.586,1.81-0.7,2.15-0.807,2.46-0.903,2.74-0.989,3-1.07,3.23-1.14,3.43-1.2,3.6-1.25,3.75-2,4-1.32,3.96-1.34,4.02-1.36,4.05-1.36,4.06-1.35,4.04-1.34,3.99-1.31,3.91-1.28,3.81-1.24,3.68-1.19,3.52-1.13,3.33-1.06,3.12-0.979,2.87-0.892,2.6-0.794,2.3-0.687,1.98-0.57,1.62-0.446,1.25-0.313,0.84-0.189,0.445-0.75-0.408,0.144-0.345,0.307-0.823,0.442-1.24,0.57-1.62,0.687-1.98,0.791-2.3,0.891-2.6,0.979-2.87,1.06-3.12,1.13-3.33,1.19-3.52,1.24-3.68,1.28-3.81,1.32-3.91,1.34-3.99,1.35-4.04,1.36-4.06,1.35-4.05,1.34-4.02,1.32-3.96,1.29-3.87,1.25-3.75,1.2-3.6,1.14-3.43,1.07-3.23,0.99-3,0.902-2.74,0.807-2.46,0.7-2.15,0.586-1.8,0.462-1.44,1-1.2zm0-17.4l0.325-0.79,0.665,0.311,0.599,0.353,0.529,0.392,0.464,0.432,0.397,0.467,0.337,0.499,0.273,0.527,0.215,0.55,0.162,0.572,0.11,0.591,0.063,0.605,0.02,0.619-0.019,0.629-0.056,0.643-0.088,0.648-0.115,0.656-0.143,0.66-0.166,0.666-0.185,0.666-0.201,0.666-0.216,0.664-0.225,0.661-0.233,0.655-0.237,0.646-0.238,0.637-0.237,0.625-0.233,0.612-0.226,0.596-0.214,0.579-0.202,0.561-0.185,0.535-0.165,0.513-0.816-0.251,0.171-0.53,0.188-0.552,0.205-0.567,0.218-0.585,0.226-0.6,0.233-0.612,0.236-0.625,0.238-0.633,0.234-0.64,0.23-0.645,0.222-0.647,0.209-0.65,0.197-0.648,0.179-0.646,0.158-0.639,0.137-0.633,0.111-0.623,0.082-0.612,0.052-0.596,0.019-0.582-0.02-0.562-0.057-0.542-0.097-0.518-0.139-0.495-0.185-0.47-0.23-0.443-0.279-0.418-0.335-0.391-0.393-0.365-0.456-0.338-0.521-0.309-1-0.8zm-9,7.3l-0.78-0.345,0.17-0.387,0.177-0.397,0.18-0.403,0.186-0.407,0.19-0.412,0.196-0.414,0.204-0.413,0.211-0.412,0.218-0.41,0.227-0.403,0.234-0.396,0.245-0.389,0.256-0.377,0.268-0.364,0.277-0.352,0.291-0.335,0.303-0.318,0.319-0.298,0.334-0.275,0.348-0.251,0.364-0.226,0.381-0.198,0.398-0.166,0.417-0.132,0.431-0.097,0.448-0.058,0.463-0.017,0.479,0.023,0.494,0.065,0.509,0.111,0.524,0.155,0.54,0.202-0.325,0.79-0.486-0.182-0.464-0.139-0.445-0.095-0.424-0.058-0.405-0.02-0.39,0.017-0.371,0.048-0.357,0.08-0.343,0.109-0.332,0.139-0.32,0.165-0.311,0.192-0.302,0.218-0.29,0.242-0.281,0.264-0.273,0.285-0.265,0.305-0.257,0.322-0.247,0.34-0.239,0.354-0.231,0.365-0.226,0.378-0.217,0.386-0.211,0.393-0.203,0.399-0.198,0.403-0.192,0.404-0.188,0.405-0.183,0.404-0.179,0.399-0.174,0.394-2,0.4zm0-0.3zm-39.3,98.2l-0.783-0.345,1.3-2.96,1.28-2.97,1.27-2.99,1.26-3,1.25-3.01,1.24-3.02,1.23-3.03,1.23-3.04,1.22-3.05,1.21-3.06,1.21-3.06,1.2-3.07,1.2-3.07,1.2-3.08,1.2-3.08,1.2-3.08,1.2-3.08,1.2-3.08,1.2-3.08,1.21-3.08,1.21-3.08,1.22-3.07,1.22-3.07,1.23-3.06,1.24-3.06,1.25-3.05,1.26-3.04,1.27-3.03,1.28-3.02,1.29-3.01,1.3-3,1.32-2.99,0.78,0.345-1.32,2.98-1.3,3-1.29,3.01-1.28,3.02-1.27,3.03-1.26,3.04-1.24,3.05-1.24,3.05-1.23,3.06-1.22,3.06-1.22,3.07-1.21,3.07-1.21,3.08-1.2,3.08-1.2,3.08-1.2,3.08-1.2,3.08-1.2,3.08-1.2,3.08-1.2,3.07-1.2,3.07-1.21,3.06-1.22,3.06-1.22,3.05-1.23,3.04-1.24,3.03-1.24,3.02-1.25,3.01-1.26,3-1.27,2.99-1.28,2.98-1.7,3zm-0.9,3l-0.484,0.703-0.161-0.209-0.046-0.147-0.04-0.15-0.029-0.151-0.021-0.149-0.014-0.149-0.006-0.151v-0.147l0.006-0.149,0.013-0.149,0.017-0.146,0.021-0.146,0.026-0.143,0.031-0.144,0.033-0.141,0.038-0.14,0.039-0.137,0.043-0.136,0.043-0.132,0.047-0.133,0.047-0.126,0.048-0.124,0.049-0.123,0.049-0.119,0.049-0.115,0.049-0.109,0.049-0.108,0.046-0.104,0.044-0.098,0.045-0.096,0.039-0.088,0.038-0.084,0.035-0.079,0.783,0.345-0.038,0.083-0.039,0.087-0.042,0.091-0.041,0.093-0.045,0.098-0.046,0.101-0.045,0.102-0.045,0.106-0.046,0.108-0.046,0.109-0.045,0.111-0.045,0.114-0.043,0.117-0.04,0.115-0.041,0.118-0.036,0.119-0.035,0.12-0.031,0.12-0.03,0.12-0.024,0.12-0.022,0.119-0.019,0.119-0.014,0.117-0.009,0.115-0.006,0.115v0.115l0.006,0.11,0.01,0.11,0.015,0.106,0.021,0.104,0.025,0.101,0.033,0.1-0.1-1zm-0.5,0l-0.115-0.078-0.046-0.131h0.1zm2,1l-0.813-0.268,0.208,0.512-0.007-0.004,0.001,0.001-0.012-0.007-0.012-0.006-0.013-0.006-0.015-0.01-0.021-0.011-0.022-0.014-0.023-0.013-0.027-0.018-0.03-0.016-0.031-0.019-0.037-0.021-0.038-0.022-0.039-0.023-0.043-0.027-0.046-0.026-0.048-0.03-0.049-0.03-0.053-0.032-0.056-0.035-0.058-0.035-0.061-0.039-0.061-0.039-0.065-0.043-0.067-0.045-0.069-0.045-0.07-0.047-0.075-0.05-0.076-0.052-0.079-0.053-0.08-0.057,0.484-0.703,0.078,0.053,0.075,0.053,0.073,0.049,0.071,0.047,0.07,0.047,0.066,0.045,0.063,0.041,0.062,0.039,0.062,0.04,0.057,0.036,0.055,0.035,0.053,0.032,0.05,0.032,0.049,0.029,0.044,0.027,0.043,0.026,0.039,0.023,0.039,0.022,0.035,0.021,0.03,0.019,0.031,0.018,0.026,0.017,0.024,0.013,0.023,0.014,0.019,0.01,0.015,0.009,0.016,0.009,0.013,0.006,0.008,0.006h0.002l0.01,0.006-0.004-0.002h0.1zm-0.2,0l0.32,0.17-0.113,0.342h-0.2zm-0.2,0l-0.392,0.76-0.201-0.537,0.009-0.025,0.01-0.023,0.01-0.025,0.009-0.021,0.009-0.022,0.009-0.021,0.006-0.019,0.008-0.021,0.009-0.02,0.006-0.019,0.006-0.014,0.007-0.018,0.006-0.016,0.004-0.014,0.005-0.014,0.006-0.012,0.004-0.012,0.005-0.012,0.002-0.012,0.004-0.01,0.003-0.01,0.003-0.005,0.003-0.01,0.001-0.002,0.004-0.009,0.002-0.004v-0.003l0.001-0.001,0.002-0.01v0.006l-0.007,0.016,0.005-0.018,0.813,0.268,0.005-0.017-0.007,0.019-0.002,0.008v-0.004l-0.001,0.008-0.003,0.006-0.002,0.008-0.001,0.002-0.004,0.012-0.003,0.007-0.003,0.012-0.003,0.01-0.004,0.01-0.006,0.011-0.004,0.013-0.005,0.015-0.005,0.015-0.005,0.015-0.008,0.017-0.006,0.017-0.006,0.016-0.007,0.021-0.009,0.019-0.006,0.019-0.008,0.021-0.01,0.022-0.008,0.021-0.009,0.023-0.01,0.025-0.009,0.023-0.01,0.027-0.013,0.025h-0.2zm-0.4,1h-0.3l0.144-0.359h0.2zm1.7-1l-0.161,0.84-0.056-0.01-0.055-0.013-0.053-0.011-0.056-0.013-0.052-0.011-0.053-0.012-0.052-0.014-0.051-0.012-0.051-0.015-0.051-0.015-0.049-0.013-0.049-0.015-0.049-0.014-0.048-0.015-0.047-0.016-0.048-0.015-0.046-0.016-0.046-0.016-0.045-0.017-0.044-0.015-0.046-0.018-0.045-0.017-0.042-0.018-0.042-0.018-0.042-0.018-0.041-0.019-0.042-0.018-0.041-0.019-0.039-0.021-0.039-0.019-0.04-0.019-0.037-0.02,0.392-0.76,0.03,0.016,0.03,0.016,0.032,0.016,0.032,0.014,0.031,0.016,0.032,0.014,0.034,0.016,0.035,0.014,0.035,0.014,0.036,0.015,0.034,0.014,0.035,0.014,0.038,0.015,0.038,0.014,0.039,0.013,0.039,0.013,0.038,0.014,0.04,0.012,0.042,0.013,0.041,0.013,0.042,0.012,0.043,0.013,0.044,0.011,0.044,0.011,0.044,0.013,0.046,0.01,0.046,0.012,0.048,0.012,0.045,0.009,0.05,0.011,0.049,0.01h0.8zm-0.2,1zm12,1l-0.197,0.834-0.311-0.07-0.314-0.064-0.317-0.057-0.321-0.051-0.325-0.047-0.328-0.039-0.331-0.037-0.335-0.032-0.339-0.026-0.341-0.025-0.344-0.023-0.347-0.02-0.352-0.018-0.354-0.018-0.357-0.016-0.358-0.016-0.363-0.015-0.366-0.017-0.368-0.016-0.371-0.019-0.374-0.021-0.377-0.021-0.38-0.025-0.382-0.029-0.385-0.033-0.386-0.037-0.392-0.041-0.392-0.049-0.396-0.053-0.396-0.061-0.401-0.064-0.401-0.074,0.161-0.84,0.388,0.07,0.384,0.065,0.386,0.057,0.383,0.053,0.381,0.045,0.378,0.042,0.38,0.036,0.375,0.03,0.375,0.029,0.373,0.025,0.37,0.021,0.37,0.021,0.368,0.019,0.365,0.016,0.363,0.017,0.362,0.015,0.361,0.016,0.358,0.016,0.356,0.018,0.354,0.018,0.354,0.02,0.352,0.023,0.35,0.025,0.347,0.029,0.345,0.033,0.344,0.036,0.342,0.043,0.339,0.047,0.338,0.054,0.334,0.061,0.334,0.066zm4-2l0.75,0.408-0.072-0.507,0.132,0.281-0.012,0.175-0.039,0.113-0.046,0.096-0.056,0.092-0.066,0.096-0.075,0.097-0.086,0.1-0.098,0.105-0.108,0.107-0.119,0.109-0.132,0.113-0.143,0.111-0.154,0.112-0.165,0.112-0.176,0.108-0.188,0.105-0.199,0.102-0.21,0.096-0.22,0.092-0.232,0.082-0.243,0.072-0.253,0.064-0.262,0.054-0.274,0.042-0.283,0.027-0.292,0.014-0.3-0.001-0.311-0.017-0.319-0.034-0.328-0.052-0.337-0.07,0.197-0.834,0.294,0.063,0.284,0.046,0.276,0.028,0.267,0.016,0.26,0.001,0.249-0.014,0.239-0.024,0.23-0.034,0.222-0.045,0.213-0.054,0.203-0.063,0.195-0.069,0.187-0.074,0.176-0.082,0.166-0.085,0.158-0.089,0.148-0.092,0.138-0.092,0.128-0.093,0.116-0.095,0.107-0.09,0.097-0.089,0.085-0.084,0.073-0.079,0.063-0.072,0.049-0.064,0.036-0.051,0.022-0.038,0.009-0.016-0.009,0.023-0.005,0.106,0.113,0.238-1,2zm1,1l-0.226-0.226,0.153-0.282z" fill="url(#colour2)"/>
	<path d="M115,165c0.973-1.78,28.1-82.9,30.8-91.8,1.68-5.44,7.1-15-0.006-17.9-5.57-2.3-7.92,3.45-9.73,7.53-14.1,31.8-25.7,65.8-39.6,97.4-0.369,0.838-1.24,2.49-0.775,3.8,0.858,0.592,1.34,0.847,1.34,0.847s-0.046,0.14-0.158,0.42c0.364,0.188,0.817,0.343,1.38,0.45,4.22,0.812,8.11,0.324,11.5,1.14,3,2,5-1,5-1z" fill="url(#colour1)"/>
	<path d="M68.8,62.9l0.854-0.037-0.835-0.105,0.108-0.373,0.099-0.377,0.091-0.378,0.08-0.383,0.071-0.386,0.061-0.386,0.05-0.388,0.041-0.389,0.029-0.391,0.019-0.39,0.007-0.389-0.004-0.392-0.017-0.388-0.029-0.387-0.039-0.384-0.053-0.382-0.063-0.378-0.076-0.377-0.091-0.372-0.104-0.368-0.116-0.364-0.131-0.359-0.143-0.354-0.158-0.347-0.171-0.342-0.187-0.336-0.199-0.329-0.216-0.322-0.231-0.314-0.245-0.306-0.261-0.299-0.279-0.288,0.606-0.606,0.302,0.318,0.287,0.326,0.27,0.336,0.252,0.344,0.235,0.352,0.22,0.359,0.203,0.366,0.188,0.372,0.171,0.38,0.156,0.384,0.141,0.389,0.126,0.394,0.111,0.398,0.097,0.402,0.083,0.403,0.07,0.409,0.056,0.409,0.043,0.412,0.029,0.413,0.017,0.414,0.004,0.412-0.007,0.416-0.019,0.414-0.032,0.413-0.041,0.413-0.054,0.411-0.064,0.41-0.074,0.406-0.086,0.403-0.095,0.402-0.105,0.397-0.115,0.393-1,0.2zm0.8,0.1l-0.724,2.37-0.111-2.48,0.8,0.1zm-7-6.3l0.854-0.023-0.436-0.415,0.441-0.001,0.427,0.016,0.407,0.034,0.392,0.049,0.375,0.069,0.36,0.083,0.341,0.1,0.326,0.116,0.312,0.132,0.295,0.146,0.278,0.162,0.265,0.176,0.247,0.189,0.231,0.204,0.217,0.216,0.202,0.226,0.186,0.238,0.174,0.25,0.157,0.257,0.146,0.266,0.13,0.276,0.119,0.283,0.106,0.291,0.095,0.297,0.084,0.302,0.072,0.309,0.062,0.315,0.055,0.318,0.043,0.325,0.034,0.329,0.027,0.331,0.019,0.336-0.854,0.037-0.019-0.316-0.023-0.312-0.034-0.305-0.041-0.298-0.047-0.294-0.059-0.286-0.065-0.278-0.1-0.2-0.084-0.263-0.094-0.254-0.102-0.246-0.114-0.236-0.122-0.229-0.134-0.218-0.143-0.206-0.156-0.198-0.165-0.189-0.18-0.176-0.191-0.166-0.204-0.156-0.217-0.146-0.232-0.135-0.247-0.124-0.262-0.112-0.279-0.099-0.298-0.087-0.313-0.074-0.332-0.058-0.351-0.047-0.371-0.03-0.389-0.015-0.412,0.001-0.4-0.4zm0.5,0.4l-0.423,0.009-0.012-0.424,0.4,0.4zm4.2-6.6l-0.606,0.606,0.424,0.107-0.278,0.086-0.265,0.091-0.252,0.094-0.237,0.097-0.223,0.102-0.211,0.107-0.198,0.11-0.186,0.114-0.174,0.117-0.161,0.122-0.151,0.125-0.141,0.131-0.13,0.136-0.122,0.141-0.111,0.145-0.104,0.152-0.096,0.159-0.086,0.165-0.079,0.172-0.074,0.179-0.064,0.189-0.057,0.196-0.053,0.204-0.044,0.214-0.037,0.223-0.03,0.23-0.024,0.242-0.02,0.25-0.013,0.259-0.006,0.269v0.282l0.006,0.289-0.854,0.023-0.006-0.306v-0.295l0.007-0.29,0.012-0.283,0.02-0.274,0.027-0.266,0.034-0.261,0.044-0.252,0.051-0.245,0.059-0.241,0.07-0.232,0.078-0.226,0.087-0.219,0.1-0.213,0.109-0.206,0.119-0.198,0.13-0.192,0.142-0.186,0.152-0.177,0.163-0.17,0.175-0.162,0.185-0.156,0.198-0.148,0.207-0.141,0.219-0.134,0.229-0.127,0.241-0.12,0.253-0.115,0.265-0.11,0.274-0.104,0.289-0.098,0.301-0.093,0.5,0.1zm-0.4-0.1l0.244-0.072,0.18,0.179-0.4-0.1z" fill="url(#colour2)"/>
	<path d="M67,50.8c3.19,3.19,3.5,7.98,2.26,12-0.156-3.5-1.54-6.34-6.19-6.23-0.1-3.2,0.7-4.8,3.9-5.8z" fill="url(#colour1)"/>
	<path d="M64.4,136l0.822-0.004,0.108,0.396,0.1,0.405,0.091,0.413,0.081,0.42,0.073,0.427,0.062,0.432,0.053,0.437,0.042,0.441,0.031,0.445,0.021,0.445,0.01,0.449-0.005,0.449-0.016,0.45-0.028,0.447-0.041,0.448-0.054,0.447-0.069,0.442-0.083,0.438-0.098,0.436-0.113,0.43-0.128,0.426-0.145,0.418-0.161,0.409-0.178,0.401-0.194,0.392-0.213,0.382-0.231,0.372-0.25,0.358-0.27,0.346-0.288,0.334-0.308,0.316-0.327,0.303-0.562-0.648,0.292-0.268,0.275-0.282,0.258-0.296,0.24-0.311,0.224-0.322,0.209-0.334,0.193-0.347,0.179-0.358,0.162-0.367,0.147-0.376,0.133-0.386,0.119-0.392,0.104-0.4,0.092-0.405,0.078-0.412,0.063-0.417,0.053-0.42,0.039-0.422,0.026-0.427,0.015-0.427,0.002-0.427-0.008-0.426-0.019-0.425-0.029-0.422-0.04-0.42-0.051-0.417-0.061-0.411-0.067-0.406-0.079-0.399-0.086-0.393-0.095-0.385-0.102-0.376,0.822-0.003-0.8,1zl0.407-1.46,0.415,1.46h-0.8zm-6,6l0.456-0.333,0.402,0.027,0.376,0.006,0.351-0.015,0.328-0.034,0.305-0.053,0.283-0.068,0.264-0.086,0.246-0.102,0.228-0.115,0.214-0.13,0.2-0.145,0.186-0.156,0.175-0.172,0.165-0.183,0.154-0.197,0.146-0.21,0.137-0.222,0.128-0.232,0.121-0.244,0.114-0.252,0.107-0.265,0.102-0.271,0.098-0.278,0.092-0.287,0.09-0.291,0.085-0.297,0.083-0.3,0.083-0.305,0.082-0.307,0.082-0.309,0.082-0.309,0.086-0.309,0.823,0.227-0.083,0.305-0.082,0.307-0.082,0.308-0.082,0.308-0.083,0.309-0.087,0.309-0.089,0.307-0.092,0.305-0.099,0.3-0.103,0.298-0.11,0.293-0.118,0.287-0.127,0.283-0.137,0.275-0.147,0.268-0.159,0.258-0.173,0.248-0.188,0.238-0.201,0.227-0.219,0.213-0.235,0.199-0.253,0.182-0.27,0.165-0.29,0.146-0.306,0.127-0.325,0.105-0.345,0.084-0.363,0.063-0.382,0.04-0.401,0.017-0.422-0.008-0.442-0.031,0.457-0.332h-1zl0.081-0.368,0.375,0.035h-0.5zm4.3,7l-0.316,0.102-0.339-0.038-0.324-0.054-0.311-0.072-0.296-0.086-0.283-0.101-0.27-0.118-0.255-0.132-0.239-0.146-0.227-0.159-0.212-0.173-0.197-0.187-0.183-0.197-0.166-0.206-0.153-0.218-0.138-0.227-0.126-0.236-0.11-0.243-0.097-0.251-0.083-0.257-0.069-0.263-0.06-0.269-0.046-0.272-0.033-0.278-0.021-0.282-0.01-0.285v-0.288l0.012-0.292,0.021-0.291,0.031-0.297,0.041-0.297,0.053-0.299,0.062-0.3,0.836,0.185-0.057,0.273-0.047,0.271-0.039,0.271-0.029,0.267-0.021,0.268-0.009,0.259-0.001,0.257,0.009,0.252,0.021,0.246,0.029,0.24,0.039,0.235,0.048,0.228,0.06,0.222,0.069,0.213,0.08,0.206,0.09,0.197,0.099,0.188,0.111,0.182,0.119,0.172,0.133,0.164,0.142,0.153,0.154,0.144,0.164,0.135,0.178,0.126,0.191,0.116,0.203,0.104,0.218,0.095,0.23,0.084,0.247,0.072,0.262,0.059,0.277,0.047,0.292,0.033-0.316,0.102h0.5zl-0.136,0.116-0.181-0.015h0.3z" fill="url(#colour2)"/>
	<path d="M62.5,149c3.41-2.95,3.56-8.64,2.4-12.7-0.909,3.26-1.41,6.86-6.04,6.42-0.8,3,0.1,6,3.6,7z" fill="url(#colour1)"/>
			<polygon points="83.2,153,83.2,40.3,84,40.3,84,153" fill="url(#colour1)"/>
			<polygon points="87.2,151,87.2,44.6,88,44.6,88,151" fill="url(#colour1)"/>
			<polygon points="95.1,135,95.1,51.4,96,51.4,96,135" fill="url(#colour1)"/>
			<polygon points="103,118,103,55,104,55,104,118" fill="url(#colour1)"/>
			<polygon points="99.1,127,99.1,53.4,100,53.4,100,127" fill="url(#colour1)"/>
			<polygon points="91.1,143,91.1,48.2,92,48.2,92,143" fill="url(#colour1)"/>
			<polygon points="107,111,107,55.9,108,55.9,108,111" fill="url(#colour1)"/>
			<polygon points="111,102,111,56.1,112,56.1,112,102" fill="url(#colour1)"/>
			<polygon points="115,93.7,115,55.9,116,55.9,116,93.7" fill="url(#colour1)"/>
			<polygon points="119,85,119,55.1,120,55.1,120,85" fill="url(#colour1)"/>
			<polygon points="123,76.7,123,53.8,124,53.8,124,76.7" fill="url(#colour1)"/>
			<polygon points="127,69,127,52.6,128,52.6,128,69" fill="url(#colour1)"/>
</svg>
