<?xml version="1.0" encoding="utf-8"?>
<!DOCTYPE svg PUBLIC "-//W3C//DTD SVG 1.1//EN" "http://www.w3.org/Graphics/SVG/1.1/DTD/svg11.dtd">
<svg version="1.1" id="Layer_1" xmlns="http://www.w3.org/2000/svg" xmlns:xlink="http://www.w3.org/1999/xlink" x="0px" y="0px"
	 width="503px" height="538px" viewBox="0 0 503 538" enable-background="new 0 0 503 538" xml:space="preserve">
<defs>
   <linearGradient id="colour1">
     <stop offset="100%" stop-color="red"/>
   </linearGradient>
 </defs>
 <g>
<path fill="url(#colour1)" d="M106.086,3.966c35.265,9.063,19.706,52.083,4.909,72.735
	c-36.932,81.871-54.084,179.645-18.808,265.07c25.314,59.354,78.275,115.74,145.959,119.608
	c58.577,3.347,113.965-31.135,145.098-79.584c51.474-75.649,51.314-175.87,21.855-259.887
	c-9.511-29.345-23.322-57.094-34.979-85.494c-7.184-33.563,49.035-46.839,60.177-15.816c18.391,30.148,36.797,60.95,47.734,94.933
	c23.249,66.148,27.755,138.831,14.365,207.45c-22.584,78.108-70.376,153.58-144.991,190.401
	c-51.352,24.701-112.288,31.271-166.431,11.65C104.494,502.469,50.257,434.941,21.464,363.09
	C8.812,336.973,0.827,308.809,1.325,279.661c-8.205-92.076,19.51-186.165,71.92-261.749C81.034,8.562,93.404,0.205,106.086,3.966
	L106.086,3.966z M33.281,214.75c-1.287-0.18-3.003,11.76-1.669,11.947l9.876,1.387c1.381,0.194,2.92-11.781,1.711-11.949
	L33.281,214.75L33.281,214.75z M455.937,211.818c-1.368,0.22,0.634,12.164,1.903,11.958l9.82-1.584
	c1.396-0.225-0.533-12.174-1.89-11.956L455.937,211.818z M44.611,294.725l-9.882,1.854c-1.387,0.261,0.903,12.12,2.317,11.852
	l9.726-1.849C48.117,306.324,45.848,294.492,44.611,294.725L44.611,294.725z M456.172,290.441
	c-1.326-0.219-3.33,11.713-1.963,11.938l9.825,1.626c1.311,0.218,3.342-11.717,1.974-11.942L456.172,290.441L456.172,290.441z
	 M62.677,373.559c-1.238,0.602,4.046,11.469,5.235,10.885l8.993-4.418c1.219-0.599-4.071-11.399-5.236-10.834L62.677,373.559z
	 M434.643,380.623c1.335,0.615,6.275-10.42,5.034-10.991l-9.016-4.151c-1.224-0.563-6.365,10.375-5.065,10.976L434.643,380.623z
	 M104.975,436.897c-0.997,0.929,7.25,9.703,8.153,8.859l7.329-6.84c0.92-0.858-7.208-9.736-8.194-8.815L104.975,436.897z
	 M391.307,427.192c-0.945-0.844-9.089,8.079-8.021,9.03l7.427,6.629c1.085,0.971,9.04-8.123,8.023-9.029L391.307,427.192
	L391.307,427.192z"/>
<path fill="url(#colour1)" d="M236.046,408.492c-6.469-8.66-22.622-25.542-35.895-37.517
	c-39.329-35.479-44.681-40.613-60.649-58.177c-29.438-32.381-41.94-64.913-41.897-109.024c0.021-21.533,1.249-29.829,6.297-42.522
	c8.564-21.535,21.18-37.536,37.31-47.323c11.424-6.932,17.058-10.011,36.135-10.137c19.956-0.132,24.157,2.647,35.896,10.352
	c14.289,9.376,28.995,29.417,32.035,43.651l1.877,8.792l4.631-12.109c26.166-68.426,109.703-67.402,138.775,1.701
	c9.222,21.922,10.234,68.73,2.057,95.097c-10.668,34.394-30.704,60.615-77.021,100.798c-30.375,26.352-64.754,66.223-67.147,71.823
	C245.67,430.397,248.316,424.916,236.046,408.492z"/>
</g>
</svg>
