<?xml version="1.0" encoding="utf-8"?>
<!-- Generator: Adobe Illustrator 14.0.0, SVG Export Plug-In . SVG Version: 6.00 Build 43363)  -->
<!DOCTYPE svg PUBLIC "-//W3C//DTD SVG 1.1//EN" "http://www.w3.org/Graphics/SVG/1.1/DTD/svg11.dtd">
<svg version="1.1" id="Layer_1" xmlns="http://www.w3.org/2000/svg" xmlns:xlink="http://www.w3.org/1999/xlink" x="0px" y="0px"
	 width="643.46px" height="850.39px" viewBox="0 0 643.46 850.39" enable-background="new 0 0 643.46 850.39" xml:space="preserve">
<defs>
   <linearGradient id="colour1">
     <stop offset="100%" stop-color="#EE3124"/>
   </linearGradient>
</defs>
<path fill="url(#colour1)" d="M489.377,390.885c0,0-13.804-10.659-20.625-36.089l-19.214-13.32c-3.472-2.62-6.67-12.256-12.002-12.256
	c-1.27,4.202,2.69,7.61,1.133,11.941c-11.104,4.175-29.888-1.885-30.547-1.885c0,0-4.609,0.281-3.169,4.365
	c0,0-1.504,2.363-5.19,2.363c-5.176,0-5.62-1.204-11.563-1.204c-2.671,0-1.348,5.72-2.505,5.72c-2.622,0-6.24-2.256-14.683-2.256
	c-12.158,0-14.004,7.329-14.004,7.329c6.479-1.699,14.102,1.362,14.102,2.795c0,2.205-14.131,0.906-19.902,3.792
	c0,0-1.45,2.014,0.962,3.645c0.42,0.273-0.21,1.099-0.933,1.895c-16.787,2.371-54.8-0.984-73.516,0.845
	c-13.066,1.489-33.154,21.931-33.154,21.931c-7.705-1.826-7.061-12.6-15.479-12.6c-3.032,0-34.346,19.91-75.039,28.049
	c0,0,11.25,7.754,24.131,7.754c27.295,0,35.137-16.56,41.904-16.56c5.332,0,9.595,4.731,14.639,4.731
	c13.291,7.39-2.256,31.145,29.233,46.531c22.798,9.775,37.744,12.51,45.425,31.328c0,0,12.285,5.811,39.927,10.845
	c0,0,0.542,2.358,0.869,6.406c2.871,7.231-5.732,5.972-9.976,8.364c0,0,1.758,8.008,8.525,12.949
	c3.389-8.252,13.687-6.602,13.687-16.313c10.757,0.933,4.673,15.845,15.078,15.479c0,0,0.83,5.269,5.83,5.269
	c3.735,0,8.989-1.865,12.69-1.323c1.665-3.472-2.524-6.147-2.524-9.668c0.62-0.732,2.026-1.768,1.885-3.472
	c0-3.179-19.932-13.77-19.932-25.938c0-3.022,1.274-6.553,1.274-6.553s4.409-2.383,14.556-2.383c1.479,0,4.595,0.098,4.595,0.098
	s2.183-0.732,5.166-0.732c5.078,0,13.853,2.451,17.539-0.781c3.208-2.803,4.868-6.274,4.868-8.447
	c0-6.353-18.77-29.502-21.953-39.587c-0.566-6.335,1.235-15.334,0.293-22.317c0,0,23.525-19.329,42.822-20.674
	c3.691,12.471,21.602,6.646,24.966,19.9c0.757,6.101,9.18,1.646,12.905,2.124C482.473,402.975,490.529,397.946,489.377,390.885
	 M360.383,463.051l-3.242-6.27c-5.288,3.105-11.353,8.34-11.353,8.34s1.25,3.921,5.098,3.921c0.513,0,1.484-0.298,2.012-0.298
	c3.32,0,5.122,4.229,9.15,2.397l0.581,0.42c0,0-1.235,9.263-8.247,5.879c-22.354-6.489-41.074-28.149-41.074-37.949
	c0-3.74,1.675-4.312,1.675-4.312s21.982,5.85,48.315,6.66c6.777,4.424,4.321,14.927,7.104,19.756
	C369.328,464.623,361.433,464.296,360.383,463.051z M403.181,460.268l-0.483,0.83c-10.894-0.586-17.71,1.66-17.71,1.66l-1.602-1.436
	l4.053-17.222l2.324,0.044L403.181,460.268z"/>
</svg>
