<?xml version="1.0" encoding="utf-8"?>
<!-- Generator: Adobe Illustrator 14.0.0, SVG Export Plug-In . SVG Version: 6.00 Build 43363)  -->
<!DOCTYPE svg PUBLIC "-//W3C//DTD SVG 1.0//EN" "http://www.w3.org/TR/2001/REC-SVG-20010904/DTD/svg10.dtd">
<svg version="1.0" id="Layer_1" xmlns="http://www.w3.org/2000/svg" xmlns:xlink="http://www.w3.org/1999/xlink" x="0px" y="0px"
	 width="800px" height="600px" viewBox="0 0 800 600" enable-background="new 0 0 800 600" xml:space="preserve">
<defs>
   <linearGradient id="colour1">
     <stop offset="100%" stop-color="red"/>
   </linearGradient>
 </defs>
<path fill="url(#colour1)" d="M113.979,238.182c8.063-13.578,18.244-25.883,37.846-37.762c9.675-5.304,30.252-17.608,66.104-11.541
	c32.775,7.001,49.323,21.087,60.673,29.148c5.516,3.819,8.698-0.105,7.531-3.183c-0.979-2.577-1.04-4.349-1.04-4.349
	c0.615-4.561,3.585-3.924,11.329-3.076l6.363,1.062c5.622,0.954,5.517,3.5,5.389,10.183c-0.212,10.606-0.297,12.516-1.357,18.244
	c-1.697,7.637-9.334,17.608-30.337,9.759c-11.243-4.88-15.062-9.971-26.729-15.487c-12.94-5.939-42.004-20.365-66.824-10.606
	c-33.307,13.365-45.188,39.246-45.611,63.855c0.318,24.608,14.85,53.036,45.611,64.405c24.82,9.76,53.884-4.666,66.824-10.605
	c11.668-5.516,15.486-10.607,26.729-15.488c21.003-7.848,28.64,2.123,30.337,9.76c1.061,5.729,1.146,7.637,1.357,18.244
	c0.128,6.684,0.233,9.229-5.389,10.184l-6.363,1.061c-7.744,0.848-10.714,1.484-11.329-3.076c0,0,0.062-1.77,1.04-4.35
	c1.167-3.076-2.016-7-7.531-3.182c-11.35,8.061-27.897,22.148-60.673,29.148c-35.853,6.066-56.43-6.238-66.104-11.541
	c-19.602-11.879-29.783-24.184-37.846-37.762c-12.941-18.584-12.198-53.375-11.773-46.692
	C101.674,291.536,100.827,258.971,113.979,238.182z M277.238,339.344c1.379,0,2.497-1.117,2.497-2.496
	c0-1.381-1.118-2.498-2.497-2.498c-1.38,0-2.498,1.117-2.498,2.498C274.74,338.227,275.858,339.344,277.238,339.344z
	 M209.352,368.619c1.379,0,2.497-1.117,2.497-2.498c0-1.377-1.118-2.496-2.497-2.496s-2.497,1.119-2.497,2.496
	C206.855,367.502,207.973,368.619,209.352,368.619z M151.649,353.77c1.379,0,2.498-1.117,2.498-2.498
	c0-1.377-1.119-2.496-2.498-2.496s-2.497,1.119-2.497,2.496C149.152,352.652,150.27,353.77,151.649,353.77z M117.543,284.58
	c0,1.378,1.118,2.496,2.496,2.496c1.379,0,2.498-1.118,2.498-2.496c0-1.38-1.119-2.497-2.498-2.497
	C118.662,282.083,117.543,283.2,117.543,284.58z M274.74,232.562c0,1.379,1.118,2.497,2.498,2.497c1.379,0,2.497-1.118,2.497-2.497
	s-1.118-2.497-2.497-2.497C275.858,230.065,274.74,231.183,274.74,232.562z M149.152,218.136c0,1.379,1.118,2.497,2.497,2.497
	s2.498-1.118,2.498-2.497s-1.119-2.497-2.498-2.497S149.152,216.757,149.152,218.136z M206.855,203.287
	c0,1.379,1.118,2.497,2.497,2.497s2.497-1.118,2.497-2.497s-1.118-2.497-2.497-2.497S206.855,201.908,206.855,203.287z"/>
<path fill="url(#colour1)" d="M147.517,257.062c4.78-7.919,10.815-15.095,22.436-22.023c5.736-3.093,17.934-10.27,39.188-6.731
	c19.43,4.083,29.24,12.298,35.968,17c3.27,2.227,5.157-0.063,4.465-1.857c-0.581-1.502-0.617-2.536-0.617-2.536
	c0.365-2.66,2.125-2.288,6.716-1.794l3.772,0.62c3.333,0.556,3.27,2.041,3.195,5.938c-0.126,6.186-0.177,7.3-0.805,10.641
	c-1.007,4.454-5.534,10.27-17.985,5.691c-6.666-2.845-8.929-5.815-15.846-9.032c-7.672-3.465-24.901-11.877-39.615-6.187
	c-19.745,7.795-26.788,22.889-27.039,37.242c0.188,14.352,8.803,30.931,27.039,37.562c14.714,5.69,31.943-2.723,39.615-6.186
	c6.917-3.218,9.18-6.187,15.846-9.033c12.451-4.577,16.978,1.237,17.985,5.691c0.627,3.342,0.679,4.453,0.805,10.641
	c0.075,3.898,0.138,5.382-3.195,5.938l-3.772,0.62c-4.591,0.493-6.351,0.865-6.716-1.794c0,0,0.036-1.033,0.617-2.538
	c0.691-1.794-1.196-4.082-4.465-1.855c-6.729,4.701-16.538,12.917-35.968,17c-21.254,3.538-33.453-3.638-39.188-6.73
	c-11.62-6.929-17.655-14.104-22.436-22.022c-7.672-10.84-7.231-31.129-6.979-27.232
	C140.222,288.178,139.719,269.186,147.517,257.062z M244.3,316.06c0.818,0,1.481-0.65,1.481-1.455c0-0.807-0.663-1.457-1.481-1.457
	c-0.818,0-1.48,0.65-1.48,1.457C242.819,315.409,243.482,316.06,244.3,316.06z M204.056,333.135c0.818,0,1.48-0.652,1.48-1.459
	c0-0.803-0.663-1.454-1.48-1.454c-0.817,0-1.48,0.651-1.48,1.454C202.576,332.482,203.239,333.135,204.056,333.135z
	 M169.848,324.474c0.817,0,1.48-0.651,1.48-1.457c0-0.803-0.663-1.455-1.48-1.455s-1.481,0.652-1.481,1.455
	C168.367,323.822,169.031,324.474,169.848,324.474z M149.629,284.121c0,0.804,0.664,1.456,1.48,1.456c0.816,0,1.48-0.652,1.48-1.456
	c0-0.805-0.664-1.457-1.48-1.457C150.293,282.665,149.629,283.316,149.629,284.121z M242.819,253.784
	c0,0.805,0.663,1.457,1.48,1.457c0.818,0,1.481-0.651,1.481-1.457c0-0.804-0.663-1.457-1.481-1.457
	C243.482,252.327,242.819,252.979,242.819,253.784z M168.367,245.371c0,0.805,0.664,1.456,1.481,1.456s1.48-0.651,1.48-1.456
	c0-0.804-0.663-1.456-1.48-1.456S168.367,244.567,168.367,245.371z M202.576,236.71c0,0.804,0.663,1.456,1.48,1.456
	c0.818,0,1.48-0.652,1.48-1.456c0-0.804-0.663-1.457-1.48-1.457C203.239,235.254,202.576,235.906,202.576,236.71z"/>
</svg>
