<?xml version="1.0" encoding="utf-8"?>
<!-- Generator: Adobe Illustrator 13.0.0, SVG Export Plug-In . SVG Version: 6.00 Build 14948)  -->
<!DOCTYPE svg PUBLIC "-//W3C//DTD SVG 1.1//EN" "http://www.w3.org/Graphics/SVG/1.1/DTD/svg11.dtd">
<svg version="1.1" id="Layer_1" xmlns="http://www.w3.org/2000/svg" xmlns:xlink="http://www.w3.org/1999/xlink" x="0px" y="0px"
	 width="102.75px" height="84.932px" viewBox="0 0 102.75 84.932" enable-background="new 0 0 102.75 84.932" xml:space="preserve">
<defs>
   <linearGradient id="colour1">
     <stop offset="100%" stop-color="red"/>
   </linearGradient>
 </defs>
 <g>
<path fill-rule="evenodd" clip-rule="evenodd" fill="url(#colour1)" d="M35.599,11.772c1.421-0.457,2.86-0.856,4.433-1.001
	c0.572,0,1.001,0,1.573,0.287c0.286,0,0.715,0.143,0.858-0.143c0.429-2.003,0.715-3.72,1.43-5.578
	c0.715-1.859,1.716-3.718,3.575-4.861c0.715-0.286,1.43-0.143,1.573,0.714c0,0.716-0.143,1.574,0.143,2.288
	c1.001,2.146,1.001,4.576,1.289,6.864c0,0.429,0.714,0.144,1.143,0c0.144,0.716,0.858,0.716,1.431,1.002
	c-0.144,0-0.287,0.143-0.144,0.286c1.287,1.144,3.146,1.43,4.433,0.715c2.574-1.287,5.005-2.432,7.15-4.291
	c0.572-0.571,1.001-1.286,1.574-2.002c0.571-0.857,0.714-2.001,1.572-2.717c0.857,2.86,0.429,5.721-0.572,8.437
	c-0.429,1.145-1,2.146-1.573,3.29c-0.572,1.001-1.715,1.715-1.859,2.859c-0.285,1.144,0.145,2.289,0.572,3.289
	c-1.572-1.144-3.289-2.001-5.147-2.574c1.145-0.143,2.432,1.287,3.003,0.286c0.43-0.714-1.001-1.144-1.573-1.858
	c-0.285-0.287-0.715-0.143-1.001,0c-0.429-0.858-1.287-1.43-2.002-1.288c-1.001,0-2.145-0.429-2.859,0.287
	c-1.002,0.714-2.003,1.43-2.86,2.288c0.429-0.716,1.287-1.146,1.144-2.003c0-0.143-0.144-0.143-0.286-0.143
	c-1.858,1.145-3.432,2.431-4.719,4.005c-0.143,0.142-0.286,0.429-0.143,0.714c0.143,0.144,0.286,0.144,0.43,0.144
	c0.857-0.571,1.43-1.287,2.144-2.003c0.43-0.284,0.716,0.43,1.145,0.286c0.143,0,0.286-0.429,0.43-0.286c0,0.145,0,0.43,0,0.573
	c1.286,1.572,2.431,3.718,1.286,5.433c-0.143,0.287-0.572-0.285-0.857-0.571c-1.002-1.43-0.429-3.146-1.287-4.576
	c-0.144,0-0.286,0-0.43,0c-0.715,0.857-1.573,1.145-2.146,2.146c-0.714,1.572-0.571,3.718,1.145,4.29
	c0.859,0.286,1.715,0.429,2.43,0.857c0.858,0.43,1.431,1.43,2.289,2.146c0.429,0.285,1.001,0.144,1.43,0.285
	c0.858,0.287,1.716,0.716,2.431,1.288c2.146,2.002,4.004,4.146,4.862,6.863c-1.287-0.429-2.431-2.431-3.718-1.43
	c1.001,2.431,3.146,3.718,4.576,5.862c0.714,0.859,1-0.285,1.43-0.715c1.716,2.289,3.289,4.434,4.575,7.008
	c-1.286,0.429-2.573,0.856-4.004,1.286c-0.429,0.144-0.285,0.716,0,0.573c4.004-0.43,7.865-1.859,11.869-2.146
	c1.859-0.143,3.862-0.287,5.721-0.143c0.43,0,1.144,0.285,1.43,0.715c0.143,0.57,0.143,1.286,0.286,1.858
	c0.429,1.002,1.287,1.717,2.002,2.574c-0.715-1.001-2.002-1.717-3.288-1.001c0.284-0.286,0.571-0.571,0.571-1.001
	c-0.144-0.285-0.429-0.429-0.716-0.285c-2.001,1.858-3.002,4.289-4.432,6.577c-0.43,0.573-1.002,1.002-0.858,1.716
	c0,0.143,0.143,0.143,0.285,0.287c1.717-2.146,3.146-4.435,4.72-6.722c-0.144,0.429-0.429,0.857-0.286,1.145
	c2.431,2.859,4.434,5.433,6.435,8.579c0.144,0.429,0.286,1.001,0.286,1.43c-0.143,0.716-1.001,0.429-1.431,0.144
	c-0.571-0.43-0.856-1.43-1.43-1.43c-2.86-0.144-5.29,2.288-5.577,5.147c-0.285,3.146,2.86,4.433,5.292,5.435
	c0.715,0.285,1,1.572,1.715,1.43c0.858-0.287-0.285-1.858-0.856-2.432c-1.43-1.286-3.718-1.286-4.576-3.002
	c-0.858-1.717,0-3.719,1.572-4.719c0.716-0.43,1.43-0.145,2.146,0.143c0.571,0.286,1,0.714,1.287,1.287
	c0.143,0.571,0,0.857-0.429,1.285c-0.287,0.43,0.142,1.003,0.429,1.432c0.143,0.572,0.715,1.286,0.857,1.859
	c0.572,1.859,0.858,3.718,2.002,5.29c0.144,0,0.429,0.145,0.429-0.143c0.144-1.001-0.429-1.717-0.715-2.718
	c-0.429-1.716-0.429-3.288-0.429-5.005c0.571,1.288,1.573,2.289,2.717,2.859c0.571,0.287,1.001,0.859,1.573,1.431
	c0.286,0.145,0.286-0.285,0.428-0.428c-0.428-1.287,0.287-2.574,0.145-3.862c-0.286-2.001-1.287-3.431-2.431-5.005
	c1.286,1.574,2.716,3.289,2.859,5.292c0.285,3.146,0.143,6.577-1.145,9.581c-0.571,1.43-2.431,1.43-3.86,1.858
	c-1.43,0.571-2.431,1.716-3.718,2.573c-0.286,0.144-0.716,0.144-1.145,0.287c-1.715,0.143-3.289-0.144-4.861-0.572
	c-1.43-0.43-2.432-1.573-3.861-1.43c-1.001,0.143-0.572,1.572-1.144,2.431c-0.286,0.429-0.573,0.857-0.858,0.857
	c-0.716,0.144-1.859,0.286-1.716,0c0-1.716,1-3.575,1.287-5.434c0-0.43-0.287-1.145-0.716-1.716
	c-0.715-0.858-1.572-1.287-2.145-2.289c-0.572-0.857-0.429-2.145-1.145-2.716c-0.429-0.43-1.144-1.001-1.858-0.715
	c-0.858,0.285-1.717,0.858-2.718,1.001c-2.144,3.718-3.146,8.008-5.434,11.725c-1.144,0-2.145,0-3.289,0
	c0.858-4.146,2.146-8.149,4.862-11.582c0.285-0.572,0.858-1.43,0.572-1.717c-1.717-1.715-2.86-3.86-2.718-6.291
	c-1.858-1.43-3.718-2.717-5.72-3.718c-0.286-0.144-0.715-0.429-1.001-0.287c-1.286,0.572-2.574,1.574-4.004,1.145
	c-3.575-1.145-6.292-4.147-7.435-7.722c-0.429-1.287-0.429-3.289-1.717-3.861c-3.718,4.147-7.293,8.009-10.582,12.728
	c-2.574,3.575-1.716,8.007-1.144,12.154c0.429,3.003-0.143,6.149-1.001,9.01c-6.292,0-12.584,0.429-18.876,1.287
	c0.716-20.163,1.001-40.47,1.86-60.632c3.86-3.004,8.15-5.149,12.583-7.438C27.019,14.776,31.166,13.203,35.599,11.772z
	 M43.606,54.531c0.144,1.143,1.001,2,1.716,2.859c0.143-0.144,0.286,0.286,0.429,0c0.287,1.145,1.431,1.43,2.288,2.146
	c0.573,0.285,1.144,0.57,1.717,0.714c0.716,0.144,1.43-0.285,2.002-0.714c-1.431-0.287-2.843-0.743-4.147-1.574
	C46.038,56.961,44.608,55.961,43.606,54.531z M67.059,25.787c-1.573-0.716-1.858-2.86-3.288-3.86
	c-0.145-0.286-0.145-0.573-0.43-0.716c-1.573-0.858-3.003-1.572-4.576-2.146c-1.716-0.571-3.575-0.143-5.291-0.143
	c-0.143,0.143-0.572-0.571-0.143-0.714c2.431-0.573,4.861-0.716,7.293-0.144c0,0,0,0.286-0.144,0.286
	c0.286-0.143,0.429,0.285,0.716,0.143c-0.43-0.285-0.716-0.715-1.146-0.858c0,0.144,0,0.286-0.143,0.286s-0.286,0-0.429,0
	c-0.571-0.571-1.001-1.286-1.717-1.43c-1-0.286-2.145-0.429-2.859,0.144c-0.857,0.429-1.43,1.144-2.288,1.716
	c0.143,0.143,0.286,0.143,0.286,0.285c0,0.286,0,0.573-0.429,0.715c1.43,1.573,2.002,3.861,1.573,6.007
	c-0.144,0.572-0.858,0.572-1.288,0.429c-0.428-0.286-0.715-0.716-1-1.144c-0.286-0.572-0.43-1.145-0.715-1.717
	c-0.144-0.715,0-1.573-0.43-2.287c0.144,0,0.144,0.142,0.144,0.285c-0.285,0.429-0.715,0.286-0.858,0.716c0,0-0.286,0-0.428,0
	c-0.858,0.857-0.858,2.146-0.573,3.288c0.143,0.43,0.715,0.858,1.144,1.145c0.286,0.143,0.715,0.143,1.001,0.143
	c1.572,0.286,2.431,2.002,3.718,2.575c1.144,0.571,2.573,0.856,3.718,1.715c2.431,2.003,4.434,4.434,5.147,7.437
	c0.145,0.857-1.143,0.285-1.572,0c-0.716-0.572-1.287-1.002-2.146-1.431c1.145,2.003,2.859,3.72,4.576,5.291
	c0.143,0.144,0.429-1.143,1.001-0.715c1.001,0.573,1.43,1.716,2.288,2.718c0.573,1.001,1.287,2.001,1.716,3.003
	c0.287,0.714,1.144,1.143,0.858,1.858c-0.143,0.714-1.145,0.286-1.716,0.858c1.43-0.429,3.003-0.715,4.433-1.001
	c-0.571,0-1.144,0.429-1.573,0.143c-0.715-0.571-0.429-1.572-1.001-2.288c-0.143-0.143-0.285-0.572-0.143-0.857
	c0.143-0.144,0.429-0.144,0.429-0.144c0.144-0.286,0-0.715,0-1.144c-0.286-1.288-1.287-2.288-1.858-3.433
	c-0.858-1.716-2.575-3.003-3.289-4.718c-0.572-1.573,0.714-3.146,1.001-4.862c0.143-0.286,0.429-0.716,0.715-0.858
	c1.287-0.287,1.287,1.572,1.716,2.431c2.146,3.575,4.433,6.578,6.864,10.297c0.715,1.144,1.43,2.001,2.146,3.146
	c0.143,0.43,0.143,1.001,0,1.43c-0.145,0.43-1.145,0.285-1.717,0.285c1.859-0.142,3.86-0.142,5.72-0.429
	c-1.572-1.716-3.002-3.288-4.433-5.291c-1.145-1.858-1.858-3.575-2.574-5.575c-0.571-2.004-0.285-3.862-0.858-5.864
	c-0.285-0.857-1.144-1.43-1.715-2.146c-0.144,0-0.572-0.143-0.716-0.285c-0.571-0.715-1.716-0.858-2.574-1.43
	c-0.285-0.144-0.549-0.406-1.001-0.858C67.917,25.787,67.488,25.931,67.059,25.787z M57.049,39.229
	c-0.286-0.143-0.858-0.285-0.858-0.143c-0.429,0.716,0,1.574,0.43,2.288c1.287,2.432,2.572,4.576,4.576,6.577
	c0.286,0.145,1-0.142,1-0.429c0.43-0.856-0.143-1.858-0.571-2.716c-0.429-0.716-0.934-1.363-1.43-2.003
	C59.192,41.517,58.05,40.516,57.049,39.229z M59.337,47.522c0.285,1.717,1.43,3.146,2.717,4.291c0.143,0,0.572-0.143,0.572-0.287
	c0.142-0.714-0.4-1.165-0.858-1.716C61.053,48.953,60.195,48.238,59.337,47.522z M64.342,46.809
	c-0.286,0.714-0.429,1.43-0.716,2.002c-0.285,0.57,0.145,1.43,0.716,1.573c0.571,0.143,0.285-0.716,0.285-1.145
	C64.627,48.381,64.484,47.666,64.342,46.809z M85.792,52.527c-1.002-0.429-2.574,0.287-2.003,1.145
	c2.003,3.289,4.576,5.72,6.293,9.01c0.143,0.43,0.286,1.144,0.143,1.572c-0.429,0.716-1.144,0.716-1.859,0.287
	c-0.572-0.287-0.714-1.145-1.287-1.288c-0.856-0.429-1.715,0.144-2.431,0.572c-1.716,0.858-3.002,2.717-2.717,4.862
	c0.286-0.572,0.429-1.145,0.571-1.859c0.286-1.002,0.716-2.002,1.716-2.287c0.572-0.287,0.858-0.716,1.431-0.573
	c0-0.143,0-0.286,0.144-0.286c0.285,0,0,0.43,0.285,0.43c1.001,0,1.716,0.858,2.146,1.573c0.285,0.571,0.715,1.716-0.286,1.858
	c0.429,1.001,1.145,2.003,1.573,3.004c0.143,0.429,0.143,1,0.143,1.572c0-0.143,0.144-0.143,0.286-0.143
	c0.144,0,0.144,0.143,0.144,0.285c0,0.145-0.144,0.145-0.286,0.145c0.286,1,0.857,1.858,1.144,2.859
	c0-0.287,0.144-0.572-0.144-0.859l-0.143,0.144c-0.143-0.572-0.143-0.857-0.285-1.286c-0.286-1.002-0.572-1.859-0.43-2.861
	c0.144,0,0.144,0.145,0.144,0.287c-0.286-1.001-0.286-2.146-0.286-3.146c0-0.143,0.286-0.143,0.429-0.143
	c0.715,1.144,1.43,2.146,2.574,2.86c0.572,0.429,1.287,0.429,1.716,1.286c0-2.146,0.572-4.146-0.715-6.149
	c-2.574-3.574-5.137-6.395-6.292-10.438C87.222,53.959,86.649,52.956,85.792,52.527z M51.854,32.842c0,0,2.479,3.336,4.861,2.384
	C56.715,35.226,52.902,33.796,51.854,32.842z M56.333,31.506l-1.144-1.238l-3.003,0.382L56.333,31.506z M55.189,32.365
	c-0.315,0-0.571,0.256-0.571,0.572c0,0.315,0.256,0.572,0.571,0.572s0.572-0.257,0.572-0.572
	C55.762,32.621,55.505,32.365,55.189,32.365z"/>
</g>
</svg>