<?xml version="1.0" encoding="utf-8"?>
<!-- Generator: Adobe Illustrator 14.0.0, SVG Export Plug-In . SVG Version: 6.00 Build 43363)  -->
<!DOCTYPE svg PUBLIC "-//W3C//DTD SVG 1.0//EN" "http://www.w3.org/TR/2001/REC-SVG-20010904/DTD/svg10.dtd">
<svg version="1.0" id="Layer_1" xmlns="http://www.w3.org/2000/svg" xmlns:xlink="http://www.w3.org/1999/xlink" 
	 width="200px" height="200px" viewBox="200 300 100 200" xml:space="preserve">
<defs>
   <linearGradient id="colour1">
     <stop offset="100%" stop-color="red"/>
   </linearGradient>
 </defs>
 <g fill="url(#colour1)" stroke="none">
<path fill-rule="evenodd" clip-rule="evenodd" d="
			M267.014,371.555c0,0,7.477-0.023,9.797,0c4.004,0.04,4.843,0.83,5.947,2.189c1.626,2.001,2.312,4.006,1.227,7.675
			c-1.105,3.739-7.174,11.794-7.174,11.794c-3.608,6.186-6.402,12.925-6.96,16.5c-1.611,10.313,0.366,14.608,2.062,18.563
			c1.655,3.858,7.735,10.055,10.571,11.603s7.735,4.383,15.727,4.642c7.992,0.258,15.388-4.441,15.388-4.441
			c5.524-3.889,10.026-9.003,11.868-18.007c1.896-9.268-2.045-19.03-4.051-23.703c-1.433-3.335-7.735-11.858-8.25-17.273
			c-0.518-5.416,3.287-8.135,5.931-8.51c1.412-0.372,12.055,0.135,12.055,0.135s0.823,7.867,0.308,9.413l-3.34-0.265
			c-3.352-0.516-1.03,3.865-1.03,3.865s6.077,9.36,9.428,18.125c3.353,8.767,2.815,15.898,2.431,21.323
			c-0.591,8.346-4.271,17.146-15.119,25.331c-5.898,4.453-15.754,10.642-33.609,7.927c-8.005-1.215-16.5-4.898-24.235-13.92
			c-8.425-9.83-11.154-19.004-9.476-33.089c1.407-11.801,12.828-26.468,13.858-28.53c1.031-2.064-0.258-2.064-0.258-2.064
			l-4.332,0.171L267.014,371.555L267.014,371.555z M276.555,386.163c0.604,0,1.095-0.654,1.095-1.459
			c0-0.807-0.491-1.459-1.095-1.459c-0.604,0-1.093,0.652-1.093,1.459C275.461,385.509,275.951,386.163,276.555,386.163
			L276.555,386.163z M320.641,387.024c0.604,0,1.096-0.652,1.096-1.46c0-0.804-0.491-1.457-1.096-1.457
			c-0.604,0-1.093,0.653-1.093,1.457C319.548,386.372,320.037,387.024,320.641,387.024L320.641,387.024z M332.501,415.127
			c0.604,0,1.095-0.653,1.095-1.457c0-0.808-0.49-1.46-1.095-1.46s-1.093,0.652-1.093,1.46
			C331.408,414.474,331.896,415.127,332.501,415.127L332.501,415.127z M325.798,440.394c0.605,0,1.095-0.654,1.095-1.458
			c0-0.806-0.489-1.46-1.095-1.46c-0.604,0-1.093,0.654-1.093,1.46C324.705,439.739,325.193,440.394,325.798,440.394
			L325.798,440.394z M297.439,453.026c0.604,0,1.092-0.653,1.092-1.457c0-0.808-0.488-1.46-1.092-1.46
			c-0.605,0-1.095,0.652-1.095,1.46C296.344,452.373,296.833,453.026,297.439,453.026L297.439,453.026z M269.335,439.362
			c0.604,0,1.094-0.652,1.094-1.459c0-0.805-0.491-1.458-1.094-1.458c-0.604,0-1.094,0.653-1.094,1.458
			C268.241,438.71,268.731,439.362,269.335,439.362L269.335,439.362z M263.407,414.61c0.604,0,1.092-0.651,1.092-1.457
			c0-0.807-0.489-1.458-1.092-1.458c-0.605,0-1.096,0.651-1.096,1.458C262.311,413.959,262.802,414.61,263.407,414.61
			L263.407,414.61z"/>
</g>
</svg>
