<?xml version="1.0" encoding="utf-8"?>
<!-- Generator: Adobe Illustrator 14.0.0, SVG Export Plug-In . SVG Version: 6.00 Build 43363)  -->
<!DOCTYPE svg PUBLIC "-//W3C//DTD SVG 1.1//EN" "http://www.w3.org/Graphics/SVG/1.1/DTD/svg11.dtd">
<svg version="1.1" id="Layer_1" xmlns="http://www.w3.org/2000/svg" xmlns:xlink="http://www.w3.org/1999/xlink" x="0px" y="0px"
	 width="643.46px" height="850.39px" viewBox="0 0 643.46 850.39" enable-background="new 0 0 643.46 850.39" xml:space="preserve">
<defs>
   <linearGradient id="colour1">
     <stop offset="100%" stop-color="#FFC425"/>
   </linearGradient>
</defs>
<path fill="url(#colour1)" d="M400.352,615.471H243.875L133.228,504.824V348.348l110.646-110.646h156.477l110.646,110.646v156.477
	L400.352,615.471L400.352,615.471z M253.402,592.471h137.422l97.174-97.174V357.875l-97.174-97.173H253.401l-97.173,97.173v137.422
	L253.402,592.471L253.402,592.471z"/>
<path id="path3204" fill="url(#colour1)" d="M250.213,293.677c17.632,4.531,9.854,26.042,2.455,36.368
	c-18.466,40.936-27.042,89.822-9.404,132.536c12.658,29.676,39.139,57.87,72.979,59.805c29.289,1.673,56.982-15.568,72.549-39.793
	c25.737-37.824,25.657-87.935,10.928-129.943c-4.755-14.672-11.661-28.547-17.488-42.747c-3.592-16.782,24.518-23.42,30.088-7.908
	c9.195,15.074,18.398,30.475,23.867,47.467c11.625,33.074,13.878,69.415,7.183,103.725c-11.292,39.055-35.188,76.79-72.495,95.201
	c-25.676,12.351-56.145,15.635-83.216,5.825c-38.24-11.282-65.359-45.046-79.756-80.972c-6.325-13.059-10.317-27.141-10.068-41.715
	c-4.104-46.04,9.754-93.084,35.959-130.876C237.688,295.975,243.872,291.796,250.213,293.677L250.213,293.677z M213.811,399.069
	c-0.644-0.09-1.501,5.88-0.834,5.973l4.938,0.693c0.69,0.097,1.46-5.89,0.855-5.975L213.811,399.069L213.811,399.069z
	 M425.139,397.604c-0.684,0.11,0.317,6.082,0.952,5.979l4.91-0.792c0.698-0.113-0.267-6.087-0.944-5.979L425.139,397.604z
	 M219.476,439.057l-4.94,0.927c-0.693,0.131,0.451,6.061,1.159,5.926l4.862-0.924C221.229,444.856,220.095,438.94,219.476,439.057
	L219.476,439.057z M425.256,436.915c-0.663-0.109-1.665,5.857-0.981,5.97l4.913,0.813c0.655,0.107,1.671-5.859,0.986-5.972
	L425.256,436.915L425.256,436.915z M228.509,478.474c-0.619,0.301,2.023,5.734,2.618,5.442l4.497-2.208
	c0.609-0.3-2.036-5.701-2.618-5.418L228.509,478.474z M414.492,482.007c0.667,0.307,3.138-5.211,2.518-5.496l-4.508-2.076
	c-0.612-0.281-3.183,5.188-2.533,5.488L414.492,482.007z M249.658,510.144c-0.499,0.465,3.625,4.852,4.077,4.43l3.664-3.42
	c0.46-0.429-3.604-4.867-4.098-4.407L249.658,510.144z M392.824,505.291c-0.473-0.421-4.544,4.04-4.011,4.516l3.713,3.314
	c0.543,0.485,4.521-4.062,4.012-4.515L392.824,505.291L392.824,505.291z"/>
</svg>
