<?xml version="1.0" encoding="utf-8"?>
<!-- Generator: Adobe Illustrator 14.0.0, SVG Export Plug-In . SVG Version: 6.00 Build 43363)  -->
<!DOCTYPE svg PUBLIC "-//W3C//DTD SVG 1.0//EN" "http://www.w3.org/TR/2001/REC-SVG-20010904/DTD/svg10.dtd">
<svg version="1.0" id="Layer_1" xmlns="http://www.w3.org/2000/svg" xmlns:xlink="http://www.w3.org/1999/xlink" x="0px" y="0px"
	 width="800px" height="600px" viewBox="0 0 800 600" enable-background="new 0 0 800 600" xml:space="preserve">
<defs>
   <linearGradient id="colour1">
     <stop offset="100%" stop-color="red"/>
   </linearGradient>
 </defs>
<g>
	<path fill="url(#colour1)" d="M161.551,155.3c-3.094,3.774-5.578,6.205-7.453,7.295c-1.875,1.09-3.82,1.635-5.836,1.635c-3.094,0-5.76-1.195-7.998-3.586
		c-2.238-2.391-3.357-5.566-3.357-9.527c0-3.844,1.043-6.938,3.129-9.281c2.086-2.343,4.465-3.516,7.137-3.516
		c1.781,0,3.598,0.633,5.449,1.898c1.852,1.266,4.031,3.902,6.539,7.91c3.188-4.125,5.695-6.855,7.523-8.191
		c2.391-1.781,4.91-2.672,7.559-2.672c3.352,0,6.217,1.278,8.596,3.832c2.379,2.555,3.568,5.906,3.568,10.055
		c0,4.523-1.418,8.051-4.254,10.582c-2.273,2.016-4.758,3.023-7.453,3.023c-2.109,0-4.201-0.708-6.275-2.127
		C166.35,161.212,164.059,158.769,161.551,155.3z M162.887,153.647c1.641,1.946,3.428,3.387,5.361,4.324
		c1.934,0.938,4.025,1.406,6.275,1.406c3.023,0,5.444-0.826,7.26-2.479c1.816-1.652,2.725-3.756,2.725-6.311
		c0-2.531-0.715-4.558-2.145-6.082c-1.429-1.523-3.164-2.285-5.203-2.285c-1.688,0-3.199,0.445-4.535,1.336
		C170.141,145.222,166.895,148.585,162.887,153.647z M157.789,149.78c-2.531-2.813-4.529-4.593-5.994-5.344
		c-1.464-0.75-3.123-1.125-4.975-1.125c-2.461,0-4.389,0.691-5.783,2.074c-1.394,1.383-2.092,3.27-2.092,5.66
		s0.691,4.336,2.074,5.836c1.383,1.5,3,2.25,4.852,2.25c1.219,0,2.438-0.311,3.656-0.932c1.219-0.621,2.379-1.506,3.48-2.654
		L157.789,149.78z"/>
</g>
</svg>
