<?xml version="1.0" encoding="utf-8"?>
<!-- Generator: Adobe Illustrator 14.0.0, SVG Export Plug-In . SVG Version: 6.00 Build 43363)  -->
<!DOCTYPE svg PUBLIC "-//W3C//DTD SVG 1.0//EN" "http://www.w3.org/TR/2001/REC-SVG-20010904/DTD/svg10.dtd">
<svg version="1.0" id="Layer_1" xmlns="http://www.w3.org/2000/svg" xmlns:xlink="http://www.w3.org/1999/xlink" x="0px" y="0px"
	 width="800px" height="600px" viewBox="0 0 800 600" enable-background="new 0 0 800 600" xml:space="preserve">
<g>
	<path fill="#FFFF00" d="M308.667,203c-13.785,0-25-11.215-25-25s11.215-25,25-25s25,11.215,25,25S322.452,203,308.667,203
		L308.667,203z M308.667,158.238c-10.897,0-19.762,8.866-19.762,19.762c0,10.897,8.865,19.762,19.762,19.762
		s19.762-8.865,19.762-19.762C328.429,167.104,319.564,158.238,308.667,158.238L308.667,158.238z"/>
	<path fill="#FFFF00" d="M273.667,203c-13.785,0-25-11.215-25-25s11.215-25,25-25s25,11.215,25,25S287.452,203,273.667,203
		L273.667,203z M273.667,158.238c-10.897,0-19.762,8.866-19.762,19.762c0,10.897,8.865,19.762,19.762,19.762
		s19.762-8.865,19.762-19.762C293.429,167.104,284.564,158.238,273.667,158.238L273.667,158.238z"/>
	<path fill="#FFFF00" d="M238.667,203c-13.785,0-25-11.215-25-25s11.215-25,25-25s25,11.215,25,25S252.452,203,238.667,203
		L238.667,203z M238.667,158.238c-10.897,0-19.762,8.866-19.762,19.762c0,10.897,8.865,19.762,19.762,19.762
		s19.762-8.865,19.762-19.762C258.429,167.104,249.564,158.238,238.667,158.238L238.667,158.238z"/>
	<path fill="#FFFF00" d="M203.667,203c-13.785,0-25-11.215-25-25s11.215-25,25-25s25,11.215,25,25S217.452,203,203.667,203
		L203.667,203z M203.667,158.238c-10.897,0-19.762,8.866-19.762,19.762c0,10.897,8.865,19.762,19.762,19.762
		s19.762-8.865,19.762-19.762C223.429,167.104,214.564,158.238,203.667,158.238L203.667,158.238z"/>
	<path fill="#FFFF00" d="M168.667,203c-13.785,0-25-11.215-25-25s11.215-25,25-25s25,11.215,25,25S182.452,203,168.667,203
		L168.667,203z M168.667,158.238c-10.897,0-19.762,8.866-19.762,19.762c0,10.897,8.865,19.762,19.762,19.762
		s19.762-8.865,19.762-19.762C188.429,167.104,179.564,158.238,168.667,158.238L168.667,158.238z"/>
	<path fill="#FFFF00" d="M308.667,238c-13.785,0-25-11.215-25-25s11.215-25,25-25s25,11.215,25,25S322.452,238,308.667,238
		L308.667,238z M308.667,193.238c-10.897,0-19.762,8.866-19.762,19.762c0,10.897,8.865,19.762,19.762,19.762
		s19.762-8.865,19.762-19.762C328.429,202.104,319.564,193.238,308.667,193.238L308.667,193.238z"/>
	<path fill="#FFFF00" d="M273.667,238c-13.785,0-25-11.215-25-25s11.215-25,25-25s25,11.215,25,25S287.452,238,273.667,238
		L273.667,238z M273.667,193.238c-10.897,0-19.762,8.866-19.762,19.762c0,10.897,8.865,19.762,19.762,19.762
		s19.762-8.865,19.762-19.762C293.429,202.104,284.564,193.238,273.667,193.238L273.667,193.238z"/>
	<path fill="#FFFF00" d="M238.667,238c-13.785,0-25-11.215-25-25s11.215-25,25-25s25,11.215,25,25S252.452,238,238.667,238
		L238.667,238z M238.667,193.238c-10.897,0-19.762,8.866-19.762,19.762c0,10.897,8.865,19.762,19.762,19.762
		s19.762-8.865,19.762-19.762C258.429,202.104,249.564,193.238,238.667,193.238L238.667,193.238z"/>
	<path fill="#FFFF00" d="M203.667,238c-13.785,0-25-11.215-25-25s11.215-25,25-25s25,11.215,25,25S217.452,238,203.667,238
		L203.667,238z M203.667,193.238c-10.897,0-19.762,8.866-19.762,19.762c0,10.897,8.865,19.762,19.762,19.762
		s19.762-8.865,19.762-19.762C223.429,202.104,214.564,193.238,203.667,193.238L203.667,193.238z"/>
	<path fill="#FFFF00" d="M168.667,238c-13.785,0-25-11.215-25-25s11.215-25,25-25s25,11.215,25,25S182.452,238,168.667,238
		L168.667,238z M168.667,193.238c-10.897,0-19.762,8.866-19.762,19.762c0,10.897,8.865,19.762,19.762,19.762
		s19.762-8.865,19.762-19.762C188.429,202.104,179.564,193.238,168.667,193.238L168.667,193.238z"/>
</g>
<g>
	<path fill="#FFFF00" d="M308.667,133c-13.785,0-25-11.215-25-25s11.215-25,25-25s25,11.215,25,25S322.452,133,308.667,133
		L308.667,133z M308.667,88.238c-10.897,0-19.762,8.866-19.762,19.762c0,10.897,8.865,19.762,19.762,19.762
		s19.762-8.865,19.762-19.762C328.429,97.104,319.564,88.238,308.667,88.238L308.667,88.238z"/>
	<path fill="#FFFF00" d="M273.667,133c-13.785,0-25-11.215-25-25s11.215-25,25-25s25,11.215,25,25S287.452,133,273.667,133
		L273.667,133z M273.667,88.238c-10.897,0-19.762,8.866-19.762,19.762c0,10.897,8.865,19.762,19.762,19.762
		s19.762-8.865,19.762-19.762C293.429,97.104,284.564,88.238,273.667,88.238L273.667,88.238z"/>
	<path fill="#FFFF00" d="M238.667,133c-13.785,0-25-11.215-25-25s11.215-25,25-25s25,11.215,25,25S252.452,133,238.667,133
		L238.667,133z M238.667,88.238c-10.897,0-19.762,8.866-19.762,19.762c0,10.897,8.865,19.762,19.762,19.762
		s19.762-8.865,19.762-19.762C258.429,97.104,249.564,88.238,238.667,88.238L238.667,88.238z"/>
	<path fill="#FFFF00" d="M203.667,133c-13.785,0-25-11.215-25-25s11.215-25,25-25s25,11.215,25,25S217.452,133,203.667,133
		L203.667,133z M203.667,88.238c-10.897,0-19.762,8.866-19.762,19.762c0,10.897,8.865,19.762,19.762,19.762
		s19.762-8.865,19.762-19.762C223.429,97.104,214.564,88.238,203.667,88.238L203.667,88.238z"/>
	<path fill="#FFFF00" d="M168.667,133c-13.785,0-25-11.215-25-25s11.215-25,25-25s25,11.215,25,25S182.452,133,168.667,133
		L168.667,133z M168.667,88.238c-10.897,0-19.762,8.866-19.762,19.762c0,10.897,8.865,19.762,19.762,19.762
		s19.762-8.865,19.762-19.762C188.429,97.104,179.564,88.238,168.667,88.238L168.667,88.238z"/>
	<path fill="#FFFF00" d="M308.667,168c-13.785,0-25-11.215-25-25s11.215-25,25-25s25,11.215,25,25S322.452,168,308.667,168
		L308.667,168z M308.667,123.238c-10.897,0-19.762,8.866-19.762,19.762c0,10.897,8.865,19.762,19.762,19.762
		s19.762-8.865,19.762-19.762C328.429,132.104,319.564,123.238,308.667,123.238L308.667,123.238z"/>
	<path fill="#FFFF00" d="M273.667,168c-13.785,0-25-11.215-25-25s11.215-25,25-25s25,11.215,25,25S287.452,168,273.667,168
		L273.667,168z M273.667,123.238c-10.897,0-19.762,8.866-19.762,19.762c0,10.897,8.865,19.762,19.762,19.762
		s19.762-8.865,19.762-19.762C293.429,132.104,284.564,123.238,273.667,123.238L273.667,123.238z"/>
	<path fill="#FFFF00" d="M238.667,168c-13.785,0-25-11.215-25-25s11.215-25,25-25s25,11.215,25,25S252.452,168,238.667,168
		L238.667,168z M238.667,123.238c-10.897,0-19.762,8.866-19.762,19.762c0,10.897,8.865,19.762,19.762,19.762
		s19.762-8.865,19.762-19.762C258.429,132.104,249.564,123.238,238.667,123.238L238.667,123.238z"/>
	<path fill="#FFFF00" d="M203.667,168c-13.785,0-25-11.215-25-25s11.215-25,25-25s25,11.215,25,25S217.452,168,203.667,168
		L203.667,168z M203.667,123.238c-10.897,0-19.762,8.866-19.762,19.762c0,10.897,8.865,19.762,19.762,19.762
		s19.762-8.865,19.762-19.762C223.429,132.104,214.564,123.238,203.667,123.238L203.667,123.238z"/>
	<path fill="#FFFF00" d="M168.667,168c-13.785,0-25-11.215-25-25s11.215-25,25-25s25,11.215,25,25S182.452,168,168.667,168
		L168.667,168z M168.667,123.238c-10.897,0-19.762,8.866-19.762,19.762c0,10.897,8.865,19.762,19.762,19.762
		s19.762-8.865,19.762-19.762C188.429,132.104,179.564,123.238,168.667,123.238L168.667,123.238z"/>
</g>
</svg>
