<?xml version="1.0" encoding="utf-8"?>
<!-- Generator: Adobe Illustrator 14.0.0, SVG Export Plug-In . SVG Version: 6.00 Build 43363)  -->
<!DOCTYPE svg PUBLIC "-//W3C//DTD SVG 1.0//EN" "http://www.w3.org/TR/2001/REC-SVG-20010904/DTD/svg10.dtd">
<svg version="1.0" id="Layer_1" xmlns="http://www.w3.org/2000/svg" xmlns:xlink="http://www.w3.org/1999/xlink" x="0px" y="0px"
	 width="800px" height="600px" viewBox="0 0 800 600" enable-background="new 0 0 800 600" xml:space="preserve">
<defs>
   <linearGradient id="colour1">
     <stop offset="100%" stop-color="#1B1464"/>
   </linearGradient> 
   <linearGradient id="colour2">
     <stop offset="100%" stop-color="#999999"/>
   </linearGradient> 
 </defs>
<g>
	<path fill="url(#colour1)" d="M398.833,317.469c-15.238,0-27.635-12.743-27.635-28.406s12.397-28.406,27.635-28.406
		s27.635,12.743,27.635,28.406S414.071,317.469,398.833,317.469L398.833,317.469z M398.833,261.593
		c-14.721,0-26.698,12.323-26.698,27.469s11.977,27.469,26.698,27.469s26.698-12.322,26.698-27.469S413.555,261.593,398.833,261.593
		L398.833,261.593z"/>
</g>
<g>
	<path fill="url(#colour1)" d="M398.938,314.803c-13.987,0-25.366-11.603-25.366-25.865c0-14.262,11.379-25.866,25.366-25.866
		c13.986,0,25.365,11.604,25.365,25.866C424.303,303.2,412.924,314.803,398.938,314.803L398.938,314.803z M398.938,263.928
		c-13.515,0-24.509,11.219-24.509,25.009s10.995,25.01,24.509,25.01s24.51-11.22,24.51-25.01S412.452,263.928,398.938,263.928
		L398.938,263.928z"/>
</g>
<polygon fill="url(#colour2)" points="444.25,319.75 429,319.75 400.375,297.5 400.125,253.625 403.625,295.875 "/>
<polygon fill="url(#colour2)" points="354.125,319.75 369.375,319.75 398,297.5 398.25,253.625 394.75,295.875 "/>
<g>
	<path fill="url(#colour1)" d="M332,325.094h4.878v12.94H332V325.094z"/>
	<path fill="url(#colour1)" d="M340.213,333.47h4.878v1.502c0.031,0.365,0.092,0.646,0.179,0.84c0.092,0.192,0.32,0.352,0.69,0.478
		c0.418,0.122,0.924,0.184,1.515,0.184c0.764,0,1.33-0.079,1.7-0.237c0.333-0.129,0.536-0.313,0.61-0.557
		c0.074-0.243,0.111-0.632,0.111-1.165c0-0.501-0.175-0.899-0.526-1.194c-0.117-0.08-0.25-0.156-0.404-0.227
		c-0.147-0.07-0.295-0.13-0.431-0.179c-0.142-0.05-0.24-0.084-0.302-0.104l-4.656-1.521c-0.714-0.266-1.189-0.45-1.417-0.555
		c-0.234-0.104-0.502-0.273-0.81-0.509c-0.635-0.504-0.952-1.188-0.952-2.054c0-0.73,0.215-1.321,0.646-1.774
		c0.45-0.469,1.133-0.82,2.058-1.055c0.917-0.234,1.777-0.379,2.571-0.436s1.46-0.085,1.996-0.085c1.115,0,2.328,0.103,3.64,0.309
		s2.254,0.671,2.827,1.396c0.185,0.196,0.324,0.556,0.416,1.078v1.284h-4.916v-1.32c-0.074-0.623-0.807-0.935-2.199-0.935
		c-0.671,0-1.207,0.091-1.602,0.27c-0.4,0.182-0.597,0.519-0.597,1.015c0,0.549,0.179,0.965,0.536,1.248
		c0.117,0.086,0.456,0.227,1.017,0.42l4.767,1.594c1.029,0.391,1.762,0.726,2.199,1.006c0.443,0.28,0.733,0.554,0.862,0.819
		c0.135,0.266,0.2,0.598,0.2,0.997v0.421c0,0.939-0.089,1.575-0.268,1.906c-0.708,1.318-3.018,1.978-6.929,1.978
		c-2.372,0-4.198-0.243-5.479-0.729c-0.696-0.263-1.164-0.556-1.404-0.881c-0.296-0.313-0.471-0.76-0.527-1.338V333.47z"/>
	<path fill="url(#colour1)" d="M359.348,325.094h4.999v5.043l5.34-5.043h5.072l-6.098,5.594l6.246,7.347h-5.331l-5.229-6.322v6.322h-4.999
		V325.094z"/>
	<polygon fill="url(#colour1)" points="387.545,338.034 392.544,338.034 387.545,325.094 381.91,325.094 376.727,338.034 381.642,338.034 
		382.016,336.938 382,336.938 384.746,328.374 387.375,337.25 387.308,337.246 	"/>
	<path fill="url(#colour1)" d="M409.913,338.034h-6.208l-4.731-9.696l0.425,9.696h-4.62v-12.94h6.32l4.804,9.495l-0.489-9.495h4.499
		V338.034z"/>
	<path fill="url(#colour1)" d="M415.29,325.094h9.046c1.478,0.036,2.7,0.251,3.668,0.645c0.818,0.337,1.346,0.716,1.579,1.137
		c0.234,0.421,0.363,0.964,0.389,1.629v6.049c0,0.316-0.013,0.555-0.037,0.716c-0.123,1.115-0.955,1.903-2.495,2.362
		c-0.585,0.155-1.164,0.255-1.736,0.297c-0.573,0.045-1.407,0.079-2.504,0.106h-7.909V325.094z M420.206,336.146h1.746
		c0.628,0,1.093-0.012,1.395-0.036c0.715-0.06,1.177-0.199,1.393-0.422c0.209-0.222,0.317-0.533,0.317-0.934v-6.451
		c0-0.537-0.229-0.904-0.685-1.102c-0.431-0.146-1.176-0.219-2.235-0.219h-1.931V336.146z"/>
	<path fill="url(#colour1)" d="M434.775,325.094h12.944v1.96h-8.029v3.043h7.567v1.96h-7.567v3.981h8.408v1.996h-13.323V325.094z"/>
	<path fill="url(#colour1)" d="M452.146,325.094h9.839c1.411,0,2.495,0.141,3.253,0.421c0.689,0.251,1.121,0.557,1.293,0.914
		c0.173,0.361,0.259,0.826,0.259,1.399v1.392c0,0.6-0.176,1.063-0.529,1.392c-0.068,0.098-0.259,0.215-0.573,0.349
		c-0.425,0.176-1.207,0.328-2.35,0.456c0.093,0,0.305,0.027,0.644,0.081c0.336,0.054,0.616,0.113,0.838,0.179
		c1.435,0.373,2.155,1.038,2.155,1.995v2.641c0,0.671,0.229,1.178,0.684,1.521c0.253,0.116,0.404,0.184,0.453,0.202h-5.411
		c-0.142-0.12-0.222-0.187-0.234-0.202c-0.302-0.328-0.465-0.677-0.489-1.047v-2.948c0-0.269-0.013-0.476-0.037-0.622
		c-0.067-0.328-0.32-0.555-0.761-0.68c-0.44-0.126-1.031-0.192-1.773-0.201h-2.344v5.7h-4.915V325.094z M457.061,330.481h2.571
		c0.937-0.027,1.553-0.13,1.854-0.309c0.166-0.102,0.265-0.202,0.302-0.302c0.03-0.1,0.07-0.306,0.113-0.616v-1.248
		c-0.073-0.424-0.265-0.71-0.569-0.859c-0.352-0.134-0.918-0.201-1.7-0.201h-2.571V330.481z"/>
</g>
<g>
	<path fill="url(#colour2)" d="M332.636,341.201h4.234c0.607,0,1.073,0.055,1.399,0.166c0.297,0.1,0.482,0.22,0.557,0.361
		c0.074,0.144,0.111,0.327,0.111,0.554v0.551c0,0.237-0.076,0.421-0.228,0.551c-0.029,0.039-0.111,0.085-0.247,0.138
		c-0.183,0.07-0.52,0.13-1.011,0.181c0.04,0,0.132,0.011,0.276,0.032c0.145,0.021,0.265,0.045,0.36,0.07
		c0.619,0.147,0.929,0.411,0.929,0.79v1.044c0,0.266,0.098,0.467,0.294,0.603c0.109,0.046,0.174,0.072,0.195,0.079h-2.329
		c-0.061-0.047-0.094-0.073-0.099-0.079c-0.131-0.13-0.201-0.269-0.211-0.414v-1.167c0-0.106-0.005-0.188-0.016-0.246
		c-0.029-0.13-0.138-0.22-0.327-0.27c-0.189-0.049-0.444-0.076-0.764-0.079h-1.008v2.255h-2.115V341.201z M334.75,343.332h1.107
		c0.402-0.011,0.668-0.051,0.797-0.122c0.072-0.04,0.115-0.079,0.129-0.119c0.015-0.039,0.031-0.121,0.05-0.243v-0.494
		c-0.032-0.168-0.114-0.281-0.246-0.34c-0.151-0.054-0.394-0.08-0.73-0.08h-1.107V343.332z"/>
	<path fill="url(#colour2)" d="M342.519,341.201h2.425l2.151,5.119h-2.151l-0.274-0.835h-1.956l-0.31,0.835h-2.115L342.519,341.201z
		 M342.976,344.695h1.463l-0.7-2.197L342.976,344.695z"/>
	<path fill="url(#colour2)" d="M352.159,343.065v-0.646c-0.005-0.021-0.011-0.052-0.016-0.092c-0.005-0.04-0.011-0.07-0.016-0.089
		c-0.024-0.151-0.12-0.26-0.288-0.324c-0.168-0.064-0.425-0.097-0.77-0.097c-0.223,0-0.413,0.02-0.572,0.059
		c-0.169,0.047-0.277,0.109-0.322,0.187c-0.045,0.077-0.073,0.182-0.083,0.314v2.737c0,0.098,0.011,0.167,0.032,0.211
		c0.077,0.246,0.413,0.369,1.01,0.369c0.249,0,0.472-0.026,0.667-0.079c0.154-0.052,0.25-0.113,0.289-0.183
		c0.038-0.07,0.062-0.193,0.069-0.369v-0.665h2.083v0.724c-0.023,0.298-0.078,0.501-0.163,0.61c-0.165,0.207-0.45,0.362-0.857,0.466
		s-0.792,0.168-1.157,0.192s-0.67,0.037-0.917,0.037c-0.392,0-0.755-0.017-1.089-0.05c-0.997-0.085-1.643-0.288-1.94-0.608
		c-0.108-0.127-0.163-0.305-0.163-0.536v-2.784c0.005-0.031,0.011-0.076,0.016-0.137c0.005-0.06,0.011-0.104,0.016-0.133
		c0.037-0.345,0.309-0.608,0.815-0.79c0.564-0.199,1.357-0.298,2.377-0.298c0.915,0,1.631,0.077,2.151,0.231
		c0.331,0.101,0.57,0.227,0.716,0.378c0.13,0.12,0.194,0.313,0.194,0.581v0.782H352.159z"/>
	<path fill="url(#colour2)" d="M355.515,341.201h2.099v5.119h-2.099V341.201z"/>
	<path fill="url(#colour2)" d="M366.439,346.32h-2.671l-2.035-3.836l0.183,3.836h-1.988v-5.119h2.719l2.067,3.756l-0.211-3.756h1.936
		V346.32z"/>
	<path fill="url(#colour2)" d="M372.776,342.854v-0.492c0-0.117-0.019-0.21-0.058-0.28c-0.038-0.069-0.139-0.128-0.301-0.177
		c-0.16-0.048-0.372-0.072-0.637-0.072c-0.282,0-0.504,0.026-0.669,0.079c-0.154,0.048-0.26,0.114-0.318,0.2
		c-0.059,0.086-0.087,0.213-0.087,0.379v2.704c0,0.102,0.026,0.191,0.079,0.27c0.144,0.153,0.449,0.23,0.917,0.23
		c0.358,0,0.636-0.043,0.832-0.131c0.163-0.087,0.243-0.238,0.243-0.456v-0.797h-1.307v-0.769h3.422v2.777h-1.806v-0.306
		c-0.193,0.093-0.346,0.158-0.457,0.197c-0.425,0.145-0.957,0.217-1.596,0.217c-0.645,0-1.155-0.06-1.532-0.179
		c-0.376-0.118-0.638-0.257-0.784-0.415c-0.061-0.066-0.116-0.217-0.163-0.45v-2.915c0.021-0.31,0.091-0.536,0.21-0.682
		c0.217-0.257,0.606-0.438,1.165-0.541c0.559-0.103,1.192-0.154,1.9-0.154c0.572,0,1.109,0.035,1.612,0.105s0.882,0.192,1.139,0.365
		c0.207,0.146,0.31,0.326,0.31,0.544v0.747H372.776z"/>
	<path fill="url(#colour2)" d="M382.103,341.201h2.425l2.151,5.119h-2.151l-0.274-0.835h-1.956l-0.31,0.835h-2.115L382.103,341.201z
		 M382.56,344.695h1.463l-0.7-2.197L382.56,344.695z"/>
	<path fill="url(#colour2)" d="M394.152,346.32h-2.672l-2.035-3.836l0.183,3.836h-1.988v-5.119h2.719l2.067,3.756l-0.21-3.756h1.936
		V346.32z"/>
	<path fill="url(#colour2)" d="M396.466,341.201h3.892c0.636,0.014,1.162,0.099,1.579,0.255c0.353,0.133,0.579,0.283,0.68,0.449
		c0.101,0.167,0.156,0.381,0.167,0.645v2.394c0,0.125-0.006,0.22-0.017,0.283c-0.053,0.441-0.41,0.753-1.073,0.935
		c-0.252,0.062-0.501,0.102-0.747,0.118c-0.247,0.018-0.605,0.031-1.078,0.041h-3.403V341.201z M398.581,345.573h0.751
		c0.271,0,0.471-0.004,0.601-0.014c0.307-0.023,0.507-0.079,0.598-0.167s0.137-0.211,0.137-0.369v-2.554
		c0-0.212-0.098-0.357-0.294-0.436c-0.185-0.058-0.506-0.086-0.962-0.086h-0.831V345.573z"/>
	<path fill="url(#colour2)" d="M408.337,341.201h3.565c0.451,0,0.819,0.011,1.105,0.032c0.286,0.022,0.553,0.076,0.799,0.164
		c0.292,0.099,0.476,0.212,0.553,0.339s0.121,0.297,0.131,0.509v0.457c0,0.149-0.021,0.271-0.063,0.363
		c-0.066,0.129-0.173,0.229-0.319,0.3c-0.147,0.07-0.291,0.116-0.43,0.139c-0.14,0.022-0.313,0.043-0.522,0.063
		c0.548,0.046,0.929,0.128,1.141,0.246c0.146,0.093,0.233,0.187,0.265,0.28c0.03,0.094,0.051,0.229,0.062,0.408v0.726
		c0,0.027-0.003,0.066-0.008,0.119c-0.006,0.052-0.009,0.089-0.009,0.113c-0.05,0.38-0.387,0.634-1.01,0.761
		c-0.228,0.045-0.445,0.071-0.653,0.08c-0.208,0.008-0.533,0.015-0.977,0.021h-3.629V341.201z M410.451,343.225h0.768
		c0.292,0,0.481-0.005,0.568-0.015c0.215-0.017,0.369-0.059,0.463-0.127c0.095-0.068,0.142-0.179,0.142-0.33v-0.349
		c0-0.105-0.018-0.181-0.052-0.225c-0.056-0.104-0.166-0.169-0.332-0.197c-0.165-0.027-0.402-0.044-0.709-0.049h-0.848V343.225z
		 M410.451,345.581h0.898c0.25,0,0.429-0.005,0.537-0.015c0.23-0.014,0.396-0.059,0.499-0.133c0.102-0.074,0.153-0.197,0.153-0.368
		v-0.602c0-0.14-0.022-0.233-0.068-0.282c-0.068-0.093-0.197-0.152-0.387-0.179c-0.19-0.025-0.429-0.039-0.718-0.039h-0.915V345.581
		z"/>
	<path fill="url(#colour2)" d="M416.657,341.201h4.234c0.606,0,1.073,0.055,1.399,0.166c0.296,0.1,0.481,0.22,0.556,0.361
		c0.074,0.144,0.111,0.327,0.111,0.554v0.551c0,0.237-0.075,0.421-0.227,0.551c-0.029,0.039-0.111,0.085-0.247,0.138
		c-0.184,0.07-0.521,0.13-1.012,0.181c0.04,0,0.132,0.011,0.276,0.032c0.146,0.021,0.266,0.045,0.36,0.07
		c0.619,0.147,0.929,0.411,0.929,0.79v1.044c0,0.266,0.098,0.467,0.294,0.603c0.108,0.046,0.174,0.072,0.195,0.079h-2.329
		c-0.062-0.047-0.095-0.073-0.1-0.079c-0.131-0.13-0.201-0.269-0.212-0.414v-1.167c0-0.106-0.005-0.188-0.016-0.246
		c-0.029-0.13-0.138-0.22-0.327-0.27c-0.189-0.049-0.444-0.076-0.764-0.079h-1.008v2.255h-2.115V341.201z M418.772,343.332h1.106
		c0.402-0.011,0.668-0.051,0.798-0.122c0.071-0.04,0.114-0.079,0.129-0.119c0.015-0.039,0.031-0.121,0.05-0.243v-0.494
		c-0.032-0.168-0.114-0.281-0.246-0.34c-0.15-0.054-0.395-0.08-0.73-0.08h-1.106V343.332z"/>
	<path fill="url(#colour2)" d="M425.042,341.201h5.569v0.775h-3.455v1.203h3.256v0.775h-3.256v1.576h3.618v0.789h-5.732V341.201z"/>
	<path fill="url(#colour2)" d="M432.516,341.201h5.569v0.775h-3.454v1.203h3.256v0.775h-3.256v1.576h3.617v0.789h-5.732V341.201z"/>
	<path fill="url(#colour2)" d="M439.989,341.201h3.892c0.637,0.014,1.162,0.099,1.579,0.255c0.353,0.133,0.579,0.283,0.68,0.449
		c0.101,0.167,0.156,0.381,0.167,0.645v2.394c0,0.125-0.006,0.22-0.017,0.283c-0.053,0.441-0.41,0.753-1.073,0.935
		c-0.252,0.062-0.501,0.102-0.747,0.118c-0.246,0.018-0.605,0.031-1.077,0.041h-3.403V341.201z M442.104,345.573h0.751
		c0.271,0,0.471-0.004,0.601-0.014c0.308-0.023,0.508-0.079,0.598-0.167c0.093-0.088,0.138-0.211,0.138-0.369v-2.554
		c0-0.212-0.098-0.357-0.294-0.436c-0.186-0.058-0.507-0.086-0.962-0.086h-0.831V345.573z"/>
	<path fill="url(#colour2)" d="M448.374,341.201h2.099v5.119h-2.099V341.201z"/>
	<path fill="url(#colour2)" d="M459.298,346.32h-2.671l-2.036-3.836l0.184,3.836h-1.988v-5.119h2.72l2.067,3.756l-0.211-3.756h1.936
		V346.32z"/>
	<path fill="url(#colour2)" d="M465.635,342.854v-0.492c0-0.117-0.02-0.21-0.058-0.28c-0.039-0.069-0.139-0.128-0.301-0.177
		c-0.159-0.048-0.371-0.072-0.637-0.072c-0.282,0-0.505,0.026-0.669,0.079c-0.155,0.048-0.261,0.114-0.319,0.2
		s-0.088,0.213-0.088,0.379v2.704c0,0.102,0.026,0.191,0.08,0.27c0.143,0.153,0.449,0.23,0.915,0.23
		c0.359,0,0.637-0.043,0.834-0.131c0.162-0.087,0.242-0.238,0.242-0.456v-0.797h-1.307v-0.769h3.422v2.777h-1.805v-0.306
		c-0.193,0.093-0.346,0.158-0.457,0.197c-0.426,0.145-0.957,0.217-1.596,0.217c-0.646,0-1.155-0.06-1.532-0.179
		c-0.377-0.118-0.639-0.257-0.784-0.415c-0.061-0.066-0.115-0.217-0.163-0.45v-2.915c0.021-0.31,0.092-0.536,0.211-0.682
		c0.217-0.257,0.605-0.438,1.165-0.541c0.559-0.103,1.192-0.154,1.899-0.154c0.573,0,1.109,0.035,1.612,0.105
		c0.502,0.07,0.882,0.192,1.139,0.365c0.207,0.146,0.311,0.326,0.311,0.544v0.747H465.635z"/>
</g>
</svg>
