<?xml version="1.0" encoding="utf-8"?>
<!-- Generator: Adobe Illustrator 14.0.0, SVG Export Plug-In . SVG Version: 6.00 Build 43363)  -->
<!DOCTYPE svg PUBLIC "-//W3C//DTD SVG 1.0//EN" "http://www.w3.org/TR/2001/REC-SVG-20010904/DTD/svg10.dtd">
<svg version="1.0" id="Layer_1" xmlns="http://www.w3.org/2000/svg" xmlns:xlink="http://www.w3.org/1999/xlink" x="0px" y="0px"
	 width="800px" height="600px" viewBox="0 0 800 600" enable-background="new 0 0 800 600" xml:space="preserve">
<defs>
   <linearGradient id="colour1">
     <stop offset="100%" stop-color="red"/>
   </linearGradient>
 </defs>
<g>
	<path fill="url(#colour1)" d="M351.03,293.051c0,0-1.074,1.074-0.644,2.148c0.43,1.072,1.289,5.582,8.161,7.087
		c6.873,1.504,10.954,1.288,16.323,0.216c5.37-1.076,12.028-4.08,14.176-4.296c2.147-0.215,1.289-0.215,3.222,0.859
		c1.933,1.072,3.437,2.147,3.65,3.006c0.216,0.859,0,1.934-0.858,3.006c-0.859,1.076-2.792,3.007-3.65,3.438
		c-0.86,0.429-1.934,3.435-0.86,5.153c1.074,1.718,5.369,7.733,6.443,10.31c1.074,2.578,1.074,3.866,2.363,5.371
		c1.288,1.503,3.651,3.65,4.295,4.51c0.645,0.858,0.645,2.148,2.148,1.933c1.503-0.215,1.718-1.074,1.288-2.363
		c-0.429-1.288-1.933-3.437-3.006-5.154c-1.074-1.718-6.015-10.739-4.726-17.182c0,0,6.013-0.859,7.517-2.577
		c1.504-1.719,4.296-3.919,5.8-4.887c1.615-1.039,4.08-1.451,4.188-0.751c0.107,0.696-1.688,3.21-2.846,3.919
		c-1.664,1.02-3.113,0-4.242,0.805c-0.805,0.698-0.966,4.135,3.975,3.062c4.939-1.075,7.67-3.214,10.164-5.942
		c2.293-2.505,8.736-9.094,11.527-10.381c2.792-1.289,4.939-0.215,6.873-1.289s4.295-0.428,5.369-1.074
		c1.074-0.645,2.578-2.576,0.859-3.005c-1.719-0.432-4.725-0.432-5.154-1.075c-0.43-0.645-1.289-1.719-2.578-2.147
		c-1.288-0.43-2.577-0.43-3.436-1.289c-0.859-0.859-2.148-1.503-4.295-1.503c-2.148,0-4.512,0.644-7.303-0.215
		c-2.793-0.859,0.43,2.362,2.576,3.65c2.148,1.288-3.436-0.215-4.939-1.933s-16.18-20.476-39.59,4.868c0,0-2.861,2.835-6.301,5.012
		c-1.887,1.192-4.6,2.612-6.73,3.223c-1.772,0.504-3.392,1.229-4.868,1.503c-3.867,0.716-6.268-0.068-8.305-0.859
		c-2.578-1.003-3.795-2.148-4.225-3.222C352.964,293.911,351.89,292.836,351.03,293.051z"/>
</g>
</svg>
