<?xml version="1.0" encoding="utf-8"?>
<!-- Generator: Adobe Illustrator 14.0.0, SVG Export Plug-In . SVG Version: 6.00 Build 43363)  -->
<!DOCTYPE svg PUBLIC "-//W3C//DTD SVG 1.0//EN" "http://www.w3.org/TR/2001/REC-SVG-20010904/DTD/svg10.dtd">
<svg version="1.0" id="Layer_1" xmlns="http://www.w3.org/2000/svg" xmlns:xlink="http://www.w3.org/1999/xlink" x="0px" y="0px"
	 width="800px" height="600px" viewBox="0 0 800 600" enable-background="new 0 0 800 600" xml:space="preserve">
<defs>
   <linearGradient id="colour0">
     <stop offset="100%" stop-color="white"/>
   </linearGradient> 
   <linearGradient id="colour1">
     <stop offset="100%" stop-color="#C70000"/>
   </linearGradient> 
   <linearGradient id="colour2">
     <stop offset="100%" stop-color="black"/>
   </linearGradient> 
 </defs>
<g> 
<polygon fill="url(#colour1)" points="352,235.667 384,235.667 384,264.667 405.667,236.667 438.334,236.667 409.667,276 441,318.333 
	404.334,318.333 384.667,291.333 384.667,316.667 352,316.667 "/>
<g>
	<path fill="url(#colour0)" d="M377.333,261.2c-6.201,2.638-10.534,8.61-10.534,15.567s4.333,12.929,10.534,15.567V261.2z"/>
	<path fill="url(#colour0)" d="M391.25,261.066v31.401c6.363-2.57,10.834-8.631,10.834-15.701S397.613,263.636,391.25,261.066z"/>
</g>
<g>
	<path fill="url(#colour2)" d="M354.555,357.15h2.365l2.86,7.854h-2.508l-0.33-1.122h-2.497l-0.352,1.122h-2.431L354.555,357.15z M356.458,362.199
		l-0.704-2.42h-0.022l-0.759,2.42H356.458z"/>
	<path fill="url(#colour2)" d="M367.722,361.968c0,2.148-1.192,3.223-3.575,3.223c-2.391,0-3.586-1.074-3.586-3.223v-4.817h2.42v4.278
		c0,0.279,0.009,0.51,0.027,0.693c0.018,0.184,0.062,0.361,0.132,0.533c0.07,0.173,0.187,0.312,0.352,0.418s0.387,0.159,0.666,0.159
		c0.271,0,0.488-0.053,0.649-0.159s0.277-0.245,0.347-0.418c0.07-0.172,0.112-0.35,0.126-0.533s0.022-0.414,0.022-0.693v-4.278h2.42
		V361.968z"/>
	<path fill="url(#colour2)" d="M371.142,362.364c0,0.19,0.029,0.362,0.088,0.517c0.081,0.213,0.226,0.361,0.435,0.445c0.209,0.085,0.449,0.127,0.72,0.127
		c0.11,0,0.222-0.011,0.335-0.033s0.222-0.059,0.325-0.11c0.103-0.051,0.185-0.124,0.248-0.22c0.062-0.095,0.093-0.213,0.093-0.352
		c0-0.103-0.026-0.189-0.077-0.259c-0.052-0.069-0.138-0.136-0.259-0.198s-0.286-0.126-0.495-0.192s-0.497-0.15-0.863-0.253
		l-0.132-0.033c-0.426-0.124-0.765-0.232-1.018-0.324s-0.497-0.218-0.731-0.38c-0.235-0.161-0.424-0.368-0.567-0.621
		c-0.143-0.253-0.214-0.56-0.214-0.919c0-0.433,0.086-0.815,0.259-1.149c0.172-0.333,0.407-0.606,0.704-0.819
		c0.297-0.213,0.634-0.37,1.012-0.473c0.377-0.103,0.775-0.154,1.193-0.154c0.447,0,0.862,0.046,1.243,0.138
		s0.722,0.238,1.023,0.439c0.301,0.202,0.541,0.468,0.721,0.798c0.179,0.33,0.276,0.726,0.292,1.188h-2.288c0-0.015,0-0.033,0-0.056
		c0.007-0.029,0.011-0.048,0.011-0.055c0-0.213-0.099-0.385-0.297-0.518c-0.095-0.065-0.206-0.115-0.33-0.148
		c-0.125-0.032-0.253-0.049-0.385-0.049c-0.22,0-0.42,0.038-0.6,0.115s-0.27,0.215-0.27,0.412c0.015,0.198,0.146,0.351,0.396,0.457
		c0.249,0.106,0.642,0.226,1.177,0.357c0.337,0.081,0.572,0.14,0.704,0.176c0.315,0.088,0.6,0.188,0.853,0.297
		c0.253,0.11,0.482,0.252,0.688,0.424s0.369,0.387,0.49,0.644c0.121,0.257,0.181,0.558,0.181,0.902c0,0.491-0.103,0.911-0.308,1.259
		c-0.206,0.349-0.48,0.629-0.825,0.842s-0.731,0.367-1.161,0.462c-0.429,0.096-0.875,0.143-1.336,0.143
		c-0.293,0-0.625-0.034-0.996-0.104c-0.37-0.069-0.744-0.203-1.122-0.401c-0.377-0.197-0.693-0.487-0.946-0.869
		c-0.253-0.381-0.383-0.864-0.391-1.451H371.142z"/>
	<path fill="url(#colour2)" d="M378.667,359.163h-2.2v-2.013h6.82v2.013h-2.2v5.841h-2.42V359.163z"/>
	<path fill="url(#colour2)" d="M384.453,357.15h4.609c0.726,0,1.335,0.195,1.826,0.588s0.737,0.944,0.737,1.655c0,0.434-0.101,0.835-0.302,1.205
		s-0.493,0.625-0.875,0.765c0.33,0.124,0.594,0.357,0.792,0.698c0.198,0.341,0.319,0.761,0.363,1.26
		c0.007,0.059,0.015,0.146,0.022,0.264c0.015,0.337,0.039,0.625,0.072,0.863c0.033,0.238,0.09,0.424,0.17,0.556h-2.42
		c-0.088-0.301-0.154-0.704-0.198-1.21v-0.011c-0.022-0.25-0.046-0.453-0.071-0.61c-0.026-0.158-0.075-0.307-0.148-0.446
		c-0.074-0.139-0.18-0.251-0.319-0.335c-0.139-0.084-0.323-0.127-0.55-0.127h-1.287v2.739h-2.42V357.15z M386.873,360.582h1.265
		c0.139,0,0.268-0.009,0.385-0.027c0.118-0.019,0.228-0.054,0.33-0.104c0.103-0.052,0.187-0.131,0.253-0.236
		c0.066-0.106,0.099-0.244,0.099-0.413c0-0.264-0.09-0.46-0.27-0.588c-0.18-0.129-0.489-0.193-0.929-0.193h-1.133V360.582z"/>
	<path fill="url(#colour2)" d="M395.057,357.15h2.365l2.86,7.854h-2.508l-0.33-1.122h-2.497l-0.352,1.122h-2.431L395.057,357.15z M396.959,362.199
		l-0.704-2.42h-0.022l-0.759,2.42H396.959z"/>
	<path fill="url(#colour2)" d="M401.096,357.15h2.42v5.841h3.476v2.013h-5.896V357.15z"/>
	<path fill="url(#colour2)" d="M408.3,357.15h2.42v7.854h-2.42V357.15z"/>
	<path fill="url(#colour2)" d="M414.416,357.15h2.365l2.86,7.854h-2.508l-0.33-1.122h-2.497l-0.353,1.122h-2.431L414.416,357.15z M416.319,362.199
		l-0.704-2.42h-0.021l-0.76,2.42H416.319z"/>
</g>
<text fill="black" transform="matrix(1 0 0 1 351.75 337.3154)"><tspan x="0" y="0" font-family="'Helvetica95-Black'" font-size="19" letter-spacing="1">KIDNEY</tspan><tspan x="0" y="18" font-family="'Helvetica95-Black'" font-size="19" letter-spacing="1">HEALTH</tspan></text>
</g>
</svg>
