<?xml version="1.0" encoding="utf-8"?>
<!-- Generator: Adobe Illustrator 14.0.0, SVG Export Plug-In . SVG Version: 6.00 Build 43363)  -->
<!DOCTYPE svg PUBLIC "-//W3C//DTD SVG 1.0//EN" "http://www.w3.org/TR/2001/REC-SVG-20010904/DTD/svg10.dtd">
<svg version="1.0" id="Layer_1" xmlns="http://www.w3.org/2000/svg" xmlns:xlink="http://www.w3.org/1999/xlink" x="0px" y="0px"
	 width="178px" height="178px" viewBox="0 0 178 178" enable-background="new 0 0 178 178" xml:space="preserve">
<defs>
   <linearGradient id="colour1">
     <stop offset="100%" stop-color="black"/>
   </linearGradient> 
 </defs>
<g id="_x23_000000ff">
	<path fill="url(#colour1)" d="M118,13.98c2.35-3.39,5.67-5.92,8.91-8.39c1.52,4.86,2.02,9.93,2.68,14.96c0.68,2.17,3.311,2,5.1,2.55
		c-1.39-1.94-3.219-5.37-0.289-6.85c3.939-2.16,8.279,3.31,5.75,6.81c-1.98,3.89-6.791,3.7-10.461,3.03
		c0.141,5.16-0.279,10.42,0.771,15.51c2.25,2.74,6.14,2.43,8.55,0.11c-2.76-0.55-5.66-2.49-5.33-5.67
		c0.73-3.45,5.23-4.71,7.971-2.74c4.949,2.62,4.14,10.33-0.301,13.05c-2.879,2.2-6.629,2.23-10.08,1.83
		c2.141,8.07,5.041,16.39,11.25,22.28c3.69,3.61,9.121,6.13,14.311,4.51c4.79-1.27,10.33-4.41,10.59-9.97
		c0.45-5.97-5.24-13.19-11.689-11.25c-3.201,0.67-3.811,4.14-4.73,6.74c3.42-4.26,11.3-1.01,10.37,4.47
		c-0.44,4.71-6.22,6.28-10.04,4.72c-5.471-2.34-8.109-9.59-5.43-14.91c1.97-4.62,6.869-7.95,11.97-7.39
		c10.54,0.55,17.93,13,14.18,22.69c-1.739,4.92-6.31,8.34-11.21,9.73c-7.54,2-16.119,0.64-22.15-4.49
		c-8.959-7.39-12.959-19.09-14.359-30.28c-1.42-8.97-0.12-18.04-0.74-27.05c-0.27-2.47,0.641-4.82,1.16-7.19
		c-6.87,14.25-16.15,27.43-28.13,37.85C90.35,54.3,83.4,59.1,76.54,63.99c-0.12,2.43-0.62,5.27,1.18,7.25
		c1.46,1.82,3.85,2.3,5.96,2.95c-4.09-4.74,1.4-12.18,7.179-10.2c6.641,1.26,7.931,10.83,2.57,14.47
		c-8.54,6.98-22.45,1.11-24.84-9.26c-7.03,4.63-13.83,9.63-20.14,15.2c-4.88,3.47-3.74,12.03,1.5,14.61
		c1.9,1.061,4.14,1.04,6.25,1.301c-2.08-2.471-3.62-5.851-1.84-8.951c2.1-5.759,9.97-6.649,14.41-3.129
		c4.52,3.51,5.25,10.76,1.64,15.18c-5.28,6.51-15.07,8.199-22.56,4.77c-5.33-2.05-9.43-6.35-11.81-11.47
		c-8.88,10.351-16.73,22.49-18.4,36.3c-0.8,7.811,1.45,16.51,7.79,21.58c7.3,5.66,16.76,10.26,26.18,7.83
		c9.61-2.52,16.07-12.63,15.26-22.359c-1.06-6.15-7.21-11.48-13.61-10.601c-2.79,0.24-5.29,1.61-7.6,3.09
		c7.95-0.579,12.28,9.931,7.73,15.81c-4.61,6-14.35,6.181-19.48,0.73c-5.83-4.93-6.06-14.01-1.88-20.061
		C39.02,117.45,55.57,115,67,121c8.24,4.88,13.46,15.029,11.36,24.59c-2.17,16.07-18.12,29.18-34.37,27.41
		c-10.07,0.82-19.51-4.66-26.46-11.529c-6.88-7.061-11.83-16.441-12.15-26.441c-0.53-13.09,4.94-25.719,12.48-36.17
		C31.02,80.58,49.72,67.3,68.83,55.87C87.06,44.37,105.34,31.76,118,13.98z"/>
	<path fill="url(#colour1)" d="M119.49,22.69c0.35-2.56,1.84-4.73,3.42-6.69c1.98,18.36-3.71,36.61-12.25,52.68c-2.07,2.48-0.2,6.25,2.619,7.11
		c1.521,0.25,3.07,0.22,4.621,0.28c-1.51-1.84-3.33-4.03-2.371-6.59c1.121-4.53,7.98-5.31,10.431-1.44
		c3.11,4.17,0.12,9.82-3.91,12.1c-5.12,3.18-12.01,1.81-16.239-2.26c-3.311,5.88-6.15,12.04-8.49,18.37
		c-1.5,3.33,0.859,7.21,3.88,8.721c2.579,1.229,5.36,0.18,7.72-1.011c-5.93-0.97-6.23-9.89-1.05-12.069
		c5.5-3.431,12.75,1.92,12.159,8.06c-0.76,7.69-8.529,13.28-16.02,12.85c-3.949,0.2-7.57-1.61-10.789-3.71
		c-1.82,9.971-3.031,20.561,0.18,30.381c2.149,6.729,7.479,13.059,14.779,14.159c6.7,0.88,14.291,0.78,19.801-3.68
		c6.49-5.14,7.629-15.32,3.14-22.091c-2.96-3.699-8.81-5.18-12.95-2.609c-1.891,1.09-3.141,2.92-4.449,4.609
		c5.27-1.699,11.42,2.4,11.139,8.08c-0.379,6.58-8.139,10.951-14.109,8.36c-5.23-1.489-8.43-7.01-8.07-12.3
		c-0.039-9.6,8.37-17.24,17.311-19.061c5.58-1.33,11.48,0.69,15.85,4.211c3.93,3.27,5.77,8.35,6.6,13.26
		c1.551,10.05-3.77,20.359-12.02,26c-12.47,8.061-29.99,4.57-40.1-5.74c-7.94-8.391-10.08-20.6-9.18-31.76
		c1.4-16.29,8.02-31.6,15.94-45.7C106.66,58.76,116.48,41.77,119.49,22.69z"/>
</g>
</svg>
