<?xml version="1.0" encoding="utf-8"?>
<!-- Generator: Adobe Illustrator 14.0.0, SVG Export Plug-In . SVG Version: 6.00 Build 43363)  -->
<!DOCTYPE svg PUBLIC "-//W3C//DTD SVG 1.0//EN" "http://www.w3.org/TR/2001/REC-SVG-20010904/DTD/svg10.dtd">
<svg version="1.0" id="Layer_1" xmlns="http://www.w3.org/2000/svg" xmlns:xlink="http://www.w3.org/1999/xlink" x="0px" y="0px"
	 width="800px" height="600px" viewBox="0 0 800 600" enable-background="new 0 0 800 600" xml:space="preserve">
<defs>
   <linearGradient id="colour1">
     <stop offset="100%" stop-color="#1B1464"/>
   </linearGradient> 
 </defs>
<g>
	<path fill="url(#colour1)" d="M123.541,139.879h5.217v19.49h0.178c1.082-1.56,2.161-2.998,3.179-4.319l12.354-15.171h6.477l-14.631,17.151l15.769,23.267
		h-6.174l-13.313-19.849l-3.838,4.436v15.413h-5.217V139.879z"/>
	<path fill="url(#colour1)" d="M151.06,140.358c2.517-0.42,5.815-0.779,10.015-0.779c5.156,0,8.933,1.199,11.333,3.359
		c2.219,1.919,3.538,4.856,3.538,8.455c0,3.657-1.079,6.536-3.118,8.635c-2.759,2.937-7.256,4.438-12.354,4.438
		c-1.56,0-2.998-0.061-4.197-0.361v16.191h-5.217V140.358z M156.277,159.848c1.138,0.3,2.578,0.42,4.316,0.42
		c6.296,0,10.134-3.059,10.134-8.635c0-5.337-3.777-7.915-9.534-7.915c-2.28,0-4.019,0.181-4.917,0.42V159.848z"/>
</g>
</svg>
