<?xml version="1.0" encoding="utf-8"?>
<!-- Generator: Adobe Illustrator 14.0.0, SVG Export Plug-In . SVG Version: 6.00 Build 43363)  -->
<!DOCTYPE svg PUBLIC "-//W3C//DTD SVG 1.1//EN" "http://www.w3.org/Graphics/SVG/1.1/DTD/svg11.dtd">
<svg version="1.1" id="Elements" xmlns="http://www.w3.org/2000/svg" xmlns:xlink="http://www.w3.org/1999/xlink" x="0px" y="0px"
	 width="216px" height="180.797px" viewBox="0 0 216 180.797" enable-background="new 0 0 216 180.797" xml:space="preserve">
<defs>
   <linearGradient id="colour1">
     <stop offset="100%" stop-color="#FEEA3F"/>
   </linearGradient>
   <linearGradient id="colour2">
     <stop offset="100%" stop-color="#9ABB50"/>
   </linearGradient>
</defs>
<path fill="url(#colour1)" d="M171.597,118.795c9.2,0,12.584-15.867,12-24.795c-0.583-8.927-2.229-26.281-7.698-31.755
	c-6.276-6.271-63.102,31.966-63.102,34.953C112.799,102.797,162.403,118.795,171.597,118.795z"/>
<path fill="url(#colour1)" d="M104.802,85.998c8.003,8.088,61.346-38.597,55.956-43.986c-5.382-5.382-27.278-23.275-53.217-23.641
	C102.778,18.302,96.8,77.915,104.802,85.998z"/>
<path fill="url(#colour1)" d="M134.986,162.842c4.986,0,34.215-30.842,34.215-34.846c0-3.131-63.002-23.4-63.598-21.6
	C104.716,109.055,131.839,162.842,134.986,162.842z"/>
<path fill="url(#colour1)" d="M117.014,168.295c9.269-3.496-17.757-61.973-21.413-61.898c-4.283,0.087-27.604,47.6-25.2,54.404
	C72.798,167.599,107.198,172,117.014,168.295z"/>
<path fill="url(#colour1)" d="M109.421,94.784c2.77-2.771-6.041-0.66-6.99-1.603c-0.944-0.951-1.51-7.14-3.229-7.14
	c-0.994,0-3.248,4.587-4.198,5.538c-0.942,0.943-7.425-3.353-8.008-2.77c-0.584,0.584,3.204,6.115,3.204,6.841
	c0,0.733-1.018,9.617,3.788,6.558c4.805-3.062,7.281,5.681,8.009,0.875C102.722,98.276,106.659,97.545,109.421,94.784z"/>
<path fill="url(#colour1)" d="M93.199,84.799c3.203-3.197-1.745-65.684-8.469-65.684c-9.927,0-24.094,5.836-32.755,11.889
	C43.321,37.051,30.402,44.401,35.2,52.801C40,61.201,90.001,87.996,93.199,84.799z"/>
<path fill="url(#colour1)" d="M56.128,159.362c4.154,2.471,33.104-57.764,30.273-57.764c-4.799,0-51.598,6.799-61.997,10.803
	c-10.399,4-2.757,17.148,7.152,27.051C41.458,149.353,49.461,155.394,56.128,159.362z"/>
<path fill="url(#colour1)" d="M82.8,94.086c0-3.688-50.473-35.592-58.233-35.592c-7.767,0-16.005,46.477-8.883,46.477
	C22.803,104.969,82.8,97.775,82.8,94.086z"/>
<path fill="url(#colour2)" d="M99.203,0c54.782,0,99.196,40.472,99.196,90.399c0,49.928-44.414,90.398-99.196,90.398
	C44.415,180.797,0,140.327,0,90.399C0,40.472,44.415,0,99.203,0z M171.597,118.795c9.2,0,12.584-15.867,12-24.795
	c-0.583-8.927-2.229-26.281-7.698-31.755c-6.276-6.271-63.102,31.966-63.102,34.953
	C112.799,102.797,162.403,118.795,171.597,118.795z M104.802,85.998c8.003,8.088,61.346-38.597,55.956-43.986
	c-5.382-5.382-27.278-23.275-53.217-23.641C102.778,18.302,96.8,77.915,104.802,85.998z M134.986,162.842
	c4.986,0,34.215-30.842,34.215-34.846c0-3.131-63.002-23.4-63.598-21.6C104.716,109.055,131.839,162.842,134.986,162.842z
	 M117.014,168.295c9.269-3.496-17.757-61.973-21.413-61.898c-4.283,0.087-27.604,47.6-25.2,54.404
	C72.798,167.599,107.198,172,117.014,168.295z M109.421,94.784c2.77-2.771-6.041-0.66-6.99-1.603c-0.944-0.951-1.51-7.14-3.229-7.14
	c-0.994,0-3.248,4.587-4.198,5.538c-0.942,0.943-7.425-3.353-8.008-2.77c-0.584,0.584,3.204,6.115,3.204,6.841
	c0,0.733-1.018,9.617,3.788,6.558c4.805-3.062,7.281,5.681,8.009,0.875C102.722,98.276,106.659,97.545,109.421,94.784z
	 M93.199,84.799c3.203-3.197-1.745-65.684-8.469-65.684c-9.927,0-24.094,5.836-32.755,11.889
	C43.321,37.051,30.402,44.401,35.2,52.801C40,61.201,90.001,87.996,93.199,84.799z M56.128,159.362
	c4.154,2.471,33.104-57.764,30.273-57.764c-4.799,0-51.598,6.799-61.997,10.803c-10.399,4-2.757,17.148,7.152,27.051
	C41.458,149.353,49.461,155.394,56.128,159.362z M82.8,94.086c0-3.688-50.473-35.592-58.233-35.592
	c-7.767,0-16.005,46.477-8.883,46.477C22.803,104.969,82.8,97.775,82.8,94.086z M216,90.396h-0.007v0.007H216V90.396z"/>
</svg>
