<?xml version="1.0" encoding="utf-8"?>
<!DOCTYPE svg PUBLIC "-//W3C//DTD SVG 1.1//EN" "http://www.w3.org/Graphics/SVG/1.1/DTD/svg11.dtd">
<svg version="1.1" id="Layer_1" xmlns="http://www.w3.org/2000/svg" xmlns:xlink="http://www.w3.org/1999/xlink" x="0px" y="0px"
	 width="643.46px" height="850.39px" viewBox="0 0 643.46 850.39" enable-background="new 0 0 643.46 850.39" xml:space="preserve">
<defs>
   <linearGradient id="colour1">
     <stop offset="100%" stop-color="#ED1C24"/>
   </linearGradient>
</defs>
<g>
	<path fill="url(#colour1)" d="M336.926,297.924c-1.989,2.551-5.065,4.175-7.238,6.726l-6.531,5.969
		c-10.693,1.636-17.944,6.335-28.613,8.337c-13.782,2.527-26.111,8.521-38.245,15.051c-0.916,0.171-1.282-0.928-1.282-1.636
		c0.195-1.465,0.549-2.539-0.159-4.175c-2.551-1.648-4.907-3.992-8.167-4.175c-1.086,2.527,0.366,4.907-0.549,7.605
		c-3.076,0.745-5.969-1.074-8.154-3.076c-1.807-1.453-0.171-3.076-0.72-4.895c27.905-20.105,61.438-30.432,97.668-26.44
		C335.656,297.399,336.389,297.753,336.926,297.924"/>
	<path fill="url(#colour1)" d="M350.525,299.572c0.17,2.527-3.626,1.624-4.896,3.247c-1.989,1.086-4.528,2.002-5.065,4.529
		c9.24,0.183,17.383-3.247,24.633-7.776c1.111-0.378,1.453,0.72,1.258,1.428c-0.354,7.275-8.508,9.973-13.563,13.794
		c1.807,2.356,5.604,2.356,8.326,1.978c5.236-2.722,10.314-6.702,14.66-11.047c0.928,0,2.002-0.171,2.539,0.72
		c-1.27,6.36-5.957,11.963-9.424,17.407c-2.344,1.624-4.883,3.247-7.959,3.625c-1.636,3.247,1.453,6.323,2.893,8.679
		c2.918,4.553,7.605,0.745,11.243,0.378c1.27,1.624-0.537,4.175-1.099,5.798c-1.807,3.247-4.688,5.969-7.971,7.605l-6.152,0.195
		l-0.721,0.525c1.807,5.981,2.527,11.78,3.076,17.969c1.086,2.686,3.26,6.152,6.519,5.957c1.978-0.171,3.638-2.173,5.444-1.465
		c-1.807,5.811-6.543,10.522-13.049,10.693c-1.99,0.391-4.529-2.881-5.615,0.195c-2.174,12.5,16.857,16.479,14.66,29.541
		c-0.537,6.885-3.613,13.037-7.959,18.848c-0.366,0.171-1.086,0.537-1.636,0.171c-2.173-4.346,0.183-10.327-4.7-13.062
		c-3.454-0.537-6.713-0.146-9.984-1.611l-0.537,0.732c-0.172,7.08,0.183,14.111-4.529,20.093
		c-4.175,6.909-11.963,9.253-16.675,15.405c-0.537-0.171-0.708-0.342-1.087-0.903c0.184-4.712,4.541-9.937,2.723-14.844
		c-1.807,0.171-2.173,2.515-3.259,3.442c-3.992,8.691-13.586,10.498-21.375,13.916v-1.611c2.173-4.883,6.152-9.961,2.893-15.747
		c-1.819-3.809-1.453-7.251-0.72-11.426l-0.732-0.732c-5.261,2.368-10.156,4.37-15.759,5.786c-3.259,1.66-4.541,4.199-6.885,6.372
		c-1.819,0.513-1.636-1.294-1.453-2.173c0.537-5.811,3.992-11.255,7.788-15.967v-0.732c-5.432,1.123-11.792,0.732-17.041-1.074
		c-4.333-0.195-6.152,4.15-8.691,6.885c-0.72,0.537-1.624-0.366-1.624-1.074c-0.903-7.617,4.883-14.307,10.693-18.848l-0.732-0.732
		c-4.358,0.342-9.412-0.366-12.878,2.539c-0.891-0.342,0-1.27,0.195-1.807c5.078-4.346,11.23-6.689,16.663-10.693
		c5.994-4.712,10.156-11.792,17.59-13.965c8.508-3.809,18.481-2.686,25.537-9.229c-0.354-0.366,0.549-0.903-0.171-1.27
		c-2.905,1.807-6.714,5.42-10.339,3.076c-0.903-0.537,0.549-2.002-0.537-2.71c-3.992,2.515-9.961,5.591-14.124,2.319
		c1.074-2.148,4.712-3.223,5.066-6.494c-1.44-1.99-0.195-4.895-2.356-6.348c-5.981,0-11.963-0.903-14.673-6.519
		c-1.453-2.185-2.356-5.078-4.541-6.702c-4.7,0.366-9.412,7.593-13.586,1.819c-0.549-3.65,3.076-5.627,5.078-8.35
		c3.259-2.356,7.776-4.7,11.768-2.356c5.444,4.175,5.261,15.051,14.502,13.782c1.636-0.549,3.259-1.27,4.907-2.173
		c-1.453-1.099-3.271-1.282-4.907-1.831c-4.163-3.796-6.714-7.251-8.167-12.317c-0.891-2.356-5.603-2.527-3.247-5.786
		c4.7-9.07,16.858-1.099,23.01-8.167c7.068-5.981,15.588-8.679,24.475-9.961c4.517-6.873,9.766-16.504,19.922-14.307
		L350.525,299.572"/>
	<path fill="none" stroke="url(#colour1)" stroke-width="0" stroke-linecap="square" stroke-miterlimit="2" d="M350.525,299.572
		c0.17,2.527-3.626,1.624-4.896,3.247c-1.989,1.086-4.528,2.002-5.065,4.529c9.24,0.183,17.383-3.247,24.633-7.776
		c1.111-0.378,1.453,0.72,1.258,1.428c-0.354,7.275-8.508,9.973-13.563,13.794c1.807,2.356,5.604,2.356,8.326,1.978
		c5.236-2.722,10.314-6.702,14.66-11.047c0.928,0,2.002-0.171,2.539,0.72c-1.27,6.36-5.957,11.963-9.424,17.407
		c-2.344,1.624-4.883,3.247-7.959,3.625c-1.636,3.247,1.453,6.323,2.893,8.679c2.918,4.553,7.605,0.745,11.243,0.378
		c1.27,1.624-0.537,4.175-1.099,5.798c-1.807,3.247-4.688,5.969-7.971,7.605l-6.152,0.195l-0.721,0.525
		c1.807,5.981,2.527,11.78,3.076,17.969c1.086,2.686,3.26,6.152,6.519,5.957c1.978-0.171,3.638-2.173,5.444-1.465
		c-1.807,5.811-6.543,10.522-13.049,10.693c-1.99,0.391-4.529-2.881-5.615,0.195c-2.174,12.5,16.857,16.479,14.66,29.541
		c-0.537,6.885-3.613,13.037-7.959,18.848c-0.366,0.171-1.086,0.537-1.636,0.171c-2.173-4.346,0.183-10.327-4.7-13.062
		c-3.454-0.537-6.713-0.146-9.984-1.611l-0.537,0.732c-0.172,7.08,0.183,14.111-4.529,20.093
		c-4.175,6.909-11.963,9.253-16.675,15.405c-0.537-0.171-0.708-0.342-1.087-0.903c0.184-4.712,4.541-9.937,2.723-14.844
		c-1.807,0.171-2.173,2.515-3.259,3.442c-3.992,8.691-13.586,10.498-21.375,13.916v-1.611c2.173-4.883,6.152-9.961,2.893-15.747
		c-1.819-3.809-1.453-7.251-0.72-11.426l-0.732-0.732c-5.261,2.368-10.156,4.37-15.759,5.786c-3.259,1.66-4.541,4.199-6.885,6.372
		c-1.819,0.513-1.636-1.294-1.453-2.173c0.537-5.811,3.992-11.255,7.788-15.967v-0.732c-5.432,1.123-11.792,0.732-17.041-1.074
		c-4.333-0.195-6.152,4.15-8.691,6.885c-0.72,0.537-1.624-0.366-1.624-1.074c-0.903-7.617,4.883-14.307,10.693-18.848l-0.732-0.732
		c-4.358,0.342-9.412-0.366-12.878,2.539c-0.891-0.342,0-1.27,0.195-1.807c5.078-4.346,11.23-6.689,16.663-10.693
		c5.994-4.712,10.156-11.792,17.59-13.965c8.508-3.809,18.481-2.686,25.537-9.229c-0.354-0.366,0.549-0.903-0.171-1.27
		c-2.905,1.807-6.714,5.42-10.339,3.076c-0.903-0.537,0.549-2.002-0.537-2.71c-3.992,2.515-9.961,5.591-14.124,2.319
		c1.074-2.148,4.712-3.223,5.066-6.494c-1.44-1.99-0.195-4.895-2.356-6.348c-5.981,0-11.963-0.903-14.673-6.519
		c-1.453-2.185-2.356-5.078-4.541-6.702c-4.7,0.366-9.412,7.593-13.586,1.819c-0.549-3.65,3.076-5.627,5.078-8.35
		c3.259-2.356,7.776-4.7,11.768-2.356c5.444,4.175,5.261,15.051,14.502,13.782c1.636-0.549,3.259-1.27,4.907-2.173
		c-1.453-1.099-3.271-1.282-4.907-1.831c-4.163-3.796-6.714-7.251-8.167-12.317c-0.891-2.356-5.603-2.527-3.247-5.786
		c4.7-9.07,16.858-1.099,23.01-8.167c7.068-5.981,15.588-8.679,24.475-9.961c4.517-6.873,9.766-16.504,19.922-14.307
		L350.525,299.572z"/>
	<path fill="url(#colour1)" d="M393.994,317.675l-0.146,0.732c-6.714,2.539-12.695,6.897-19.775,8.875c-1.27,0-0.879-1.428-0.342-1.978
		c3.247-4.529,5.078-9.973,7.959-14.331C386.23,312.255,390.576,314.428,393.994,317.675"/>
	<path fill="none" stroke="url(#colour1)" stroke-width="0" stroke-linecap="square" stroke-miterlimit="2" d="M393.994,317.675
		l-0.146,0.732c-6.714,2.539-12.695,6.897-19.775,8.875c-1.27,0-0.879-1.428-0.342-1.978c3.247-4.529,5.078-9.973,7.959-14.331
		C386.23,312.255,390.576,314.428,393.994,317.675z"/>
	<path fill="url(#colour1)" d="M406.348,319.506c-1.099,1.794-3.467,1.074-4.907,2.173c-5.444,2.893-9.79,7.605-11.23,13.403
		c-0.903,7.068,7.788,11.047,7.788,17.944c0,5.981-3.809,11.78-5.249,17.749c0.708,0.732,1.636-0.171,2.344-0.537
		c4.712-3.455,8.521-8.533,10.327-13.782c3.809,2.356,2.368,7.08,2.002,10.876c-1.27,3.638-3.442,7.251-5.811,10.327
		c-3.418,4.004-9.961,6.543-11.23,11.963c-3.418,9.79,2.173,18.848,7.08,27.173c1.27,1.636,2.539,3.833,4.346,4.517
		c1.074-5.591,1.611-12.476-2.002-17.749c-0.171-0.513-0.903-1.978,0.195-1.978c6.348,3.979,11.035,11.963,11.597,19.556
		c-0.366,3.638-0.366,7.446-1.27,11.255c0.366,3.613,4.346,4.688,6.519,7.422c2.002,3.613,5.273,6.152,7.08,9.766
		c1.27,0.732,1.807-1.074,2.002-1.978c0-1.44,0.537-2.71,0-3.979c0.537-3.809,0.342-8.154-0.562-12.5
		c0.562-0.903,1.44,0,1.807,0.537c7.251,9.229,7.593,24.463,1.978,34.424c-6.323,10.156-18.286,15.771-30.42,15.039
		c-5.078,0-9.253-3.076-13.965-2.881l-0.537,0.708c0.732,4.15,2.173,8.35,1.27,12.5l0.342,0.171
		c4.004-3.418,8.716-8.521,14.697-5.591c3.271,2.002,1.074,10.669,7.08,7.422c3.979-2.905,6.152-6.714,7.959-11.06
		c0.732-0.171,0.537-1.44,1.636-1.074c3.247,6.885,0.537,14.111-3.979,19.922c-0.562,0.537,0.171,1.465,0.879,1.27
		c4.37-2.173,9.424-5.615,11.621-10.498h0.903c0.903,6.519-0.708,13.037-6.348,17.188c-1.099,1.27-3.442,1.465-3.638,2.905
		c2.93,0.732,5.811-0.342,8.179-1.636c1.245,1.294,1.636,2.734,0.903,4.37c-1.66,3.076-4.541,5.42-6.885,7.983
		c-0.366,1.074,1.074,0.684,1.44,1.27c0.537,1.953-0.366,3.809-1.636,5.42c-1.611,3.467-8.521,1.807-6.348,6.543
		c-0.708,3.076-1.27,6.348-3.613,8.13c-1.636,2.002-5.42,0.903-5.811,3.809c1.807,1.27,3.271,3.247,2.368,5.444
		c-1.978,2.71-4.907,5.811-8.716,5.249c-1.611,1.099-3.979,2.002-5.957,0.903c-1.099-0.732-1.099-3.613-2.905-2.173
		c-1.44,2.71-2.368,6.348-5.786,6.714c-4.175-1.465-4.907-6.543-9.253-7.983c-1.27-0.903-0.366-2.515-0.171-3.638
		c0.879-2.344,4.15-3.247,5.615-5.078c-3.076-2.148-1.27-6.885-4.736-9.033c-0.537-1.636,0.391-3.076,1.465-4.346
		c1.807-1.074,4.541-1.465,6.543-0.366c1.978,1.636,4.15,3.076,6.689,1.245c3.271-1.953,5.078-5.762,6.348-9.229
		c0.342-3.442,0.342-6.689-2.002-9.595c-1.465-1.27-3.442-2.563-5.078-1.44c-3.979,3.076-7.251,7.593-12.5,8.301
		c-3.271,1.465-8.154-1.27-9.961,2.197c-0.732,6.152-1.086,11.963-4.175,16.846l-8.325,10.327h-0.732
		c0.537-4.712,2.173-8.862,2.71-13.77c0.732-0.366,0.195-1.245,0.55-1.636c-1.441-1.099-2.527,0.537-3.626,1.27
		c-3.979,3.809-7.422,9.058-8.874,14.502c-1.624,0.537-1.807-1.636-2.356-2.71c-3.442-13.232,10.681-24.292,4.528-36.45
		c-7.8-10.107,1.087-22.803,3.076-33.691c0.732-5.078,2.723-11.572-0.354-16.309l-0.916-0.171c0.55-2.173-1.989-3.784-3.625-5.64
		c-2.905-3.076-9.777-4.858-8.691-9.937c7.983-4.004,14.673-12.158,14.318-20.85c0-2.173-0.549-3.809-0.365-6.323h0.72
		c5.078,8.154,13.05,14.673,17.224,23.73c6.702,10.156,17.566,18.457,28.064,24.609c5.469,3.271,12.695,0.928,17.603-1.807
		c2.368-2.344,3.613-6.152,2.515-9.229c-1.44-2.71-2.881-6.885-6.689-7.617c-4.346-1.074-8.887-1.807-13.428-2.515
		c-7.593-2.563-15.918-6.519-18.286-14.868l-0.171-7.08c0.342-0.342,0.537-1.074,1.27-1.074c1.611,0.537,0.903,3.442,2.002,4.883
		c1.807,3.467,4.688,7.275,8.862,7.983c3.247-0.366,6.177-2.002,9.399-2.344c0.562-0.928-0.146-2.002-0.537-2.905
		c-4.517-9.814-15.039-14.331-17.725-24.463c-5.273-14.502,3.613-31.177-5.811-45.3c-2.734-3.101-4.541-5.994-7.434-8.704
		c0.183-0.72,1.281-1.27,1.989-1.27c5.078-1.282,8.521,2.173,12.695,3.796l0.366-0.72c-1.66-8.508-5.615-18.835,0.879-26.636
		c7.813-3.796,15.039-9.424,23.193-11.047C405.615,318.224,406.152,318.773,406.348,319.506"/>
	<path fill="none" stroke="url(#colour1)" stroke-width="0" stroke-linecap="square" stroke-miterlimit="2" d="M406.348,319.506
		c-1.099,1.794-3.467,1.074-4.907,2.173c-5.444,2.893-9.79,7.605-11.23,13.403c-0.903,7.068,7.788,11.047,7.788,17.944
		c0,5.981-3.809,11.78-5.249,17.749c0.708,0.732,1.636-0.171,2.344-0.537c4.712-3.455,8.521-8.533,10.327-13.782
		c3.809,2.356,2.368,7.08,2.002,10.876c-1.27,3.638-3.442,7.251-5.811,10.327c-3.418,4.004-9.961,6.543-11.23,11.963
		c-3.418,9.79,2.173,18.848,7.08,27.173c1.27,1.636,2.539,3.833,4.346,4.517c1.074-5.591,1.611-12.476-2.002-17.749
		c-0.171-0.513-0.903-1.978,0.195-1.978c6.348,3.979,11.035,11.963,11.597,19.556c-0.366,3.638-0.366,7.446-1.27,11.255
		c0.366,3.613,4.346,4.688,6.519,7.422c2.002,3.613,5.273,6.152,7.08,9.766c1.27,0.732,1.807-1.074,2.002-1.978
		c0-1.44,0.537-2.71,0-3.979c0.537-3.809,0.342-8.154-0.562-12.5c0.562-0.903,1.44,0,1.807,0.537
		c7.251,9.229,7.593,24.463,1.978,34.424c-6.323,10.156-18.286,15.771-30.42,15.039c-5.078,0-9.253-3.076-13.965-2.881l-0.537,0.708
		c0.732,4.15,2.173,8.35,1.27,12.5l0.342,0.171c4.004-3.418,8.716-8.521,14.697-5.591c3.271,2.002,1.074,10.669,7.08,7.422
		c3.979-2.905,6.152-6.714,7.959-11.06c0.732-0.171,0.537-1.44,1.636-1.074c3.247,6.885,0.537,14.111-3.979,19.922
		c-0.562,0.537,0.171,1.465,0.879,1.27c4.37-2.173,9.424-5.615,11.621-10.498h0.903c0.903,6.519-0.708,13.037-6.348,17.188
		c-1.099,1.27-3.442,1.465-3.638,2.905c2.93,0.732,5.811-0.342,8.179-1.636c1.245,1.294,1.636,2.734,0.903,4.37
		c-1.66,3.076-4.541,5.42-6.885,7.983c-0.366,1.074,1.074,0.684,1.44,1.27c0.537,1.953-0.366,3.809-1.636,5.42
		c-1.611,3.467-8.521,1.807-6.348,6.543c-0.708,3.076-1.27,6.348-3.613,8.13c-1.636,2.002-5.42,0.903-5.811,3.809
		c1.807,1.27,3.271,3.247,2.368,5.444c-1.978,2.71-4.907,5.811-8.716,5.249c-1.611,1.099-3.979,2.002-5.957,0.903
		c-1.099-0.732-1.099-3.613-2.905-2.173c-1.44,2.71-2.368,6.348-5.786,6.714c-4.175-1.465-4.907-6.543-9.253-7.983
		c-1.27-0.903-0.366-2.515-0.171-3.638c0.879-2.344,4.15-3.247,5.615-5.078c-3.076-2.148-1.27-6.885-4.736-9.033
		c-0.537-1.636,0.391-3.076,1.465-4.346c1.807-1.074,4.541-1.465,6.543-0.366c1.978,1.636,4.15,3.076,6.689,1.245
		c3.271-1.953,5.078-5.762,6.348-9.229c0.342-3.442,0.342-6.689-2.002-9.595c-1.465-1.27-3.442-2.563-5.078-1.44
		c-3.979,3.076-7.251,7.593-12.5,8.301c-3.271,1.465-8.154-1.27-9.961,2.197c-0.732,6.152-1.086,11.963-4.175,16.846l-8.325,10.327
		h-0.732c0.537-4.712,2.173-8.862,2.71-13.77c0.732-0.366,0.195-1.245,0.55-1.636c-1.441-1.099-2.527,0.537-3.626,1.27
		c-3.979,3.809-7.422,9.058-8.874,14.502c-1.624,0.537-1.807-1.636-2.356-2.71c-3.442-13.232,10.681-24.292,4.528-36.45
		c-7.8-10.107,1.087-22.803,3.076-33.691c0.732-5.078,2.723-11.572-0.354-16.309l-0.916-0.171c0.55-2.173-1.989-3.784-3.625-5.64
		c-2.905-3.076-9.777-4.858-8.691-9.937c7.983-4.004,14.673-12.158,14.318-20.85c0-2.173-0.549-3.809-0.365-6.323h0.72
		c5.078,8.154,13.05,14.673,17.224,23.73c6.702,10.156,17.566,18.457,28.064,24.609c5.469,3.271,12.695,0.928,17.603-1.807
		c2.368-2.344,3.613-6.152,2.515-9.229c-1.44-2.71-2.881-6.885-6.689-7.617c-4.346-1.074-8.887-1.807-13.428-2.515
		c-7.593-2.563-15.918-6.519-18.286-14.868l-0.171-7.08c0.342-0.342,0.537-1.074,1.27-1.074c1.611,0.537,0.903,3.442,2.002,4.883
		c1.807,3.467,4.688,7.275,8.862,7.983c3.247-0.366,6.177-2.002,9.399-2.344c0.562-0.928-0.146-2.002-0.537-2.905
		c-4.517-9.814-15.039-14.331-17.725-24.463c-5.273-14.502,3.613-31.177-5.811-45.3c-2.734-3.101-4.541-5.994-7.434-8.704
		c0.183-0.72,1.281-1.27,1.989-1.27c5.078-1.282,8.521,2.173,12.695,3.796l0.366-0.72c-1.66-8.508-5.615-18.835,0.879-26.636
		c7.813-3.796,15.039-9.424,23.193-11.047C405.615,318.224,406.152,318.773,406.348,319.506z"/>
	<path fill="url(#colour1)" d="M233.643,322.753c1.27,1.819,0.378,3.796,0.183,5.444c-1.257,1.978-2.893-0.72-4.529-0.549
		c1.819-3.271-4.895-4.517-1.819-6.702C229.846,321.129,232.019,321.129,233.643,322.753"/>
	<path fill="none" stroke="url(#colour1)" stroke-width="0" stroke-linecap="square" stroke-miterlimit="2" d="M233.643,322.753
		c1.27,1.819,0.378,3.796,0.183,5.444c-1.257,1.978-2.893-0.72-4.529-0.549c1.819-3.271-4.895-4.517-1.819-6.702
		C229.846,321.129,232.019,321.129,233.643,322.753z"/>
	<path fill="#FFFFFF" d="M327.124,325.109c-2.173,3.271-6.348,4.175-9.973,3.442c-0.72-0.916,0.549-1.624,1.086-2.344
		C320.776,324.926,324.219,324.022,327.124,325.109"/>
	<path fill="none" stroke="#FFFFFF" stroke-width="0" stroke-linecap="square" stroke-miterlimit="2" d="M327.124,325.109
		c-2.173,3.271-6.348,4.175-9.973,3.442c-0.72-0.916,0.549-1.624,1.086-2.344C320.776,324.926,324.219,324.022,327.124,325.109z"/>
	<path fill="url(#colour1)" d="M405.249,324.755c44.946,33.704,64.331,90.967,52.734,143.335c-5.981,28.442-21.021,52.905-41.87,73.56
		c-0.903,0.195-1.27-0.366-1.611-0.732c0.171-5.786,5.957-8.154,8.691-12.866l0.732-5.42c3.784-2.539,3.784-7.08,5.078-10.864
		c-0.391-1.807-0.928-4.004-1.465-5.64c0.903-2.148,3.271-4.883,1.807-7.227c0.732-1.465,0.732-3.271,0.732-4.712
		c8.154-15.405,12.5-32.642,13.574-49.658c0.928-17.017-2.002-35.327-8.887-51.636c-5.42-15.771-15.576-30.261-27.71-42.407
		c-3.247-6.36-13.94-12.329-9.058-20.837C399.805,327.099,402.344,325.304,405.249,324.755"/>
	<path fill="none" stroke="url(#colour1)" stroke-width="0" stroke-linecap="square" stroke-miterlimit="2" d="M405.249,324.755
		c44.946,33.704,64.331,90.967,52.734,143.335c-5.981,28.442-21.021,52.905-41.87,73.56c-0.903,0.195-1.27-0.366-1.611-0.732
		c0.171-5.786,5.957-8.154,8.691-12.866l0.732-5.42c3.784-2.539,3.784-7.08,5.078-10.864c-0.391-1.807-0.928-4.004-1.465-5.64
		c0.903-2.148,3.271-4.883,1.807-7.227c0.732-1.465,0.732-3.271,0.732-4.712c8.154-15.405,12.5-32.642,13.574-49.658
		c0.928-17.017-2.002-35.327-8.887-51.636c-5.42-15.771-15.576-30.261-27.71-42.407c-3.247-6.36-13.94-12.329-9.058-20.837
		C399.805,327.099,402.344,325.304,405.249,324.755z"/>
	<path fill="url(#colour1)" d="M251.77,334.179c0,1.257-0.916,1.978-2.002,2.527c-0.72-1.074-3.992-2.356-2.344-4.333
		c1.624-1.648,0.171-3.442,1.086-5.273C251.404,328.002,251.221,331.627,251.77,334.179"/>
	<path fill="none" stroke="url(#colour1)" stroke-width="0" stroke-linecap="square" stroke-miterlimit="2" d="M251.77,334.179
		c0,1.257-0.916,1.978-2.002,2.527c-0.72-1.074-3.992-2.356-2.344-4.333c1.624-1.648,0.171-3.442,1.086-5.273
		C251.404,328.002,251.221,331.627,251.77,334.179z"/>
	<path fill="url(#colour1)" d="M237.268,330.382c3.809,1.44,0,5.603,1.636,7.776c2.173-0.903,2.71-4.15,5.432-4.358
		c2.905,0.732,3.625,3.809,5.432,5.811c0.916,2.539-1.257,4.346-3.259,5.798c-2.173,0.903-5.249,0.171-6.531,2.722
		c0,4.895-1.44,9.778,1.831,14.307c8.142,3.992,17.566,6.335,23.73,14.148c3.088,4.541,8.337,5.42,13.22,6.323
		c0.195,2.173-1.453,3.979-3.076,5.249c-7.056,6.348-15.576,10.352-25.183,11.06c-1.453,0.928-2.722,2.905-4.529,1.636
		c-1.636-1.807,1.807-4.883-0.916-6.152c-5.786-0.195-12.683,1.27-15.759-4.541c-0.549-0.879-0.549-1.611,0-2.539
		c4.895,0.195,9.436-0.903,13.232-3.809c-0.72-2.344-4.175-0.171-5.981-1.245c-5.261-1.636-11.426-5.249-16.479-1.099h-0.916
		c0.366-5.811,5.969-9.229,10.876-11.426c0.708-0.708-0.366-1.636-0.366-2.527c-2.185-2.527-3.809,1.257-5.969,0.891
		c-2.368,0.22-5.273-0.342-6.531-2.527c-0.183-1.794-2.551-3.076-1.636-5.249c2.161-1.453,1.636-4.529,4.712-4.529
		c0.903-0.195,2.356,0.354,3.076-0.549c-1.99-2.722-6.335-1.099-9.241-2.893l-2.539-3.809c0.366-4.895,2.368-10.522,7.251-12.146
		l5.432-0.171c1.099-2.905-1.819-6.702,2.734-7.983c2.527-0.72,4.163,1.831,6.689,1.624L237.268,330.382"/>
	<path fill="none" stroke="url(#colour1)" stroke-width="0" stroke-linecap="square" stroke-miterlimit="2" d="M237.268,330.382
		c3.809,1.44,0,5.603,1.636,7.776c2.173-0.903,2.71-4.15,5.432-4.358c2.905,0.732,3.625,3.809,5.432,5.811
		c0.916,2.539-1.257,4.346-3.259,5.798c-2.173,0.903-5.249,0.171-6.531,2.722c0,4.895-1.44,9.778,1.831,14.307
		c8.142,3.992,17.566,6.335,23.73,14.148c3.088,4.541,8.337,5.42,13.22,6.323c0.195,2.173-1.453,3.979-3.076,5.249
		c-7.056,6.348-15.576,10.352-25.183,11.06c-1.453,0.928-2.722,2.905-4.529,1.636c-1.636-1.807,1.807-4.883-0.916-6.152
		c-5.786-0.195-12.683,1.27-15.759-4.541c-0.549-0.879-0.549-1.611,0-2.539c4.895,0.195,9.436-0.903,13.232-3.809
		c-0.72-2.344-4.175-0.171-5.981-1.245c-5.261-1.636-11.426-5.249-16.479-1.099h-0.916c0.366-5.811,5.969-9.229,10.876-11.426
		c0.708-0.708-0.366-1.636-0.366-2.527c-2.185-2.527-3.809,1.257-5.969,0.891c-2.368,0.22-5.273-0.342-6.531-2.527
		c-0.183-1.794-2.551-3.076-1.636-5.249c2.161-1.453,1.636-4.529,4.712-4.529c0.903-0.195,2.356,0.354,3.076-0.549
		c-1.99-2.722-6.335-1.099-9.241-2.893l-2.539-3.809c0.366-4.895,2.368-10.522,7.251-12.146l5.432-0.171
		c1.099-2.905-1.819-6.702,2.734-7.983c2.527-0.72,4.163,1.831,6.689,1.624L237.268,330.382z"/>
	<path fill="url(#colour1)" d="M211.365,344.127c-1.086,1.453,0,6.006-3.442,4.724c-1.636,0.903-4.004,2.356-5.444,1.978
		c1.086-3.796,3.625-7.593,7.971-8.679C211.536,342.15,211.365,343.603,211.365,344.127"/>
	<path fill="none" stroke="url(#colour1)" stroke-width="0" stroke-linecap="square" stroke-miterlimit="2" d="M211.365,344.127
		c-1.086,1.453,0,6.006-3.442,4.724c-1.636,0.903-4.004,2.356-5.444,1.978c1.086-3.796,3.625-7.593,7.971-8.679
		C211.536,342.15,211.365,343.603,211.365,344.127z"/>
	<path fill="#FFFFFF" d="M307.007,346.129l-6.702,2.356c1.086-1.624,2.905-2.905,4.895-3.259
		C305.92,345.226,306.47,345.58,307.007,346.129"/>
	<path fill="none" stroke="#FFFFFF" stroke-width="0" stroke-linecap="square" stroke-miterlimit="2" d="M307.007,346.129
		l-6.702,2.356c1.086-1.624,2.905-2.905,4.895-3.259C305.92,345.226,306.47,345.58,307.007,346.129z"/>
	<path fill="url(#colour1)" d="M215.161,355.004c-4.529,3.809,0.183,9.436-5.261,12.878c-0.354,3.821,0.732,8.313,4.004,10.315
		c-4.358,9.619-8.533,18.872-11.243,29.004c-2.356,12.305-4.163,26.66-3.455,39.16c0.378,33.667,17.59,64.844,44.592,88.232
		c1.257,1.611,3.796,2.002,3.979,3.979c-1.27,3.271,0.732,6.519,0.183,9.619c0.366,1.44,0.183,3.589,1.99,4.15
		c1.99-2.002,3.271-5.64,6.348-5.981c1.453-0.171,3.076,0.903,3.271,2.197c-0.549,3.418,4.517,0.879,4.15,4.346
		c-0.171,4.517,0.183,10.156,4.358,13.574c-22.644-7.788-40.601-23.73-56.714-42.041c-28.821-37.5-38.782-86.792-24.292-131.006
		c5.078-13.94,11.426-27.917,20.117-39.868c1.636-0.354,3.259-1.636,5.078-0.732C213.159,353.734,214.441,354.113,215.161,355.004"
		/>
	<path fill="none" stroke="url(#colour1)" stroke-width="0" stroke-linecap="square" stroke-miterlimit="2" d="M215.161,355.004
		c-4.529,3.809,0.183,9.436-5.261,12.878c-0.354,3.821,0.732,8.313,4.004,10.315c-4.358,9.619-8.533,18.872-11.243,29.004
		c-2.356,12.305-4.163,26.66-3.455,39.16c0.378,33.667,17.59,64.844,44.592,88.232c1.257,1.611,3.796,2.002,3.979,3.979
		c-1.27,3.271,0.732,6.519,0.183,9.619c0.366,1.44,0.183,3.589,1.99,4.15c1.99-2.002,3.271-5.64,6.348-5.981
		c1.453-0.171,3.076,0.903,3.271,2.197c-0.549,3.418,4.517,0.879,4.15,4.346c-0.171,4.517,0.183,10.156,4.358,13.574
		c-22.644-7.788-40.601-23.73-56.714-42.041c-28.821-37.5-38.782-86.792-24.292-131.006c5.078-13.94,11.426-27.917,20.117-39.868
		c1.636-0.354,3.259-1.636,5.078-0.732C213.159,353.734,214.441,354.113,215.161,355.004z"/>
	<path fill="#FFFFFF" d="M311.169,356.64c-0.732,1.27-2.173,2.722-3.809,3.271c-2.173-0.183-3.625-2.002-4.163-3.809
		c1.636-1.648,4.724-1.27,6.702-0.72C310.62,355.553,310.815,356.103,311.169,356.64"/>
	<path fill="none" stroke="#FFFFFF" stroke-width="0" stroke-linecap="square" stroke-miterlimit="2" d="M311.169,356.64
		c-0.732,1.27-2.173,2.722-3.809,3.271c-2.173-0.183-3.625-2.002-4.163-3.809c1.636-1.648,4.724-1.27,6.702-0.72
		C310.62,355.553,310.815,356.103,311.169,356.64z"/>
	<path fill="url(#colour1)" d="M216.614,366.979c0.72,1.648-1.27,1.257-2.173,1.428c-0.537,1.44-0.537,3.442-2.002,4.175
		c-2.161-1.27,0.183-3.442-0.537-5.603C212.817,364.611,215.161,365.331,216.614,366.979"/>
	<path fill="none" stroke="url(#colour1)" stroke-width="0" stroke-linecap="square" stroke-miterlimit="2" d="M216.614,366.979
		c0.72,1.648-1.27,1.257-2.173,1.428c-0.537,1.44-0.537,3.442-2.002,4.175c-2.161-1.27,0.183-3.442-0.537-5.603
		C212.817,364.611,215.161,365.331,216.614,366.979z"/>
	<path fill="#FFFFFF" d="M476.074,422.777c0.879,2.93,0.537,6.543-1.807,8.35c-2.368-0.537-4.541-2.002-5.444-4.346
		c-0.562-1.831,0-4.004,1.27-5.273C471.729,419.701,475.342,420.434,476.074,422.777"/>
	<path fill="none" stroke="#FFFFFF" stroke-width="0" stroke-linecap="square" stroke-miterlimit="2" d="M476.074,422.777
		c0.879,2.93,0.537,6.543-1.807,8.35c-2.368-0.537-4.541-2.002-5.444-4.346c-0.562-1.831,0-4.004,1.27-5.273
		C471.729,419.701,475.342,420.434,476.074,422.777z"/>
	<path fill="url(#colour1)" d="M279.834,423.51c0,3.442-3.967,5.273-2.869,9.058c0,2.905-0.549,6.152,1.99,7.983
		c6.152-4.175,12.671-9.424,21.008-8.325c1.819,3.589,3.088,7.593,2.002,11.401c-0.549,0.903-2.173,0.537-2.905,0
		c-1.819-0.342-0.354-4.907-3.076-2.734c-1.819-1.074-4.895-1.611-6.531,0.562c-1.807,4.175-1.807,9.424,1.465,12.866
		c-1.819,3.418-7.629-0.928-8.533,3.613c-3.259,3.271-8.337,3.613-13.049,4.517c-4.529-1.636-8.862-4.346-11.78-8.325
		c-1.074-0.171-2.698-0.537-3.43,0.391c1.086,0.879,2.356,2.881,1.636,4.517c-1.086,3.418-5.444,2.173-7.617,4.346
		c-2.368,1.44-2.71,5.786-6.335,5.249c-2.368,0.537-2.539-2.539-4.712-1.611c-1.282,1.27-1.282,3.223-3.625,2.881
		c-5.078-0.732-10.522-0.732-14.502-4.346c-1.44-3.101-0.732-6.177,1.453-8.521c0.366-1.636-1.636-0.732-2.356-1.44
		c-2.905-3.076-3.992-7.08-2.905-11.23c0.537-2.734,3.076-3.638,5.261-4.346c0.525,0.342,1.624,0.146,1.978,0.146
		c-2.161-7.031,8.167-5.786,10.168-10.84c0.903-1.099,2.71-1.465,3.979-0.928c1.807,0.732,1.624,2.539,1.99,3.833l0.366,7.593
		c1.99,2.002,3.992-0.366,5.981-0.537c11.963-3.271,17.212-16.699,29.7-18.481C276.599,420.971,278.955,421.508,279.834,423.51"/>
	<path fill="none" stroke="url(#colour1)" stroke-width="0" stroke-linecap="square" stroke-miterlimit="2" d="M279.834,423.51
		c0,3.442-3.967,5.273-2.869,9.058c0,2.905-0.549,6.152,1.99,7.983c6.152-4.175,12.671-9.424,21.008-8.325
		c1.819,3.589,3.088,7.593,2.002,11.401c-0.549,0.903-2.173,0.537-2.905,0c-1.819-0.342-0.354-4.907-3.076-2.734
		c-1.819-1.074-4.895-1.611-6.531,0.562c-1.807,4.175-1.807,9.424,1.465,12.866c-1.819,3.418-7.629-0.928-8.533,3.613
		c-3.259,3.271-8.337,3.613-13.049,4.517c-4.529-1.636-8.862-4.346-11.78-8.325c-1.074-0.171-2.698-0.537-3.43,0.391
		c1.086,0.879,2.356,2.881,1.636,4.517c-1.086,3.418-5.444,2.173-7.617,4.346c-2.368,1.44-2.71,5.786-6.335,5.249
		c-2.368,0.537-2.539-2.539-4.712-1.611c-1.282,1.27-1.282,3.223-3.625,2.881c-5.078-0.732-10.522-0.732-14.502-4.346
		c-1.44-3.101-0.732-6.177,1.453-8.521c0.366-1.636-1.636-0.732-2.356-1.44c-2.905-3.076-3.992-7.08-2.905-11.23
		c0.537-2.734,3.076-3.638,5.261-4.346c0.525,0.342,1.624,0.146,1.978,0.146c-2.161-7.031,8.167-5.786,10.168-10.84
		c0.903-1.099,2.71-1.465,3.979-0.928c1.807,0.732,1.624,2.539,1.99,3.833l0.366,7.593c1.99,2.002,3.992-0.366,5.981-0.537
		c11.963-3.271,17.212-16.699,29.7-18.481C276.599,420.971,278.955,421.508,279.834,423.51z"/>
	<path fill="url(#colour1)" d="M231.287,428.93c-1.99,2.734-4.883,4.004-7.788,4.932c-1.453-1.636-4.529-1.123-6.519-0.928
		c-1.086-1.074,0.354-2.002,0.891-2.905C221.497,427.855,227.307,426.22,231.287,428.93"/>
	<path fill="none" stroke="url(#colour1)" stroke-width="0" stroke-linecap="square" stroke-miterlimit="2" d="M231.287,428.93
		c-1.99,2.734-4.883,4.004-7.788,4.932c-1.453-1.636-4.529-1.123-6.519-0.928c-1.086-1.074,0.354-2.002,0.891-2.905
		C221.497,427.855,227.307,426.22,231.287,428.93z"/>
	<path fill="#FFFFFF" d="M477.148,439.452c0.732,2.368,0.537,4.712-0.732,6.909c-1.44,1.807-3.613,2.515-5.615,1.611
		c-1.807-1.074-2.71-3.442-3.247-5.444c0.171-2.515,0.537-5.981,3.076-7.788C473.34,434.936,475.879,436.742,477.148,439.452"/>
	<path fill="none" stroke="#FFFFFF" stroke-width="0" stroke-linecap="square" stroke-miterlimit="2" d="M477.148,439.452
		c0.732,2.368,0.537,4.712-0.732,6.909c-1.44,1.807-3.613,2.515-5.615,1.611c-1.807-1.074-2.71-3.442-3.247-5.444
		c0.171-2.515,0.537-5.981,3.076-7.788C473.34,434.936,475.879,436.742,477.148,439.452z"/>
	<path fill="url(#colour1)" d="M214.441,452.88c-2.905,1.074-4.358,4.517-6.897,6.323c-0.903,0-0.903-0.903-1.074-1.465
		c-0.366-2.881-0.183-5.591,1.453-8.154c1.624-0.879,3.442-2.686,5.432-1.978L214.441,452.88"/>
	<path fill="none" stroke="url(#colour1)" stroke-width="0" stroke-linecap="square" stroke-miterlimit="2" d="M214.441,452.88
		c-2.905,1.074-4.358,4.517-6.897,6.323c-0.903,0-0.903-0.903-1.074-1.465c-0.366-2.881-0.183-5.591,1.453-8.154
		c1.624-0.879,3.442-2.686,5.432-1.978L214.441,452.88z"/>
	<path fill="#FFFFFF" d="M280.762,454.516c-0.183,1.221-2.002,1.221-3.259,1.221c-2.356-0.513-4.358-2.515-4.907-4.492
		c0-1.099,0.549-1.807,1.636-2.197C277.502,449.438,277.856,453.051,280.762,454.516"/>
	<path fill="none" stroke="#FFFFFF" stroke-width="0" stroke-linecap="square" stroke-miterlimit="2" d="M280.762,454.516
		c-0.183,1.221-2.002,1.221-3.259,1.221c-2.356-0.513-4.358-2.515-4.907-4.492c0-1.099,0.549-1.807,1.636-2.197
		C277.502,449.438,277.856,453.051,280.762,454.516z"/>
	<path fill="url(#colour1)" d="M345.984,467.553c1.635,6.152-1.258,12.476-4.713,17.188c-6.689,0.366-13.024,3.467-15.746,9.961
		c-0.379,1.465,0,2.734,0.354,4.199c1.086,1.611,2.905,2.539,4.712,2.539c2.71-0.391,5.065-2.002,7.251-3.467l0.721,0.366
		c-0.172,6.714-5.078,12.866-11.23,15.601c-2.186,1.611,0,3.613,0.537,5.42c1.086,1.465,2.172,2.539,3.991,2.734
		c2.356,1.27,4.346-3.979,4.883-0.537c-1.087,3.613-4.346,7.056-8.325,7.617c-1.086,0.171-2.723-1.27-3.43,0.342
		c1.428,3.247,2.881,7.422,6.872,8.154h2.173c0.366,2.734-3.26,3.442-4.883,4.883c-5.078,1.294-9.985-0.708-14.331-2.344
		c-1.074,0.342-0.903,1.807-0.708,2.539c1.257,1.978,3.259,3.271,5.603,3.076c-0.72,1.44-2.527,2.368-3.979,3.271
		c-3.613,1.074-6.702-1.27-8.887-3.613c-1.44-3.076-3.613-6.348-3.43-9.424c-2.917-1.123-3.259,2.686-4.712,4.15
		c-1.624,3.418,5.798,4.15,2.71,7.983c-3.796,2.881-8.887,2.319-13.403,3.442c-2.002,0-3.259-1.636-4.541-3.076
		c-1.807,1.27-1.624,4.346-4.346,4.883c-4.895,1.465-9.241-1.465-12.683-4.541c-1.086-1.465-0.183-2.881,0.195-4.346l2.698-3.076
		c-3.613-0.562-6.335,5.225-10.498,2.881c-2.539-1.953-2.905-5.029-3.271-7.764c0.916-2.905,3.076-4.736,5.444-6.543
		c-1.086-1.27-0.537-2.344-0.183-3.809c1.978-1.611,4.346-2.881,6.885-3.418c0.72-3.125,3.076-5.273,6.165-5.64
		c4.346,0.732,3.796,6.177,6.519,9.058c1.819,1.66,4.895,0.732,6.702,0c6.714-3.613,11.243-10.693,11.609-17.383l-2.368-9.619
		c-2.893-1.416-6.702,1.099-9.412-1.27c-2.368-1.611-3.455-4.517-6.531-4.15c-3.979,0.195-5.432,4.712-7.605,7.08
		c-1.453-1.807-1.282-4.736-0.72-7.275c1.074-4.15,5.237-7.031,9.595-7.959c2.722-0.195,7.251,1.074,8.704-2.344
		c1.44-5.64,1.44-13.086,6.714-16.87c7.056-6.152,18.835-3.784,26.806-1.636c6.885,1.27,11.768-2.368,16.676-6.348
		C343.457,460.473,344.543,464.452,345.984,467.553"/>
	<path fill="none" stroke="url(#colour1)" stroke-width="0" stroke-linecap="square" stroke-miterlimit="2" d="M345.984,467.553
		c1.635,6.152-1.258,12.476-4.713,17.188c-6.689,0.366-13.024,3.467-15.746,9.961c-0.379,1.465,0,2.734,0.354,4.199
		c1.086,1.611,2.905,2.539,4.712,2.539c2.71-0.391,5.065-2.002,7.251-3.467l0.721,0.366c-0.172,6.714-5.078,12.866-11.23,15.601
		c-2.186,1.611,0,3.613,0.537,5.42c1.086,1.465,2.172,2.539,3.991,2.734c2.356,1.27,4.346-3.979,4.883-0.537
		c-1.087,3.613-4.346,7.056-8.325,7.617c-1.086,0.171-2.723-1.27-3.43,0.342c1.428,3.247,2.881,7.422,6.872,8.154h2.173
		c0.366,2.734-3.26,3.442-4.883,4.883c-5.078,1.294-9.985-0.708-14.331-2.344c-1.074,0.342-0.903,1.807-0.708,2.539
		c1.257,1.978,3.259,3.271,5.603,3.076c-0.72,1.44-2.527,2.368-3.979,3.271c-3.613,1.074-6.702-1.27-8.887-3.613
		c-1.44-3.076-3.613-6.348-3.43-9.424c-2.917-1.123-3.259,2.686-4.712,4.15c-1.624,3.418,5.798,4.15,2.71,7.983
		c-3.796,2.881-8.887,2.319-13.403,3.442c-2.002,0-3.259-1.636-4.541-3.076c-1.807,1.27-1.624,4.346-4.346,4.883
		c-4.895,1.465-9.241-1.465-12.683-4.541c-1.086-1.465-0.183-2.881,0.195-4.346l2.698-3.076c-3.613-0.562-6.335,5.225-10.498,2.881
		c-2.539-1.953-2.905-5.029-3.271-7.764c0.916-2.905,3.076-4.736,5.444-6.543c-1.086-1.27-0.537-2.344-0.183-3.809
		c1.978-1.611,4.346-2.881,6.885-3.418c0.72-3.125,3.076-5.273,6.165-5.64c4.346,0.732,3.796,6.177,6.519,9.058
		c1.819,1.66,4.895,0.732,6.702,0c6.714-3.613,11.243-10.693,11.609-17.383l-2.368-9.619c-2.893-1.416-6.702,1.099-9.412-1.27
		c-2.368-1.611-3.455-4.517-6.531-4.15c-3.979,0.195-5.432,4.712-7.605,7.08c-1.453-1.807-1.282-4.736-0.72-7.275
		c1.074-4.15,5.237-7.031,9.595-7.959c2.722-0.195,7.251,1.074,8.704-2.344c1.44-5.64,1.44-13.086,6.714-16.87
		c7.056-6.152,18.835-3.784,26.806-1.636c6.885,1.27,11.768-2.368,16.676-6.348C343.457,460.473,344.543,464.452,345.984,467.553z"
		/>
	<path fill="url(#colour1)" d="M252.856,467.895c0.549,2.197,3.992,0.391,3.625,2.905c-2.722,1.44-6.165,1.099-8.521-0.708l-1.27-1.807
		c1.636-0.928,2.905-2.734,4.712-2.905L252.856,467.895"/>
	<path fill="none" stroke="url(#colour1)" stroke-width="0" stroke-linecap="square" stroke-miterlimit="2" d="M252.856,467.895
		c0.549,2.197,3.992,0.391,3.625,2.905c-2.722,1.44-6.165,1.099-8.521-0.708l-1.27-1.807c1.636-0.928,2.905-2.734,4.712-2.905
		L252.856,467.895z"/>
	<path fill="url(#colour1)" d="M233.276,471.166c0.366,0.928-1.074,1.27-1.074,2.002c-0.183,2.148,0.72,4.15,1.624,5.786
		c-1.807,1.44-3.796-0.708-5.615-1.27c-2.722-1.636-2.893-4.15-3.625-6.885l0.732-0.903
		C227.661,470.971,230.933,471.166,233.276,471.166"/>
	<path fill="none" stroke="url(#colour1)" stroke-width="0" stroke-linecap="square" stroke-miterlimit="2" d="M233.276,471.166
		c0.366,0.928-1.074,1.27-1.074,2.002c-0.183,2.148,0.72,4.15,1.624,5.786c-1.807,1.44-3.796-0.708-5.615-1.27
		c-2.722-1.636-2.893-4.15-3.625-6.885l0.732-0.903C227.661,470.971,230.933,471.166,233.276,471.166z"/>
	<path fill="url(#colour1)" d="M266.26,517.357c0.183,2.002-2.173,2.197-2.893,3.638c-2.356,0.562-4.724-1.294-6.702-0.366
		c-0.366-0.366-0.903-0.537-0.562-1.27c2.734-2.344,6.36-3.955,9.973-2.881L266.26,517.357"/>
	<path fill="none" stroke="url(#colour1)" stroke-width="0" stroke-linecap="square" stroke-miterlimit="2" d="M266.26,517.357
		c0.183,2.002-2.173,2.197-2.893,3.638c-2.356,0.562-4.724-1.294-6.702-0.366c-0.366-0.366-0.903-0.537-0.562-1.27
		c2.734-2.344,6.36-3.955,9.973-2.881L266.26,517.357z"/>
	<path fill="url(#colour1)" d="M254.48,541.479c-0.354,2.148-3.076,2.71-3.625,4.541c-1.257-1.099-2.161-3.271-1.453-5.103
		c0.549-1.587,1.819-3.247,3.088-4.517C255.933,536.205,253.223,540.014,254.48,541.479"/>
	<path fill="none" stroke="url(#colour1)" stroke-width="0" stroke-linecap="square" stroke-miterlimit="2" d="M254.48,541.479
		c-0.354,2.148-3.076,2.71-3.625,4.541c-1.257-1.099-2.161-3.271-1.453-5.103c0.549-1.587,1.819-3.247,3.088-4.517
		C255.933,536.205,253.223,540.014,254.48,541.479z"/>
	<path fill="url(#colour1)" d="M374.072,541.649c0.195,1.099-1.074,1.099-1.807,1.465c-1.27,2.368-4.15,2.71-3.271,5.981
		c-1.44,0.171-2.539-0.537-3.43-1.831c-0.55-1.978,0.744-3.784,1.989-5.249C369.189,539.672,373.34,538.939,374.072,541.649"/>
	<path fill="none" stroke="url(#colour1)" stroke-width="0" stroke-linecap="square" stroke-miterlimit="2" d="M374.072,541.649
		c0.195,1.099-1.074,1.099-1.807,1.465c-1.27,2.368-4.15,2.71-3.271,5.981c-1.44,0.171-2.539-0.537-3.43-1.831
		c-0.55-1.978,0.744-3.784,1.989-5.249C369.189,539.672,373.34,538.939,374.072,541.649z"/>
	<path fill="url(#colour1)" d="M420.996,543.285c0.195,3.076-3.418,4.541-5.786,5.811c-1.44,0-4.346,0.537-4.175-1.831
		c0.195-1.245,0.391-2.905,1.807-3.638c1.831,1.66,3.809-0.342,5.64-0.879C419.189,541.283,422.656,540.551,420.996,543.285"/>
	<path fill="none" stroke="url(#colour1)" stroke-width="0" stroke-linecap="square" stroke-miterlimit="2" d="M420.996,543.285
		c0.195,3.076-3.418,4.541-5.786,5.811c-1.44,0-4.346,0.537-4.175-1.831c0.195-1.245,0.391-2.905,1.807-3.638
		c1.831,1.66,3.809-0.342,5.64-0.879C419.189,541.283,422.656,540.551,420.996,543.285z"/>
	<path fill="url(#colour1)" d="M271.704,554.711c0.183,2.002-0.195,4.346-0.916,5.981c-2.527,0.903-3.442-2.173-4.529-3.833
		c0-1.611,0-2.881,1.086-4.346C268.982,552.514,270.251,554.174,271.704,554.711"/>
	<path fill="none" stroke="url(#colour1)" stroke-width="0" stroke-linecap="square" stroke-miterlimit="2" d="M271.704,554.711
		c0.183,2.002-0.195,4.346-0.916,5.981c-2.527,0.903-3.442-2.173-4.529-3.833c0-1.611,0-2.881,1.086-4.346
		C268.982,552.514,270.251,554.174,271.704,554.711z"/>
	<path fill="url(#colour1)" d="M298.706,557.25c0.354,1.27,1.453,2.344,0.537,3.442c-2.905,0-5.078-2.368-7.617-3.638
		c-0.537-0.903-0.537-1.611,0-2.539c1.819-0.537,4.163-2.539,5.615-0.879L298.706,557.25"/>
	<path fill="none" stroke="url(#colour1)" stroke-width="0" stroke-linecap="square" stroke-miterlimit="2" d="M298.706,557.25
		c0.354,1.27,1.453,2.344,0.537,3.442c-2.905,0-5.078-2.368-7.617-3.638c-0.537-0.903-0.537-1.611,0-2.539
		c1.819-0.537,4.163-2.539,5.615-0.879L298.706,557.25z"/>
	<path fill="url(#colour1)" d="M369.922,560.131c-0.537,2.93-1.099,6.006-1.27,9.229c-13.428,5.469-27.905,7.813-43.311,8.545
		c-18.311,0.342-35.889-2.905-52.002-8.887l-0.745-1.44l1.086-7.983c3.076-2.734,7.446-1.807,11.609-2.344
		c4.712,0.171,5.981,6.152,10.498,6.885c2.722,0.537,5.627,1.27,8.35,0.708c0.903-1.27-2.356-3.076-0.366-4.15
		c3.809,0,7.8,0.513,11.047,2.173c10.876-1.807,22.29-1.465,32.8-4.004l16.139-4.883
		C367.383,553.783,367.725,558.129,369.922,560.131"/>
	<path fill="none" stroke="url(#colour1)" stroke-width="0" stroke-linecap="square" stroke-miterlimit="2" d="M369.922,560.131
		c-0.537,2.93-1.099,6.006-1.27,9.229c-13.428,5.469-27.905,7.813-43.311,8.545c-18.311,0.342-35.889-2.905-52.002-8.887
		l-0.745-1.44l1.086-7.983c3.076-2.734,7.446-1.807,11.609-2.344c4.712,0.171,5.981,6.152,10.498,6.885
		c2.722,0.537,5.627,1.27,8.35,0.708c0.903-1.27-2.356-3.076-0.366-4.15c3.809,0,7.8,0.513,11.047,2.173
		c10.876-1.807,22.29-1.465,32.8-4.004l16.139-4.883C367.383,553.783,367.725,558.129,369.922,560.131z"/>
	<path fill="url(#colour1)" d="M377.539,562.67c-0.562,2.002-4.004,3.809-1.831,6.348c0.366,0.195,0.366,0.537,0.366,0.903
		c-0.903,0.562-2.539,1.44-3.613,0.366c-1.27-2.002-2.197-4.004-1.831-6.348c1.636-1.27,1.099-5.078,4.004-4.004
		C375.537,560.692,376.807,561.596,377.539,562.67"/>
	<path fill="none" stroke="url(#colour1)" stroke-width="0" stroke-linecap="square" stroke-miterlimit="2" d="M377.539,562.67
		c-0.562,2.002-4.004,3.809-1.831,6.348c0.366,0.195,0.366,0.537,0.366,0.903c-0.903,0.562-2.539,1.44-3.613,0.366
		c-1.27-2.002-2.197-4.004-1.831-6.348c1.636-1.27,1.099-5.078,4.004-4.004C375.537,560.692,376.807,561.596,377.539,562.67z"/>
	<path fill="url(#colour1)" d="M402.344,563.061c2.002,0.513,3.442-1.66,5.444-0.732c0,2.686-3.101,3.418-4.907,4.883
		c-1.807,0.366-3.809,0.195-5.054-0.928c-1.294-0.879-1.294-2.148-2.002-3.223c0.366-1.855,2.539-1.66,3.979-2.368L402.344,563.061z
		"/>
	<path fill="none" stroke="url(#colour1)" stroke-width="0" stroke-linecap="square" stroke-miterlimit="2" d="M402.344,563.061
		c2.002,0.513,3.442-1.66,5.444-0.732c0,2.686-3.101,3.418-4.907,4.883c-1.807,0.366-3.809,0.195-5.054-0.928
		c-1.294-0.879-1.294-2.148-2.002-3.223c0.366-1.855,2.539-1.66,3.979-2.368L402.344,563.061z"/>
</g>
</svg>
