<?xml version="1.0" encoding="utf-8"?>
<!-- Generator: Adobe Illustrator 14.0.0, SVG Export Plug-In . SVG Version: 6.00 Build 43363)  -->
<!DOCTYPE svg PUBLIC "-//W3C//DTD SVG 1.0//EN" "http://www.w3.org/TR/2001/REC-SVG-20010904/DTD/svg10.dtd">
<svg version="1.0" id="Layer_1" xmlns="http://www.w3.org/2000/svg" xmlns:xlink="http://www.w3.org/1999/xlink" x="0px" y="0px"
	 width="600px" height="367px" viewBox="0 0 600 367" enable-background="new 0 0 600 367" xml:space="preserve">
<defs>
   <linearGradient id="colour1">
     <stop offset="100%" stop-color="#FF0000"/>
   </linearGradient> 
 </defs>
<g id="_x23_ff0000ff">
	<path fill="url(#colour1)" d="M254.14,6.01c3.53-1.24,6.31-4.01,9.9-5.12c6.1-2.07,13.1,0.1,17.47,4.7c5.16,5.1,6.6,12.48,8.97,19.06
		c0.47-3.18,0.38-6.53,1.67-9.52c0.83-2.09,3.66-3.54,5.55-1.84c2.52,2.28,3.22,5.91,5.69,8.23c2.43,1.59,5.5,1.7,8.049,3.05
		c1.471,1.79,1.73,4.24,2.551,6.36c4.949-4.89,8.91-10.7,11.98-16.93c1.199-2.09,2.079-4.61,4.229-5.94
		c4.149-1.34,9.04,1.75,12.771-1.08c4.6-3.4,10.369-5.14,16.069-5.05c3.03,0.1,2.72,3.9,2.47,6.04c-0.199,3.67-3.33,6-4.859,9.07
		c-0.61,1.74,0.529,3.3,2.32,3.47c3.51-3.06,4.409-7.88,6.829-11.68c1.91-3.54,6.53-6.06,10.37-4c3.13,2.01,4.35,5.77,6.301,8.76
		c5.239-2.81,11.09-0.74,16.39,0.68c5.239,1.66,10.569,3.63,14.67,7.43c-2.29,8.22-8.141,15.02-9.561,23.51
		c1.86-1.17,3.67-2.54,4.601-4.61c2.63-5.09,5.72-10.35,10.77-13.39c2.9-1.71,6.29-0.38,9.25,0.47c4.88,1.77,9.95,3.42,14.19,6.53
		c2.93,2.14,2.819,6.14,4.26,9.18c4,0.28,8.32-1.71,12.05,0.51c4.811,2.76,9.03,6.43,13.891,9.11c8.17,4.47,16.51,8.66,24.46,13.521
		c3.279,1.99,5.79,4.92,8.489,7.6c3.311,3.38,8.86,2.41,12.25,5.72c3.28,2.82,3.101,7.5,5,11.08c3.84,0.68,7.811-0.91,11.59,0.21
		c2.28,2.3,2.771,5.76,4.9,8.17c1.96,1.48,4.5,1.99,6.41,3.55c2.18,2.57,2.97,6.2,5.78,8.24c2.489,1.75,5.449,2.6,8.22,3.79
		c8.41,3.24,14.67,10.01,22.16,14.79c8.58,5.36,15.67,13.92,17.76,23.97v2.83c-6.12,5.65-15.38,4.32-22.92,3.16
		c-5.67-0.61-8.85-6.43-14.46-7.07c-11.82-1.49-23.771,0.45-35.601-0.8c-1.939-0.42-5.239-0.7-4.85-3.42
		c0.87-4.18,4.68-7.01,5.69-11.2c-8.591,4.56-13.41,14.51-22.96,17.44c-7.83,2.25-14.29-4.34-21.86-4.65
		c-2.9-0.48-6.17,0.27-8.771-1.31c-1.17-2.86-1.069-6.03-1.51-9.05c-3.939,2.74-7.64,6.33-12.6,7.03
		c-7.28,1.23-14.79-0.51-21.53-3.28c-4.1-1.61-6.71-6.03-5.729-10.41c1.71-9.21,7.46-16.99,10.22-25.85
		c-4.21,3.47-7.93,7.55-10.95,12.09c-2.91,4.19-2.29,10.1-6.27,13.67c-8.33,8.33-20.841,8.49-31.74,10.1
		c0.359-12.13,1.869-24.34,0.4-36.45c-4.451,9.61-4.851,20.51-8.83,30.28c-1.541,3.65-4.74,6.47-8.541,7.57
		c-6.609,1.95-13.459,2.85-20.25,3.98c0.521-14.02,1.631-28.05,1.211-42.09c-4.15,13.38-3.351,27.56-4.82,41.33
		c-0.54,3.31-1.37,7.43-4.76,8.96c-4.021,1.14-8.23-1.89-9.67-5.58c-1.891-4.83-1.461-10.14-1.75-15.22
		c-2.471,9.43-4.11,19.94-11.221,27.18c-2.88,3.14-8.09,4.61-11.68,1.81c-1.93-2.42-1.8-5.77-2.2-8.69
		c-0.63-11.36-0.88-22.74-1.399-34.1c-0.101-2.64-0.871-5.18-1.721-7.65c-1.59,2.28-2.699,4.89-2.88,7.69
		c-0.7,6.64-0.97,13.32-1.409,19.98c-0.49,7.68-0.061,15.5-1.75,23.05c-0.66,3.97-5.451,4.6-8.661,3.7
		c-6.29-1.63-9.75-7.81-15.41-10.57c-4.93-2.8-11.36-1.38-15.85-5.17c-5.08-4.08-7.36-10.58-8.58-16.78
		c-1.29-6.92-1.12-14-2.01-20.97c-1.47,7.21-1.41,14.86-4.61,21.62c-0.93,2.02-3.17,4.37-5.54,2.97c-4.16-2.19-6.03-6.93-9.7-9.73
		c-3.96,0.7-6.16,5.6-10.49,5.11c-7.14-0.8-13.65-4.65-20.91-4.87c-7.27-0.32-13.98,3.09-21.1,3.93c-2.48,0.31-5.41-0.07-6.99-2.23
		c-4.23-6.24-4.71-14.38-9.65-20.21c-1.08,7.38,0.46,14.76,0.64,22.14c-0.15,1.89,0.14,4.2-1.31,5.67
		c-5.91,4.02-16.44,3.75-19.24-3.93c-1.44-6.44-1.91-13.63-7.11-18.42c-0.44,7.59,1.49,15.47-1.25,22.81
		c-1.4,4.07-4.48,8.42-9.21,8.54c-3.93-0.23-6.83-3.28-9.99-5.26c-1.5,2.35-2.64,5.01-4.67,6.98c-2.05,1.3-4.45-0.17-6-1.58
		c-4.46-4.31-7.36-9.94-11.72-14.32c-1.49-1.53-4.24-2.85-5.22-0.11c-2.19,5.8-1.07,12.2-1.31,18.27
		c-8.33,0.26-16.7,1.61-25.02,0.64c-4.91-0.43-6.79-5.57-10.16-8.37c-3.27,1.34-5.69,4.1-8.91,5.53c-3.41-0.37-6.45-2.81-10-2.2
		c-9.32,1.25-17.59,6.5-26.89,7.76c-3.48,0.76-5.15-2.79-6.02-5.48v-0.46c0.58-5.68,3.76-10.56,6.79-15.23
		c1.97-2.94,4.03-5.96,6.96-8.04c2.75-1.97,6.27-2.01,9.48-2.63c6.01-0.89,11.24-4.31,16.05-7.82c4.07-3.18,8.35-6.6,10.32-11.54
		c0.94-1.95,1.56-4.33,3.6-5.44c8.69-5.54,19.3-5.5,29.1-7.24c3.25-0.29,4.77-3.28,5.61-6.03c2.22-6.93,8.74-11,14.77-14.31
		c4.57-2.62,9.95-3.14,14.64-5.46c3.16-1.45,4.46-4.88,6.45-7.49c1.85-2.64,6.03-2.22,7.5-5.22c1.04-1.32,1.57-3.73,3.77-2.93
		c5.99,1.26,9.76,6.7,12.71,11.64c1.96,2.93,3.73,6.73,7.49,7.62c2.05-8.43-6.19-14.8-6.89-22.81c0.7-4.2,4.77-6.48,7.91-8.8
		c7.87-5.19,15.72-10.5,24.25-14.55c3.88-2,8.25-1.22,12.4-0.9c0.67-1.64,1.29-3.31,2.12-4.87c4.52,1.81,6.34,6.61,8.79,10.41
		c-0.15-5.25-3.06-11.48,0.47-16.11c4.89-3.87,10.9-6.29,16.89-7.91c7.46-1.93,13.75,3.6,20.56,5.55c0.86-2.56,0.16-6.78,3.55-7.6
		C248.85,0.97,251.42,4.38,254.14,6.01 M248.65,23.43c-0.32,2.45-0.98,5.26,0.82,7.33C250.08,28.24,250.68,25.46,248.65,23.43
		 M124.17,102.2c1.04,3.6,3.62,6.65,7.39,7.48C131.56,105.5,128.36,102.24,124.17,102.2 M279.53,129.99
		c0.89-3.64,1.06-7.44-0.1-11.05C278.34,122.54,278.35,126.41,279.53,129.99z"/>
	<path fill="url(#colour1)" d="M15.43,170.56c3.48-2.03,7.29,0.1,10.55,1.53c3.3,1.61,6.83,2.65,10.33,3.74c2.44,0.58,3.45,3.18,5.48,4.4
		c2.79,0.99,5.84,1.15,8.55,2.4c3.09,1.44,5.43,3.99,8.24,5.851c3.29,2.59,6.66-2.11,10.26-1.121c4.69,0.99,9.05,3.19,13.16,5.591
		c2.19,1.19,3.72,3.479,3.42,6.04c-0.28,6.23-1.65,12.34-2.46,18.51c4-5.49,7.32-11.529,12.04-16.45
		c4.16-4.34,10.61-3.59,16.06-4.25c9.91-0.6,19.47-3.409,29.09-5.64c4.14-0.61,9.42-2.25,12.8,1.07
		c-1.12,5.58-7.14,8.06-9.92,12.709c2.22-0.1,4.43-0.26,6.63-0.52c2.92-5.66,9.63-7,15.25-8.51c5.9-1.18,12.15-2.381,18.1-0.971
		c3.26,0.66,2.9,4.621,3.8,7.09c5.87-5.67,14.11-8.609,22.24-7.579c3.39,0.569,5.51,3.909,8.91,4.489
		c9.3,1.791,19.14,0.551,28.09,4.11c2.4,1.03,5.34,3.011,4.93,6c-1.54,9.33-8.39,16.75-10.15,26.011
		c-0.52,2.119,0.35,4.299,1.84,5.799c5.48-7.159,6.26-16.949,12.71-23.479c5.24-5.89,14.29-8.659,21.66-5.37
		c3.48,2.44,1.99,7.51,2.64,11.15c3.12-3.41,5.91-7.61,10.53-9.07c3.81-1.23,7.74-2.41,11.771-2.529
		c2.959,0.399,4.66,3.25,5.74,5.75c4.92,12.42,1.199,26.289,5.27,38.859c1.369-1.29,3.57-2.13,3.88-4.22
		c0.42-2.341,0.01-4.72-0.229-7.06c-1.32-9.801-2.551-19.611-3.82-29.41c6.02,0.06,12.1-0.42,18.08,0.56
		c3.369,0.569,5.129,3.89,6.27,6.78c2.1,5.539,3.25,11.38,5.221,16.959c-0.07-7.309-1.521-14.489-2.111-21.76
		c-0.26-2.14,0.061-4.52,1.851-5.959c4.271-3.74,10.39-4.791,15.89-4.101c4.23,0.511,7.211,3.851,10.99,5.46
		c2.87-1.439,5.02-4.05,8.08-5.16c4.53-1.23,9.27,1.02,13.78-0.22c2.71-2.601,3.76-6.44,5.97-9.44c3.18,1.711,6.12,3.801,9.021,5.95
		c2.069-3.149,5.42-6.89,9.63-5.06c2.319,4.22,4.45,8.63,7.96,12.039c-1.931-5.5-5.601-10.629-5.561-16.639
		c0.21-3.971,4.38-5.73,7.74-6.4c5.36-1.02,10.95-1.58,16.36-0.59c5.569,0.939,8.24,7.209,13.83,8.09c1.09-3.1,0.25-7.7,4.02-9.051
		c6.97-2.969,14.73-1.09,21.351,1.891c3.67,2.16,6.859-1.33,10.17-2.51c5.689-1.881,12.189-1.16,17.239,2.109
		c3.32,2.53,6.971-0.52,10.37-1.26c9.92-2.73,19.971,0.76,29.021,4.721c1.569-2.33,3.229-4.74,5.8-6.051
		c8.14-4.47,16.85-7.85,25.77-10.4c3.57-0.89,8.021-1.79,10.99,1.05c2.73,2.73,1.67,7.09,0.2,10.199
		c-3.97,8.281-11.7,13.69-18.24,19.811c-4.779,4.061-9.51,8.74-15.64,10.62c-3.13,1.22-4.88-2.091-6.76-3.89
		c-0.44,3.67-0.69,7.41-1.69,10.99c-0.92,3.389-3.74,5.709-6.25,7.949c-4.84,3.939-9.939,7.641-15.5,10.5
		c-2.65,1.43-5.83,1.88-8.16,3.82c-2.319,2.939-3.06,6.76-5.17,9.84c-2.81,4.15-7.08,6.949-10.87,10.12
		c-7.83,6.11-14.7,13.3-22.05,19.96c-5.5,4.93-10.57,10.43-16.89,14.35c-2.75-7.07-4.08-14.57-5.271-22.02
		c-0.66,7.26,0.12,14.75-1.819,21.85c-2.58,6.46-7.971,11.21-12.641,16.18c-6.439,6.23-12.67,12.771-20.109,17.851
		c-1.16-4.021-1.66-8.17-2.16-12.3c-3.311,9.199-5.521,19.35-12.601,26.56c-2.439,2.46-5.979,5.25-9.63,3.96
		c-2.359-1.979-3.06-5.28-5.13-7.54c-6.08,3.32-10.27,9.07-15.92,12.98c-2.17,1.439-4.93,3.279-7.6,2.069
		c-2.68-2.069-3.291-5.659-3.971-8.77c-1.699-10.32-1.869-20.811-3.07-31.19c-0.289,8.92-0.149,17.88-1.049,26.78
		c-0.701,5.51-1.681,11.57-5.801,15.67c-2.98,3.01-7.369,3.78-11.41,4.16h-2.91c-3.16-0.24-6.739-0.14-9.33-2.22
		c-1.959-2.23-2.989-5.101-4.84-7.42c-2.319,1.62-4.279,3.75-6.83,5.029c-5.789,2.57-12.35,2.03-18.51,1.61
		c-3.709-0.26-8.189-1.41-9.65-5.28c-1.9-5.5-1.16-11.47-1.56-17.189c-1.61,6.229-2.58,12.77-5.58,18.54
		c-1.9,3.85-6.54,4.739-10.36,5.43c-4.66,0.56-10.69,0.9-13.62-3.57c-3.55-6.14-2.3-13.58-2.7-20.35
		c-2.26,5.26-4.01,10.83-7.36,15.54c-2.04,2.67-5.13,5.32-8.75,4.67c-4.76-0.62-7.73-5.09-9.04-9.33c-2.81-8.28,0.43-17.44-3-25.56
		c-1.97,7.52-1.16,15.409-2.64,23.01c-0.44,2.09-1.22,4.49-3.4,5.34c-4.2,1.65-8.75-0.12-12.62-1.88
		c-4.68-2.08-7.94-6.28-12.46-8.601c-3.75-1.899-8.11-1.539-12.04-2.869c-4.7-1.54-8.96-4.17-12.87-7.16
		c-7.62-5.641-13.3-13.521-21.22-18.79c-3.78-2.58-8.8-2.62-12.28-5.71c-6.6-5.551-10.07-13.95-10.58-22.44
		c-1.11,2.261-1.78,4.97-3.87,6.57c-2.88,1.56-6.03-0.67-7.75-2.931c-3.95-4.709-3.64-11.649-7.8-16.18
		c-4.13-2.57-9.89-0.9-13.67-4.34c-7.1-6.449-11.34-15.27-17.65-22.42c-4.33-5.641-10.3-9.65-15.26-14.67
		c-3.73-3.66-3.59-9.2-4.71-13.96c-2.29-0.13-4.73,0.45-6.91-0.431c-2.85-1.77-4.62-4.739-6.93-7.109
		c-4.58-5.061-11.09-7.59-16.6-11.42c-6.97-4.891-13.5-10.42-19.43-16.53c-1.36-1.57-2.99-3.21-3.32-5.36
		C8.48,175.15,12.05,172.48,15.43,170.56 M371.21,220.42c-0.11,5.66,2.49,10.79,4.44,15.939c1.869,4.461,3.72,9.201,7.49,12.431
		c1.18-5.97-1.961-11.47-4.061-16.83C377.12,227.75,375.311,223.01,371.21,220.42 M187.03,291.971c-0.49,2.129-1.15,4.649,0.27,6.6
		c1.76,0.66,3.06-1.301,3.47-2.75C190.55,293.95,189.12,291.82,187.03,291.971 M328.41,314.88c-0.99,7.97-1,16.05-0.53,24.061
		c0.271,4.17,0.97,8.579,3.931,11.76c1.799-10.79,1.02-21.79,0.41-32.65c-0.08-2.92-0.851-5.75-2.15-8.35
		C329.41,311.38,328.65,313.06,328.41,314.88z"/>
</g>
</svg>
