<?xml version="1.0" encoding="utf-8"?>
<!-- Generator: Adobe Illustrator 14.0.0, SVG Export Plug-In . SVG Version: 6.00 Build 43363)  -->
<!DOCTYPE svg PUBLIC "-//W3C//DTD SVG 1.1//EN" "http://www.w3.org/Graphics/SVG/1.1/DTD/svg11.dtd">
<svg version="1.1" id="Layer_1" xmlns="http://www.w3.org/2000/svg" xmlns:xlink="http://www.w3.org/1999/xlink" x="0px" y="0px"
	 width="371px" height="470px" viewBox="0 0 371 470" enable-background="new 0 0 371 470" xml:space="preserve">
<defs>
   <linearGradient id="colour1">
     <stop offset="100%" stop-color="#005DAA"/>
   </linearGradient>
   <linearGradient id="colour2">
     <stop offset="100%" stop-color="#FEC057"/>
   </linearGradient>
</defs>
<path fill="" d="M370.58,0h-371v234.33c2.37,3.31-0.23,7.76,1.74,11.23c0.21,1.36,0.36,2.76,1.06,3.99
	c0.13,0.96,0.27,1.93,0.4,2.89c0.68,1.65,0.95,3.42,1.52,5.11c0.24,1.33,0.47,2.68,0.89,3.98c0.39,1,0.78,2,1.17,3
	c0.11,0.48,0.34,1.45,0.46,1.94c0.62,1.66,0.91,3.41,1.55,5.07c0.08,0.5,0.25,1.5,0.33,2c0.56,0.93,1.1,1.88,1.64,2.83
	c0.8,1.76,1.67,3.49,2.49,5.24c0.5,0.93,1.01,1.86,1.52,2.78c0.49,1.08,0.98,2.16,1.45,3.25c1.12,1.95,2.49,3.77,3.51,5.79
	c0.99,1.67,2.09,3.28,3,5c1,1.67,2.09,3.27,3,4.99c0.8,1.43,1.74,2.78,2.63,4.16c0.69,0.99,1.36,2.01,1.97,3.06
	c0.34,0.43,1,1.29,1.34,1.72c0.61,1.05,1.28,2.06,1.97,3.07c0.91,1.39,1.86,2.76,2.64,4.23c1.14,1.23,2.29,2.43,3.41,3.67
	c1.38,3.42,5.25,4.92,6.62,8.35c3.1,3.86,7.58,6.61,10,11c3.89,4.11,7.9,8.12,12.02,12.01c4.56,2.2,6.78,7.42,11.34,9.62
	c1.97,1.7,3.69,3.68,5.66,5.38c2.96,1.18,4.39,4.4,7.31,5.65c1.23,1.13,2.5,2.24,4,3c1.23,1.13,2.49,2.27,4.03,2.98
	c0.89,0.78,1.78,1.58,2.67,2.39c1.46,0.82,2.86,1.74,4.29,2.6c1.22,1.16,2.51,2.28,4.04,3.02c0.89,0.77,1.77,1.56,2.67,2.35
	c1.53,0.72,2.8,1.84,4.02,3c1.43,0.85,2.82,1.77,4.23,2.67c1.2,0.91,2.49,1.71,3.85,2.38c2.76,1.51,5.16,3.62,8,4.99
	c1.67,0.97,3.24,2.09,4.92,3.05c3.03,0.97,5.23,3.44,8.23,4.5c3.46,1.49,6.36,3.95,9.82,5.48c1.05,0.49,2.11,1,3.17,1.5
	c1.32,0.72,2.66,1.4,4.02,2.05c0.5,0.23,1.49,0.7,1.98,0.93c0.97,0.54,1.94,1.1,2.9,1.67c0.51,0.05,1.53,0.16,2.04,0.21
	c1.58,0.97,3.24,1.79,4.9,2.63c1.35,0.61,2.69,1.27,4,2c1.41,0.63,2.81,1.3,4.08,2.2c0.5,0,1.49,0,1.99,0
	c1.29-0.89,2.69-1.58,4.12-2.21c0.95-0.49,1.89-0.98,2.85-1.46c0.5-0.29,1.51-0.86,2.01-1.14c0.52-0.07,1.54-0.2,2.05-0.26
	c0.51-0.28,1.53-0.84,2.03-1.12c0.98-0.54,1.96-1.09,2.92-1.65c0.52-0.04,1.54-0.13,2.05-0.18c1.6-1.75,3.83-2.6,5.9-3.66
	c1.35-0.62,2.69-1.28,4-2c1.35-0.64,2.69-1.3,4.01-1.98c2.95-1.12,5.19-3.47,8.16-4.54c1.96-1.07,3.97-2.04,6-3
	c3.41-1.6,6.62-3.54,9.85-5.46c2.04-1.23,3.93-2.73,6.2-3.52c1.67-0.96,3.25-2.07,4.93-3.04c1.74-0.92,3.38-2.02,5.09-3.02
	c0.89-0.8,1.77-1.6,2.68-2.38c1.96-0.94,3.35-2.71,5.32-3.63c0.9-0.8,1.79-1.6,2.68-2.4c1.46-0.83,2.86-1.74,4.3-2.6
	c1.21-1.18,2.5-2.28,4.03-3.02c0.89-0.78,1.77-1.57,2.67-2.34c1.91-1.02,3.41-2.62,5.3-3.68c1.24-1.13,2.49-2.27,4.03-2.96
	c1.23-1.12,2.42-2.27,3.66-3.38c2-0.87,3.45-2.54,5-4.01c1.05-0.54,2.11-1.12,2.93-2c9.4-9.62,19.1-18.95,28.43-28.63
	c1.04-2.47,3.31-4.01,5.01-5.99c0.86-2,2.52-3.46,3.99-5c0.58-1.08,1.24-2.11,1.94-3.11c1.09-1.63,2.2-3.25,3.1-5
	c0.81-1.42,1.73-2.78,2.62-4.15c0.9-1.22,1.69-2.51,2.39-3.86c0.81-1.39,1.72-2.72,2.52-4.12c1.42-2.67,3.29-5.07,4.48-7.86
	c0.63-1.37,1.3-2.72,1.99-4.05c0.3-1.05,0.65-2.07,1.06-3.07c0.08-0.5,0.25-1.5,0.33-1.99c0.56-0.97,1.11-1.94,1.66-2.91
	c0.26-1.04,0.55-2.07,0.87-3.08c0.33-1.01,0.66-2.01,1.01-3c0.34-1.01,0.72-2.02,1.11-3.01c0.12-0.48,0.35-1.45,0.47-1.93
	c0.6-1.66,0.89-3.42,1.52-5.07c0.12-0.48,0.36-1.44,0.49-1.92c0.61-1.26,0.79-2.65,1.02-4.01c0.86-1.52,0.74-3.29,0.92-4.97
	c1.53-2.14,0.04-5.06,1.7-7.13c0.59-3.7-0.91-7.83,1.11-11.2V0z"/>
<path fill="url(#colour2)" d="M185.916,394.278h-2.576c-0.186-20.233-0.928-36.522-2.228-48.866c-0.975-9.235-2.576-18.006-4.803-26.312
	c2.367-2.042,4.061-4.201,5.081-6.474c1.021-2.274,1.671-5.616,1.949-10.024c-3.016,0.325-6.079,1.137-9.188,2.436
	c-4.873,2.042-8.423,3.063-10.65,3.063c-2.088,0-3.782-0.626-5.082-1.879s-1.949-2.831-1.949-4.734c0-1.949,0.673-3.572,2.019-4.872
	c1.393-1.346,3.109-2.019,5.151-2.019c1.16,0,2.228,0.14,3.202,0.418c0.511,0.139,2.946,1.16,7.309,3.062
	c2.785,1.207,5.847,1.903,9.188,2.089c-0.046-1.903-0.209-3.341-0.487-4.316c-0.325-1.438-1.021-3.434-2.088-5.986
	c-2.506-5.94-3.759-10.441-3.759-13.504c0-2.692,0.766-4.873,2.297-6.543s3.365-2.506,5.499-2.506c1.949,0,3.689,0.882,5.221,2.645
	c1.578,1.717,2.366,3.852,2.366,6.404c0,1.392-0.185,2.785-0.557,4.176c-0.463,1.81-1.531,4.733-3.202,8.771
	c-1.624,3.991-2.529,7.611-2.714,10.86c3.294-0.279,6.357-0.975,9.188-2.089c4.594-1.81,7.263-2.807,8.005-2.993
	c1.021-0.278,2.064-0.418,3.132-0.418c2.228,0,4.015,0.65,5.36,1.949c1.392,1.3,2.089,2.923,2.089,4.872
	c0,1.857-0.697,3.435-2.089,4.734c-1.345,1.299-3.04,1.949-5.081,1.949c-2.553,0-6.381-1.09-11.486-3.271
	c-2.227-0.928-3.828-1.508-4.803-1.74c-0.975-0.231-2.414-0.417-4.315-0.557c0.232,4.362,0.858,7.727,1.879,10.094
	c1.067,2.366,2.762,4.501,5.082,6.404c-2.229,8.491-3.782,16.938-4.664,25.337C187.331,352.791,186.565,369.404,185.916,394.278"/>
<path fill="url(#colour2)" d="M289.916,147.278h-2.576c-0.186-20.233-0.928-36.522-2.228-48.866c-0.975-9.235-2.576-18.006-4.803-26.312
	c2.367-2.042,4.061-4.201,5.081-6.474c1.021-2.274,1.671-5.616,1.949-10.024c-3.016,0.325-6.079,1.137-9.188,2.436
	c-4.873,2.042-8.423,3.063-10.65,3.063c-2.088,0-3.782-0.626-5.082-1.879s-1.949-2.831-1.949-4.734c0-1.949,0.673-3.572,2.019-4.872
	c1.393-1.346,3.109-2.019,5.151-2.019c1.16,0,2.228,0.14,3.202,0.418c0.511,0.139,2.946,1.16,7.309,3.062
	c2.785,1.207,5.847,1.903,9.188,2.089c-0.046-1.903-0.209-3.341-0.487-4.316c-0.325-1.438-1.021-3.434-2.088-5.986
	c-2.506-5.94-3.759-10.441-3.759-13.504c0-2.692,0.766-4.873,2.297-6.543s3.365-2.506,5.499-2.506c1.949,0,3.689,0.882,5.221,2.645
	c1.578,1.717,2.366,3.852,2.366,6.404c0,1.392-0.185,2.785-0.557,4.176c-0.463,1.81-1.531,4.733-3.202,8.771
	c-1.624,3.991-2.529,7.611-2.714,10.86c3.294-0.279,6.357-0.975,9.188-2.089c4.594-1.81,7.263-2.807,8.005-2.993
	c1.021-0.278,2.064-0.418,3.132-0.418c2.228,0,4.015,0.65,5.36,1.949c1.392,1.3,2.089,2.923,2.089,4.872
	c0,1.857-0.697,3.435-2.089,4.734c-1.345,1.299-3.04,1.949-5.081,1.949c-2.553,0-6.381-1.09-11.486-3.271
	c-2.227-0.928-3.828-1.508-4.803-1.74c-0.975-0.231-2.414-0.417-4.315-0.557c0.232,4.362,0.858,7.727,1.879,10.094
	c1.067,2.366,2.762,4.501,5.082,6.404c-2.229,8.491-3.782,16.938-4.664,25.337C291.331,105.791,290.565,122.404,289.916,147.278"/>
<path fill="url(#colour2)" d="M81.916,147.278H79.34c-0.186-20.233-0.928-36.522-2.228-48.866c-0.975-9.235-2.576-18.006-4.803-26.312
	c2.367-2.042,4.061-4.201,5.081-6.474c1.021-2.274,1.671-5.616,1.949-10.024c-3.016,0.325-6.079,1.137-9.188,2.436
	c-4.873,2.042-8.423,3.063-10.65,3.063c-2.088,0-3.782-0.626-5.082-1.879s-1.949-2.831-1.949-4.734c0-1.949,0.673-3.572,2.019-4.872
	c1.393-1.346,3.109-2.019,5.151-2.019c1.16,0,2.228,0.14,3.202,0.418c0.511,0.139,2.946,1.16,7.309,3.062
	c2.785,1.207,5.847,1.903,9.188,2.089c-0.046-1.903-0.209-3.341-0.487-4.316c-0.325-1.438-1.021-3.434-2.088-5.986
	c-2.506-5.94-3.759-10.441-3.759-13.504c0-2.692,0.766-4.873,2.297-6.543s3.365-2.506,5.499-2.506c1.949,0,3.689,0.882,5.221,2.645
	c1.578,1.717,2.366,3.852,2.366,6.404c0,1.392-0.185,2.785-0.557,4.176c-0.463,1.81-1.531,4.733-3.202,8.771
	c-1.624,3.991-2.529,7.611-2.714,10.86c3.294-0.279,6.357-0.975,9.188-2.089c4.594-1.81,7.263-2.807,8.005-2.993
	c1.021-0.278,2.064-0.418,3.132-0.418c2.228,0,4.015,0.65,5.36,1.949c1.392,1.3,2.089,2.923,2.089,4.872
	c0,1.857-0.697,3.435-2.089,4.734c-1.345,1.299-3.04,1.949-5.081,1.949c-2.553,0-6.381-1.09-11.486-3.271
	c-2.227-0.928-3.828-1.508-4.803-1.74c-0.975-0.231-2.414-0.417-4.315-0.557c0.232,4.362,0.858,7.727,1.879,10.094
	c1.067,2.366,2.762,4.501,5.082,6.404c-2.229,8.491-3.782,16.938-4.664,25.337C83.331,105.791,82.565,122.404,81.916,147.278"/>
<g>
	<rect y="170" fill="url(#colour2)" width="370.58" height="58"/>
</g>
</svg>
