<?xml version="1.0" encoding="utf-8"?>
<!-- Generator: Adobe Illustrator 14.0.0, SVG Export Plug-In . SVG Version: 6.00 Build 43363)  -->
<!DOCTYPE svg PUBLIC "-//W3C//DTD SVG 1.0//EN" "http://www.w3.org/TR/2001/REC-SVG-20010904/DTD/svg10.dtd">
<svg version="1.0" id="Layer_1" xmlns="http://www.w3.org/2000/svg" xmlns:xlink="http://www.w3.org/1999/xlink" x="0px" y="0px"
	 width="800px" height="600px" viewBox="0 0 800 600" enable-background="new 0 0 800 600" xml:space="preserve">
<g id="West_Suburbs">
	<path stroke="#000000" stroke-width="0.0469" stroke-miterlimit="10" d="M393.093,152.346c1.65-1.35,3.85-1.3,5.9-1.3
		c3.5,0.05,6.75,1.45,10.1,2.101c3.201,1.05,6.299,2.25,9.5,3.199c3.1-1.149,6.5-1.55,9.75-0.699c3.549,1.3,6.9,3.449,9.15,6.55
		c1.551,1.75,3.199,3.399,4.801,5.1c2.049,2.95,3.848,6.101,4.898,9.55c1.15,2.851,1.75,5.851,2.9,8.601
		c1.049,2.95,1.549,6.05,2.25,9.1c0.75,0.5,1.5,0.95,2.201,1.5c6.148,4,11.299,9.351,15.898,15.05c1.4,1.951,3,3.75,4.102,5.9
		c2.848,3.551,4.348,8,6.348,12.051c2.902,6.949,4.402,14.35,6.902,21.398c0.299,1.451,0.848,2.852,1.648,4.15
		c4.352,7.4,8.25,15.051,11.551,23c1.25,2.551,2.148,5.25,3.148,7.85c0.451,1.551,1,3.102,0.75,4.701
		c-2.199-0.65-2.949-3.15-4.449-4.65c0.051,1.449,0.051,2.9-0.051,4.4c-0.699-0.201-1.398-0.451-2.049-0.801
		c0.049,0.15,0.1,0.4,0.15,0.551c0.801,1.75,1.35,3.75,0.85,5.65c-0.451,0.699-1.35,0.449-2,0.6c-0.201,0.449-0.35,0.85-0.549,1.299
		c-0.801,0.551-1.5,1.701-2.602,1.65c-1.051-0.299-1.801-1.15-2.699-1.75c-0.5,0.4-1,0.801-1.5,1.201
		c-0.852-0.301-1.65-0.701-2.4-1.15c-0.4-0.451-0.75-0.9-1.15-1.35c-0.949,0.049-1.898,0.1-2.85,0.1c-0.701-0.75-1.4-1.5-2.15-2.201
		c-1.25-2.1-2.5-4.148-3.85-6.199c-0.799,2.1-0.75,4.301-0.9,6.5c-0.551,1.551-0.75,3.199-1.051,4.801
		c0.152,0.648,0.301,1.35,0.402,2.049c1.098,1.701,2.949,2.599,4.898,3.099c1.9,0.4,2.9,2.301,4.551,3.201
		c1.35,0.449,2.85,0.35,4.1,1c2.9,0.299,5.65,1.1,8.549,1.5c1.152,0.1,2.25,0.6,3.301,1.049c0,0.352,0.051,0.951,0.102,1.301
		c-1.201,1.75-2.652,3.35-4.402,4.5c-2,0.9-2.699,3.551-2.098,5.5c0.648,1.449-0.451,2.801-0.852,4.15
		c-0.898,0.4-1.75,0.9-2.648,1.199c-3.051-0.25-6-1.25-8.902-2.049c-2.799,0.049-5.598-0.301-8.098-1.551
		c-3.051,0.051-5.902-1.301-8.951-1.551c-3.451-0.25-6.6-1.699-10-2.1c-1.799-0.9-3.75-0.949-5.701-0.9
		c-0.75-0.549-1.75-1-1.898-2.049c3.449-0.051,6.75,0.75,10.148,1.4c1.301,0.449,2.652,0.85,4.051,0.75
		c-0.898-2.551,0.699-4.951,1.699-7.201c0.5,2.701-1.199,5.201-0.648,7.951c0.5-0.75,1.1-1.5,1.6-2.301c1-1.801,0.75-4.1,2.049-5.75
		c0-0.65,0-1.35,0-2.051c0.951-1,1.352-2.449,2.551-3.199c1.25-0.801,2.102-2.199,3.602-2.449c1.098-0.25,2.098,0.35,3.148,0.648
		c2.65,0.701,5.199,1.75,7.801,2.602c-0.5-0.551-1.102-1.102-1.65-1.602c-1.1-0.25-2.15-0.5-3.25-0.75
		c-1.5-0.85-3.15-1.549-4.549-2.648c-0.402-1.102-0.902-2.201-1.352-3.3c1.15-1,0.352-2.551,0.65-3.801c0.35-2.5,0.65-5,0.65-7.5
		c0.648-2.949,1.6-5.85,2.051-8.85c0.049-0.9,1.148-2.049,0.299-2.75c-0.75,0.051-1.5,0.25-2.25,0.451
		c0.201,0.6,0.35,1.148,0.549,1.75c-0.098,5.75-1.75,11.25-2.5,16.898c-0.699,1.951-0.5,4.15-1.598,5.9
		c-1.602,2.5-4.551,3.6-6.902,5.201c-1.25,0.648-2.299,1.549-3.598,1.949c-0.201,0.75-0.551,2.301-0.701,3.051
		c2-1.4,3.85-3,5.799-4.451c0.902-1.15,2.25-1.799,3.652-2.15c-1.25,2.301-3.602,3.602-4.801,5.951
		c-1.15,0.75-2.699,0.949-3.949,1.6c-0.051,0.4-0.201,1.199-0.25,1.551c-0.25-0.051-0.801-0.201-1.051-0.25
		c-0.15-1.801,0-3.602,0.25-5.4c0.75-0.35,1.449-0.85,2.1-1.4c1.451-1.199,4.049-1.5,4.549-3.5c-2.648-0.5-5.398-0.65-8.049-0.699
		c-1.75-0.25-2.65,1.398-3.451,2.648c-1.75,2.602-2.398,5.75-3.549,8.65c-1.049-1-1.701-2.35-2.1-3.75
		c-1.102,0.85-0.699,2.201-0.852,3.35c-0.25,1-1,1.701-1.449,2.551c0.301,0.5,0.551,1,0.801,1.5c-3.301-0.301-6.602,0.449-9.852-0.1
		c-0.5-0.4-1.049-0.801-1.549-1.15c-0.75-0.85-1.65-2-2.951-1.801c-2.398,0.051-4.699-0.699-7.098-0.799
		c-1.201-0.1-2.451,0-3.551-0.6c-0.5-0.65-1.25-1-1.949-1.352c-0.152-0.699-0.352-1.35-0.602-2
		c-0.051-1.148-0.051-2.299-0.051-3.449c1.102-1.9,2.301-3.699,3.301-5.599c0.75,1.9-0.85,3.5-1.801,4.949
		c-0.848,1.051-0.75,2.4-0.648,3.65c2.75,0.65,5.5,1.199,8.199,2c1.449-0.35,2.949-0.25,4.449-0.4c0-0.199,0.051-0.549,0.051-0.75
		c-0.898-0.5-1.801-1-2.648-1.549c-1.102-0.75-2.602-0.551-3.602-1.451c1.949-0.4,4.4-0.549,6,0.9c1.65,0.25,3.352-0.301,4.949,0.25
		c1.102,0.449,2.201,0.949,3.301,1.449c-0.199,0.201-0.6,0.602-0.801,0.852c-0.299-0.15-0.598-0.301-0.898-0.4
		c-1.199-0.1-2.4-0.25-3.65-0.201c0.451,0.801,1.1,1.451,1.799,2.051c0.852,0.051,1.652,0.1,2.5,0.15
		c-0.049,0.699-0.648,1.65,0.152,2.1c1.398,0.6,2.799,1,4.098,1.75c0.152-0.301,0.402-0.9,0.551-1.199
		c-0.801-1.65-0.301-3.451-0.449-5.15c-2.15-0.051-2.051-2.4-1.9-3.951c0.35-0.549,0.75-1.049,1.1-1.549
		c0.551-0.35,1.051-0.701,1.551-1.051c1.148-0.549,2.199-1.199,3.199-1.9c-1.199-0.449-2.449-0.849-3.75-1.148
		c-1.75-0.4-3.5,0.25-5.25,0.299c-0.898-0.199-1.801-0.35-2.699-0.549c-0.65-0.201-1.352-0.4-2-0.65c0.648-0.85,1.801-0.6,2.75-0.75
		c-2.199-0.6-4.5-1.1-6.801-0.801c-1,0.4-1.6,1.35-2.301,2.15c-0.5,0.199-1,0.4-1.449,0.6c-1,0.051-2,0.1-3,0.201
		c0.051-0.25,0.15-0.801,0.199-1.051c2,0.1,3.852-0.85,5.301-2.199c0.75-0.801,1.9-0.951,2.949-1.201
		c2.152,1.25,4.902,0.85,6.951,2.35c1.25,0,2.549-0.049,3.799,0.051c2.201,0.25,4.25,1.4,6.5,1.301
		c2.25-0.602,2.551-3.25,3.352-5.102c1.398-4.699,2.699-9.449,4.35-14.049c0.549-2,1.701-3.9,1.6-6.051
		c-0.551-0.9-1.35-1.6-2.051-2.35c-1.598-1.6-2.75-3.801-5.049-4.5c-2.701-0.9-5.299-1.949-7.75-3.4c-3.5-2.4-7.85-3.15-11.35-5.549
		c-5.15-3.551-9.551-8.201-12.801-13.602c-3.6-4.398-6.199-9.398-8.6-14.5c-0.549-2.35-1.549-4.549-1.799-6.949
		c0.049-2.699-0.551-5.801,1.199-8.1c0.449-0.85,1.301-1.35,2.1-1.85c0.299-0.15,0.85-0.4,1.1-0.5c0.15-1.201,0.199-2.4,0.5-3.551
		c0.102-2.699,0.5-5.449,1.352-8c0.799-3.45,2.148-7.1,0.949-10.6c0.051-4.051-1.25-7.95-1.551-12c-0.148-3.301-1.85-6.15-3.1-9.15
		c-0.85-1.65-1.6-3.65-3.35-4.65c-4.15-2.3-8.352-4.5-11.9-7.649c-0.65-0.5-1.049-1.3-1.4-2
		C395.044,154.596,394.142,153.397,393.093,152.346L393.093,152.346z"/>
	<path fill="#FFFFFF" stroke="#FFFFFF" stroke-width="0.0469" stroke-miterlimit="10" d="M397.392,153.346
		c1.852-0.8,3.852-0.05,5.701,0.15c5.799,0.9,11.35,2.9,16.549,5.55c-0.598,0.65-1.25,1.3-1.898,1.95c0.949,0.85,2,1.55,2.898,2.45
		C412.544,160.947,404.642,157.697,397.392,153.346L397.392,153.346z"/>
	<path fill="#FFFFFF" stroke="#FFFFFF" stroke-width="0.0469" stroke-miterlimit="10" d="M397.794,155.497
		c5.098,2.95,10.648,5.05,16.299,6.75c2.201,0.6,4.35,1.5,6.299,2.65c1,2.399,0.102,4.899-0.148,7.35
		c-0.4-0.15-1.102-0.4-1.449-0.55c0.098-0.65,0.148-1.3,0.25-1.95c-1.301-1-2.801-1.7-4.301-2.4
		c-5.801-3.35-11.801-6.5-16.949-10.85C397.794,156.247,397.794,155.747,397.794,155.497L397.794,155.497z"/>
	<path fill="#FFFFFF" stroke="#FFFFFF" stroke-width="0.0469" stroke-miterlimit="10" d="M431.093,163.647
		c2.25,2.899-2.65,6.35-5.1,4.35c-1.15-0.5-1.15-1.85-1.301-2.9c0.551,0.5,1.102,1.051,1.65,1.601c1.299,0.3,2.701,0.25,3.85-0.5
		C430.493,165.346,430.794,164.497,431.093,163.647L431.093,163.647z"/>
	<path fill="#FFFFFF" stroke="#FFFFFF" stroke-width="0.0469" stroke-miterlimit="10" d="M442.942,171.397
		c1.699,1.85,2.9,4.149,3.4,6.699c0.549,3.051,1.85,5.95,3,8.851c0.1,0.85-0.1,1.7-0.049,2.55c0.348,1.45,1.199,2.7,1.549,4.15
		c-0.451,0.25-0.9,0.449-1.4,0.649c0.051,0.8,0.051,1.55,0.102,2.3c-0.75,0.2-1.451,0.4-2.201,0.601
		c-0.6-0.75-1.15-1.601-1.75-2.351c-0.25-0.5-0.5-1-0.75-1.5c0.299,1.351,0.6,2.65,0.65,4c-1.102-0.199-2.25-0.399-3.352-0.649
		c-0.848-1.65-2-3.25-2-5.15c0.852-0.25,1.201-0.75,1.152-1.5c-0.152-1.399-0.602-2.75-1.051-4.1c0.398-0.05,1.199-0.2,1.6-0.3
		c0.15-1.2,0.15-2.45-0.049-3.65c1.148-1.6,1-3.55,0.848-5.4c-0.648-1.25,0.551-2.399,0.301-3.649
		C442.942,172.546,442.942,171.747,442.942,171.397L442.942,171.397z"/>
	<path fill="#FFFFFF" stroke="#FFFFFF" stroke-width="0.0469" stroke-miterlimit="10" d="M446.942,201.247
		c1.75-1.5,4.301-1.9,6.551-1.55c4.699,1.2,9,3.851,12.051,7.601c-0.951-0.301-1.902-0.65-2.902-0.801
		c2.152,1.65,4.301,3.4,6.201,5.4c1.5,1.5,2.701,3.299,4.451,4.5c2.148,4.1,4.199,8.25,5.348,12.75c0.051,0.5,0.152,1,0.201,1.5
		c-0.9,0.449-1.35-0.65-1.75-1.25c-2.6-4.6-5.299-9.1-8.65-13.201c-1.35-1.85-3.1-3.35-4.449-5.199
		c-0.051,0.25-0.15,0.551-0.199,0.85c1.75,2.25,3.648,4.35,5.199,6.801c3,3.6,5,7.85,7.449,11.85c-0.051,0.5-0.148,1.551-0.25,2.1
		c-1.398-1.449-2.301-3.299-3.898-4.6c0.398,0.85,0.799,1.75,1.398,2.5c0.301,0.5,0.551,1.051,0.801,1.6
		c0.199,0.15,0.551,0.5,0.75,0.65c2.648,4.15,5.449,8.15,7.5,12.65c0.949,1.799,1.6,3.799,1.75,5.85c-2.449-1.85-3.5-4.9-5.352-7.25
		c-1.549-2.25-3.098-4.449-4.799-6.5c-0.1-1.449,0.25-3-0.6-4.25c-1.199-1.9-2.4-3.85-3.65-5.75c-1.1-1.5-2.35-2.9-3.299-4.551
		c0-0.25,0-0.75,0-1c-1.402-2.148-3.451-3.648-5.152-5.5c-2.648-2.549-5.398-4.949-8.348-7.1c-0.352-0.1-0.701-0.15-1.102-0.15
		c0.199,0.25,0.551,0.701,0.699,0.951c1.701,1.15,3.051,2.65,4.5,4.049c2.701,2.4,5.551,4.801,7.25,8.051
		c-2.25,0.1-4.098-1.699-5.549-3.25c-2.299-2.1-3.9-4.85-6.35-6.75c0.398,0.75,0.85,1.5,1.301,2.25
		c1.199,1.9,2.848,3.551,4.049,5.449c1.951,2.102,3.6,4.451,5.5,6.602c2.9,4.049,7.201,6.949,9.6,11.35c0.15,0.5,0.25,1,0.352,1.5
		c-0.5-0.051-0.951-0.051-1.402-0.1c-1-1-2-1.951-3.049-2.9c-2.299-2.85-4.35-5.9-6.4-8.951c-0.35-0.449-0.648-0.898-0.949-1.398
		c-0.15-0.102-0.5-0.301-0.65-0.451c-2.701-4.049-6.549-7.1-9.85-10.65c-2.199-2.299-4.949-4.299-6.352-7.25
		C444.294,205.346,445.692,203.147,446.942,201.247L446.942,201.247z"/>
	<path fill="#FFFFFF" stroke="#FFFFFF" stroke-width="0.0469" stroke-miterlimit="10" d="M411.093,218.497
		c0.65-1.449,1.35-3.6,3.25-3.449c0,3.148-0.049,6.35,0.5,9.5c0.35,2,0.6,4,0.6,6.049c0.65,3.301,1.699,6.551,2.449,9.9
		c-2.799-3.949-4.799-8.449-6.348-13.051C410.942,224.497,410.794,221.446,411.093,218.497L411.093,218.497z"/>
	<path fill="#FFFFFF" stroke="#FFFFFF" stroke-width="0.0469" stroke-miterlimit="10" d="M456.544,254.247
		c3,1.051,6.098,2.051,8.898,3.65c0,0.25-0.051,0.75-0.1,1c-1.299-0.1-2.65-0.1-3.701-1.051
		C459.743,256.946,458.093,255.647,456.544,254.247L456.544,254.247z"/>
	<path fill="#FFFFFF" stroke="#FFFFFF" stroke-width="0.0469" stroke-miterlimit="10" d="M452.392,254.747
		c1.801,0.949,3.5,1.949,5.352,2.801c0,0.398,0,0.799,0.051,1.25c-2-0.75-3.75-1.852-5.301-3.301
		C452.442,255.346,452.392,254.946,452.392,254.747L452.392,254.747z"/>
	<path fill="#FFFFFF" stroke="#FFFFFF" stroke-width="0.0469" stroke-miterlimit="10" d="M481.794,259.397
		c0.75-1.301,0.75-2.75,0.799-4.201c1.75,1.801,2.951,4.051,4.201,6.201c2.75,5.049,5.199,10.299,7.398,15.6
		c0.699,2.551,1.801,5.051,1.602,7.75c-0.5,0.5-1,0.949-1.602,1.301c-0.199-0.25-0.648-0.75-0.898-1
		c-0.051,0.898-0.102,1.85-0.152,2.75c-0.348,0-0.699,0-1.098,0c-0.301-0.25-0.652-0.551-0.951-0.801c-0.15,0.35-0.5,1-0.65,1.35
		c-1.898-0.1-2.75-2.35-3.648-3.75c0.299-2.25,0.449-4.6-0.852-6.549c0.051-0.852,0.102-1.701,0.15-2.551
		c-0.85-4.4-2.75-8.551-5.1-12.35c0.35-0.4,0.699-0.801,1-1.201C481.942,261.096,481.892,260.247,481.794,259.397L481.794,259.397z"
		/>
	<path fill="#FFFFFF" stroke="#FFFFFF" stroke-width="0.0469" stroke-miterlimit="10" d="M467.343,258.647
		c2.1,0.35,4.1,1.1,6.15,1.449c0.949,0,1.5,0.85,2.051,1.451c-1.551,1-3.301,0.6-4.951,0.25c0.35,0.699,0.799,1.398,1,2.199
		c-0.35,0.449-0.85,0.699-1.25,1c1.049,0.75,1.299,1.949,1.201,3.199c0.699,0.701,1.449,1.451,2.199,2.15
		c0.449,1.951,2.648,3.1,2.6,5.201c-2.5-1-3.65-3.602-5-5.75c-1.451-1.15-2.85-2.301-4.201-3.551c-2.398,1.65-5.398,0.15-7.949,1.5
		c-0.148,0.6-0.301,1.199-0.5,1.801c-1.6-0.65-3.1-1.65-4.301-2.9c-0.098-0.35-0.199-1-0.299-1.35
		c-2.1,0.199-4.299,0.299-6.25-0.701c0.799-1,2-0.949,3.15-0.9c0-0.35,0-1.148,0-1.549c0.301,0.049,0.898,0.049,1.199,0.049
		c0.449-0.35,0.9-0.648,1.352-1c2.25,1.701,5.199,2.25,7.898,1.551c0.15-0.301,0.449-0.9,0.602-1.199
		c1.398,0.35,2.75,0.75,4.148,1.1c0.949-0.4,1.852-0.951,2.699-1.551C468.392,260.297,467.843,259.497,467.343,258.647
		L467.343,258.647z"/>
	<path fill="#FFFFFF" stroke="#FFFFFF" stroke-width="0.0469" stroke-miterlimit="10" d="M479.692,277.047
		c-0.1-1.701-0.949-3.451,0.301-4.951c0.148,0.201,0.5,0.6,0.699,0.801c1.551,2.4,2.65,5.049,3.9,7.65c0.9,1.898,1,4.1,0.799,6.199
		c-0.949-0.35-1.699-1.051-2.299-1.801c-0.201,0.201-0.549,0.65-0.75,0.9c-0.201-0.049-0.6-0.1-0.799-0.15
		c-1.201-1.449-2.25-3.049-3.201-4.648C478.892,279.747,479.442,278.446,479.692,277.047L479.692,277.047z"/>
	<path fill="#FFFFFF" stroke="#FFFFFF" stroke-width="0.0469" stroke-miterlimit="10" d="M462.743,273.747
		c0.148-0.4,0.398-1.15,0.551-1.5c0.148,0.85-0.051,1.699-0.652,2.35c-0.299,0.801-0.648,1.6-1,2.4
		c-1.449,2.199-1.949,4.801-3.148,7.1c-0.051,0.4-0.102,0.85-0.15,1.301c-0.75,0.699-0.951,1.699-1,2.65
		c-1.049,3.25-1.549,6.75-1.451,10.148c0.402,0.5,0.75,1,1.152,1.551c1.299,0.35,2.648,1.051,4.049,0.699
		c1.451-0.299,2.85,0.201,4.1,0.75c-3.35,0.602-6.85-0.599-10.1,0.602c-0.1,0.25-0.25,0.799-0.35,1.049
		c-0.949,1.051-1.602,2.301-2.449,3.4c-1.152,1.449-1,3.4-1.602,5.1c-1-0.799-1-2.15-0.898-3.35c0.699-1.949,2.049-3.6,2.799-5.5
		c-0.451,0.1-0.951,0.199-1.4,0.35c-1.1,1.85-1.6,4.051-3.051,5.701c-0.699,1.199-2.199,2.35-1.5,3.949
		c-0.098,0.6-0.148,1.25-0.25,1.85l-0.799-0.1c-0.15-1.35-0.549-2.699-0.299-4c0.949-2.301,2.299-4.35,3.549-6.449
		c0.049-2.25,2.701-3.05,3.65-4.851c0.449-0.648,0.85-1.299,1.1-2.049c1.701-4.75,2.85-9.701,4.549-14.451
		c1.201-2.949,2.402-6,2.352-9.25C461.243,273.397,461.993,273.547,462.743,273.747L462.743,273.747z"/>
	<path fill="#FFFFFF" stroke="#FFFFFF" stroke-width="0.0469" stroke-miterlimit="10" d="M465.593,273.297
		c1.9,0.449,3.85,1,5.549,2.049c0.5,0.551,1.051,1.1,1.652,1.6c0.449,1,1.299,1.9,1.049,3.051c-0.35,3.15-0.65,6.35-1.25,9.5
		c-0.85,3-1.35,6.051-2,9.1c-0.299,1.85-1.35,3.5-2.951,4.55c-0.699-1.4-1.398-3.15-3.148-3.4c-2.25-0.15-4.602-0.1-6.699-1.1
		c-0.102-2.25,0.199-4.5,1.049-6.551c0.85-3.949,2.049-7.85,3.4-11.65c0.648-2.199,2.551-3.799,2.898-6.1
		C465.294,273.997,465.442,273.647,465.593,273.297L465.593,273.297z"/>
	<path fill="#FFFFFF" stroke="#FFFFFF" stroke-width="0.0469" stroke-miterlimit="10" d="M443.942,305.445
		c1.5-1,3-1.949,4.699-2.549c-0.898,1.799-3.049,2.25-4.25,3.799c-0.098,0.051-0.398,0.102-0.5,0.15
		C443.892,306.396,443.942,305.945,443.942,305.445L443.942,305.445z"/>
	<path fill="#FFFFFF" stroke="#FFFFFF" stroke-width="0.0469" stroke-miterlimit="10" d="M468.794,310.096
		c1.348-1.65,3.049-3.049,4.75-4.4c2.199,0.801,4.648,1,6.549,2.5c1.15,0.201,2.299,0.352,3.451,0.551
		c0.25,0.25,0.699,0.801,0.949,1.051c0.449-0.352,0.898-0.65,1.398-0.951c1.402,0.5,2.902,0.65,4.25,1.301
		c2.801-0.301,5.402,1,8.152,0.85c0.049,0.1,0.199,0.4,0.25,0.551c-3.102,1.049-6.152,2.148-9.25,3.199
		c0.049-0.801,0.098-1.65,0.098-2.449c-1.098,0.1-2.199,0.398-3.25,0.799c-0.449-0.25-0.949-0.549-1.449-0.799
		c-0.301,0.148-0.949,0.35-1.25,0.5c-0.148,0.299-0.449,0.898-0.551,1.199c0.25,0.1,0.852,0.35,1.152,0.5
		c1.049,0.15,1.848,0.75,2.549,1.551c0.451,0.5,0.799,1.049,1,1.699c-2.15-0.699-4.451-2.1-6.65-0.85
		c0.65,0.449,1.352,0.9,2.051,1.35c1.051-0.051,2.148-0.051,3.199,0.051c0.65,0.85,1.25,1.799,1.699,2.799
		c-0.299,0.051-0.949,0.051-1.299,0.051c-0.35-0.201-0.65-0.4-1-0.551c-1.201-3.049-4.75-1.15-7.1-2.049
		c0.5-0.25,1.449-0.65,1.898-0.9c-0.199-0.201-0.598-0.6-0.848-0.75c-2-0.051-3.951-0.6-5.951-0.6c-0.9,0.049-1.75-0.102-2.549-0.4
		c-1.102-0.1-2.25-0.1-3.352-0.25c0.102-0.701,0.199-1.4,0.4-2.1C468.343,312.396,468.392,311.246,468.794,310.096L468.794,310.096z
		"/>
	<path stroke="#000000" stroke-width="0.0469" stroke-miterlimit="10" d="M422.192,308.496c2.449-0.199,5.199-0.4,7.25,1.301
		c-0.051,0.199-0.199,0.699-0.25,0.949c-1.25-0.15-2.449-0.35-3.648-0.551C424.392,309.646,423.192,309.246,422.192,308.496
		L422.192,308.496z"/>
	<path fill="#FFFFFF" stroke="#FFFFFF" stroke-width="0.0469" stroke-miterlimit="10" d="M467.544,317.596
		c1.848,0.15,3.699,0.6,5.549,0.551c1.701-0.051,2.85,1.35,4.049,2.299c1.801,0.4,3.602,1,5.451,0.451c1.1,0.6,2.1,1.299,3.35,1.6
		c0.551,0.301,1.102,0.65,1.65,0.949c0.25,0.602,0.549,1.201,0.85,1.801c-1.35-0.4-2.301-1.449-3.449-2.199
		c-2.4-0.801-5.15-0.352-7.352-1.701c-2.299,0.25-4.598-0.25-6.549-1.449c-1.451,0.049-2.9-0.25-4.25-0.801
		C466.993,318.746,467.392,317.945,467.544,317.596L467.544,317.596z"/>
</g>
</svg>
