<?xml version="1.0" encoding="utf-8"?>
<!DOCTYPE svg PUBLIC "-//W3C//DTD SVG 1.0//EN" "http://www.w3.org/TR/2001/REC-SVG-20010904/DTD/svg10.dtd">
<svg version="1.0" id="Layer_1" xmlns="http://www.w3.org/2000/svg" xmlns:xlink="http://www.w3.org/1999/xlink" x="0px" y="0px"
	 width="1000px" height="500px" viewBox="0 0 1000 500" enable-background="new 0 0 1000 500" xml:space="preserve">
<defs>
   <linearGradient id="colour1">
     <stop offset="100%" stop-color="#FF0000"/>
   </linearGradient>
 </defs>
 <g fill="url(#colour1)" stroke="none">
<path d="M499.992,46.875L465.879,110.5c-3.871,6.915-10.806,6.273-17.741,2.411l-24.697-12.789l18.407,97.727
	c3.871,17.854-8.549,17.854-14.678,10.134l-43.101-48.251l-6.998,24.503c-0.807,3.218-4.354,6.598-9.677,5.793l-54.502-11.459
	l14.315,52.044c3.064,11.581,5.455,16.375-3.094,19.43l-19.426,9.13l93.821,76.208c3.714,2.882,5.59,8.067,4.268,12.763
	l-8.211,26.946c32.304-3.724,61.25-9.325,93.57-12.775c2.853-0.305,7.63,4.403,7.61,7.71l-4.28,98.724h15.706l-2.473-98.512
	c-0.02-3.307,4.314-8.227,7.167-7.922c32.32,3.45,61.266,9.052,93.569,12.775l-8.211-26.946c-1.322-4.695,0.554-9.881,4.268-12.763
	l93.821-76.208l-19.426-9.13c-8.549-3.054-6.158-7.849-3.094-19.43l14.314-52.044l-54.501,11.459
	c-5.323,0.805-8.871-2.575-9.678-5.792l-6.997-24.503l-43.102,48.251c-6.129,7.72-18.549,7.72-14.678-10.134l18.407-97.727
	l-24.697,12.789c-6.936,3.862-13.87,4.504-17.741-2.411"/>
</g>
</svg>
