<?xml version="1.0" encoding="utf-8"?>
<!-- Generator: Adobe Illustrator 14.0.0, SVG Export Plug-In . SVG Version: 6.00 Build 43363)  -->
<!DOCTYPE svg PUBLIC "-//W3C//DTD SVG 1.0//EN" "http://www.w3.org/TR/2001/REC-SVG-20010904/DTD/svg10.dtd">
<svg version="1.0" xmlns="http://www.w3.org/2000/svg" xmlns:xlink="http://www.w3.org/1999/xlink" x="0px" y="0px" width="900px"
	 height="700px" viewBox="-200 0 900 700" enable-background="new 0 0 612 792" xml:space="preserve">
<defs>
   <linearGradient id="colour1">
     <stop offset="100%" stop-color="red"/>
   </linearGradient> 
 </defs>
<g id="Layer_8">
	<g>
		<path d="M584.096,331.898c-2.778-3.125-29.166,9.375-37.5,9.375s-51.389-10.417-67.014-13.194
			c-31.25-6.25-37.5,16.667-38.541,24.305s-8.681,15.625-24.306,4.514s-42.361-32.986-77.083-34.028
			c-7.155-0.215-54.861,6.25-75.348,6.597c-20.485,0.347-35.068-5.903-35.068-5.903s12.152-5.903,11.805-9.722
			s-33.68,1.389-33.68,1.389s19.444-11.458,19.792-13.889s-59.722,5.903-59.722,5.903s4.861-7.986,3.819-10.417
			s-30.903,6.597-30.903,6.597s2.778-4.861,1.042-6.25s-32.639,13.889-32.639,13.889s0.346-18.402-4.167-20.833
			s-18.75,30.556-19.792,31.944s-14.931,13.542-18.055,18.75c-1.537,2.562-11.111,23.264-13.542,26.042
			s-13.542,22.569-14.931,23.611c-2.735,2.053-1.042,7.292-0.694,8.68c0.347,1.39,4.514,4.167,4.514,4.167s0.347,3.818,1.736,5.209
			c1.389,1.389,6.25,5.902,8.333,5.902s6.944,3.125,9.375-2.432c2.431-5.555,17.014-21.875,21.18-25.694s17.361-4.861,24.653-9.375
			c4.77-2.953,14.583-12.5,16.319-13.889s15.278,7.639,19.792,10.764s12.847,10.069,16.319,14.583s5.208,13.89,5.903,17.36
			c0.694,3.473-4.167,21.529-4.514,24.654s-5.555,15.625-5.555,18.75s9.375,9.027,11.805,10.068
			c2.43,1.043,8.681-1.041,13.889-1.736c5.208-0.693,27.083-0.348,27.083-0.348s2.43,5.557,7.639,7.986
			c5.208,2.432,21.875,11.807,21.875,11.807s-6.25,3.125-9.028,8.332c-2.778,5.209-9.722,5.557-11.458,5.557
			s-6.944,4.166-9.375,5.902s-3.819,7.291-3.819,7.291l27.083,1.043c0,0,1.041-7.639,2.083-9.375s11.806,0.693,11.806,0.693
			l9.375-5.207c0,0,4.861,5.207,7.292,5.902c2.431,0.693,8.333,0.348,8.333,0.348s4.514,4.861,8.681,5.902s16.667,2.43,19.792,1.041
			s-5.209-8.68-5.209-8.68s-10.069-12.152-11.805-13.195c-1.736-1.041-9.028,1.389-9.028,1.389l-4.514-5.207
			c3.819-3.125,22.917-8.682,28.125-9.029s29.861,9.029,29.861,9.029s21.527-29.861,23.958-32.293
			c2.431-2.43,29.167-9.375,41.667-24.652c7.31-8.934,22.916-28.472,29.166-32.986s15.278-1.042,31.598-1.389
			s18.402-6.598,25.694-15.973s15.973-0.694,23.264,1.042s27.431,8.333,58.334,0.694S586.874,335.023,584.096,331.898z
			 M183.749,447.176c-2.778-0.348-6.944-9.027-6.944-9.027l9.028-14.584c0,0,8.333,9.027,11.111,11.459
			c2.778,2.43,8.333,12.152,8.333,12.152S186.526,447.523,183.749,447.176z M305.971,414.885
			c-3.819,7.291-11.01,26.873-21.875,34.721c-6.25,4.516-12.152,1.391-15.277,2.779s-19.098,12.5-19.098,12.5
			s-4.514-2.432-5.902-4.168s-3.82-4.166-3.82-4.166l5.209-3.125l3.819-5.209c0,0,6.25-0.693,7.292-1.389
			c1.041-0.693,11.806-12.152,11.111-14.236c-0.695-2.082-25.348-3.818-26.736-3.125c-1.389,0.695-3.126,7.986-5.209,9.375
			s-3.125,2.084-3.125,2.084s-2.43-5.904-2.43-9.375c0-3.473,0.693-9.375,0.693-9.375c1.389,0.348,32.639-1.389,36.111-2.43
			c3.473-1.043,34.375-11.111,37.5-11.111S309.79,407.594,305.971,414.885z"/>
	</g>
</g>
<g id="Layer_2">
	<path fill="none" stroke="#000000" d="M107.361,307.778c0,0,30.903-15.278,32.639-13.889s-1.042,6.25-1.042,6.25
		s29.861-9.028,30.903-6.597s-3.819,10.417-3.819,10.417s60.069-8.333,59.722-5.903s-19.792,13.889-19.792,13.889
		s33.333-5.208,33.68-1.389s-11.805,9.722-11.805,9.722s14.583,6.25,35.069,5.903s68.192-6.812,75.347-6.597
		c34.722,1.042,61.458,22.917,77.083,34.028s23.265,3.125,24.306-4.514s7.291-30.555,38.541-24.305
		c15.625,2.777,58.68,13.194,67.014,13.194s34.722-12.5,37.5-9.375s6.599,33.681-24.305,41.319s-51.043,1.042-58.334-0.694
		s-15.972-10.417-23.264-1.042s-9.375,15.625-25.694,15.973s-25.348-3.125-31.598,1.389s-21.856,24.053-29.166,32.986
		c-12.5,15.277-39.236,22.222-41.667,24.652s-23.958,32.292-23.958,32.292s-24.653-9.376-29.861-9.028s-24.305,5.903-28.125,9.028
		l4.514,5.208c0,0,7.292-2.431,9.028-1.389s11.806,13.194,11.806,13.194s8.333,7.292,5.208,8.681s-15.625-0.001-19.792-1.042
		s-8.681-5.902-8.681-5.902s-5.902,0.347-8.333-0.348s-7.292-5.902-7.292-5.902l-9.375,5.208c0,0-10.764-2.431-11.806-0.694
		s-2.083,9.375-2.083,9.375l-27.083-1.042c0,0,1.389-5.555,3.819-7.291s7.639-5.903,9.375-5.903s8.681-0.348,11.458-5.556
		s9.028-8.333,9.028-8.333s-16.667-9.375-21.875-11.806s-7.639-7.986-7.639-7.986s-21.875-0.347-27.083,0.348
		s-11.459,2.778-13.889,1.736s-11.805-6.944-11.805-10.069s5.208-15.625,5.555-18.75s5.208-21.182,4.514-24.653
		s-2.431-12.847-5.903-17.361s-11.805-11.458-16.319-14.583s-18.056-12.152-19.792-10.764s-11.55,10.936-16.319,13.889
		c-7.292,4.514-20.486,5.556-24.653,9.375s-18.75,20.139-21.18,25.694s-7.292,2.431-9.375,2.431s-6.944-4.513-8.333-5.902
		s-1.736-5.209-1.736-5.209s-4.167-2.777-4.514-4.167c-0.347-1.389-2.041-6.627,0.694-8.68c1.389-1.042,12.5-20.833,14.931-23.611
		s12.005-23.48,13.542-26.042c3.125-5.208,17.013-17.361,18.055-18.75s15.278-34.375,19.792-31.944S107.361,307.778,107.361,307.778
		z"/>
	<path fill="none" stroke="#000000" d="M229.235,418.889c1.389,0.348,32.638-1.388,36.111-2.43s34.375-11.111,37.5-11.111
		s5.556-1.041,1.736,6.25s-11.01,26.873-21.875,34.722c-6.25,4.515-12.153,1.39-15.278,2.778s-19.097,12.5-19.097,12.5
		s-4.514-2.431-5.903-4.167s-3.819-4.167-3.819-4.167l5.208-3.125l3.819-5.208c0,0,6.25-0.694,7.292-1.389
		s11.806-12.153,11.111-14.236s-25.348-3.819-26.736-3.125s-3.125,7.986-5.208,9.375s-3.125,2.083-3.125,2.083
		s-2.43-5.903-2.43-9.375S229.235,418.889,229.235,418.889z"/>
	<path fill="none" stroke="#000000" d="M184.443,420.278l-9.028,14.583c0,0,4.167,8.68,6.944,9.027s21.528,0,21.528,0
		s-5.556-9.722-8.333-12.152S184.443,420.278,184.443,420.278z"/>
</g>
<g id="Layer_6">
	<path fill="url(#colour1)" d="M201.667,381c0.667,3,2,22.667,3,26.667s9.667,23,11,30S219,456.333,220.333,458s6.333,4.001,8,5.334
		s9.667,6.333,11,7.333s4.333,2.333,5,0.333s-8.334-17.334-9.667-20s-11.666-25.999-3.333-38.666c2-3,42-4.001,49-7.334
		S311,393.667,311,393.667s5-8.667,5-12.333s-3.666-4-3.333-7s3.666-5.333,0.333-10s-57.333-4.667-57.333-4.667
		S216.333,357,215,360.333S201.667,381,201.667,381z"/>
	<path fill="url(#colour1)" d="M345,367.333c0,0,13.334-7.667,25.667-7S413,362.667,413,362.667S420.333,370,429.333,371
		s17.333,1.333,20-3s1.668-22.333,7.334-26s22-5,22-5s37.666,9.667,44.666,11s30,4,35.667,0.667S577.667,337,577.667,337
		s4-2.667,4-1s-2.334,10.667-2.334,10.667s-6.332,9.667-10.666,13.333s-14,6.333-21,7.333s-20.334,3-34.667-0.333
		s-33.001-9-35.667-7.667s-11.667,17.333-14,18.667s-14.667,3.333-18,3.333s-24-0.667-26-0.333s-17,19.667-20,23.667
		s-28.332,25.999-30.666,26.666S343.333,442,343.333,442s-12.427,4.804-14.999,9c-6.334,10.333-24,6.999-26.667,7.333
		s-28,11.668-29.333,12.334s-20.667,16-22.667,17s-10.667,2.667-10-2s1.667-6.334,1.667-6.334l24.333-12.666c0,0,26-8.666,28.667-11
		S298,444.667,298,443s23.667-22.333,23.667-22.333s3.667-11.999,8.667-18c5-6,15.666-20,15.666-23.333s-4.666-11.667-4.666-11.667
		L345,367.333z"/>
	<path fill="#CCCCCC" d="M101.333,293c1,0.667-5.667,3.667-9.667,17.667s-4.667,25.333-4,29S96.667,351,95,358
		s-5.333,15.333-5.333,15.333l-2,2.333c0,0,14.667-3.333,18.667-6.333S121,356,121,356l2.333,0.667c0,0-0.667-4.333-2.333-10
		S116.333,333,116.333,333L113,325.333L103,327l-2.333-3.667c0,0,3.333-18.334,3.333-21.667S101.333,293,101.333,293z"/>
	<path fill="#CCCCCC" d="M38.83,389.566c-1.199,1.198-1.998,3.329-1.998,3.329s-1.465-0.267-1.199,0.399s0.4,4.262,1.865,4.395
		s3.329-1.465,3.329-1.465l1.198-3.329c0,0,1.065-2.53,0.533-2.796s-1.598,2.663-1.598,2.663s-0.266,4.261-2.13,3.329
		s-2.131-1.198-0.799-2.796s1.998-1.065,1.998-1.065l1.731-2.53L38.83,389.566z"/>
	<path fill="#CCCCCC" d="M68.659,378.38c0,0-9.721,10.121-11.053,12.118s-3.862,16.379-3.862,16.379s5.727-1.466,7.458-6.525
		c1.731-5.06,13.45-20.507,13.45-20.507s-2.929,0-4.261-0.266S68.659,378.38,68.659,378.38z"/>
	<path fill="#CCCCCC" d="M67.194,341.627l-4.661,10.653c0,0,2.13-2.53,2.663-1.465s0,9.188-5.06,16.246
		c4.927-4.794,6.525-12.65,7.324-15.713s1.198-7.058,1.731-8.39s-0.666-0.133-1.731-0.266S67.194,341.627,67.194,341.627z"/>
	<path fill="#CCCCCC" d="M135.774,312.064c0,0,1.198,3.063,2.397,3.862s4.128-0.666,4.128-0.666s14.781-7.19,16.379-8.922
		s1.731-2.264,1.731-2.264l2.397-4.128c0,0-10.387,3.329-11.319,3.862S135.774,312.064,135.774,312.064z"/>
	<path fill="#CCCCCC" d="M179.052,312.064c0,0,0.4,1.864,0.933,2.397s16.779-2.53,17.977-2.796s13.716-4.128,15.713-5.859
		s3.995-3.729,3.995-3.729s-13.316,4.794-18.776,6.125s-19.708,3.196-19.708,3.196L179.052,312.064z"/>
	<path fill="#CCCCCC" d="M200.625,317.923l5.859,1.865c0,0,18.776-1.864,21.573-2.53s6.924-2.796,6.658-3.862
		s-2.663,0.533-6.125,1.465s-19.442,2.664-21.573,2.93S200.625,317.923,200.625,317.923z"/>
	<path fill="#CCCCCC" d="M217.138,327.245c0,0,27.565,4.528,27.299,6.392S223.13,336.3,223.13,336.3s4.528-1.464,4.528-2.929
		S217.138,327.245,217.138,327.245z"/>
	<path fill="#CCCCCC" d="M374.538,330.042c0.399,0.666,1.066,1.464,0.533,1.731s-3.729,0.399-3.729,0.399
		s20.374,11.452,23.171,13.45s22.638,15.847,24.103,16.779s7.059,4.395,10.787,3.995c-1.998-0.799-8.257-1.865-14.915-7.99
		s-14.777-14.922-18.776-17.444C380.93,331.64,374.538,330.042,374.538,330.042z"/>
	<path fill="#CCCCCC" d="M445.647,343.492c0,0-1.198,7.058-1.198,9.588s-0.001,8.789-0.933,10.387s-0.532-0.666-1.997-2.264
		s-1.863-1.599-1.598-2.797s0.932-6.924,0.932-7.324s0.267-4.661,0.933-5.193S445.647,343.492,445.647,343.492z"/>
	<path fill="#CCCCCC" d="M245.772,431.299c0,0-1.52,3.929-1.773,5.068s-0.507,5.32-0.253,5.827s6.208-2.534,7.855-3.801
		s6.968-8.108,6.968-8.108l0.634,1.268l3.42-0.381l0.76-2.153c0,0-10.389,1.394-11.276,1.394S245.772,431.299,245.772,431.299z"/>
	<path fill="#CCCCCC" d="M174.064,442.574l-3.167,3.928c0,0,0,6.589,0.38,6.462s7.855-0.381,7.855-0.381l7.982,0.634l2.914-2.027
		c0,0-5.322-1.773-10.643-3.167S174.064,442.574,174.064,442.574z"/>
	<polygon fill="#CCCCCC" points="269.464,452.965 266.297,452.458 249.574,466.521 250.587,467.788 260.089,461.96 	"/>
	<path fill="#CCCCCC" d="M278.966,484.512c0,0,2.788,6.081,3.928,7.602s9.755,5.448,9.755,5.448l-0.634-2.407
		c0,0-7.854-8.996-9.122-9.883S278.966,484.512,278.966,484.512z"/>
	<path fill="#CCCCCC" d="M221.955,499.208c0,0,1.014,1.901,1.521,2.154s5.955,0,5.955,0s0.633-9.249,1.14-9.629
		s0.507-1.646-0.507-2.28s-4.561,0.379-4.814,1.14S221.955,499.208,221.955,499.208z"/>
	<path fill="#CCCCCC" d="M165.957,388.858l-2.154,3.928l5.828,7.602c0,0-0.633-3.674-0.887-5.194s-0.38-4.561-0.507-5.068
		S165.957,388.858,165.957,388.858z"/>
	<path fill="#CCCCCC" d="M136.564,298.399c0.507-0.253,4.688-3.041,4.688-3.041s-0.887-1.14-3.294-0.887s-6.208,1.267-6.208,1.267
		s-2.407,4.688-14.696,11.529C123.768,304.101,136.564,298.399,136.564,298.399z"/>
	<path fill="#CCCCCC" d="M147.206,299.159c0,0-0.633,2.028-2.534,3.041s-5.321,3.041-5.321,3.041l25.845-6.841
		c0,0,5.447-2.914,5.321-3.801s-0.887-1.141-5.448-0.38S147.206,299.159,147.206,299.159z"/>
	<path fill="#CCCCCC" d="M180.273,303.847c0,0-1.646,1.394-3.674,2.28s-8.995,2.787-8.995,2.787l24.958-4.181
		c0,0-8.742,0.887-10.009,0.38S180.273,303.847,180.273,303.847z"/>
	<path fill="#CCCCCC" d="M246.154,325.639c0,0,10.262,0.76,14.95,1.013s21.665-0.126,21.665-0.126s1.141,0,1.014,0.633
		s-14.063,3.041-19.764,3.041s-16.85-1.013-17.737-1.773S246.154,325.639,246.154,325.639z"/>
</g>
<g id="Layer_5">
	<path opacity="0.25" fill="#999999" d="M421.861,379.598c-2.643,0-10.863,0.146-13.212,2.789s-19.263,23.171-26.569,29.8
		c-14.239,12.918-33.323,18.643-38.607,20.991s-21.433,11.305-20.258,13.065s7.192-2.203,7.486-1.028s-6.165,8.66-7.633,9.248
		s-7.487,4.257-12.185,2.202s-1.614-3.229-1.614-3.229s-9.249,0.881-10.716,1.321s-4.697,4.403-5.872,5.138
		s-26.277,13.946-27.451,14.974s-13.799,9.688-15.267,10.275s-3.816,0-3.816,0s-2.349,1.762-3.523,1.908s-3.229,0.146-3.229,0.146
		s1.448,3.693,2.936,4.845s7.78-2.789,7.78-2.789l16.625-13.768c0,0,22.333-10.855,29.616-12.949
		c11.743-3.376,22.607-2.643,24.368-3.523s10.276-8.661,13.358-11.01s32.735-16.882,37.433-20.258s30.337-25.233,37.727-41.249
		C411.879,380.772,421.861,379.598,421.861,379.598z"/>
	<path fill="url(#colour1)" d="M343.473,374.606c1.204,1.488,0.587,4.845-2.202,9.102s-13.357,27.743-14.532,30.68
		s-7.635,20.992-13.946,25.103c-6.312,4.11-7.045,5.285-9.981,3.229s-3.67-2.349-4.698-1.468s-1.321,7.634-1.321,7.634
		s-7.927,6.018-11.597,8.807s-30.093,15.414-34.35,16.441s0,0,0,0s30.974-19.67,39.635-28.331s10.862-15.121,11.597-17.616
		s7.779-21.285,11.597-26.863s4.258-8.221,3.523-8.955s-1.908,0.44-1.908,0.44s1.027-3.963,1.908-4.404
		S340.978,371.523,343.473,374.606z"/>
	<path fill="url(#colour1)" d="M254.663,410.865c0,0,14.386-2.642,19.671-4.697s10.275-4.991,13.211-6.313s9.982-3.67,14.386-4.697
		s4.697-3.963,7.927-3.083s4.552,0.734,3.817,3.523s-9.689,5.578-12.478,6.459s-31.561,10.57-35.084,11.304s-8.367,0.734-9.688-0.44
		S254.663,410.865,254.663,410.865z"/>
	<path fill="#999999" d="M221,489.666c-1.274,1.057-3.476,0.176-5.237,1.057s-9.542,9.688-9.542,9.688s8.074-0.295,9.982-0.588
		s6.312-0.44,6.312-0.44c0.41-0.457,0.497-5.089,0.322-5.875S221,489.666,221,489.666"/>
	<path fill="#999999" d="M220.728,460.492c0,0,4.314-0.603,4.916-0.401s0.702,2.408,0.401,2.207S220.728,460.492,220.728,460.492z"
		/>
	<path fill="#999999" d="M200.867,448.455l2.407,2.708c0,0-8.928,0.804-12.639,0.201s-11.736-2.809-13.141-5.417
		c3.109,0.501,11.937,3.812,17.454,3.41S200.867,448.455,200.867,448.455z"/>
	<path fill="#999999" d="M168.065,433.107l3.31-23.272c0,0-3.411,13.742-4.414,16.05s-3.912,10.633-6.42,13.241
		s-3.311,5.918-3.411,7.423c1.605-2.207,6.12-3.812,7.925-3.41s3.109,2.106,3.109,2.106L168.065,433.107z"/>
	<path fill="#999999" d="M119.715,350.453c0.301,0.201,2.106,3.511,2.508,3.912s1.706,0.201,1.706,0.201l7.323,5.316l-9.63-2.207
		l-2.508,2.508l-21.567,15.047c0,0-9.529,2.207-9.229,1.705s0.802-2.307,0.802-2.307s12.057-3.086,16.25-6.721
		C115.904,358.778,119.715,350.453,119.715,350.453z"/>
	<path fill="#999999" d="M119.615,310.931c0,0-10.031,4.514-10.131,5.417s1.705,1.304,1.705,1.304s-4.313,0.602-4.414-0.501
		s11.034-7.323,12.238-8.226s14.746-8.226,14.746-8.226l-7.624,7.624c0,0-1.404,1.504-2.809,1.806S119.615,310.931,119.615,310.931z
		"/>
	<path fill="#999999" d="M98.249,300.498c0.401,0.301,2.809-5.216,3.009-4.815s0.702,5.718,0.702,5.718s0-6.721-0.401-6.721
		S98.249,300.498,98.249,300.498z"/>
	<path fill="#999999" d="M122.624,312.736c0,0-3.21,1.906-2.708,2.307s14.043-2.508,15.648-3.11s19.059-8.727,19.059-8.727
		s-29.491,10.131-31.096,9.831S122.624,312.736,122.624,312.736z"/>
	<path fill="#999999" d="M163.149,306.216c0,0-20.563,8.125-20.363,8.627s10.533,1.404,17.253,0.802s20.664-3.009,20.664-3.009
		l-1.505-1.504c0,0-21.366,2.708-24.375,2.809s-8.125,0.802-8.226,0.301S163.149,306.216,163.149,306.216z"/>
	<path fill="#999999" d="M179.399,319.056c0,0-9.329-0.1-9.329-1.003s4.614-2.207,5.718-2.207s22.068,1.705,26.583,1.204
		s23.874-2.909,23.874-2.909s-12.338,3.511-25.278,4.213s-24.175-0.803-24.375-0.401S179.399,319.056,179.399,319.056z"/>
	<path fill="#999999" d="M215.01,326.479c0,0,30.494,5.818,30.394,7.122s-25.479,2.307-25.479,2.307s7.624-1.204,7.624-1.806
		s-6.721-2.508-6.721-2.508s2.408-0.803,2.408-1.304S215.01,326.479,215.01,326.479z"/>
	<path fill="#999999" d="M332.774,324.072l1.104,1.304c0,0,14.544-0.301,25.679,4.213s43.034,21.467,43.034,21.467
		s-29.593-19.46-43.636-23.373S332.774,324.072,332.774,324.072z"/>
	<path fill="#999999" d="M503.802,337.513c0,0,9.529,3.31,11.335,3.812s13.241,2.107,13.241,2.107s-10.031-2.308-12.438-3.11
		S503.802,337.513,503.802,337.513z"/>
	<path fill="#999999" d="M166.092,450.511c0.753,0.401,3.665-1.154,4.468-3.664s3.212-2.66,0.201-3.966s-2.812,1.605-3.213,2.811
		S165.339,450.109,166.092,450.511z"/>
	<path fill="#999999" d="M273.95,489.36l3.044,7.677h10.192l-3.044-3.375c0,0-1.324-0.794-3.441-0.662s-2.449,0.793-3.574-0.133
		S273.95,489.36,273.95,489.36z"/>
	<path fill="#999999" d="M260.913,484.33c1.045-0.058,3.375,2.382,3.177,3.11s-1.853,2.515-4.302,2.316s-3.905-1.985-3.905-2.581
		S259.721,484.396,260.913,484.33z"/>
</g>
<g id="Layer_3">
	<path fill="url(#colour1)" d="M98.679,294.931c0,0-11.805,25.348-13.542,32.639s-11.459,8.333-13.542,12.153s-3.819,22.222-9.027,27.083
		s-14.931,14.236-17.708,18.75s-3.472,9.375-3.472,9.375l2.778-0.694l0.694,7.292l3.819-1.042l1.042,3.819
		c0,0,3.472-1.041,5.208-2.777s1.042-13.542,7.292-19.098s6.945-13.542,18.75-12.5c8.654,0.764,19.098-11.111,20.833-12.153
		s12.5-9.722,12.847-12.847s2.431-5.208,4.861-3.472s17.361,16.319,21.528,18.75s23.611,13.542,23.611,17.014
		s-0.694,6.944-1.736,7.639s-0.347,4.861-0.347,4.861s12.153-15.625,13.194-13.542s-5.903,9.028-6.25,13.542
		s1.736,11.806,1.736,11.806l27.431,32.639c0,0-16.667-22.569-19.097-25.694s-12.5-13.194-2.778-7.986s21.875,13.195,26.389,11.111
		s2.43-4.861-0.695-8.681s-7.292-11.111,0.347-19.097s14.236-20.833,27.778-19.097s38.889,4.514,48.611,4.167
		s26.737-6.25,28.82-6.25s10.765,2.778,15.625,2.778s10.416-0.348,14.235,1.736s5.556,3.473,5.556,3.473s12.5-3.82,15.625-4.167
		s37.152-3.125,43.056-2.778s35.418,9.375,40.278,9.722s13.541-2.43,15.277-4.861s-1.389-4.514-1.389-4.514l1.736-4.514l-3.82-0.694
		l6.945-5.556l-3.474-1.736c0,0-0.348-6.597,5.208-7.986s6.25-8.334,34.723-0.695s41.318,11.806,52.083,10.764
		s16.667-2.778,20.486-5.903s7.292-8.681,7.292-8.681s-14.236,6.945-20.486,7.639s-10.764,5.556-42.014-3.125
		s-41.667-10.069-47.917-8.333s-18.751,2.777-19.792,11.111s-0.81,17.129-3.125,19.445c-5.208,5.208-11.805,7.639-32.291-4.167
		c-22.209-12.799-30.902-20.833-53.125-26.736s-21.182-2.431-24.653-2.778s-8.333-4.167-10.764-3.472s-43.75,11.111-51.042,11.806
		s-47.222-3.473-50.347-3.82s-15.278-3.125-7.639-4.514s-12.5-6.944-18.055-6.944s-81.945-0.348-84.723-1.042
		s0.348,6.945,0.348,6.945s-5.555-4.514-6.597-5.208s-5.208-2.083-5.208-2.083s-1.389,7.292-3.472,7.986s-13.889,3.473-5.556-7.292
		s13.194-19.098,3.819-10.07s-2.778-1.042-2.778-1.042L98.679,294.931z"/>
	<path fill="#666666" d="M176.333,417c-3-1-1.167,3-2,3.833s-7.667,9.5-7.833,11s-0.333,9.499,0.167,10.333s1,3.5,0.667,4.167
		s-2.328,2.955-1.667,3.667c2.167,2.333,5.333-2.667,6.5-5.834c0.567-1.54,2.5-2.5,2.5-2.5s-3.5,0.5-4.333-1.833
		s-1.167-4.834,3-11.667S179.333,418,176.333,417z"/>
	<path fill="#666666" d="M203.5,429.5c-1.167,0-1.833,1-2.333,1S199.5,431,199.5,431s2.333,8.667,4,9.5s3.5,2.834,3,6
		s1.667-3.834,3.833-3.834s10.333,0.167,12.833-3.333c0,0-1.333-0.667-3-3s-2.833-4.667-4.333-5.167s-4.333-0.499-6.5-0.666
		S203.5,429.5,203.5,429.5z"/>
	<path fill="#666666" d="M280.5,460.666c0,0-26.5,12.5-30.833,13.334c-2.709,0.521-3.833,3-4.5,3.333s-9.833,0.999-11,1.833
		s-5.666,6.333-6.333,7s-6.833,3.5-6.833,3.5s-0.5,9.334,1,9.834s4-1.5,5.167-4s0.5-7.001,1.667-8.334s15.833-7.5,16.333-7.5
		s4.5-0.667,5.667-1.5S280.5,460.666,280.5,460.666z"/>
	<path fill="#666666" d="M268.833,486.166c-1-0.333-4,1.834-6,2.667S255.167,487,255.167,487l9.167-8.167l-10.5,7.833
		c0,0,4.833,4.333,5.833,4.5s7.167-2.166,7.667-2.166s1.167,1.666,1.167,1.666s1.667-0.666,2.833,0.167S277,498,277,498
		s12.5,0.666,13.333,0.666s4.5,1.667,4.5,1.667l-4.5-4.833c0,0-0.333,0.334-1.833,0.5s-10.667,0.333-10.667,0.333
		s-3.667-6.334-4.167-7.167s-3.833-1.833-3.833-1.833L268.833,486.166z"/>
	<path fill="#666666" d="M334.665,396.333c0,0-9.834,24.515-11.743,28.625s-8.955,15.854-14.533,17.762s-7.34-1.173-8.074-1.761
		s-3.23-0.147-3.376,1.761s-0.146,6.166-0.146,6.166s7.633-2.056,9.982-2.643s11.157-8.368,12.625-10.423s6.606-6.166,7.193-6.899
		s2.642-5.283,2.936-5.871s3.669-6.898,3.816-8.808s3.512-9.698,2.202-9.249C330.408,406.755,334.665,396.333,334.665,396.333z"/>
</g>
<g id="Layer_4">
	<path fill="#333333" d="M92.776,308.82c0,0-2.083,4.861-2.083,7.986s2.43,4.861,0.694,7.292s4.167-3.472,6.25-7.639
		s2.431-7.986,2.431-7.986s-4.167,4.167-6.597,6.945S92.776,308.82,92.776,308.82z"/>
	<path opacity="0.21" fill="#333333" d="M89.304,332.431c0,0-1.39,5.556-0.695,7.986s8.333,6.944,6.597,13.194
		s-1.389,10.069-1.389,10.069s18.055-12.153,20.139-17.708s-1.041-11.458-2.43-13.542S99.72,323.75,99.72,323.75
		s0,6.597-3.125,8.681S89.304,332.431,89.304,332.431z"/>
	<path fill="#333333" d="M112.567,324.445c0,0-1.042,0,0,2.777s6.597,13.889,6.597,13.889s-1.389-1.389-2.431-1.042
		s-7.292-12.5-7.292-12.5l-0.694-4.167L112.567,324.445z"/>
	<path opacity="0.21" fill="url(#colour1)" d="M122.29,325.14c0,0,49.653-1.39,55.208-1.042s32.292,4.167,32.292,4.167
		s-3.472-1.736-6.597,3.472s-12.153,18.75-15.625,19.097s-26.042-12.848-31.944-14.583S122.29,325.14,122.29,325.14z"/>
	<path fill="url(#colour1)" d="M216.734,336.945c0,0-14.93,28.819-16.667,34.722s2.083,14.236,2.083,14.236s13.889-20.833,20.139-21.528
		s42.708,5.208,53.125,4.514s30.556-5.556,31.945-5.556s17.013,2.778,19.791,2.431s12.848-0.348,15.973,4.861
		c0,0,22.57-6.25,32.292-6.597s33.68-1.389,36.805-0.347s-35.068-22.917-42.36-25s-31.598-7.292-35.417-6.944
		s-9.375-3.125-11.806-2.778s-33.739,7.74-44.444,10.417C261.526,343.542,216.734,336.945,216.734,336.945z"/>
	<path fill="#333333" d="M259.25,430.5c0,0-5.5,8.625-7.375,9.25s-9.25,2.75-9.875,4.125s-2,4-2.875,4s-5.5-1.5-5.5-1.5l3.625,6.5
		c0,0,4.666,1.328,6.625-7c0.5-2.125,5.5-3.25,6.125-3.25s4.25,0.25,4.625-0.125s7.75-8.75,8.625-11s-1.5,0.375-2.75,0.375
		S259.25,430.5,259.25,430.5z"/>
	<polygon fill="#333333" points="225.125,439 219.125,442.5 221.625,442 229.125,445.5 227,441 224.5,440 	"/>
	<path fill="#333333" d="M212.875,430.75c0,0,1.875,2.75,1.875,4s-1.5,5.625,0.375,6.375s5.25-0.875,5.25-0.875l2.75-1.25
		c0,0-1.75-0.5-3.25-2.75s-2-4.375-3-4.625S212.875,430.75,212.875,430.75z"/>
	<path fill="#333333" d="M237.75,459.25c0,0,7.625,9,7.125,9.75s-5.375,3.75-5.375,3.75s7.75-1.375,8-2S237.75,459.25,237.75,459.25
		z"/>
	<path fill="#333333" d="M280.875,460.5c0,0-27.25,17-29.75,17.75s-9.625,3.875-10.5,4.125s-0.875,0.25-0.875,0.25l-0.25-3.75
		c0,0,3.625,0.25,5.125-1.125s13.875-9,13.875-9s-7.436,4.643-7.655,5.384S280.875,460.5,280.875,460.5z"/>
	<path fill="#333333" d="M205,448.25c0,0,5.375,9.625,5.75,10.25s6,3.5,9.375,4.125s7.125,3.875,7.125,3.875l6.875,4l3.25,1.75
		c0,0-13.375-10-15.25-10.625s-5.625,0.375-7.625-1.75s-3.25-4.25-4.375-5.875S205,448.25,205,448.25z"/>
	<path fill="#333333" d="M186.875,452.875c0,0-7.125-1.625-10.375-1.375s-7.875,3.75-9.75,3s-2.75-2.125-2.75-2.125s-3-1-4-1.75
		s-2.488-4.527-2.869-4.076S154.875,447,154.875,447l10.25,8.625h7l9-1.875L186.875,452.875z"/>
	<path fill="#333333" d="M168.125,402.5c0.75,1.5,19.75,19.5,19.75,19.5s-13.375-17-14.5-18.25s-11.125-13-11.125-13L168.125,402.5z
		"/>
	<path fill="#333333" d="M162.5,385.25c0,0-15-13.875-19-16.625s-12.625-9-12.625-9l-9.5-2.125c0,0,10.75,4.375,12.625,5.625
		S162.5,385.25,162.5,385.25z"/>
	<path fill="#333333" d="M122,357.375c0,0-6.75,8.25-9.875,10.375s-11.5,7-14.125,7.625s-14.25,3.5-15.625,4.5
		s-14.75,14.75-17.125,17.5s-4.25,8.25-5.75,9.25s-8,1.875-8.375,1.875s-2.875-0.625-2.875-0.625s7.875,0.125,10-3.25
		s2.625-5.75,2.625-5.75s1.75-5,2.375-5.75s11.25-13.375,15.125-14.5s16.375-2.125,25.5-7.125S122,357.375,122,357.375z"/>
	<path fill="#333333" d="M136.75,312.25c-1.319,1.508,14-3.5,15.125-4.375s3-5.125,3-5.125S137.625,311.25,136.75,312.25z"/>
	<path fill="#333333" d="M122.125,311c1.5-0.75,3.125-2.125,3.125-2.125s-1.375-0.875-2.375-0.5s-4.125,2.375-4.125,2.375
		L122.125,311z"/>
	<path fill="#333333" d="M91.875,305.5l2-0.625l5-9.5c0,0-3.75,4-4.25,5.125S91.875,305.5,91.875,305.5z"/>
	<path fill="#333333" d="M178.625,311.375l0.5,1.625c0,0,10.25-1.125,18-3.5s18-6.75,18-6.75s-15.25,3.75-18.75,4.375
		S178.625,311.375,178.625,311.375z"/>
	<path fill="#333333" d="M193.125,316.875l40.5-4.125c0,0-9.125,4-18,4.75s-21.25,0.25-21.25,0.25L193.125,316.875z"/>
	<path fill="#333333" d="M204.625,324.75c0,0,16.75,4.25,16.875,5S220,331,220,331l7.75,3.375l-7.25,0.375l1.875,1.25l-6-1.5
		l5.75-1.25L218,331.125l0.375-1.5L204.625,324.75z"/>
	<path fill="#333333" d="M577.125,339.5c0,0-5.75,8.875-10.125,10.875S555.875,356.5,540.25,354s-33.375-8-42.625-10.375
		s-24.5-6.125-30-3.125s-9.75-0.375-6.5-2.5s10-2.75,13.375-2.25s29.75,4.875,32.375,5.625s28.375,10,39.625,8.125
		s20.25-5.5,23.125-7.625S577.125,339.5,577.125,339.5z"/>
	<path opacity="0.1" fill="#333333" d="M579.375,341.125c-0.25,0.625,0.375,6.625,0.375,6.625l1.375-2.125c0,0-1.625,6.5-4.25,10
		s-10.75,12.125-23.75,15.125s-42.375,2.125-53.125-3s-17.375-5.875-19.375-5.25S469.75,378,467.25,379.375s-10.125,5.625-29.25,4
		s-23.125,2.375-26.125,6.25s-14.75,21.625-17.375,23.75s-16.875,17.375-29.75,20.875S346.375,443.625,343,445
		s-15.75,13.875-19.875,15.5s-16.5,3-22,3.75s-26,6.5-26,6.5s22.75-8.5,26.25-9.25s17.25-1.625,19.875-3s11.125-9.75,14.25-11.875
		s26.875-13.625,29.875-15.25s23.375-16.375,30.875-26s15-23.25,17.875-24.25s14.75-1.125,17.75-0.5s18.402-0.035,24.25-1.75
		c9.375-2.75,15.875-18.75,17.75-19.75s7-2.125,7.875-2s16.75,5.5,18.625,6.125s16,4,16,4l-10.5-4.25c0,0,19.5,7.75,37.75,4.375
		s25.202-8.633,28.375-12C578.125,348.875,579.375,341.125,579.375,341.125z"/>
	<path fill="#333333" d="M269.625,452.625l5.5-0.25c0,0-7.625,6.375-8.875,7.25s-13.5,8-12.375,6.875
		S269.625,452.625,269.625,452.625z"/>
	<path fill="#333333" d="M240.75,458.875L250,468c0,0-1.625-1.875,1.25-4.75s1.875-3.5,1.875-3.5l-4.25,2.625L240.75,458.875z"/>
	<path fill="#333333" d="M191.5,448.75c0,0-0.5,2.125-1.125,1.875s-9.125-0.375-12.625-4.375C182.5,448.5,191.5,448.75,191.5,448.75
		z"/>
	<path fill="#333333" d="M176.5,416.75c-0.875,0.125-2.25,5-3.125,5.875s-5.125,7.375-5.5,8.75s-0.25,6.25-0.625,6.75
		s-0.875,3.5,0,4.25s2.75,0.25,3,0.875s1,2.625,1,2.625s0.625-2,1.25-2.625s2.5-1.875,2.5-1.875s-2.625-0.125-3.125-1.25
		s-0.875-2-0.875-2s-1.75-0.375-1.5-1.625s2.625-5.75,4.125-7.75s4.125-8.625,4.25-9.875S176.5,416.75,176.5,416.75z"/>
	<polygon fill="#333333" points="172.375,409.875 180.875,418.125 171.5,435.5 173.875,434.625 178.875,425.25 183.125,418.5 
		186.25,420.5 	"/>
	<path fill="#333333" d="M58,389.75c0,0-1.125,2-2.25,5.875s-1.875,7-1.875,7S55.5,402.5,56.25,400.5s0.125-4.25,0.375-5.5
		S58,389.75,58,389.75z"/>
	<path fill="#333333" d="M49.875,386.875c2.375,1.5-2.875,6.125-3.75,5.75S47.463,385.352,49.875,386.875z"/>
	<polygon fill="#333333" points="43.375,405.25 47,403.875 47,406.75 	"/>
	<polygon fill="#333333" points="38.375,398 41.375,397 42.125,397.5 41.25,399.875 	"/>
	<path fill="#333333" d="M162.375,301c0,0-6.375,7-8.5,7.75S139,314.375,141,313.625s6.125-1.875,8.25-2.125s6.375-2.875,9.5-3.75
		s6.25-3.125,6.25-3.125l1.75-5.5l-5,3.875L162.375,301z"/>
	<path fill="#333333" d="M253.375,334.875c0.986,3.748-18.25,2-18.25,2s12.5,0.125,12.75-1.5S227,329,227,329
		S252.75,332.5,253.375,334.875z"/>
	<path fill="#333333" d="M291.25,327.125c0,0,21.125-3.375,25.125-3.5s20.125-0.25,20.125-0.25l-2.75-2.625l-19.25,1.5
		L291.25,327.125z"/>
	<path fill="#333333" d="M413.625,365.875c0,0,17.5,6.5,21.375,6.875s11.75,1.375,15.375-0.625s4.625-2.875,4.125-4.5
		s-2.125-2.125-1.75-3.5s0.875-2,0.375-2.5s-2.125-1-1.375-2.625s2.75-2.75,3.125-3.625s-1.5-1.75,0.875-3.5s2.875-2.125,2.75-3
		s-0.125-2.375,0.625-3.125s1.875-2.125,2.125-2.5s-2-1.125-2.125-2.125s-1.5,0.25-2,1s-4.25,6.875-4.75,9.875
		s-2.25,11.75-3.75,14.75s-4.25,4.375-6.5,3.75s-0.25-2.125-0.25-2.125s-2.75,2.375-6.375,2.5S413.625,365.875,413.625,365.875z"/>
	<path fill="url(#colour1)" d="M343.329,445.943l-1.196,2.025l3.223-2.578l-20.992,28.633c0,0-12.061-4.512-15.007-5.248
		s-10.68-3.774-12.337-3.498s9.667-0.922,12.153-1.197s12.061,0.736,13.258,0.276s3.868-3.867,4.696-5.248
		S343.329,445.943,343.329,445.943z"/>
	<g>
		<path fill="url(#colour1)" d="M-137.715,544.805c-0.36-6.768-0.792-14.904-0.72-20.953h-0.216c-1.656,5.688-3.672,11.809-6.121,18.434
			l-8.569,23.546h-4.752l-7.849-23.114c-2.304-6.84-4.249-13.105-5.616-18.865h-0.144c-0.144,6.049-0.504,14.186-0.936,21.458
			l-1.296,20.81h-5.977l3.384-48.532h7.993l8.281,23.474c2.016,5.977,3.672,11.305,4.896,16.346h0.216
			c1.224-4.896,2.953-10.225,5.113-16.346l8.641-23.474h7.993l3.024,48.532h-6.121L-137.715,544.805z"/>
		<path fill="url(#colour1)" d="M-114.463,517.587v28.73c0,10.873,4.825,15.481,11.305,15.481c7.201,0,11.809-4.752,11.809-15.481v-28.73
			h6.336v28.298c0,14.906-7.849,21.026-18.361,21.026c-9.937,0-17.426-5.688-17.426-20.737v-28.587H-114.463z"/>
		<path fill="url(#colour1)" d="M-75.009,558.486c2.808,1.729,6.913,3.168,11.233,3.168c6.409,0,10.153-3.384,10.153-8.28
			c0-4.536-2.592-7.128-9.145-9.649c-7.921-2.808-12.817-6.912-12.817-13.752c0-7.562,6.265-13.178,15.697-13.178
			c4.969,0,8.569,1.152,10.729,2.376l-1.728,5.112c-1.584-0.863-4.824-2.304-9.217-2.304c-6.625,0-9.145,3.96-9.145,7.272
			c0,4.537,2.952,6.769,9.648,9.361c8.209,3.168,12.385,7.128,12.385,14.257c0,7.488-5.544,14.041-16.994,14.041
			c-4.68,0-9.792-1.44-12.385-3.168L-75.009,558.486z"/>
		<path fill="url(#colour1)" d="M-29.432,522.916h-14.761v-5.329h35.931v5.329h-14.833v43.203h-6.336V522.916z"/>
		<path fill="url(#colour1)" d="M-0.417,550.854l-5.041,15.266h-6.48l16.489-48.532h7.561l16.562,48.532h-6.696l-5.185-15.266H-0.417z
			 M15.497,545.957l-4.752-13.969c-1.08-3.168-1.8-6.049-2.52-8.857H8.08c-0.72,2.881-1.512,5.833-2.448,8.785l-4.752,14.041H15.497
			z"/>
		<path fill="url(#colour1)" d="M35.799,566.119v-48.532h6.84l15.553,24.554c3.601,5.689,6.409,10.801,8.713,15.77l0.144-0.072
			c-0.576-6.48-0.72-12.385-0.72-19.945v-20.306h5.905v48.532h-6.336l-15.41-24.626c-3.384-5.4-6.625-10.945-9.073-16.202
			l-0.216,0.072c0.36,6.121,0.504,11.953,0.504,20.018v20.738H35.799z"/>
		<path fill="url(#colour1)" d="M120.113,563.959c-2.808,1.008-8.353,2.664-14.905,2.664c-7.345,0-13.393-1.872-18.146-6.408
			c-4.176-4.033-6.769-10.514-6.769-18.074c0.072-14.473,10.009-25.058,26.282-25.058c5.617,0,10.009,1.224,12.097,2.231
			l-1.512,5.113c-2.592-1.152-5.833-2.088-10.729-2.088c-11.809,0-19.514,7.344-19.514,19.514c0,12.313,7.417,19.586,18.722,19.586
			c4.104,0,6.913-0.576,8.353-1.297V545.67h-9.865v-5.041h15.985V563.959z"/>
		<path fill="url(#colour1)" d="M151.215,522.916h-14.761v-5.329h35.931v5.329h-14.833v43.203h-6.336V522.916z"/>
		<path fill="url(#colour1)" d="M184.046,517.587v20.306h23.474v-20.306h6.336v48.532h-6.336v-22.754h-23.474v22.754h-6.264v-48.532
			H184.046z"/>
		<path fill="url(#colour1)" d="M266.201,541.35c0,16.705-10.153,25.562-22.538,25.562c-12.817,0-21.818-9.937-21.818-24.626
			c0-15.409,9.577-25.49,22.538-25.49C257.632,516.795,266.201,526.947,266.201,541.35z M228.542,542.141
			c0,10.369,5.617,19.658,15.481,19.658c9.937,0,15.553-9.145,15.553-20.162c0-9.648-5.04-19.729-15.481-19.729
			C233.726,521.907,228.542,531.484,228.542,542.141z"/>
		<path fill="url(#colour1)" d="M274.333,518.234c3.168-0.647,7.705-1.008,12.025-1.008c6.697,0,11.017,1.225,14.041,3.961
			c2.448,2.16,3.816,5.473,3.816,9.217c0,6.408-4.032,10.656-9.145,12.385v0.217c3.744,1.295,5.977,4.752,7.128,9.792
			c1.584,6.769,2.736,11.449,3.744,13.321h-6.48c-0.792-1.439-1.872-5.545-3.24-11.593c-1.44-6.696-4.032-9.217-9.721-9.433h-5.905
			v21.025h-6.264V518.234z M280.597,540.341h6.409c6.697,0,10.945-3.673,10.945-9.217c0-6.265-4.536-9.001-11.161-9.073
			c-3.024,0-5.185,0.289-6.193,0.576V540.341z"/>
		<path fill="url(#colour1)" d="M354.76,541.35c0,16.705-10.153,25.562-22.539,25.562c-12.816,0-21.817-9.937-21.817-24.626
			c0-15.409,9.577-25.49,22.538-25.49C346.19,516.795,354.76,526.947,354.76,541.35z M317.1,542.141
			c0,10.369,5.617,19.658,15.481,19.658c9.937,0,15.554-9.145,15.554-20.162c0-9.648-5.041-19.729-15.481-19.729
			C322.284,521.907,317.1,531.484,317.1,542.141z"/>
		<path fill="url(#colour1)" d="M369.155,517.587v28.73c0,10.873,4.825,15.481,11.306,15.481c7.2,0,11.809-4.752,11.809-15.481v-28.73
			h6.337v28.298c0,14.906-7.849,21.026-18.362,21.026c-9.937,0-17.426-5.688-17.426-20.737v-28.587H369.155z"/>
		<path fill="url(#colour1)" d="M446.413,563.959c-2.809,1.008-8.354,2.664-14.905,2.664c-7.345,0-13.394-1.872-18.146-6.408
			c-4.176-4.033-6.769-10.514-6.769-18.074c0.072-14.473,10.01-25.058,26.282-25.058c5.617,0,10.01,1.224,12.098,2.231l-1.513,5.113
			c-2.592-1.152-5.832-2.088-10.729-2.088c-11.809,0-19.514,7.344-19.514,19.514c0,12.313,7.417,19.586,18.722,19.586
			c4.104,0,6.912-0.576,8.353-1.297V545.67h-9.864v-5.041h15.985V563.959z"/>
		<path fill="url(#colour1)" d="M462.25,517.587v20.306h23.474v-20.306h6.337v48.532h-6.337v-22.754H462.25v22.754h-6.265v-48.532H462.25z
			"/>
		<path fill="url(#colour1)" d="M502.929,518.234c2.736-0.575,7.057-1.008,11.449-1.008c6.264,0,10.297,1.08,13.32,3.529
			c2.521,1.871,4.033,4.752,4.033,8.568c0,4.68-3.097,8.785-8.209,10.656v0.145c4.608,1.152,10.009,4.969,10.009,12.169
			c0,4.177-1.656,7.345-4.104,9.721c-3.384,3.097-8.856,4.536-16.777,4.536c-4.32,0-7.633-0.287-9.721-0.576V518.234z
			 M509.193,538.109h5.688c6.624,0,10.513-3.457,10.513-8.137c0-5.689-4.32-7.922-10.657-7.922c-2.88,0-4.536,0.217-5.544,0.433
			V538.109z M509.193,561.367c1.224,0.215,3.024,0.287,5.256,0.287c6.48,0,12.457-2.376,12.457-9.432
			c0-6.625-5.688-9.361-12.528-9.361h-5.185V561.367z"/>
		<path fill="url(#colour1)" d="M541.952,518.234c3.168-0.647,7.704-1.008,12.024-1.008c6.697,0,11.018,1.225,14.042,3.961
			c2.448,2.16,3.816,5.473,3.816,9.217c0,6.408-4.033,10.656-9.146,12.385v0.217c3.744,1.295,5.977,4.752,7.129,9.792
			c1.584,6.769,2.736,11.449,3.744,13.321h-6.48c-0.792-1.439-1.872-5.545-3.24-11.593c-1.44-6.696-4.032-9.217-9.721-9.433h-5.904
			v21.025h-6.265V518.234z M548.217,540.341h6.408c6.696,0,10.945-3.673,10.945-9.217c0-6.265-4.537-9.001-11.161-9.073
			c-3.024,0-5.185,0.289-6.192,0.576V540.341z"/>
		<path fill="url(#colour1)" d="M605.817,543.365h-18.865v17.498h21.025v5.256h-27.29v-48.532h26.21v5.257h-19.945v15.337h18.865V543.365z
			"/>
		<path fill="url(#colour1)" d="M616.11,518.234c3.816-0.575,8.353-1.008,13.321-1.008c9,0,15.409,2.088,19.657,6.049
			c4.32,3.961,6.841,9.576,6.841,17.426c0,7.92-2.448,14.4-6.984,18.865c-4.537,4.537-12.025,6.984-21.458,6.984
			c-4.465,0-8.209-0.216-11.377-0.576V518.234z M622.375,561.15c1.584,0.289,3.888,0.36,6.336,0.36
			c13.394,0,20.666-7.489,20.666-20.594c0.072-11.449-6.408-18.722-19.657-18.722c-3.24,0-5.688,0.288-7.345,0.648V561.15z"/>
		<path fill="url(#colour1)" d="M663.197,558.486c2.809,1.729,6.912,3.168,11.233,3.168c6.408,0,10.152-3.384,10.152-8.28
			c0-4.536-2.592-7.128-9.145-9.649c-7.921-2.808-12.817-6.912-12.817-13.752c0-7.562,6.265-13.178,15.697-13.178
			c4.969,0,8.569,1.152,10.729,2.376l-1.729,5.112c-1.584-0.863-4.824-2.304-9.217-2.304c-6.625,0-9.145,3.96-9.145,7.272
			c0,4.537,2.952,6.769,9.648,9.361c8.209,3.168,12.385,7.128,12.385,14.257c0,7.488-5.544,14.041-16.993,14.041
			c-4.681,0-9.793-1.44-12.385-3.168L663.197,558.486z"/>
	</g>
</g>
<g id="Finition">
	<path fill="#AFDFE4" d="M57.664,366.731c-0.418-0.418,1.302-4.974,1.302-4.974S48.901,374.31,45.467,379.52
		s-5.921,7.342-5.921,7.342s2.25-1.066,2.605-0.474s0.71,2.013,0.71,2.013s2.368-5.092,3.908-6.868s8.289-8.408,9.592-9.355
		s3.434-4.263,3.908-4.973S58.375,367.442,57.664,366.731z"/>
	<path fill="#AFDFE4" d="M69.387,336.655l1.421,1.658c0,0,5.921-3.435,6.868-3.79s2.723-2.368,3.552-3.079s2.724-2.605,2.724-2.605
		s-1.895-0.355-1.658-1.421c0,0-3.197,1.539-6.039,3.434S69.387,336.655,69.387,336.655z"/>
	<path fill="#AFDFE4" d="M118.174,323.392c-1.185-0.237-11.959-1.895-12.907-2.96c0.237,0.829,2.842,3.434,2.842,3.434
		s-2.961-0.474-3.553-1.421s-1.54-2.487-0.947-2.96s0.71-1.776,0.71-1.776l-2.25-0.474c0,0-1.776,3.553-1.776,4.263
		s-0.236,1.776,0.592,2.131s6.631,1.895,9.236,6.513c0,0-2.369-4.855-1.066-6.039S118.174,323.392,118.174,323.392z"/>
	<path fill="#AFDFE4" d="M168.382,319.366c0,0-2.96,1.42-5.921,2.013s-13.381,1.54-13.381,1.54c4.5,1.303,27.709-0.237,31.38-0.237
		s21.67,1.895,23.564,2.131s3.79-0.355,3.79-0.355l3.315,0.71c0,0,2.96,1.184,3.434,1.302s38.958,7.697,38.722,8.763
		s-23.92,1.54-23.92,1.54c4.855,2.131,45.235,6.158,46.774-0.237s-20.604-5.803-24.63-6.158s-18.354-1.895-19.656-2.131
		s-13.381-3.079-14.684-3.671s-14.683-3.79-16.814-3.908S168.382,319.366,168.382,319.366z"/>
	<polygon fill="#AFDFE4" points="146.357,313.09 179.276,307.169 219.182,300.419 182.474,309.301 	"/>
	<path fill="#AFDFE4" d="M276.257,330.615c0,0,17.17,1.065,18.354,1.065s12.789-3.316,17.289-3.908s9.71-2.723,9.71-2.723
		s-0.474,1.303,0,1.658s6.157,2.487,6.157,2.487l6.513,1.539c0,0,19.776,2.961,21.789,3.553s30.668,11.249,45.115,20.604
		s25.934,16.104,29.723,16.104s9.117-0.592,10.894-2.487s1.658-4.381,1.658-4.381l-2.605-2.96c0,0-0.474,3.552-2.25,4.145
		s-7.223,4.026-15.985-0.118s-31.261-22.499-39.669-26.17s-24.512-12.789-37.419-13.144c0,0-2.014,1.184-1.066,2.724
		s2.368,1.658,2.25,2.131s-4.145,0.593-4.263-1.539c0,0-2.487-0.237-3.553-0.237s-4.973-0.593-6.275-1.658s-4.737-2.012-4.382-2.96
		s0.829-2.368,0.829-2.368s-9.355-0.355-22.736,2.96C292.954,328.247,276.257,330.615,276.257,330.615z"/>
	<path fill="#AFDFE4" d="M449.142,335.707c0,0-3.434,1.184-2.96,2.131s8.882-1.302,11.013-1.539s5.684-0.237,5.684-0.237
		s-0.592-1.658,0.355-2.605s4.263-3.789,4.263-3.789s-7.105,0.237-11.486,1.776S449.142,335.707,449.142,335.707z"/>
	<path fill="#AFDFE4" d="M469.864,330.142c0,0-4.026,2.723-4.263,3.552s-0.829,2.132-0.474,2.132s4.264-1.421,6.276-1.54
		s5.684-0.119,5.684-0.119l-0.592,1.066h2.604v-1.303l1.185-1.065l-1.303-2.013L469.864,330.142z"/>
	<path fill="#AFDFE4" d="M484.074,331.326l7.342,5.21c0,0,20.25,6.275,23.328,7.341s19.42,5.566,21.314,5.21s4.5-4.736,4.974-5.092
		c-1.422-0.119-3.909-0.592-8.408-1.776s-20.249-5.092-26.88-6.276S484.074,331.326,484.074,331.326z"/>
	<path fill="#AFDFE4" d="M543.873,344.351c0.118,0.474,0.592,4.5-0.355,4.855s4.501,0.592,7.697-0.119s10.894-3.552,10.894-3.552
		s-6.038,0.829-8.052,0.237s-3.435-2.013-3.435-2.013L543.873,344.351z"/>
	<path fill="#AFDFE4" d="M553.701,341.865c0,0-0.71,1.776,2.132,2.131s6.867,0,9.117-0.474s9.711-4.5,10.776-6.395
		s1.065-2.605,1.065-2.605s-8.526,1.184-12.789,3.079S553.701,341.865,553.701,341.865z"/>
	<path fill="#AFDFE4" d="M582.809,334.168l-3.197,1.184c0,0,3.67,6.276-0.119,13.381s-9.235,17.051-23.327,21.314
		c9.354-3.552,22.268-9.064,26.524-21.67C585.769,339.26,582.809,334.168,582.809,334.168z"/>
	<path fill="#AFDFE4" d="M258.494,467.739c14.268-8.242,24.985-15.868,32.208-24.157c0,0-31.38,27.472-51.51,30.433l-0.592,2.014
		l-4.026,0.71l-4.736,3.197l0.947,0.474c0,0,3.434-2.249,8.407-2.96l1.303-1.539C240.495,475.91,249.192,473.113,258.494,467.739z"
		/>
	<path fill="#AFDFE4" d="M231.614,488.58c1.066-0.592,7.46,0.474,8.052,0.829s2.131,2.013,2.131,2.013s-1.894,0.474-4.973-0.118
		s-5.447-0.711-5.447-0.711L231.614,488.58z"/>
	<path fill="#AFDFE4" d="M273.651,488.816c0,0,1.421,2.724,2.487,3.197s4.026,0.593,5.565,1.066s4.618,2.249,5.447,4.025
		s-9.473,0.711-9.473,0.711s-3.197-1.657-3.197-3.907S273.651,488.816,273.651,488.816z"/>
	<path fill="#AFDFE4" d="M203.431,497.343c0.474,0.829,0.829,2.724,0.829,2.724s3.671-2.25,4.855-4.145s1.539-3.79,3.079-4.5
		s9.947-2.367,11.25-2.96s1.54-2.132,1.54-2.132s-1.895,0.593-6.987,1.658s-8.644,2.724-9.947,4.736
		S203.431,497.343,203.431,497.343z"/>
	<path fill="#AFDFE4" d="M164.473,424.281c0.679,0.971,2.605,0.355,2.605,0.355s-1.776,7.224-3.197,8.763s-5.21,7.224-5.21,7.224
		s0.592-1.896,0.118-2.369s-2.25,0.948-2.131,0.593s0.237-3.197,1.658-5.092s3.079-3.315,3.79-4.974s0.947-7.696,0.947-8.407
		C163.052,420.374,163.645,423.097,164.473,424.281z"/>
	<path fill="#AFDFE4" d="M205.8,345.891c0.8,1-6.631,11.842-15.157,14.92c0.829-2.013,3.434-6.276,6.75-9.355
		S205.326,345.299,205.8,345.891z"/>
</g>
</svg>
