<?xml version="1.0" encoding="utf-8"?>
<!-- Generator: Adobe Illustrator 14.0.0, SVG Export Plug-In . SVG Version: 6.00 Build 43363)  -->
<!DOCTYPE svg PUBLIC "-//W3C//DTD SVG 1.0//EN" "http://www.w3.org/TR/2001/REC-SVG-20010904/DTD/svg10.dtd">
<svg version="1.0" id="Layer_1" xmlns="http://www.w3.org/2000/svg" xmlns:xlink="http://www.w3.org/1999/xlink" x="0px" y="0px"
	 width="800px" height="600px" viewBox="0 0 800 600" enable-background="new 0 0 800 600" xml:space="preserve">
<defs>
   <linearGradient id="colour1">
     <stop offset="100%" stop-color="black"/>
   </linearGradient> 
 </defs>
<g>
	<path fill="url(#colour1)" d="M99.639,205.592v-40.417h5.696l12.954,20.449c2.998,4.736,5.337,8.994,7.256,13.132l0.12-0.061
		c-0.481-5.396-0.601-10.313-0.601-16.611v-16.909h4.917v40.417h-5.276l-12.832-20.508c-2.82-4.5-5.518-9.116-7.556-13.494
		l-0.181,0.061c0.3,5.095,0.42,9.954,0.42,16.67v17.271H99.639z"/>
	<path fill="url(#colour1)" d="M173.179,187.84c-0.3-5.635-0.659-12.412-0.598-17.449H172.4c-1.379,4.736-3.059,9.834-5.098,15.352l-7.136,19.609h-3.958
		l-6.536-19.25c-1.919-5.696-3.538-10.913-4.678-15.71h-0.12c-0.12,5.037-0.42,11.814-0.781,17.869l-1.079,17.332h-4.976
		l2.817-40.417h6.655l6.897,19.548c1.68,4.978,3.059,9.417,4.077,13.613h0.181c1.021-4.077,2.458-8.516,4.258-13.613l7.197-19.548
		h6.655l2.52,40.417H174.2L173.179,187.84z"/>
	<path fill="url(#colour1)" d="M196.233,205.592l-13.193-40.417h5.637l6.296,19.91c1.738,5.457,3.24,10.374,4.319,15.11h0.12
		c1.138-4.678,2.817-9.773,4.617-15.051l6.836-19.968h5.579l-14.453,40.417H196.233z"/>
</g>
</svg>
