<?xml version="1.0" encoding="utf-8"?>
<!-- Generator: Adobe Illustrator 14.0.0, SVG Export Plug-In . SVG Version: 6.00 Build 43363)  -->
<!DOCTYPE svg PUBLIC "-//W3C//DTD SVG 1.0//EN" "http://www.w3.org/TR/2001/REC-SVG-20010904/DTD/svg10.dtd">
<svg version="1.0" id="Layer_1" xmlns="http://www.w3.org/2000/svg" xmlns:xlink="http://www.w3.org/1999/xlink" x="0px" y="0px"
	 width="254px" height="126px" viewBox="0 0 254 126" enable-background="new 0 0 254 126" xml:space="preserve">
<defs>
   <linearGradient id="colour1">
     <stop offset="100%" stop-color="black"/>
   </linearGradient> 
 </defs>
<g id="_x23_ffffffff">
	<path fill="#FFFFFF" d="M114.06,4.09c5.19-2.76,12.84,1.9,12.08,7.92c1.43,0.41,2.85,0.83,4.24,1.38
		c-1.58,0.13-3.15,0.24-4.72,0.32c-0.27,1.23-0.28,2.54-0.73,3.73c-2.69,0.46-4.04,2.87-5.81,4.65c-1.85-0.96-4.38-3.44-6.27-1.18
		c-3.21,3.44-5.13,7.92-6.65,12.32c-1.05,1.99,1.09,3.44,2.78,3.8c3.98,1.04,8.08,1.64,12.2,1.79c1.04,0.04,2.09,0.08,3.14,0.13
		c1.6,0.1,3.2,0.17,4.81,0.22c2.649,1.73,3.96,5.84,1.511,8.25c-1.44-2.56-4.121-2.2-6.551-1.77c-0.49-1.02-0.95-2.05-1.39-3.09
		c1.87,0.77,3.83,1.28,5.85,0.8c0.431,0.6,1.28,1.81,1.71,2.41c1.59-2.43-0.93-5.24-3.29-5.83c-6.73-0.76-13.63-0.8-20.2-2.64
		c-2.83-0.67-2.09-4.21-1.41-6.23c1.93-4.86,4.19-10.13,8.78-13.04c1.5,0.78,2.93,1.67,4.33,2.63c1.63-1.66,3.03-3.76,5.56-4
		c0.95-1.59,0.53-3.57,0.49-5.32c0.51-5.97-7.1-7.99-11.37-5.37c-2.84,0.93-2.4,4.65-4.88,6.01l0.41,0.59
		c-1.49,0.02-2.97,0.04-4.45-0.03c0.86-1.23,2.38-1.24,3.73-1.27C109.44,8.48,110.93,5.35,114.06,4.09z"/>
	<path fill="#FFFFFF" d="M77.01,18.18c6.56-3.29,13.87-5.06,21.18-5.55c-7.65,2.66-16.03,3.98-22.68,8.89
		c-1.92,1.31-3,3.4-3.95,5.45c0.73,2.95,2.54,5.37,4.86,7.28c-1.11,0.89-1.93,2.35-3.34,2.77c-2.95-1.64-6.6-4.35-5.93-8.2
		C68.45,23.92,72.67,20.42,77.01,18.18z"/>
	<path fill="#FFFFFF" d="M146,23.01c3.35-0.59,6.77-1.57,10.18-0.92c-7.02,2.29-14.439,3.12-21.38,5.68
		c-5,1.81-9.65,4.44-14.05,7.39c-1.91-0.76-3.8-1.58-5.68-2.42C124.96,28.35,135.45,25.33,146,23.01z"/>
	<path fill="#FFFFFF" d="M169.59,46.26c0.37-2.95,3.23-4.3,5.66-5.3C174.02,43.3,172.141,45.37,169.59,46.26z"/>
	<path fill="#FFFFFF" d="M42.27,95.54c0.12-2.271,2.52-2.33,4.26-2.28c0.07,0.32,0.23,0.971,0.3,1.301
		c-0.81-0.24-2.43-0.711-3.24-0.94c-0.68,2.569,2.25,3.149,3.73,4.37c-0.36,2.09-1.51,3.72-3.78,3.59
		c-0.42-0.34-1.26-1.03-1.67-1.37c1.43,0.49,2.84,0.521,4.21,0.11C46.65,97.63,43.09,97.6,42.27,95.54z"/>
	<path fill="#FFFFFF" d="M55.99,92.76c1.8,0.7,2.47,2.49,3.17,4.131c1.06-1.4,1.96-2.971,3.41-4.021
		c-1.72,2.729-3.17,5.601-3.07,8.93C58.37,98.77,57.57,95.641,55.99,92.76z"/>
	<path fill="#FFFFFF" d="M72.05,93.18c1.93,1.87,3.75,3.86,5.66,5.76c0.24-1.989-0.46-4.209,0.56-6.069
		c0.22,2.81,0.15,5.63,0.21,8.45c-2.15-1.83-4-3.99-6.04-5.93c0.08,2.06,0.1,4.109,0.04,6.18C71.32,98.92,72.07,95.96,72.05,93.18z"
		/>
	<path fill="#FFFFFF" d="M105.75,100.63c0.27-2.659-0.59-5.601,0.79-8.04c0.63,2.971,0.42,6.03,0.29,9.04
		C106.56,101.38,106.02,100.88,105.75,100.63z"/>
	<path fill="#FFFFFF" d="M117.99,94.01c1.69-0.96,4.54-1.41,5.68,0.57c-1.58-0.28-3.6-1.471-4.91,0.061
		c-1.65,1.6-1.02,4.279,0.38,5.84c1.43,0.209,2.88,0.299,4.34,0.27c-2.17,1.04-4.49,0.65-6.46-0.63
		C116.21,98.07,115.98,95.471,117.99,94.01z"/>
	<path fill="#FFFFFF" d="M135.58,93.15c1.23,2.869,2.98,5.609,3.359,8.77c-1.67-1.59-2.75-3.689-3.219-5.939l-1.32-0.351
		C134.7,95.01,135.279,93.77,135.58,93.15z"/>
	<path fill="#FFFFFF" d="M146.971,93.37c2.379-0.05,4.76-0.06,7.139-0.08c-0.699,0.25-2.109,0.76-2.81,1.021
		c-0.03,2.119-0.01,4.25,0.06,6.369c-0.279,0.23-0.83,0.69-1.109,0.92c-0.08-2.43-0.05-4.859-0.12-7.289
		C149.07,94.01,148.02,93.7,146.971,93.37z"/>
	<path fill="#FFFFFF" d="M162.82,93.33c0.34,0.02,1.02,0.061,1.35,0.08c-0.04,2.39-0.04,4.779,0.04,7.18
		c-0.31,0.26-0.92,0.801-1.22,1.07C162.8,98.891,162.83,96.109,162.82,93.33z"/>
	<path fill="#FFFFFF" d="M175.07,94.141c2.16-1.801,5.07-0.721,7.039,0.799c0.801,2.82-0.609,6.69-4.039,6.451
		C174.18,102.09,171.971,96.41,175.07,94.141"/>
	<path fill="#FFFFFF" d="M192.07,93.2c1.89,2.06,3.789,4.11,5.959,5.88c0.08-2.13-0.109-4.33,0.611-6.38
		c0.17,2.909-0.091,5.829-0.111,8.75c-2.149-1.87-4.029-4.021-6.039-6.04c0.09,2.09,0.08,4.18-0.01,6.27
		C191.38,98.98,192.061,96.01,192.07,93.2z"/>
	<path fill="#FFFFFF" d="M209.13,93.189c1.38,0.15,2.91,0.11,3.94,1.201c-1.211-0.201-2.4-0.431-3.59-0.701
		c-0.951,2.65,2.369,3.15,3.83,4.431c-0.291,2.95-3.461,4.31-5.711,2.34c1.16-0.13,5.07,1.17,4.23-1.31
		c-0.46-1.33-2.221-1.66-3.13-2.69C207.529,95.51,208.8,94.2,209.13,93.189z"/>
</g>
<g id="_x23_000000ff">
	<path fill="url(#colour1)" d="M120.23,0h12.549C157,0.61,181.37,4.16,204.16,12.63c13.029,4.95,25.8,11.47,35.84,21.31c7.42,6.91,13.38,16.12,14,26.49
		v5.97c-1.35,13.56-11.109,24.289-21.561,32.119c-12.379,9.09-26.81,14.961-41.489,19.181c-18.61,5.3-37.931,7.7-57.229,8.3H120.3
		c-23.67-0.73-47.47-4.18-69.78-12.37c-13.51-5.069-26.79-11.81-37.09-22.12C6.4,84.85,0.93,76.07,0,66.27v-5.95
		c0.65-9.8,6.02-18.66,12.96-25.35C22.95,24.75,35.91,17.99,49.13,12.9C71.8,4.33,96.09,0.75,120.23,0 M114.06,4.09
		c-3.13,1.26-4.62,4.39-6.1,7.18c-1.35,0.03-2.87,0.04-3.73,1.27c1.48,0.07,2.96,0.05,4.45,0.03l-0.41-0.59
		c2.48-1.36,2.04-5.08,4.88-6.01c4.27-2.62,11.88-0.6,11.37,5.37c0.04,1.75,0.46,3.73-0.49,5.32c-2.53,0.24-3.93,2.34-5.56,4
		c-1.4-0.96-2.83-1.85-4.33-2.63c-4.59,2.91-6.85,8.18-8.78,13.04c-0.68,2.02-1.42,5.56,1.41,6.23c6.57,1.84,13.47,1.88,20.2,2.64
		c2.36,0.59,4.879,3.4,3.29,5.83c-0.43-0.6-1.279-1.81-1.71-2.41c-2.02,0.48-3.98-0.03-5.85-0.8c0.44,1.04,0.9,2.07,1.39,3.09
		c2.43-0.43,5.11-0.79,6.551,1.77c2.449-2.41,1.139-6.52-1.511-8.25c-1.61-0.05-3.21-0.12-4.81-0.22
		c6.62-4.24,13.72-8.16,21.53-9.65c-8.939,0.79-17.17,4.82-24.669,9.52c-4.12-0.15-8.22-0.75-12.2-1.79
		c-1.69-0.36-3.83-1.811-2.78-3.8c1.52-4.4,3.44-8.88,6.65-12.32c1.89-2.26,4.42,0.22,6.27,1.18c1.77-1.78,3.12-4.19,5.81-4.65
		c0.45-1.19,0.46-2.5,0.73-3.73c1.57-0.08,3.14-0.19,4.72-0.32c-1.39-0.55-2.81-0.97-4.24-1.38C126.9,5.99,119.25,1.33,114.06,4.09
		 M163.3,19.31c-2.06,2.3-4.59,4.16-6.38,6.69c7.141-0.81,11.971-8.37,10.75-15.23C166.29,13.66,165.48,16.89,163.3,19.31
		 M77.01,18.18c-4.34,2.24-8.56,5.74-9.86,10.64c-0.67,3.85,2.98,6.56,5.93,8.2c1.41-0.42,2.23-1.88,3.34-2.77
		c-2.32-1.91-4.13-4.33-4.86-7.28c0.95-2.05,2.03-4.14,3.95-5.45c6.65-4.91,15.03-6.23,22.68-8.89
		C90.88,13.12,83.57,14.89,77.01,18.18 M170.6,23.06c3.891,0.62,6.561-2.8,7.65-6.09C176,19.37,173.33,21.26,170.6,23.06
		 M85.85,28.94C77.2,39.65,71.51,52.33,63.29,63.33C56.65,72.57,48.54,82,37.05,84.93c-6.43,1.37-14.53,1.74-19.35-3.55
		c-2.1-1.989-1.74-5.021-1.71-7.63c0.95,1.33,1.47,3.07,2.9,3.99c3.14,0.229,5.41-3.85,3.52-6.36c-1.73-1.94-4.85-1.1-6.33,0.72
		c-2.89,3.301-1.62,8.681,1.68,11.23c4.7,4.029,11.38,3.83,17.17,3.17c11.25-1.72,20.57-9.42,27.56-18
		c8.93-11.2,14.05-24.83,22.21-36.53c2.6-3.13,4.69-6.89,8.31-9c-2.19,3.89-5.02,7.49-6.22,11.87c-3.74,12.4-1.86,25.49-1.56,38.2
		c-0.03,3.05-0.27,6.46-2.39,8.86c-1.6,1.49-3.44,2.72-4.99,4.27c3.51,0.96,5.42-2.72,6.78-5.29c7.18-14.2,18.72-25.5,30.59-35.81
		c-1.42,0.14-3.06-0.14-4.13,1.03c-8.53,6.98-15.72,15.39-22.46,24.06c2.94-12.93,1.29-26.27,3.01-39.32
		c0.42-4.15,2.93-7.59,4.89-11.12C92.34,21.95,88.78,25.23,85.85,28.94 M146,23.01c-10.55,2.32-21.04,5.34-30.93,9.73
		c1.88,0.84,3.77,1.66,5.68,2.42c4.4-2.95,9.05-5.58,14.05-7.39c6.94-2.56,14.36-3.39,21.38-5.68
		C152.77,21.44,149.35,22.42,146,23.01 M166.77,21.52c2.561,4.6,4.51,9.49,6.391,14.4c1.79,5.1,6.66,8.22,8.68,13.18
		c0.93,2.03,1.311,4.24,1.891,6.37c2.299-5.12-1.181-10.08-3.961-14.17C175.189,34.87,174.51,25.38,166.77,21.52 M169.59,46.26
		c2.551-0.89,4.43-2.96,5.66-5.3C172.82,41.96,169.96,43.31,169.59,46.26 M133.57,44.45c5.359,2.43,11.029,4.19,16.89,4.91
		c-4.41,2.35-8.87,5.61-10.319,10.65c-1.99,7.021,0.899,14.061,1.629,21.03c-1.01,7.46-9.529,9.96-15.729,11.7
		c7.479-0.91,16.239-3.57,19.46-11.1c2.71-5.82-1.67-11.721-0.52-17.681c0.699-5.39,2.93-11.44,8.17-13.89
		c4.09-0.99,8.47-1.19,12.029-3.73c-5.58,1.47-11.5,2.2-17.18,0.82c-4.48-0.7-8.529-2.92-12.93-3.84
		C134.689,43.6,133.95,44.17,133.57,44.45 M170.16,48.25c-1.93,3.2-3.75,6.47-5.91,9.52c-1.84,0.1-4.04-0.74-5.52,0.73
		c1.72,0.07,3.439,0.09,5.17,0.07c-3.061,5.661-6.73,10.97-9.68,16.69c-1.41,2.79-2,6.71,0.449,9.12c1.58,1.92,4.439,1.62,6.52,0.81
		c4.101-2.529,7.031-6.489,10.031-10.18c-0.32,3.84,0.129,8.85,4.18,10.62c6.6,1.54,10.129-5.41,13.49-9.7
		c0.09,2.641-0.961,5.891,1.02,8.131c1.92,2.67,5.99,2.08,8.18,0.08c7.32-6.211,11.96-14.761,17.98-22.101
		c1.609-1.53,3.32-4.41,5.9-3.06c-0.211,2.91-1.721,5.47-3.091,7.97c-3.58,6.31-7.62,12.33-11.319,18.56
		c2.08,0,4.16-0.01,6.239-0.029c3.101-5.351,6.229-10.75,10.271-15.45c2.17,1.47-0.19,6.01,3.07,6.71
		c5.459,1.17,9.5-3.811,12.069-7.92c-4.021,2.3-6.45,9.229-12.13,7.1c-1.62-2.15-2.33-5.9,0.07-7.779
		c2.789-2.211,6.07-3.791,8.57-6.371c0.969-0.99,2.139-2.31,1.469-3.81c-2.84-0.93-5.25,1.37-6.959,3.3
		c-2.791,2.96-3.771,7.42-7.49,9.48c1.38-3.641,4.13-8.79,0.92-12.22c-2.74-2.35-5.631,0.77-7.45,2.69
		c-7.739,7.851-12.319,18.899-22.26,24.431c-0.729-1.091-2.2-2.07-1.56-3.57c0.83-3.29,2.739-6.17,4.409-9.08
		c3-4.87,5.761-9.9,8.96-14.65c-2.9,0.23-6.84-1.2-7.85,2.63c-0.311-0.729-0.939-2.2-1.25-2.939c-5.93-1.26-11.32,2.61-16.131,5.53
		c-5.93,3.5-8.5,10.149-13.059,14.989c-2.48,2.57-4.771,5.99-8.49,6.7c-3.03-0.18-2.521-3.83-1.34-5.689
		c3.949-7.08,8.139-14.03,12.209-21.051c2.391-0.17,5.17,0.81,7.26-0.72c-2.25-0.17-4.5-0.15-6.75-0.16
		c1.83-3.16,3.73-6.28,5.591-9.43C174.02,48.25,172.09,48.27,170.16,48.25 M110.01,58.24c-2.8,4.49-5.42,9.09-8.2,13.59
		c-1.65,2.76-3.5,5.76-3.11,9.13c0.19,2.59,2.52,5.431,5.35,4.76c3.92-0.079,6.08-3.979,8.28-6.689c-2.81,2.11-5.08,6.7-9.13,5.88
		c-1.95-2.01-0.21-4.86,0.82-6.88c4.03-6.591,7.95-13.24,12.09-19.771C114.07,58.35,112.04,58.36,110.01,58.24 M125.29,58.3
		c-4,6.431-7.64,13.101-12.04,19.271c0.34-0.08,1.02-0.23,1.37-0.301c-1.1,3.17-0.17,7.561,3.47,8.5
		c4.56,0.551,7.69-3.33,10.439-6.319c2.771-3.46,6-6.66,7.871-10.72c-5.78,4.729-8.43,12.879-15.45,16.239
		c-2.51,1.2-3.96-1.989-2.68-3.93c3.52-8.06,8.76-15.24,13.259-22.78C129.45,58.36,127.37,58.38,125.29,58.3"/>
	<path fill="url(#colour1)" d="M180.67,69.609c3.801-4.799,8-10.259,14.439-11.319c0.761,0.84,1.531,1.68,2.301,2.52c-3.939,8.69-9.65,16.64-16.75,23
		c-1.67,1.729-3.93,1.369-5.79,0.189C174.42,78.53,177.51,73.77,180.67,69.609z"/>
</g>
<g id="_x23_f0c040ff">
	<path fill="#F0C040" d="M163.3,19.31c2.181-2.42,2.99-5.65,4.37-8.54c1.221,6.86-3.609,14.42-10.75,15.23
		C158.71,23.47,161.24,21.61,163.3,19.31z"/>
	<path fill="#F0C040" d="M170.6,23.06c2.73-1.8,5.4-3.69,7.65-6.09C177.16,20.26,174.49,23.68,170.6,23.06z"/>
	<path fill="#F0C040" d="M166.77,21.52c7.74,3.86,8.42,13.35,13,19.78c2.78,4.09,6.26,9.05,3.961,14.17
		c-0.58-2.13-0.961-4.34-1.891-6.37c-2.02-4.96-6.89-8.08-8.68-13.18C171.279,31.01,169.33,26.12,166.77,21.52z"/>
	<path fill="#F0C040" d="M133.57,44.45c0.38-0.28,1.119-0.85,1.5-1.13c4.4,0.92,8.449,3.14,12.93,3.84
		c5.68,1.38,11.6,0.65,17.18-0.82c-3.56,2.54-7.939,2.74-12.029,3.73c-5.24,2.45-7.471,8.5-8.17,13.89
		c-1.15,5.96,3.229,11.86,0.52,17.681c-3.221,7.529-11.98,10.189-19.46,11.1c6.2-1.74,14.72-4.24,15.729-11.7
		c-0.729-6.97-3.619-14.01-1.629-21.03c1.449-5.04,5.909-8.3,10.319-10.65C144.6,48.64,138.93,46.88,133.57,44.45z"/>
</g>
<g id="_x23_fe7a06ff">
	<path fill="#FE7A06" d="M85.85,28.94c2.93-3.71,6.49-6.99,10.68-9.22c-1.96,3.53-4.47,6.97-4.89,11.12
		c-1.72,13.05-0.07,26.39-3.01,39.32c6.74-8.67,13.93-17.08,22.46-24.06c1.07-1.17,2.71-0.89,4.13-1.03
		c-11.87,10.31-23.41,21.61-30.59,35.81c-1.36,2.57-3.27,6.25-6.78,5.29c1.55-1.55,3.39-2.779,4.99-4.27
		c2.12-2.4,2.36-5.811,2.39-8.86c-0.3-12.71-2.18-25.8,1.56-38.2c1.2-4.38,4.03-7.98,6.22-11.87c-3.62,2.11-5.71,5.87-8.31,9
		C76.54,43.67,71.42,57.3,62.49,68.5c-6.99,8.58-16.31,16.28-27.56,18c-5.79,0.66-12.47,0.859-17.17-3.17
		c-3.3-2.55-4.57-7.93-1.68-11.23c1.48-1.819,4.6-2.66,6.33-0.72c1.89,2.511-0.38,6.59-3.52,6.36c-1.43-0.92-1.95-2.66-2.9-3.99
		c-0.03,2.609-0.39,5.641,1.71,7.63c4.82,5.29,12.92,4.92,19.35,3.55C48.54,82,56.65,72.57,63.29,63.33
		C71.51,52.33,77.2,39.65,85.85,28.94z"/>
	<path fill="#FE7A06" d="M121.18,38.82c7.5-4.7,15.73-8.73,24.669-9.52c-7.81,1.49-14.91,5.41-21.53,9.65
		C123.27,38.9,122.22,38.86,121.18,38.82z"/>
	<path fill="#FE7A06" d="M170.16,48.25c1.93,0.02,3.859,0,5.79-0.05c-1.86,3.15-3.761,6.27-5.591,9.43c2.25,0.01,4.5-0.01,6.75,0.16
		c-2.09,1.53-4.869,0.55-7.26,0.72c-4.07,7.021-8.26,13.971-12.209,21.051c-1.181,1.859-1.69,5.51,1.34,5.689
		c3.72-0.71,6.01-4.13,8.49-6.7c4.559-4.84,7.129-11.489,13.059-14.989c4.811-2.92,10.201-6.791,16.131-5.53
		c0.311,0.74,0.939,2.21,1.25,2.939c1.01-3.83,4.949-2.4,7.85-2.63c-3.199,4.75-5.96,9.78-8.96,14.65
		c-1.67,2.91-3.579,5.79-4.409,9.08c-0.641,1.5,0.83,2.479,1.56,3.57c9.94-5.531,14.521-16.58,22.26-24.431
		c1.819-1.92,4.71-5.04,7.45-2.69c3.21,3.43,0.46,8.58-0.92,12.22c3.72-2.061,4.699-6.521,7.49-9.48
		c1.709-1.93,4.119-4.229,6.959-3.3c0.67,1.5-0.5,2.82-1.469,3.81c-2.5,2.58-5.781,4.16-8.57,6.371
		c-2.4,1.879-1.69,5.629-0.07,7.779c5.68,2.13,8.109-4.8,12.13-7.1c-2.569,4.109-6.61,9.09-12.069,7.92
		c-3.261-0.7-0.9-5.24-3.07-6.71c-4.041,4.7-7.17,10.1-10.271,15.45c-2.079,0.02-4.159,0.029-6.239,0.029
		c3.699-6.229,7.739-12.25,11.319-18.56c1.37-2.5,2.88-5.06,3.091-7.97c-2.58-1.35-4.291,1.53-5.9,3.06
		c-6.021,7.34-10.66,15.89-17.98,22.101c-2.189,2-6.26,2.59-8.18-0.08c-1.98-2.24-0.93-5.49-1.02-8.131
		c-3.361,4.29-6.891,11.24-13.49,9.7c-4.051-1.771-4.5-6.78-4.18-10.62c-3,3.69-5.931,7.65-10.031,10.18
		c-2.08,0.811-4.939,1.11-6.52-0.81c-2.449-2.41-1.859-6.33-0.449-9.12c2.949-5.72,6.619-11.029,9.68-16.69
		c-1.73,0.02-3.45,0-5.17-0.07c1.479-1.47,3.68-0.63,5.52-0.73C166.41,54.72,168.23,51.45,170.16,48.25 M180.67,69.609
		c-3.16,4.16-6.25,8.921-5.8,14.391c1.86,1.18,4.12,1.54,5.79-0.189c7.1-6.36,12.811-14.311,16.75-23
		c-0.77-0.84-1.54-1.68-2.301-2.52C188.67,59.35,184.471,64.811,180.67,69.609z"/>
	<path fill="#FE7A06" d="M110.01,58.24c2.03,0.12,4.06,0.11,6.1,0.02c-4.14,6.53-8.06,13.18-12.09,19.771
		c-1.03,2.02-2.77,4.87-0.82,6.88c4.05,0.82,6.32-3.77,9.13-5.88c-2.2,2.71-4.36,6.61-8.28,6.689c-2.83,0.671-5.16-2.17-5.35-4.76
		c-0.39-3.37,1.46-6.37,3.11-9.13C104.59,67.33,107.21,62.73,110.01,58.24z"/>
	<path fill="#FE7A06" d="M125.29,58.3c2.08,0.08,4.16,0.06,6.239-0.04c-4.5,7.54-9.739,14.721-13.259,22.78
		c-1.28,1.94,0.17,5.13,2.68,3.93c7.021-3.36,9.67-11.51,15.45-16.239c-1.871,4.06-5.101,7.26-7.871,10.72
		c-2.75,2.989-5.879,6.87-10.439,6.319c-3.64-0.939-4.57-5.33-3.47-8.5c-0.35,0.07-1.03,0.221-1.37,0.301
		C117.65,71.4,121.29,64.73,125.29,58.3z"/>
</g>
<g>
	<path fill="#FFFFFF" d="M42.405,98.569c0,0.572,0.184,0.996,0.55,1.271c0.367,0.275,0.847,0.413,1.441,0.413
		c0.564,0,0.982-0.116,1.254-0.347c0.271-0.231,0.407-0.512,0.407-0.842c0-0.278-0.061-0.491-0.182-0.638s-0.277-0.257-0.467-0.33
		c-0.235-0.088-0.667-0.213-1.298-0.374c-0.484-0.125-0.832-0.217-1.045-0.275c-0.624-0.168-1.069-0.429-1.336-0.781
		c-0.268-0.352-0.401-0.755-0.401-1.21c0-0.381,0.079-0.716,0.236-1.006s0.374-0.532,0.649-0.727s0.583-0.339,0.924-0.435
		c0.341-0.095,0.694-0.143,1.061-0.143c0.418,0,0.809,0.054,1.172,0.159c0.363,0.106,0.684,0.269,0.962,0.484
		c0.279,0.217,0.495,0.482,0.649,0.798s0.231,0.671,0.231,1.066h-1.375c-0.029-0.483-0.192-0.836-0.489-1.056
		c-0.297-0.22-0.699-0.33-1.205-0.33c-0.176,0-0.347,0.017-0.512,0.05c-0.165,0.032-0.319,0.09-0.462,0.17
		c-0.143,0.081-0.257,0.188-0.341,0.319c-0.084,0.132-0.126,0.293-0.126,0.483c0,0.265,0.083,0.479,0.248,0.644
		c0.165,0.165,0.394,0.288,0.688,0.369l0.308,0.077c0.33,0.088,0.638,0.17,0.924,0.247c0.286,0.077,0.513,0.138,0.682,0.182
		c0.169,0.044,0.286,0.077,0.352,0.099c0.491,0.147,0.869,0.409,1.133,0.787c0.264,0.378,0.396,0.782,0.396,1.215
		c0,0.426-0.086,0.796-0.259,1.111s-0.405,0.572-0.698,0.77c-0.293,0.198-0.627,0.346-1.001,0.44
		c-0.374,0.096-0.763,0.143-1.166,0.143c-0.455,0-0.88-0.057-1.276-0.17s-0.743-0.284-1.04-0.512
		c-0.297-0.228-0.53-0.521-0.699-0.88c-0.169-0.359-0.257-0.773-0.264-1.243H42.405z"/>
	<path fill="#FFFFFF" d="M58.927,98.107l-2.948-4.773h1.595l2.079,3.52l2.046-3.52h1.54l-2.937,4.773v3.08h-1.375V98.107z"/>
	<path fill="#FFFFFF" d="M72.204,93.334h1.452l3.586,5.785h0.022v-5.785h1.309v7.854h-1.452l-3.575-5.775h-0.033v5.775h-1.309
		V93.334z"/>
	<path fill="#FFFFFF" d="M88.451,93.334h3.256c0.587,0,1.1,0.101,1.54,0.302c0.44,0.202,0.803,0.48,1.089,0.836
		c0.286,0.356,0.497,0.772,0.632,1.249s0.204,0.99,0.204,1.54s-0.068,1.063-0.204,1.54s-0.347,0.893-0.632,1.248
		c-0.286,0.355-0.649,0.635-1.089,0.836c-0.44,0.202-0.953,0.303-1.54,0.303h-3.256V93.334z M89.826,100.065h1.353
		c0.521,0,0.953-0.069,1.298-0.209s0.612-0.335,0.803-0.589c0.19-0.253,0.324-0.544,0.401-0.874s0.116-0.708,0.116-1.133
		c0-0.426-0.039-0.805-0.116-1.139s-0.211-0.625-0.401-0.875c-0.191-0.249-0.458-0.443-0.803-0.583
		c-0.345-0.139-0.777-0.209-1.298-0.209h-1.353V100.065z"/>
	<path fill="#FFFFFF" d="M104.643,93.334h1.375v7.854h-1.375V93.334z"/>
	<path fill="#FFFFFF" d="M121.253,95.83c-0.125-0.483-0.347-0.865-0.666-1.144c-0.319-0.278-0.75-0.418-1.292-0.418
		c-0.404,0-0.757,0.082-1.062,0.247c-0.305,0.165-0.554,0.388-0.748,0.666s-0.339,0.598-0.435,0.957s-0.143,0.733-0.143,1.122
		s0.048,0.761,0.143,1.116s0.24,0.675,0.435,0.957s0.443,0.506,0.748,0.671c0.304,0.165,0.658,0.248,1.062,0.248
		c0.586,0,1.052-0.193,1.397-0.578c0.344-0.385,0.546-0.878,0.605-1.479h1.342c-0.029,0.47-0.13,0.898-0.302,1.287
		c-0.172,0.389-0.405,0.725-0.699,1.007s-0.64,0.5-1.04,0.654s-0.834,0.23-1.303,0.23c-0.572,0-1.093-0.105-1.562-0.318
		c-0.47-0.213-0.868-0.508-1.194-0.886s-0.576-0.815-0.748-1.314s-0.258-1.03-0.258-1.595s0.086-1.097,0.258-1.596
		c0.172-0.498,0.422-0.937,0.748-1.314c0.326-0.377,0.724-0.672,1.194-0.885c0.469-0.213,0.99-0.319,1.562-0.319
		c0.909,0.008,1.665,0.246,2.266,0.715c0.308,0.235,0.554,0.518,0.737,0.848c0.183,0.329,0.293,0.703,0.33,1.121H121.253z"/>
	<path fill="#FFFFFF" d="M134.244,93.334h1.463l3.024,7.854h-1.474l-0.737-2.079h-3.135l-0.737,2.079h-1.419L134.244,93.334z
		 M133.76,98.063h2.398l-1.178-3.377h-0.033L133.76,98.063z"/>
	<path fill="#FFFFFF" d="M145.97,93.334h6.358v1.188h-2.497v6.666h-1.375v-6.666h-2.486V93.334z"/>
	<path fill="#FFFFFF" d="M161.49,93.334h1.375v7.854h-1.375V93.334z"/>
	<path fill="#FFFFFF" d="M177.705,93.466c0.469,0.213,0.867,0.508,1.193,0.885c0.326,0.378,0.575,0.816,0.748,1.314
		c0.172,0.499,0.259,1.031,0.259,1.596s-0.087,1.096-0.259,1.595c-0.173,0.499-0.422,0.937-0.748,1.314s-0.725,0.673-1.193,0.886
		c-0.47,0.213-0.99,0.318-1.563,0.318c-0.571,0-1.093-0.105-1.562-0.318c-0.47-0.213-0.867-0.508-1.193-0.886
		c-0.327-0.378-0.576-0.815-0.748-1.314c-0.173-0.499-0.259-1.03-0.259-1.595s0.086-1.097,0.259-1.596
		c0.172-0.498,0.421-0.937,0.748-1.314c0.326-0.377,0.724-0.672,1.193-0.885c0.469-0.213,0.99-0.319,1.562-0.319
		C176.715,93.146,177.235,93.253,177.705,93.466z M175.081,94.516c-0.304,0.165-0.554,0.388-0.748,0.666s-0.339,0.598-0.435,0.957
		c-0.095,0.359-0.143,0.733-0.143,1.122s0.048,0.761,0.143,1.116c0.096,0.355,0.24,0.675,0.435,0.957s0.444,0.506,0.748,0.671
		c0.305,0.165,0.658,0.248,1.062,0.248s0.758-0.083,1.062-0.248c0.305-0.165,0.554-0.389,0.748-0.671s0.339-0.602,0.435-0.957
		s0.144-0.728,0.144-1.116s-0.048-0.761-0.144-1.117c-0.096-0.355-0.24-0.674-0.435-0.957c-0.194-0.282-0.443-0.506-0.748-0.671
		c-0.304-0.165-0.658-0.247-1.062-0.247S175.386,94.351,175.081,94.516z"/>
	<path fill="#FFFFFF" d="M189.354,93.334h1.452l3.586,5.785h0.021v-5.785h1.31v7.854h-1.452l-3.575-5.775h-0.033v5.775h-1.309
		V93.334z"/>
	<path fill="#FFFFFF" d="M206.503,98.569c0,0.572,0.183,0.996,0.55,1.271c0.366,0.275,0.847,0.413,1.44,0.413
		c0.565,0,0.983-0.116,1.255-0.347c0.271-0.231,0.406-0.512,0.406-0.842c0-0.278-0.061-0.491-0.181-0.638
		c-0.121-0.146-0.277-0.257-0.468-0.33c-0.235-0.088-0.668-0.213-1.298-0.374c-0.484-0.125-0.833-0.217-1.045-0.275
		c-0.624-0.168-1.069-0.429-1.337-0.781c-0.268-0.352-0.401-0.755-0.401-1.21c0-0.381,0.078-0.716,0.236-1.006
		c0.157-0.29,0.374-0.532,0.649-0.727c0.274-0.194,0.583-0.339,0.924-0.435c0.341-0.095,0.694-0.143,1.062-0.143
		c0.418,0,0.809,0.054,1.171,0.159c0.363,0.106,0.684,0.269,0.963,0.484c0.278,0.217,0.495,0.482,0.649,0.798
		c0.153,0.315,0.23,0.671,0.23,1.066h-1.375c-0.029-0.483-0.192-0.836-0.489-1.056s-0.698-0.33-1.205-0.33
		c-0.176,0-0.346,0.017-0.511,0.05c-0.165,0.032-0.319,0.09-0.462,0.17c-0.144,0.081-0.257,0.188-0.342,0.319
		c-0.084,0.132-0.126,0.293-0.126,0.483c0,0.265,0.082,0.479,0.247,0.644s0.395,0.288,0.688,0.369l0.309,0.077
		c0.33,0.088,0.638,0.17,0.924,0.247s0.513,0.138,0.682,0.182s0.286,0.077,0.353,0.099c0.491,0.147,0.869,0.409,1.133,0.787
		s0.396,0.782,0.396,1.215c0,0.426-0.086,0.796-0.258,1.111c-0.173,0.315-0.405,0.572-0.699,0.77
		c-0.293,0.198-0.627,0.346-1.001,0.44c-0.374,0.096-0.763,0.143-1.166,0.143c-0.454,0-0.88-0.057-1.275-0.17
		c-0.396-0.113-0.743-0.284-1.04-0.512s-0.529-0.521-0.698-0.88s-0.257-0.773-0.264-1.243H206.503z"/>
</g>
</svg>
