<?xml version="1.0" encoding="utf-8"?>
<!-- Generator: Adobe Illustrator 14.0.0, SVG Export Plug-In . SVG Version: 6.00 Build 43363)  -->
<!DOCTYPE svg PUBLIC "-//W3C//DTD SVG 1.0//EN" "http://www.w3.org/TR/2001/REC-SVG-20010904/DTD/svg10.dtd">
<svg version="1.0" id="Layer_1" xmlns="http://www.w3.org/2000/svg" xmlns:xlink="http://www.w3.org/1999/xlink" x="0px" y="0px"
	 width="299px" height="273px" viewBox="0 0 299 273" enable-background="new 0 0 299 273" xml:space="preserve">
<defs>
   <linearGradient id="colour1">
     <stop offset="100%" stop-color="red"/>
   </linearGradient>
 </defs>
<g id="_x23_c00000ff">
	<path fill="url(#colour1)" d="M189.995,14.363c3.785,5.519,2.468,15.243-4.952,16.791c1.707-4.789,6.58-9.633,4.056-15
		c-2.917-5.904-9.493-8.627-15.485-10.29c-14.184-3.792-29.889-3.822-43.364,2.519c-6.571,2.943-12.385,7.832-19.771,8.63
		c4.896-8.536,14.46-12.67,23.445-15.431c5.759-1.807,11.822-2.301,17.817-2.178l17.3,1.95
		C177.078,3.337,185.333,7.247,189.995,14.363z"/>
	<path fill="url(#colour1)" d="M95.852,20.798c-2.862,1.378-4.563,4.145-5.996,6.861c1.69,5.897,7.471,8.531,11.692,12.328
		c-16.016,1.384-34.106,0.462-47.106,11.606c-7.191,4.966-8.564,15.257-4.948,22.82c-2.874-0.586-6.093-1.472-7.458-4.374
		c-3.938-7.196-0.415-16.309,5.862-20.945C60.364,39.49,76.9,38.225,92.076,38.668c-2.592-2.275-5.333-4.828-5.967-8.391
		c-1.076-4.026,1.256-8.111,4.563-10.314c5.692-3.887,12.938-4.872,19.676-4.303C105.667,17.819,100.25,17.943,95.852,20.798z"/>
	<path fill="url(#colour1)" d="M258.759,74.887c-0.41,4.794-1.354,11.913-7.395,12.39c1.052-5.225,2.78-10.656,1.378-15.986
		c-4.93-16.607-18.323-29.83-34.224-36.252c-8.018-3.419-16.751-4.415-25.092-6.753c5.558-1.004,11.255-0.482,16.721,0.848
		c14.014,3.079,27.936,9.64,37.009,21.108C252.915,57.271,259.511,65.17,258.759,74.887z"/>
	<path fill="url(#colour1)" d="M144.442,58.881c1.221,3.177,4.214,5.457,7.379,6.487c3.716,1.234,7.341-0.853,11.044-0.929
		c3.054,0.667,5.94,2.743,9.178,2.051c4.734-0.936,7.287-5.458,10.733-8.361c-0.487,5.037-4.739,8.392-8.991,10.398
		c-4.189,1.631-8.625-0.791-12.912,0.094c-3.157,0.61-6.51,1.782-9.656,0.411c-4.769-1.967-9.336-5.994-10.042-11.346
		c-0.335-2.735,1.657-4.885,3.033-6.995C144.314,53.412,143.798,56.202,144.442,58.881z"/>
	<path fill="url(#colour1)" d="M265.675,121.545c-6.241,3.05-13.682,2.554-19.888-0.33c-2.208-1.306-4.336,0.608-6.278,1.506
		c-9.624,5.829-21.735,6.496-32.374,3.395c-5.896-1.711-11.222-6.065-12.732-12.213c6.269,2.508,11.621,6.986,18.19,8.783
		c9.788,2.884,20.635,1.662,29.448-3.503c-0.054-0.952-0.16-2.866-0.214-3.818c6.175,2.266,12.88,4.119,19.484,2.931
		c5.081-1.51,10.419-6.544,8.864-12.314c-1.874-7.467-8.257-12.262-13.93-16.846c6.313,1.577,11.645,5.972,15.196,11.333
		C276.074,107.321,273.494,118.25,265.675,121.545z"/>
	<path fill="url(#colour1)" d="M93.585,80.993c-7.288-0.157-12.473-6.478-14.501-12.945c5.851,2.903,9.892,9.286,16.892,9.764
		c5.111,0.727,8.593-3.47,12.112-6.384C106.157,77.57,99.986,81.604,93.585,80.993z"/>
	<path fill="url(#colour1)" d="M107.039,85.911c-2.939-0.532-4.631-3.098-5.63-5.676c3.527,1.384,7.074,3.484,11.016,2.893
		c3.589-0.411,6.019-3.397,8.656-5.556C119.152,83.261,113.122,87.653,107.039,85.911z"/>
	<path fill="url(#colour1)" d="M73.908,77.004c-18.3,2.455-37.239,3.702-54.245,11.556c-4.992,2.406-10.338,6.443-10.596,12.481
		c-0.164,6.453,3.067,12.704,7.549,17.214c5.45,5.214,12.155,9.028,19.252,11.508c9.331,3.287,19.344,2.131,29.036,2.389
		c-2.324,1.248-4.639,2.496-6.98,3.71c11.969,5.597,25.332,8.461,38.56,7.617c-5.604-5.461-12.446-9.483-19.57-12.622
		c-5.586-2.491-11.698-3.351-17.404-5.494c-3.148-1.17-5.008-4.137-7.054-6.612c-2.884,1.657-6.169,3.129-9.557,2.113
		c-5.448-0.685-9.363-4.869-11.997-9.362c3.489,2.436,6.784,5.786,11.254,6.128c3.603,0.538,6.821-1.505,9.9-3.02
		c3.012,3.097,6.111,6.938,10.794,7.174c4.481,0.788,8.483-1.69,12.359-3.487c-2.213,2.578-4.581,5.019-7.041,7.377
		c9.841,0.999,20.17-0.031,28.674-5.482c-2.885-2.258-5.758-4.534-8.646-6.781c-4.62,1.18-9.532,2.98-14.303,1.467
		c-4.191-1.56-6.536-5.678-8.349-9.495c6.179,1.602,12.204,4.847,18.775,4.049c7.625-0.51,13.915-5.235,20.617-8.374
		c-4.178,4.581-9.314,8.088-14.516,11.386c12.642,7.755,28.081,9.596,42.538,7.23c6.528-1.216,12.547-4.08,18.684-6.479
		c-5.497,6.456-12.961,11.42-16.783,19.161c-1.42,5.818,0.33,11.812,0.694,17.68c-8.325-1.129-16.31-4.133-24.113-7.036
		c-4.561-5.786-4.208-14.009-8.854-19.836c0.403,7.23,3.988,13.894,3.594,21.235c-3.159-2.861-5.94-6.144-9.34-8.741
		c-3.027-2.333-6.764-3.378-10.394-4.382c3.049,2.498,6.455,4.512,9.388,7.147c3.633,3.308,4.749,8.576,8.497,11.756
		c4.683,2.289,9.967,2.824,14.982,4.034c2.936,4.225,6.564,8.187,8.104,13.189c0.921,5.316-2.124,10.448-1.404,15.763
		c1.798,7.166,6.354,13.446,7.351,20.854c0.356,5.585-0.774,11.144-1.656,16.639c-0.535,2.606-1.019,5.832-3.709,7.119
		c-7.936,4.248-17.351,4.022-25.495,7.713c-2.996,1.313-5.704,3.191-8.334,5.108c9.207-0.712,18.239-2.985,27.095-5.488
		c6.112-1.988,13.663-4.881,15.059-11.989c1.093-6.66-0.127-13.52,1.553-20.123c0.574,5.438,1.497,10.826,2.923,16.12
		c1.758,6.719,0.591,13.682,0.085,20.487c-6.429,5.786-13.232,11.149-19.499,17.113c9.623-0.555,17.488-6.502,26.019-10.229
		c5.792-2.638,12.256-2.754,18.494-2.745c3.735,4.446,7.007,9.435,11.679,12.98c5.261,3.147,11.677,3.097,17.61,3.665
		c-3.948-2.729-8.801-4.323-12.02-7.997c-2.923-4.687-5.242-9.738-8.315-14.341c-1.85-2.524-1.499-5.725-1.141-8.634
		c2.991,4.887,4.263,11.38,9.688,14.316c6.103,2.912,12.947,3.694,19.562,4.75c0.615-1.349,1.229-2.688,1.831-4.02
		c2.921,1.588,5.657,3.557,8.745,4.821c1.755-0.125,3.451-0.618,5.163-0.989c5.854,3.608,11.363,8.467,18.505,9.121
		c-7.16-5.759-15.153-10.544-23.631-14.086c-5.769-2.472-12.045-3.22-18.084-4.726c-4.638-1.086-7.888-4.834-10.971-8.201
		c-3.063-3.636-6.817-7.008-8.232-11.695c-1.749-5.46-0.073-11.219-0.531-16.795c-1.293-3.89-5.859-5.511-7.44-9.253
		c-1.421-4.095-1.231-8.722-3.583-12.499c-1.664-2.733-3.349-5.459-4.605-8.419c3.345,2.471,6.639,5.206,10.799,6.159
		c-1.665-2.554-3.538-4.958-5.269-7.458c4.581,1.855,8.994,4.576,14.006,5.021c1.238,0.18,2.267-0.641,3.214-1.277
		c6.754-5.016,11.403-12.16,17.244-18.093c4.05-4.142,9.646-6.017,14.985-7.861c-3.589-0.475-7.163-0.999-10.717-1.609
		c0.104-5.735,1.834-11.276,4.925-16.101c-0.239,4.975-0.905,9.901-1.442,14.842c3.777-0.832,7.523-1.839,11.21-3.023
		c-0.56-3.253-0.934-6.536-1.026-9.826c4.747,4.218,7.792,10.065,12.953,13.828c4.267,3.127,9.835,2.558,14.812,2.333
		c-1.434-2.094-2.891-4.18-4.347-6.256c4.509,2.763,9.082,6.115,14.586,6.304c4.544,0.481,8.561-2.114,12.623-3.689
		c-1.697,2.737-3.437,5.933-6.774,6.885c-3.68,1.577-7.604,0.139-11.279-0.638c-5.937-1.534-12.008,0.639-18.012-0.199
		c-3.971-0.568-7.911-1.404-11.931-1.556c5.958,6.246,14.617,9.145,22.872,10.911c10.355,1.961,20.89,3.229,31.439,3.021
		c5.587-0.286,11.396-1.292,16.162-4.377c4.846-3.439,4.717-10.599,2.181-15.423c-4.636-8.594-12.08-15.139-19.534-21.232
		c4.318,1.775,8.308,4.328,11.619,7.629c5.951,5.763,11.861,12.619,12.567,21.262l-0.447,3.965
		c-1.942,5.537-6.957,9.228-12.401,10.92c-10.731,3.338-22.28,3.838-33.343,1.996c-8.794-1.272-17.841-3.138-25.259-8.312
		c-3.988-2.382-6.927-6.214-11.08-8.303c-7.595,1.227-14.503,6.354-18.267,13.056c-2.941,5.022-6.938,9.422-11.783,12.67
		c-3.434,2.331-7.951,0.724-11.588,2.447c-2.944,2.284-3.39,6.511-2.915,9.967c0.579,4.955,5.826,7.51,6.933,12.243
		c1.17,4.892,0.812,10.034,2.155,14.895c1.167,3.754,4.558,6.079,7.092,8.86c2.698,2.67,4.509,6.517,8.344,7.765
		c8.384,3.198,17.172,5.316,25.428,8.854c6.986,3.103,12.239,8.817,18.389,13.183c4.156,3.034,8.99,4.969,13.193,7.948
		c-7.097-0.972-14.115-2.527-20.964-4.628c-5.906-1.702-11.157-5.555-17.481-5.704c-2.904-0.035-5.107-2.095-7.383-3.6
		c-0.383,1.073-0.766,2.148-1.148,3.222c-7.973-0.777-15.578-3.306-23.202-5.563c4.866,6.103,12.425,8.867,18.278,13.805
		c6.731,5.629,15.213,8.326,22.582,12.94c-13.837-3.12-27.284-8.188-41.54-9.211c-8.943-1.351-17.617,1.758-26.355,3.127
		c6.6-3.825,14.039-5.714,21.394-7.49c-4.555-3.251-8.018-7.879-12.84-10.726c-8.062-1.321-15.996,2.282-23.366,5.175
		c-7.725,3.365-16.125,4.593-24.111,7.134c-3.33,1.063-6.762,1.784-10.255,1.975c3.376-5.306,8.997-8.396,13.388-12.712
		c4.928-4.787,10.485-8.83,15.786-13.174c-3.437-0.045-6.903-0.014-10.303,0.6c-15.428,2.951-30.955,5.537-46.593,6.955
		c5.475-4.737,11.45-9.075,18.205-11.785c8.445-3.145,17.566-3.968,25.973-7.227c2.119-0.848,4.637-2.033,4.935-4.586
		c1.23-6.352,2.382-13.187,0.078-19.434c-1.866-5.855-5.519-11.027-6.895-17.04c-0.628-5.585,1.956-10.828,3.626-16.004
		c-2.441-3.605-4.408-7.672-7.645-10.663c-3.4-2.235-7.593-2.718-11.201-4.544c-3.118-1.357-5.457-3.906-7.726-6.355
		c-10.208,1.094-20.788,0.856-30.49-2.792c-4.525-1.547-8.624-4.022-12.756-6.37c-3.43-2.077-7.568-1.879-11.409-2.252
		c-9.534-0.602-18.661-4.529-26.192-10.298c-7.369-5.691-13.577-13.828-14.268-23.406l0.55-4.879
		c2.436-7.242,8.972-12.101,15.766-14.968c12.298-5.185,25.754-6.889,39.016-7.145C63.253,75.642,68.668,75.729,73.908,77.004
		 M127.516,127.979c-6.879-0.846-13.778-1.604-20.669-2.34c1.949,4.315,3.908,8.622,6.339,12.69
		c3.997-1.532,8.101-2.942,11.747-5.208C126.901,132.177,126.88,129.77,127.516,127.979 M102.438,136.726
		c-0.37-4.219-1.365-8.336-2.726-12.334c-3.222,1.529-6.37,3.217-9.443,5.034C94.47,131.611,98.885,133.517,102.438,136.726
		 M119.823,142.74c2.523,0.647,5.07,1.175,7.625,1.634c-0.003-2.032-0.016-4.066-0.057-6.103
		C124.611,139.274,121.985,140.7,119.823,142.74z"/>
	<path fill="url(#colour1)" d="M176.747,99.565c-1.312,3.153-2.876,6.589-6.099,8.219c-2.154,1.438-5.063,1.885-6.785,3.854
		c-0.172,3.503,1.597,6.731,3.213,9.711c3.383,5.977,10.04,9.052,16.44,10.659c4.638,1.257,9.445,0.3,14.163,0.228
		c-2.809,1.605-5.757,3.215-9.038,3.49c-5.083,0.373-10.138-0.851-15.221-0.488c-3.409,0.773-6.338,2.838-9.513,4.222
		c-0.099-4.127,0.326-8.246,1.172-12.276c-1.476-0.116-2.953-0.223-4.442-0.32c-1.762,3.313-3.716,6.625-6.79,8.905
		c-2.519-4.611-3.739-9.851-3.238-15.098c1.211,2.643,2.244,5.345,3.257,8.065c3.162-5.732,8.788-11.186,7.226-18.306
		c-2.313-1.8-4.519-3.75-6.476-5.943c3.705,0.971,7.46,3.196,11.382,1.967C170.318,105.533,173.432,102.201,176.747,99.565
		 M166.197,133.427c1.516,0.936,3.42-1.587,2.149-2.817C166.816,129.633,164.988,132.194,166.197,133.427z"/>
	<path fill="url(#colour1)" d="M187.525,159.55c-3.956,2.966-9.176,3.203-13.796,1.866c4.777-2.822,10.136-4.563,14.582-7.937
		c-3.047-0.654-6.272-0.787-9.186-1.99c-3.515-1.947-5.104-5.879-7.002-9.213c-1.145,2.749-3.028,5.615-2.342,8.723
		c0.828,2.921,2.338,5.597,3.459,8.41c-4.478,0.805-9.12-3-8.627-7.645c0.935-6.153,6.118-10.269,10.781-13.778
		c2.85,4.084,5.953,8.872,11.247,9.852c2.589,0.332,6.075,1.63,8.031-0.815c4.842-5.724,7.315-12.932,10.695-19.525
		C204.999,140.236,197.706,152.175,187.525,159.55z"/>
	<path fill="url(#colour1)" d="M138.924,162.012c-0.592,3.919,1.153,7.628,1.834,11.407c-2.216-2.313-4.65-4.64-5.73-7.731
		c-0.348-2.807,1.217-5.356,2.13-7.91c2.654-5.778,1.073-12.288,1.981-18.375c1.274,3.778,2.317,7.739,2.135,11.765
		C140.887,154.867,139.33,158.324,138.924,162.012z"/>
	<path fill="url(#colour1)" d="M230.206,166.586c-1.342,2.002-3.131,3.853-5.635,4.195c-6.686,1.188-13.229-3.344-16.089-9.211
		c4.856,1.191,8.593,4.823,13.32,6.271C224.666,168.779,227.472,167.193,230.206,166.586z"/>
	<path fill="url(#colour1)" d="M136.015,194.611c-5.042-0.9-7.429-6.595-6.373-11.234c1.466,2.53,2.803,5.136,4.365,7.616
		c0.389-3.811-1.349-7.227-3.313-10.335c-1.107,1.072-2.224,2.143-3.351,3.214c-0.098-2.437,1.18-6.72,4.405-4.888
		c3.798,3.266,5.052,8.379,6.135,13.061C137.419,192.687,136.489,193.97,136.015,194.611z"/>
	<path fill="url(#colour1)" d="M139.475,184.807c3.18,4.464,4.707,11.087,0.042,15.16C140.217,194.914,139.902,189.856,139.475,184.807z"
		/>
	<path fill="url(#colour1)" d="M171.979,202.207c-1.02,8.43,2.528,16.498,2.547,24.903c-3.334-6.313-3.771-13.599-5.312-20.464
		c-0.89-3,0.251-5.89,2.521-7.908c2.328,2.204,3.74,5.121,2.603,8.344C173.545,205.464,172.752,203.834,171.979,202.207z"/>
	<path fill="url(#colour1)" d="M137.939,248.325c1.908-4.243,4.613-8.064,6.615-12.256c1.426-2.92,2.658-6.081,5.215-8.238
		C148.949,235.738,145.457,244.583,137.939,248.325z"/>
</g>
</svg>
