<?xml version="1.0" encoding="utf-8"?>
<!-- Generator: Adobe Illustrator 13.0.0, SVG Export Plug-In . SVG Version: 6.00 Build 14948)  -->
<!DOCTYPE svg PUBLIC "-//W3C//DTD SVG 1.1//EN" "http://www.w3.org/Graphics/SVG/1.1/DTD/svg11.dtd">
<svg version="1.1" id="Layer_1" xmlns="http://www.w3.org/2000/svg" xmlns:xlink="http://www.w3.org/1999/xlink" x="0px" y="0px"
	 width="303.386px" height="226.468px" viewBox="0 0 303.386 226.468" enable-background="new 0 0 303.386 226.468"
	 xml:space="preserve">
<g>
	 <defs>
   <linearGradient id="colour0"> 
     <stop offset="100%" stop-color="gray"/> 
   </linearGradient> 
   <linearGradient id="colour1"> 
     <stop offset="100%" stop-color="#00A160"/> 
   </linearGradient> 
   <linearGradient id="colour2"> 
     <stop offset="100%" stop-color="#FFD200"/> 
   </linearGradient> 
</defs>	 
	<path fill="url(#colour1)" d="M141.886,6.3c3.3-2.1,6.3-4.7,9.899-6.3c2.7,0.5,4.801,2.5,7.101,3.9c48.1,32.3,96.5,64.1,144.5,96.4
		c-0.101,27-0.101,54-0.2,81c-5-2.4-9.4-5.7-14.1-8.601c-21.4-13.899-42.801-27.8-64.2-41.699c-2.3-1.5-4.601-2.7-6.601-4.5
		c-0.6-1.4-0.5-2.9-0.5-4.301c0-9.399,0.301-18.699,0-28c-22-14.5-43.8-29.399-66-43.6c-22,14.4-43.899,29-65.8,43.7
		c0,9-0.1,17.899-0.1,26.8c-0.101,2.2,0.1,4.4-0.7,6.5c-2.3,2.1-5.1,3.6-7.7,5.3c-20.3,13.4-40.6,26.7-60.8,40.101
		c-5.6,3.399-10.6,7.5-16.5,10.3c-0.1-27.601-0.3-55.2-0.1-82.8C47.386,69.1,94.686,37.8,141.886,6.3L141.886,6.3z"/>
	<path fill="url(#colour2)" d="M176.386,91.6c3.399-0.5,6.6,0.9,9.899,1.2c-1.1,6.399,5.4,10.2,7.801,15.3c-0.101,1.7-1.301,3.1-2.601,4
		c-5.5-1.8-11.1-3.5-15.899-6.9c-1.301,5.301,0.699,10.601,0.3,15.9c-0.2,3.4,3.1,5.4,5.1,7.7c4.601,4.1,7.7,9.5,12,13.899
		c1.4,1.301,2,3.2,2.101,5c-0.801,0.101-2.4,0.2-3.2,0.2c-3.5-7.5-9.9-13.899-17.601-17.1c-0.5,5.2,0.101,10.6-1.699,15.6
		c-1.4-1.2-4.5-2.3-3.2-4.7c1.8-4.5,2.899-9.699,0.7-14.3c-3.4,0.3-6.7,2.101-10.101,1.9c-4.7-2.4-10.1-1.2-15.2-1.601
		c-3.3-0.1-6.399-1.199-9.5-2.199c-0.1,5.199-0.699,10.399,0,15.6c1.601,3.6,4.2,6.6,6.4,9.9c-1.3,0-2.5-0.101-3.7-0.101
		c-2.2-3.399-5-6.399-7.2-9.899c-1-2.9-0.699-6.101-1.199-9.2c-2.101,1.2-4.5,2.2-6.101,4.1c-1.5,3.3-1.899,6.9-3.6,10.101
		c-1-0.4-2.101-0.801-3.101-1.2c1.601-4.2,2.601-8.601,3.801-12.9c0.399-2.7,3.5-3.3,5.5-4.6c-3.601-5.7-6.7-11.9-6.601-18.7
		c-5.3,1.1-10.8,2.5-14.3,7c-0.2-0.4-0.6-1.3-0.8-1.8c-1.101,2.3-2.101,4.6-3.4,6.899c-0.899-3.699-1.1-7.399,0.601-10.899
		c-1.7-0.2-3.301-0.5-5-0.8c2-0.301,4.1-0.7,6.1-1c-1-0.601-2-1.101-3.1-1.7c6.399-0.5,12.8-1.2,19.199-1.4
		c4.301,0.3,7.601-3.3,11.9-3.399c4.9-0.5,9.1,2.8,14,3.1c5.1,0.3,10.1-1,15.1-1.9c-1.5-0.199-3-0.399-4.5-0.699
		c1.5-1.101,3.101-2,4.9-2.7c-0.6-0.3-1.1-0.7-1.6-1.101c1.899-0.5,3.8-1,5.699-1.5c-0.6-0.6-1.199-1.199-1.8-1.699
		c1.4-0.101,2.7-0.101,4.101-0.2c-0.7-0.5-1.4-1.101-2-1.7C168.586,93,172.485,92.1,176.386,91.6L176.386,91.6z"/>
	<path fill="url(#colour2)" d="M139.686,200.1c4.8-5.7,14.3-4.7,18.7,1.2c-1.2,0.899-2.4,1.8-3.5,2.7c-2.101-1.5-4.3-3.801-7.2-3.301
		c-3.5,0.301-6.1,3.2-6.7,6.5c-1.1,4.801-0.7,10.9,3.601,13.9c3.199,2,6.899,0.5,9.699-1.3c1.5-1.4,2.9,0.7,4.301,1.2
		c-4.101,6.5-14.301,7.5-19.2,1.399C134.686,216.1,134.686,206.2,139.686,200.1L139.686,200.1z"/>
	<path fill="url(#colour2)" d="M45.985,196.9c7.1-0.2,14.2-0.3,21.3,0c0.101,1.3,0.101,2.7,0.101,4c-2.8,0.101-5.7,0.2-8.5,0.4
		c0,8.2,0,16.399,0,24.7c-1.5,0-3,0-4.4,0c-0.1-8.2-0.1-16.5,0-24.7c-2.9-0.101-5.7-0.3-8.5-0.4
		C45.985,199.6,45.985,198.2,45.985,196.9L45.985,196.9z"/>
	<path fill="url(#colour2)" d="M71.985,196.8c1.4,0,2.9,0.1,4.3,0.1c0,9.7-0.1,19.3,0,29C74.886,226,73.386,226,71.985,226
		C71.985,216.3,71.985,206.5,71.985,196.8L71.985,196.8z"/>
	<path fill="url(#colour2)" d="M82.785,196.7c1.601,0.2,3.9-0.5,4.9,1.301c4.5,6.6,8.5,13.6,12.8,20.3c0.2-7.2,0-14.3,0.101-21.5
		c1.399,0,2.8,0,4.3,0c0.1,9.7,0.1,19.5-0.101,29.2c-1.3,0-2.699,0-4.1,0c-4.7-7-8.8-14.301-13.7-21.101c-0.2,7,0,14-0.1,21.101
		c-1.4,0-2.8,0-4.3,0C82.586,216.2,82.386,206.4,82.785,196.7L82.785,196.7z"/>
	<path fill="url(#colour2)" d="M163.386,196.8c1.3,0,2.7,0,4.1,0.1c0,4.8-0.1,9.601,0.101,14.4c4.3-4.601,7.899-9.8,12-14.601
		c1.5,0.101,2.899,0.101,4.399,0.2c-2.399,3.7-5.3,7.101-8,10.4c3.2,6.399,7.101,12.3,10.101,18.8c-1.7-0.1-3.301-0.1-4.9-0.5
		c-2.9-4.7-5.2-9.7-8.3-14.3c-1.8,2.2-4.2,4.2-5.2,6.899c-0.4,2.601-0.2,5.2-0.2,7.801c-1.399,0-2.8,0-4.2,0
		C163.186,216.3,163.186,206.5,163.386,196.8L163.386,196.8z"/>
	<path fill="url(#colour2)" d="M202.386,196.8c6.3-0.101,12.5-0.101,18.7,0c0.1,1.399,0,2.8,0,4.2c-4.801,0.199-9.5,0.199-14.301,0.199
		c0,2.5,0,5,0.101,7.5c2.7,0,5.399,0,8.2,0.101c0,1.399,0,2.7,0,4.1c-2.801,0.101-5.5,0.101-8.301,0.2c0,4.3,0,8.6,0,12.9
		c-1.5,0-2.899,0-4.399,0C202.285,216.3,202.285,206.5,202.386,196.8L202.386,196.8z"/>
	<path fill="url(#colour2)" d="M276.985,196.7c1.4,0.101,3,0,4.4,0.5c3.3,6.4,5.5,13.301,8.7,19.9c2.6-6.3,5-12.7,7.8-18.9
		c0.7-2.199,3.399-1.199,5.1-1.5c0.2,9.7,0.101,19.5,0,29.301c-1.399,0-2.8,0-4.2,0c0-6.4,0.2-12.801-0.399-19.2
		c-3,6.3-5.101,12.899-8.601,19c-3.199-6.5-5.699-13.2-8.699-19.8c-0.101,6.699,0,13.3-0.101,20c-1.399,0-2.7,0-4.1,0
		C276.985,216.2,276.886,206.5,276.985,196.7L276.985,196.7z"/>
	<path fill="url(#colour2)" d="M0.386,196.8c5.3,0.1,10.8-0.7,16,0.7c7,2.1,7.6,13.3,1.1,16.5c-4,1.699-8.6,1.1-12.8,1.3
		c-0.1,3.5-0.2,7.1-0.1,10.7c-1.4,0-2.8,0-4.2,0C0.286,216.3,0.286,206.5,0.386,196.8L0.386,196.8z M4.585,200.9c0,3.3,0,6.7,0.1,10
		c3.4-0.1,7,0.4,10.4-0.399c3.7-1.801,3-9-1.4-9.4C10.686,200.6,7.686,200.9,4.585,200.9L4.585,200.9z"/>
	<path fill="url(#colour2)" d="M249.386,196.8c5.6,0.1,11.399-0.8,16.899,0.7c5.101,1.6,6.4,8.199,4.301,12.6c-1.2,1.9-3.2,3.1-5,4.5
		c1.699,3.8,3.6,7.5,5.3,11.4c-1.601,0-3.3-0.101-4.9-0.101c-1.899-3.8-3.8-7.6-5.7-11.399c-2.1,0-4.3,0-6.399-0.101
		c-0.3,3.9-0.4,7.7-0.3,11.601c-1.4,0-2.801,0-4.2,0C249.285,216.3,249.285,206.5,249.386,196.8L249.386,196.8z M253.686,200.9
		c-0.1,3.2-0.1,6.3-0.1,9.4c3.399,0,6.699,0.3,10.1-0.2c4.3-0.3,4.7-7.5,0.7-8.7C260.886,200.4,257.285,200.9,253.686,200.9
		L253.686,200.9z"/>
	<path fill="url(#colour2)" d="M230.886,197c2-0.5,4.7-0.801,5.2,1.699c3.399,9,6.699,18.101,9.8,27.2c-1.4,0-2.9,0.101-4.3,0.2
		c-1-2.3-1.801-4.6-2.801-6.9c-3.899,0-7.8,0-11.699,0.101c-0.7,2.2-1.5,4.5-2.301,6.7c-1.5,0-2.899-0.101-4.3-0.101
		C223.886,216.2,227.086,206.5,230.886,197L230.886,197z M228.686,215.2c2.9,0.101,5.9,0.101,8.8,0
		c-1.399-4.399-2.899-8.699-4.3-13.1C231.586,206.4,230.086,210.8,228.686,215.2L228.686,215.2z"/>
	<path fill="url(#colour2)" d="M31.286,198.7c0.4-2.699,5.4-2.899,5.9-0.1c3.3,9.1,6.7,18.1,9.8,27.3c-1.5,0.101-2.9,0.101-4.4,0.101
		c-0.9-2.2-1.6-4.4-2.4-6.7c-4-0.101-8-0.101-12,0c-0.8,2.3-1.5,4.5-2.4,6.8c-1.4-0.1-2.8-0.1-4.2-0.2
		C24.585,216.8,27.985,207.7,31.286,198.7L31.286,198.7z M29.886,215.2c2.9,0.101,5.8,0.101,8.7,0c-1.3-4.199-2.7-8.399-4.3-12.5
		C32.485,206.8,31.085,211,29.886,215.2L29.886,215.2z"/>
	<path fill="url(#colour2)" d="M119.686,196.7c2,0.101,4.8-0.5,5.3,2.101c3.4,9,6.8,18.1,9.8,27.2c-1.5,0-3-0.101-4.6-0.2
		c-0.8-2.2-1.5-4.4-2.4-6.601c-3.899,0-7.8,0-11.699,0.101c-0.801,2.2-1.601,4.5-2.4,6.7c-1.4,0-2.8-0.101-4.3-0.101
		C112.586,216.1,116.386,206.4,119.686,196.7L119.686,196.7z M117.686,215.2c2.9,0.101,5.9,0.101,8.8,0
		c-1.399-4.199-2.8-8.399-4.399-12.5C120.186,206.7,118.886,211,117.686,215.2L117.686,215.2z"/>
</g>
</svg>