<?xml version="1.0" encoding="utf-8"?>
<!-- Generator: Adobe Illustrator 14.0.0, SVG Export Plug-In . SVG Version: 6.00 Build 43363)  -->
<!DOCTYPE svg PUBLIC "-//W3C//DTD SVG 1.0//EN" "http://www.w3.org/TR/2001/REC-SVG-20010904/DTD/svg10.dtd">
<svg version="1.0"
	 id="svg2" inkscape:output_extension="org.inkscape.output.svg.inkscape" xmlns:inkscape="http://www.inkscape.org/namespaces/inkscape" xmlns:rdf="http://www.w3.org/1999/02/22-rdf-syntax-ns#" xmlns:dc="http://purl.org/dc/elements/1.1/" xmlns:sodipodi="http://sodipodi.sourceforge.net/DTD/sodipodi-0.dtd" xmlns:svg="http://www.w3.org/2000/svg" xmlns:cc="http://web.resource.org/cc/" sodipodi:docbase="C:\Documents and Settings\Flanker\Desktop" sodipodi:docname="Mu_uc_lc.svg" sodipodi:version="0.32" inkscape:version="0.45.1"
	 xmlns="http://www.w3.org/2000/svg" xmlns:xlink="http://www.w3.org/1999/xlink" x="0px" y="0px" width="500px" height="500px"
	 viewBox="800 800 500 500" enable-background="new 0 0 3000 2000" xml:space="preserve">
<defs>
   <linearGradient id="colour1">
     <stop offset="100%" stop-color="black"/>
   </linearGradient> 
 </defs>
<path fill="url(#colour1)" d="M926.924,1129.861c1.057,12.514,8.857,18.771,23.403,18.771v4.51h-70.208v-4.51c14.545,0,22.346-6.257,23.403-18.771
	c-21.453,0-38.619-5.77-51.498-17.309c-12.88-11.539-19.319-25.556-19.319-42.052c0-17.633,6.541-31.711,19.624-42.234
	c13.083-10.522,30.147-16.231,51.193-17.125c-0.976-12.514-8.776-18.771-23.403-18.771v-4.51h70.208v4.51
	c-14.545,0-22.346,6.257-23.403,18.771c23.24,0.731,40.853,6.846,52.839,18.344c11.985,11.498,17.979,25.17,17.979,41.016
	c0,16.496-6.419,30.513-19.258,42.052C965.644,1124.092,948.458,1129.861,926.924,1129.861L926.924,1129.861z M903.521,1017.845
	c-13.896,0.813-24.784,5.141-32.666,12.981c-7.882,7.842-11.823,21.758-11.823,41.747c0,32.017,14.83,48.877,44.489,50.584V1017.845
	z M926.924,1017.845v105.313c13.408-0.569,24.195-4.713,32.361-12.433s12.25-21.777,12.25-42.174
	C971.535,1036.453,956.665,1019.552,926.924,1017.845L926.924,1017.845z"/>
</svg>
