<?xml version="1.0" encoding="UTF-8" standalone="no"?>
<!DOCTYPE svg PUBLIC "-//W3C//DTD SVG 20010904//EN" "http://www.w3.org/TR/2001/REC-SVG-20010904/DTD/svg10.dtd">
<svg xmlns="http://www.w3.org/2000/svg" xml:space="preserve" width="151.5pt" height="188pt" viewBox="0 0 8268 11692" xmlns:xlink="http://www.w3.org/1999/xlink">
<defs>
   <linearGradient id="colour1">
     <stop offset="100%" stop-color="red"/>
   </linearGradient>
 </defs>
<g transform="matrix(5.548888,0,0,5.549122,-15669.98,-24593.71)">
    <path fill="url(#colour1)" d="M3362 5518c0,165 -39,340 -115,524 -77,184 -179,350 -308,497l-219 0c295,-311 442,-651 442,-1021l-427 0 0 -150 427 0c-18,-322 -165,-634 -442,-936l207 0c254,271 399,583 435,936l414 0c37,-353 182,-665 435,-936l207 0c-277,302 -424,614 -442,936l427 0 0 150 -427 0c0,370 147,710 442,1021l-218 0c-130,-147 -232,-313 -309,-497 -76,-184 -115,-359 -115,-524l-414 0z" id="path678"/>
</g>
</svg>