<?xml version="1.0" encoding="utf-8"?>
<!-- Generator: Adobe Illustrator 14.0.0, SVG Export Plug-In . SVG Version: 6.00 Build 43363)  -->
<!DOCTYPE svg PUBLIC "-//W3C//DTD SVG 1.0//EN" "http://www.w3.org/TR/2001/REC-SVG-20010904/DTD/svg10.dtd">
<svg version="1.0" id="Layer_1" xmlns="http://www.w3.org/2000/svg" xmlns:xlink="http://www.w3.org/1999/xlink" x="0px" y="0px"
	 width="800px" height="600px" viewBox="0 0 800 600" enable-background="new 0 0 800 600" xml:space="preserve">
<path id="path8512" fill="#D40000" d="M387.95,171.254c7.144-0.475,10.869,5.627,11.595,10.436c0.434,0.764,0.671,0.549,0.837-0.043
	c0.35-6.174,5.875-11.219,10.993-10.529c8.328,0.107,13.389,9.375,11.966,17.219c-1.738,9.582-6.899,15.352-10.808,21.293
	c-4.422,6.152-10.373,15.039-12.29,19.316c0,0-6.049-9.203-13.917-20.029c-5.262-7.238-9.474-15.082-9.865-21.836
	C376.013,179.365,379.181,172.449,387.95,171.254L387.95,171.254z"/>
<path id="path3235" d="M392.649,328.57c2.879-5.775,4.976-11.701,5.348-18.037c0.341-2.332-1.075-2.371-1.288-0.729
	c-4.077,15.592-25.763,11.371-25.017-3.297c0.605-11.895,12.419-14.453,18.582-10.564c2.434,1.433,2.296,0.574,0.968-0.912
	c-9.155-10.211-3.61-23.361,8.761-23.602c13.38,0.793,16.852,14.869,8.645,23.148c-1.021,0.994-3.284,4.19,0.123,1.955
	c8.286-5.888,19.787,0.443,19.553,9.521c-0.433,16.738-20.839,17.986-25.203,4.006c-0.42-1.551-1.63-2.328-1.296,0.305
	c0.605,4.766,1.857,11.953,5.438,18.205H392.649z"/>
<path id="path7940" d="M297.871,211.451c0.015-2.025-1.587-2.064-1.569-0.586c-0.134,7.428-6.417,11.086-10.98,10.219
	c-7.036-1.338-9.282-8.322-9.215-12.436c0.207-12.697,12.988-22.059,24.521-38.334c8.45,14.689,22.397,26.229,23.223,37.584
	c1.098,15.1-18.009,20.73-20.737,3.133c-0.176-1.242-1.639-1.801-1.525-0.064c0.414,4.822-0.176,6.832,5.266,18.719h-14.222
	C295.78,224.131,297.656,217.313,297.871,211.451L297.871,211.451z"/>
<path id="path3692" fill="#D40000" d="M277.773,300.236c9.92-9.682,16.436-20.238,22.667-30.391
	c5.464,11.172,13.306,20.943,21.786,30.391c-9.073,9.367-16.105,19.385-21.759,29.918
	C294.2,319.357,287.602,309.582,277.773,300.236z"/>
</svg>
