<?xml version="1.0" encoding="utf-8"?>
<!-- Generator: Adobe Illustrator 14.0.0, SVG Export Plug-In . SVG Version: 6.00 Build 43363)  -->
<!DOCTYPE svg PUBLIC "-//W3C//DTD SVG 1.0//EN" "http://www.w3.org/TR/2001/REC-SVG-20010904/DTD/svg10.dtd">
<svg version="1.0" id="Layer_1" xmlns="http://www.w3.org/2000/svg" xmlns:xlink="http://www.w3.org/1999/xlink" x="0px" y="0px"
	 width="800px" height="600px" viewBox="0 0 800 600" enable-background="new 0 0 800 600" xml:space="preserve">
<defs>
   <linearGradient id="colour1">
     <stop offset="100%" stop-color="white"/>
   </linearGradient> 
   <linearGradient id="colour2">
     <stop offset="100%" stop-color="#FF0000"/>
   </linearGradient> 
 </defs>
<ellipse fill="url(#colour2)" cx="292.02" cy="165.184" rx="83.163" ry="102.551"/>
<g>
	<path fill="url(#colour1)" d="M244.456,88.415c9.525-2.053,23.156-3.196,36.145-3.196c20.125,0,33.113,3.884,42.197,12.553
		c7.367,6.848,11.473,17.348,11.473,29.213c0,20.312-12.116,33.775-27.483,39.257v0.678c11.252,4.116,17.958,15.071,21.421,31.043
		c4.767,21.454,8.229,36.283,11.261,42.221h-19.482c-2.379-4.562-5.63-17.57-9.737-36.748
		c-4.335-21.222-12.125-29.213-29.218-29.891h-17.746v66.639h-18.83V88.415z M263.286,158.483h19.262
		c20.125,0,32.893-11.643,32.893-29.213c0-19.856-13.631-28.534-33.545-28.757c-9.093,0-15.579,0.911-18.609,1.821V158.483z"/>
</g>
</svg>
