<?xml version="1.0" encoding="utf-8"?>
<!-- Generator: Adobe Illustrator 14.0.0, SVG Export Plug-In . SVG Version: 6.00 Build 43363)  -->
<!DOCTYPE svg PUBLIC "-//W3C//DTD SVG 1.0//EN" "http://www.w3.org/TR/2001/REC-SVG-20010904/DTD/svg10.dtd">
<svg version="1.0" id="Layer_1" xmlns="http://www.w3.org/2000/svg" xmlns:xlink="http://www.w3.org/1999/xlink" x="0px" y="0px"
	 width="800px" height="600px" viewBox="0 0 800 600" enable-background="new 0 0 800 600" xml:space="preserve">
<defs>
   <linearGradient id="colour1">
     <stop offset="100%" stop-color="red"/>
   </linearGradient>
 </defs>
   <linearGradient id="colour2">
     <stop offset="100%" stop-color="orange"/>
   </linearGradient>
<g>
	<g>
		<path fill="url(#colour2)" d="M309.614,239.164h7.884c0.888,0,1.722,0.114,2.502,0.342c0.779,0.229,1.476,0.601,2.088,1.116
			c0.612,0.517,1.098,1.2,1.458,2.052c0.36,0.853,0.54,1.879,0.54,3.078c0,1.2-0.336,2.311-1.008,3.33
			c-0.672,1.021-1.584,1.698-2.736,2.034v0.072c1.536,0.359,2.682,1.098,3.438,2.214s1.134,2.49,1.134,4.122
			c0,2.544-0.697,4.404-2.088,5.58c-1.392,1.176-3.468,1.764-6.228,1.764h-6.984V239.164z M312.782,250.251h3.636
			c0.432,0,0.882-0.041,1.35-0.126c0.468-0.084,0.936-0.27,1.404-0.558s0.852-0.726,1.152-1.314c0.3-0.588,0.45-1.35,0.45-2.286
			c0-1.367-0.36-2.411-1.08-3.132c-0.72-0.72-1.836-1.08-3.348-1.08h-3.564V250.251z M312.782,262.276h4.32
			c1.56,0,2.7-0.45,3.42-1.351c0.72-0.899,1.08-2.033,1.08-3.401c0-1.68-0.462-2.916-1.386-3.708
			c-0.924-0.792-2.142-1.188-3.654-1.188h-3.78V262.276z"/>
		<path fill="url(#colour2)" d="M331.898,239.164h3.168v22.896h10.44v2.808h-13.608V239.164z"/>
		<path fill="url(#colour2)" d="M363.596,239.776c1.116,0.744,1.967,1.74,2.556,2.988c0.588,1.248,0.99,2.64,1.206,4.176
			c0.216,1.536,0.324,3.228,0.324,5.076c0,1.848-0.108,3.534-0.324,5.058c-0.216,1.524-0.618,2.916-1.206,4.176
			c-0.588,1.26-1.44,2.263-2.556,3.006c-1.116,0.744-2.515,1.116-4.194,1.116c-1.68,0-3.078-0.372-4.194-1.116
			c-1.116-0.743-1.968-1.739-2.556-2.987c-0.588-1.248-0.99-2.641-1.206-4.177c-0.216-1.535-0.324-3.228-0.324-5.075
			c0-1.849,0.108-3.534,0.324-5.059c0.216-1.523,0.618-2.916,1.206-4.176c0.588-1.26,1.44-2.262,2.556-3.006
			c1.116-0.744,2.514-1.116,4.194-1.116C361.081,238.66,362.479,239.032,363.596,239.776z M356.81,242.062
			c-0.672,0.54-1.176,1.29-1.512,2.25c-0.336,0.96-0.564,2.064-0.684,3.312c-0.121,1.248-0.18,2.713-0.18,4.393
			s0.06,3.144,0.18,4.392c0.12,1.248,0.347,2.353,0.684,3.312c0.336,0.961,0.84,1.71,1.512,2.25c0.671,0.54,1.536,0.811,2.592,0.811
			s1.92-0.271,2.592-0.811c0.671-0.54,1.175-1.289,1.512-2.25c0.336-0.959,0.564-2.063,0.684-3.312s0.18-2.712,0.18-4.392
			s-0.06-3.145-0.18-4.393c-0.12-1.247-0.348-2.352-0.684-3.312c-0.336-0.96-0.84-1.71-1.512-2.25
			c-0.672-0.54-1.536-0.811-2.592-0.811S357.481,241.522,356.81,242.062z"/>
		<path fill="url(#colour2)" d="M387.211,239.776c1.116,0.744,1.967,1.74,2.556,2.988c0.588,1.248,0.99,2.64,1.206,4.176
			c0.216,1.536,0.324,3.228,0.324,5.076c0,1.848-0.108,3.534-0.324,5.058c-0.216,1.524-0.618,2.916-1.206,4.176
			c-0.588,1.26-1.44,2.263-2.556,3.006c-1.116,0.744-2.515,1.116-4.194,1.116c-1.68,0-3.078-0.372-4.194-1.116
			c-1.116-0.743-1.968-1.739-2.556-2.987c-0.588-1.248-0.99-2.641-1.206-4.177c-0.216-1.535-0.324-3.228-0.324-5.075
			c0-1.849,0.108-3.534,0.324-5.059c0.216-1.523,0.618-2.916,1.206-4.176c0.588-1.26,1.44-2.262,2.556-3.006
			c1.116-0.744,2.514-1.116,4.194-1.116C384.697,238.66,386.095,239.032,387.211,239.776z M380.425,242.062
			c-0.672,0.54-1.176,1.29-1.512,2.25c-0.336,0.96-0.564,2.064-0.684,3.312c-0.121,1.248-0.18,2.713-0.18,4.393
			s0.06,3.144,0.18,4.392c0.12,1.248,0.347,2.353,0.684,3.312c0.336,0.961,0.84,1.71,1.512,2.25c0.671,0.54,1.536,0.811,2.592,0.811
			s1.92-0.271,2.592-0.811c0.671-0.54,1.175-1.289,1.512-2.25c0.336-0.959,0.564-2.063,0.684-3.312s0.18-2.712,0.18-4.392
			s-0.06-3.145-0.18-4.393c-0.12-1.247-0.348-2.352-0.684-3.312c-0.336-0.96-0.84-1.71-1.512-2.25
			c-0.672-0.54-1.536-0.811-2.592-0.811S381.097,241.522,380.425,242.062z"/>
		<path fill="url(#colour2)" d="M399.038,239.164h6.876c1.92,0,3.485,0.324,4.697,0.972c1.212,0.648,2.124,1.543,2.736,2.683
			c0.611,1.14,1.025,2.454,1.242,3.941c0.216,1.489,0.324,3.24,0.324,5.257c0,1.776-0.133,3.414-0.396,4.913
			c-0.265,1.501-0.715,2.851-1.35,4.051c-0.637,1.2-1.525,2.147-2.664,2.844c-1.141,0.696-2.563,1.044-4.267,1.044h-7.2V239.164z
			 M402.205,262.276h3.313c1.296,0,2.357-0.3,3.186-0.9c0.828-0.6,1.445-1.386,1.854-2.357c0.407-0.973,0.685-2.028,0.827-3.168
			c0.145-1.14,0.217-2.406,0.217-3.799c0-1.535-0.055-2.867-0.162-3.995s-0.359-2.172-0.756-3.133
			c-0.396-0.959-1.014-1.728-1.854-2.304c-0.841-0.576-1.945-0.864-3.313-0.864h-3.313V262.276z"/>
		<path fill="url(#colour2)" d="M433.237,245.824c0-1.44-0.306-2.562-0.918-3.366c-0.611-0.804-1.638-1.206-3.078-1.206
			c-1.344,0-2.388,0.36-3.131,1.08c-0.744,0.72-1.117,1.752-1.117,3.096c0,0.816,0.145,1.507,0.433,2.07
			c0.288,0.564,0.678,1.026,1.17,1.386c0.491,0.36,1.032,0.661,1.62,0.9c0.588,0.24,1.338,0.504,2.25,0.792
			c1.08,0.36,1.967,0.684,2.664,0.972c0.695,0.288,1.35,0.685,1.962,1.188s1.104,1.164,1.476,1.979
			c0.372,0.816,0.559,1.824,0.559,3.024c0,1.416-0.234,2.622-0.702,3.618s-1.087,1.788-1.854,2.376s-1.619,1.008-2.556,1.26
			s-1.896,0.378-2.88,0.378c-2.88,0-4.896-0.708-6.048-2.124c-1.152-1.416-1.728-3.563-1.728-6.444h3.168
			c0,0.913,0.041,1.692,0.125,2.341c0.084,0.647,0.282,1.248,0.594,1.8c0.313,0.552,0.799,0.996,1.459,1.332
			c0.659,0.336,1.541,0.504,2.646,0.504c1.272,0,2.334-0.42,3.187-1.26c0.852-0.84,1.277-1.932,1.277-3.276
			c0-0.815-0.144-1.506-0.432-2.07c-0.288-0.563-0.679-1.037-1.17-1.422c-0.492-0.384-1.032-0.695-1.62-0.936
			c-0.589-0.24-1.339-0.516-2.25-0.828c-1.08-0.36-1.968-0.689-2.664-0.99c-0.696-0.3-1.351-0.707-1.962-1.224
			c-0.612-0.516-1.104-1.182-1.477-1.998c-0.372-0.815-0.558-1.824-0.558-3.024c0-0.72,0.096-1.47,0.288-2.25
			c0.191-0.779,0.559-1.542,1.098-2.286c0.541-0.743,1.314-1.355,2.322-1.836c1.008-0.479,2.279-0.72,3.816-0.72
			c2.424,0,4.224,0.601,5.399,1.8c1.176,1.2,1.776,2.988,1.8,5.364H433.237z"/>
		<path fill="url(#colour2)" d="M451.741,264.868h-3.168v-22.896h-6.443v-2.808h16.092v2.808h-6.48V264.868z"/>
		<path fill="url(#colour2)" d="M476.312,239.776c1.116,0.744,1.968,1.74,2.557,2.988c0.588,1.248,0.99,2.64,1.205,4.176
			c0.217,1.536,0.324,3.228,0.324,5.076c0,1.848-0.107,3.534-0.324,5.058c-0.215,1.524-0.617,2.916-1.205,4.176
			c-0.589,1.26-1.44,2.263-2.557,3.006c-1.115,0.744-2.514,1.116-4.193,1.116c-1.681,0-3.078-0.372-4.194-1.116
			c-1.116-0.743-1.968-1.739-2.556-2.987c-0.589-1.248-0.99-2.641-1.207-4.177c-0.215-1.535-0.323-3.228-0.323-5.075
			c0-1.849,0.108-3.534,0.323-5.059c0.217-1.523,0.618-2.916,1.207-4.176c0.588-1.26,1.439-2.262,2.556-3.006
			s2.514-1.116,4.194-1.116C473.798,238.66,475.196,239.032,476.312,239.776z M469.526,242.062c-0.673,0.54-1.177,1.29-1.513,2.25
			c-0.337,0.96-0.563,2.064-0.684,3.312c-0.12,1.248-0.181,2.713-0.181,4.393s0.061,3.144,0.181,4.392s0.347,2.353,0.684,3.312
			c0.336,0.961,0.84,1.71,1.513,2.25c0.671,0.54,1.535,0.811,2.592,0.811c1.056,0,1.92-0.271,2.592-0.811s1.176-1.289,1.512-2.25
			c0.336-0.959,0.564-2.063,0.684-3.312c0.121-1.248,0.181-2.712,0.181-4.392s-0.06-3.145-0.181-4.393
			c-0.119-1.247-0.348-2.352-0.684-3.312s-0.84-1.71-1.512-2.25s-1.536-0.811-2.592-0.811
			C471.062,241.251,470.197,241.522,469.526,242.062z"/>
		<path fill="url(#colour2)" d="M503.546,256.047c-0.072,1.296-0.265,2.497-0.576,3.601c-0.313,1.104-0.769,2.088-1.368,2.952
			c-0.601,0.863-1.392,1.542-2.376,2.033c-0.984,0.492-2.148,0.738-3.492,0.738c-1.729,0-3.156-0.372-4.283-1.116
			c-1.129-0.743-1.975-1.739-2.539-2.987s-0.947-2.634-1.151-4.158s-0.306-3.223-0.306-5.094c0-1.849,0.107-3.534,0.323-5.059
			c0.216-1.523,0.618-2.916,1.206-4.176s1.44-2.262,2.557-3.006c1.115-0.744,2.514-1.116,4.193-1.116
			c2.568,0,4.458,0.679,5.67,2.034c1.212,1.356,1.854,3.342,1.926,5.958h-3.312c-0.048-1.632-0.396-2.939-1.044-3.924
			s-1.729-1.477-3.24-1.477c-1.057,0-1.92,0.271-2.592,0.811s-1.176,1.29-1.512,2.25c-0.337,0.96-0.564,2.064-0.684,3.312
			c-0.121,1.248-0.181,2.713-0.181,4.393s0.06,3.144,0.181,4.392c0.119,1.248,0.347,2.353,0.684,3.312
			c0.336,0.961,0.84,1.71,1.512,2.25s1.535,0.811,2.592,0.811c0.912,0,1.668-0.192,2.268-0.576s1.051-0.894,1.351-1.53
			c0.3-0.636,0.516-1.337,0.647-2.105c0.133-0.768,0.211-1.607,0.234-2.521H503.546z"/>
		<path fill="url(#colour2)" d="M510.098,239.164h3.168v12.456h0.072l8.892-12.456h3.528l-7.776,10.729l8.425,14.976h-3.528l-6.948-12.384
			l-2.664,3.636v8.748h-3.168V239.164z"/>
	</g>
	<g>
		<path fill="url(#colour1)" d="M131.726,243.661h7.26v4.004h0.088c0.557-1.437,1.437-2.537,2.64-3.3c1.203-0.763,2.611-1.145,4.224-1.145
			c0.674,0,1.261,0.06,1.76,0.177v6.819c-1.086-0.293-2.039-0.439-2.86-0.439c-1.76,0-3.139,0.521-4.136,1.562
			c-0.998,1.042-1.496,2.325-1.496,3.851v11.308h-7.48V243.661z"/>
		<path fill="url(#colour1)" d="M149.898,250.701c0.058-1.437,0.403-2.662,1.034-3.674c0.63-1.013,1.474-1.826,2.53-2.442
			c0.968-0.557,2.068-0.96,3.3-1.21c1.232-0.249,2.552-0.374,3.96-0.374c1.496,0,2.86,0.104,4.092,0.308
			c1.232,0.206,2.346,0.588,3.344,1.145c0.997,0.558,1.782,1.342,2.354,2.354c0.572,1.013,0.858,2.296,0.858,3.851v9.988
			c0,1.319,0.051,2.427,0.154,3.321c0.102,0.896,0.344,1.738,0.726,2.53h-7.524c-0.176-0.498-0.323-1.217-0.44-2.156
			c-0.91,0.968-2.031,1.68-3.366,2.134c-1.335,0.455-2.721,0.683-4.158,0.683c-2.288,0-4.158-0.587-5.61-1.76
			c-1.452-1.173-2.178-2.89-2.178-5.148c0-1.437,0.293-2.618,0.88-3.542s1.356-1.635,2.31-2.134
			c0.953-0.499,1.965-0.865,3.036-1.101c1.07-0.234,2.413-0.454,4.026-0.659c1.408-0.205,2.42-0.367,3.036-0.484
			c0.704-0.146,1.21-0.366,1.518-0.66c0.308-0.293,0.462-0.776,0.462-1.452c0-0.792-0.374-1.386-1.122-1.781
			c-0.748-0.396-1.577-0.595-2.486-0.595c-2.142,0-3.388,0.954-3.74,2.86H149.898z M157.334,261.899
			c0.586,0.425,1.334,0.638,2.244,0.638c1.672,0,2.853-0.506,3.542-1.518c0.689-1.013,1.034-2.75,1.034-5.215
			c-0.323,0.206-0.711,0.367-1.166,0.484c-0.455,0.117-1.02,0.235-1.694,0.352c-0.822,0.177-1.408,0.309-1.76,0.396
			c-0.939,0.235-1.687,0.572-2.244,1.012c-0.557,0.44-0.836,1.071-0.836,1.893C156.454,260.821,156.747,261.475,157.334,261.899z"/>
		<path fill="url(#colour1)" d="M191.169,252.021c-0.029-0.938-0.403-1.724-1.122-2.354c-0.719-0.63-1.562-0.946-2.53-0.946
			c-0.998,0-1.819,0.191-2.464,0.572c-0.646,0.382-1.137,0.896-1.474,1.54c-0.337,0.646-0.572,1.35-0.704,2.112
			s-0.198,1.599-0.198,2.508c0,1.644,0.374,3.051,1.122,4.224c0.748,1.174,1.855,1.761,3.322,1.761c1.261,0,2.244-0.337,2.948-1.013
			c0.704-0.674,1.144-1.643,1.32-2.903h7.26c-0.323,2.991-1.54,5.346-3.652,7.062s-4.723,2.574-7.832,2.574
			c-1.702,0-3.286-0.279-4.752-0.836c-1.467-0.557-2.735-1.356-3.806-2.398c-1.071-1.041-1.907-2.288-2.508-3.74
			c-0.602-1.451-0.902-3.028-0.902-4.729c0-1.818,0.278-3.49,0.836-5.016c0.557-1.525,1.364-2.846,2.42-3.96
			c1.056-1.115,2.317-1.973,3.784-2.574c1.466-0.602,3.108-0.902,4.928-0.902c2.992,0,5.551,0.785,7.678,2.354
			c2.126,1.569,3.322,3.791,3.586,6.666H191.169z"/>
		<path fill="url(#colour1)" d="M208.769,256.905c0.058,1.584,0.535,2.846,1.43,3.784c0.895,0.938,2.119,1.407,3.674,1.407
			c0.938,0,1.796-0.22,2.574-0.659c0.777-0.44,1.342-1.057,1.694-1.849h6.996c-0.646,2.494-2.017,4.378-4.114,5.654
			c-2.098,1.276-4.51,1.914-7.238,1.914c-3.755,0-6.776-1.078-9.064-3.234s-3.432-5.126-3.432-8.91c0-1.73,0.322-3.328,0.968-4.796
			c0.645-1.466,1.532-2.742,2.662-3.828c1.129-1.085,2.442-1.921,3.938-2.508c1.496-0.586,3.08-0.88,4.752-0.88
			c1.906,0,3.615,0.323,5.126,0.968c1.51,0.646,2.772,1.563,3.784,2.75c1.012,1.188,1.774,2.567,2.288,4.137s0.77,3.277,0.77,5.126
			c0,0.117-0.015,0.264-0.044,0.439v0.484H208.769z M218.052,252.725c-0.059-1.319-0.506-2.427-1.342-3.321s-1.87-1.342-3.102-1.342
			c-1.291,0-2.362,0.425-3.212,1.275c-0.851,0.852-1.394,1.98-1.628,3.388H218.052z"/>
		<path fill="url(#colour1)" d="M229.272,243.661h7.26v3.124h0.088c0.674-1.145,1.687-2.061,3.036-2.75
			c1.349-0.688,2.728-1.034,4.136-1.034c1.789,0,3.249,0.286,4.378,0.858c1.129,0.571,1.965,1.306,2.508,2.199
			c0.542,0.896,0.902,1.819,1.078,2.772c0.176,0.953,0.264,1.958,0.264,3.014v14.652h-7.48v-11.044c0-2.288-0.22-3.908-0.66-4.862
			c-0.44-0.952-1.467-1.43-3.08-1.43c-1.32,0-2.325,0.47-3.014,1.408c-0.689,0.938-1.034,2.098-1.034,3.476v12.452h-7.48V243.661z"
			/>
		<path fill="url(#colour1)" d="M263.372,256.905c0.058,1.584,0.535,2.846,1.43,3.784c0.895,0.938,2.119,1.407,3.674,1.407
			c0.938,0,1.796-0.22,2.574-0.659c0.777-0.44,1.342-1.057,1.694-1.849h6.996c-0.646,2.494-2.017,4.378-4.114,5.654
			c-2.098,1.276-4.51,1.914-7.238,1.914c-3.755,0-6.776-1.078-9.064-3.234s-3.432-5.126-3.432-8.91c0-1.73,0.322-3.328,0.968-4.796
			c0.645-1.466,1.532-2.742,2.662-3.828c1.129-1.085,2.442-1.921,3.938-2.508c1.496-0.586,3.08-0.88,4.752-0.88
			c1.906,0,3.615,0.323,5.126,0.968c1.51,0.646,2.772,1.563,3.784,2.75c1.012,1.188,1.774,2.567,2.288,4.137s0.77,3.277,0.77,5.126
			c0,0.117-0.015,0.264-0.044,0.439v0.484H263.372z M272.656,252.725c-0.059-1.319-0.506-2.427-1.342-3.321s-1.87-1.342-3.102-1.342
			c-1.291,0-2.362,0.425-3.212,1.275c-0.851,0.852-1.394,1.98-1.628,3.388H272.656z"/>
		<path fill="url(#colour1)" d="M297.647,248.501h-4.62v10.384c0,0.852,0.22,1.431,0.66,1.738s1.115,0.462,2.024,0.462
			c0.205,0,0.513-0.015,0.924-0.044c0.44-0.029,0.777-0.044,1.012-0.044v5.5c-0.381,0-0.968,0.029-1.76,0.088
			c-1.027,0.088-1.804,0.132-2.332,0.132c-1.614,0-2.934-0.132-3.96-0.396c-1.027-0.265-1.833-0.696-2.42-1.298
			c-0.587-0.602-1.005-1.408-1.254-2.42c-0.25-1.013-0.374-2.325-0.374-3.938v-10.164h-3.784v-4.84h3.784v-6.908h7.48v6.908h4.62
			V248.501z"/>
	</g>
</g>
</svg>
