<?xml version="1.0" encoding="utf-8"?>
<!-- Generator: Adobe Illustrator 14.0.0, SVG Export Plug-In . SVG Version: 6.00 Build 43363)  -->
<!DOCTYPE svg PUBLIC "-//W3C//DTD SVG 1.0//EN" "http://www.w3.org/TR/2001/REC-SVG-20010904/DTD/svg10.dtd">
<svg version="1.0" id="Layer_1" xmlns="http://www.w3.org/2000/svg" xmlns:xlink="http://www.w3.org/1999/xlink" x="0px" y="0px"
	 width="800px" height="600px" viewBox="0 0 800 600" enable-background="new 0 0 800 600" xml:space="preserve">
<g>
	<path fill="#FF0000" d="M400.694,271.014c-160.921,0-291.375,132.216-291.375,295.313c0,2.902,0.053,5.792,0.135,8.674h13.884
		c-0.086-2.882-0.144-5.771-0.144-8.674c0-155.33,124.242-281.25,277.5-281.25c153.257,0,277.5,125.92,277.5,281.25
		c0,2.903-0.058,5.792-0.144,8.674h13.884c0.082-2.882,0.135-5.771,0.135-8.674C692.068,403.229,561.614,271.014,400.694,271.014z"
		/>
	<path fill="#F7931E" d="M400.694,285.076c-153.258,0-277.5,125.92-277.5,281.25c0,2.903,0.058,5.792,0.144,8.674h13.223
		c-0.091-2.882-0.152-5.771-0.152-8.674c0-147.934,118.326-267.857,264.287-267.857c145.959,0,264.285,119.924,264.285,267.857
		c0,2.903-0.062,5.792-0.152,8.674h13.224c0.086-2.882,0.144-5.771,0.144-8.674C678.193,410.996,553.951,285.076,400.694,285.076z"
		/>
	<path fill="#FFFF00" d="M400.694,298.469c-145.96,0-264.287,119.924-264.287,267.857c0,2.903,0.062,5.792,0.152,8.674h15.868
		c-0.097-2.881-0.163-5.77-0.163-8.674c0-139.058,111.227-251.786,248.429-251.786c137.202,0,248.428,112.729,248.428,251.786
		c0,2.904-0.066,5.793-0.163,8.674h15.867c0.091-2.882,0.152-5.771,0.152-8.674C664.979,418.393,546.653,298.469,400.694,298.469z"
		/>
	<path fill="#009245" d="M400.694,314.54c-137.203,0-248.429,112.729-248.429,251.786c0,2.904,0.066,5.793,0.163,8.674h14.915
		c-0.103-2.88-0.173-5.769-0.173-8.674c0-130.714,104.554-236.679,233.524-236.679c128.969,0,233.522,105.965,233.522,236.679
		c0,2.905-0.069,5.794-0.172,8.674h14.915c0.097-2.881,0.163-5.77,0.163-8.674C649.122,427.269,537.896,314.54,400.694,314.54z"/>
	<path fill="#29ABE2" d="M400.694,329.647c-128.97,0-233.524,105.965-233.524,236.679c0,2.905,0.07,5.794,0.173,8.674h14.021
		c-0.109-2.879-0.182-5.768-0.182-8.674c0-122.871,98.28-222.478,219.512-222.478c121.231,0,219.511,99.606,219.511,222.478
		c0,2.906-0.073,5.795-0.182,8.674h14.021c0.103-2.88,0.172-5.769,0.172-8.674C634.216,435.612,529.663,329.647,400.694,329.647z"/>
	<path fill="#0000FF" d="M400.694,343.849c-121.232,0-219.512,99.606-219.512,222.478c0,2.906,0.072,5.795,0.182,8.674h13.18
		c-0.116-2.878-0.19-5.767-0.19-8.674c0-115.499,92.383-209.129,206.341-209.129c113.958,0,206.34,93.63,206.34,209.129
		c0,2.907-0.074,5.796-0.19,8.674h13.18c0.108-2.879,0.182-5.768,0.182-8.674C620.205,443.455,521.925,343.849,400.694,343.849z"/>
	<path fill="#662D91" d="M400.694,357.197c-113.958,0-206.341,93.63-206.341,209.129c0,2.907,0.074,5.796,0.19,8.674h12.389
		c-0.123-2.877-0.198-5.767-0.198-8.674c0-108.569,86.84-196.581,193.96-196.581c107.12,0,193.959,88.012,193.959,196.581
		c0,2.907-0.075,5.797-0.198,8.674h12.389c0.116-2.878,0.19-5.767,0.19-8.674C607.034,450.827,514.651,357.197,400.694,357.197z"/>
</g>
</svg>
