<?xml version="1.0" encoding="utf-8"?>
<!-- Generator: Adobe Illustrator 14.0.0, SVG Export Plug-In . SVG Version: 6.00 Build 43363)  -->
<!DOCTYPE svg PUBLIC "-//W3C//DTD SVG 1.1//EN" "http://www.w3.org/Graphics/SVG/1.1/DTD/svg11.dtd">
<svg version="1.1" id="Layer_1" xmlns="http://www.w3.org/2000/svg" xmlns:xlink="http://www.w3.org/1999/xlink" x="0px" y="0px"
	 width="643.46px" height="850.39px" viewBox="0 0 643.46 850.39" enable-background="new 0 0 643.46 850.39" xml:space="preserve">
<defs>
   <linearGradient id="colour1">
     <stop offset="100%" stop-color="red"/>
   </linearGradient>
</defs>
<g>
	<path fill="url(#colour1)" d="M338.652,234.251c12.35-2.268,30.494-3.78,51.16-3.78c25.202,0,42.844,3.78,54.939,13.609
		c10.335,8.065,15.879,19.91,15.879,35.535c0,21.422-15.374,36.292-29.99,41.583v0.757c11.844,4.789,18.396,15.876,22.682,31.501
		c5.292,19.407,10.332,41.585,13.609,48.137h-39.316c-2.52-5.04-6.804-18.65-11.592-39.568
		c-4.789-21.421-12.098-26.966-27.975-27.218h-11.342v66.786h-38.055V234.251z M376.707,307.085h15.121
		c19.153,0,30.496-9.577,30.496-24.445c0-15.374-10.586-23.439-28.228-23.439c-9.324,0-14.616,0.504-17.39,1.261V307.085z"/>
</g>
<g>
	<path fill="url(#colour1)" d="M334.932,401.593h-38.055v-66.786h-11.342c-15.877,0.251-23.186,5.797-27.975,27.218
		c-4.788,20.918-9.072,34.528-11.592,39.568h-39.316c3.277-6.552,8.317-28.73,13.609-48.137
		c4.285-15.625,10.838-26.713,22.682-31.501v-0.757c-14.616-5.291-29.99-20.161-29.99-41.583c0-15.625,5.544-27.47,15.879-35.535
		c12.096-9.829,29.737-13.609,54.939-13.609c20.666,0,38.811,1.513,51.16,3.78V401.593z M296.877,260.462
		c-2.773-0.757-8.065-1.261-17.39-1.261c-17.642,0-28.228,8.065-28.228,23.439c0,14.868,11.343,24.445,30.496,24.445h15.121V260.462
		z"/>
</g>
</svg>
