<?xml version="1.0" encoding="utf-8"?>
<!-- Generator: Adobe Illustrator 14.0.0, SVG Export Plug-In . SVG Version: 6.00 Build 43363)  -->
<!DOCTYPE svg PUBLIC "-//W3C//DTD SVG 1.0//EN" "http://www.w3.org/TR/2001/REC-SVG-20010904/DTD/svg10.dtd">
<svg version="1.0" id="Layer_1" xmlns="http://www.w3.org/2000/svg" xmlns:xlink="http://www.w3.org/1999/xlink" x="0px" y="0px"
	 width="800px" height="600px" viewBox="0 0 800 600" enable-background="new 0 0 800 600" xml:space="preserve">
<defs>
   <linearGradient id="colour1">
     <stop offset="100%" stop-color="black"/>
   </linearGradient> 
 </defs>
<path fill="url(#colour1)" d="M220.795,129.059h-6.264v-21.962h-18.362v-5.185h18.362V85.783h-19.874v-5.256h26.138V129.059z"/>
<path fill="url(#colour1)" d="M215.72,81.174c2.736-0.576,7.057-1.008,11.449-1.008c6.265,0,10.297,1.08,13.321,3.528c2.52,1.872,4.032,4.752,4.032,8.568
	c0,4.681-3.096,8.785-8.208,10.657v0.144c4.608,1.152,10.009,4.968,10.009,12.169c0,4.176-1.656,7.345-4.104,9.721
	c-3.384,3.096-8.857,4.537-16.777,4.537c-4.32,0-7.633-0.288-9.721-0.576V81.174z M221.984,101.048h5.688
	c6.625,0,10.513-3.457,10.513-8.137c0-5.688-4.32-7.921-10.657-7.921c-2.88,0-4.537,0.216-5.545,0.432V101.048z M221.984,124.306
	c1.224,0.216,3.024,0.288,5.257,0.288c6.48,0,12.457-2.376,12.457-9.433c0-6.625-5.688-9.361-12.529-9.361h-5.185V124.306z"/>
</svg>
