<!-- Created with Inkscape (http://www.inkscape.org/) -->
<svg xmlns:rdf="http://www.w3.org/1999/02/22-rdf-syntax-ns#" xmlns="http://www.w3.org/2000/svg" version="1.1" xmlns:cc="http://creativecommons.org/ns#" xmlns:dc="http://purl.org/dc/elements/1.1/" viewBox="0 0 282 265">
	<defs>
   <linearGradient id="colour1">
     <stop stop-color="red" offset="0"/>
   </linearGradient>
	</defs>
	<g transform="translate(-21.248083,-773.7672)">
		<path fill-rule="nonzero" fill="url(#colour1)" d="m166,900c-2.7,6.97-19.9,6.4-18.9,7.41,4.14,0.919,8.22,5.25,12.4,3.38,12.7-5.22,27.3,1.75,32.1,14.3,1.75,7.13,12.8,19-1.24,16.5-14.1,3.25-31.6-2.52-34.3-18.5,0.58-5.73-1.94-8.37-7.24-9.61-5.88-3-9.55-4.26-3.39,2.78,7.18,9.86,7.25,26.2-5.42,31.6-5.95,1.59-15.4,9.77-17.5,9.43-1.88-12.4-12.1-24.9-4.92-37.4,0.132-7.13,22-13.5,8.48-11.2-15,2.57-27.3,15.2-32,29.1-0.0924,33.6-0.185,67.2-0.277,101-3.91-0.083-8.9,0.866-7.02-4.77,0.0898-48.6,0.18-97.2,0.269-146-3.58,5.33-14.2,15.4-14.1,17.3-0.39-8.94-9.19-16.1-6.19-25.6-5.55,4.72-22.3,7.71-23.1,3.11,3.14-4.93,14.5-12.6,12.8-14.7-7.23-6.08-21.5-0.12-25.4-7.84-1.67-6.99,10.7-16.9-1.85-15.4-14.7-3.43-6.6-17.5,3.92-20.3,7.01-4.63,14.2,9.91,11.7-2.46,2.37-12.1,10.2-24.1,5.29-36.7-5.04-11.3,13.1-0.0228,15.6-5.84,7.86-7.22,20.8-7.86,29.3-1.33,7.67-6.29,24.7-8.35,26.9,4.18-1.67,14.1,1.09,28.3,3.6,42.2,10.9-0.508,34.3,8.84,18.6,20.4-3.28,5.41-16.9,1.51-7.66,7.74,6.31,7.18,0.635,10.8-6.79,10.1-13.5,0.00065,14.5,12.3,4.84,15.6-6.51-3.21-21.5-4.33-24-0.0328,5.9,4.84,10.1,22.5-1.08,12.9-7.08,0.131-17.8-9.39-15.1,2.36-0.101,10.7-0.202,21.4-0.304,32.1,8.32-13.5,23.8-24.4,40.3-22.1-6-13.2,7.18-24.1,19.1-26.1,6.53-0.36,16.6-4.84,19.9-5.31,0.549,9.66-0.946,20.1-7.39,27.7zm-107-85c4.08-3.14,4.62-20-0.369-9.92-4.06,13.4-15.3,27.5-7.68,41.8-12.8-3.18-0.479,7.37,5.69,7.61,6.44,6.05,11.6-0.375,3.39-4.4-7.74-7.46-8.32-19.2-3.85-28.6,0.782-2.23,2.12-4.22,2.82-6.48zm19.9-0.668c-9.28-8.24-8.14-29.3,7.17-28.5,13-3.22,16.3,17.1,2.24,14.7-8.25,0.571-2.21-12,1.87-5.13,4.77-9.19-18.4-4.16-10.9,6.13,4.57,4.23,4.55,12.5,7.97,15.4,4.78-3.94-3.24-12.1,6.01-10.8,9.82-3.53,17.5-19.7,3.3-22.9-12.1-6.24-31.2,2.28-28.8,17.3,2.55,10.6,12.3,18.5,12,30.1,2.74,9.75,3.73-8.75,1.03-12.2l-0.856-2.22-1.02-2,0.0019-0.001zm22.9,0c-8.8,8.74-17.7,19.8-16.1,33,2.72,9.95-9.66,7.01-14.8,8.78,1.75,5.06,11.5,10.7,15,3.16,9.85-8.57,23.5-7.93,35.7-7.64,5.91,1.04,8.4-9.65,0.462-5.15,3-3.56,5.96-16.4-1.72-12.1,0.0956,13.3-15.3,12-24.5,13.9-10.6-3.14,1.02-21,6.76-26.6,10.6-8.91,18.6-23.6,13.4-37.5-5.25-10.3-11.5-1.86-3.2,3.96,3.46,10.2-3.58,19.9-11,26.2zm50.2,76.3c3.15-6.15-0.856-11.6-2.59-2-1.15,5.23-14,18.6-2.87,12.2,1.73-7.84,21.4-1.3,15.5-6.96-15.4,0.258,12.8-12.1,5.07-13.5-5.59,1.3-14.2,12.1-16,12.6l0.925-2.29,0.003,0.002zm-16.1,26.8c2.78-8-4.66-3.57-3.69,2.34,1.28,6.84-12.4,11.9-8.69,15.3,11.3-9.73-1.12,12.8,5.62,14.5,1.29-5.79,1.66-19.4,3.27-20.1-0.31,6.75,10.8,14.4,4.32,4.2-3.36-5.26-3.19-10.6-0.832-16.2zm31.6,1.72c-3.54-2.19-12.4-4.74-4.81,0.573,9.18,0.817,8.31,13.9,13.5,16.3-0.521-6.23-4.68-13.3,3.33-6.25,2.53,3.31,14.7,10.9,7.13,2.53-2.92-4.85-20.8-10.2-7.9-9.01,14.2-3.55-10.7-2.07-11.3-4.16"/>
	</g>
</svg>
