<?xml version="1.0" encoding="utf-8"?>
<!-- Generator: Adobe Illustrator 14.0.0, SVG Export Plug-In . SVG Version: 6.00 Build 43363)  -->
<!DOCTYPE svg PUBLIC "-//W3C//DTD SVG 1.0//EN" "http://www.w3.org/TR/2001/REC-SVG-20010904/DTD/svg10.dtd">
<svg version="1.0" id="Layer_1" xmlns="http://www.w3.org/2000/svg" xmlns:xlink="http://www.w3.org/1999/xlink" x="0px" y="0px"
	 width="800px" height="600px" viewBox="0 0 800 600" enable-background="new 0 0 800 600" xml:space="preserve">
<defs>
   <linearGradient id="colour1">
     <stop offset="100%" stop-color="black"/>
   </linearGradient>
 </defs>
<g>
	<path fill="url(#colour1)" d="M61.03,59.784h20.459c4.641,0,8.162,1.011,10.562,3.03s3.599,4.871,3.599,8.55c0,1.919-0.281,3.56-0.84,4.919
		c-0.562,1.36-1.23,2.441-2.009,3.24c-0.781,0.801-1.521,1.379-2.222,1.741c-0.698,0.359-1.37,0.659-2.009,0.901v0.12
		c0.759,0.12,1.489,0.339,2.19,0.659s1.37,0.83,2.009,1.531s1.16,1.619,1.56,2.759s0.601,2.512,0.601,4.111
		c0,2.639,0.2,4.971,0.601,6.99s0.979,3.45,1.741,4.29h-8.042c-0.479-0.801-0.789-1.689-0.928-2.671
		c-0.142-0.979-0.21-2.19-0.21-3.628c0-4.121-0.591-7.041-1.77-8.762c-1.182-1.719-3.43-2.578-6.75-2.578H68.53v17.639h-7.5V59.784z
		 M68.53,79.283h12.3c4.88,0,7.319-2.28,7.319-6.841c0-1.318-0.19-2.41-0.569-3.269c-0.381-0.859-0.92-1.531-1.621-2.009
		c-0.701-0.481-1.479-0.811-2.339-0.991c-0.862-0.181-1.831-0.271-2.91-0.271H68.53V79.283z"/>
	<path fill="url(#colour1)" d="M103.269,59.784h20.459c4.641,0,8.162,1.011,10.562,3.03s3.599,4.871,3.599,8.55c0,1.919-0.281,3.56-0.84,4.919
		c-0.562,1.36-1.23,2.441-2.009,3.24c-0.781,0.801-1.521,1.379-2.222,1.741c-0.698,0.359-1.37,0.659-2.009,0.901v0.12
		c0.759,0.12,1.489,0.339,2.19,0.659s1.37,0.83,2.009,1.531s1.16,1.619,1.56,2.759s0.601,2.512,0.601,4.111
		c0,2.639,0.2,4.971,0.601,6.99s0.979,3.45,1.741,4.29h-8.042c-0.479-0.801-0.789-1.689-0.928-2.671
		c-0.142-0.979-0.21-2.19-0.21-3.628c0-4.121-0.591-7.041-1.77-8.762c-1.182-1.719-3.43-2.578-6.75-2.578h-11.04v17.639h-7.5V59.784
		z M110.769,79.283h12.3c4.88,0,7.319-2.28,7.319-6.841c0-1.318-0.19-2.41-0.569-3.269c-0.381-0.859-0.92-1.531-1.621-2.009
		c-0.701-0.481-1.479-0.811-2.339-0.991c-0.862-0.181-1.831-0.271-2.91-0.271h-12.18V79.283z"/>
</g>
</svg>
