<?xml version="1.0" encoding="utf-8"?>
<!-- Generator: Adobe Illustrator 14.0.0, SVG Export Plug-In . SVG Version: 6.00 Build 43363)  -->
<!DOCTYPE svg PUBLIC "-//W3C//DTD SVG 1.0//EN" "http://www.w3.org/TR/2001/REC-SVG-20010904/DTD/svg10.dtd">
<svg version="1.0" id="Layer_1" xmlns="http://www.w3.org/2000/svg" xmlns:xlink="http://www.w3.org/1999/xlink" x="0px" y="0px"
	 width="504px" height="504px" viewBox="0 0 504 504" enable-background="new 0 0 504 504" xml:space="preserve">
<defs>
   <linearGradient id="colour1">
     <stop offset="100%" stop-color="red"/>
   </linearGradient>
 </defs>
<path fill="url(#colour1)" d="M254.51,111.49c4.4-3.06,8.34-8.45,14.37-7.54c-0.01,2.07-0.01,4.15-0.021,6.22c1.91-0.11,4,0.34,5.711-0.82
	c1.029-0.2,2.01-0.54,2.949-1.02c1.121-0.1,2.121-0.48,3-1.14c0.621-0.03,1.871-0.1,2.49-0.13c0.08,2.39-0.39,4.91-2.33,6.53
	c0.93,0.63,1.87,1.26,2.82,1.88c2.91,1.2,6.359,0.08,8.971,2.29c1.51,0.75,2.709,1.93,3.92,3.09c3.449,1.55,4.449,5.92,6.879,8.68
	c0.44,1.35,0.82,2.73,1.451,4.01c0.18,1.36,0.049,2.85,0.93,4.02c0.209,1.04,0.539,2.04,0.99,3c0.219,1.03,0.549,2.03,0.989,2.99
	c0.351,1.39,0.89,2.72,1.479,4.03c0.971,1.55,1.701,3.24,2.5,4.88c0.851,1.38,1.791,2.71,2.561,4.15c1.141,1.22,2.4,2.4,2.98,4.02
	c3.64,3.84,7.379,7.58,11.22,11.22c2.94,1.17,4.569,4.11,7,6c3.17,1.35,4.979,4.54,7.61,6.65c0.01,1.66,0.01,3.33,0.01,4.99
	c-1.391,1.38-2.75,2.86-4.52,3.76c-0.5,0.24-1.49,0.73-1.99,0.97c-2.101,1.24-4.641,0.51-6.94,0.61
	c-1.011-1.25-2.649-0.84-4.021-1.02c-0.949-0.85-1.939-1.62-3.039-2.23c-1.67-0.76-3.351-1.5-4.891-2.47
	c-1.32-0.59-2.64-1.15-4.029-1.48c-1.49-1.05-3.34-0.69-5.031-0.84c-3.189-2.03-7.389-0.38-10.989-0.95c-2.21-1.89-5.38-0.6-8-0.99
	c-1.271-1.49-3.319-0.82-4.99-1.06c-0.92-0.63-1.93-0.99-3.05-1.08c-0.98-0.51-1.971-1.01-2.96-1.5c-2.101-0.96-3.79-2.66-4.75-4.75
	c-0.479-0.98-0.97-1.94-1.49-2.88c-1.26-1.9-1.31-4.14-1.239-6.34c-0.971,0.99-1.82,2.07-2.471,3.29c-0.65,1.34-1.29,2.68-1.92,4.03
	c-1.85,2.55-2.6,6.02-1.16,8.94c1,1.69,2.33,3.14,3.87,4.35c1.61,0.57,2.78,1.84,4.021,2.97c2.82,1.44,5.17,3.66,8.05,4.99
	c1.399,0.8,2.71,1.74,4.09,2.58c0.97,0.46,1.95,0.92,2.931,1.38c1.649,1.03,3.219,2.19,4.969,3.05c3.83,2.42,7.83,4.68,10.94,8.04
	c3.17,1.75,6.03,4.58,7.761,7.76c1.439,1.57,3.149,2.95,4.1,4.91c0.65,1.34,1.289,2.69,1.9,4.05c0.529,0.97,1.06,1.94,1.58,2.91
	c0.119,1.08,0.43,2.1,0.93,3.07c0.14,1.1,0.529,2.1,1.189,2.99c0.311,2.31-0.77,5.09,0.99,7c0.07,2.64,0.07,5.28,0.01,7.92
	c-1.24,1-0.859,2.629-1.1,3.99c-1.18,1.86-0.811,4.24-2.02,6.12c-0.541,0.939-1.051,1.9-1.521,2.87
	c-2.681,5.319-7.44,9.01-11.479,13.22c-2.641,2.01-5.471,3.76-8.261,5.54c-0.979,0.47-1.94,0.96-2.89,1.47
	c-1.061,0.48-2.1,0.98-3.15,1.461c-0.96,0.51-1.91,1.02-2.87,1.529c-0.51,0.26-1.55,0.76-2.06,1.01
	c-1.79,0.271-3.41,1.08-4.961,1.961c-0.51,0.27-1.529,0.789-2.039,1.049c-1.03,0.17-2.03,0.471-2.98,0.9
	c-0.5,0.27-1.51,0.83-2.01,1.11c-1.439,0.229-2.77,0.819-4.09,1.409c-0.939,0.531-1.891,1.041-2.86,1.521
	c-1.39,0.81-2.7,1.761-4.1,2.56c-2.4,0.74-3.761,3.07-6.07,3.951c-1.61,1.409-2.92,3.279-5.01,3.999
	c-1.14,1.011-2.22,2.091-3.22,3.23c-0.73,2.1-2.6,3.399-4.01,5.01c-0.72,1.46-1.68,2.78-2.54,4.15c-0.83,1.569-1.63,3.17-1.95,4.93
	c-0.46,0.95-0.79,1.94-1,2.98c-1.08,1.47-0.71,3.329-0.86,5.02c-1.46,2.25-1.55,5.87,0.03,8.07c0.19,2.01-0.45,4.26,0.85,6.01
	c0.18,1.05,0.5,2.06,0.96,3.03c0.34,1.39,0.9,2.71,1.48,4.02c0.54,0.93,1.04,1.891,1.52,2.87c1.36,2.47,3.27,4.62,4.52,7.16
	c2.3,2.51,4.72,4.92,7.23,7.229c1.45,0.73,2.771,1.681,4.149,2.551c1.561,0.819,3.171,1.6,4.921,1.949
	c1.75,1.271,3.989,0.631,6,0.82c1.069,1.29,3.03,1.35,4.09,0.01c1.989-0.16,4.16,0.351,5.96-0.739c0.51-0.33,1.54-0.98,2.05-1.311
	c0.47,0,1.41-0.02,1.88-0.02c0.961-0.891,1.91-1.87,3.19-2.261c2.06-1.989,4.45-3.79,5.79-6.38c0.77-1.66,1.51-3.33,2.46-4.89
	c1.19-1.82,1.38-3.92,1.351-6.03c1.42-1.68,1.369-4.42,0-6.1c0.189-2.5-0.48-4.83-1.811-6.92c-1.641-2.88-4.189-5.17-6.891-7.03
	c-3.879-1.18-8.49-1.19-11.99,1.09c-3.359,1.9-5.639,5.15-8.409,7.771c-0.58,2.47-2.99,3.739-5.149,4.62
	c-3.141-0.94-1.49-5.021-1.801-7.44c0.67-0.9,1.04-1.91,1.12-3.04c0.51-0.99,1.01-1.97,1.5-2.96c2.16-3.9,5.97-6.55,9.76-8.74
	c0.979-0.5,1.97-1,2.95-1.51c1.1-0.1,2.109-0.45,3.04-1.03c1.36-0.24,3,0.13,4-1.1c3.64-0.061,7.28-0.07,10.92,0.01
	c1.33,1.39,3.479,0.561,4.97,1.66c1.62,0.78,3.33,1.37,5.061,1.89c4.119,2.67,7.279,6.61,9.779,10.811
	c0.431,1.34,0.84,2.7,1.381,4.02c0.14,1.101,0.529,2.101,1.18,3c0.08,4.97,0.061,9.95,0.01,14.92c-1.48,1.271-0.811,3.311-1.05,4.99
	c-0.64,0.9-1,1.91-1.08,3.04c-1.271,2.27-2.28,4.68-3.56,6.94c-0.23,0.51-0.68,1.52-0.91,2.029c-2.74,5.3-7.52,8.96-11.51,13.25
	c-0.94,1.021-2.021,1.9-3.291,2.471c-1.75,0.859-3.319,2.01-4.979,3.02c-0.989,0.49-1.979,0.99-2.96,1.5
	c-1.08,0.13-2.1,0.44-3.061,0.94c-1.039,0.199-2.039,0.54-2.989,1c-1.11,0.13-2.11,0.52-2.99,1.17c-1.649,0.05-3.3,0.06-4.94,0.13
	c-1.1,1.51-3.029,0.93-4.569,1.08c-5.32-0.12-10.64,0.1-15.94-0.09c-0.39-0.25-1.15-0.74-1.53-0.99c-1.65-0.07-3.29-0.08-4.93-0.13
	c-0.9-0.681-1.91-1.051-3.05-1.11c-0.5-0.28-1.51-0.85-2.01-1.13c-0.96-0.45-1.96-0.73-3-0.86c-0.98-0.52-1.94-1.05-2.91-1.58
	c-1.37-0.609-2.71-1.239-4.05-1.909c-1.64-1.051-3.22-2.19-4.98-3.04c-1.55-0.671-2.73-1.891-3.95-3.011
	c-1.58-0.64-2.78-1.87-3.99-3.01c-3.48-2.13-6.69-5.26-8.76-8.79c-3.37-3.1-5.58-7.13-8.05-10.92c-0.48-0.979-0.97-1.95-1.46-2.92
	c-0.25-0.5-0.74-1.5-0.98-2c-0.25-0.5-0.75-1.5-1-2c-0.26-0.51-0.79-1.54-1.06-2.05c-0.15-1.08-0.47-2.09-0.95-3.05
	c-0.16-1.07-0.53-2.061-1.09-2.98c-0.23-1.36,0.09-2.96-1.05-4.01c-0.24-1.681,0.42-3.71-1.05-5c-0.06-6.63-0.06-13.271,0-19.9
	c1.47-1.29,0.81-3.33,1.05-5.01c1.15-1.04,0.82-2.65,1.05-4.01c0.92-3.011,2.02-5.98,3.11-8.97c0.43-0.971,0.76-1.971,0.98-3
	c1.16-1.621,0.71-3.65,0.82-5.49c-2.45-0.811-5.35-2.16-7.73-0.42c-1.07,0.17-2.06,0.529-2.98,1.08c-1.36,0.22-2.91-0.051-3.99,1.02
	c-1.37,0.16-2.86,0.01-4.03,0.9c-1.1,0.129-2.1,0.52-2.98,1.17c-1.52,0.05-3.05,0.07-4.57,0.09c0.09-1.18,0.38-2.311,0.87-3.37
	c2.12-3.08,4.54-9.24-0.27-10.979c-1.5-0.931-3.28-0.65-4.94-0.771c-1.34-1.37-3.34-0.78-5.02-1c-1.5-1.7-4.94,0.01-5.51-2.56
	c0.76-0.67,1.62-1.181,2.58-1.521c1.55-0.89,3.17-1.67,4.95-1.989c1.27-0.521,2.58-0.921,3.87-1.4c0.5-0.25,1.5-0.75,2-0.99
	c2.67-0.9,4.4-3.45,3.57-6.29c0.12-2.06-2.16-1.89-3.53-2.28c-1.12-0.98-2.66-0.71-4-0.91c-1.56-1.649-4.19-0.119-5.86-1.58
	c-1.19-0.56-2.37-1.109-3.6-1.549c0-0.32,0-0.971,0.01-1.291c0.64-0.31,1.92-0.92,2.56-1.22c0.47-0.06,1.41-0.16,1.88-0.21
	c1.62-1.77,4.41-0.04,6.08-1.74c1.34-0.15,2.74-0.13,3.98-0.77c2.08-1.18,3.79-2.89,4.97-4.97c0.81-1.26,0.86-2.79,0.02-4.04
	c-1.11-1.79-2.87-3.13-3.66-5.1c-1.81-2.06-3.8-3.95-5.78-5.84c0.03-0.7,0.09-2.11,0.12-2.81c1.14,0.51,2.26,1.07,3.37,1.65
	c0.92,0.44,1.89,0.76,2.89,0.98c0.96,0.44,1.96,0.77,3,0.99c1.17,0.9,2.65,0.73,4.02,0.91c2.61,1.44,6.45,1.41,9.07,0.02
	c1.79-0.06,3.5-0.52,5.06-1.4c0.94-0.53,1.89-1.03,2.87-1.5c2.06-0.9,3.48-2.7,4.97-4.3c0.59,0,1.76,0,2.34,0
	c0.91,2.08,0.94,4.42,1.87,6.48c0.21,1.04,0.54,2.04,1,3c0.25,0.99,0.54,1.97,0.87,2.94c0.9,1.45,2.39,2.66,2.5,4.48
	c2.37,0.84,5.13,1.98,7.5,0.46c0.5-0.33,1.51-0.98,2.02-1.31c0.49,0,1.48,0.01,1.98,0.01c0.86-0.88,1.73-1.74,2.62-2.6
	c0-1.04,0-2.07,0-3.11c-2.13-2.3-5.05-4.07-6.27-7.06c-2.74-2.66-5.3-5.5-7.05-8.92c-0.62-1.47-1.52-2.78-2.56-3.97
	c-0.1-1.08-0.4-2.09-0.9-3.03c-0.22-1.05-0.55-2.05-1-3.01c-0.14-1.1-0.54-2.09-1.18-2.97c-0.07-5.64-0.07-11.28-0.01-16.92
	c1.44-1.29,0.82-3.32,1.05-4.99c0.66-0.91,1.01-1.94,1.07-3.07c0.94-1.55,1.83-3.18,2-5.01c0.52-0.97,1.05-1.94,1.58-2.9
	c0.6-1.37,1.24-2.71,1.91-4.05c2.26-3.37,4.24-6.97,7.05-9.94c1.06-1.95,2.5-3.69,3.46-5.7c-1.35-1.77-3.01-3.27-4.67-4.74
	c-3.35-1.75-6.53-4.01-8.74-7.13c1.17-1.78,2.72-3.41,4.75-4.17c1.89-1.7,3.64-3.52,5.46-5.29c0.24-1.33-0.56-3.21,1.05-3.93
	c-1.56-1.38-0.5-3.75-1.95-5.18c-0.06-1.45-0.09-2.9-0.12-4.35c1.83-0.15,4.01,0.61,5.48-0.89c1.69-0.16,3.56,0.23,5.01-0.88
	c1.84-0.11,3.35-1.03,3.89-2.84c1.66-3.64-0.36-8.01,1.88-11.58c1.07,0.17,2.13,0.43,3.17,0.78c2.05,1.43,4.25,2.67,6.05,4.41
	C250.53,112.07,252.68,112.5,254.51,111.49z"/>
</svg>
