<?xml version="1.0" encoding="utf-8"?>
<svg version="1.0" id="Layer_1" xmlns="http://www.w3.org/2000/svg" xmlns:xlink="http://www.w3.org/1999/xlink" viewBox="250 368 92 90" xml:space="preserve">
<defs>
   <linearGradient id="colour1">
     <stop offset="100%" stop-color="red"/>
   </linearGradient>
 </defs>
 <g fill="url(#colour1)">
<path fill-rule="evenodd" clip-rule="evenodd" d="M298.629,443.679
			c-0.658-2.822,0.174-9.479,0.174-9.479c0.32-1.582,0.111-3.664,1.986-3.494c1.955,0.191,4.875,5.441,6.203,6.797
			c2.348,2.414,5,4.551,8.107,5.887c5.086,2.191,12.639,3.051,17.092-0.75c2.449-2.09,4.258-5.428,4.49-8.605
			c0.375-5.061-3.936-8.883-1.561-14.004c1.803-3.898,6.123-6.645,6.252-11.277c0.186-6.492-4.063-11.51-10.816-11.305
			c-3.852,0.119-6.773,2.02-9.885,4c-2.645,1.68-9.475,6.332-6.404-0.336c2.979-6.469,6.924-11.547,7.586-18.865
			c0.523-5.716-2.137-10.144-7.828-11.634c-5.023-1.314-7.18,3.755-11.668,4.729c-4.068,0.884-6.702-3.073-9.911-4.794
			c-3.025-1.621-5.889-1.907-9.117-0.66c-12.695,4.906-5.325,19.781-1.488,27.891c0.877,1.85,5.838,9.723,0.316,7.113
			c-2.533-1.197-4.676-4.072-7.128-5.574c-2.672-1.623-5.758-2.787-8.781-3.236c-3.324-0.496-6.223-0.063-8.681,2.365
			c-7.086,6.969,0.712,12.701,1.491,19.959c0.241,2.309-1.531,3.793-2.168,5.824c-0.646,2.004-0.619,4.559-0.496,6.648
			c0.602,10.348,11.767,14.596,20.079,9.277c3.782-2.422,5.706-7.055,9.452-9.391c2.586-1.625,6.678-1.84,6.217,2.275
			c0,0,0.506,7.316-0.828,10.143c-2.561,0.027-0.455,4.934,1.367,7.48c1.381,1.922,2.926,6.445,5.79,6.32
			C301.682,456.841,303.268,443.968,298.629,443.679L298.629,443.679z"/>
</g>
</svg>
