<?xml version="1.0" encoding="utf-8"?>
<!-- Generator: Adobe Illustrator 14.0.0, SVG Export Plug-In . SVG Version: 6.00 Build 43363)  -->
<!DOCTYPE svg PUBLIC "-//W3C//DTD SVG 1.1//EN" "http://www.w3.org/Graphics/SVG/1.1/DTD/svg11.dtd">
<svg version="1.1" id="Layer_1" xmlns="http://www.w3.org/2000/svg" xmlns:xlink="http://www.w3.org/1999/xlink" x="0px" y="0px"
	 width="643.46px" height="850.39px" viewBox="0 0 643.46 850.39" enable-background="new 0 0 643.46 850.39" xml:space="preserve">
<defs>
   <linearGradient id="colour1">
     <stop offset="100%" stop-color="#F21111"/>
   </linearGradient>
</defs>
<path fill="url(#colour1)" d="M464.446,503.96c10.591-66.158-31.843-78.078-79.142-104.893l24.298-17.321h-42.604l-13.177-40.583
	l-13.002,40.412h-42.774l34.735,25.146l-13.343,40.38l34.384-25.09l34.388,25.09l-7.286-22.536
	c46.436,51.982,30.036,96.608,30.036,96.608c19.802-29.658,18.132-45.316,18.132-45.316c9.732,13.184,8.329,47.063,8.329,47.063
	c20.975-50.602-1.532-69.523-1.532-69.523C456.325,467.232,464.446,503.96,464.446,503.96z"/>
</svg>
