<?xml version="1.0" encoding="utf-8"?>
<!-- Generator: Adobe Illustrator 14.0.0, SVG Export Plug-In . SVG Version: 6.00 Build 43363)  -->
<!DOCTYPE svg PUBLIC "-//W3C//DTD SVG 1.1//EN" "http://www.w3.org/Graphics/SVG/1.1/DTD/svg11.dtd">
<svg version="1.1" id="Layer_1" xmlns="http://www.w3.org/2000/svg" xmlns:xlink="http://www.w3.org/1999/xlink" x="0px" y="0px"
	 width="800px" height="600px" viewBox="0 0 800 600" enable-background="new 0 0 800 600" xml:space="preserve">
<defs>
   <linearGradient id="colour1">
     <stop offset="100%" stop-color="black"/>
   </linearGradient>
</defs>
<path fill="url(#colour1)" d="M349.875,250.875l6.25,0.25L356.25,253c0,0,7.875,2,10,2s5-0.875,5.375-2.125s-0.75-9.5-1.25-10.625
	s-17.125,0.375-22.25-2.875c0,0-4.25,6.625-6.25,7.125l-0.375,2.875c0,0,9.125,8.125,10,9s1,6,1,6s1.625,2.875,1,4.125
	s-4.375-2.25-4.375-2.25l1.25-2.5c0,0-2-3.75-2.875-4.625s-13.875-7.5-14-11.25s3-8.625,1.25-9.75s-3,1.25-4.75,1.875
	s-12.125,3-13.625,3.25c0,0-10.25,14.125-10.375,17.875s0.75,1.75,0.75,1.75l2.125,4.875H302.5l-0.125-4l0.875-0.25l-1.375-4.125
	c0,0,6.375-12.875,6.625-17.25c0,0,9.875-7.25,10.625-8.25s-2.5-8.125-0.25-10.5c0,0-8.25,7.125-10.125,7.25s-9.75-0.375-12.875-1
	s-7.125,1.125-8.125,3l-1.625-1.375c0,0-2.25-1.125,1.25-4.625s5-4.5,5-5.375s3.5-2.25,6.5-2.25s9-1.625,12.875-2.25
	s17.875-6.5,21.625-6.25s19.5,5,24.25,5.25s4.375-1.75,8-3.375s4.25-1,0.375-2.25s-4.125,0-3.875-1.25s0,0,0,0
	s1.875-0.625,2.75-0.625l1.75-1.125c0,0-2.75,0.25-4.5-1.125c0,0,4.75,0.25,6-0.375c0,0-3.25-1-5-2.75s0-0.625,0-0.625
	s4.875-0.375,5.25-0.875l-5.125-0.625c0,0,5.875-1.875,8.125-2.875s2.691-3.22,5.5-3.25c11.875-0.125,7.625-3.875,15.875,0
	c1.62,0.761,8.875,7.5,10,9.875s6,8.375,6,10.75s-1.125,11.375-8-0.25c-1.451-2.454-4.5-1.375-4.5-1.375s-1.25-2.25-2-3.25
	s-1.25-0.125-1.875,3.875s-3.75,9-2.75,10.625s0.625,9.875,2.125,13.75s8,15.125,8.125,16.875s4.25,13.875,4.25,13.875l0.75,1.125
	l-3.5,0.625l0.375-1.5l-4.875-13.75c0,0-8.125-9-12.5-12l-5.625-0.5c0,0,0.5,16.125-5.625,15.25S355.5,257.5,349.75,252.25
	L349.875,250.875z"/>
<g>
	<path fill="url(#colour1)" d="M305.754,296.467l-0.22,1.428c-0.04,0.288-0.06,0.548-0.06,0.783c0,0.43,0.086,0.772,0.26,1.022
		c0.173,0.252,0.459,0.377,0.86,0.377c0.386,0,0.709-0.197,0.969-0.592c0.26-0.395,0.436-0.873,0.53-1.43
		c0.027-0.197,0.04-0.386,0.04-0.566c0-0.5-0.106-0.915-0.319-1.237c-0.213-0.325-0.534-0.684-0.96-1.079
		c-0.08-0.072-0.159-0.145-0.24-0.215c-0.547-0.487-0.999-0.93-1.359-1.333c-0.36-0.406-0.653-0.842-0.879-1.307
		c-0.347-0.737-0.52-1.566-0.52-2.48c0-0.485,0.046-1.007,0.14-1.563c0.293-1.869,0.906-3.292,1.839-4.272
		c0.933-0.978,2.092-1.467,3.478-1.467c1.2,0,2.109,0.395,2.729,1.187c0.62,0.79,0.93,1.86,0.93,3.207
		c0,0.665-0.074,1.381-0.221,2.156h-3.238c0.013-0.125,0.02-0.217,0.02-0.27c0.081-0.592,0.12-1.024,0.12-1.294
		c0-0.395-0.063-0.71-0.19-0.943c-0.126-0.232-0.343-0.369-0.649-0.403c-0.733,0-1.213,0.447-1.439,1.346
		c-0.067,0.288-0.1,0.548-0.1,0.781c0,0.342,0.063,0.641,0.19,0.891c0.126,0.252,0.317,0.522,0.57,0.807
		c0.24,0.235,0.613,0.577,1.12,1.026c0.853,0.754,1.426,1.364,1.719,1.832c0.226,0.359,0.402,0.765,0.529,1.212
		c0.127,0.45,0.19,0.979,0.19,1.59c0,0.594-0.06,1.265-0.18,2.02c-0.307,1.943-0.93,3.434-1.869,4.474
		c-0.94,1.044-2.143,1.563-3.608,1.563c-1.307,0-2.276-0.368-2.909-1.104c-0.633-0.736-0.949-1.688-0.949-2.857
		c0-0.359,0.026-0.737,0.08-1.132l0.34-2.156H305.754z"/>
	<path fill="url(#colour1)" d="M311.932,303.231l3.178-20.212h3.519l-1.22,7.761h2.439l1.219-7.761h3.519l-3.178,20.212h-3.519l1.319-8.409h-2.438
		l-1.319,8.409H311.932z"/>
	<path fill="url(#colour1)" d="M333.582,296.79c-0.374,2.371-1.006,4.121-1.899,5.241c-0.892,1.123-2.205,1.685-3.938,1.685
		c-1.373,0-2.373-0.359-2.998-1.077c-0.627-0.719-0.939-1.807-0.939-3.261c0-0.755,0.08-1.617,0.239-2.588l1.3-8.218
		c0.307-1.943,0.956-3.434,1.949-4.474c0.993-1.044,2.256-1.563,3.788-1.563c1.293,0,2.272,0.369,2.939,1.103
		c0.667,0.737,1,1.807,1,3.208c0,0.538-0.047,1.114-0.14,1.726L333.582,296.79z M331.303,288.895c0.093-0.577,0.14-1.024,0.14-1.349
		c0-0.43-0.07-0.768-0.21-1.009c-0.14-0.243-0.383-0.364-0.729-0.364c-0.506,0-0.883,0.25-1.129,0.754
		c-0.247,0.502-0.437,1.158-0.569,1.967l-1.3,8.301c-0.08,0.502-0.12,0.943-0.12,1.32c0,0.465,0.07,0.845,0.21,1.132
		c0.14,0.287,0.382,0.43,0.729,0.43c0.266,0,0.5-0.087,0.7-0.268c0.2-0.18,0.359-0.414,0.48-0.702
		c0.12-0.287,0.22-0.592,0.299-0.917c0.081-0.325,0.146-0.656,0.2-0.996L331.303,288.895z"/>
	<path fill="url(#colour1)" d="M345.176,297.195h0.04l3.319-14.176h3.338l-5.678,20.212h-3.958l1.16-14.229h-0.04l-3.398,14.229h-3.899l0.66-20.212h3.399
		l-1.18,14.203l0.06-0.055l3.639-14.148h3.398L345.176,297.195z"/>
	<path fill="url(#colour1)" d="M349.955,303.231l3.178-20.212h4.178c0.413,0,0.807,0.018,1.18,0.052c0.373,0.038,0.747,0.114,1.12,0.23
		c0.373,0.116,0.712,0.287,1.019,0.511c0.307,0.226,0.546,0.518,0.72,0.877c0.32,0.627,0.48,1.401,0.48,2.316
		c0,0.577-0.06,1.268-0.181,2.077c-0.213,1.274-0.542,2.421-0.989,3.437c-0.447,1.013-1.076,1.746-1.889,2.195
		c-0.454,0.27-0.913,0.441-1.379,0.511c-0.467,0.075-1.04,0.11-1.72,0.11c-0.399,0-0.719,0.009-0.959,0.026l-1.24,7.87H349.955z
		 M355.292,291.724c0.067,0,0.173,0,0.321,0c0.386,0,0.712-0.031,0.979-0.094c0.266-0.062,0.52-0.202,0.76-0.417
		c0.2-0.252,0.36-0.553,0.479-0.903c0.12-0.351,0.213-0.732,0.28-1.145c0.066-0.469,0.1-0.855,0.1-1.158
		c0-0.272-0.029-0.513-0.09-0.729c-0.06-0.217-0.164-0.368-0.31-0.46c-0.2-0.105-0.647-0.16-1.34-0.16h-0.38L355.292,291.724z"/>
	<path fill="url(#colour1)" d="M371.364,296.79c-0.373,2.371-1.006,4.121-1.899,5.241c-0.892,1.123-2.205,1.685-3.938,1.685
		c-1.373,0-2.373-0.359-2.999-1.077c-0.627-0.719-0.939-1.807-0.939-3.261c0-0.755,0.08-1.617,0.239-2.588l1.3-8.218
		c0.307-1.943,0.956-3.434,1.949-4.474c0.993-1.044,2.256-1.563,3.789-1.563c1.292,0,2.272,0.369,2.939,1.103
		c0.666,0.737,1,1.807,1,3.208c0,0.538-0.047,1.114-0.14,1.726L371.364,296.79z M369.086,288.895c0.093-0.577,0.14-1.024,0.14-1.349
		c0-0.43-0.07-0.768-0.211-1.009c-0.14-0.243-0.383-0.364-0.729-0.364c-0.506,0-0.883,0.25-1.129,0.754
		c-0.246,0.502-0.437,1.158-0.569,1.967l-1.3,8.301c-0.08,0.502-0.12,0.943-0.12,1.32c0,0.465,0.07,0.845,0.21,1.132
		s0.382,0.43,0.729,0.43c0.266,0,0.5-0.087,0.7-0.268c0.2-0.18,0.359-0.414,0.48-0.702c0.12-0.287,0.22-0.592,0.299-0.917
		c0.081-0.325,0.146-0.656,0.2-0.996L369.086,288.895z"/>
	<path fill="url(#colour1)" d="M376.822,291.912l-0.04,0.055l-1.459,11.265h-3.338l3.178-20.212h3.619l0.939,11.29h0.06l1.44-11.29h3.338l-3.179,20.212
		h-3.598L376.822,291.912z"/>
	<path fill="url(#colour1)" d="M383.259,303.231l3.179-20.212h3.518l-3.178,20.212H383.259z"/>
	<path fill="url(#colour1)" d="M388.716,303.231l3.179-20.212h8.056l-0.62,4.042h-4.538l-0.6,3.719h4.398l-0.639,4.042h-4.398l-0.68,4.367h4.778
		l-0.639,4.042H388.716z"/>
	<path fill="url(#colour1)" d="M402.431,296.467l-0.221,1.428c-0.04,0.288-0.06,0.548-0.06,0.783c0,0.43,0.087,0.772,0.26,1.022
		c0.174,0.252,0.46,0.377,0.86,0.377c0.386,0,0.709-0.197,0.969-0.592c0.26-0.395,0.437-0.873,0.53-1.43
		c0.026-0.197,0.04-0.386,0.04-0.566c0-0.5-0.107-0.915-0.32-1.237c-0.213-0.325-0.533-0.684-0.96-1.079
		c-0.079-0.072-0.159-0.145-0.239-0.215c-0.547-0.487-0.999-0.93-1.359-1.333c-0.36-0.406-0.653-0.842-0.88-1.307
		c-0.346-0.737-0.52-1.566-0.52-2.48c0-0.485,0.046-1.007,0.14-1.563c0.293-1.869,0.906-3.292,1.84-4.272
		c0.933-0.978,2.092-1.467,3.478-1.467c1.2,0,2.109,0.395,2.729,1.187c0.62,0.79,0.93,1.86,0.93,3.207
		c0,0.665-0.074,1.381-0.221,2.156h-3.238c0.014-0.125,0.02-0.217,0.02-0.27c0.081-0.592,0.12-1.024,0.12-1.294
		c0-0.395-0.063-0.71-0.189-0.943s-0.344-0.369-0.649-0.403c-0.733,0-1.213,0.447-1.439,1.346c-0.067,0.288-0.101,0.548-0.101,0.781
		c0,0.342,0.063,0.641,0.19,0.891c0.126,0.252,0.316,0.522,0.569,0.807c0.24,0.235,0.613,0.577,1.12,1.026
		c0.853,0.754,1.426,1.364,1.719,1.832c0.227,0.359,0.402,0.765,0.529,1.212c0.127,0.45,0.19,0.979,0.19,1.59
		c0,0.594-0.06,1.265-0.18,2.02c-0.307,1.943-0.93,3.434-1.869,4.474c-0.939,1.044-2.143,1.563-3.608,1.563
		c-1.307,0-2.276-0.368-2.909-1.104c-0.633-0.736-0.95-1.688-0.95-2.857c0-0.359,0.026-0.737,0.08-1.132l0.34-2.156H402.431z"/>
</g>
</svg>
