<?xml version="1.0" encoding="utf-8"?>
<!-- Generator: Adobe Illustrator 14.0.0, SVG Export Plug-In . SVG Version: 6.00 Build 43363)  -->
<!DOCTYPE svg PUBLIC "-//W3C//DTD SVG 1.0//EN" "http://www.w3.org/TR/2001/REC-SVG-20010904/DTD/svg10.dtd">
<svg version="1.0"
	 id="svg2" xmlns:sodipodi="http://sodipodi.sourceforge.net/DTD/sodipodi-0.dtd" xmlns:inkscape="http://www.inkscape.org/namespaces/inkscape" xmlns:cc="http://creativecommons.org/ns#" xmlns:rdf="http://www.w3.org/1999/02/22-rdf-syntax-ns#" xmlns:svg="http://www.w3.org/2000/svg" xmlns:dc="http://purl.org/dc/elements/1.1/" inkscape:version="0.48.1 " sodipodi:docname="Sicilian_Flag (1).svg"
	 xmlns="http://www.w3.org/2000/svg" xmlns:xlink="http://www.w3.org/1999/xlink" x="0px" y="0px" width="800px" height="530px"
	 viewBox="0 0 800 530" enable-background="new 0 0 800 530" xml:space="preserve">
<g id="g4571">
	<g id="right_leg">

			<path id="path11" inkscape:connector-curvature="0" fill="#FFC8A0" stroke="#000000" stroke-width="3" stroke-linecap="round" stroke-linejoin="round" stroke-miterlimit="10" d="
			M557.435,180.968c2.233,5.326-12.196,10.481-15.321,14.362c-3.684,4.923-19.897,19.664-20.183,24.197
			c-0.912,14.492,7.182,28.227,13.281,52.793c5.489,22.106,7.596,39.076,10.025,44.123c1.743,3.619,8.625,13.604,7.812,20.057
			c-1.041,8.281-8.289,14.795-13.541,15.398c-5.253,0.603-16.318-3.925-20.27-4.616c-3.949-0.689-41.71-5.089-61.807-13.456
			c-18.382-7.654-48.915-33.299-48.915-33.299l18.229-31.055c0,0,32.845,8.625,51.953,17.986
			c11.398,5.586,38.542,29.76,38.542,29.76s-14.063-15.396-16.537-28.854c-1.861-10.127,3.082-45.764-2.604-59.393
			c-2.225-5.333-11.806-15.01-9.375-21.738s13.021-3.881,20.053-8.152c3.812-2.315,11.83-13.868,21.919-17.425
			c8.071-2.847,10.286,0.863,13.541,0.345C549.448,178.208,555.698,176.827,557.435,180.968L557.435,180.968z"/>
	</g>
	<g id="left_leg">

			<path id="path14" inkscape:connector-curvature="0" fill="#FFC8A0" stroke="#000000" stroke-width="3" stroke-linecap="round" stroke-linejoin="round" stroke-miterlimit="10" d="
			M391.199,432.875c-7.692-1.055-1.566-14.644-3.387-19.274c-1.875-3.863-7.778-20.77-12.177-25.364
			c-10.074-10.518-29.091-8.45-53.55-15.484c-22.009-6.328-37.852-13.001-43.465-13.433c-4.025-0.31-16.83-0.795-22.046-4.719
			c-6.696-5.038-8.749-14.531-6.648-19.354c2.101-4.822,11.58-12.083,14.156-15.136c2.577-3.054,24.304-28,46.357-42.454
			c16.637-10.905,66.16-24.248,66.16-24.248l10.323,34.971c0,0-19.221,16.594-38.007,26.578
			c-20.177,10.725-58.258,20.774-58.258,20.774s21.733-5.3,34.697-0.7c9.756,3.461,38.34,25.533,53.061,27.455
			c5.76,0.752,18.982-2.654,23.632,2.801c4.648,5.454-3.127,13.147-2.922,21.334c0.112,4.438,7.055,13.088,5.111,23.551
			c-1.557,8.371-6.832,10.723-8.008,13.783C395.468,427.854,393.828,433.235,391.199,432.875L391.199,432.875z"/>
	</g>
	<g id="top_leg">

			<path id="path17" inkscape:connector-curvature="0" fill="#FFC8A0" stroke="#000000" stroke-width="3" stroke-linecap="round" stroke-linejoin="round" stroke-miterlimit="10" d="
			M246.702,173.032c4.201-4.34,9.027,2.416,18.402,7.418c7.532,4.02,33.333,5.693,38.542,2.588
			c12.529-7.47,20.71-19.547,39.068-37.081c16.521-15.776,29.214-27.111,32.398-31.725c2.282-3.311,7.162-12.812,13.19-15.339
			c7.738-3.245,17.039-0.264,20.19,3.955c3.15,4.218,7.556,15.324,8.93,19.068c1.373,3.744,10.352,24.244,13.138,50.358
			c3.284,30.775-6.568,69.477-6.568,69.477l-41.761-2.797c0,0-5.63-37.304-3.285-51.292c1.499-8.935,12.124-49.588,12.124-49.588
			s-9.754,23.802-20.245,32.66c-7.894,6.666-41.42,18.16-50.456,29.868c-3.535,4.58-6.306,16.854-14.9,17.89
			c-9.597,1.156-16.667-4.659-22.917-13.716c-6.511-1.552-14.679-4.429-21.354-8.022c-6.25-3.364-7.373-8.889-7.292-12.164
			C249.658,182.689,243.543,176.295,246.702,173.032z"/>
	</g>
	<g id="right_wing">

			<path id="path20" inkscape:connector-curvature="0" fill="#EBB437" stroke="#000000" stroke-width="2" stroke-linecap="round" stroke-linejoin="round" stroke-miterlimit="10" d="
			M423.003,257.397c-0.347,14.665,9.723,26.052,9.723,26.052s5.096-5.779,8.595-5.779c4.08,0,30.209,13.457,34.896,12.595
			c1.813-0.334-2.594-19.521-6.338-29.502c-3.559-9.489-10.156-18.547-17.447-21.825c-4.333-1.947-16.667-3.105-21.875,0.346
			C425.347,242.732,423.121,252.395,423.003,257.397L423.003,257.397z"/>
	</g>
	<g id="left_wing">

			<path id="path23" inkscape:connector-curvature="0" fill="#EBB432" stroke="#000000" stroke-width="2" stroke-linecap="round" stroke-linejoin="round" stroke-miterlimit="10" d="
			M376.249,256.88c0.054,12.509-9.321,26.741-9.321,26.741s-5.496-6.469-8.995-6.469c-4.079,0-31.543,14.664-36.23,13.801
			c-1.814-0.334,3.929-20.728,7.672-30.708c3.559-9.488,10.156-18.547,17.448-21.825c4.333-1.948,16.667-3.105,21.875,0.345
			C373.905,242.216,376.228,251.876,376.249,256.88L376.249,256.88z"/>
	</g>
	<g id="Ebene_119">
		<path id="path26" inkscape:connector-curvature="0" stroke="#000000" stroke-linecap="round" stroke-linejoin="round" d="
			M336.719,247.132c-7.7,0.299-16.52,6.906-23.52,9.39c1.2-4.77,6.609-9.538,7.808-14.307c-3.299-0.345-12.083,3.66-14.583,5.349
			c-2.2,3.678-7.726,14.062-9.896,19.84c-1.476-3.278,0.677-8.238-1.823-5.951c-2.9,2.483-8.594,10.006-15.191,12.595
			c0.694-2.674,4.691-8.892,2.691-8.195c-1.2,0.895-11.5,6.843-12.5,7.936c-1.215-2.242,2.426-5.898-0.174-6.297
			c-1.2,0.796-12.441,5.131-13.542,6.124c-1.6-1.192,4.985-5.794,3.385-6.987c-3.2,0.894-10.229,4.467-12.76,4.055
			c-0.968-0.156,4.253-3.914,1.302-3.967c-5.068-0.09-11.214,0.856-12.326-0.001c3.5-1.988,18.209-6.912,19.909-10.49
			c1.1-1.59-7.231-2.266-7.93-3.658c2.1-1.093,10.851-4.14,13.542-4.486c1-1.491,0.703-0.985,1.302-2.674
			c-3.212-1.294-9.846-0.577-11.545-0.776c3.9-2.087,15.885-6.125,21.528-6.729c-3.1-2.088-7.785-2.362-11.285-2.761
			c3.199-1.49,8.288-1.077,11.788-0.878c5.301,0.396,7.13-0.229,12.431-0.329c-3.2-1.292-6.509-2.471-9.809-3.364
			c12.966-2.199,19.531,6.729,33.579,5.282c-4.933-2.351-8.26-6.869-9.36-10.545c12.934,4.227,24.914,1.898,34.201,2.33
			c5.8,0.099,17.03,3.065,22.83,3.364c2.431-9.575,8.854-15.226,20.92-15.441c3.646-4.399,12.5-13.371,23.525-4.831
			c9.461-8.281,14.539,1.423,18.445,1.423c15.104,0,20.79,10.051,22.18,14.708c3.124-3.277,3.906-6.987,5.381-9.144
			c1.217-1.898,2.259-3.192,4.342-5.003c0.198-1.988-0.349-3.968,0.953-7.332c0.868-2.76,1.65-4.831,1.391-7.073
			c-1.39-2.33-3.906-4.744-3.561-7.937c-2.5-3.975-4.809-9.55-5.208-14.32c-0.601-8.048-0.157-10.696,1.042-18.546
			c0.781,3.451,2.04,5.321,2.431,4.831c0.857-1.077,0.175-12.13,1.129-14.147c0.955,2.33,2.994,4.679,3.731,3.019
			c0.87-1.956,0.662-12.073,1.042-14.492c0.301,0,0.984,11.13,3.387,13.111c-0.501-2.484,0.742-9.252,2.344-11.042
			c0.781,1.38,1.403,4.567,2.604,5.262c1.042-1.467,3.653-13.037,3.554-15.819c1.899,3.578,2.351,11.247,2.177,15.474
			c1.389,1.898,3.125,4.831,3.731,9.23c1.217-1.812,3.386-5.222,3.386-8.798c2.604,10.61-1.041,20.531,0.78,21.738
			c0.546-0.332,2.952-2.501,4.256-7.678c1.128,11.559-0.608,16.735-1.997,19.927c0.521,0.173,2.95-0.776,3.991-1.812
			c-1.734,6.469-5.381,12.076-11.544,14.665c-1.389,6.296-4.466,5.221-7.466,8.798c0.259,4.917-0.521,12.422-2.604,17.081
			c0.954-1.208,13.977-11.56,22.396-23.205c-0.26,7.073-3.646,14.492-7.552,21.997c-2.604,4.313-6.815,9.399-9.114,11.386
			c-5.469,5.09-11.109,9.704-17.229,11.516c-7.684,4.917-0.076,15.028-6.12,21.48c-3.517,3.752-8.463,5.306-13.802,3.494
			c0.253,4.915,2.518,10.784,8.333,15.268c-1.563,20.314-17.102,28.208-24.609,33.384c1.736,3.277,1.579,6.896,1.433,7.506
			c-0.8,2.583-0.943,1.735-0.745,4.417c1.002,4.572,4.602,7.851,8.002,10.832c-1.7-0.199-3.301-0.397-5-0.597
			c1.399,2.783,3.199,5.664,6.5,6.359c5,1.192,13.12,4.351,17.72,6.936c-4.6,2.483-12.713-0.296-17.014,2.588
			c2.431,3.105,6.787,5.726,9.894,6.477c4.797,1.292,9.896,1.592,14.797,1.393c2.1,0.101,7.597,0.846,10.028,1.709
			c7.552,2.502,11.064,5.647,16.666,9.92c-1.4-0.1-5.295-0.3-6.694-0.399c2.1,2.783,14.391,6.947,16.591,9.63
			c-3.56,0.862-6.319,2.226-3.819,4.313c2.199,1.094,7.102,2.518,9.2,3.71c-1.898-0.496-7.672,0.335-9.571-0.063
			c3.583,2.392,11.136,4.289,15.648,5.842c-3.56,1.035-11.629,0.462-13.629-0.433c1.997,2.331,3.386,3.97,5.469,5.866
			c-5.729-0.949-11.774-3.869-13.976-5.262c0.087,1.726,2.518,4.659,4.254,7.246c-2.7,0.1-14.746-5.027-16.146-6.814
			c-1.499,0.597,1.631,5.104,2.431,6.298c-3.398-0.993-10.59-6.039-12.761-7.592c0.261,2.674,0.953,5.866,0.521,6.987
			c-4.254-6.383-19.879-11.214-21.268-22.342c-2.899-1.987-4.745-3.909-5.545-7.388c-0.301-1.988-2.823-4.77-4.524-5.467
			c-0.043,6.073-1.783,15.442-2.083,15.442c-2.8-9.542-5.632-14.765-11.632-22.516c-1.909-1.727-4.004-6.881-5.903-6.384
			c-1.399,0.3-3.414,4.739-4.514,4.141c-1.959-0.164,1.572-6.212,0.348-8.108c-1.026-1.593-6.945,0.862-9.375-0.863
			c-1.601-6.161-1.455-11.596-0.955-17.856c0.5-2.286-2.518-3.795-3.038-6.987c-0.701-3.179,2.229-7.258,1.128-10.438
			c-12.413-6.124-22.179-14.018-23.481-31.356c0,0,0.998-7.376,5.599-13.846c-5.729-1.812-12.109-6.427-13.672-14.881
			c-7.682,11.516-19.922,12.811-25.781,12.293C329.948,256.017,334.896,248.642,336.719,247.132L336.719,247.132z"/>
	</g>
	<g id="Ebene_118">

			<path id="path29" inkscape:connector-curvature="0" fill="none" stroke="#000000" stroke-linecap="round" stroke-linejoin="round" stroke-miterlimit="10" d="
			M362.327,264.298c-3.299,4.917-4.081,12.769-4.081,12.769"/>
	</g>
	<g id="Ebene_117">

			<path id="path32" inkscape:connector-curvature="0" fill="none" stroke="#000000" stroke-linecap="round" stroke-linejoin="round" stroke-miterlimit="10" d="
			M358.854,259.812c-4.34,6.211-5.902,18.116-5.902,18.116"/>
	</g>
	<g id="Ebene_116">

			<path id="path35" inkscape:connector-curvature="0" fill="none" stroke="#000000" stroke-linecap="round" stroke-linejoin="round" stroke-miterlimit="10" d="
			M354.601,255.931c-5.035,8.022-7.292,24.499-7.292,24.499"/>
	</g>
	<g id="Ebene_115">

			<path id="path38" inkscape:connector-curvature="0" fill="none" stroke="#000000" stroke-linecap="round" stroke-linejoin="round" stroke-miterlimit="10" d="
			M348.438,257.741c-8.594,13.974-8.247,26.139-8.247,26.139"/>
	</g>
	<g id="Ebene_114">

			<path id="path41" inkscape:connector-curvature="0" fill="none" stroke="#000000" stroke-linecap="round" stroke-linejoin="round" stroke-miterlimit="10" d="
			M339.583,262.917c-8.594,13.629-7.552,24.499-7.552,24.499"/>
	</g>
	<g id="Ebene_113">

			<path id="path44" inkscape:connector-curvature="0" fill="none" stroke="#000000" stroke-linecap="round" stroke-linejoin="round" stroke-miterlimit="10" d="
			M435.33,266.196c3.559,4.4,4.167,11.56,4.167,11.56"/>
	</g>
	<g id="Ebene_112">

			<path id="path47" inkscape:connector-curvature="0" fill="none" stroke="#000000" stroke-linecap="round" stroke-linejoin="round" stroke-miterlimit="10" d="
			M439.323,264.471c3.385,3.882,5.469,13.631,5.469,13.631"/>
	</g>
	<g id="Ebene_111">

			<path id="path50" inkscape:connector-curvature="0" fill="none" stroke="#000000" stroke-linecap="round" stroke-linejoin="round" stroke-miterlimit="10" d="
			M443.403,260.933c5.208,6.298,7.03,19.237,7.03,19.237"/>
	</g>
	<g id="Ebene_110">

			<path id="path53" inkscape:connector-curvature="0" fill="none" stroke="#000000" stroke-linecap="round" stroke-linejoin="round" stroke-miterlimit="10" d="
			M447.482,256.017c9.636,13.457,9.982,27.086,9.982,27.086"/>
	</g>
	<g id="Ebene_109">

			<path id="path56" inkscape:connector-curvature="0" fill="none" stroke="#000000" stroke-linecap="round" stroke-linejoin="round" stroke-miterlimit="10" d="
			M457.031,259.209c8.594,13.629,8.507,27.863,8.507,27.863"/>
	</g>
	<g id="face">

			<path id="path59" inkscape:connector-curvature="0" fill="#FFC8A0" stroke="#000000" stroke-width="2" stroke-linecap="round" stroke-linejoin="round" stroke-miterlimit="10" d="
			M399.566,240.834c10.417,0,28.108,4.875,29.427,24.153c1.91,27.95-21.181,44.512-29.341,44.512
			c-9.288,0-31.076-16.217-29.167-45.289C371.742,245.103,389.316,240.834,399.566,240.834L399.566,240.834z"/>
	</g>
	<g id="Ebene_107">

			<path id="path62" inkscape:connector-curvature="0" stroke="#000000" stroke-linecap="round" stroke-linejoin="round" stroke-miterlimit="10" d="
			M419.358,270.076c0,0-3.126-1.854-6.077-1.811s-6.076,2.07-6.076,2.07s3.688,2.156,6.38,2.158
			C416.276,272.494,419.358,270.076,419.358,270.076L419.358,270.076z"/>
	</g>
	<g id="Ebene_106">

			<path id="path65" inkscape:connector-curvature="0" stroke="#000000" stroke-linecap="round" stroke-linejoin="round" stroke-miterlimit="10" d="
			M392.448,270.164c0,0-3.559-2.287-5.513-2.588c-1.953-0.301-6.64,1.553-6.64,1.553s3.603,2.76,6.033,3.02
			C388.759,272.408,392.448,270.164,392.448,270.164L392.448,270.164z"/>
	</g>
	<g id="Ebene_105">

			<path id="path68" inkscape:connector-curvature="0" fill="none" stroke="#000000" stroke-linecap="round" stroke-linejoin="round" stroke-miterlimit="10" d="
			M421.094,263.867c0,0-3.299-2.89-9.027-2.717c-5.729,0.173-8.551,3.623-9.244,5.046c-0.442,0.906-0.261,11.603,0.087,12.939
			c0.347,1.337,3.731,4.829,3.298,6.556s-2.127,0.949-3.342,1.638c-1.215,0.692-2.213,1.552-3.038,1.552
			c-1.563,0-1.779-0.906-3.472-1.422c-1.53-0.469-3.473,0-3.993-1.425c-0.518-1.415,1.605-3.192,1.605-3.192"/>
	</g>
	<g id="Ebene_104">

			<path id="path71" inkscape:connector-curvature="0" fill="none" stroke="#000000" stroke-linecap="round" stroke-linejoin="round" stroke-miterlimit="10" d="
			M393.75,264.039c0,0-2.387-2.76-7.986-2.889c-5.599-0.13-9.071,3.408-9.461,4.659c-0.39,1.251,0.478,2.501,0.478,2.501"/>
	</g>
	<g id="Ebene_103">

			<path id="path74" inkscape:connector-curvature="0" fill="none" stroke="#000000" stroke-linecap="round" stroke-linejoin="round" stroke-miterlimit="10" d="
			M420.486,274.133c0,0-3.43,3.364-7.205,3.364c-3.776,0-8.94-3.882-8.94-3.882"/>
	</g>
	<g id="Ebene_102">

			<path id="path77" inkscape:connector-curvature="0" fill="none" stroke="#000000" stroke-linecap="round" stroke-linejoin="round" stroke-miterlimit="10" d="
			M392.926,274.52c0,0-4.341,2.848-7.118,2.848c-2.778,0-4.515-1.078-4.515-1.078"/>
	</g>
	<g id="Ebene_101">
		<g id="g80">
			<path id="path82" inkscape:connector-curvature="0" d="M399.479,296.949c-0.89,0-2.36-0.643-2.36-0.643
				c-1.003-0.112-3.933-0.049-5.517-0.351c-1.685-0.321-3.736-1.935-3.928-2.199c-0.167-0.231,0.373-0.685,0.606-0.852
				c0.235-0.166,0.683-0.165,0.728,0.118c0.163,1.035,1.908,2.012,2.789,2.157c2.344,0.389,5.625-0.983,5.755-0.886l1.919,0.44
				l1.895-0.497c0.122-0.1,3.802,1.07,6.492,0.854c0.827-0.064,2.474-0.927,2.851-2.094c0.087-0.271,0.51-0.256,0.733-0.075
				c0.223,0.181,0.59,0.698,0.407,0.921c-0.207,0.252-2.147,1.659-3.797,2.047c-1.485,0.352-4.927,0.324-6.25,0.498
				C401.802,296.389,400.521,296.949,399.479,296.949L399.479,296.949z"/>
		</g>
	</g>
	<g id="Ebene_100">

			<path id="path85" inkscape:connector-curvature="0" fill="none" stroke="#000000" stroke-width="1.5" stroke-linecap="round" stroke-linejoin="round" stroke-miterlimit="10" d="
			M404.688,299.752c0,0-3.449,1.488-5.077,1.488c-2.02,0-5.426-1.488-5.426-1.488"/>
	</g>
	<g id="Ebene_99">

			<path id="path88" inkscape:connector-curvature="0" fill="#EBB437" stroke="#EBB437" stroke-width="0.5" stroke-linecap="round" stroke-linejoin="round" stroke-miterlimit="10" d="
			M429.167,230.181c-0.868,0.042-2.344-2.63-2.344-4.659c0-2.027-0.173-3.882-1.649-5.348c-1.13-1.122-3.212-1.293-4.86-1.229
			c-1.649,0.064-4.774,0.54-4.817-1.165c-0.044-1.704,3.017-3.731,6.163-3.731c3.146,0,5.814,1.79,6.987,3.451
			c1.172,1.661,1.966,4.596,2.041,6.254C430.772,225.652,430.587,230.111,429.167,230.181L429.167,230.181z"/>
	</g>
	<g id="Ebene_98">

			<path id="path91" inkscape:connector-curvature="0" fill="#EBB437" stroke="#EBB437" stroke-width="0.5" stroke-linecap="round" stroke-linejoin="round" stroke-miterlimit="10" d="
			M378.125,218.169c0.26,0.885-6.242,4.844-8.203,6.211c-3.06,2.135-5.815,4.853-5.208,8.476c0.476,2.84,2.57,4.239,4.427,4.7
			c2.604,0.647,5.946-0.258,5.946-0.258s0.282,1.661,1.389,2.373c1.107,0.711,3.472,1.595,3.472,1.595s-4.362,1.876-9.375,1.618
			c-5.013-0.259-9.57-3.365-9.961-7.7c-0.391-4.334,0.261-7.569,2.604-10.545c1.598-2.029,4.752-4.659,7.552-5.758
			C372.932,218.03,377.865,217.285,378.125,218.169z"/>
	</g>
	<g id="Ebene_97">

			<path id="ellipse94" sodipodi:ry="1.1390001" sodipodi:rx="2.4089999" sodipodi:cy="234.147" sodipodi:cx="377.539" fill="#EBB437" stroke="#EBB437" stroke-width="0.5" stroke-linecap="round" stroke-linejoin="round" stroke-miterlimit="10" d="
			M378.153,233.968c-1.115,0.722-2.297,0.882-2.64,0.358s0.282-1.533,1.397-2.255c1.115-0.722,2.297-0.882,2.641-0.358
			S379.269,233.247,378.153,233.968z"/>
	</g>
	<g id="Ebene_96">

			<path id="path97" inkscape:connector-curvature="0" fill="#EBB437" stroke="#EBB437" stroke-width="0.5" stroke-linecap="round" stroke-linejoin="round" stroke-miterlimit="10" d="
			M391.602,225.544c0,0-6.185-0.065-8.333,1.552c-1.807,1.36-2.213,2.587-1.823,3.494c0.391,0.906,1.758,1.747,4.492,0.647
			C389.048,229.987,391.602,225.544,391.602,225.544z"/>
	</g>
	<g id="Ebene_95">

			<path id="ellipse100" sodipodi:ry="2.4089999" sodipodi:rx="5.013" sodipodi:cy="222.461" sodipodi:cx="391.08099" fill="#EBB437" stroke="#EBB437" stroke-width="0.5" stroke-linecap="round" stroke-linejoin="round" stroke-miterlimit="10" d="
			M391.869,223.663c-2.614,0.907-5.088,0.63-5.527-0.618c-0.438-1.249,1.325-2.996,3.938-3.903c2.614-0.907,5.088-0.63,5.527,0.618
			C396.246,221.009,394.482,222.756,391.869,223.663z"/>
	</g>
	<g id="Ebene_94">

			<path id="path103" inkscape:connector-curvature="0" fill="#EBB437" stroke="#EBB437" stroke-width="0.5" stroke-linecap="round" stroke-linejoin="round" stroke-miterlimit="10" d="
			M398.503,216.487c1.822-2.006-0.679-6.405-6.532-6.405c-5.469,0-10.606,8.384-11.927,9.824c-2.182,2.38-6.627,6.547-11.445,9.44
			c-2.909,2.021,0.086,5.449,2.755,4.997c1.099-0.187,8.326-6.621,10.091-8.54c2.083-2.265,4.439-5.603,5.403-6.987
			c1.172-1.682,3.3-3.688,4.818-3.688C394.987,215.128,397.023,218.114,398.503,216.487L398.503,216.487z"/>
	</g>
	<g id="Ebene_93">

			<path id="path106" inkscape:connector-curvature="0" fill="#EBB437" stroke="#EBB437" stroke-width="0.5" stroke-linecap="round" stroke-linejoin="round" stroke-miterlimit="10" d="
			M414.714,214.869c0.718-1.292-0.087-4.141-5.426-4.141c-4.688,0-9.802,8.735-10.785,10.352c-1.628,2.674-3.624,6.427-8.442,9.705
			c4.948,0.259,8.052,0,8.052,0s2.994-2.652,4.166-4.917s2.147-5.693,3.061-7.052c0.911-1.358,2.233-2.886,3.58-3.234
			C410.417,215.193,413.672,216.745,414.714,214.869z"/>
	</g>
	<g id="Ebene_92">

			<path id="path109" inkscape:connector-curvature="0" fill="#EBB437" stroke="#EBB437" stroke-width="0.5" stroke-linecap="round" stroke-linejoin="round" stroke-miterlimit="10" d="
			M409.549,217.759c0.607-0.776,3.517,0.518,4.036,1.035c0.521,0.518,2.562,5.349,4.904,6.944c2.344,1.596,4.818,2.157,5.687,2.545
			c0.868,0.388,2.562,3.063,2.388,4.572c-0.175,1.509-5.47,4.917-5.47,4.917s0.869-4.659-1.996-6.513
			c-2.276-1.474-6.511-0.992-8.029-1.251c-1.52-0.258-6.555-2.027-6.511-3.45c0.043-1.424,2.127-4.744,2.127-4.744
			s3.992,3.881,4.947,2.89C412.588,223.711,408.941,218.536,409.549,217.759z"/>
	</g>
	<g id="Ebene_91">

			<path id="path112" inkscape:connector-curvature="0" fill="#EBB437" stroke="#EBB437" stroke-linecap="round" stroke-linejoin="round" stroke-miterlimit="10" d="
			M418.74,234.939c-0.036-0.937-6.027-2.897-8.943-2.946c-2.915-0.049-7.178,0.825-7.581,2.656c-0.341,1.545,3.5,4.588,4.715,4.588
			c1.214,0,1.991-2.464,3.838-2.995C412.615,235.711,418.837,237.547,418.74,234.939L418.74,234.939z"/>
	</g>
	<g id="Ebene_90">

			<path id="path115" inkscape:connector-curvature="0" fill="#EBB437" stroke="#000000" stroke-width="2" stroke-linecap="round" stroke-linejoin="round" stroke-miterlimit="10" d="
			M419.271,249.806c-3.622,0.496-10.631-0.796-13.541-2.976c-1.74-1.303-9.434-8.509-13.281-9.188
			c-4.492-0.792-10.417,5.435-14.695,0.796c-1.845-2,3.755-4.164,6.103-4.793c2.347-0.629,9.114-1.695,11.978-0.919
			c2.864,0.775,9.007,6.149,11.589,8.328C410.003,243.232,417.448,248.339,419.271,249.806L419.271,249.806z"/>
	</g>
	<g id="Ebene_89">

			<path id="path118" inkscape:connector-curvature="0" fill="#EBB437" stroke="#EBB437" stroke-width="0.5" stroke-linecap="round" stroke-linejoin="round" stroke-miterlimit="10" d="
			M433.724,220.627c2.084-0.453,3.062,5.758,3.19,8.734c0.129,2.976-0.911,9.316-1.953,9.316s-1.692-1.812-1.692-1.812
			s1.106-4.077-0.911-5.888c0.391-1.552,0.977-2.976,0.78-4.981C432.942,223.992,432.323,220.932,433.724,220.627L433.724,220.627z"
			/>
	</g>
	<g id="Ebene_88">

			<path id="path121" inkscape:connector-curvature="0" fill="#EBB437" stroke="#000000" stroke-linecap="round" stroke-linejoin="round" stroke-miterlimit="10" d="
			M431.572,232.005c3.386,1.31-3.728,9.794-5.27,10.699c-3.022,1.774-11.971,2.299-13.979,1.29
			c-2.341-1.175-5.641-4.108-5.641-4.108s11.246,1.809,15.538,0.085C427.18,237.983,429.486,231.198,431.572,232.005
			L431.572,232.005z"/>
	</g>
	<g id="Ebene_87">

			<path id="ellipse124" sodipodi:ry="3.971" sodipodi:rx="1.931" sodipodi:cy="244.77" sodipodi:cx="433.52899" fill="#EBB437" stroke="#EBB437" stroke-width="0.5" stroke-linecap="round" stroke-linejoin="round" stroke-miterlimit="10" d="
			M431.502,240.168c0.921-0.535,2.564,0.557,3.671,2.438s1.258,3.84,0.337,4.375s-2.564-0.557-3.671-2.438
			S430.582,240.703,431.502,240.168z"/>
	</g>
	<g id="Ebene_86">

			<path id="ellipse127" sodipodi:ry="2.082" sodipodi:rx="1.541" sodipodi:cy="246.26801" sodipodi:cx="428.32199" fill="#EBB437" stroke="#EBB437" stroke-width="0.5" stroke-linecap="round" stroke-linejoin="round" stroke-miterlimit="10" d="
			M427.233,243.293c0.724-0.445,1.801-0.018,2.405,0.954c0.605,0.972,0.509,2.121-0.215,2.565c-0.725,0.445-1.802,0.018-2.406-0.955
			C426.413,244.887,426.509,243.738,427.233,243.293z"/>
	</g>
	<g id="Ebene_85">

			<path id="path130" inkscape:connector-curvature="0" fill="#EBB437" stroke="#EBB437" stroke-width="0.5" stroke-linecap="round" stroke-linejoin="round" stroke-miterlimit="10" d="
			M439.41,229.146c-0.044,5.306-1.997,9.705-1.866,11.128c0.13,1.423,1.563,2.544,3.038,3.407c1.477,0.864,3.386,1.552,3.906,1.078
			s0.607-2.027,0.131-2.89c-0.479-0.863-2.258-1.078-2.692-2.458c-0.434-1.379,0.044-2.977-0.26-4.917
			C441.362,232.554,440.063,229.966,439.41,229.146L439.41,229.146z"/>
	</g>
	<g id="Ebene_84">

			<path id="path133" inkscape:connector-curvature="0" fill="#EBB437" stroke="#000000" stroke-width="2" stroke-linecap="round" stroke-linejoin="round" stroke-miterlimit="10" d="
			M413.629,244.976c2.275,0.104,8.371-0.89,9.636-0.172c1.267,0.716,5.497,6.888,5.902,8.625c0.403,1.739,0.057,4.399-1.057,5.677
			C423.698,254.981,417.622,247.65,413.629,244.976z"/>
	</g>
	<g id="Ebene_83">

			<path id="path136" inkscape:connector-curvature="0" fill="#EBB437" stroke="#EBB437" stroke-width="0.5" stroke-linecap="round" stroke-linejoin="round" stroke-miterlimit="10" d="
			M430.599,248.469c-1.995,0.518,1.042,5.952,0.912,7.246c-0.131,1.294-2.04,2.889-1.996,3.537s3.992,3.321,6.423,3.321
			c1.998,0,5.989-3.062,6.642-4.528s1.302-4.96,0.825-7.505c-0.479-2.545-4.603-5.218-4.603-5.218s-1.084,2.07-1.128,3.666
			c-0.044,1.595,1.259,3.537,1.434,4.831c0.174,1.294-0.738,3.538-1.217,4.097c-0.478,0.561-3.081,1.122-3.861,0.518
			c-0.781-0.604,1.647-3.321,1.647-5.348C435.677,251.273,432.595,247.951,430.599,248.469L430.599,248.469z"/>
	</g>
	<g id="Ebene_82">

			<path id="path139" inkscape:connector-curvature="0" fill="#EBB437" stroke="#000000" stroke-width="2" stroke-linecap="round" stroke-linejoin="round" stroke-miterlimit="10" d="
			M393.75,238.419c2.212,0,6.25,4.141,6.25,4.141s-6.666,3.713-9.859,4.507c-3.195,0.794-8.497,1.11-11.55,2.044
			c-3.053,0.935-5.785,8.32-8.557,8.18s-1.926-4.808-1.926-4.808s0.799-5.183,4.321-7.236c3.523-2.054,9.208-2.101,12.824-2.847
			C388.871,241.65,390.509,238.419,393.75,238.419L393.75,238.419z"/>
	</g>
	<g id="Ebene_81">

			<path id="path142" inkscape:connector-curvature="0" fill="#EBB437" stroke="#EBB437" stroke-width="0.5" stroke-linecap="round" stroke-linejoin="round" stroke-miterlimit="10" d="
			M367.274,245.751c0,0-0.737,3.408-1.605,3.925c-0.869,0.518-5.339-4.485-5.208-6.815
			C360.591,240.526,367.274,245.751,367.274,245.751L367.274,245.751z"/>
	</g>
	<g id="Ebene_80">

			<path id="ellipse145" sodipodi:ry="2.684" sodipodi:rx="1.012" sodipodi:cy="253.877" sodipodi:cx="364.13199" fill="#EBB437" stroke="#EBB437" stroke-width="0.5" stroke-linecap="round" stroke-linejoin="round" stroke-miterlimit="10" d="
			M362.457,250.511c0.439-0.343,1.539,0.317,2.455,1.475s1.303,2.375,0.864,2.718c-0.439,0.343-1.538-0.317-2.455-1.474
			C362.405,252.072,362.018,250.854,362.457,250.511z"/>
	</g>
	<g id="Ebene_79">

			<path id="path148" inkscape:connector-curvature="0" fill="#EBB437" stroke="#000000" stroke-linecap="round" stroke-linejoin="round" stroke-miterlimit="10" d="
			M359.299,245.57c-1.897-1.306-2.918,1.736-2.918,4.351c0,3.142,1.605,6.623,4.329,9.571c2.724,2.949,9.343,4.634,9.343,4.634
			l0.911-5.521c0,0-6.162,0.167-9.038-3.367C359.25,251.951,361.196,246.875,359.299,245.57L359.299,245.57z"/>
	</g>
	<g id="Ebene_78">

			<path id="path151" inkscape:connector-curvature="0" fill="#EBB437" stroke="#EBB437" stroke-width="0.5" stroke-linecap="round" stroke-linejoin="round" stroke-miterlimit="10" d="
			M359.375,240.015c-3.646,2.545-5.078,7.462-5.078,7.462s-1.78-6.814-1.736-9.445c0.043-2.631,1.649-5.909,3.646-5.736
			C358.203,232.467,357.509,237.384,359.375,240.015z"/>
	</g>
	<g id="Ebene_77">

			<path id="path154" inkscape:connector-curvature="0" fill="#EBB437" stroke="#EBB437" stroke-width="0.5" stroke-linecap="round" stroke-linejoin="round" stroke-miterlimit="10" d="
			M347.57,241.439c2.344,0,3.385,7.677,3.298,8.885c-0.087,1.208-3.125,4.83-6.597,6.987c-3.473,2.156-8.637,3.538-10.156,2.329
			c-1.52-1.208,2.167-8.133,4.297-10.912C340.625,245.838,345.226,241.439,347.57,241.439L347.57,241.439z"/>
	</g>
	<g id="Ebene_76">

			<path id="path157" inkscape:connector-curvature="0" fill="#EBB437" stroke="#EBB437" stroke-width="0.5" stroke-linecap="round" stroke-linejoin="round" stroke-miterlimit="10" d="
			M428.581,278.467c0.3,1.029,1.643,1.156,3.301,0.679s2.208-1.914,1.907-2.942c-0.3-1.029-1.338-1.264-2.996-0.786
			S428.279,277.438,428.581,278.467L428.581,278.467z"/>
	</g>
	<g id="Ebene_75">

			<path id="path160" inkscape:connector-curvature="0" fill="#EBB437" stroke="#EBB437" stroke-width="0.5" stroke-linecap="round" stroke-linejoin="round" stroke-miterlimit="10" d="
			M435.026,280.602c0,0-3.973,1.488-6.901,1.381c0,0.819-1.823,4.227-1.823,4.227s6.315,0.26,7.813-1.078
			C435.612,283.793,435.026,280.602,435.026,280.602z"/>
	</g>
	<g id="Ebene_74">

			<path id="path163" inkscape:connector-curvature="0" fill="#EBB437" stroke="#EBB437" stroke-width="0.5" stroke-linecap="round" stroke-linejoin="round" stroke-miterlimit="10" d="
			M435.156,287.461c0,0-6.38,1.164-9.637,0.732c-0.194,0.948-1.302,2.242-1.302,2.242s4.731,3.623,7.031,2.717
			C433.55,292.247,435.156,287.461,435.156,287.461L435.156,287.461z"/>
	</g>
	<g id="Ebene_73">

			<path id="path166" inkscape:connector-curvature="0" fill="#EBB437" stroke="#EBB437" stroke-width="0.5" stroke-linecap="round" stroke-linejoin="round" stroke-miterlimit="10" d="
			M430.469,295.224c0,0-5.402-1.036-7.747-2.46c-0.456,1.165-1.822,2.588-1.822,2.588s2.474,3.17,4.883,3.105
			S430.469,295.224,430.469,295.224z"/>
	</g>
	<g id="Ebene_72">

			<path id="path169" inkscape:connector-curvature="0" fill="#EBB437" stroke="#EBB437" stroke-width="0.5" stroke-linecap="round" stroke-linejoin="round" stroke-miterlimit="10" d="
			M426.302,300.27c0,0-5.664-1.295-7.096-2.394c-0.456,0.905-2.865,3.17-2.865,3.17s2.084,2.522,4.232,2.329
			C422.721,303.182,426.302,300.27,426.302,300.27z"/>
	</g>
	<g id="Ebene_71">

			<path id="path172" inkscape:connector-curvature="0" fill="#EBB437" stroke="#EBB437" stroke-width="0.5" stroke-linecap="round" stroke-linejoin="round" stroke-miterlimit="10" d="
			M414.192,303.245l5.858,2.2c0,0-3.188,2.782-5.989,2.911c-2.8,0.13-3.841-1.617-3.841-1.617L414.192,303.245z"/>
	</g>
	<g id="Ebene_70">

			<path id="path175" inkscape:connector-curvature="0" fill="#EBB437" stroke="#EBB437" stroke-width="0.5" stroke-linecap="round" stroke-linejoin="round" stroke-miterlimit="10" d="
			M370.182,274.908c0.13,1.553-0.719,1.286-2.377,0.809c-1.658-0.479-2.758-1.701-2.457-2.73c0.3-1.028,1.483-1.273,3.142-0.796
			C370.147,272.67,370.093,273.841,370.182,274.908L370.182,274.908z"/>
	</g>
	<g id="Ebene_69">

			<path id="path178" inkscape:connector-curvature="0" fill="#EBB437" stroke="#EBB437" stroke-width="0.5" stroke-linecap="round" stroke-linejoin="round" stroke-miterlimit="10" d="
			M364.193,275.943c0,0,3.27,3.326,7.319,3.983c-0.154,0.806,1.405,4.946,1.405,4.946s-5.745-1.336-7.552-3.041
			C363.558,280.127,364.193,275.943,364.193,275.943z"/>
	</g>
	<g id="Ebene_68">

			<path id="path181" inkscape:connector-curvature="0" fill="#EBB437" stroke="#EBB437" stroke-width="0.5" stroke-linecap="round" stroke-linejoin="round" stroke-miterlimit="10" d="
			M365.365,285.26c0,0,4.968,1.807,8.919,2.847c0.261,1.295,1.367,3.753,1.367,3.753s-5.664,0.582-7.422-0.519
			C365.679,289.746,365.365,285.26,365.365,285.26L365.365,285.26z"/>
	</g>
	<g id="Ebene_67">

			<path id="path184" inkscape:connector-curvature="0" fill="#EBB437" stroke="#EBB437" stroke-width="0.5" stroke-linecap="round" stroke-linejoin="round" stroke-miterlimit="10" d="
			M369.271,294.059c0,0,5.507,0.668,8.594,0.776c0.13,1.099,2.083,3.041,2.083,3.041s-4.098,2.539-6.51,1.099
			C371.025,297.536,369.271,294.059,369.271,294.059z"/>
	</g>
	<g id="Ebene_66">

			<path id="path187" inkscape:connector-curvature="0" fill="#EBB437" stroke="#EBB437" stroke-width="0.5" stroke-linecap="round" stroke-linejoin="round" stroke-miterlimit="10" d="
			M375.781,301.693c0,0,4.492-0.971,5.924-2.07c0.456,0.905,2.344,2.717,2.344,2.717s-1.953,2.395-4.102,2.2
			C377.798,304.346,375.781,301.693,375.781,301.693L375.781,301.693z"/>
	</g>
	<g id="Ebene_65">

			<path id="path190" inkscape:connector-curvature="0" fill="#EBB437" stroke="#EBB437" stroke-width="0.5" stroke-linecap="round" stroke-linejoin="round" stroke-miterlimit="10" d="
			M386.198,304.734l-3.634,1.552c0,0,1.028,2.042,3.829,2.135c1.953,0.063,2.799-1.425,2.799-1.425L386.198,304.734L386.198,304.734
			z"/>
	</g>
	<g id="Ebene_64">

			<path id="path193" inkscape:connector-curvature="0" fill="#EBB437" stroke="#EBB437" stroke-width="0.5" stroke-linecap="round" stroke-linejoin="round" stroke-miterlimit="10" d="
			M408.203,308.422c-2.214,1.811-5.859,2.652-5.859,2.652s7.489,12.031,9.637,9.898
			C415.234,317.738,410.677,310.233,408.203,308.422L408.203,308.422z"/>
	</g>
	<g id="Ebene_63">

			<path id="path196" inkscape:connector-curvature="0" fill="#EBB437" stroke="#EBB437" stroke-width="0.5" stroke-linecap="round" stroke-linejoin="round" stroke-miterlimit="10" d="
			M397.331,311.722c0,0-1.889,1.682-3.386,2.459c3.125,1.424,7.683,9.445,9.114,5.822
			C404.492,316.38,397.331,311.722,397.331,311.722L397.331,311.722z"/>
	</g>
	<g id="Ebene_62">

			<path id="path199" inkscape:connector-curvature="0" fill="#EBB437" stroke="#EBB437" stroke-width="0.5" stroke-linecap="round" stroke-linejoin="round" stroke-miterlimit="10" d="
			M405.339,321.167c0,0-1.209,2.554-0.977,4.011c0.586,3.688,9.113,8.023,9.18,4.788
			C413.606,326.73,405.339,321.167,405.339,321.167z"/>
	</g>
	<g id="Ebene_61">

			<path id="path202" inkscape:connector-curvature="0" fill="#EBB437" stroke="#EBB437" stroke-width="0.5" stroke-linecap="round" stroke-linejoin="round" stroke-miterlimit="10" d="
			M391.211,308.551l2.93,1.812c0,0-2.019,3.364-4.297,2.329C387.565,311.656,391.211,308.551,391.211,308.551z"/>
	</g>
	<g id="Ebene_60">

			<ellipse id="ellipse205" sodipodi:ry="3.9389999" sodipodi:rx="2.8970001" sodipodi:cy="321.32101" sodipodi:cx="391.11301" fill="#EBB437" stroke="#EBB437" stroke-width="0.5" stroke-linecap="round" stroke-linejoin="round" stroke-miterlimit="10" cx="391.113" cy="319.646" rx="2.897" ry="3.915">
		</ellipse>
	</g>
	<g id="Ebene_59">

			<path id="path208" inkscape:connector-curvature="0" fill="#EBB437" stroke="#EBB437" stroke-width="0.5" stroke-linecap="round" stroke-linejoin="round" stroke-miterlimit="10" d="
			M397.136,320.908c-0.781,1.229-1.953,3.042-1.953,3.042s1.758,2.846,2.278,5.498c1.433,0.13,3.19-1.294,3.19-3.882
			C400.651,323.755,398.308,321.038,397.136,320.908z"/>
	</g>
	<g id="Ebene_58">

			<path id="path211" inkscape:connector-curvature="0" fill="#EBB437" stroke="#EBB437" stroke-width="0.5" stroke-linecap="round" stroke-linejoin="round" stroke-miterlimit="10" d="
			M403.19,328.995l-1.237,1.487c0,0,2.995,6.276,4.883,8.476C408.138,332.359,403.19,328.995,403.19,328.995L403.19,328.995z"/>
	</g>
	<g id="Ebene_57">

			<path id="path214" inkscape:connector-curvature="0" fill="#EBB437" stroke="#EBB437" stroke-width="0.5" stroke-linecap="round" stroke-linejoin="round" stroke-miterlimit="10" d="
			M409.766,333.848c-0.456,0.776-0.324,4.14,0.456,5.887c0.781,1.747,4.112,5.278,6.836,6.147c5.47,1.747,17.708,0.971,17.708,0.971
			s-10.025-4.27-14.714-6.729c-3.768-1.976-6.25-6.663-6.25-6.663S410.222,333.071,409.766,333.848L409.766,333.848z"/>
	</g>
	<g id="Ebene_56">

			<path id="path217" inkscape:connector-curvature="0" fill="#EBB437" stroke="#EBB437" stroke-width="0.5" stroke-linecap="round" stroke-linejoin="round" stroke-miterlimit="10" d="
			M392.513,325.696c-1.562,0-2.669,1.681-2.669,3.751c0,1.553,1.433,4.788,3.255,4.917c1.823,0.129,2.019-4.141,2.019-4.141
			S394.075,325.696,392.513,325.696z"/>
	</g>
	<g id="Ebene_55">

			<path id="path220" inkscape:connector-curvature="0" fill="#EBB437" stroke="#EBB437" stroke-width="0.5" stroke-linecap="round" stroke-linejoin="round" stroke-miterlimit="10" d="
			M399.284,331.583c0,0-1.722,2.23-1.367,4.141c0.911,4.917,5.823,12.755,8.203,14.945c2.669,2.458,5.338,6.656,6.25,8.087
			c2.474,3.882,7.161,13.717,7.161,13.717s0.521-7.246-1.303-12.681c-0.634-1.891-3.842-6.146-5.209-8.023
			c-1.366-1.876-4.491-4.27-6.574-7.116C404.362,341.807,399.284,331.583,399.284,331.583L399.284,331.583z"/>
	</g>
	<g id="Ebene_54">

			<path id="path223" inkscape:connector-curvature="0" fill="#EBB437" stroke="#EBB437" stroke-width="0.5" stroke-linecap="round" stroke-linejoin="round" stroke-miterlimit="10" d="
			M395.312,336.5c0.391,2.977,2.734,6.471,2.734,6.471s-4.569,0.061-5.859-2.007c-1.172-1.876-0.521-4.076-0.521-4.076
			S393.62,336.694,395.312,336.5L395.312,336.5z"/>
	</g>
	<g id="Ebene_53">

			<path id="path226" inkscape:connector-curvature="0" fill="#EBB437" stroke="#EBB437" stroke-linecap="round" stroke-linejoin="round" stroke-miterlimit="10" d="
			M415.625,349.634c-1.692,1.229,11.676,13.005,16.494,24.393c0.846-0.324,4.144-4.078,5.056-8.8
			c2.148,1.035,4.883,1.552,8.072,1.747c3.189,0.193,7.748-0.194,7.748-0.194s-1.758-5.563-5.469-6.6
			c-3.711-1.035-7.554,0.519-10.809-0.129C433.464,359.403,416.676,348.87,415.625,349.634L415.625,349.634z"/>
	</g>
	<g id="Ebene_52">

			<path id="path229" inkscape:connector-curvature="0" fill="#EBB437" stroke="#EBB437" stroke-linecap="round" stroke-linejoin="round" stroke-miterlimit="10" d="
			M453.19,361.926l3.319,4.917l5.403,0.13c0,0-1.106-3.041-3.711-4.399C456.938,361.913,453.19,361.926,453.19,361.926"/>
	</g>
	<g id="Ebene_51">

			<polygon id="polygon232" fill="#EBB437" stroke="#EBB437" stroke-linecap="round" stroke-linejoin="round" stroke-miterlimit="10" points="
			459.896,372.73 455.599,369.302 449.023,369.302 452.669,372.667 		"/>
	</g>
	<g id="Ebene_50">

			<polygon id="polygon235" fill="#EBB437" stroke="#EBB437" stroke-linecap="round" stroke-linejoin="round" stroke-miterlimit="10" points="
			460.938,369.173 465.3,373.378 471.028,373.637 465.82,369.107 		"/>
	</g>
	<g id="Ebene_49">

			<polygon id="polygon238" fill="#EBB437" stroke="#EBB437" stroke-linecap="round" stroke-linejoin="round" stroke-miterlimit="10" points="
			448.698,372.796 444.661,369.302 438.997,369.107 444.466,374.413 448.828,374.801 		"/>
	</g>
	<g id="Ebene_48">

			<polygon id="polygon241" fill="#EBB437" stroke="#EBB437" stroke-linecap="round" stroke-linejoin="round" stroke-miterlimit="10" points="
			442.253,376.225 437.109,372.278 434.7,375.577 438.606,379.912 442.903,380.3 		"/>
	</g>
	<g id="Ebene_47">

			<polygon id="polygon244" fill="#EBB437" stroke="#EBB437" stroke-linecap="round" stroke-linejoin="round" stroke-miterlimit="10" points="
			451.823,380.365 448.958,377.065 445.833,377.065 445.703,380.559 449.284,383.6 451.888,383.471 		"/>
	</g>
	<g id="Ebene_46">

			<polygon id="polygon247" fill="#EBB437" stroke="#EBB437" stroke-linecap="round" stroke-linejoin="round" stroke-miterlimit="10" points="
			448.894,387.158 444.466,382.565 441.016,382.759 441.146,385.347 446.55,389.875 448.894,389.811 		"/>
	</g>
	<g id="Ebene_45">

			<polygon id="polygon250" fill="#EBB437" stroke="#EBB437" stroke-linecap="round" stroke-linejoin="round" stroke-miterlimit="10" points="
			459.31,377.776 455.925,375.189 452.278,375.124 452.344,377 455.729,379.912 459.44,379.977 		"/>
	</g>
	<g id="Ebene_44">

			<polygon id="polygon253" fill="#EBB437" stroke="#EBB437" stroke-linecap="round" stroke-linejoin="round" stroke-miterlimit="10" points="
			467.253,375.448 461.263,375.577 467.708,379.783 470.703,379.783 470.703,377.713 		"/>
	</g>
	<g id="Ebene_43">

			<polygon id="polygon256" fill="#EBB437" stroke="#EBB437" stroke-linecap="round" stroke-linejoin="round" stroke-miterlimit="10" points="
			468.555,383.405 464.258,379.523 461.653,379.46 461.914,382.177 464.844,385.605 468.489,385.8 		"/>
	</g>
	<g id="Ebene_42">

			<polygon id="polygon259" fill="#EBB437" stroke="#EBB437" stroke-linecap="round" stroke-linejoin="round" stroke-miterlimit="10" points="
			456.511,385.864 456.445,383.082 459.896,383.276 463.802,387.353 463.672,390.587 460.286,390.198 		"/>
	</g>
	<g id="Ebene_41">

			<polygon id="polygon262" fill="#EBB437" stroke="#EBB437" stroke-linecap="round" stroke-linejoin="round" stroke-miterlimit="10" points="
			453.255,386.641 451.042,386.576 454.102,390.78 457.422,390.976 453.841,384.569 		"/>
	</g>
	<g id="Ebene_40">

			<polygon id="polygon265" fill="#EBB437" stroke="#EBB437" stroke-linecap="round" stroke-linejoin="round" stroke-miterlimit="10" points="
			479.231,381.788 475.456,378.424 472.917,378.489 472.852,381.659 476.367,383.794 479.297,384.376 		"/>
	</g>
	<g id="Ebene_39">

			<polygon id="polygon268" fill="#EBB437" stroke="#EBB437" stroke-linecap="round" stroke-linejoin="round" stroke-miterlimit="10" points="
			472.461,391.169 468.425,387.935 465.82,387.999 465.82,390.78 469.856,393.563 472.786,393.629 		"/>
	</g>
	<g id="Ebene_38">

			<polygon id="polygon271" fill="#EBB437" stroke="#EBB437" stroke-linecap="round" stroke-linejoin="round" stroke-miterlimit="10" points="
			479.362,388.84 473.633,384.117 470.898,384.053 470.964,387.093 476.237,390.911 480.013,391.233 		"/>
	</g>
	<g id="Ebene_37">

			<path id="path274" inkscape:connector-curvature="0" fill="#EBB437" stroke="#EBB437" stroke-linecap="round" stroke-linejoin="round" stroke-miterlimit="10" d="
			M479.167,201.845c-14.323,16.908-33.767,32.089-33.767,32.089s2.836,2.584,6.855,1.553c5.382-1.38,16.902-15.046,19.618-18.719
			C475,212.541,477.778,207.192,479.167,201.845z"/>
	</g>
	<g id="Ebene_36">

			<path id="path277" inkscape:connector-curvature="0" fill="#EBB437" stroke="#EBB437" stroke-linecap="round" stroke-linejoin="round" stroke-miterlimit="10" d="
			M452.171,216.249c0.607,1.725,1.042,5.952,0.347,7.678c-0.693,1.725-8.507,7.419-8.507,7.419l-0.606-3.538
			C443.403,227.809,448.958,222.288,452.171,216.249z"/>
	</g>
	<g id="Ebene_35">

			<path id="path280" inkscape:connector-curvature="0" fill="#EBB437" stroke="#EBB437" stroke-linecap="round" stroke-linejoin="round" stroke-miterlimit="10" d="
			M468.229,191.665c-3.43,0.453-11.153,0.582-14.409,0c-0.479,2.48,3.111,5.352,2.95,7.246c-0.304,3.58-2.56,7.009-2.775,9.834
			c-0.218,2.826,1.909,11.732,1.909,11.732s3.429-5.025,4.514-8.799c1.084-3.774,0.565-9.251,1.129-11.473
			C462.109,197.983,468.599,196.193,468.229,191.665L468.229,191.665z"/>
	</g>
	<g id="Ebene_34">

			<path id="path283" inkscape:connector-curvature="0" fill="#EBB437" stroke="#EBB437" stroke-linecap="round" stroke-linejoin="round" stroke-miterlimit="10" d="
			M475.325,177.345l-5.533,5.111v6.729c0,0,4.036-2.782,5.143-5.24C475.661,182.332,475.325,177.345,475.325,177.345
			L475.325,177.345z"/>
	</g>
	<g id="Ebene_33">

			<path id="path286" inkscape:connector-curvature="0" fill="#EBB437" stroke="#EBB437" stroke-linecap="round" stroke-linejoin="round" stroke-miterlimit="10" d="
			M467.317,181.421c0,0,0.391,5.953-0.586,7.117c-0.978,1.165-2.345,0.582-2.345,0.582l-0.13-5.564L467.317,181.421z"/>
	</g>
	<g id="Ebene_32">

			<path id="path289" inkscape:connector-curvature="0" fill="#EBB437" stroke="#EBB437" stroke-linecap="round" stroke-linejoin="round" stroke-miterlimit="10" d="
			M461.458,188.667l-0.064-8.798c0,0-2.67,0.776-2.67,2.394C458.724,183.88,461.458,188.667,461.458,188.667z"/>
	</g>
	<g id="Ebene_31">

			<path id="path292" inkscape:connector-curvature="0" fill="#EBB437" stroke="#EBB437" stroke-linecap="round" stroke-linejoin="round" stroke-miterlimit="10" d="
			M457.683,188.667l-3.189-8.669l-3.646,3.624c0,0,0.13,4.464,1.692,5.24C454.101,189.637,457.683,188.667,457.683,188.667
			L457.683,188.667z"/>
	</g>
	<g id="Ebene_30">

			<polygon id="polygon295" fill="#EBB437" stroke="#EBB437" stroke-linecap="round" stroke-linejoin="round" stroke-miterlimit="10" points="
			475.521,173.722 471.81,176.374 470.442,168.611 474.219,165.312 		"/>
	</g>
	<g id="Ebene_29">

			<polygon id="polygon298" fill="#EBB437" stroke="#EBB437" stroke-linecap="round" stroke-linejoin="round" stroke-miterlimit="10" points="
			467.969,170.875 469.661,177.798 468.294,179.35 466.341,173.722 		"/>
	</g>
	<g id="Ebene_28">

			<path id="path301" inkscape:connector-curvature="0" fill="#EBB437" stroke="#EBB437" stroke-linecap="round" stroke-linejoin="round" stroke-miterlimit="10" d="
			M463.216,169.064l1.237,10.999c0,0-2.539-2.717-2.8-4.594C461.394,173.592,463.216,169.064,463.216,169.064L463.216,169.064z"/>
	</g>
	<g id="Ebene_27">

			<polygon id="polygon304" fill="#EBB437" stroke="#EBB437" stroke-linecap="round" stroke-linejoin="round" stroke-miterlimit="10" points="
			457.292,167.511 459.896,174.11 456.836,178.316 455.273,172.363 		"/>
	</g>
	<g id="Ebene_26">

			<polygon id="polygon307" fill="#EBB437" stroke="#EBB437" stroke-linecap="round" stroke-linejoin="round" stroke-miterlimit="10" points="
			448.372,177.021 448.438,172.04 450.13,169.258 453.32,172.04 453.32,177.474 450.261,180.126 		"/>
	</g>
	<g id="Ebene_25">

			<polygon id="polygon310" fill="#EBB437" stroke="#EBB437" stroke-linecap="round" stroke-linejoin="round" stroke-miterlimit="10" points="
			452.148,158 454.492,159.748 455.599,165.441 453.516,168.222 450.391,166.023 450.195,161.429 		"/>
	</g>
	<g id="Ebene_24">

			<polygon id="polygon313" fill="#EBB437" stroke="#EBB437" stroke-linecap="round" stroke-linejoin="round" stroke-miterlimit="10" points="
			460.547,159.294 458.854,154.831 456.966,158.841 458.008,165.052 460.677,166.993 		"/>
	</g>
	<g id="Ebene_23">

			<polygon id="polygon316" fill="#EBB437" stroke="#EBB437" stroke-linecap="round" stroke-linejoin="round" stroke-miterlimit="10" points="
			466.536,161.494 464.192,157.095 462.761,159.488 462.695,165.312 466.341,168.158 		"/>
	</g>
	<g id="Ebene_22">

			<polygon id="polygon319" fill="#EBB437" stroke="#EBB437" stroke-linecap="round" stroke-linejoin="round" stroke-miterlimit="10" points="
			471.745,159.748 470.638,156.513 468.489,160.523 468.685,166.993 471.159,164.987 		"/>
	</g>
	<g id="Ebene_21">

			<polygon id="polygon322" fill="#EBB437" stroke="#EBB437" stroke-linecap="round" stroke-linejoin="round" stroke-miterlimit="10" points="
			462.956,149.267 463.151,154.377 467.317,156.642 469.401,152.825 467.058,146.29 464.778,144.414 		"/>
	</g>
	<g id="Ebene_20">

			<path id="path325" inkscape:connector-curvature="0" fill="#EBB437" stroke="#EBB437" stroke-width="0.5" stroke-linecap="round" stroke-linejoin="round" stroke-miterlimit="10" d="
			M349.87,233.373c0,0-4.102-1.876-7.422-2.458c-3.32-0.583-15.82-0.389-20.442-0.518c-4.623-0.129-14.974-1.359-17.708-2.459
			c0,0.971,0.065,3.559,4.818,5.564c4.752,2.006,19.596,0.776,24.219,0.906c4.622,0.129,14.778,3.234,15.755,2.717
			S349.87,233.373,349.87,233.373z"/>
	</g>
	<g id="Ebene_19">

			<path id="path328" inkscape:connector-curvature="0" fill="#EBB437" stroke="#EBB437" stroke-width="0.5" stroke-linecap="round" stroke-linejoin="round" stroke-miterlimit="10" d="
			M342.123,238.937c0-0.776-5.794-1.747-8.008-1.294c-2.214,0.453-6.286,2.774-9.245,5.369c-3.32,2.912-7.031,8.476-7.031,8.476
			s9.701-5.305,19.401-7.7C338.998,242.818,342.123,239.713,342.123,238.937z"/>
	</g>
	<g id="Ebene_18">

			<path id="path331" inkscape:connector-curvature="0" fill="#EBB437" stroke="#EBB437" stroke-width="0.5" stroke-linecap="round" stroke-linejoin="round" stroke-miterlimit="10" d="
			M328.906,236.673c0,0-3.581,2.912-5.599,3.428c-2.018,0.518-6.38-0.323-10.612,1.165c-4.232,1.489-9.917,8.197-11.306,10.267
			c-0.521-5.435-3.516-12.099-5.729-15.01c2.344-0.064,5.447,1.056,5.447,1.056s2.018,1.941,3.906,1.812
			c1.888-0.129,3.19-1.812,5.534-2.135C312.891,236.931,328.906,236.673,328.906,236.673L328.906,236.673z"/>
	</g>
	<g id="Ebene_17">

			<polygon id="polygon334" fill="#EBB437" stroke="#EBB437" stroke-linecap="round" stroke-linejoin="round" stroke-miterlimit="10" points="
			291.927,252.005 297.526,247.8 298.568,252.912 295.312,256.6 291.992,256.469 		"/>
	</g>
	<g id="Ebene_16">

			<polygon id="polygon337" fill="#EBB437" stroke="#EBB437" stroke-linecap="round" stroke-linejoin="round" stroke-miterlimit="10" points="
			295.312,243.789 297.721,244.5 290.234,250.323 287.174,250.064 287.109,247.023 		"/>
	</g>
	<g id="Ebene_15">

			<path id="path340" inkscape:connector-curvature="0" fill="#EBB437" stroke="#EBB437" stroke-linecap="round" stroke-linejoin="round" stroke-miterlimit="10" d="
			M294.727,240.877l-7.682,2.847l-0.065-2.782c0,0,3.06-3.623,4.753-3.623C293.424,237.32,294.727,240.877,294.727,240.877
			L294.727,240.877z"/>
	</g>
	<g id="Ebene_14">

			<polygon id="polygon343" fill="#EBB437" stroke="#EBB437" stroke-linecap="round" stroke-linejoin="round" stroke-miterlimit="10" points="
			287.891,264.427 293.099,259.123 288.477,257.764 284.245,260.999 284.18,264.558 		"/>
	</g>
	<g id="Ebene_13">

			<polygon id="polygon346" fill="#EBB437" stroke="#EBB437" stroke-linecap="round" stroke-linejoin="round" stroke-miterlimit="10" points="
			283.463,258.929 288.737,254.788 288.737,252.588 284.766,252.458 281.12,255.37 281.12,258.863 		"/>
	</g>
	<g id="Ebene_12">

			<polygon id="polygon349" fill="#EBB437" stroke="#EBB437" stroke-linecap="round" stroke-linejoin="round" stroke-miterlimit="10" points="
			277.279,250.776 281.836,247.477 284.049,247.412 283.919,250.129 279.362,253.817 277.344,253.493 		"/>
	</g>
	<g id="Ebene_11">

			<polygon id="polygon352" fill="#EBB437" stroke="#EBB437" stroke-linecap="round" stroke-linejoin="round" stroke-miterlimit="10" points="
			280.99,242.431 284.831,242.236 284.831,244.177 277.279,247.8 274.805,247.412 		"/>
	</g>
	<g id="Ebene_10">

			<polygon id="polygon355" fill="#EBB437" stroke="#EBB437" stroke-linecap="round" stroke-linejoin="round" stroke-miterlimit="10" points="
			277.213,236.996 283.268,236.09 287.109,236.673 284.701,239.519 277.409,241.137 274.219,240.49 		"/>
	</g>
	<g id="Ebene_9">

			<path id="path358" inkscape:connector-curvature="0" fill="#EBB437" stroke="#EBB437" stroke-linecap="round" stroke-linejoin="round" stroke-miterlimit="10" d="
			M274.544,243.466c-2.344-0.776-3.776-2.523-3.776-2.523s-4.297,1.812-5.469,3.623c-0.225,0.349-1.042,2.977-0.195,3.494
			c0.847,0.518,3.581,0.389,3.581,0.389S272.461,246.248,274.544,243.466z"/>
	</g>
	<g id="Ebene_8">

			<polygon id="polygon361" fill="#EBB437" stroke="#EBB437" stroke-linecap="round" stroke-linejoin="round" stroke-miterlimit="10" points="
			274.935,253.365 274.74,249.806 270.898,249.677 268.229,251.552 268.685,252.912 		"/>
	</g>
	<g id="Ebene_7">

			<polygon id="polygon364" fill="#EBB437" stroke="#EBB437" stroke-linecap="round" stroke-linejoin="round" stroke-miterlimit="10" points="
			274.87,260.545 278.646,258.281 278.255,256.017 274.935,255.758 272.461,258.022 272.331,260.804 		"/>
	</g>
	<g id="Ebene_6">

			<polygon id="polygon367" fill="#EBB437" stroke="#EBB437" stroke-linecap="round" stroke-linejoin="round" stroke-miterlimit="10" points="
			273.307,263.069 278.385,260.804 281.25,261.322 281.185,263.586 276.042,266.045 272.787,266.045 		"/>
	</g>
	<g id="Ebene_5">

			<polygon id="polygon370" fill="#EBB437" stroke="#EBB437" stroke-linecap="round" stroke-linejoin="round" stroke-miterlimit="10" points="
			262.305,264.169 266.406,260.999 269.466,261.322 269.271,264.427 264.844,266.886 262.37,266.95 		"/>
	</g>
	<g id="Ebene_4">

			<polygon id="polygon373" fill="#EBB437" stroke="#EBB437" stroke-linecap="round" stroke-linejoin="round" stroke-miterlimit="10" points="
			264.127,256.6 267.773,254.593 270.898,255.046 270.312,257.052 267.057,258.734 264.193,258.863 		"/>
	</g>
	<g id="Ebene_3">

			<polygon id="polygon376" fill="#EBB437" stroke="#EBB437" stroke-linecap="round" stroke-linejoin="round" stroke-miterlimit="10" points="
			257.877,252.912 261.545,249.331 263.412,249.375 263.194,251.273 265.452,250.97 265.299,252.652 261.719,255.758
			257.812,255.693 		"/>
	</g>
	<g id="Ebene_2">

			<polygon id="polygon379" fill="#EBB437" stroke="#EBB437" stroke-linecap="round" stroke-linejoin="round" stroke-miterlimit="10" points="
			251.367,262.098 256.706,258.152 261.198,258.476 261.198,261.646 255.99,265.463 250.716,264.233 		"/>
	</g>
</g>
</svg>
