<?xml version="1.0" encoding="utf-8"?>
<!-- Generator: Adobe Illustrator 14.0.0, SVG Export Plug-In . SVG Version: 6.00 Build 43363)  -->
<!DOCTYPE svg PUBLIC "-//W3C//DTD SVG 1.0//EN" "http://www.w3.org/TR/2001/REC-SVG-20010904/DTD/svg10.dtd">
<svg version="1.0" id="Layer_1" xmlns="http://www.w3.org/2000/svg" xmlns:xlink="http://www.w3.org/1999/xlink" x="0px" y="0px"
	 width="800px" height="600px" viewBox="0 0 800 600" enable-background="new 0 0 800 600" xml:space="preserve">
<g>
	<path d="M362.961,327.09c-0.41-0.332-0.698-0.669-0.889-0.889c-4.341-4.961-1.699-8.252-0.786-9.15
		c1.68-1.631,1.318-2.207,1.079-2.583c-1.128-1.792-1.084-3.345-0.85-4.321c0.313-1.299,1.172-2.451,2.412-3.232
		c4.575-2.881,7.314-2.026,8.804-0.806c0.449,0.366,0.835,0.82,1.152,1.343c0.356,0.586,0.679,1.211,0.991,1.812
		c0.757,1.47,1.543,2.993,2.827,4.048c0.596,0.488,1.265,0.854,2.051,1.123l0.054,0.02c0.459,0.176,46.475,17.207,50.439,18.56
		c1.445,0.493,3.687-0.244,5.488-0.835c2.334-0.767,4.541-1.494,6.294-0.054c1.665,1.362,3.325,4.258,3.228,6.733
		c-0.063,1.519-0.747,2.803-1.934,3.623c-0.264,0.186-0.522,0.361-0.767,0.518c-1.475,0.986-1.479,1.021-1.519,1.895
		c-0.01,0.293-0.02,0.576-0.029,0.85c-0.034,1.162-0.068,2.168-0.361,3.081c-0.527,1.616-1.851,2.598-3.535,2.632
		c-0.137,0.01-0.571,0.142-0.859,0.225c-1.338,0.396-3.579,1.055-5.469-0.498c-0.479-0.391-0.884-0.898-1.196-1.504
		c-0.342-0.654-0.596-1.328-0.845-1.973c-0.459-1.221-0.859-2.266-1.709-2.969c-0.347-0.283-0.762-0.508-1.265-0.693
		c-3.755-1.377-49.844-17.832-50.308-17.998l-0.127-0.044l-0.044-0.024c-0.239-0.093-2.378-0.864-4.487,0.576
		C366.975,329.175,364.426,328.291,362.961,327.09L362.961,327.09z"/>
	<path fill="#FFFFFF" d="M378.938,316.797c0,0,46.46,17.207,50.508,18.584c4.043,1.377,9.453-2.593,10.996-1.323
		c1.548,1.265,3.457,4.985,1.46,6.372c-1.997,1.377-3.252,1.855-3.359,4.355s0.054,4.141-1.479,4.17
		c-1.538,0.039-4.087,1.826-5.254-0.43c-1.172-2.251-1.367-5.43-5.176-6.826c-3.809-1.406-50.332-18.008-50.332-18.008
		s-3.467-1.553-6.909,0.801c-3.438,2.354-4.771,0.83-5.439,0.063s-3.081-3.604-0.923-5.713c2.163-2.104,2.578-3.926,1.455-5.708
		c-1.128-1.787-0.562-3.262,0.776-4.102c1.338-0.845,4.927-2.856,6.484-0.288C373.303,311.318,374.401,315.234,378.938,316.797z"/>
	<path d="M366.12,352.422c-0.527,0-0.962-0.068-1.25-0.117c-6.504-1.084-6.548-5.308-6.406-6.572
		c0.259-2.334-0.386-2.549-0.806-2.686c-2.012-0.674-2.959-1.895-3.398-2.808c-0.586-1.206-0.649-2.632-0.186-4.023
		c1.709-5.132,4.37-6.206,6.299-6.206c0.576,0,1.162,0.098,1.738,0.303c0.645,0.229,1.289,0.508,1.914,0.776
		c1.519,0.654,3.091,1.333,4.756,1.333c0.771,0,1.519-0.137,2.295-0.43l0.054-0.02c0.469-0.156,46.851-16.172,50.771-17.642
		c1.431-0.532,2.695-2.524,3.711-4.126c1.323-2.07,2.568-4.033,4.834-4.033c2.153,0,5.273,1.182,6.768,3.164
		c0.913,1.211,1.196,2.637,0.806,4.023c-0.093,0.313-0.181,0.605-0.269,0.889c-0.518,1.699-0.493,1.724,0.029,2.422
		c0.176,0.239,0.347,0.459,0.513,0.674c0.713,0.928,1.328,1.729,1.675,2.617c0.615,1.582,0.22,3.179-1.06,4.277
		c-0.098,0.098-0.356,0.469-0.527,0.718c-0.781,1.152-2.1,3.081-4.541,3.081c-0.62,0-1.25-0.132-1.875-0.4
		c-0.684-0.293-1.309-0.649-1.909-0.996c-1.128-0.645-2.104-1.201-3.208-1.201c-0.439,0-0.903,0.083-1.411,0.264
		c-3.779,1.309-49.849,17.822-50.313,17.988l-0.122,0.044l-0.054,0.015c-0.244,0.078-2.388,0.84-3.101,3.291
		C370.549,351.494,368.015,352.422,366.12,352.422L366.12,352.422z"/>
	<path fill="#FFFFFF" d="M371.945,334.336c0,0,46.836-16.162,50.835-17.666c3.999-1.499,5.669-7.998,7.666-7.998
		c2.002,0,5.835,1.67,5.166,3.999c-0.664,2.334-1.333,3.501,0.171,5.503c1.494,1.997,2.666,3.164,1.494,4.165
		c-1.162,1.001-1.997,3.999-4.331,3.003c-2.334-1.006-4.497-3.34-8.335-2.002c-3.828,1.333-50.332,17.998-50.332,17.998
		s-3.667,1.001-4.834,5c-1.162,4.004-3.164,3.667-4.165,3.501s-4.668-0.835-4.331-3.833c0.332-2.998-0.503-4.668-2.5-5.332
		c-2.002-0.669-2.5-2.168-2.002-3.672c0.498-1.494,2.002-5.332,4.834-4.331S367.448,336.006,371.945,334.336z"/>
	<path d="M421.682,277.671c1.865-1.863,5.498-14.5,2.998-19.165c-0.63-1.179-2.134-2.944-4.463-4.705l0.063-0.295
		c-0.532-0.271-1.06-0.525-1.582-0.771c-4.272-2.791-10.635-5.256-18.882-4.966c-8.252-0.291-14.619,2.175-18.887,4.966
		c-0.522,0.247-1.05,0.5-1.582,0.771l0.059,0.295c-2.324,1.76-3.828,3.525-4.458,4.705c-2.5,4.666,1.138,17.302,2.998,19.165
		c2.5,2.5-1.831,5-2.334,9.001c-0.64,5.129,5.171,7.334,5.171,7.334s3.164,13.835,3.828,16.667
		c0.669,2.832,10.669,5.498,14.336,5.664c0.278,0.01,0.571,0.01,0.869-0.01c0.293,0.02,0.586,0.02,0.864,0.01
		c3.667-0.166,13.667-2.832,14.331-5.664c0.669-2.832,3.838-16.667,3.838-16.667s5.806-2.205,5.166-7.334
		C423.513,282.671,419.182,280.171,421.682,277.671z"/>
	<path fill="#FFFFFF" d="M400.363,313.848c-0.122,0-0.254-0.01-0.396-0.015l-0.151-0.01l-0.156,0.01
		c-0.142,0.005-0.273,0.015-0.396,0.015c-0.068,0-0.137,0-0.205-0.01c-1.343-0.059-4.175-0.591-6.978-1.494
		c-3.374-1.084-4.746-2.056-5.078-2.422c-0.732-3.145-3.755-16.338-3.789-16.475l-0.298-1.304l-1.25-0.476
		c-0.151-0.059-3.96-1.594-3.574-4.685c0.142-1.106,0.815-2.207,1.47-3.274c1.123-1.841,3.008-4.922,0.171-7.783
		c-0.483-0.593-1.729-3.589-2.524-7.532c-0.952-4.719-0.654-7.593-0.059-8.708c0.43-0.806,1.68-2.307,3.77-3.889l1.021-0.774
		c0.02-0.01,0.21-0.103,0.21-0.103l0.146-0.093c3.198-2.09,8.608-4.58,16.191-4.58c0.41,0,0.825,0.007,1.24,0.022l0.088,0.002
		l0.088-0.002c0.41-0.015,0.825-0.022,1.235-0.022c7.583,0,12.993,2.49,16.191,4.58l0.142,0.093c0,0,0.195,0.093,0.215,0.103
		l1.025,0.774c2.09,1.582,3.33,3.083,3.765,3.889c0.596,1.116,0.894,3.989-0.059,8.708c-0.796,3.943-2.041,6.938-2.524,7.532
		c-2.842,2.861-0.952,5.942,0.176,7.783c0.649,1.067,1.328,2.168,1.465,3.274c0.386,3.091-3.428,4.626-3.589,4.69l-1.25,0.476
		l-0.288,1.299c-0.029,0.137-3.047,13.33-3.789,16.475c-0.322,0.366-1.699,1.338-5.078,2.422c-2.803,0.903-5.63,1.436-6.973,1.494
		C400.5,313.848,400.432,313.848,400.363,313.848L400.363,313.848z"/>
	<path d="M405.7,275.671c0,0,11.665-0.999,10.166,3.833c-1.499,4.834-2.002,6.833-7.666,5c-5.669-1.833-6.499-4.5-3.999-8.499
		L405.7,275.671z"/>
	<path d="M393.449,275.671c0,0-11.67-0.999-10.166,3.833c1.494,4.834,1.997,6.833,7.666,5c5.664-1.833,6.499-4.5,3.999-8.499
		L393.449,275.671z"/>
	<path d="M398.112,285.671c0,0-2.163,3.335-2.163,5.334s1.665,3.333,2.666,2c0.996-1.333,1.499-1.167,1.997,0.332
		c0.503,1.501,3.501-1.333,2.837-2.666c-1.104-2.2-2.666-5.332-2.666-5.332S399.948,282.505,398.112,285.671z"/>
	<path d="M412.229,292.073c-2.93,1.821-2.842,7.527-2.632,10.159c-0.571,0.124-1.211,0.228-1.899,0.315v-2.542h-0.664v2.617
		c-0.586,0.062-1.201,0.11-1.836,0.144v-2.761h-0.664v2.796c-0.679,0.029-1.377,0.043-2.085,0.046v-2.842h-0.669v2.842
		c-0.605-0.005-1.221-0.02-1.831-0.042v-2.8h-0.669v2.771c-0.615-0.031-1.23-0.07-1.831-0.121v-2.649h-0.669v2.591
		c-0.625-0.059-1.24-0.13-1.831-0.211v-2.38h-0.669v2.285c-0.737-0.114-1.436-0.244-2.08-0.391v-1.895h-0.669v1.731
		c-1.528-0.408-1.958-0.787-2.07-0.982c-0.171-0.283-0.093-0.898,0.005-1.677c0.132-1.028,0.293-2.307,0.049-3.921
		c-0.225-1.519-0.83-2.595-1.797-3.203c-1.602-1.003-3.618-0.371-4.956,0.049c-0.361,0.112-0.767,0.242-0.952,0.261l0.273,2.485
		c0.43-0.049,0.889-0.193,1.426-0.361c0.898-0.281,2.256-0.706,2.881-0.317c0.4,0.254,0.576,0.93,0.654,1.453
		c0.19,1.274,0.059,2.322-0.059,3.242c-0.313,2.507-0.2,4.362,4.16,5.454c0.127,0.031,0.254,0.061,0.386,0.09v2.986h0.669v-2.84
		c0.654,0.135,1.353,0.257,2.08,0.359v2.48h0.669v-2.388c0.596,0.073,1.206,0.142,1.831,0.2v2.188h0.669v-2.134
		c0.605,0.044,1.216,0.083,1.831,0.112v2.021h0.669v-1.992c0.61,0.02,1.226,0.034,1.831,0.039v1.953h0.669v-1.953
		c0.703,0,1.401-0.02,2.085-0.049v2.002h0.664v-2.031c0.63-0.034,1.245-0.078,1.836-0.137v2.168h0.664v-2.236
		c1.406-0.166,2.646-0.393,3.618-0.691l1.001-0.31l-0.127-1.04c-0.376-2.986-0.2-7.852,1.357-8.821
		c0.82-0.508,2.197,0.183,3.213,0.852l1.377-2.087C415.773,291.404,413.786,291.104,412.229,292.073z"/>
</g>
</svg>
