<?xml version="1.0" encoding="utf-8"?>
<!-- Generator: Adobe Illustrator 13.0.0, SVG Export Plug-In . SVG Version: 6.00 Build 14948)  -->
<!DOCTYPE svg PUBLIC "-//W3C//DTD SVG 1.1//EN" "http://www.w3.org/Graphics/SVG/1.1/DTD/svg11.dtd">
<svg version="1.1" id="Layer_1" xmlns="http://www.w3.org/2000/svg" xmlns:xlink="http://www.w3.org/1999/xlink" x="0px" y="0px"
	 width="303.386px" height="226.468px" viewBox="0 0 303.386 226.468" enable-background="new 0 0 303.386 226.468"
	 xml:space="preserve">
	 <defs>
   <linearGradient id="colour0"> 
     <stop offset="100%" stop-color="gray"/> 
   </linearGradient> 
   <linearGradient id="colour1"> 
     <stop offset="100%" stop-color="red"/> 
   </linearGradient> 
   <linearGradient id="colour2"> 
     <stop offset="100%" stop-color="orange"/> 
   </linearGradient> 
   <linearGradient id="colour1"> 
     <stop offset="100%" stop-color="yellow"/> 
   </linearGradient> 
</defs>	 
<g id="Southern_Cross-Big" display="visible">
	<polygon fill="url(#colour1)" points="161.01,86.283 166.893,84.047 163.436,89.262 168.785,92.45 162.563,92.998 163.425,99.195 
		159.078,94.653 154.76,99.195 155.597,92.998 149.402,92.45 154.725,89.262 151.295,84.047 157.15,86.283 159.078,80.316 	"/>
	<polygon fill="url(#colour1)" points="161.01,179.882 166.893,177.648 163.436,182.863 168.785,186.05 162.563,186.598 163.425,192.794 
		159.078,188.253 154.76,192.794 155.597,186.598 149.402,186.05 154.725,182.863 151.295,177.648 157.15,179.882 159.078,173.916 	
		"/>
	<polygon fill="url(#colour1)" points="192.207,114.921 198.092,112.689 194.635,117.903 199.984,121.09 193.764,121.64 194.625,127.835 
		190.279,123.293 185.961,127.835 186.797,121.64 180.602,121.09 185.925,117.903 182.496,112.689 188.352,114.921 190.279,108.956 
			"/>
	<polygon fill="url(#colour1)" points="125.909,124.307 131.792,122.074 128.334,127.287 133.684,130.476 127.463,131.023 128.326,137.22 
		123.979,132.679 119.66,137.22 120.496,131.023 114.302,130.476 119.625,127.287 116.194,122.074 122.051,124.307 123.979,118.341 
			"/>
	<polygon fill="url(#colour1)" points="173.116,136.858 171.768,141.089 167.291,141.101 170.932,143.725 169.547,147.953 
		173.139,145.319 176.744,147.933 175.355,143.677 178.965,141.089 174.506,141.101 	"/>
</g>
</svg>
