<?xml version="1.0" encoding="utf-8"?>
<!-- Generator: Adobe Illustrator 14.0.0, SVG Export Plug-In . SVG Version: 6.00 Build 43363)  -->
<!DOCTYPE svg PUBLIC "-//W3C//DTD SVG 1.0//EN" "http://www.w3.org/TR/2001/REC-SVG-20010904/DTD/svg10.dtd">
<svg version="1.0" id="Layer_1" xmlns="http://www.w3.org/2000/svg" xmlns:xlink="http://www.w3.org/1999/xlink" x="0px" y="0px"
	 width="800px" height="600px" viewBox="0 0 800 600" enable-background="new 0 0 800 600" xml:space="preserve">
<defs>
   <linearGradient id="colour1">
     <stop offset="100%" stop-color="#1B1464"/>
   </linearGradient>
 </defs>
<path id="path7940" fill="url(#colour1)" d="M397.871,311.451c0.015-2.025-1.587-2.064-1.569-0.586c-0.134,7.428-6.417,11.086-10.98,10.219
	c-7.036-1.338-9.282-8.322-9.215-12.436c0.207-12.697,12.988-22.06,24.521-38.334c8.45,14.689,22.397,26.229,23.224,37.584
	c1.098,15.1-18.01,20.729-20.738,3.133c-0.176-1.242-1.639-1.801-1.524-0.064c0.414,4.822-0.176,6.832,5.267,18.719h-14.223
	C395.78,324.131,397.656,317.313,397.871,311.451L397.871,311.451z"/>
</svg>
