<?xml version="1.0" encoding="utf-8"?>
<!-- Generator: Adobe Illustrator 14.0.0, SVG Export Plug-In . SVG Version: 6.00 Build 43363)  -->
<!DOCTYPE svg PUBLIC "-//W3C//DTD SVG 1.0//EN" "http://www.w3.org/TR/2001/REC-SVG-20010904/DTD/svg10.dtd">
<svg version="1.0" id="Layer_1" xmlns="http://www.w3.org/2000/svg" xmlns:xlink="http://www.w3.org/1999/xlink" x="0px" y="0px"
	 width="250px" height="350px" viewBox="-50 -80 250 350" enable-background="new 0 0 112 150" xml:space="preserve">
<defs>
   <linearGradient id="colour0">
     <stop offset="100%" stop-color="#187332"/>
   </linearGradient> 
   <linearGradient id="colour1">
     <stop offset="100%" stop-color="#EFD642"/>
   </linearGradient> 
 </defs>
<g id="_x23_efd642ff">
	<path fill="url(#colour1)" d="M-24.36-25.04c-0.04-18,16.54-33.32,34.32-32.88c34.66,0,69.341-0.04,104.001,0.04
		C131.52-58.18,147.539-42.6,147.5-25c0.199,38.86,0.039,77.74,0.059,116.6c-7.818,0.08-15.617,0.08-23.418,0.021
		c-2.82-8.721-5.641-17.461-8.461-26.182c-2.92,8.761-5.699,17.58-8.779,26.279c-8.26-0.059-16.541-0.078-24.801-0.098
		c-0.459-9.941-2.939-19.682-7.9-28.361c-5.398,8.5-12.738,15.959-22.399,19.4c-9.88,5.039-21.5,2.34-31.56,6.66
		c-9.12,3.5-18,7.98-25.16,14.74c0.16,5.02,0.04,10.061,0.68,15.039c0.601,6.1,5.8,11.439,11.94,11.98
		c10.72,0.82,21.5,0.18,32.26,0.361c11.68,0.02,24.36-3,32.22-12.242c6.762-7.039,8.98-16.879,10.061-26.26
		c6.5,4.9,13.041,9.74,19.68,14.461c-2.66,8.58-5.459,17.1-8.26,25.639c7.559-4.98,14.84-10.34,22.08-15.758
		c7.119,5.359,14.279,10.639,21.561,15.777c-2.541-8.617-5.221-17.199-7.9-25.758c6.08-4.34,12.1-8.762,18.1-13.221
		c0.16,27.639,0.059,55.299,0.08,82.939c0.92,18.121-15.34,35.141-33.561,34.641c-34.641,0.02-69.279-0.039-103.939,0.039
		c-13.7,0.561-26.7-8.439-32-20.879c-2.9-6.9-2.62-14.539-2.62-21.859c0.18-18.361-0.08-36.701,0.16-55.061
		c-2.94-0.061-5.86-0.08-8.8-0.26c-7,0.279-11.08-8.762-6.12-13.68c1.54-0.262,4.64-0.781,6.18-1.041
		c4.601-0.299,9.2-1.061,13.42-2.98c-4.319-1.699-8.78-3.479-13.5-3.58c-3.3,1.121-6.5,2.52-9.72,3.859
		c-2.44-4.059-3-9.039-1.68-13.578c3.04-4.141,7.22-7.24,11.34-10.261c3.1-1.12,8.72-1.2,8.64-5.7
		C-24.12,36.12-24.84,5.52-24.36-25.04"/>
	<path fill="url(#colour1)" d="M-4.56-22.98C-4.78-0.26-4.5,22.46-4.66,45.18C-0.98,39.86,3.48,34.86,5.78,28.74
		C7.4,23.9,5.76,17.1,10.88,14.08c8.18-5.52,17.46-9.141,25.9-14.22c-3.74-11.421,1.939-22.7,8.319-31.9
		c1.4-1.84,3.2-4.12,5.54-2.12c2.101,5.221,1.78,11.1,3.9,16.32c2.741,3.9,7.2,6.04,11.081,8.62c3.84-2.561,8.459-3.88,12.979-2.32
		c18.1,5.08,33.9,15.86,49.021,26.72c-0.141-13.46,0.359-26.899-0.201-40.34c-0.08-7.8-8.061-13.52-15.5-12.779
		C77.98-37.92,44.04-38,10.1-37.939C2-38.62-4.76-30.76-4.56-22.98"/>
	<path fill="url(#colour1)" d="M19.24,23.76c-1.54,2.84-3.08,5.66-4.62,8.5c6.34,0.16,12.5-1.479,17.439-5.56
		C28.02,24.9,23.66,24,19.24,23.76"/>
	<path fill="url(#colour1)" d="M42.9,149.719c-0.841,7.441-0.881,15.063,0,22.521c3.54,5,10.3,3.221,15.479,3.381
		c5.121-7.541,2.861-17.32,2.582-25.84C56.92,144.281,46.92,144.219,42.9,149.719"/>
	<path fill="url(#colour1)" d="M-2.3,159.48c3.92,2.641,8.14,4.779,12.08,7.398c-3.061,4.881-6.34,2.041-8.74-1.398
		c-1.34-0.061-4.04-0.18-5.4-0.24c0.021,2.639,0.021,5.299,0.04,7.959c4.5,1.359,9.301,4.061,14.04,1.961
		c5.86-1.48,7.24-9.441,4.12-13.9c-3.479-2.701-7.82-3.9-11.78-5.68C2.9,154,3.32,151.719,5.58,151.84
		c2.64,2.461,5.4,4.68,9.22,4.781c0-2.063,0-6.201,0-8.262c-4.18-1.301-8.52-3.559-12.979-2.078
		C-3.64,147.48-6.88,155.559-2.3,159.48"/>
	<path fill="url(#colour1)" d="M18.78,146.559c1.8,9.521,1.899,19.223-0.16,28.701c3.439-0.02,6.88-0.041,10.32-0.02
		c-0.74-2.799-1.44-5.58-2.12-8.381c4.08-0.879,10.08,0.262,11.859-4.68c1.141-4.76,2.24-12.1-3.1-14.738
		C30.14,145.859,24.36,146.76,18.78,146.559"/>
	<path fill="url(#colour1)" d="M65.16,146.559c1.879,9.48,1.92,19.201-0.16,28.641c3.379,0.041,6.781,0.082,10.16,0.16
		c-0.4-3.719-1.66-7.32-1.719-11.078c1.68-0.141,3.379-0.242,5.098-0.281c0.041,3.68,0.061,7.379,0.082,11.1
		c2.699,0.061,5.379,0.141,8.078,0.221c-0.859-4.721-1.719-9.42-2.6-14.121c1.619-4.459,3.381-11.66-2.359-13.898
		C76.32,146.02,70.68,146.68,65.16,146.559"/>
	<path fill="url(#colour1)" d="M88.5,146.621c-0.039,4.039-0.039,8.078-0.039,12.119c5.078,0.979,5.578-4.779,7.939-7.561
		c0.18,7.961,0.041,15.98-2.16,23.68c3.459,0.199,6.9,0.381,10.359,0.541c-1.199-7.9-2.58-16.16-0.42-24.021
		c0.34,1.721,1.039,5.18,1.379,6.902c1.342,0,4.021,0.039,5.361,0.039c0.041-3.9,0.08-7.801,0.119-11.699
		C103.52,146.58,96,146.58,88.5,146.621"/>
	<path fill="url(#colour1)" d="M115.42,159.48c4.119,2.6,8.48,4.801,12.561,7.48c-3,3.859-6.881,2.66-8.461-1.48
		c-1.52-0.039-4.52-0.121-6.02-0.16c-0.02,2.6-0.02,5.219-0.02,7.84c6.398,3.52,17.699,4.66,19.82-4.359
		c2.258-8.242-7.041-10.742-12.781-13.082c0.141-0.898,0.422-2.699,0.539-3.598c0.742-0.102,2.182-0.301,2.902-0.402
		c1.98,3.34,5.139,4.801,8.98,4.723c0-2-0.021-6-0.041-8c-4.682-1.402-9.881-4.141-14.66-1.521
		C113.359,148.621,111.98,155.801,115.42,159.48"/>
	<path fill="url(#colour1)" d="M1.92,197.879c31.38-0.02,62.74-0.098,94.1,0c11.641,0.801,23.34,0.121,34.98-0.398
		c4.199-2.859,1.621-9.16,2.18-13.5c-11.641-1.66-23.42-1.061-35.141-1.18c-32.098,0.141-64.179-0.102-96.279,0.078
		C-7.64,181.24-7.36,199.92,1.92,197.879z"/>
	<path fill="url(#colour1)" d="M49.36,151.68c1.62,0.34,3.22,0.762,4.819,1.221c1.32,5.42,0.5,11.061,0.38,16.561
		c-1.76,0.098-3.52,0.199-5.279,0.299C48.78,163.74,48.76,157.68,49.36,151.68z"/>
	<path fill="url(#colour1)" d="M73.441,151.781c1.699,0.219,3.418,0.459,5.139,0.68c0.139,1.879,0.26,3.758,0.4,5.639
		c-1.881,0.1-3.762,0.201-5.641,0.32C73.359,156.199,73.4,153.98,73.441,151.781z"/>
	<path fill="url(#colour1)" d="M26.96,160.4c0.1-2.801,0.24-5.6,0.48-8.4c1.279,0.559,3.88,1.68,5.159,2.26
		c-0.08,1.701-0.159,3.42-0.26,5.141C30.54,159.74,28.76,160.08,26.96,160.4z"/>
</g>
<g id="_x23_187332ff">
	<path fill="url(#colour0)" d="M-33.1-32.24C-33.8-52.68-13.98-69.54,6.04-67.28c38.06,0.2,76.14-0.22,114.22,0.2
		c17.1,0.34,32.299,15.16,33.041,32.24c0.039,73.3-0.041,146.6,0.039,219.898c-0.039,12.582-7.859,24.883-19.26,30.223
		c-6.16,3.258-13.299,3.699-20.119,3.859c-35.34,0-70.681-0.061-106.021,0.02c-7.98-0.02-16.36-0.621-23.421-4.699
		C-25.9,208.42-33.14,196.84-33.12,184.68c-0.16-23.68-0.02-47.359-0.06-71.039c2.939,0.18,5.859,0.199,8.8,0.26
		c-0.24,18.359,0.02,36.699-0.16,55.061c0,7.32-0.28,14.959,2.62,21.859c5.3,12.439,18.3,21.439,32,20.879
		c34.66-0.078,69.299-0.02,103.939-0.039c18.221,0.5,34.48-16.52,33.561-34.641c-0.021-27.641,0.08-55.301-0.08-82.939
		c-6,4.459-12.02,8.881-18.1,13.221c2.68,8.559,5.359,17.141,7.9,25.758c-7.281-5.139-14.441-10.418-21.561-15.777
		c-7.24,5.418-14.521,10.777-22.08,15.758c2.801-8.539,5.6-17.059,8.26-25.639c-6.639-4.721-13.18-9.561-19.68-14.461
		c-1.08,9.381-3.299,19.221-10.061,26.26c-7.859,9.242-20.54,12.262-32.22,12.242C29.2,131.26,18.42,131.9,7.7,131.08
		c-6.141-0.541-11.34-5.881-11.94-11.98c-0.64-4.979-0.52-10.02-0.68-15.039c7.16-6.76,16.04-11.24,25.16-14.74
		C30.3,85,41.92,87.699,51.8,82.66c9.661-3.441,17.001-10.9,22.399-19.4c4.961,8.68,7.441,18.42,7.9,28.361
		c8.26,0.02,16.541,0.039,24.801,0.098c3.08-8.699,5.859-17.519,8.779-26.279c2.82,8.721,5.641,17.461,8.461,26.182
		c7.801,0.059,15.6,0.059,23.418-0.021C147.539,52.74,147.699,13.86,147.5-25c0.039-17.6-15.98-33.18-33.539-32.88
		C79.301-57.96,44.62-57.92,9.96-57.92C-7.82-58.36-24.4-43.04-24.36-25.04c-0.479,30.56,0.24,61.16-0.26,91.72
		c0.08,4.5-5.54,4.58-8.64,5.7C-33,37.52-33.36,2.64-33.1-32.24z"/>
	<path fill="url(#colour0)" d="M-4.56-22.98C-4.76-30.76,2-38.62,10.1-37.939c33.94-0.061,67.881,0.02,101.82,0
		c7.439-0.74,15.42,4.979,15.5,12.779c0.561,13.44,0.061,26.88,0.201,40.34C112.5,4.32,96.699-6.46,78.6-11.54
		c-4.52-1.56-9.139-0.24-12.979,2.32c-3.881-2.58-8.34-4.72-11.081-8.62c-2.12-5.221-1.8-11.1-3.9-16.32
		c-2.34-2-4.14,0.28-5.54,2.12c-6.38,9.2-12.06,20.479-8.319,31.9c-8.44,5.079-17.721,8.7-25.9,14.22C5.76,17.1,7.4,23.9,5.78,28.74
		C3.48,34.86-0.98,39.86-4.66,45.18C-4.5,22.46-4.78-0.26-4.56-22.98z"/>
	<path fill="url(#colour0)" d="M19.24,23.76C23.66,24,28.02,24.9,32.06,26.7c-4.939,4.08-11.1,5.72-17.439,5.56
		C16.16,29.42,17.7,26.6,19.24,23.76z"/>
	<path fill="url(#colour0)" d="M-33.2,92.359c4.72,0.102,9.181,1.881,13.5,3.58c-4.22,1.92-8.819,2.682-13.42,2.98
		C-33.14,97.281-33.18,94-33.2,92.359z"/>
</g>
<path fill="url(#colour0)" d="M135,190c0,4.143-3.357,7.5-7.5,7.5H2.5c-4.142,0-7.5-3.357-7.5-7.5l0,0c0-4.143,3.358-7.5,7.5-7.5h125
	C131.643,182.5,135,185.857,135,190L135,190z"/>
<g>
	<path fill="url(#colour2)" d="M4.717,191.662c0.026,0.521,0.188,0.891,0.488,1.111c0.299,0.222,0.721,0.332,1.268,0.332
		c0.407,0,0.756-0.078,1.046-0.234c0.29-0.156,0.436-0.395,0.436-0.715c0-0.304-0.156-0.531-0.468-0.683s-0.806-0.313-1.482-0.487
		c-0.33-0.078-0.568-0.139-0.715-0.182c-0.39-0.113-0.737-0.234-1.04-0.364c-0.304-0.13-0.583-0.297-0.838-0.501
		c-0.256-0.203-0.459-0.455-0.611-0.754c-0.151-0.299-0.228-0.651-0.228-1.06c0-0.485,0.111-0.907,0.332-1.268
		c0.221-0.359,0.514-0.654,0.877-0.884c0.364-0.229,0.769-0.398,1.216-0.507c0.446-0.108,0.899-0.162,1.358-0.162
		c0.477,0,0.936,0.058,1.378,0.175s0.838,0.299,1.189,0.546s0.631,0.562,0.839,0.942c0.208,0.382,0.312,0.824,0.312,1.326H7.655
		c0-0.398-0.145-0.685-0.435-0.857c-0.291-0.174-0.644-0.261-1.06-0.261c-0.312,0-0.585,0.063-0.819,0.189
		c-0.234,0.125-0.351,0.327-0.351,0.604c0,0.251,0.147,0.443,0.442,0.578c0.294,0.135,0.762,0.275,1.404,0.423
		c0.338,0.086,0.62,0.16,0.845,0.221c0.39,0.112,0.736,0.233,1.04,0.364c0.303,0.13,0.581,0.299,0.832,0.507
		c0.251,0.208,0.45,0.461,0.598,0.76c0.147,0.3,0.221,0.648,0.221,1.047c0,0.563-0.11,1.047-0.332,1.449
		c-0.221,0.403-0.52,0.727-0.897,0.969c-0.377,0.243-0.804,0.418-1.281,0.526s-0.988,0.163-1.534,0.163
		c-0.555,0-1.071-0.063-1.547-0.188c-0.477-0.126-0.904-0.323-1.281-0.592s-0.672-0.615-0.884-1.04
		c-0.212-0.425-0.319-0.923-0.319-1.495H4.717z"/>
	<path fill="url(#colour2)" d="M18.497,191.324v3.458h-2.418v-3.458l-3.38-5.824h2.743l1.846,3.771l1.846-3.771h2.743L18.497,191.324z"/>
	<path fill="url(#colour2)" d="M24.698,185.5h2.483l3.224,5.721h0.026V185.5h2.275v9.282h-2.483l-3.224-5.785h-0.026v5.785h-2.275V185.5z"
		/>
	<path fill="url(#colour2)" d="M36.632,185.5h3.991c1.421,0,2.535,0.407,3.341,1.223c0.806,0.814,1.209,1.941,1.209,3.38
		c0,1.508-0.401,2.665-1.203,3.471s-1.917,1.209-3.347,1.209h-3.991V185.5z M39.05,192.702h1.144
		c0.918-0.018,1.575-0.226,1.969-0.624c0.395-0.398,0.592-1.062,0.592-1.989c0-0.832-0.219-1.458-0.657-1.878
		c-0.438-0.421-1.072-0.631-1.904-0.631H39.05V192.702z"/>
	<path fill="url(#colour2)" d="M48.773,185.5h2.418v9.282h-2.418V185.5z"/>
	<path fill="url(#colour2)" d="M61.305,188.815c-0.061-0.459-0.258-0.813-0.592-1.06c-0.333-0.247-0.76-0.371-1.279-0.371
		c-0.373,0-0.698,0.076-0.976,0.228c-0.277,0.152-0.503,0.358-0.676,0.618c-0.174,0.26-0.302,0.555-0.384,0.884
		s-0.123,0.672-0.123,1.027s0.041,0.697,0.123,1.026c0.082,0.33,0.21,0.624,0.384,0.884c0.173,0.261,0.398,0.467,0.676,0.618
		s0.603,0.228,0.976,0.228c0.563,0,1.005-0.151,1.326-0.455c0.32-0.304,0.502-0.724,0.545-1.261h2.418
		c-0.034,0.589-0.162,1.12-0.383,1.592c-0.221,0.473-0.521,0.871-0.897,1.196s-0.817,0.574-1.319,0.747
		c-0.503,0.174-1.049,0.261-1.639,0.261c-0.684,0-1.313-0.124-1.885-0.371s-1.063-0.591-1.475-1.033s-0.726-0.958-0.942-1.547
		c-0.217-0.59-0.325-1.218-0.325-1.885c0-0.668,0.108-1.296,0.325-1.886c0.216-0.589,0.531-1.104,0.942-1.547
		c0.412-0.441,0.903-0.786,1.475-1.033s1.201-0.37,1.885-0.37c0.512,0,1.015,0.077,1.509,0.233c0.493,0.156,0.944,0.388,1.353,0.695
		c0.406,0.308,0.734,0.681,0.98,1.118c0.248,0.438,0.379,0.926,0.396,1.463H61.305z"/>
	<path fill="url(#colour2)" d="M69.807,185.5h2.457l3.471,9.282h-2.521l-0.572-1.664h-3.236l-0.586,1.664h-2.482L69.807,185.5z
		 M69.963,191.324h2.105l-1.027-3.25h-0.025L69.963,191.324z"/>
	<path fill="url(#colour2)" d="M84.874,187.58h-2.77v7.202h-2.418v-7.202h-2.769v-2.08h7.956V187.58z"/>
	<path fill="url(#colour2)" d="M88.215,185.5h2.418v9.282h-2.418V185.5z"/>
	<path fill="url(#colour2)" d="M94.538,188.25c0.204-0.585,0.503-1.099,0.897-1.541c0.395-0.441,0.877-0.786,1.449-1.033
		s1.214-0.37,1.924-0.37c0.711,0,1.353,0.123,1.925,0.37c0.571,0.247,1.055,0.592,1.449,1.033c0.395,0.442,0.693,0.956,0.896,1.541
		c0.204,0.585,0.306,1.215,0.306,1.892c0,0.676-0.102,1.306-0.306,1.892c-0.203,0.585-0.502,1.098-0.896,1.54
		s-0.878,0.786-1.449,1.033c-0.572,0.247-1.214,0.371-1.925,0.371c-0.71,0-1.352-0.124-1.924-0.371s-1.055-0.591-1.449-1.033
		s-0.693-0.955-0.897-1.54c-0.203-0.586-0.305-1.216-0.305-1.892C94.233,189.465,94.335,188.835,94.538,188.25z M96.774,191.168
		c0.082,0.33,0.21,0.624,0.384,0.884c0.173,0.261,0.398,0.467,0.676,0.618s0.603,0.228,0.975,0.228c0.373,0,0.698-0.076,0.976-0.228
		s0.502-0.357,0.676-0.618c0.173-0.26,0.301-0.554,0.384-0.884c0.082-0.329,0.123-0.671,0.123-1.026s-0.041-0.698-0.123-1.027
		c-0.083-0.329-0.211-0.624-0.384-0.884c-0.174-0.26-0.398-0.466-0.676-0.618c-0.277-0.151-0.603-0.228-0.976-0.228
		c-0.372,0-0.697,0.076-0.975,0.228c-0.277,0.152-0.503,0.358-0.676,0.618c-0.174,0.26-0.302,0.555-0.384,0.884
		s-0.123,0.672-0.123,1.027S96.692,190.839,96.774,191.168z"/>
	<path fill="url(#colour2)" d="M106.946,185.5h2.483l3.224,5.721h0.026V185.5h2.275v9.282h-2.483l-3.224-5.785h-0.026v5.785h-2.275V185.5z
		"/>
	<path fill="url(#colour2)" d="M120.766,191.662c0.026,0.521,0.188,0.891,0.487,1.111c0.3,0.222,0.722,0.332,1.268,0.332
		c0.407,0,0.757-0.078,1.047-0.234s0.436-0.395,0.436-0.715c0-0.304-0.156-0.531-0.468-0.683c-0.313-0.151-0.807-0.313-1.482-0.487
		c-0.329-0.078-0.567-0.139-0.715-0.182c-0.39-0.113-0.736-0.234-1.04-0.364s-0.583-0.297-0.839-0.501
		c-0.256-0.203-0.459-0.455-0.61-0.754c-0.152-0.299-0.228-0.651-0.228-1.06c0-0.485,0.11-0.907,0.331-1.268
		c0.221-0.359,0.514-0.654,0.878-0.884c0.363-0.229,0.769-0.398,1.215-0.507s0.899-0.162,1.359-0.162
		c0.476,0,0.936,0.058,1.378,0.175c0.441,0.117,0.838,0.299,1.189,0.546c0.351,0.247,0.63,0.562,0.838,0.942
		c0.208,0.382,0.313,0.824,0.313,1.326h-2.418c0-0.398-0.146-0.685-0.436-0.857c-0.291-0.174-0.644-0.261-1.06-0.261
		c-0.313,0-0.585,0.063-0.819,0.189c-0.233,0.125-0.351,0.327-0.351,0.604c0,0.251,0.147,0.443,0.441,0.578
		c0.295,0.135,0.763,0.275,1.404,0.423c0.338,0.086,0.619,0.16,0.845,0.221c0.391,0.112,0.737,0.233,1.04,0.364
		c0.304,0.13,0.581,0.299,0.832,0.507c0.252,0.208,0.451,0.461,0.599,0.76c0.146,0.3,0.221,0.648,0.221,1.047
		c0,0.563-0.11,1.047-0.332,1.449c-0.221,0.403-0.52,0.727-0.896,0.969c-0.377,0.243-0.804,0.418-1.28,0.526
		s-0.988,0.163-1.534,0.163c-0.555,0-1.07-0.063-1.547-0.188c-0.477-0.126-0.903-0.323-1.28-0.592
		c-0.378-0.269-0.672-0.615-0.885-1.04c-0.212-0.425-0.318-0.923-0.318-1.495H120.766z"/>
</g>
<g>
	<path fill="url(#colour0)" d="M9.074,144.5l5.964,4.872v5.964H6.554v-4.494H3.026v6.846l6.216,0.462l5.796,4.872v10.206L9.494,178.1
		h-9.45l-5.502-4.872v-5.922h8.484v4.452h3.528v-7.015l-6.09-0.42l-5.922-4.872v-10.079l5.544-4.872H9.074z"/>
	<path fill="url(#colour0)" d="M37.97,161.93l-5.712,4.746h-5.544V178.1h-8.526v-33.6h14.07l5.712,4.872V161.93z M26.713,150.842v9.492
		h3.108v-9.492H26.713z"/>
	<path fill="url(#colour0)" d="M61.153,173.228l-5.46,4.872h-9.492l-5.628-4.872v-23.855l5.628-4.872h9.114l5.838,4.872V173.228z
		 M49.1,150.842v20.916h3.527v-20.916H49.1z"/>
	<path fill="url(#colour0)" d="M84.841,158.191l-4.284,3.234l4.284,3.275V178.1h-8.274v-13.398h-3.527V178.1h-8.526v-33.6h14.574
		l5.754,4.872V158.191z M73.039,150.842v7.56h3.527v-7.56H73.039z"/>
	<path fill="url(#colour0)" d="M106.302,150.842h-4.787V178.1H93.03v-27.258h-4.788V144.5h18.06V150.842z"/>
	<path fill="url(#colour0)" d="M123.732,144.5l5.964,4.872v5.964h-8.484v-4.494h-3.527v6.846l6.216,0.462l5.796,4.872v10.206l-5.544,4.872
		h-9.45l-5.502-4.872v-5.922h8.484v4.452h3.527v-7.015l-6.09-0.42l-5.922-4.872v-10.079l5.544-4.872H123.732z"/>
</g>
</svg>
