<?xml version="1.0" encoding="utf-8"?>
<!-- Generator: Adobe Illustrator 14.0.0, SVG Export Plug-In . SVG Version: 6.00 Build 43363)  -->
<!DOCTYPE svg PUBLIC "-//W3C//DTD SVG 1.0//EN" "http://www.w3.org/TR/2001/REC-SVG-20010904/DTD/svg10.dtd">
<svg version="1.0" id="Layer_1" xmlns="http://www.w3.org/2000/svg" xmlns:xlink="http://www.w3.org/1999/xlink" x="0px" y="0px"
	 width="800px" height="600px" viewBox="0 0 800 600" enable-background="new 0 0 800 600" xml:space="preserve">
<g>
	<polygon id="Star_1_" fill="#EBE800" stroke="#000000" points="355.51,120.738 344.165,155.996 306.851,155.996 337.153,177.934 
		325.512,213.158 355.51,191.27 385.507,213.158 374.023,177.635 404.167,156.145 367.002,156.145 	"/>
	<polygon id="Star" fill="#EBE800" stroke="#000000" points="217.51,120.738 206.165,155.996 168.851,155.996 199.153,177.934 
		187.512,213.158 217.51,191.27 247.507,213.158 236.023,177.635 266.167,156.145 229.002,156.145 	"/>
</g>
<g>
	<path fill="#EBE800" stroke="#000000" stroke-width="0.65" d="M288,259.362c27.825,0,51.325,18.503,58.876,43.875
		c1.655-5.561,2.548-11.451,2.548-17.55c0-33.924-27.5-61.425-61.425-61.425s-61.425,27.501-61.425,61.425
		c0,6.099,0.893,11.989,2.548,17.55C236.675,277.866,260.175,259.362,288,259.362z"/>
</g>
</svg>
