<?xml version="1.0" encoding="utf-8"?>
<!-- Generator: Adobe Illustrator 14.0.0, SVG Export Plug-In . SVG Version: 6.00 Build 43363)  -->
<!DOCTYPE svg PUBLIC "-//W3C//DTD SVG 1.0//EN" "http://www.w3.org/TR/2001/REC-SVG-20010904/DTD/svg10.dtd">
<svg version="1.0" id="Layer_1" xmlns="http://www.w3.org/2000/svg" xmlns:xlink="http://www.w3.org/1999/xlink" x="0px" y="0px"
	 width="800px" height="600px" viewBox="0 0 800 600" enable-background="new 0 0 800 600" xml:space="preserve">
<defs>
   <linearGradient id="colour1">
     <stop offset="100%" stop-color="#FFD600"/>
   </linearGradient>
 </defs>
<polygon fill="url(#colour1)" points="280.286,227.939 220.187,208.022 260.256,257.042 208.203,221 232.839,279.324 193.048,230.077 
	200.254,292.979 175.95,234.516 165.143,296.9 158.294,233.958 130.349,290.771 141.51,228.449 98.691,275.087 126.958,218.435 
	72.734,251.12 115.817,204.726 54.581,220.811 108.99,188.434 45.703,186.615 107.029,170.878 46.818,151.302 110.094,153.481 
	57.836,117.735 117.936,137.652 77.866,88.631 129.919,124.673 105.283,66.35 145.074,115.597 137.868,52.695 162.172,111.158 
	172.979,48.773 179.828,111.715 207.773,54.902 196.612,117.225 239.431,70.586 211.164,127.239 265.388,94.554 222.305,140.948 
	283.541,124.863 229.132,157.24 292.419,159.059 231.093,174.796 291.304,194.372 228.028,192.193 "/>
</svg>
