<?xml version="1.0" encoding="utf-8"?>
<!-- Generator: Adobe Illustrator 14.0.0, SVG Export Plug-In . SVG Version: 6.00 Build 43363)  -->
<!DOCTYPE svg PUBLIC "-//W3C//DTD SVG 1.0//EN" "http://www.w3.org/TR/2001/REC-SVG-20010904/DTD/svg10.dtd">
<svg version="1.0" id="Layer_1" xmlns="http://www.w3.org/2000/svg" xmlns:xlink="http://www.w3.org/1999/xlink" x="0px" y="0px"
	 width="550px" height="708px" viewBox="0 0 550 708" enable-background="new 0 0 550 708" xml:space="preserve">
<defs>
   <linearGradient id="colour1">
     <stop stop-color="black" />
   </linearGradient>
 </defs>
<path fill="url(#colour1)" d="M44.88,271.86c3.22-3.39,6.64-6.91,11.2-8.42c6.2,8.56,11.88,17.53,16.58,27c8.1,17.55,10.86,37.27,20.86,53.99
	c2.32,4.15,7.22,5.13,11.24,6.851c4.38,1.569,7.46,5.29,11.65,7.22c7.69,3.68,15.97,5.89,23.8,9.22c2.04,0.75,3.53,2.36,4.4,4.32
	c-2.18,4.5-7.39,5.729-11.75,7.08c-12.93,3.46-26.54,4.07-39.8,2.52c-5.2-0.489-10.85-1.31-14.87-4.949
	c-3.49-3.28-4.92-8.04-6.08-12.54c-2.96-12.32-4.36-24.96-7.44-37.25c-0.8-3.28-2.08-6.431-3.72-9.381
	c-4.18,3.461-4.75,9.24-5.88,14.19c-2.22,13.76-2.19,27.75-2.64,41.65c-1.31,0.029-2.61,0.05-3.92,0.05
	c-0.36-13.811-0.7-27.63-1.19-41.43c-0.84-10.271-2.89-20.591-7.44-29.9c-1.91-4.13-3.99-8.42-4.13-13.05
	C36.06,282.22,40.52,276.71,44.88,271.86z"/>
</svg>
