<?xml version="1.0" encoding="utf-8"?>
<!-- Generator: Adobe Illustrator 14.0.0, SVG Export Plug-In . SVG Version: 6.00 Build 43363)  -->
<!DOCTYPE svg PUBLIC "-//W3C//DTD SVG 1.0//EN" "http://www.w3.org/TR/2001/REC-SVG-20010904/DTD/svg10.dtd">
<svg version="1.0" id="Layer_1" xmlns="http://www.w3.org/2000/svg" xmlns:xlink="http://www.w3.org/1999/xlink" x="0px" y="0px"
	 width="800px" height="600px" viewBox="0 0 800 600" enable-background="new 0 0 800 600" xml:space="preserve">
<defs>
   <linearGradient id="colour1">
     <stop offset="100%" stop-color="#FFFF00"/>
   </linearGradient>
   <linearGradient id="colour2">
     <stop offset="100%" stop-color="#009245"/>
   </linearGradient>
 </defs>
<g>
	<path fill="url(#colour2)" d="M639.285,445.985c-0.713-0.329-72.244-33.07-156.585-50.686l-0.891-0.186v-69.351l1.002-0.148
		c0.134-0.02,0.886-0.118,2.561-0.118c8.532,0,44.946,2.751,155.261,38.146l0.711,0.228v83.063L639.285,445.985z"/>
	<path fill="url(#colour2)" d="M640.048,364.375v80.946c0,0-71.417-32.937-156.941-50.801c0-42.985,0-68.105,0-68.105
		S509.558,322.507,640.048,364.375z"/>
	<path fill="url(#colour2)" d="M76.267,363.871l0.71-0.228c110.316-35.396,146.729-38.146,155.263-38.146c1.675,0,2.426,0.099,2.56,0.118l1.001,0.148
		v69.351l-0.89,0.186c-84.339,17.615-155.872,50.356-156.584,50.686l-2.059,0.948V363.871z"/>
	<path fill="url(#colour2)" d="M77.563,364.375v80.946c0,0,71.417-32.937,156.942-50.801c0-42.985,0-68.105,0-68.105
		S208.053,322.507,77.563,364.375z"/>
	<polygon fill="url(#colour2)" points="483.586,351.458 539.398,368.228 480.749,393.981 	"/>
	<polygon fill="url(#colour2)" points="482.154,392.365 536.819,368.361 484.799,352.73 	"/>
	<polygon fill="url(#colour2)" points="178.213,368.228 234.023,351.458 236.861,393.981 	"/>
	<polygon fill="url(#colour2)" points="235.457,392.365 180.792,368.361 232.812,352.73 	"/>
	<path fill="url(#colour2)" d="M178.607,298.625l0.741-0.226c55.744-16.975,115.764-25.582,178.392-25.582c102.994,0,178.21,23.675,178.959,23.914
		l0.705,0.226l0.903,73.857l-1.894-0.603c-60.029-19.085-120.996-28.762-181.208-28.762c-55.059,0-99.339,8.256-126.789,15.181
		c-29.755,7.508-46.703,15.114-46.871,15.19l-2.031,0.92L178.607,298.625z"/>
	<path fill="url(#colour2)" d="M179.91,299.139l0.882,72.014c0,0,149.006-67.548,356.205-1.675l-0.882-72.014
		C536.114,297.464,365.066,242.755,179.91,299.139z"/>
</g>
<polygon fill="url(#colour1)" points="413.579,331.109 382.095,324.236 395.104,353.721 370.421,333.004 368.237,365.152 356.011,335.338 
	339.136,362.793 342.165,330.709 314.465,347.178 332.056,320.178 299.876,321.885 328,306.154 298.712,292.711 330.926,291.849 
	311.24,266.338 340.164,280.545 334.589,248.806 353.597,274.83 363.41,244.135 368.147,276.009 391.101,253.392 380.483,283.818 
	411.319,274.458 387.777,296.463 419.431,302.504 388.358,311.051 "/>
</svg>
