<?xml version="1.0" encoding="utf-8"?>
<!-- Generator: Adobe Illustrator 14.0.0, SVG Export Plug-In . SVG Version: 6.00 Build 43363)  -->
<!DOCTYPE svg PUBLIC "-//W3C//DTD SVG 1.0//EN" "http://www.w3.org/TR/2001/REC-SVG-20010904/DTD/svg10.dtd">
<svg version="1.0" id="Layer_1" xmlns="http://www.w3.org/2000/svg" xmlns:xlink="http://www.w3.org/1999/xlink" x="0px" y="0px"
	 width="800px" height="600px" viewBox="0 0 800 600" enable-background="new 0 0 800 600" xml:space="preserve">
<defs>
   <linearGradient id="colour1">
     <stop offset="100%" stop-color="#FFCF00"/>
   </linearGradient> 
 </defs>
<path fill="url(#colour1)" d="M717.021,298.857c0,53.818-140.254,97.448-313.266,97.448S90.49,352.676,90.49,298.857
	c0-53.82,140.253-97.449,313.265-97.449S717.021,245.038,717.021,298.857z M406.306,211.612
	c-159.204,0-288.265,39.974-288.265,89.286c0,49.31,129.061,89.285,288.265,89.285c159.205,0,288.266-39.976,288.266-89.285
	C694.571,251.586,565.511,211.612,406.306,211.612z"/>
<g>
	<path fill="url(#colour1)" d="M231.754,288.901c-0.417,3.664,0.551,6.386,2.914,8.143c2.358,1.769,5.611,2.653,9.758,2.653
		c3.944,0,6.948-0.747,9.011-2.229c2.062-1.481,3.214-3.279,3.456-5.398c0.204-1.786-0.063-3.147-0.8-4.089
		c-0.74-0.942-1.747-1.648-3.024-2.119c-1.574-0.563-4.505-1.364-8.791-2.397c-3.288-0.801-5.652-1.39-7.094-1.766
		c-4.23-1.083-7.153-2.751-8.761-5.011c-1.615-2.257-2.251-4.843-1.919-7.761c0.279-2.447,1.071-4.597,2.386-6.458
		c1.312-1.857,3.001-3.411,5.063-4.657c2.061-1.247,4.317-2.174,6.769-2.788c2.451-0.609,4.955-0.916,7.518-0.916
		c2.919,0,5.605,0.341,8.063,1.022c2.457,0.683,4.58,1.72,6.369,3.106c1.786,1.387,3.104,3.093,3.949,5.114
		c0.844,2.024,1.122,4.307,0.833,6.846h-9.601c0.148-3.104-0.732-5.364-2.647-6.773c-1.911-1.413-4.635-2.116-8.169-2.116
		c-1.228,0-2.431,0.106-3.608,0.315c-1.174,0.213-2.291,0.577-3.35,1.094c-1.057,0.52-1.931,1.2-2.615,2.047
		c-0.684,0.847-1.096,1.88-1.235,3.104c-0.193,1.694,0.226,3.069,1.258,4.129c1.029,1.06,2.54,1.846,4.531,2.363l2.094,0.494
		c2.239,0.565,4.329,1.094,6.27,1.587c1.941,0.494,3.484,0.882,4.63,1.167c1.143,0.281,1.941,0.493,2.384,0.634
		c3.324,0.942,5.771,2.622,7.339,5.045c1.565,2.42,2.19,5.021,1.875,7.796c-0.312,2.733-1.186,5.11-2.616,7.132
		c-1.434,2.021-3.249,3.664-5.441,4.939c-2.191,1.269-4.63,2.211-7.31,2.819c-2.683,0.614-5.43,0.918-8.246,0.918
		c-3.175,0-6.104-0.361-8.786-1.096c-2.684-0.724-4.978-1.82-6.886-3.279c-1.906-1.459-3.317-3.337-4.233-5.646
		c-0.915-2.309-1.229-4.961-0.936-7.971H231.754z"/>
	<path fill="url(#colour1)" d="M278.44,255.309h9.601l-3.344,29.354c-0.252,2.216-0.352,4.094-0.297,5.646
		c0.051,1.556,0.41,3.015,1.077,4.375c0.66,1.367,1.84,2.47,3.538,3.314c1.694,0.85,4.002,1.274,6.921,1.274
		c2.919,0,5.321-0.425,7.211-1.274c1.887-0.844,3.319-1.947,4.294-3.314c0.974-1.361,1.665-2.82,2.073-4.375
		c0.408-1.551,0.738-3.429,0.99-5.646l3.344-29.354h9.601l-3.674,32.249c-0.718,6.305-3.275,11.106-7.671,14.392
		c-4.395,3.296-10.074,4.943-17.037,4.943c-6.963,0-12.27-1.647-15.914-4.943c-3.645-3.285-5.107-8.086-4.389-14.392L278.44,255.309
		z"/>
	<path fill="url(#colour1)" d="M334.512,255.309h24.194c3.688,0,6.718,0.482,9.093,1.447c2.372,0.965,4.15,2.223,5.33,3.773
		c1.18,1.554,1.937,3.213,2.274,4.976c0.337,1.764,0.401,3.563,0.191,5.399c-0.204,1.789-0.661,3.551-1.372,5.292
		c-0.711,1.743-1.833,3.388-3.366,4.941c-1.533,1.551-3.611,2.812-6.228,3.773c-2.619,0.964-5.772,1.447-9.459,1.447h-14.593
		l-2.203,19.335h-9.601L334.512,255.309z M341.396,279.159h14.055c1.125,0,2.27-0.141,3.43-0.422
		c1.157-0.281,2.245-0.752,3.271-1.413c1.022-0.657,1.875-1.528,2.563-2.61c0.687-1.083,1.115-2.375,1.287-3.882
		c0.348-3.055-0.263-5.208-1.837-6.454c-1.574-1.247-3.793-1.873-6.663-1.873h-14.208L341.396,279.159z"/>
	<path fill="url(#colour1)" d="M385.743,255.309h26.191c5.941,0,10.313,1.188,13.114,3.563s3.954,5.729,3.461,10.056
		c-0.257,2.256-0.836,4.186-1.734,5.785c-0.9,1.6-1.902,2.872-3.006,3.811c-1.107,0.942-2.133,1.622-3.077,2.047
		c-0.942,0.422-1.843,0.775-2.693,1.06l-0.016,0.141c0.955,0.141,1.86,0.399,2.715,0.775c0.854,0.376,1.642,0.976,2.367,1.8
		c0.725,0.821,1.268,1.901,1.628,3.245c0.358,1.344,0.432,2.952,0.218,4.835c-0.354,3.101-0.411,5.847-0.169,8.224
		c0.242,2.372,0.792,4.054,1.654,5.042h-10.295c-0.505-0.94-0.783-1.986-0.83-3.141c-0.05-1.154,0.025-2.578,0.218-4.267
		c0.553-4.847,0.187-8.281-1.093-10.303c-1.282-2.021-4.045-3.035-8.296-3.035h-14.133l-2.363,20.745h-9.601L385.743,255.309z
		 M392.731,278.243h15.746c6.247,0,9.675-2.682,10.286-8.045c0.177-1.551,0.08-2.834-0.289-3.845
		c-0.373-1.011-0.974-1.801-1.807-2.363c-0.833-0.565-1.785-0.953-2.861-1.166c-1.079-0.212-2.308-0.319-3.688-0.319h-15.593
		L392.731,278.243z"/>
	<path fill="url(#colour1)" d="M439.814,255.309h39.479l-0.868,7.621h-29.878l-1.504,13.197h27.65l-0.819,7.195h-27.65l-1.681,14.75
		h30.416l-0.868,7.62h-40.018L439.814,255.309z"/>
	<path fill="url(#colour1)" d="M488.052,255.309h13.518l10.634,39.45h0.157l19.24-39.45h13.364l-5.74,50.383h-9.139l4.43-38.88h-0.153
		l-19.638,38.88h-7.913l-10.778-38.88h-0.153l-4.43,38.88h-9.139L488.052,255.309z"/>
	<path fill="url(#colour1)" d="M556.487,255.309h39.48l-0.868,7.621h-29.879l-1.504,13.197h27.65l-0.819,7.195h-27.65l-1.681,14.75h30.416
		l-0.868,7.62h-40.018L556.487,255.309z"/>
</g>
<g>
	<polygon fill="url(#colour1)" points="577.225,313.612 229.265,313.612 229.265,309.612 577.225,309.612 577.225,313.612 	"/>
</g>
<g>
	<path fill="#FFFFFF" d="M251.844,327.906c0.02-0.851-0.116-1.57-0.407-2.16s-0.707-1.049-1.249-1.378
		c-0.542-0.328-1.178-0.565-1.906-0.71c-0.728-0.146-1.537-0.218-2.426-0.218c-1.721,0-3.164,0.324-4.33,0.972
		s-1.814,1.542-1.944,2.683c-0.143,1.257,0.31,2.15,1.362,2.682c1.051,0.532,2.961,1.03,5.731,1.494
		c1.119,0.193,2.086,0.401,2.902,0.623c0.815,0.223,1.549,0.527,2.201,0.914c0.652,0.387,1.144,0.903,1.477,1.551
		c0.332,0.648,0.444,1.446,0.336,2.393c-0.139,1.219-0.503,2.248-1.092,3.089c-0.588,0.841-1.327,1.508-2.214,2.001
		c-0.888,0.493-1.846,0.846-2.875,1.059c-1.03,0.212-2.096,0.319-3.198,0.319c-1.373,0-2.591-0.126-3.654-0.378
		c-1.064-0.251-1.979-0.667-2.744-1.246c-0.765-0.58-1.335-1.344-1.711-2.291s-0.525-2.098-0.448-3.451h2.146
		c-0.022,1.044,0.115,1.919,0.412,2.624c0.296,0.706,0.741,1.262,1.333,1.668c0.592,0.405,1.289,0.691,2.092,0.855
		s1.736,0.246,2.8,0.246c0.851,0,1.65-0.067,2.401-0.203c0.75-0.135,1.442-0.357,2.077-0.667c0.634-0.309,1.156-0.729,1.564-1.261
		c0.409-0.532,0.658-1.194,0.749-1.987c0.081-0.715-0.03-1.305-0.335-1.769s-0.751-0.836-1.337-1.116
		c-0.587-0.28-1.234-0.498-1.941-0.653c-0.708-0.154-1.622-0.318-2.743-0.492l-0.711-0.116c-2.545-0.406-4.383-1.024-5.516-1.856
		c-1.133-0.831-1.608-2.049-1.425-3.653c0.124-1.083,0.456-2.011,0.999-2.784c0.542-0.773,1.231-1.396,2.069-1.871
		c0.837-0.473,1.746-0.816,2.727-1.029c0.981-0.212,2.004-0.318,3.067-0.318c1.121,0,2.172,0.111,3.152,0.333
		c0.979,0.223,1.848,0.58,2.604,1.073c0.756,0.493,1.328,1.16,1.715,2.001c0.387,0.841,0.533,1.852,0.438,3.03H251.844z"/>
	<path fill="#FFFFFF" d="M273.596,333.996l-7.941-12.006h2.784l6.474,9.86l8.722-9.86h2.784l-10.677,12.006l-0.991,8.7h-2.146
		L273.596,333.996z"/>
	<path fill="#FFFFFF" d="M298.047,321.99h2.581l12.455,17.69h0.058l2.016-17.69h2.146l-2.359,20.706h-2.494l-12.542-17.69h-0.058
		l-2.016,17.69h-2.146L298.047,321.99z"/>
	<path fill="#FFFFFF" d="M331.513,321.99h2.146l-2.359,20.706h-2.146L331.513,321.99z"/>
	<path fill="#FFFFFF" d="M347.869,321.99h10.063c2.977,0,5.146,0.904,6.506,2.712s1.853,4.354,1.479,7.642
		c-0.167,1.469-0.511,2.832-1.031,4.089s-1.211,2.354-2.072,3.291c-0.861,0.938-1.877,1.668-3.048,2.189
		c-1.171,0.522-2.463,0.783-3.874,0.783h-10.382L347.869,321.99z M347.88,340.725h7.83c0.986,0,1.906-0.146,2.761-0.436
		c0.854-0.29,1.638-0.764,2.352-1.421c0.713-0.657,1.31-1.527,1.791-2.61c0.48-1.082,0.808-2.387,0.982-3.914
		c0.317-2.784-0.01-4.877-0.981-6.279c-0.971-1.401-2.636-2.103-4.995-2.103h-7.83L347.88,340.725z"/>
	<path fill="#FFFFFF" d="M399.652,334.809c-0.248,1.16-0.691,2.252-1.331,3.276c-0.639,1.025-1.446,1.919-2.422,2.683
		c-0.977,0.765-2.098,1.363-3.366,1.798c-1.268,0.436-2.626,0.653-4.077,0.653c-1.663,0-3.146-0.252-4.452-0.755
		c-1.306-0.502-2.388-1.232-3.246-2.189c-0.857-0.957-1.466-2.106-1.825-3.45c-0.36-1.344-0.445-2.838-0.258-4.48
		c0.143-1.257,0.49-2.519,1.04-3.785c0.551-1.266,1.332-2.44,2.345-3.523c1.012-1.082,2.267-1.947,3.761-2.596
		c1.495-0.647,3.199-0.971,5.113-0.971c1.179,0,2.313,0.14,3.403,0.42c1.089,0.28,2.073,0.721,2.953,1.319
		c0.878,0.6,1.572,1.383,2.081,2.35c0.509,0.967,0.766,2.107,0.771,3.422h-2.146c-0.047-0.947-0.271-1.778-0.673-2.494
		c-0.402-0.715-0.936-1.295-1.6-1.74c-0.665-0.444-1.425-0.772-2.28-0.985c-0.855-0.213-1.767-0.319-2.733-0.319
		c-2.668,0-4.871,0.754-6.608,2.262s-2.773,3.722-3.106,6.642c-0.137,1.198-0.101,2.329,0.106,3.393s0.612,2.011,1.213,2.842
		c0.601,0.832,1.431,1.484,2.488,1.958s2.351,0.71,3.878,0.71c2.378,0,4.288-0.561,5.73-1.682s2.474-2.707,3.094-4.756H399.652z"/>
	<path fill="#FFFFFF" d="M426.672,336.403h-10.904l-3.529,6.293h-2.32l11.756-20.706h2.493l7.036,20.706h-2.493L426.672,336.403z
		 M422.646,324.137l-5.784,10.295h9.164L422.646,324.137z"/>
	<path fill="#FFFFFF" d="M449.781,323.962h-8.12l0.225-1.972h18.386l-0.225,1.972h-8.119l-2.135,18.734h-2.146L449.781,323.962z"/>
	<path fill="#FFFFFF" d="M472.51,321.99h2.146l-2.359,20.706h-2.146L472.51,321.99z"/>
	<path fill="#FFFFFF" d="M488.308,327.646c0.755-1.373,1.713-2.519,2.871-3.437s2.435-1.604,3.83-2.06
		c1.396-0.454,2.848-0.681,4.355-0.681s2.907,0.227,4.199,0.681c1.292,0.455,2.413,1.142,3.362,2.06s1.645,2.063,2.088,3.437
		s0.563,2.938,0.363,4.698c-0.2,1.759-0.678,3.325-1.434,4.697c-0.756,1.373-1.713,2.519-2.871,3.437
		c-1.158,0.919-2.436,1.605-3.831,2.06s-2.848,0.682-4.355,0.682s-2.907-0.228-4.199-0.682s-2.412-1.141-3.361-2.06
		c-0.949-0.918-1.646-2.063-2.088-3.437c-0.443-1.372-0.564-2.938-0.364-4.697C487.073,330.584,487.552,329.019,488.308,327.646z
		 M489.467,336.302c0.354,1.131,0.912,2.059,1.669,2.784c0.76,0.725,1.65,1.267,2.673,1.624c1.021,0.357,2.122,0.536,3.302,0.536
		s2.321-0.174,3.424-0.521c1.104-0.349,2.117-0.89,3.042-1.624s1.693-1.668,2.305-2.799c0.612-1.131,1.005-2.45,1.177-3.958
		c0.172-1.509,0.08-2.828-0.274-3.959c-0.354-1.131-0.909-2.063-1.668-2.799c-0.757-0.734-1.647-1.275-2.671-1.624
		c-1.024-0.348-2.125-0.521-3.305-0.521s-2.321,0.174-3.423,0.521c-1.104,0.349-2.117,0.89-3.043,1.624
		c-0.923,0.735-1.692,1.668-2.305,2.799c-0.611,1.131-1.004,2.45-1.176,3.959C489.021,333.852,489.113,335.171,489.467,336.302z"/>
	<path fill="#FFFFFF" d="M523.723,321.99h2.58l12.457,17.69h0.057l2.016-17.69h2.146l-2.359,20.706h-2.494l-12.543-17.69h-0.057
		l-2.016,17.69h-2.146L523.723,321.99z"/>
	<path fill="#FFFFFF" d="M570.318,327.906c0.019-0.851-0.116-1.57-0.406-2.16s-0.707-1.049-1.249-1.378
		c-0.543-0.328-1.179-0.565-1.906-0.71c-0.728-0.146-1.537-0.218-2.426-0.218c-1.721,0-3.164,0.324-4.33,0.972
		c-1.167,0.647-1.814,1.542-1.944,2.683c-0.143,1.257,0.311,2.15,1.363,2.682c1.05,0.532,2.96,1.03,5.729,1.494
		c1.119,0.193,2.087,0.401,2.902,0.623c0.816,0.223,1.549,0.527,2.202,0.914c0.651,0.387,1.143,0.903,1.476,1.551
		c0.332,0.648,0.444,1.446,0.337,2.393c-0.139,1.219-0.502,2.248-1.093,3.089c-0.588,0.841-1.327,1.508-2.214,2.001
		c-0.889,0.493-1.847,0.846-2.877,1.059c-1.027,0.212-2.095,0.319-3.196,0.319c-1.373,0-2.591-0.126-3.654-0.378
		c-1.063-0.251-1.979-0.667-2.742-1.246c-0.767-0.58-1.338-1.344-1.712-2.291c-0.377-0.947-0.524-2.098-0.448-3.451h2.146
		c-0.023,1.044,0.115,1.919,0.411,2.624c0.297,0.706,0.741,1.262,1.332,1.668c0.593,0.405,1.288,0.691,2.092,0.855
		s1.737,0.246,2.8,0.246c0.85,0,1.65-0.067,2.402-0.203c0.75-0.135,1.441-0.357,2.076-0.667c0.635-0.309,1.155-0.729,1.565-1.261
		c0.408-0.532,0.657-1.194,0.748-1.987c0.081-0.715-0.031-1.305-0.336-1.769s-0.75-0.836-1.338-1.116
		c-0.587-0.28-1.232-0.498-1.94-0.653c-0.707-0.154-1.62-0.318-2.741-0.492l-0.713-0.116c-2.544-0.406-4.384-1.024-5.516-1.856
		c-1.134-0.831-1.608-2.049-1.426-3.653c0.124-1.083,0.456-2.011,0.999-2.784c0.541-0.773,1.231-1.396,2.069-1.871
		c0.837-0.473,1.747-0.816,2.729-1.029c0.98-0.212,2.003-0.318,3.065-0.318c1.121,0,2.173,0.111,3.151,0.333
		c0.98,0.223,1.848,0.58,2.604,1.073c0.756,0.493,1.326,1.16,1.715,2.001c0.387,0.841,0.533,1.852,0.438,3.03H570.318z"/>
</g>
</svg>
