<?xml version="1.0" encoding="utf-8"?>
<!-- Generator: Adobe Illustrator 14.0.0, SVG Export Plug-In . SVG Version: 6.00 Build 43363)  -->
<!DOCTYPE svg PUBLIC "-//W3C//DTD SVG 1.1//EN" "http://www.w3.org/Graphics/SVG/1.1/DTD/svg11.dtd">
<svg version="1.1" id="Layer_1" xmlns="http://www.w3.org/2000/svg" xmlns:xlink="http://www.w3.org/1999/xlink" x="0px" y="0px"
	 width="800px" height="600px" viewBox="0 0 800 600" enable-background="new 0 0 800 600" xml:space="preserve">
<defs>
   <linearGradient id="colour1">
     <stop offset="100%" stop-color="black"/>
   </linearGradient>
   <linearGradient id="colour2">
     <stop offset="100%" stop-color="#FFC425"/>
   </linearGradient>
</defs>
<path fill="url(#colour1)" d="M328.262,276.522l-18.33-12.715l22.625-26.174l1.021,16.35l7.605,0.015c9.16,1.028,17.222,1.541,24.187,1.541
	c14.668,0,24.841-2.234,30.229-6.643c3.55-2.903,5.247-7.153,5.046-12.634c-0.552-15.085-14.453-35.122-33.806-48.721l-1.636-1.15
	l8.052-11.455l1.636,1.15c23.062,16.208,39.033,40.186,39.746,59.666c0.361,9.946-3.154,18.237-10.171,23.979
	c-8.113,6.636-20.962,9.861-39.285,9.861c-8.218,0-17.256-0.645-28.267-2.026l2.432,16.963L328.262,276.522z"/>
<polygon fill="url(#colour1)" points="351.639,248.239 351.639,216.935 341.324,216.935 341.324,203.822 376.985,203.822 376.985,216.935 366.49,216.935 
	366.49,248.239 "/>
<path fill="url(#colour1)" d="M323.68,276.522l-18.33-12.715l22.625-26.174l1.021,16.35l7.605,0.015c9.16,1.028,17.222,1.541,24.187,1.541
	c14.668,0,24.841-2.234,30.229-6.643c3.55-2.903,5.247-7.153,5.046-12.634c-0.552-15.085-14.453-35.122-33.806-48.721l-1.636-1.15
	l8.052-11.455l1.636,1.15c23.062,16.208,39.034,40.186,39.747,59.666c0.361,9.946-3.154,18.237-10.171,23.979
	c-8.113,6.636-20.962,9.861-39.285,9.861c-8.218,0-17.256-0.645-28.267-2.026l2.432,16.963L323.68,276.522z"/>
<polygon fill="url(#colour1)" points="347.056,248.239 347.056,216.935 336.741,216.935 336.741,203.822 372.403,203.822 372.403,216.935 
	361.907,216.935 361.907,248.239 "/>
<path fill="url(#colour2)" d="M369.158,177.721l-5.752,8.184c19.832,13.936,34.082,34.614,34.656,50.283
	c0.225,6.14-1.719,10.935-5.779,14.255c-8.477,6.934-27.202,8.789-55.686,5.554l-9.482-0.017l-0.833-13.333l-17.964,20.784
	l16.533,11.47l7.263,5.247l-2.136-14.902c9.521,1.257,20.21,2.346,30.62,2.346c14.99,0,29.253-2.239,38.018-9.409
	c6.514-5.33,9.778-13.062,9.438-22.358C407.363,216.935,391.731,193.588,369.158,177.721z"/>
<polygon fill="url(#colour2)" points="349.056,214.936 338.741,214.936 338.741,205.822 370.403,205.822 370.403,214.936 359.908,214.936 
	359.908,246.239 349.056,246.239 "/>
</svg>
