<?xml version="1.0" encoding="utf-8"?>
<!-- Generator: Adobe Illustrator 14.0.0, SVG Export Plug-In . SVG Version: 6.00 Build 43363)  -->
<!DOCTYPE svg PUBLIC "-//W3C//DTD SVG 1.1//EN" "http://www.w3.org/Graphics/SVG/1.1/DTD/svg11.dtd">
<svg version="1.1" id="Layer_1" xmlns="http://www.w3.org/2000/svg" xmlns:xlink="http://www.w3.org/1999/xlink" x="0px" y="0px"
	 width="800px" height="600px" viewBox="0 0 800 600" enable-background="new 0 0 800 600" xml:space="preserve">
<defs>
   <linearGradient id="colour1">
     <stop offset="100%" stop-color="black"/>
   </linearGradient>
   <linearGradient id="colour2">
     <stop offset="100%" stop-color="#FFC425"/>
   </linearGradient>
</defs>
<path fill="url(#colour1)" d="M401.453,365.392c-2.107-0.862-3.075-1.93-4.334-3.132l0,0c-1.195-1.219-2.422-2.665-3.788-4.384l0,0
	c-2.718-3.437-5.95-7.972-9.64-13.432l0,0c-7.367-10.903-16.51-25.466-26.076-41.386l0,0
	c-19.136-31.869-39.852-68.942-50.992-92.733l0,0c-3.198-6.853-5.609-12.526-7.126-17.335l0,0c-0.778-2.671-1.468-4.821-1.544-8.479
	l0,0c0-0.37,0.008-0.45,0.006-0.45l0,0l8.678,0.45h4.316h-2.16l2.124-0.667c0.004,0.032,0.045,0.257,0.132,0.601l0,0
	c0.176,0.695,0.533,1.852,1.048,3.266l0,0c1.031,2.851,2.683,6.759,4.794,11.321l0,0c4.227,9.152,10.297,20.998,17.292,33.93l0,0
	c13.997,25.881,31.732,56.221,46.325,79.469l0,0c9.687,15.457,18.15,27.938,22.662,33.303l0,0c0.082,0.1,0.164,0.197,0.244,0.291
	l0,0c0.344-0.382,0.723-0.819,1.127-1.308l0,0c2.223-2.679,5.221-6.856,8.645-12.059l0,0c6.869-10.425,15.512-24.985,24.471-41.022
	l0,0c17.915-32.046,37.217-70.268,46.827-93.724l0,0c2.736-6.644,4.676-12.172,5.46-15.326l0,0l12.253,6.083
	c-2.142,8.327-6.71,19.491-12.925,33.255l0,0c-6.205,13.666-14.009,29.516-22.352,45.595l0,0
	c-16.711,32.181-35.426,65.079-47.926,83.039l0,0c-3.622,5.166-6.642,9.094-9.522,11.827l0,0c-1.622,1.403-3.01,2.804-5.868,3.27
	l0,0l-1.09,0.12L401.453,365.392L401.453,365.392z"/>
<circle fill="url(#colour2)" cx="402.302" cy="395.131" r="62.222"/>
</svg>
