<?xml version="1.0" encoding="utf-8"?>
<!-- Generator: Adobe Illustrator 14.0.0, SVG Export Plug-In . SVG Version: 6.00 Build 43363)  -->
<!DOCTYPE svg PUBLIC "-//W3C//DTD SVG 1.0//EN" "http://www.w3.org/TR/2001/REC-SVG-20010904/DTD/svg10.dtd">
<svg version="1.0" id="Layer_1" xmlns="http://www.w3.org/2000/svg" xmlns:xlink="http://www.w3.org/1999/xlink" x="0px" y="0px"
	 width="842px" height="595px" viewBox="0 0 842 595" enable-background="new 0 0 842 595" xml:space="preserve">
<defs>
   <linearGradient id="colour1">
     <stop offset="100%" stop-color="#623F99"/>
   </linearGradient>
   <linearGradient id="colour2">
     <stop offset="100%" stop-color="#006A44"/>
   </linearGradient>
  </defs><g>
	<path fill="url(#colour1)" d="M410.156,139.462c0.507,2.197,1.201,5.505,1.744,8.839c1.085,6.68,1.576,13.445,1.519,20.189
		c4.672-0.69,9.415-0.7,14.147,0c-0.057-6.708,0.428-13.473,1.52-20.188c0.543-3.333,1.236-6.642,1.743-8.839
		c0.508-2.196,0.828-3.281,1.187-4.353c0.359-1.072,0.757-2.13,1.195-3.171s0.921-2.064,1.438-3.068
		c-5.96-2.493-12.584-3.377-18.988-2.519c-3.201,0.425-6.346,1.276-9.327,2.519c1.062,2.046,1.931,4.135,2.635,6.238
		C409.329,136.181,409.649,137.266,410.156,139.462z"/>
	<path fill="url(#colour1)" d="M429.665,169.156c1.84,0.584,3.659,1.299,5.454,2.16c0.291,0.883,1.69,1.633,2.452,0.726
		c0.762-0.907,0.887-3.471,1.221-5.845s0.878-4.558,1.423-6.485c1.07-3.755,2.196-6.829,3.554-10.175
		c1.716-4.095,3.746-8.127,6.145-12.087c-1.422-0.111-2.82-0.44-4.192-1.028c-0.652-0.311-1.284-0.665-2.067-1.212
		c-0.784-0.547-1.72-1.29-2.445-1.633c-0.725-0.344-1.24-0.289-1.758-0.609s-1.038-1.015-1.338-1.766
		c-3.802,6.43-5.979,13.096-6.902,19.796C430.412,157.039,429.898,163.092,429.665,169.156z"/>
	<path fill="url(#colour1)" d="M403.279,172.763c2.65-1.551,5.337-2.707,8.042-3.546c-0.104-3.037-0.285-6.071-0.535-9.101
		c-0.25-3.029-0.57-6.053-0.96-8.717s-0.85-4.967-1.467-7.228c-0.617-2.261-1.391-4.48-2.308-6.639
		c-0.918-2.158-1.98-4.254-3.176-6.271c-0.234,0.388-0.542,0.729-1.028,1.069c-1.064,0.673-2.955,1.735-4.689,3.094
		c-1.94,1.317-4.008,1.953-6.083,2.085c4.448,7.218,7.439,14.629,9.631,22.024C401.952,163.91,402.801,168.32,403.279,172.763z"/>
	<path fill="url(#colour2)" d="M368.688,207.244c1.082,1.953,2.405,3.771,3.931,5.402c1.525,1.63,3.252,3.071,5.127,4.283
		c-1.283,1.874-2.702,2.711-4.182,3.257c0.951,1.014,1.999,1.937,3.127,2.75c1.128,0.813,2.334,1.516,3.595,2.122
		c1.261,0.606,2.576,1.116,4.299,1.238c1.724,0.122,3.856-0.144,5.582,0.194c1.726,0.338,3.046,1.28,5.482,1.862
		s5.989,0.804,9.533,0.882c3.545,0.078,7.082,0.013,10.605-0.23l-0.002,5.052c3.138-0.013,6.275-0.004,9.412-0.006v-5.046
		c7.009,0.483,14.106,0.269,21.148-0.681c3.501-0.473,6.979-1.127,9.375-1.685c2.397-0.558,3.715-1.021,4.977-1.603
		c1.263-0.583,2.47-1.286,3.597-2.099c1.128-0.813,2.177-1.735,3.127-2.75c-1.021-0.361-2.056-0.931-3.035-1.875
		c-0.431-0.417-0.815-0.881-1.146-1.381c1.875-1.211,3.603-2.653,5.128-4.283c1.524-1.63,2.849-3.449,3.931-5.402
		c3.213-5.832,4.138-12.359,2.964-18.904c-0.336-1.88-0.836-3.765-1.519-5.626c-0.192,0.681-0.487,1.333-0.871,1.928
		c-0.89,1.362-2.042,2.19-3.208,2.686c-0.83-2.171-1.888-4.255-3.15-6.207c-1.263-1.952-2.731-3.77-4.373-5.415
		c-2.41-2.382-5.32-4.677-8.084-5.792c-1.894-0.778-3.908-1.179-5.9-1.207c1.542,1.557,2.798,3.195,3.817,4.872
		c1.452,2.411,2.297,4.504,2.832,6.499c0.579,2.209,0.805,3.752,0.528,5.895c-0.247,1.116-0.297,1.916-1.994,3.096
		c-0.91,0.495-1.957,0.588-2.998,0.165c1.652,3.424,2.99,6.966,3.711,10.459c0.372,1.961,0.396,4.803-0.009,6.798
		c-0.278,0.949-0.015,1.854-1.46,3.033c-1.107,0.691-2.377,0.922-3.813-0.354c-0.519-0.53-0.789-1.208-0.834-1.862
		c-0.852,1.821-1.896,3.552-3.109,5.154s-2.599,3.075-4.122,4.386c-4.752,4.076-10.238,6.157-15.5,6.746l0.012-3.744
		c2.081-0.322,4.125-0.884,6.078-1.672s3.814-1.803,5.535-3.017c1.72-1.214,3.3-2.628,4.698-4.202
		c2.841-3.232,4.442-6.657,5.305-10.387c0.523-2.333,0.63-4.446,0.452-6.661c-0.605-5.456-2.175-9.833-7.299-14.975
		c-3.193-2.991-6.428-4.632-9.7-5.768c-7.854-2.472-16.406-2.302-24.716,2.339c-2.16,1.289-4.333,2.895-6.559,5.555
		c-1.957,2.374-3.197,4.708-4.054,7.068c-0.988,2.716-1.501,5.911-1.291,9.073c0.21,3.209,1.162,6.908,3.422,10.579
		c0.697,1.124,1.491,2.188,2.368,3.177c1.398,1.574,2.978,2.988,4.699,4.202c3.599,2.541,7.619,4.072,11.612,4.689l0.012,3.744
		c-3.486-0.395-7.019-1.406-10.548-3.322c-1.765-0.963-3.428-2.112-4.951-3.423s-2.908-2.784-4.122-4.386
		c-1.214-1.602-2.257-3.333-3.109-5.154c-0.046,0.602-0.25,1.258-0.832,1.866c-1.105,1.023-2.38,1.248-3.818,0.354
		c-1.595-1.229-1.362-2.912-1.657-4.412c-0.227-2.082-0.102-4.839,0.641-7.4c0.836-2.868,1.911-5.697,3.259-8.483
		c-1.152,0.425-2.424,0.509-3.814-0.794c-1.18-1.313-1.2-2.347-1.287-3.731c-0.029-1.066,0.039-1.817,0.215-2.783
		c0.203-1.102,0.568-2.503,1.025-3.76c0.958-2.59,2.739-6.119,6.047-9.458c-2.797,0.055-5.675,0.747-8.58,2.612
		c-1.948,1.269-3.763,2.741-5.405,4.386c-1.642,1.645-3.11,3.463-4.373,5.415c-1.263,1.951-2.32,4.036-3.15,6.207
		c-0.652-0.275-1.264-0.647-1.807-1.101c-1.199-1.008-1.917-2.262-2.273-3.513c-1.818,5.135-2.436,9.839-1.715,15.103
		C365.938,200.772,367.01,204.255,368.688,207.244z"/>
</g>
</svg>
