<?xml version="1.0" encoding="utf-8"?>
<!-- Generator: Adobe Illustrator 14.0.0, SVG Export Plug-In . SVG Version: 6.00 Build 43363)  -->
<!DOCTYPE svg PUBLIC "-//W3C//DTD SVG 1.0//EN" "http://www.w3.org/TR/2001/REC-SVG-20010904/DTD/svg10.dtd">
<svg version="1.0" id="Layer_1" xmlns="http://www.w3.org/2000/svg" xmlns:xlink="http://www.w3.org/1999/xlink" x="0px" y="0px"
	 width="800px" height="600px" viewBox="0 0 800 600" enable-background="new 0 0 800 600" xml:space="preserve">
<g>
	<path d="M136.935,177.548c2.808,1.729,6.913,3.168,11.233,3.168c6.409,0,10.153-3.384,10.153-8.281
		c0-4.536-2.592-7.128-9.145-9.649c-7.921-2.808-12.817-6.913-12.817-13.753c0-7.561,6.265-13.177,15.697-13.177
		c4.969,0,8.569,1.152,10.729,2.376l-1.728,5.113c-1.584-0.864-4.824-2.304-9.217-2.304c-6.625,0-9.145,3.96-9.145,7.272
		c0,4.537,2.953,6.769,9.649,9.361c8.209,3.168,12.385,7.128,12.385,14.257c0,7.488-5.544,14.041-16.994,14.041
		c-4.68,0-9.792-1.44-12.385-3.168L136.935,177.548z"/>
	<path d="M173.295,136.648h6.264v23.402h0.216c1.296-1.872,2.592-3.6,3.816-5.184l14.833-18.218h7.777l-17.57,20.594l18.938,27.938
		h-7.417l-15.985-23.834l-4.608,5.329v18.505h-6.264V136.648z"/>
</g>
<g>
	<polygon points="209.877,200.827 134.367,200.827 134.367,193.827 209.877,193.827 209.877,200.827 	"/>
</g>
</svg>
