<?xml version="1.0" encoding="utf-8"?>
<!-- Generator: Adobe Illustrator 14.0.0, SVG Export Plug-In . SVG Version: 6.00 Build 43363)  -->
<!DOCTYPE svg PUBLIC "-//W3C//DTD SVG 1.0//EN" "http://www.w3.org/TR/2001/REC-SVG-20010904/DTD/svg10.dtd">
<svg version="1.0" id="Layer_1" xmlns="http://www.w3.org/2000/svg" xmlns:xlink="http://www.w3.org/1999/xlink" x="0px" y="0px"
	 width="800px" height="600px" viewBox="0 0 800 600" enable-background="new 0 0 800 600" xml:space="preserve">
<defs>
  <linearGradient id="colour0">
     <stop offset="100%" stop-color="black"/>
   </linearGradient> 
   <linearGradient id="colour1">
     <stop offset="100%" stop-color="#F9A13A"/>
   </linearGradient> 
 </defs>
<g id="Balmain">
	<path fill="url(#colour0)" d="M168.984,289.188c0-43.986,35.658-79.643,79.645-79.643c43.988,0,79.646,35.656,79.646,79.643
		c0,43.988-35.658,79.645-79.646,79.645C204.643,368.833,168.984,333.177,168.984,289.188"/>
	<path fill="#FFFFFF" d="M272.443,248.964c-0.316-0.209-1.117-0.854-0.574-1.398c0.287-0.287,0.539-0.252,0.824-0.18
		c1.504,0.377,3.543-0.123,4.482-1.039c0.445-0.434,1.633-0.332,2.115,0.18c1.012,1.068,0.283,1.682,2.582,1.9
		c0.752,0.07,0.572,0.465,0.861,0.717c0.23,0.203,1.113,1.512,3.34,1.709c-0.576-0.789-4.738-5.295-6.926-5.402
		c-2.188-0.105-2.158-1.605-2.797-2.33c-3.631-4.105-5.512-8.262-8.066-7.602c1.869,3.09,6.16,6.125,3.621,9.717
		c-1.43,2.021-0.584,1.326-0.969,2.223c0.09,0.232,0.646,0.646,0.646,0.807c0,0.162,0,0.287,0.125,0.43
		c0.125,0.145,0.125,0.107,0.143,0.197L272.443,248.964z"/>
	<path fill="#FFFFFF" d="M243.26,240.358c-0.287-0.285-1.184-0.357-1.039-1.326c0.072-0.502-0.504-0.43-0.504-0.861
		c0-0.43-0.43-0.43-0.5-0.859c-0.072-0.43,0-0.502-0.217-0.789c-0.215-0.285,0.287-0.502,0.574-0.859
		c0.287-0.359,0.215-0.719,0.215-1.148s0.574-0.143,0.432-0.502c-0.145-0.357-0.072-0.502,0.285-1.004
		c0.359-0.502,0.646,0.357,1.221-0.502c0.502,0,1.217-0.285,1.719-0.787c0.361,0.357,0.754-0.217,1.148,0.285
		c0.479,0.607,0.436-0.15,0.787,0.145c0.646,0.537,1.293,0.502,1.65,0.574c0.135,0.188,0.645,0.314,0.498,0.531
		c-0.141,0.217-0.855,0.795-0.498,0.867c-0.18,0.07-0.324,0.43-0.252,0.895c0.072,0.467-0.25-0.072-0.25,0.43s-0.252,1.471,0,1.65
		c-0.18,0.287-0.285,0.359-0.43,0.502s-0.465,0.25-0.574,0.861c-0.107,0.609,0.037,0.07-0.213,0.502
		c-0.145,0.285-0.145,0.572,0.213,0.787c0.359,0.217,0,0.719,0.145,1.148c0.064,0.191,0.275,0.438,0.492,0.482
		c0.035,0.43-0.457,3.354-0.063,4.25c-0.035,0.035,0-0.037-0.215,0c-0.572,0-1.219,0.215-1.219-0.502s0.145-0.934-0.43-0.861
		s-0.43,0-1.004-0.43s-0.668,0.154-0.502,0.43c0.107,0.18,0.537,2.008,1.684,2.258c0.287,0.434,0.754,1.328,1.221,1.436
		c0.465,0.107,0.07,0.252,0.357,0.287c0.285,0.035,1.326-0.072,1.686,0.215c0.357,0.287,0.467,0.322,0.572,0.645
		c-0.215,0.109-0.789,0.217-0.859,0.359c-0.072,0.143-0.109,0.287,0.07,0.537c0.182,0.252,0.646,0.824,0.217,1.004
		s-0.537,0.287-0.719,0.502c-0.18,0.217-0.357,0.107-0.215-0.215c0.145-0.322,0.609-0.895,0.145-1.648
		c-0.467-0.754-1.543-1.148-2.402-1.543c-0.861-0.393,0.465-0.213-0.072-0.537c-0.539-0.322-0.502-0.072-0.717-0.18
		s-0.107-0.465-0.324-0.572c-0.213-0.107-0.57,0.145-0.859-0.072c-0.285-0.217-1.541-1.076-1.721-1.686
		c-0.395-0.143-1.541-1.541-1.648-2.258c-0.215,0-1.291,0.035-1.436,0.18c0.037,0.213,0.072,0.787-0.285,0.715
		c-0.359-0.07-0.072-0.178-0.609-0.25c-0.539-0.07-0.145,0.215-0.789,0.215c-0.508,0-0.359-0.322-0.934-0.322
		c-0.375,0-0.572,0.217-2.078-0.252c-0.5-0.154-0.252-0.07-0.646,0.217c-0.393,0.285-2.473,1.828-4.803,1.791
		c-1.041-0.016-1.721-0.143-2.262-0.285c-0.535-0.145-0.75,0.072-0.463,0.787c0.285,0.719,0.033,0.324,0.752,0.467
		c0.717,0.145,1.543,0.18,1.973,0.609s1.004,1.004,1.648,0.969c0.645-0.037,0.896,0.967,1.398,1.434s2.869,3.406,6.059,3.441
		c3.191,0.037,5.057-1.398,5.771-1.469c0.719-0.072,1.434,0.07,1.578,0.932c-0.285,0.035-0.787-0.072-0.932,0.145
		c0.072,0.178-0.072,0.213-0.322,0.393c0.143,0.109-0.287,0.145-0.324,0.43c-0.035,0.289,0,0.754,0.037,1.004
		c0.035,0.252,0.143,0.182-0.18,0.252s-0.43-0.035-0.717-0.07c-0.287-0.037-0.502,0.25-0.752,0.285
		c-0.252,0.035-0.502-0.178-0.719-0.178c-0.215,0-0.502,0.322-0.715,0.322c-0.217,0-0.502-0.109-0.719-0.109
		c-0.215,0-0.395,0.359-0.609,0.322c-0.215-0.033-1.219-0.787-2.439-0.787c-1.217,0-1.145,0.125-2.113,0.018
		s-4.105-1.471-4.68-1.791c-0.574-0.324-1.232-0.85-1.604-1.23c-0.826-0.844-1.25-1.4-1.283-1.514
		c-0.213-0.789,1.076-1.219,1.436-1.436c0.359-0.213,0.359-0.141-0.143-0.43c-0.25-0.141-0.479-0.266-0.93-0.311
		c-0.395-0.182-0.576-0.369-0.846-0.174c-0.27,0.199-0.215,0.377-0.682,0.359s-0.342-0.25-0.842-0.322
		c-0.502-0.072-0.717-0.34-0.988-0.252c0.307-0.088-1.307-2.992-1.127-3.818c0.178-0.824,0.25-2.041,1.146-1.326
		c0.734,0.588,0.914-0.484,1.184-0.107c0.584,0.818,1.068-1.174,1.361-0.607c0.57,1.092,1.09-0.695,1.756,0.105
		c0.18,0.215,0.359-0.537,0.898-0.645c0.535-0.107,2.293-0.145,3.369-0.43c1.076-0.289,1.543-0.201,1.648,0.033
		c0.324,0.719,1.184,0.109,1.686,0.539c0.502,0.432,1.398,0.359,1.578,0.359s4.588-0.035,4.84-0.035c0.25,0,0.215-0.611,0.072-0.574
		"/>
	<path fill="url(#colour1)" d="M273.611,250.138c-0.072-0.082-0.141-0.148-0.197-0.205c-0.646-0.609-0.742-0.846-1.186-1.111
		c-0.377-0.285-1.016-0.582,0.037,0.609c0.242,0.275,0.611,0.447,0.881,0.707H273.611z"/>
	<path fill="url(#colour1)" d="M295.408,253.624c0.602-0.211,1.08-0.357,1.309-0.395C296.361,253.253,295.906,253.403,295.408,253.624"/>
	<path fill="url(#colour1)" d="M282.732,242.403l-0.357-0.285c0,0,0.326-0.115,0.887-0.268
		C282.98,242.103,282.795,242.298,282.732,242.403 M302.703,256.96c-2.379,0-8.568,2.617-9.287,3.084
		c-0.107-0.396-0.25-0.574-0.25-0.574c1.041-0.467,4.34-2.33,5.307-2.654c-0.465,0.035-5.375,1.758-5.629,1.973
		c-0.143-0.145-0.178-0.395-0.178-0.395c0.25-0.18,2.939-1.723,3.619-1.828c-0.428,0-3.836,1.434-4.014,1.471
		c-0.109-0.109-0.359-0.574-0.539-0.646c0.957-0.467,1.996-1.254,2.152-1.254c-0.576-0.072-2.115,0.607-2.475,0.824
		c-0.287-0.18-0.432-0.289-0.611-0.395c0.174-0.172,2.711-2.098,4.609-2.941c-1.857,0.648-4.865,1.889-5.111,2.188
		c0.072-0.572,0.576-1.756,0.037-2.832c-0.537-1.076-1.361-2.33-2.008-2.688c-0.012-0.037-0.033-0.086-0.066-0.152
		c-0.391-0.764-2.146-3.459-2.873-3.721c-0.072-0.432-1.148-2.08-1.506-2.295c0-0.287-0.285-1.076-0.646-1.219
		c0.145-0.182,0.689-0.723,1.438-1.396c1.881-0.402,4.641-0.779,7.24-0.326c-1.242-0.6-4.127-0.533-6.52-0.305
		c0.791-0.68,1.705-1.414,2.594-2.029c1.158-0.799,2.268-1.393,2.992-1.393c-0.902,0-2.234,0.604-3.568,1.393
		c-1.125,0.668-2.254,1.467-3.121,2.146c-1.117,0.139-2.02,0.295-2.416,0.404l-0.572-0.574c0.625-0.395,1.355-1.154,2.055-1.977
		c0.824-0.967,1.6-2.025,2.104-2.684c-0.387,0.24-1.99,1.637-3.287,2.684c-0.643,0.52-1.211,0.951-1.518,1.117
		c-0.287-0.361-0.359-0.574-0.717-0.863c0.078-0.08,0.16-0.166,0.246-0.254c1.49-1.541,4.102-4.033,6.135-5.051
		c-0.645,0.072-6.166,3.801-6.811,4.662c-0.072-0.217-0.215-0.359-0.432-0.502c0.217-0.502,1.793-3.084,2.225-5.164
		c-0.576,0.574-2.154,4.303-2.727,4.518l-0.502-0.572c0.287-0.432,0.719-2.152,0.719-2.582c-0.287,0.645-0.789,1.793-1.65,1.936
		c-0.934-0.574-1.721-0.932-2.438-1.004c0-0.215-0.145-0.646-0.717-0.859c-0.574-0.217-1.291-1.076-2.008-0.719
		c-0.074-0.215-1.363-1.578-2.438-1.289c-0.432-0.217-0.861-0.43-1.578-0.145c-0.145-0.215-2.654-2.51-4.232-1.936
		c-0.859-0.287-2.723-1.361-4.301-1.076c-1.578,0.287-3.084,0.719-5.521,0.502c-2.439-0.215-8.031-1.004-9.609-1.506
		s-1.004,0.145-2.223,0.072s-1.436-0.861-2.939-0.574c-1.506,0.287-8.031,2.51-10.109,2.939c-2.08,0.432-10.471,1.65-12.621,3.012
		c0.5,0.359,0.215,0.574,0.5,0.789c-0.932,0.432-3.369,1.219-4.158,1.578c0.287,0.359,0.287,0.574,0.287,0.574
		c-1.004,0.43-2.508,1.074-3.082,1.578c0.357,0.285,0.932,0.357,0.357,0.643c-0.096,0.049-0.217,0.109-0.357,0.176
		c-0.713,0.344-1.9,0.912-2.438,1.33c0.357,0.145,1.074,0.145,0.285,0.502c-0.787,0.361-1.361,0.646-1.863,1.148
		c0,0,0.859,0.357,0.357,0.646c-0.502,0.285-1.576,1.004-2.008,1.576c0,0,0.859,0.359,0.574,0.646
		c-0.287,0.285-1.363,1.004-1.721,1.506c0,0,0.932,0.357,0.357,0.787c-0.572,0.432-0.787,0.861-1.146,1.293
		c0.359,0.213,0.287,0.502,0,0.787c-0.084,0.084-0.371,0.49-0.826,1.068c-1.109,1.398-3.229,3.797-5.914,5.025
		c-2.178,0.998,1.143,1.189,2.295,0.504c-0.273,0.162,3.113-1.27,6.5-5.529c0.639-0.805,1.277-1.707,1.889-2.717
		c1.506,0,3.514-1.436,5.521-3.299c0.861-0.799,2.906-2.955,5.504-5.275c3.467-3.096,7.914-6.484,11.85-7.346
		c6.883-1.506,12.334-2.438,12.906-2.51c0.572-0.07,1.146,0.217,1.436,0.432c0.285,0.215,0.357,0.717-0.145,0.717
		s-3.441,0.43-3.873,0.717c-0.43,0.287-0.07,0.5-1.004,0.645c-0.932,0.145-4.947,1.291-6.094,1.936
		c-1.148,0.646-0.215,0.934-0.789,1.004c-0.574,0.072-0.789,0-0.861,0.289c-0.07,0.285-0.215,0.787-0.645,0.645
		s-0.861,0-1.074,0.215c-0.217,0.215-0.719,0.574-1.221,0.502s-0.715-0.143-1.004,0.072c-0.285,0.215-0.787-1.076-0.859-1.434
		c-0.072-0.359-0.574-0.432-0.932-0.072c-0.334,0.332-2.85,1.396-4.221,4.189c-0.105,0.219-0.207,0.447-0.299,0.688
		c-0.041,0.109,0.277,0.488,0.432,0.285c-0.861,1.148-1.324,3.064-0.934,3.73c0.719,1.217,1.578,1.934,1.865,2.221
		s0.574,0.145,0.859,0.145c0.289,0,0.625-0.135,1.004-0.072c0.43,0.072,0.502,0,0.719,0.43c0.213,0.432,0.09,0.377,0.357,0.521
		c0.361,0.535,2.338-0.736,2.801-0.691c-0.791-0.369-0.691-1.172-0.721-1.299c-0.787,0-2.008-1.615-3.084-1.758
		s-2.365-0.645-2.797-0.287c0.217-1.004,0.432-1.863,1.721-1.863c0.217-0.574,0.145-0.859,0.719-1.148
		c0.574-0.285,0.213,0.289,1.004,0c0.451-0.164,0.928-0.541,1.348-0.9c0.311-0.268,0.588-0.523,0.805-0.678
		c0.502-0.357,0.285-0.285,0.932-0.07c0.645,0.215,5.234,0.861,5.949,0.717c0.719-0.145,1.148-0.859,1.004-1.146
		c-0.141-0.287,0-0.574,0.359-0.359c0.17,0.102,1.303,0.781,2.305,1.537c1.117,0.842,2.07,1.781,1.352,2.121
		c0.502,0,4.158-0.072,4.732,0.072c-1.146-0.217-1.004-0.43-1.506-0.719c0,0.289-0.285,0.217-0.859-0.145
		c-0.361-0.223-1.145-0.846-1.855-1.33c-0.424-0.287-0.816-0.525-1.086-0.605c-0.715-0.213-0.859-1.863,0.072-1.219
		c-1.146-0.717-1.219-1.791-0.357-1.648c-0.072-0.359-0.287-0.861,0.357-0.861c0.646,0,1.076,0.646,1.363,0.861
		c0.215,0.143,0.502-0.07,0.574-0.359c0.07-0.285-0.432-0.717-0.072-0.932c-0.215-0.287-1.004-0.287-0.645-0.789
		c0.357-0.502,0.43-0.502,0.932-0.502c0.5,0,0.072-1.146,1.434-1.363c1.363-0.213,0.502-0.643,1.219-0.572
		c0.719,0.072,0.719-0.432,1.221-0.215c0.502,0.215,1.289-0.717,1.646-0.574c0.361,0.145,0.502,0.357,1.006,0.357
		c0.5,0,1.004-0.213,1.791,0.145c0.973,0.439,0.662,0.939,0.934,1.076c0.645,0.322,0.168-0.346,1.146,0.145
		c0.574,0.285,0.932,0.5,1.221,0.715c0.285,0.217,0.717,0.789,0.43,0.932c0.43-0.285,1.361-1.576,2.795-0.859
		c0.072-0.43,0.574-0.287,1.076-0.215c0.502,0.07,0.646,0.789,0.861,1.291s0.287,0.859,0.359,1.219c0.07,0.359,0,0.574-0.502,0.645
		c-0.504,0.072-0.934,0.287-1.076-0.143c-0.145-0.43-0.789-1.291-1.221-1.436c-0.43-0.143-0.43-0.07-0.787,0.217
		c-0.359,0.285-0.145,0.215-0.43,0.215c0.285,0.359,0.715,0.359,0.07,1.506s0.5,0.502,0.287,1.219
		c-0.191,0.641-0.613,1.227-0.549,1.752c0.008,0.063,0.025,0.125,0.047,0.186c0.215,0.57,0.43,0.068,1.148,0.068
		c0.369,0,0.641-0.094,0.762-0.254c0.115-0.15,0.092-0.361-0.117-0.605c-0.432-0.502-0.287-0.645,0-1.074s0.861-0.932,1.576-0.43
		c0.719,0.5-0.215,0,0.072,0.357c0.287,0.359,0.574-0.287,0.789,0.072c0.215,0.357,0.074,0.215,0.143,0.572
		c0.072,0.359,0.434,0.502-0.068,0.719c-0.35,0.146-0.457,0.262-0.443,0.389c0.006,0.059,0.039,0.117,0.082,0.186
		c0.145,0.213,0.287,0.43,0.646,0.57c0.357,0.145,0.572-0.068,0.859,0.145c0.287,0.217,0.43,0.359,0.789,1.076
		c0.359,0.719,0.502-0.932,1.863,1.148c1.363,2.078,0.217,0.646-0.07,0.859c-0.287,0.215-1.434-0.574-1.865-0.787
		c-0.43-0.217-1.434-0.145-1.504-0.361c-0.072-0.213-0.289-0.787-0.861-1.004c-0.574-0.213-0.861,0.145-0.574,0.502
		c0.287,0.361,0.287,0.072,0.789,0.432s0.072,0.572,0.289,0.861c0.213,0.285,0.502,0.502,0,0.932
		c-0.504,0.43-0.863,0.357-1.008,0.072c-0.143-0.289-0.787-0.791-1-0.791c-0.217,0-1.365,0.289-1.795-0.213
		s-0.287-0.719-0.859-1.076c-0.574-0.357-0.072-0.719-0.574-1.076s0.143-0.932-0.359-1.434c-0.014-0.014-0.025-0.027-0.037-0.041
		c-0.434-0.477,0.102-0.762-0.105-1.25c-0.217-0.502,0.574-0.215,0.287-0.859c-0.287-0.646,0.143-1.148-0.504-1.434
		c-0.645-0.289-0.07,0-0.07-0.289c0-0.285,0.502-0.787,0-0.932s-0.789,0.145-1.004-0.145c-0.135-0.178-0.492-0.41-0.828-0.686
		c-0.359,0.574-0.893,0.83-0.463,0.83s1.004-0.287,1.219,0.072c0.215,0.357,0.359,0.43,0.359,0.859c0,0.432,0.143,0.646-0.359,0.646
		s-0.789,0-0.789,0.287s-0.143,0.645-0.357,0.645c-0.217,0-0.072,0.502-0.072,0.502h-0.574c0,0-0.215,0.287-0.43,0.502
		c0.357,0,0.645,0,0.932,0.572c0.287,0.574,0.574-0.285,0.789,0.217c0.064,0.15,0.117,0.305,0.146,0.461
		c0.074,0.365,0.035,0.721-0.219,0.973c-0.357,0.357-1.004,1.076-1.074,1.434c-0.041,0.201-0.301,0.201-0.549,0.088
		c0.145,0.717-0.525,3.068-0.025,4.287c0.574,0,0.859,0,1.291,0.645c0.43,0.646,0.357,0.287,0.789,0.287
		c0.43,0,0.502,0.359,0.645,0.719c0.52,1.295,0.773,0.113,2.08,0.715c0.43-0.43,0.143-0.572,0.717-0.715
		c0.574-0.145,0.152-0.879-0.143-1.006c-1.004-0.43-0.072-0.717-0.432-0.717c-0.213-0.357-0.072-0.645,0.787-0.645
		c0.863,0,0,0.43,0.504,0.357c0.504-0.07,0.574-0.287,1.146-0.287c0.574,0,1.723,0.217,2.008,0.287
		c0.289,0.072,1.076-0.07,1.436-0.143c0.357-0.072,0.502-0.287-0.072-1.076s-0.072-0.645,0.359-0.645c0.43,0,0.93,0,1.219,0.789
		c0.287,0.787,0.213,1.576,1.004,2.008c0.789,0.43,0.859,0.645,1.434,0.645s0.719,0,0.932,0.432c0.217,0.43,0,0.502-0.43,0.932
		s-0.574-0.072-0.859-0.287c-0.287-0.215-0.719-0.359-1.004,0c-0.289,0.359-0.432,0.07-1.004-0.287
		c-0.574-0.357-0.789-0.145-1.148,0.287c-0.359,0.428-0.217-0.072-0.719-0.359c-0.5-0.285-1.002-0.143-1.504-0.072
		c-0.502,0.072-0.719-0.285-1.004-0.285c-0.287,0-0.215,0.645-0.646,0.859c-0.43,0.217-1.076,0.574-0.285,0.502
		c0.787-0.072,3.584,0,3.941,0c0.361,0,0.145,0.787,0.719,0.719c0.574-0.072,0.932-0.361,1.219-0.072
		c0.246,0.248,0.496,0.709,0.93,0.924c0.066,0.031,0.139,0.061,0.219,0.08c0.572,0.143,0.93,0,1.146,0.357s1.289,1.721,1.506,1.506
		c0.215-0.215,0.215-0.145-0.217-0.646c-0.428-0.502-0.57-0.859-0.859-1.289c-0.002-0.004-0.004-0.006-0.006-0.008
		c-0.283-0.424-0.57-0.496-0.713-0.783c-0.141-0.285,0.289-0.213,0.646-0.213c0.361,0,0.646,0.072,0.863,0.072
		c0.213,0,0.357,0.141,0.645,0.502c0.07,0.088,0.191,0.234,0.326,0.422c0.416,0.566,1,1.51,0.893,2.373
		c0.5,0.359,1.219,0.646,1.002,1.076c-0.215,0.43-0.07,0.287-0.502,0.502c-0.428,0.215-0.357-0.072-0.645-0.285
		c-0.285-0.217-0.574-0.289-0.787,0c-0.217,0.285-0.502,0.285-0.863,0c-0.357-0.289-1.719-1.65-2.148-1.867
		c-0.43-0.213-0.719,0-1.004-0.285c-0.289-0.287-0.574-0.646-1.219-0.646c-0.646,0-0.574-0.143-0.861-0.357
		c-0.289-0.217-0.215,0.072-0.791,0.143c-0.572,0.072-0.713-0.5-1.146-0.572c-0.43-0.072,0.145,0.213-0.859,0.357
		s-0.574,0.357-1.217,0.502c-0.646,0.145-0.434,0.145-0.361,0.574s-0.072,0.645,0.646,0.645c0.715,0,0.572-0.43,1.004-0.43
		c0.43,0,0.43,0.43,0.719,0.43c0.285,0,0-0.215,0.502-0.215c0.5,0,0.355,0.502,0.643,0.502s0.287-0.646,1.363,0.215
		c0.518,0.414,0.645,0,1.361,0.646c0.428,0.383,0.281-0.287,0.719-0.287c0.285,0,0.717,0.859,1.072,0.859
		c0.361,0,0.506-0.07,0.574,0.359c0.072,0.43,0.217,0.787,0.502,0.787c0.289,0,0.574,0,0.646,0.359s0.432,0,0.432,0.432
		c0,0.43-0.287,0.287-0.432,0.502c-0.145,0.213-2.078-0.072-2.654-0.072c-0.572,0-0.643,0-0.715,0.357
		c-0.072,0.359-0.502,0.43-0.861,0.359c-0.357-0.07-0.143,0.215-0.572,0.287c-0.432,0.072-0.719-0.357-0.934-0.357
		s-0.215,0.643-0.574,0.643c-0.357,0-1.072-0.141-1.506-0.859c-0.43-0.717-0.932-1.936-1.574-1.361
		c-0.646,0.572-0.361,0.215-0.863,0.215s-0.43-1.076-1.578-0.789c-1.146,0.285-0.07,0.072-0.285,0.359
		c-0.215,0.285-0.287,0.072-0.502-0.074c-0.215-0.143-0.646-0.5-0.646-0.213s-0.143,0.717-0.43,0.502s-0.646-0.215-0.646,0
		s0,0.645-0.285,0.645c-0.287,0-0.789-0.287-0.789,0s0,0.645-0.359,0.572c-0.357-0.07-0.287,0.289,0,0.289s0.502-0.072,1.076-0.217
		c0.574-0.143,1.361-0.357,1.865-0.285c0.502,0.072,0.572-0.359,1.074-0.359s0.502,0.287,0.719,0.645
		c0.213,0.359,0.451,0.219,1.076,0.574c0.5,0.285,0,0.43,0.43,0.789s0.43,0.717,1.074,0.572c0.645-0.141,0.432-0.502,1.004-0.502
		c0.576,0,0.215,0.145,0.789,0.502c0.574,0.361,0.574,0.502,1.291,0.434c0.715-0.072,0.789-0.434,1.004-0.646
		c0.213-0.217,0.213-0.359,0.932-0.43c0.719-0.072,0.574,0.07,1.506,0c0.932-0.072,1.004-0.145,1.434,0.141
		c0.43,0.289,0.934-0.357,0.719,0.719c-0.217,1.076-0.289,0.574-0.863,0.43c-0.57-0.145-1.004-0.43-1.646-0.285
		c-0.646,0.141-0.43,0.502-0.863,0.643c-0.43,0.145-0.07,0.432-0.643,0.574c-0.574,0.145-0.574,0.574-1.506,0.574
		c-0.934,0-0.145,0.357-0.145,0.574c0,0.215,0.215,1.506-0.217,2.365c-0.428,0.861-0.285,1.291,0.361,1.793
		c0.643,0.502,3.514,1.936,4.373,3.084c0.859,1.146,1.434,1.076,1.936,0.717s1.291-1.219,1.291-2.223
		c0.215,0.357,0.215,1.648,0.789,1.578c0.572-0.072,0.717-0.863,0.717-1.148s0-0.285,0.502-0.285s0.502,0,0.574,0.357
		s0.213,0.932,0.502,1.219c0.287,0.287,0.715,0.143,0.932,0.215s0.217,0.502,0.646,0.43s0.43-0.645,0.357-1.004
		c-0.072-0.357-0.072-0.43,0.217-0.43c0.285,0,0.643-0.072,0.93,0.145c0.287,0.213,0.217,0.502,0.217,0.932
		s-0.143,1.004-0.359,1.434s-0.217,0.646,0.072,0.646c0.287,0,1.021,0.195,0.807,1.488c0.396-0.35,1.035-1.217,1.596-1.973
		c0.438-0.594,0.627-1.291,1.631-2.295c-0.359,0.215-0.734,0.125-1.379,0.984c-0.646,0.861-1.865,1.506-1.795,0.861
		c0.072-0.645-0.07-1.576,1.65-3.443c1.721-1.863,0.285-2.293,1.504-3.297c1.221-1.004,2.082-1.865,2.869-0.789
		c0.215-0.645,0.072-1.648-0.359-2.795c-0.285,0.43-0.502,0.607-0.967,0.178s-1.219-1.793-2.078-1.684
		c-0.936,0.115-1.889,0.23-2.297-0.791c-0.145-0.357-0.717-0.895-0.717-0.25c0,0.646,0.037,0.646,0.25,0.611
		c0.217-0.037,0.287,0.035,0.396-0.072c-0.074,0.213,0.143,0.25-0.037,0.43c-0.178,0.18-0.322,0.145-0.25,0.322
		c0.072,0.18-0.322,0.072-0.322,0.287s0.18,0.287,0.035,0.395c-0.143,0.107-0.43-0.145-0.645,0.072
		c-0.217,0.213-0.502,0.322-0.824,0.285c-0.205-0.021-0.777-1.279-0.682-1.611c0.07-0.252,0.25-0.072,0.432-0.107
		c0.178-0.037,0.068-0.719,0.033-0.863c-0.033-0.141-0.215-0.322,0.107-0.322c0.324,0,0.861,0.217,1.186,0.037
		c0.32-0.18,1.469-0.645,2.258-0.574c0.787,0.072,0.502-0.215,0.252-0.357c-0.318-0.184-0.104-1.123,0.25-1.471
		c0.236-0.232-0.322-0.072-0.395-0.896c-0.066-0.75-1.373-2.652-2.096-3.449h-0.463c0.109,0.104,0.203,0.223,0.264,0.365
		c0.215,0.502,0.359,0.646,0.215,1.291c-0.143,0.645-0.143,0.574,0.145,0.789c0.285,0.215,0.574,0.145,0.574,0.502
		c0,0.359,0.07,0.789-0.289,0.861c-0.357,0.07-1.076,0.07-1.076,0.502c-0.5,0-1.506,0.861-1.576,1.648c0,0-0.432,0.145-0.717,0.145
		c-0.287,0-0.287-0.719,0.285-1.291c0.574-0.574,0.932-1.146,1.148-1.938c0.217-0.787,0.646-1.648-0.502-2.438
		c-0.066-0.156-0.105-0.305-0.158-0.438c-0.115-0.305-0.295-0.539-0.988-0.639c0-0.213,0.287-0.645-0.287-1.004
		c-0.574-0.357-0.289-0.645-0.359-1.004c-0.07-0.357,0-0.717-0.43-1.506c-0.432-0.787-0.502-1.146-1.076-1.361
		s-0.143,0.072-0.357-0.502c-0.217-0.572-0.359-1.291-1.006-1.436c-0.645-0.141,0-0.285,0.145-1.074
		c0.143-0.789,0.502-1.291-0.215-2.223c-0.174-0.227-0.318-0.396-0.441-0.543c-0.385-0.453-0.561-0.648-0.779-1.465
		c-0.285-1.076-1.289-0.502-2.148-1.865c-0.863-1.361-0.934-0.572-1.867-1.219c-0.93-0.645-0.285-0.07-0.715,0.143
		c-0.43,0.217-0.717,0.217-1.148,0c-0.43-0.213-0.646-1.217-1.219-1.719c-0.035-0.557,0.848-0.918,1.092-0.629
		c0.484,0.574,0.414-0.232,1.293-0.215c0.877,0.018,0.705,0.363,0.932,0.342c0.18-0.018,0.412-0.377,0.754-0.234
		c0.34,0.145,0.789,0.217,0.986,0.035c0.195-0.178,0.896-0.125,1.076,0.072c0.178,0.197,0.445,0.467,0.787,0.43
		c0.34-0.035,0.969-0.232,1.525,0.27c0.553,0.502,1.271,0.826,2.025,1.076c0.752,0.252,0.25,0.467,0.357,0.717
		c0.109,0.25,0.861-0.107,1.434,0.467c0.574,0.574,2.295,1.971,2.295,2.652c0,0.645-0.645,0.521-0.227,1.143
		c0.025,0.035,0.053,0.072,0.082,0.113c0.719,0.932,3.873,4.803,4.016,5.377c0.145,0.574,0.432,1.004,2.941,1.434
		c0.637,0.111,3.734,2.885,5.348,4.367c0.592,0.541,0.984,0.91,0.984,0.91c0.262,0.096,0.154,0.047,0.281,0.047
		c0.682,0,0.451,0.287,0.127,0.467c-0.322,0.18-0.287,0.664-0.037,0.949c0.252,0.287,1.346-0.564,1.113,1.543
		c-0.037,0.322-0.359,0.502-0.359,1.217c0,0.719,0.359,2.01-0.322,4.053c-0.197,0.588-1.041,5.02-1.469,6.455
		c0.357-0.359,2.83-2.152,5.771-3.729C290.18,262.69,300.016,257.179,302.703,256.96"/>
	<path fill="#EF4135" d="M238.939,291.8c-0.18,1.117-0.268,2.137-0.234,2.947c-0.574-0.572-1.146-0.645-1.217-1.146
		c0.07,1.219,0.43,2.508,0.43,4.303c0,1.791-0.502,2.508-0.502,4.158s0.859,2.223,0.787,3.369c-0.072,1.148-0.43,1.723-0.502,2.727
		s1.221,4.66,1.221,7.455c0,2.799,0.43,1.795,0.357,4.305s0.717,13.768,6.957,13.266c6.238-0.502,8.531,0.645,11.186,0.645
		c2.652,0,3.441,0.574,5.307,0.43c1.863-0.145,6.451-0.859,6.811-6.885c0.359-6.021,0.861-11.186,2.367-13.838
		c1.508-2.652-0.359-2.582,0.574-4.59c0.904-1.951,2.607-6.104,3.799-7.744c1.148-1.578,1.578-2.939,1.506-4.016
		c-0.574,1.006-0.787,1.006-1.146,1.795c-0.359,0.787-1.506,3.727-4.445,3.799c0.143,0.287,0.287,0.43-0.072,0.789
		c-0.357,0.357-1.65,1.578-0.861,3.871c0.789,2.295-0.143,3.084-0.645,4.16c-0.502,1.074-0.859,3.943-0.934,5.592
		c-0.07,1.65-1.146,3.084-1.432,3.73c0.357,0.717,0.572,0.859,0.428,2.58c-0.143,1.723-1.146,5.951-2.365,7.098
		c-1.219,1.148-2.797,0.863-3.369,0.576c-0.287,0.572-2.295,1.146-2.869,0.572c-0.502,0.502-3.082,0.789-3.943-0.285
		c-0.717,0.285-2.328,0.465-3.047-0.324c-0.574,0.432-1.543,0.826-2.117,0.18c-0.357,0.43-1.648,0.502-2.438-0.143
		c-0.285,0.43-2.293,1.506-3.514-0.432c-1.221-1.936-2.295-2.223-2.438-6.455c-0.143-4.227-1.865-9.678-1.865-12.26
		s-1.219-1.793-1.146-3.658c0.072-1.863,0.861-4.156,0.717-6.953c-0.145-2.799-1.004-7.816,0.287-10.111
		c-0.574,0.215-0.861-0.07-0.861-0.07L238.939,291.8z"/>
	<path fill="url(#colour1)" d="M242.086,265.214c-0.867-0.609-5.029-4.168-7.182-5.529c-3.252-2.061-5.828-3.986-8.316-6.238
		c1.146,2.486,5.676,5.377,7.959,6.668c1.65,0.932,5.809,3.943,7.17,5.736c1.363,1.793,1.076,1.219,1.434,1.506
		c0.359,0.287,0.789-0.215,0.502-0.502C243.389,266.591,242.68,265.634,242.086,265.214"/>
	<path fill="#FFFFFF" d="M190.105,299.354c-0.443,0.428-0.787,0.795-0.75,0.699c0.078-0.219,0.182-0.453,0.303-0.699H190.105z"/>
	<path fill="#FFFFFF" d="M191.949,299.354c-0.432,0.391-0.846,0.727-0.98,0.693c-0.133-0.029-0.037-0.34,0.117-0.693H191.949z"/>
	<path fill="#FFFFFF" d="M204.664,325.606c-0.066,0.086-0.131,0.172-0.197,0.26c0.002-0.055,0.02-0.143,0.051-0.26H204.664z"/>
	<path fill="#FFFFFF" d="M211.838,325.606c-0.5,0.598-0.92,1.133-1.098,1.336c0.078-0.301,0.307-0.793,0.574-1.336H211.838z"/>
	<path fill="#FFFFFF" d="M215.488,325.606c-0.379,0.242-0.877,0.736-1.055,0.834c-0.107-0.145,0.016-0.465,0.209-0.834H215.488z"/>
	<path fill="#FFFFFF" d="M216.174,325.606c-0.1,0.127-0.182,0.23-0.234,0.299c0.023-0.133,0.027-0.23,0.014-0.299H216.174z"/>
	<path fill="#FFFFFF" d="M251.326,299.354c-0.791,0.859-1.859,1.539-1.547,0H251.326z"/>
	<path fill="#FFFFFF" d="M218.494,261.39c-0.207,0.078-0.422,0.174-0.654,0.301C218.098,261.604,218.311,261.503,218.494,261.39"/>
	<path fill="#FFFFFF" d="M217.598,259.829c-0.273,0.07-0.574,0.188-0.904,0.357C217.064,260.095,217.361,259.97,217.598,259.829"/>
	<path fill="#FFFFFF" d="M287.137,259.013c0.092-0.242,0.178-0.496,0.258-0.764C287.338,258.313,287.248,258.595,287.137,259.013"/>
	<path fill="#FFFFFF" d="M297.719,271.192c-0.5-0.215-0.5-0.539-1.076-0.539c0.502-0.209,2.008-0.533,3.609-0.438
		C299.018,270.597,298.027,270.987,297.719,271.192 M309.695,269.437c-2.08,1.686-5.342,2.545-11.08,3.979
		c-0.035-0.18,0.143-1.541-0.645-1.648c0.402-0.279,1.549-0.889,3.383-1.41c0.213,0.041,0.426,0.092,0.633,0.156
		c1.27,0.387,3.58,0.162,4.016-0.467c-0.645,0.178-2.332,0.607-3.873,0.178c-0.045-0.012-0.092-0.023-0.139-0.035
		c0.947-0.236,2.045-0.445,3.295-0.572c2.316-0.24,3.801-1.984,3.764-1.936c-0.982,0.572-2.723,1.535-3.943,1.576
		c-1.186,0.039-2.666,0.346-3.998,0.711c-1.721-0.389-3.828-0.637-5.324-0.209c0.035-0.896,1.59-1.99,4.518-2.367
		c4.051-0.52,6.646-2.23,7.242-2.939c-2.059,1.305-4.908,2.377-7.135,2.33c-1.719-0.035-4.984,0.934-5.377,1.148
		c0.873-1.166,2.375-2.664,6.955-3.656c2.15-0.467,3.729-1.436,4.016-1.83c-0.852,0.309-1.455,0.922-4.23,1.471
		c-2.641,0.523-5.988,1.469-6.598,2.26c-0.717-3.803-1.111-4.447-1.506-5.344l-1.328,0.682c0,0,0.611,1.35,0.934,4.803
		c-0.357,0-1.184-0.213-1.686-0.141c0.109-0.531-0.393-3.117-0.68-3.873c-0.322,0.215-0.754,0.357-0.932,0.572
		c0.25,0.789,0.645,2.26,0.645,3.229c-2.711,0.27-3.146-0.008-6.061,1.791c-0.414,0.256-1.002-1.541-0.75-2.043
		c0.248-0.502-0.109-0.25,0.572-0.502c0.682-0.25,0.896-0.215,0.969,0.035c0.07,0.252,0.07,0.432,0.252,0.432
		c0.266-1.07,1.074-5.094,1.533-6.801c-1.418,3.707-4.27,4.441-4.51,4.361c-1.076-0.357-1.256-2.545-1.471-3.549
		c-0.311-1.449-1.436-2.758-3.229-2.689c-0.932,0.037-0.717,0.217-0.07,0.502c0.645,0.289,1.535,1.227,1.828,2.26
		c0.426,1.59,1.57,4.336-2.188,8.246c-1.768,1.838-1.602,2.66-3.656,4.732c-2.035,2.053-4.375,4.375-4.158,5.664
		c1.154,4.857,7.326,2.361,10.037,4.732c1.566,1.369,0.395,1.67,1.936,2.725c-0.59-1.078-0.275-1.461,0.574-0.715
		c0.574,0.5,2.08,3.439,2.582,4.805c-0.357,0.428-0.43,0.57-0.646,0.859c-0.213,0.285-0.57-0.145-0.787,0.213
		c-0.215,0.359,0,0.502-0.502,0.861c-0.502,0.357-0.502,0.432-1.004,0.789c-0.502,0.359-0.594,0.15-0.502,0.791
		c0.143,1.004,0.285,2.58-0.287,2.723c-0.574,0.145,0,1.721-0.574,2.006c-0.572,0.289-1.291,0.434-1.291,0.863
		c0,0.049,0.008,0.104,0.018,0.16c0.072,0.434,0.363,1.053-0.018,1.559c-0.428,0.574-0.859,0.574-0.717,1.148
		c0.145,0.572,0.289,1.291-0.285,1.578s-0.574,0.574-0.861,1.434c-0.287,0.861-3.584,8.318-4.588,13.193
		c-0.463,2.242-0.926,4.908-1.371,7.342c-0.525,2.861-1.033,5.408-1.5,6.57c-0.857,2.148,0.432,1.146-0.285,2.008
		c-0.717,0.859-1.291,0.43-1.865,0.859c-0.572,0.43-1.578,1.291-2.293,0.574c0.859,0.859,0.967,1.182,0.43,1.076
		c-0.537-0.107-0.717-0.574-1.221-0.719c0.109,0.432,0.43,0.754,0.217,0.861c-0.217,0.107-1.543-0.967-1.795-0.895
		c-0.25,0.07-0.033,0,0,0.322c0.037,0.322,0.289,2.221-0.43,2.293c-0.715,0.07-0.68,0.18-0.715-0.107
		c-0.037-0.289-0.037-1.326-0.395-1.361c-0.357-0.037-0.969,0.213-1.111-0.215c-0.143-0.432,0.107-0.287-0.215-0.502
		c-0.322-0.219-0.18-0.502-0.537-0.467c-0.361,0.037-0.037,0.859,0.105,1.146c0.145,0.287-0.537,0.932-0.932,0
		s-1.756-2.545-2.547-2.188c-0.787,0.359-0.428,0.789-0.178,1.256c0.252,0.467,0.43,1.289,0.787,1.756
		c0.361,0.467-0.535,0.396-0.787,0.18c-0.25-0.215-0.752-1.039-0.859-1.111c-0.109-0.07-0.359-0.145-0.324,0.18
		c0.035,0.322,0.537,0.646,0.035,0.752c-0.502,0.107-0.895,0.107-0.859-0.357c0.035-0.467-0.322-2.582-0.717-2.76
		c-0.396-0.18-0.359,0.645-0.717,0.32c-0.359-0.32-0.395,0.109-0.25,0.359c0.141,0.252,0.57,1.471,0.535,2.115
		c-0.033,0.646-0.322,1.004-0.572,0.646c-0.252-0.359-0.754-1.326-0.789-1.613c-0.037-0.287-0.43-0.934-0.646-0.395
		c-0.215,0.537-0.178,0.465-0.357,0.752c-0.178,0.287-0.322,0.215-0.717,0.145c-0.395-0.072-0.682-0.432-0.861-0.072
		c-0.178,0.359-0.322,0.285-0.322,0.682c0,0.395-0.322,0.143-0.574-0.18c-0.25-0.322-0.68-0.539-0.25-1.506
		c0.43-0.969,0.537-0.969,0.609-1.363c0.07-0.393-0.215-0.43-0.537-0.07c-0.324,0.357-3.336,3.225-3.551,3.514
		c-0.215,0.287-0.826,0.357-0.967,0.107c-0.145-0.252,0.223-0.719-0.072-0.719c-0.322,0-0.574,0.289-1.076,0.18
		c-0.502-0.107-0.824-0.752-0.357-1.184c0.465-0.43,1.289-1.719,1.396-2.008c0.109-0.285-0.035-0.5-0.285-0.213
		c-0.252,0.285-1.723,1.469-1.9,1.936c-0.18,0.465-0.754,0.537-0.717,0.072c0.035-0.467,0.43-1.65,0.967-2.26
		c0.539-0.609,0.791-1.543,0.289-1.9c-0.502-0.359-1.9-2.832-2.262-3.945c-0.357-1.111-0.25-0.035-0.502-0.787
		c-0.152-0.467-0.584-1.164-0.863-1.766c-0.172-0.371-0.287-0.705-0.248-0.924c-1.182-2.295-1.539-4.875-1.756-5.377
		c-0.215-0.502-0.646-0.609-0.859-0.682c-0.217-0.072-0.43-0.145-0.467-0.969c0.037-0.465-0.072-2.293-0.072-2.582
		c0-0.285-0.18-2.008-0.18-2.545s0.217-2.295,0-3.01c-0.215-0.719-1.193-0.646-1.146-2.008c0.063-1.838,0.35-6.145-0.426-8.158
		c-0.102-0.264-0.221-0.488-0.363-0.662c-0.143-1.074,0.215-2.367-0.574-3.012c0.574,0.285,1.938,1.721,2.727,2.867
		c-0.072-0.574-1.865-3.801-2.225-4.588c-0.357-0.789-0.215-0.934,0.217-1.361c0.43-0.434,4.016-4.59,4.658-5.666
		c-0.43,1.146-1.719,5.447-1.072,7.674c0.896-7.871,3.641-10.873,7.311-14.773c1.148-1.219,0.898-1.576,1.4-2.15
		c-0.029,0.033,0.662,0.215,0.68,0.215c-0.502,1.074-3.799,4.875-4.516,6.453c-0.99,2.176-1.816,5.037-2.205,7.449l0.77-0.566
		c0.469-3.99,2.77-9.381,6.346-12.512c-0.123,0.133,0.398,0.109,0.223,0.326c-0.697,1.348-2.398,4.117-2.768,5.59
		c0.771-1.186,2.133-3.779,3.215-4.891c0.104-0.105,0.514,0.133,0.479,0.193c-1.338,2.555-4.266,7.926-3.262,12.514
		c1.104-10.34,4.703-13.107,5.449-13.482c-0.795,1.289-2.221,2.775-2.654,5.379c1.434-1.721,2.869-3.873,3.229-4.158
		c0.061-0.051,0.51,0.264,0.5,0.285c-0.213,0.479-1.977,3.34-2.365,6.168c0.357-1.361,1.793-4.734,3.227-5.807
		c0.057-0.043,0.766,0.195,0.717,0.357c-0.215,0.715-1.793,2.725-1.865,4.088c-0.5,1.219-0.787,1.287-1.219,1.074
		c0.99,1.553,1.855,9.369,0.934,12.549c-0.047,0.166-0.086,0.316-0.113,0.447h1.547c0.049-0.053,0.096-0.107,0.145-0.16
		c2.277-2.658,4.006-6.832,4.371-12.691c0.574,0.357,1.939,0.43,2.582-0.574c0.646-1.004,0.717-1.578,0-1.865
		c-0.715-0.287-1.506-0.072-1.936,0.574s-0.502,0.932-0.715,1.146c-0.217-0.789-1.678-1.061-2.225,0
		c-1.254,2.438-1.219,1.148-1.434,1.723c-0.215,0.572-1.219,1.506-0.932,0.502s1.648-3.945,2.58-4.877
		c0.295,0.689,0.795,1.094,2.941-0.359c2.223-1.504,1.049-0.07,1.863-0.645c1.219-0.859,1.092-0.047,1.865-0.502
		c1.576-0.932,2.08,0.072,3.084-0.43c1.193-0.598,5.018-1.459,5.018-4.303c0-2.086-1.232-2.998-2.584-3.791
		c-0.455-0.266-0.922-0.521-1.359-0.799c-0.789-0.502-1.074-1.723-2.582-2.365c-1.146-0.646-2.078-0.932-2.365-1.936
		c-0.287-1.006-1.148,0-1.363-0.432c-0.215-0.43,0.357-0.645-0.357-0.932c-0.365-0.146-2.34-1.084-2.824-2.715
		c-0.215-0.432-0.904-1.658-0.832-2.449c-0.504,0-2.152-1.936-3.803-1.936c-1.648,0-3.801-0.143-3.512,0.932
		c-0.574,0-2.654,0.359-3.084,1.148s-0.145,0.357,0.215,0.574c0.359,0.215,0.359-0.217,0.861-0.357
		c0.502-0.145,0.357,0.787,1.146,0.787s1.291-0.502,1.721,0.145c0.695,1.041,2.797,2.006,3.441,2.006c0.646,0,0.934,0,1.436,0.861
		c0.502,0.859,1.004,1.578,1.646,1.578c0.248,0,0.197,1.014,0.109,1.541c-0.287,0-2.975-1.686-5.055-2.617s-3.514-1.363-4.303-1.076
		s-0.287-0.287-0.574-0.43c-0.287-0.145-0.717,0.072-0.934,0.285c-0.205,0.209-0.525,0.744-1.379,0.344
		c0.377,0.213,1.094,0.555,1.273,0.555c0.178,0,0.609-0.252,0.717,0.322s0.252,0.645,0.572,0.717
		c0.324,0.072,0.432,0.322,0.611,0.754c0.121,0.291,0.941,1.223,2.258,1.146c0.609-0.037,0.896,0.18,1.076,0.43
		c0.18,0.252,0.646,0.951,2.654,1.004c2.08,0.055,1.613,0.928,2.258,0.967c3.434,0.217,2.002,1.115,3.729,1.326
		c1.639,0.205,2.332,0.541,3.514,0.541c-0.01,0-0.018,0.029-0.029,0.08c-0.037,0.199-0.084,0.707-0.258,0.707
		c-0.68,0-4.984-0.682-6.203-0.682c-0.154,0-0.264-0.01-0.344-0.025c-0.559-0.119,0.338-0.582-1.449-0.582
		c-2.043,0-0.393-0.719-1.326-0.43c-0.932,0.285-1.076,0-1.721,0.213c-0.645,0.217-0.072-1.398-1.363-1.254
		c-1.289,0.143-1.506-0.072-1.898-0.43c-0.395-0.359-7.459-4.555-9.215-4.805c-1.756-0.252-0.896-0.432-0.896-0.754
		s0.037-0.502-0.252-0.646c-0.285-0.141-0.607-0.141-0.787,0.217c-0.43-0.322-1.434-0.861-1.793-1.326
		c-0.359-0.467,0.25-0.252,0.287-0.432c0.035-0.178-0.789-0.787-1.471-1.109c-0.68-0.324-1.289,0.25-1.9-0.182
		c-0.609-0.43-1.898-1.541-2.221-1.826c-0.324-0.289-1.256-0.109-1.615-0.502c-0.357-0.395-0.932-0.896-1.148-1.148
		c-0.213-0.25-0.787,0.646-1.182,0.18c-0.393-0.467-1.111-1.256-1.328-1.543c-0.213-0.285-0.535-0.213-0.43,0.182
		c0.107,0.393,0.18,0.537,0.037,1.072c-0.143,0.539,0.215,0.539,0.645,0.826c0.432,0.287,0.359,0.467,0.182,0.752
		c-0.182,0.289-0.145,0.432-0.072,0.754s-0.791,0.467-1.184,0.18c-0.395-0.287-0.934-0.717-1.113-0.969
		c-0.178-0.25,0.502-0.285,0.145-0.68c-0.357-0.396-0.25-0.467-0.609-0.754s0.215-0.467-0.107-0.861
		c-0.324-0.393-0.209-0.186-0.467-0.465c-0.598-0.652,0.469-1.107-0.502-2.08c-0.271-0.27,0.473-0.041,0.143-1.041
		c-0.135-0.414,0.457-0.486-0.143-1.289c-0.195-0.26,0.283-0.396-0.107-0.896c-0.252-0.324,0.574-0.252,0.143-0.824
		c-0.115-0.156-0.086-0.475-0.039-0.811c0,0-1.932-2.201-2.648-2.99s-0.932,0.287-0.574,0.574c1.428,1.141,0.691,2.748-1.004,2.725
		c0.824,0.824,1.902,1.732-0.43,3.082c1.506,0.217,2.293,2.08,0.215,2.941c1.648-0.287,3.584,0.932,1.076,2.15
		c2.156-0.924,3.141,0.639,1.691,1.506c1.676-0.443,2.186,0.787,0.898,1.563c2.025-0.758,2.779,0.771,0.994,1.664
		c-0.717,0.357-0.859,0.646-2.365,1.221c-2.918,0.701-3.922,2.768-5.621,1.971c-3.002-1.404-3.773-5.279-3.938-8.637
		c-0.01-0.205-0.031-1.42-0.125-1.348c-1.232,0.932-2.418,3.16-3.244,4.48c-2.85,4.561-7.158,6.662-9.842,12.361
		c-0.213,0.451-0.416,0.926-0.607,1.424c3.336-2.047-1.047,2.205-1.023,3.295c0.002,0.09,1.23-0.477,1.453-0.568
		c0.135,0.131-3.58,4.174-4.277,6.918c-0.346,1.365,0.943-0.818,2.129-1.111c-0.623,0.568-2.072,2.867-2.582,3.512
		c0.287,0.1,2.24-1.4,1.986-1.063c-0.74,0.998-4.086,5.27,0.164,2.211c-1.42,1.541-3.533,4.512-4.232,6.504
		c-0.105,0.295,1.91-0.592,3.092-1.818c-0.57,0.594-1.506,2.971-1.318,2.814c1.66-1.389,4.146-4.063,3.045-2.588
		c-1.66,2.223-2.875,4.506-2.99,4.523c0.498-0.082,1.85-1.625,3.232-3.086c0.703-0.742,1.9-2.414,3.545-2.691
		c-1.641,1.795-5.047,5.475-6.311,7.977h0.447c0.506-0.488,1.143-1.055,1.484-1.084c0.047-0.004-0.285,0.584-0.506,1.084h0.865
		c0.566-0.512,1.156-1.113,1.146-1.068c-0.064,0.322-0.254,0.684-0.514,1.068c-1.197,1.777-3.924,4.037-3.26,4.844
		c0.02,0.023,3.164-3.102,3.168-3.053c0.094,1.137-0.518,2.643-1.74,4.49c-0.654,0.994,1.631-1.074,1.643-1.039
		c0.598,1.6-2.467,4.105-2.561,5.359c-0.014,0.172,2.162-1.6,2.273-1.676c3.012-2.09,4.594-4.979,6.732-7.725
		c-0.438,1.85-1.451,3.689-3.117,6.332c-0.074,0.115,2.342-2.279,2.484-2.266c0.246,0.023-0.465,1.785-2.674,5.438
		c0.016,0.244,2.5-2.455,3.092-3.193c0.059,0.338-2.201,4.08-2.221,4.271c-0.027,0.287,3.051-3.041,3.582-3.557
		c-0.238,1.4-4.32,5.973-4.623,7.27c-0.029,0.121,4.145-3.98,4.285-4.061c0.75-0.416,0.199,0.754,0.354,0.645
		c1.23-0.885,1.713-1.924,2.514-2.721c0.07-0.068,0.592,0.174,0.625,0.244c0.035,0.072,0.486-0.924,0.654-1.563
		c0.17-0.648,0.58-0.594,0.93-1.26c0.406-0.775-0.205-0.334,0.143-1.107c0.422-0.939,2.648-3.727,2.904-4.424
		c0.17-0.461-1,0.088-0.971-0.119c0.074-0.533-1.275,0.982-1.586,1.113c-0.561,0.227-0.535-0.33-0.482-0.518
		c0.133-0.465,0.842-1.17,1.059-1.727c0.061-0.152,0.082-0.295,0.043-0.416c-0.154-0.518-0.58-0.318-0.287-0.682
		c0.182-0.229-0.102-0.926,0.006-1.033c0.469-0.457-0.092-0.926,0.174-1.105c0.381-0.256,0.322-0.869,0.141-1.209l11.402-9.197
		c0.223-0.303,0.266,0.438,1.139,1.336c0.32,0.328,1.09,0.373,1.432,0.752c0.08,0.086-4.064,5.09-4.305,5.061
		c0.414,0.051,4.629-4.576,4.875-4.336c0.09,0.09,0.656,0.777,0.531,1.004c-0.18,0.322-5.615,7.725-6.402,8.979
		c-0.314,0.502-0.512,0.701-0.666,0.848c-0.182,0.174-0.303,0.271-0.477,0.699c-0.324,0.789-1.686,2.547-1.973,2.869
		s-0.645,0.035-0.754-0.145c-0.107-0.178-0.502-0.322-0.643,0c-0.145,0.324-0.826,1.148-1.186,1.076
		c-0.357-0.07-0.25,0.143-0.393,0.322c-0.145,0.18-0.539-0.18-0.359-0.682s-0.359-0.07-0.07-0.465
		c0.285-0.396,0.643-1.543,0.822-1.9c-0.393,0.502-1.971,3.836-2.365,4.053c-0.395,0.213-0.252,0.213-0.467,0.932
		c-0.215,0.715-1.039,2.543-1.396,1.936c-0.502,1.254-3.229,6.775-3.193,7.994c0.289-0.322,0.684-0.572,0.574,0.178
		c-0.107,0.754,0.129,1.152,0,1.58c-0.314,1.063-0.451,1.656-0.506,3.053c-0.086,0.715-0.434-0.35-0.281,1.213
		c0.248-0.018,0.586-0.256,0.537,0.109c-0.107,0.787-0.324,1.396-0.324,2.041c0.133-0.309,2.535-4.494,3.371-4.84
		c-0.037,0.395-0.287,2.08-0.539,2.654c0.084-0.145,3.229-4.506,3.406-4.555c-0.049,0.014,1.906-1.865,2.117-1.828
		c-0.037,0.502-1.295,2.992-2.295,4.195c-1.109,1.336-2.662,4.693-2.961,5.764h0.146c3.584-4.664,6.754-5.668,7.08-5.656
		c-0.035,0.43-0.842,2.135-1.506,2.795c0.646-0.035,1.148-0.93,1.758-0.752c-0.072,0.432-0.324,1.074-0.609,1.398
		c0.502-0.285,0.896-0.285,1.146-0.285c-0.158,0.479-0.75,1.563-1.219,2.5h0.523c0.816-0.973,1.848-2.102,2.381-2.215
		c0.072,0.322-0.896,1.578-0.502,1.756c0.217-0.143,1.289-1.182,1.791-1.182c0,0.27-0.535,1.021-0.865,1.641h0.846
		c0.234-0.15,0.426-0.201,0.467,0h0.219c0.443-0.553,1.275-1.531,1.916-1.676c0,0.393,0.109,0.465,0,0.861
		c0.539-0.396,1.25-0.844,1.363-0.504c0.021,0.068-0.305,0.652-0.633,1.318c-0.197,0.4-0.393,0.828-0.514,1.191
		c0.285-0.107,0.607-0.145,0.789-0.178c-0.109,0.357-0.574,1.146-0.574,1.648c0.465-0.43,1.254-1.471,2.115-1.756
		c0.033,0.322-2.152,5.734-2.33,7.063c0.357-0.504,1.936-5.127,3.189-6.561c0.619-0.707,0.914-1.135,1.111-1.408
		c0.203-0.283,0.301-0.402,0.539-0.492c0.016,0.057-0.025,0.236-0.104,0.492c-0.262,0.877-0.934,2.619-1.045,3.092
		c0.43-0.322,0.646-0.682,1.004-0.969c0,0.287-0.107,1.686-0.393,2.33c-0.289,0.646-0.217,0.467,0.068,0.109
		c0.289-0.359,1.578-3.154,2.332-3.516c0.072,0.434-0.287,2.441-0.609,3.121c0.395-0.432,1.041-1.291,1.471-1.578
		c-0.037,0.574-0.357,2.115-0.646,2.689c0.43-0.539,2.08-3.082,2.939-3.156c-0.285,0.646-1.289,2.582-1.289,3.443
		c0.502-0.502,0.502-0.611,1.221-0.969c-0.289,0.682-0.756,2.08-0.646,2.615c0.574-1.037,1.254-1.719,1.756-1.971
		c-0.178,0.969-0.896,2.762-0.824,3.156c0.357-0.359,1.074-1.074,1.434-1.219c-0.215,0.395-0.252,1.289-0.145,1.613
		c0.324-0.107,0.574-0.359,0.826-0.465c-0.037,0.43-0.574,1.396-0.359,1.684c0.252-0.037,1.506-0.932,1.291-1.254
		c-0.215-0.324-0.682-0.145-0.645-0.395c0.035-0.252,0.178-0.682-0.037-0.898c-0.215-0.215-0.645-0.215-0.609-0.537
		s0.107-0.752,0.072-1.219c-0.037-0.467,0.072-1.004-0.252-1.217c-0.322-0.217-0.215-0.646-0.322-0.898
		c-0.107-0.25-0.574-0.287-0.717-0.859c-0.143-0.574-0.932-1.65-0.895-2.152c0.016-0.242-0.244-0.402-0.504-0.582
		c-0.279-0.195-0.557-0.41-0.5-0.781c0.105-0.715-1.076-1.037-1.186-1.684c-0.107-0.646-1.111-0.609-1.111-1.506
		c0-0.898-1.037-0.934-1.109-1.541c-0.072-0.611-0.324-0.182-0.361-0.934c-0.033-0.754-0.32-1.004-0.32-0.287
		c0,0.719-1.191,1.541-1.436,0.18c-0.609-3.406-0.932-3.406-0.932-4.695c0-1.34,0.357-3.002,1.398-2.117
		c0.969,0.824,0.682,0.145,1.111,0c0.43-0.143,0.645,0.145,0.717,0.359s-0.105,2.33,0.215,2.26c0.322-0.072,0.182-0.791,0.143-1.076
		c-0.033-0.287,1.221-0.609,1.293-0.107s0,1.111,0.537,1.111c0.539,0,0.43,0.25,0.43,0.787c0,0.539,0.324,0.375,0.467,0.396
		c0.502,0.07,0.322,0.717,0.322,1.432c0,0.719,0.18,0.539,0.357,0.539c0.18,0,0.217,0.107,0.217,0.215s0.338-0.145,0.357,0.539
		c0.035,1.182,0.824,0.178,0.861,1.217c0.037,1.041-0.215,1.471,0.109,1.471c0.32,0,0.178,0.432,0.178,0.682
		c0,0.252,0.357,0.145,0.574,0.178c0.213,0.039,0.607,0.074,0.572,0.863c-0.035,0.787,0.035,0.932,0.287,0.932
		c0.25,0,0.25,0.537,0.287,0.896c0.035,0.359,0.035,0.537,0.287,0.537c0.074,0,0.107,0.051,0.117,0.135
		c0.025,0.199-0.082,0.588-0.082,0.941c0,0.5-0.072,0.859,0.18,0.859c0.25,0,0.359,0.287,0.359,0.717s0.035,0.43,0.178,0.502
		c0.145,0.072,0.107,0.324,0.107,0.646c0,0.324-0.035,0.502,0,1.004c0.037,0.502,0.322,0.145,0.322,0.572
		c0,0.432-0.18,1.184,0.217,1.184c0.502,0,0.131,0.682,0.143,1.111c0.037,1.291,0.514,0.252,0.502,1.113
		c-0.035,2.438,0.574,0.965,0.574,2.186c0,2.867,0.545,2.654,0.572,1.004c0.014-0.789,0.303-0.324,0.324-1.039
		c0.035-1.184,1.361-8.75,1.182-10.541c-0.008-0.088-0.018-0.174-0.029-0.26c-0.211-1.621-0.77-2.447-0.328-2.787
		c0.465-0.359,0.932,2.043,1.039,2.617c0.012,0.072,0.031,0.125,0.049,0.17c0.135,0.305,0.391,0.025,0.453,0.654
		c0.07,0.717-0.035,1.363,0.178,1.506c0.217,0.143,0.396,0.324,0.324,0.895c-0.07,0.574-0.393,1.221-0.107,1.363
		c0.287,0.145,0.537,0.682,0.43,1.291c-0.107,0.611-0.465,1.828-0.18,2.15c0.287,0.324,0.252,1.758-0.143,3.479
		c0.359-0.824,2.258-4.051,2.762-4.41c0.5-0.357,0.682,0,0.393,0.682c-0.215,0.516-2.807,6.818-2.939,8.066
		c0.537-0.395,1.828-1.828,1.758-1.254c-0.072,0.574-0.217,2.293-0.035,2.832c0.32-0.719,0.715-2.078,1.611-2.51
		c-0.232,2.23-0.936,3.826-1.037,4.625c-0.145,1.111-0.684,4.588-1.076,5.449c0.25-0.465,1.898-4.373,2.4-5.271
		c0.143,1.83,0.182,1.973-0.107,2.582c-0.42,0.895-0.18,1.113-0.213,1.723c0.43-0.861,2.076-4.879,3.225-5.666
		c0,1.004-0.646,3.406-0.787,4.121c0.395-0.5,1.791-4.729,2.543-5.699c-0.035,0.324-0.213,1.578,0,1.938
		c0.289-0.324,0.434-0.754,0.754-1.076c0.072,0.359,0.25,1.146,0.215,1.504c0.395-0.537,0.789-1.145,1.039-1.611
		c0.287,0.322,0.324,0.287,0.502,0.607c0.109-0.355,0.182-1.361,0.969-2.293c-0.143,0.537-0.896,5.951,0.107,7.709
		c-0.143-0.822,0.395-4.77,0.969-5.449c0.035,0.395,0.107,2.654,0.467,3.441c0.18-0.465,0.932-1.898,1.506-2.473
		c0.215,0.682,0.43,3.369,0.859,4.551c0.359-0.682,0.396-2.939,0.719-3.727c0.105,0.25,0.68,2.939,0.68,4.051
		c0.107-0.717,1.004-4.232,0.826-5.629c0.393,0.789,0.895,3.047,0.752,4.412c0.252-0.324,0.932-2.404,0.932-3.156
		c0.457,0.578,0.547,2.838,0.215,4.408c0.645-0.572,1.074-1.898,1.006-2.725c0.25,0.43,1.004,2.402,0.932,3.586
		c0.287-0.539,0.715-1.004,0.645-1.613c0.393,0.43,1.111,2.188,1.396,3.191v-0.145c0.107-0.932,1.043-4.23,0.613-5.414
		c0.32,0.357,1.504,2.117,1.574,3.084c0.109-1.006,0.287-1.361,0.145-2.008c0.357,0.395,1.221,1.182,1.434,2.402
		c0-0.609,0.215-3.334-0.213-4.088c1.256,1.258,1.023,1.684,1.576,3.156c0.107-0.539,0.754-2.582,0.287-3.586
		c0.572,0.252,1.002,0.574,1.219,0.754c0.18-1.041-0.287-2.08-0.395-2.727c0.85,0.744,1.598,1.621,2.402,3.871
		c0-2.814-2.225-6.551-2.904-6.881c1.725,0.672,2.936,2.527,3.227,3.477c-0.037-0.359,0.215-1.254,0.035-1.471
		c0.502,0.18,0.502,0.252,0.826,0.18c-0.18-0.537,0.178-1.613-0.18-1.936c0.467,0.252,0.896,0.322,1.217,0.646
		c-0.143-0.395,0-1.221-0.285-1.436c0.322,0.07,0.645,0,0.969,0.287c-0.037-1.543-2.582-2.258-2.297-6.453
		c0.646,0.035,0.646-0.143,0.934,0.07c-0.18-0.465-0.215-1.398-0.465-1.613c0.395,0,0.68-0.18,0.824,0.035
		c0.143,0.217-0.43-2.258-0.322-2.33c0.43,0,0.25-0.215,0.572-0.035c-0.215-0.502-0.072-1.434-0.502-1.686
		c0.609-0.07,0.932-0.107,1.146,0.074c0.137-1.199,0.203-1.957,0.217-2.484c0.033-1.275-0.234-1.217-0.537-2.787
		c0.559,0.127,3.838-0.201,4.41,0.037c-0.096-0.611-0.344-0.693-0.324-0.682c0.197,0.09,1.463-0.248,3.404,2.221
		c0.35,0.443,0.652,0.842,0.924,1.211c1.369,1.871,1.814,2.879,2.232,3.99c-0.336-1.445-0.938-2.785-1.658-3.99
		c-1.887-3.16-4.594-5.385-5.514-6.014c1.68,0.738,4.469,3.193,6.51,6.014c0.502,0.693,0.961,1.408,1.344,2.123
		c-0.096-0.512-0.25-1.508-0.588-2.123c-0.039-0.074-0.084-0.145-0.129-0.207c0.08,0.066,0.166,0.137,0.252,0.207
		c0.568,0.465,1.225,1.012,1.504,1.48c-0.25-0.969,0.145-0.863-0.285-1.293c-0.432-0.43,1.396,0.574,1.791,1.076
		c-0.023-0.355-0.217-0.807-0.482-1.264c-0.535-0.924-1.377-1.877-1.74-2.143c-0.867-0.637-0.428-0.809,0.432-0.217
		c0.246,0.174,1.531,0.914,2.908,2.359c0.455,0.475,0.916,1.025,1.357,1.658c-0.145-0.396-0.469-1.004-0.871-1.658
		c-0.889-1.451-2.16-3.131-2.715-3.219c1.277-0.072,4.807,2.809,7.457,2.225c-4.793-2.457-13.252-6.508-15.344-11.939
		c-0.182-0.471,0.408-0.213,0.395-0.502c-0.037-0.756,0.357-1.041,0.574-0.395c0.734,2.207,3.996,5.451,6.559,7.027
		c-3.225-3.012-4.121-3.943-4.445-5.449c1.096,1.379,5.848,6.361,12.908,8.426c-1.041-0.719-5.307-3.516-5.414-4.984
		c0.43,0.178,6.238,4.158,7.387,4.375c-0.432-0.395-0.971-1.041-1.398-1.688c0.715,0.18,1.971,0.359,1.432,0.109
		c-0.428-0.287-2.365-1.9-2.723-2.727c0.861,0.609,5.521,2.51,6.094,2.51c-1.074-0.572-3.047-2.006-3.477-2.51
		c0.574-0.07,0.752-0.215,1.076-0.215c-0.861-0.357-7.17-4.73-7.314-5.447c0.395,0.033,0.682,0.143,1.111,0.105
		c-0.074-0.25-0.252-0.824-0.357-1.148c0.283,0.145,2.4,1.938,3.117,2.045c-0.324-0.357-1.828-2.475-1.936-3.227
		c0.502,0.252,4.303,3.943,8.246,3.943c-0.537-0.215-3.693-3.727-3.98-4.66c0.824,0.537,2.617,2.008,3.479,2.008
		c-0.322-0.611-1.221-2.08-1.506-2.619c0.682,0.361,3.154,1.365,3.551,1.973c-0.145-0.322-2.01-2.51-2.582-2.977
		c0.895,0.217,2.186,0.611,2.832,1.004c0.645,0.396-1.256-1.756,0-1.289c-0.717-0.789-4.842-4.768-5.127-4.947
		s-0.574-0.215-0.646,0.035c-0.072,0.252-0.537,1.182-1.361,0.537c-0.469-0.365-1.498-1.438-2.561-2.635
		c-1.344-1.516-2.74-3.23-3.105-3.961c-0.322-0.646,0.18-0.465-0.07-0.787c-0.252-0.324-1.221-1.115-1.221-1.545
		s-0.32-1.039,0.289-1.004c0.191,0.012,0.355,0.574,0.717,0.502c0.357-0.07,1.184-0.213,1.506-0.143
		c0.32,0.072,0.107-0.215,0.107-0.465c0-0.826-0.623-1.578,1.578-1.578c0.25,0.357,3.941,3.441,4.373,4.158
		c0.43,0.717,2.117,1.506,2.33,1.973c0.215,0.467,0.285,0.582-0.035,0.467c-0.396-0.145-0.719-0.682-1.221-0.969
		s-1.004-0.861-1.254-1.184c-0.252-0.324-0.502-0.324-0.68-0.324c-0.18,0-0.145-0.105-0.502,0.217
		c-0.359,0.322-0.609,0.072-0.898,0.43c-0.285,0.357-0.607,0.322-0.18,0.717c0.27,0.248,1.746,1.924,3.365,3.496
		c0.971,0.943,1.992,1.848,2.84,2.385c-0.242-0.391-1.313-1.355-2.061-2.385c-0.326-0.449-0.592-0.91-0.701-1.344
		c0.197,0.242,0.906,0.779,1.719,1.344c1.105,0.77,2.398,1.59,2.834,1.775c-0.305-0.67-0.734-1.313-1.209-1.775
		c-0.086-0.082-0.174-0.16-0.262-0.232c0.225,0.074,0.43,0.152,0.627,0.232c2.336,0.969,2.828,2.367,4,2.6
		c-0.523-0.83-1.92-1.725-2.846-2.6c-0.541-0.508-0.922-1.008-0.885-1.488c0.051-0.623,0.396-0.395,0.145-0.717
		s-1.041-1.578-1.002-1.828c0.033-0.252,0.07-0.252,0.463-0.107c0.268,0.096,3.223,2.313,5.352,4.141
		c1.027,0.885,1.861,1.678,2.107,2.098c-0.096-0.215-0.85-1.049-1.844-2.098c-2.016-2.129-5.014-5.143-5.471-5.646
		c-0.457-0.506-0.365-1.762-0.359-1.756c-0.338-0.291-0.436-0.955-0.467-0.969c0.359,0,0.504-0.035,0.754,0.107
		c0.252,0.143-0.609-0.682-1.004-1.828c0.258,0.043,2.316,1.637,4.877,1.506c-0.896-0.395-1.291-0.896-1.578-1.471
		c0.646,0.145,1.758,0,2.152,0.43c-0.469-0.43-1.506-1.146-1.828-1.434c-0.324-0.285,0.105-0.215,0.213-0.43
		c0.109-0.215-0.035-0.322,0.037-0.502s0.252-0.07,0.393-0.215c0.145-0.143-0.035-0.395,0-0.576c0.037-0.178,0.25-0.25,0.25-0.428
		c0-0.18-1.828-0.035-1.145-0.646c0.32-0.07,1.145-0.143,1.184-0.502c0.035-0.357-0.682-0.502-0.609-1.434
		c0.029-0.408-0.037-0.215-0.145-0.43c-0.109-0.217,0.072-0.18-0.109-0.467c-0.178-0.287-0.035-0.682-0.25-0.822
		c-0.215-0.145-0.035-0.361-0.357-0.434c-0.324-0.07-0.107-0.32,0-0.465c0.107-0.143,0-0.467-0.324-0.607
		c-0.322-0.145-0.236-0.922-0.537-0.611c0.367-0.379,0.34-0.494-0.215-0.967c-0.502-0.432,0.145-1.254-0.465-1.65
		c-1.371-0.887-0.439-1.289-2.117-2.977C303.781,272.45,308.545,271.321,309.695,269.437"/>
	<path fill="url(#colour1)" d="M254.268,261.478c0.576,0,2.006-1.578,2.723-1.793c0.719-0.215,1.506,0.287,1.506,0.859
		c-0.859-0.285-2.293-0.502-3.154,1.291c-0.398,0.83-0.426,1.547-0.242,2.16C254.813,263.638,254.195,261.835,254.268,261.478"/>
	<path fill="url(#colour1)" d="M219.268,249.839c0.045-0.336,0.104-0.689,0.043-0.91c-0.322-1.174-0.541-0.021-0.609-0.861
		c-0.037-0.43,0.107-0.418,0.645-0.393c0.861,0.033,1.041,0.322,1.291,1.217c0.252,0.896,0.662,0.107,0.646,0.754
		c-0.037,1.326,0.393,0.682,0.357,1.398c-0.037,0.717-0.682,0.25,0,1.434c0.371,0.646,1.184,1.613,1.613,2.008
		s0.539,0.215,0.896,0.07c0.357-0.141,0.68-0.178,0.395-0.715c-0.289-0.539-1.756-1.615-1.828-2.33
		c-0.063-0.617,0.285-0.467,0-0.932c-0.289-0.469,0.141,0.141-0.252-0.432c-0.395-0.574,0.301-0.346-0.178-0.967
		c-1.328-1.723-1.328-0.289-1.723-1.293s-1.363-2.867-1.721-3.334c-0.287-0.072-0.789,0.072-0.789-0.393
		c0-0.23-0.381-0.805-0.313-1.42c-4.805,3.795-6.918,8.611-5.883,13.967c0.719,3.711,2.658,5.457,5.264,7.566
		c1.506-0.574,1.648-0.861,2.365-1.221c1.969-0.984,0.854-2.752-1.648-1.361c2.367-0.791,1.506-2.871-1.148-1.506
		c2.654-0.646,1.723-2.939-0.787-1.865c2.51-1.219,0.572-2.438-1.076-2.15c2.08-0.861,1.291-2.725-0.215-2.941
		c2.33-1.35,1.252-2.258,0.43-3.082c1.695,0.023,2.432-1.584,1.006-2.725c-0.361-0.289-0.145-1.363,0.572-0.574
		S219.268,249.839,219.268,249.839"/>
	<path d="M214.717,282.229c-0.539-0.1-0.566-3.127-0.082-4.461c-0.523,0.402-11.09,7.805-11.639,8.061
		c-0.236,0.107,0.031,1.135-0.223,1.137c-0.705,0.004-0.424,0.836-0.438,1.326c-0.004,0.166,1.127-0.234,1.154-0.068
		c0.088,0.549-0.984,0.389-0.93,0.727c0.064,0.422,0.076,2.195,0.191,2.713c0.051,0.229,0.496,0.74,0.543,0.955
		c0.039,0.168,0.824,0.193,0.719,0.029c-0.08,0.152-0.059,1.105,0.125,1.281c0.213-0.227,0.533-0.541,0.486-0.275
		c0.393,0.285,0.441,1.396,1.041,0.898l11.125-9.088c0.205-0.264-0.527-0.705-0.818-0.789c-0.352-0.104-5.232,4.088-5.287,4.033
		c-0.182-0.18,4.77-4.465,4.672-4.604C215.152,283.817,215.107,282.29,214.717,282.229"/>
	<path d="M204.502,283.956c-2.336,1.396-1.609-1.162-0.676-1.186c0.309-0.006,0.697-0.232,0.211-0.787
		c-0.418-0.475,0.1-0.414,0.08-0.789c-0.018-0.314-0.289-0.766,0.188-0.959c0.545-0.219,0.699-0.225,0.74-0.76
		c0.027-0.359-0.295-0.344-0.105-0.768c0.182-0.412,1.158-0.33,1.188-1.236c0.029-0.969,0.768-1.398,0.824-1.793
		c0.338-2.342,1.09-1.098,1.494-2.051c1.01-2.373,1.693-1.275,1.857-2.32c0.189-1.213,1.693-0.811,2.107-1.592
		c0.322-0.609,0.482-0.424,1.234-0.424c0.754,0,5.686,0.197,6.152,0.197c0.533,0,0.471,0.174,0.588,0.576
		c0.215,0.744-0.133,0.826-0.416,0.922c-0.715,0.24-1.959,0.41-1.885,1.273c0.072,0.838-2.053,1.059-1.721,3.002
		c0.084,0.49-1.914,0.822-1.557,1.516c0.066,0.223-0.715,0.598-1.27,1.045C210.813,279.868,206.619,282.378,204.502,283.956"/>
	<path d="M221.838,268.753c0.766-0.018,3.367-1.682,3.977-1.934c0.512-0.207,1.695,0.182,2.289-0.037
		c0.518-0.195,0.369-0.383,0.709-0.859c0.217-0.301,0.637,0.227,0.74-0.1c0.123-0.389,0.146-1.279,0.545-1.51
		c1.053-0.613-0.574-1.596-0.959-1.748c-1.037-0.406-2.369-1.158-2.369-1.158s-3.922,1.848-4.158,1.963
		c-3.627,1.725-8.865,5.467-8.445,5.449C215.027,268.784,221.156,268.769,221.838,268.753"/>
	<path d="M221.389,289.872c0.164-0.131,0.432-0.072,0.752,0.252c0.324,0.322,0.936,0.428,0.754,0.789
		c-0.18,0.357-1.074,1.898-2.115,2.973c-1.039,1.078-3.441,4.662-3.691,5.02c-0.252,0.361-0.334-0.006-0.574,0.432
		c-0.395,0.717-0.734,1.037-1.184,0.826c-0.992-0.471,0.559-1.305,0.215-1.65c-0.18-0.18-0.145-0.322-0.035-0.539
		C215.797,297.397,220.742,290.386,221.389,289.872"/>
	<path d="M223.074,292.022c0.299-0.273,0.574-0.287,0.932-0.072c0.359,0.217,0.789,0.574,1.076,0.719s0.145,0.646,0.502,0.859
		c0.359,0.217,0.646,0.574,0.574,0.932c-0.072,0.361,0.143,0.361,0,0.646c-0.096,0.191-1.523,1.738-1.721,2.725
		c-0.145,0.717-1.291,0.717-2.869,3.514c-0.379,0.676-0.281,0.145-0.787,0.145c-0.863,0-0.211-0.434-0.719-0.434
		c-1.004,0-0.645-0.57-1.721-0.57c-1.074,0-1.502,0.014-1.219-0.646c0.43-1.002,3.227-4.66,3.799-5.307
		c-0.213,1.004-0.285,1.721-0.213,2.582C221.383,295.597,220.99,293.948,223.074,292.022"/>
	<path d="M221.783,301.954c0.432-0.646,1.219-1.828,1.865-2.475c-0.359,0.717-1.004,2.582-1.004,2.797
		C222.645,302.276,222.07,301.954,221.783,301.954"/>
	<path d="M226.373,296.253c0.252-0.293,0.357-0.715,0.574-0.287c0.215,0.432,0.287,0.789,0.07,1.076
		c-0.215,0.287-2.365,5.666-2.51,6.453c-0.287-0.145-0.646-0.645-1.004-0.717C223.646,301.64,224.078,298.948,226.373,296.253"/>
	<path d="M227.447,297.616c0.209-0.244,0.287-0.789,0.502-0.287c0.217,0.502,0.359,0.574,0,1.291
		c-0.357,0.717-1.506,5.377-1.434,6.525c-0.502-0.357-1.004-1.004-1.361-1.148C225.123,303.755,226.596,298.624,227.447,297.616"/>
	<path d="M228.021,306.866c-0.533-0.355-0.43-0.789-0.859-1.076c0.285-0.717,0.645-5.162,1.074-5.664
		c0.432-0.502,0.357-0.934,0.646-0.432c0.285,0.502,0.43,0.863,0.645,1.363c0.215,0.502-0.072,0.645-0.072,1.436
		c0,0.787,0.574,0.43,0.574,1.074s-0.215,0.861-0.215,1.721c0,0.861,0.574,0,0.43,1.721c-0.088,1.072,0.727,0.473,0.43,1.506
		c-0.285,1.004,0.633,0.613,0.359,1.436c-0.287,0.859,0.504,0.859,0.215,2.223c-0.311,1.475,0.861,1.434,0.574,2.438
		c-0.297,1.037,0.574,0.717,0.502,1.865c-0.072,1.145,0.719,0.645,0.789,2.365c0.068,1.648,0.555,0.564,0.789,2.438
		c0.15,1.213,0.285,1.506,0.213,2.725c-0.07,1.221-0.141,1.148-0.285,1.578s0.072,0.213-0.357,0
		c-0.43-0.215-0.227-0.211-0.502-0.717c-0.43-0.789,0.223-1.215-0.072-1.291c-0.861-0.215-0.469-0.678-1.004-1.076
		c-0.408-0.303,0.199-0.84-0.287-1.432c-0.594-0.725-0.07-1.078-0.789-1.58c-0.869-0.605-0.072-1.363-0.717-2.008
		c-0.549-0.547,0.215-1.002-0.574-1.936c-0.58-0.686-0.072-1.506-0.789-2.15c-0.633-0.568-0.395-1.561-0.717-1.938
		c-0.398-0.463-0.963-0.809-1.076-1.719c-0.068-0.574,0-1.867,0.145-2.369c0.145-0.5,0.287-0.285,0.572,0
		C227.949,307.655,228.451,307.153,228.021,306.866"/>
	<path d="M213.752,302.563c-0.232-0.113-0.932-0.072-1.289,0.287c-0.361,0.359-3.801,4.445-4.016,4.875
		c-0.432,0.861,0.549,2.221,1.361,1.291c0.502-0.572,0.67-1.244,0.717-0.859c0.072,0.572,0.922,1.061,1.219-0.359
		c0.289-1.363,2.08-3.584,2.51-4.086S214.182,302.778,213.752,302.563"/>
	<path d="M215.975,302.851c-0.609,0.457-2.221,1.936-2.51,2.725c-0.285,0.787-0.574,0.932-0.574,1.578
		c0,0.645-0.213,0.502,0.432,0.572c0.645,0.072,1.146-0.572,1.291-0.859s0.145-0.504,0.646-0.504s0.141,0.074,0.787,0.074
		c0,0.357-0.361,1.402,0.217,1.361c1.004-0.072,0.787,0.502,1.145-0.574c0.139-0.412,1.65-2.795,2.512-3.799
		c-0.359-0.359-0.789-0.287-1.004-0.287c-0.217,0-0.574,0.359-0.719-0.072c-0.143-0.432-1.002-0.432-1.361-0.572
		C216.477,302.349,216.264,302.634,215.975,302.851"/>
	<path d="M220.994,303.927c-0.426-0.064-0.43-0.143-0.717,0.287c-0.287,0.428-1.434,1.576-1.648,2.365
		c-0.217,0.789,0.066,0.689,0.43,0.717c0.463,0.035,0.295-0.195,0.717-0.195c0.291-0.002,0.605,0.23,0.859,0.268
		c0.504,0.072,0.863-0.574,0.719-1.291s0.287-1.074,0.43-1.436C221.928,304.284,221.928,304.069,220.994,303.927"/>
	<path d="M223.002,304.501c-0.469-0.104-0.287,0-0.502,0.357c-0.213,0.357-0.357,0.357-0.357,1.221c0,0.859-0.145,0.787-0.287,1.145
		c-0.143,0.359,0.143,0.863,0.502,0.574c0.357-0.285,0.574-0.43,0.789-0.072c0.215,0.361,0.43,0.574,0.645,0.287
		s0.184-1.729,0.287-2.295C224.289,304.567,224.227,304.767,223.002,304.501"/>
	<path d="M226.443,306.507c-0.143,0.43-0.213,2.152-0.07,2.727c0.373,1.492-0.803,0.492-0.789,0.5
		c-0.215-0.143-0.502-0.357-0.789-0.572c-0.287-0.217-0.287-0.287-0.359-0.859c-0.07-0.576,0.289-1.939,0.289-2.297
		c0-0.633,0.08-0.924,0.715-0.43C226.086,306.077,225.799,305.933,226.443,306.507"/>
	<path d="M214.039,310.487c-0.668-0.252-1.77-0.072-2.08,0.322c-0.787,1.006-0.502,0.504-0.787,0.861
		c-0.289,0.357-0.719-0.287-1.578,0.787c-0.982,1.229-3.479,4.027-3.873,6.672c1.045-1.775,2.412-3.633,4.09-4.879
		c0.975-0.727,0,0.504,0.43,0.574c0.43,0.072,0.643-0.07,1.076-0.717C211.746,313.464,213.107,311.419,214.039,310.487"/>
	<path d="M217.123,310.882c-0.65,0-1.076-0.357-1.65-0.43c-0.572-0.072-0.43-0.145-0.645,0.285
		c-0.215,0.432-2.725,4.016-2.869,4.303c-0.143,0.287-0.143,0.859,0.215,0.574c0.359-0.287,0.432-0.359,0.574,0
		c0.145,0.359,0.072,0.502,0.574,0.502s0.717,0.072,0.717,0.359c0,0.285,0.574,0.07,1.076,0.07s-0.145,0,0.072,0.287
		c0.215,0.287,0.717,0.359,0.932,0.07c0.215-0.285,0.574-0.645,0.787-0.213c0.217,0.43,0.252,1.361,0.898,0.859
		c0.645-0.502,0.322-0.287,0.178-0.717c0.289-0.357,1.768-0.287,1.293,0.07c0.285-0.213,0.07-0.143,0.213,0.432
		c0.145,0.572,0.646,2.006,1.148,2.725s1.004,0.357,0.574-0.285c-0.432-0.646-0.719-2.33-0.791-3.193
		c-0.078-0.961-0.553-1.377-0.213-3.334c0.193-1.121,0.604-1.613-0.574-2.008c-0.646-0.213-0.861,0.145-1.221-0.145
		c-0.357-0.285-0.07-0.5-0.574-0.57C217.338,310.452,217.48,310.882,217.123,310.882"/>
	<path d="M246.092,337.556c-0.49,0.309-2.582,2.008-3.156,2.867c-0.572,0.861-0.141,1.076-0.572,1.723
		c-0.432,0.645-1.004,1.076-1.004,1.793s0.215,0.643,0.932-0.432c0.717-1.076,2.797-3.799,3.516-4.373
		C246.521,338.56,246.666,337.198,246.092,337.556"/>
	<path fill="#FFFFFF" d="M241.861,305.575c-0.289,0-0.789-0.357-1.076-0.43c-0.285-0.072-0.107,0.719,0.072,0.824
		c0.18,0.107,0.43,0.252,0.502,0.537c0.072,0.287,0.43,0.25,0.717-0.035s0.432-0.143,0.717-0.322
		c0.287-0.18,0.107-0.826-0.285-0.609C242.111,305.753,242.256,305.575,241.861,305.575"/>
	<path fill="#FFFFFF" d="M242.256,307.296c-0.455,0.227-0.289,0.502-1.221,0.467c-0.359-0.014-0.357,0.502-0.105,1.004
		c0.25,0.502,0.357,0.646,0.467,0.896c0.107,0.252,0.035,0.287,0.537,0.287s1.791-0.504,2.223-0.324
		c0.035-0.25-0.037-0.646-0.395-0.859c-0.357-0.215-0.824-0.502-0.824-1.004S242.686,307.083,242.256,307.296"/>
	<path fill="#FFFFFF" d="M243.797,310.882c-0.334,0.111-0.611-0.859-1.076-0.215c-0.467,0.645-0.467,0.68-0.896,0.824
		s-0.537,1.148-0.143,1.398c0.143-0.25,0.395-0.752,0.896-0.717s0.572,0.143,0.646,0.393c0.07,0.252,0.717,0.396,1.002,0.035
		c0.287-0.357,0.217-0.859,0.467-1.072C244.945,311.312,244.98,310.487,243.797,310.882"/>
	<path fill="#FFFFFF" d="M243.51,313.606c-0.213,0-0.502-0.072-0.646-0.215c-0.141-0.143-0.357-0.143-0.465,0.18
		c-0.105,0.322-0.607,0.25-0.539,0.932c0.072,0.682,0.217,1.039,0.611,1.184c-0.143,0.357-0.395,1.506,0.143,2.078
		c0.539,0.574,0.502,0.826,1.006,0.789c0.5-0.035,1.184-0.824,1.324-1.111c0.145-0.285,0.252-1.004-0.141-1.326
		c-0.396-0.324-0.434-0.287-0.863-0.609c0.572-0.072,1.043-0.18,1.004-1.184c-0.035-0.969-0.465-1.146-0.895-0.932
		S243.977,313.606,243.51,313.606"/>
	<path fill="#FFFFFF" d="M245.842,321.53c-0.182-0.357-0.646-0.682-0.824-0.324c-0.18,0.359-0.434,0.217-0.646-0.033
		c-0.217-0.252-0.25-0.396-0.502-0.502c-0.25-0.111-0.625-0.227-0.609,0.32c0.035,1.506,0.537,1.543,0.43,2.475
		c-0.109,0.932-0.359,2.689,0.035,3.121c0.396,0.43,1.113-0.217,1.758-1.258C246.127,324.29,246.484,322.821,245.842,321.53"/>
	<path fill="#FFFFFF" d="M243.547,302.099c0.002-0.148,0.18-0.395,0.465-0.037c0.287,0.357,2.875,3.406,2.904,5.988
		c0.037,3.047-0.434,2.689-0.465,3.512c-0.145,3.684,4.338,5.4,4.266,8.82c-0.035,1.58-0.322,1.076-0.539,0.682
		c-0.26-0.479-1.256-1.746-2.473-1.398c-0.502,0.145-0.281,0.18-0.539-0.252c-1.248-2.068-1.371-2.953-1.254-8.352
		C246.02,306.114,243.475,307.513,243.547,302.099"/>
	<path fill="#FFFFFF" d="M251.254,329.991c-1.479,0.795-1.793-0.26-1.9-0.682c-0.035-0.143-0.07-0.465-0.393,0.07
		c-0.324,0.539-1.471,0.754-1.723,0.432c-0.25-0.322-0.422-0.314-0.467-0.645c-0.012-0.102-0.914,0.412-1.414-0.305
		c-0.32-0.457-0.699-0.736,0.053-1.668s1.865-4.445,1.936-5.234c0.072-0.787,0.467-1.469,0.969-1.469s1.1,0.934,1.221,1.686
		c0.105,0.68,0.141,1.539,0.105,2.865c-0.033,1.328-0.178,3.229-0.287,3.623c-0.107,0.393,0,0.143,0.322,0.033
		c0.322-0.105,1.244-0.451,1.65-1.469c0.217-0.537,0.574-0.465,0.932,0.037c0.361,0.502,0.754,1.578,0.252,2.33
		S251.434,330.384,251.254,329.991"/>
	<path fill="#FFFFFF" d="M254.301,327.981c-0.426,0.061-1.002,0.037-0.932,0.646c0.072,0.611,0.359,1.254,0.574,1.506
		c0.217,0.25,0.791-0.035,0.969-0.465C255.092,329.239,255.879,327.769,254.301,327.981"/>
	<path fill="#FFFFFF" d="M258.031,328.271c-0.035-0.432-2.006-0.756-2.043,0.357c-0.037,1.111,0.645,2.365,2.186,1.613
		c0.533,0.598,1.979,0.383,1.938-0.607c0.18,0.645,0.754,1.254,1.434,1.217c0.682-0.035,0.967-0.752,0.609-1.289
		c-0.357-0.539-1.148-1.221-1.434-0.934c-0.289,0.287-0.609,0.324-0.646,0.611c-0.213-0.432-0.748-1.377-1.291-1.291
		C258.102,328.056,258.246,328.017,258.031,328.271"/>
	<path fill="#FFFFFF" d="M262.082,328.45c0.574,0.357,0.932,1.111,1.002,1.684c0.074,0.576,0.396,0.502,0.791,0.465
		c0.393-0.033,1.506,0.252,2.402-1.576s1.506-4.229,1.541-5.232c0.055-1.52-0.307-2.797-1.004-1.4
		c-0.719,1.434-1.146,2.115-1.793,2.977c-0.645,0.861-1.863,2.043-2.293,2.26C262.297,327.839,261.83,328.126,262.082,328.45"/>
	<path fill="#EF4135" d="M259.932,312.317c-1.527-1.945-3.191-3.188-3.586-4.375c-0.789-2.365-0.072-3.012-0.502-4.805
		s-1.576-3.084-2.295-3.588c-0.717-0.5-0.502-0.213-0.859-0.357c-0.717,0.646-2.225,2.152-3.084,1.938
		c-0.635-0.16-0.867-1.27-0.646-2.15c0.145-0.574-0.07-0.646-0.932-0.861s-4.014-1.434-4.086,0.645c-0.072,2.08,0,2.08,1.578,3.514
		c1.576,1.434,4.014,3.301,3.869,6.383c-0.143,3.084-1.002,2.654-1.074,4.016s2.51,1.791,3.227,4.016
		c0.719,2.223,0.072,4.732,0,6.74s2.797,3.941,5.307,3.729c2.51-0.217,0.861-0.645,2.293-0.645c1.436,0,1.867,0.717,2.871,0.285
		c1.004-0.43,1.145-2.008,2.148-3.227s1.938-1.793,2.369-2.725c0.527-1.145,0.953-3.35-1.148-7.027
		c-1.434-2.508-1.221-2.508-0.787-4.877c0.43-2.363,1.504-6.166-2.152-9.68c-2.51-2.41-4.566-1.818-6.168-2.008
		c-1.219-0.143-1.432-0.357-2.006-0.428c-0.574-0.074-0.789,0.643-0.072,0.715s2.008,1.004,2.725,2.367
		c0.568,1.084,0.789,2.723,0.717,3.729c-0.072,1.002-0.145,2.867,0.215,3.873C258.193,308.47,259.67,310.212,259.932,312.317"/>
	<path fill="#EF4135" d="M264.807,300.558c0.574-0.289,0.359-0.646-0.143-1.365c-0.502-0.715-1.865-2.58-2.654-3.584
		s-0.07-1.219,0.432-0.646c0.887,1.016,2.943,1.592,0.572-1.289c1.705,1.023,2.264,0.578,1.004-1.221
		c-1.004-1.432-0.645-0.357,0.215,0.072c0.861,0.43,1.076,0.217,1.363,0.932c0.287,0.719,1.723-0.502,1.004-1.004
		c-0.717-0.502-0.357-0.859-1.219-1.432c1.855,1.854,3.225,1.268,1.363-0.861c1.719,1.26,1.996,0.582,1.074-0.645
		c-0.43-0.576,0.072-0.432-1.074-0.934c-1.148-0.502,0.859-0.07,1.361,0.215c0.502,0.287,0.932,1.363,1.361,1.363
		s0.719-0.789-0.143-1.723c0.645,0.217,1.648,0.934,2.223,1.723c0.574,0.787-0.393,1.111-0.752,0.607
		c-0.072,0.576,0.072,0.504,0.359,1.221c0.285,0.717-0.275,1.063-0.467,0.537c-0.393-1.064-1.787-1.164-1.291,0.107
		c0.5,1.291,0.5,0.824,0.861,1.326c0.357,0.502-0.432,0.789-0.646,0.502c-0.215-0.285-0.43-0.572-0.646,0.072
		c-0.213,0.646,0.23,0.709,0.861,1.434c0.717,0.826,0.428,1.441-0.07,1.148c-1.041-0.609-1.65-0.787-1.221,0.07
		c0.43,0.861,0.217,1.221-0.213,0.719c-0.432-0.502-1.365-0.789-0.791,0.215s1.004,1.432,1.221,2.15
		c0.25,0.838,0.18,0.814-0.719,0.217c-0.645-0.43-1.361-0.646-1.221,0.215c0.24,1.436-0.285,1.291-0.93,1.074
		c-0.287,0.287-0.43,0.287-0.43,0.287L264.807,300.558z"/>
	<path d="M199.301,305.538c1.719-2.004,3.529-5.215,5.059-7.275c-2.113,1.381-3.572,3.654-5.076,5.535
		C198.994,304.155,198.871,306.04,199.301,305.538"/>
	<path fill="#FFFFFF" d="M262.082,285.212c-0.359,0.932-1.146,1.863-1.65,1.863c-0.938,0-1.092-1.602-1.217-2.867
		c0.285-0.502,0.932-1.291,1.721-1.291c0.787,0,1.004,0.072,1.291,0.645c0.771-1.805,3.545-1.822,3.299-0.717
		c1.295-1.295,2.717-0.281,2.578,0.215c1.648-1.059,3.303-0.781,3.014,0.145c1.236-0.58,2.947-0.16,2.654,0.572
		c1.531-1.18,2.291,0.15,2.221,0.359c1.869-0.779,3.799-0.01,4.375,1.721c-0.359,2.15-0.502,3.514-2.008,7.1
		c-1.506,3.584-3.516,6.883-3.943,7.529c-0.432,0.645-1.436,1.004-1.219-0.289c0.215-1.289,1.434-8.604,1.002-10.182
		c0.359-0.574,2.439-2.365,1.723-4.662c-0.432,0.936-1.006,2.369-2.15,2.225c-1.146-0.145-0.791-1.004-0.791-1.434
		c-0.402,0.564-2.32,1.801-2.508-0.359c-1.746,1.588-2.727-0.75-2.727-1.291c0,0-2.248,2.99-3.225,0.932
		C264.234,286.431,262.01,287.147,262.082,285.212"/>
	<path fill="#FFFFFF" d="M267.244,304.069c-0.131-0.363-0.932-0.859-1.074-0.072c-0.143,0.789,0.287,0.719,0.143,1.291
		c0.502-0.07,1.004-0.215,1.076,0c0.07,0.215,0.357,0.287,0.357,0S267.533,304.86,267.244,304.069"/>
	<path fill="#FFFFFF" d="M267.244,306.222c0-0.438-0.43-0.646-0.715-0.43c-0.289,0.213-0.863,0.43-0.502,0.787
		c0.357,0.357,0.213,0.934,0.213,1.221c0,0.285,0.217,0.357,1.004-0.074c0.791-0.428,0.791-0.717,0.502-0.93
		C267.459,306.579,267.244,306.435,267.244,306.222"/>
	<path fill="#FFFFFF" d="M267.174,308.587c-0.203-0.133-0.941-0.375-1.076-0.143c-0.285,0.502-0.574,0.43-0.43,0.932
		s-0.145,0.357,0.285,0.789c0.43,0.43,0.861,0.287,1.221-0.143c0.357-0.434,0.502-0.359,0.502-0.719
		C267.676,308.946,267.389,308.729,267.174,308.587"/>
	<path fill="#FFFFFF" d="M267.676,311.097c-0.084-0.5-0.287-0.859-0.719-0.289c-0.43,0.576-0.572,0.791-1.004,0.719
		c-0.43-0.072-0.285,0.574,0.289,0.719c0.572,0.143,0.498-0.254,0.859-0.072c0.287,0.143,0.574-0.217,0.574-0.502
		C267.676,311.384,267.748,311.526,267.676,311.097"/>
	<path fill="#FFFFFF" d="M266.887,313.175c-0.287,0-0.859,0.072-0.287,0.791c0.574,0.717,0.072,0.215,0.574,0
		c0.504-0.217,0.43-0.574,0-0.719C266.742,313.104,267.244,313.175,266.887,313.175"/>
	<path fill="#FFFFFF" d="M253.549,280.587c-0.18,0.645-1.924,5.33-2.328,6.096c-0.898,1.684-1.76,0.93-1.076-0.469
		c0.68-1.398,1.326-2.33,1.613-2.904C252.043,282.737,253.262,281.124,253.549,280.587"/>
	<path d="M254.912,282.091c-0.219,0.217-0.469,0.289-0.469,0.574c0,0.287-0.141,0.574,0.145,0.502
		c0.289-0.072,0.791-0.287,1.184-0.574c0.395-0.285,0.324-1.004,0.037-1.004S255.018,281.983,254.912,282.091"/>
	<path d="M256.381,279.69c-0.322,0.32-0.752,0.715-1.039,0.787c-0.289,0.072-0.215,0.359-0.324,0.719
		c-0.104,0.35,0.217,0.537,0.541,0.285c0.32-0.25,0.859-0.932,1.072-1.004c0.217-0.072,0.287-0.25,0.145-0.572
		C256.631,279.581,256.525,279.546,256.381,279.69"/>
	<path d="M258.461,279.653c-0.059-0.174-0.395-0.035-0.609,0.215c-0.215,0.252-0.932,1.004-1.254,1.111
		c-0.324,0.109,0.07,0.789,0.07,0.789s-0.107,0.432,0.322,0.252c0.432-0.178,0.936-1.363,1.219-1.471
		c0.289-0.107,0.502-0.43,0.467-0.574C258.639,279.833,258.498,279.763,258.461,279.653"/>
	<path d="M259.609,279.868c-0.23-0.104-0.432,0.322-0.646,0.574c-0.217,0.25-0.502,0.824-0.145,0.861
		c0.359,0.035,1.148-0.432,1.148-0.717C259.967,280.298,260.002,280.048,259.609,279.868"/>
	<path d="M261.33,279.259c-0.324,0-0.824,0-0.969,0.322c-0.145,0.324-0.035,0.609,0,0.826c0.037,0.215,0.539-0.107,0.824-0.145
		c0.289-0.035,0.568,0.104,0.754-0.143c0.105-0.143,0.029-0.717-0.074-0.896C261.738,278.997,261.543,279.259,261.33,279.259"/>
	<path d="M262.352,279.78c-0.119-0.08,0.053-0.271,0.34-0.557c0.287-0.287,0.467-0.43,0.504-0.217
		c0.035,0.217-0.359,0.646-0.504,0.719C262.549,279.798,262.459,279.851,262.352,279.78"/>
	<path d="M262.619,277.253c-0.033-0.289-0.178-1.041-0.824-0.646c-0.643,0.393-1.111,0.682-1.504,0.754
		c-0.395,0.07,0.035,0.896,0.428,0.787C261.113,278.04,262.262,277.288,262.619,277.253"/>
	<path d="M260.361,276.714c0.408,0.092-1.398,0.789-1.65,0.969c-0.25,0.18-0.895-0.432-1.289-0.145
		c-0.396,0.287-0.789,0.43-0.754,0.035c0.035-0.393,0.107-1.576-0.789-0.895c-0.895,0.682-2.51,2.582-2.975,3.154
		c0.104-0.127-0.887-0.254-0.68-0.465c0.822-0.863,1.506-1.795,1.863-2.045c0.357-0.252,0.25-0.609-0.18-0.287
		c-0.43,0.324-2.045,1.363-2.295,1.9c-0.1,0.215-0.768-0.232-0.646-0.395c2.117-2.797,3.049-2.51,3.908-3.512
		c0.322,0.393,0.252,0.68,0.574,0.787s0.646,0.322,1.254,0.215c0.258-0.045,0.109,0.215,0.322,0.287
		c0.217,0.072,0.146-0.035,0.432-0.035c0.287,0,0.072,0.035,0.322,0.107c0.25,0.07,0.072-0.072,0.359-0.035
		c0.287,0.035,0.07,0.072,0.322,0.143c0.25,0.07,0.037-0.037,0.287-0.037c0.252,0,0.072,0.072,0.322,0.107
		c0.252,0.037,0.215-0.07,0.465-0.035C259.787,276.569,260.037,276.642,260.361,276.714"/>
	<path d="M252.867,275.101c-0.428,0.361-1.898,1.361-2.33,1.65c-0.43,0.285-0.537,0.609-0.324,0.859
		c0.217,0.25,0.719,0.107,0.971-0.18c-0.016,0.018,2.404-2.275,2.652-2.33C253.502,275.175,253.156,274.858,252.867,275.101"/>
	<path d="M251.648,274.276c0.193,0.127,1.076,0.25,0.861,0.502s-2.617,1.791-2.797,2.152c0.016-0.033-0.572-0.01-0.357-0.289
		c0.465-0.609,1.492-1.686,1.791-1.9C251.398,274.562,251.541,274.204,251.648,274.276"/>
	<path d="M250.859,273.415c-0.121-0.367-0.322-0.754-0.824-0.322s-2.795,1.938-3.299,2.295c-0.293,0.209,0.859,0.545,0.967,0.502
		c0.361-0.145,2.943-1.541,3.229-1.686C251.219,274.06,250.932,273.63,250.859,273.415"/>
	<path d="M248.242,272.304c0.359,0.072,1.219,0.611,0.934,0.752c-0.287,0.145-1.363,0.861-1.723,1.076
		c-0.096,0.059-0.689-0.213-0.5-0.465C247.166,273.38,248.385,272.806,248.242,272.304"/>
	<path d="M233.328,264.847c-0.865,0-1.004-0.215-1.291-0.43s-0.357,0.285-0.215,0.645c0.145,0.359,0.215,1.004-0.215,1.004
		s-0.502-0.143-1.219,0.432s-0.217,0.07-0.217,0.502c0.861,0.141,2.654,0.072,3.229,0.072s0.357-0.217,0.574-0.719
		C234.188,265.851,234.547,264.847,233.328,264.847"/>
	<path d="M236.125,266.208c-0.438-0.119-0.719,0.863-0.574,1.148c0.145,0.287,0.357-0.072,0.287,0.572
		c-0.072,0.646-0.359,1.004,0.07,1.148s2.369-0.287,3.084-0.215c0.717,0.07,0.717-0.789,0.217-1.219
		C238.707,267.214,237.703,266.64,236.125,266.208"/>
	<path d="M238.922,269.579c-0.994,0.199-2.008,0.072-2.51,0.215c-0.502,0.145-0.934,0.072-0.934,1.076s0.719,0.574,1.721,0.215
		c1.004-0.357,1.723-0.789,1.865-1.004S239.279,269.507,238.922,269.579"/>
	<path d="M240.785,269.866c-0.365,0-0.645-0.072-0.932,0.287s-1.434,1.361-2.223,1.648c0.859-0.145,3.871-0.43,5.234-0.357
		c1.363,0.07,2.15-0.289,1.721-0.719s-0.285-0.932-1.076-0.932C242.723,269.794,241.145,269.866,240.785,269.866"/>
	<path d="M245.232,272.376c0.953-0.318-7.387,0.287-8.318,0.932c-0.932,0.646-1.004,0.861-0.932,1.289
		c0.07,0.434,0.357,0.072,1.004-0.213c0.643-0.287,0.932-0.574,2.867-0.789c-1.578,0.645-7.387,3.584-8.246,4.375
		c-0.859,0.787-1.148,0.715-1.148,1.076c0,0.357-0.141,0.859-0.141,1.145c1.217-0.645,6.596-3.654,9.033-4.803
		S243.725,272.878,245.232,272.376"/>
	<path d="M245.805,272.806c-0.645,0.502-9.107,4.447-10.109,5.521c0.143,0.359,0.143,0.789,0.285,1.004
		c0.861-0.572,10.111-6.094,10.613-6.311C247.096,272.806,246.236,272.948,245.805,272.806"/>
	<path d="M234.691,278.687c0.213,0.357,0.213,0.717,0.357,1.074c-1.004,0.502-4.518,1.938-5.234,2.58
		c0-0.094,0.191-1.049,0.357-1.217C230.746,280.837,234.26,278.901,234.691,278.687"/>
	<path d="M229.742,283.06c-0.143,0.43-0.215,1.291-0.143,1.578c0.43-0.359,4.088-3.299,5.164-4.016
		C234.045,280.979,230.389,282.63,229.742,283.06"/>
	<path d="M229.6,285.642c0.646-0.645,8.963-7.098,10.254-7.672c0.072,0.715,0.145,0.357,0.285,0.643
		c-1.791,1.293-9.463,9.037-9.965,9.752C230.174,287.935,229.527,286.79,229.6,285.642"/>
	<path d="M236.268,283.562c-0.717,0.719-5.02,5.164-5.449,5.736c0.072,0.574,0,1.076,0.285,1.436
		C231.465,289.944,234.834,285.425,236.268,283.562"/>
	<path d="M231.535,291.45c0.43-0.717,8.246-11.33,10.9-13.051c0.285,0,0.574,0.072,1.074,0.072
		c-0.789,0.932-2.367,2.652-3.656,3.729c-1.293,1.074-2.225,2.51-2.297,3.084c-0.068,0.572-0.285,0.787-0.787,1.289
		s-4.518,5.234-4.805,5.592C231.68,292.524,231.535,291.45,231.535,291.45"/>
	<path d="M245.877,274.741c-0.502,0.432-1.721,1.436-2.223,1.793c0.43,0.072,0.645,0.072,0.859,0.215
		c0.504-0.43,1.436-1.576,1.793-1.719C246.092,274.813,246.234,274.886,245.877,274.741"/>
	<path d="M230.818,275.675c-0.859,0.43-6.311,4.088-6.74,4.662c-0.43,0.57-0.072,0.643,0.217,0.502
		c0.285-0.145-0.791,0.857-1.004,1.719c-0.217,0.861-0.361,0.932,0.285,0.287s4.66-3.512,5.521-4.086s0.574-0.145,0.861-0.719
		C230.244,277.466,230.604,276.39,230.818,275.675"/>
	<path d="M229.17,279.546c-0.432,0.287-5.307,3.658-5.881,4.375s-0.357,0.215-0.357,0.502s-0.145,0.502-0.145,0.789
		c0,0.285-0.143,0.215,0.289-0.145c0.43-0.357,5.662-4.445,6.021-4.59C229.455,280.337,229.098,279.833,229.17,279.546"/>
	<path d="M228.953,281.626c-0.859,0.502-5.879,4.016-6.094,4.373c-0.215,0.359-0.359,1.219-0.287,1.436
		c0.072,0.215-0.072,0.143,0.502-0.359s4.875-4.016,5.377-4.23S229.025,281.983,228.953,281.626"/>
	<path d="M225.297,286.216c-0.859,0.574-2.008,1.506-2.152,1.791c-0.141,0.287-0.141,0.217,0.145,0.359
		c0.287,0.143,0.287,0.359,0.502,0.432s-0.072,0.141,0.215-0.217S224.795,286.718,225.297,286.216"/>
	<path d="M228.668,284.351c-0.719,0.502-2.654,1.936-2.869,2.365c-0.215,0.359-1.434,2.297-1.506,2.725l0.217,0.217
		c0,0-0.361,0.787,0.213,0c0.574-0.789,3.371-4.088,3.873-4.303C228.596,285.138,228.668,284.351,228.668,284.351"/>
	<path d="M228.883,286.431c0.033-0.418-3.729,3.441-3.873,3.871c-0.143,0.432,0.072,1.076,1.004,0.861
		c-0.07,0.572,0.072,1.217,0.717,1.361c0.217-0.145,2.08-2.939,2.654-3.441C229.385,288.222,228.811,287.29,228.883,286.431"/>
	<path d="M229.814,290.017c-0.502,0.572-1.863,2.438-1.936,2.867s0.072,0.719,0.502,0.217s1.219-2.01,1.506-2.297L229.814,290.017z"
		/>
	<path d="M230.459,291.665c-0.502,0.645-1.791,2.51-2.008,2.867c0.217,0.287,0.43,0.502,0.574,0.859
		c0.574-0.643,1.578-2.365,1.865-2.436C230.676,292.597,230.459,291.665,230.459,291.665"/>
	<path d="M255.377,267.931c-0.127-0.127-0.287-0.143-0.287,0.18s-0.035,0.537-0.035,0.68c0,0.145,0,0.287,0.215,0.396
		c0.217,0.105,0.861,0.502,1.256,0.787c0.393,0.287,0.287,0.072,0.287-0.252c0-0.322,0.035-0.717,0-0.824
		c-0.037-0.107-0.25-0.18-0.395-0.322S255.486,268.038,255.377,267.931"/>
	<path d="M257.494,269.364c0,0.184-0.15,0.9-0.072,1.004c0.107,0.145,0.285,0.162,0.574,0.375c0.285,0.217,0.447,0.271,0.643,0.379
		c0.201,0.107,0.182-0.145,0.182-0.324c0-0.178,0.018-0.43-0.055-0.574c-0.07-0.143-0.145-0.195-0.322-0.303
		c-0.18-0.109-0.557-0.395-0.662-0.467C257.672,269.382,257.494,269.185,257.494,269.364"/>
	<path d="M273.879,318.339c0.393,0.145,1.256,2.08,1.326,2.582c0.02,0.143-0.068,0.227-0.145,0.215
		c-0.502-0.084-1.326-0.467-1.326-2.439C273.734,318.304,273.879,318.339,273.879,318.339"/>
	<path d="M277.283,313.499c-0.221-0.543-0.967-0.035-0.715,0.322c-0.27-0.178-0.727,0.084-0.539,0.502
		c0.143,0.322,1.363,2.26,1.828,2.762c0.754,0.811,1.445,0.859,2.438,0.465C280.121,317.319,277.672,314.438,277.283,313.499"/>
	<path d="M285.961,296.47c-0.152-0.391-1.076-0.504-1.004,0.285c-0.432,0.145-0.502,0.502-0.432,0.863
		c-0.359,0-0.572,0.43-0.572,0.787c-0.109,0.107-0.711,1.285-1.191,1.719c-0.012,0.506-0.783,2.182-1.139,2.406
		c0.512,0.271-0.609,3.404-0.896,2.758c-0.502,0.143-0.432,0.576-0.432,1.219c0,0.646,0.359,0.145,0.432,0.43
		c0.07,0.287-0.289,0.539-0.791,0.539c-0.5,0-0.824,0.754-1.182,0.609c0,0.359-0.502,0.43-0.861,0.502
		c0,0.359,0.035,0.574,0.252,0.861c0.213,0.285,3.369,3.369,3.803,3.871c0.428,0.502,0.57,0.646,1.002,0.145
		c0.43-0.502,0.861-0.646,1.145-1.004c0.289-0.361-0.213-0.396,1.006-0.969c0.305-0.143,0.621-0.83,1.004-0.502
		c0.5,0.43,1.793-0.43,1.398-0.824c-0.467-0.469-0.145-0.467,0.143-0.682c0.287-0.217,0.574-0.467,1.184-0.25
		c0.479,0.168,0.539,0.07,0.824-0.146c0.287-0.213,0.719-0.535,0.359-0.824c-0.621-0.338,1.262-0.977,1.182-1.039
		c-0.279-0.211,0.441-0.615,0.557-0.492c-0.139-0.146,0.248-0.779,0.557-0.582c-0.098-0.064,0.119-1.297,0.514-1.154
		c-0.418-0.152-0.229-1.828-0.084-1.393C292.453,302.753,286.57,298.036,285.961,296.47"/>
	<path d="M288.076,296.253c-0.203,0.16-0.502,0.25-0.682,0.395c-0.182,0.145-0.432,0.145-0.109,0.395
		c0.322,0.252,1.76,0.969,2.082,1.111s0.465-0.07,0.215-0.25s-1.004-1.4-1.148-1.541
		C288.289,296.218,288.254,296.108,288.076,296.253"/>
	<path d="M282.842,282.378c-0.254,0.168-0.359,0.359-0.539,0.467c-0.178,0.107-0.252,0.217-0.035,0.395
		c0.215,0.18,1.863,2.438,1.863,2.688c0,0.252-0.107,0.287,0,0.574s1.076,2.045,1.184,2.295c0.109,0.252,0.287,0.252,0.467,0
		c0.18-0.25,0.502-0.609,0.719-0.895c0.213-0.289,0.213-0.396,0-0.539c-0.217-0.145-0.504-0.465-0.361-1.039
		c0.105-0.42,0-0.611-0.285-0.861c-0.289-0.252-2.654-2.834-2.799-3.012C282.914,282.271,282.949,282.308,282.842,282.378"/>
	<path d="M284.131,281.626c-0.137,0.137-0.68,0.285-0.43,0.574c0.252,0.285,2.654,2.76,2.799,3.117
		c0.141,0.361,0.43,0.217,0.57,0.072c0.145-0.145,0.719-0.574,0.934-0.717s0.322-0.322,0.107-0.502
		c-0.217-0.18-3.012-2.797-3.262-2.902c-0.252-0.109-0.289-0.109-0.43,0C284.275,281.374,284.238,281.519,284.131,281.626"/>
	<path d="M275.42,280.64c-0.063,0.182,0.035,0.34,0.072,0.52c0.035,0.18,0.314,0.193,0.285-0.035c-0.033-0.285,0-0.252-0.07-0.357
		C275.633,280.657,275.455,280.532,275.42,280.64"/>
	<path d="M276.926,280.657c-0.156,0.131-0.217,0.395-0.072,0.574c0.145,0.178,0.502,0.572,0.752,0.752
		c0.252,0.182,0.287,0.252,0.502,0.072c0.217-0.18,0.18-0.393,0-0.574c-0.18-0.18-0.607-0.574-0.717-0.682
		C277.283,280.694,277.139,280.478,276.926,280.657"/>
	<path d="M278.467,280.587c-0.322,0.02-0.43,0.252-0.143,0.465c0.285,0.217,0.609,0.611,0.859,0.791
		c0.252,0.178,0.217,0.285,0.607,0.213c0.396-0.072,0.469-0.252,0.324-0.359c-0.143-0.105-0.715-0.752-0.895-0.857
		C279.039,280.728,279.039,280.55,278.467,280.587"/>
	<path d="M279.936,280.872c-0.129-0.162-0.393-0.465-0.033-0.465c0.357,0,1.219-0.217,1.504-0.217c0.289,0,0.289-0.07,0.541,0.18
		c0.25,0.25,0.48,0.65,0.643,0.934c0.145,0.252,0.178,0.43-0.215,0.465c-0.395,0.037-0.752,0.072-1.004,0.217
		c-0.25,0.143-0.395,0.105-0.574-0.109C280.619,281.661,280.08,281.054,279.936,280.872"/>
	<path d="M283.348,280.694c0-0.197,0.156-0.357,0.354-0.357c0.195,0,0.355,0.16,0.355,0.357c0,0.195-0.16,0.355-0.355,0.355
		C283.504,281.05,283.348,280.89,283.348,280.694"/>
	<path d="M291.34,287.47c0.076,0.072-0.572,0.107-0.863,0.107c-0.213,0-0.105,0-0.105,0.18c0,0.178,0.25,0.322,0.178,0.609
		s-0.252,0.287-0.252,0.572c0,0.289-0.033,0.324,0.252,0.502c0.285,0.182,2.797,1.578,3.441,2.295
		c0.645,0.719,0.574,0.537,1.041,0.646c0.465,0.107,0.859,0.072,0.859-0.18c0-0.25-0.143-0.717-0.537-1.076
		S291.697,287.794,291.34,287.47"/>
	<path d="M291.445,284.708c-0.215,0-0.467,0.072-0.43,0.322c-0.18,0.109-0.646,0.361-0.357,0.719
		c0.285,0.357,3.691,3.584,4.156,3.943c0.467,0.359,1.293,0.359,0.754-0.215c0.752,0.252,1.83-0.145,1.148-0.646
		s-4.59-3.729-4.842-3.906C291.625,284.745,291.625,284.708,291.445,284.708"/>
	<path d="M299.584,287.827c-0.264,0.266-0.105,0.324,0.215,0.502c0.322,0.182,0.934,0.469,1.758,0.574
		c-0.109-0.215-1.328-1.111-1.543-1.146C299.799,287.72,299.691,287.72,299.584,287.827"/>
	<path d="M299.297,285.999c-0.174-0.057-0.393,0.072-0.287,0.287c0.107,0.215-0.035,0.215,0.107,0.43
		c0.145,0.217,0.072,0.252,0.467,0.324s1.613,0.322,1.863,0.465c0.252,0.145,0.18,0,0.252-0.213
		c0.072-0.217,0.145-0.432-0.072-0.539C301.414,286.646,299.729,286.144,299.297,285.999"/>
	<path d="M298.76,284.315c-0.215-0.045-0.287,0.035-0.25,0.143c0.035,0.107,0,0.504,0,0.682c0,0.18-0.145,0.18,0.213,0.215
		c0.361,0.037,2.225,0.609,2.547,0.789c0.324,0.18,0.43,0.072,0.43-0.145c0-0.215-0.072-0.467-0.105-0.574
		c-0.037-0.105-0.146-0.178-0.396-0.213C300.947,285.175,298.939,284.351,298.76,284.315"/>
	<path d="M294.529,282.415c-0.375-0.125-2.26-0.467-2.545-0.611c-0.287-0.143-0.467-0.178-0.432,0.145s0.324,0.467,0.287,0.859
		c-0.035,0.395-0.143,0.719,0.145,0.969c0.285,0.252,2.615,1.471,3.26,1.863c0.646,0.395,0.971-0.141,0.576-0.537
		c-0.396-0.395-1.326-0.789-0.969-0.969c0.359-0.178,0.107-0.141,0.037-0.428c-0.072-0.287,0.25-0.359,0.07-0.898
		C294.877,282.56,295.066,282.595,294.529,282.415"/>
	<path d="M292.916,278.937c-0.287,0.072-0.574,0.072-0.754,0.502c-0.178,0.43-0.357,0.502-0.43,0.754
		c-0.072,0.25-0.072,0.43,0.287,0.572c0.359,0.145,2.508,0.646,3.191,0.969c0.107-0.18,0.357-1.291-0.502-1.541
		c-0.861-0.252-0.934-0.141-0.934-0.861c0-0.287-0.215-0.322-0.465-0.359C293.061,278.937,293.023,278.937,292.916,278.937"/>
	<path d="M284.455,279.868c-0.43-0.053,0.645,0.395,0.715,0.791c0.396,0.463,3.299,2.865,3.514,3.045
		c0.217,0.182,0.252,0.109,0.361-0.035c0.105-0.145,0.322-0.287,0.465-0.467c0.102-0.123,0.088-0.152-0.18-0.357
		c-0.465-0.357-3.387-2.369-3.729-2.582C285.314,280.085,284.74,279.905,284.455,279.868"/>
	<path d="M286.533,280.013c0.43,0.285,2.869,1.791,3.012,1.936c0.193,0.191,0.383,0.383,0.467-0.035
		c0.037-0.182,0.145-0.322,0.145-0.467c0-0.135,0.119-0.367-0.145-0.395C289.654,281.017,287.609,280.192,286.533,280.013"/>
	<path d="M286.211,278.542c0.455,0.555,1.889,1.406,3.443,1.688c1.066,0.189,1.145,0.105,1.254-0.145
		c0.107-0.252,0.215-0.682,0.287-0.861s0.287-0.359-0.217-0.322C290.479,278.937,288.793,279.153,286.211,278.542"/>
	<path d="M291.48,277.755c0.037,0.393,0.109,0.572-0.213,0.572c-0.324,0-4.055,0.037-4.699-0.682c1.4,0.217,4.217-0.107,4.627-0.107
		C291.518,277.538,291.48,277.755,291.48,277.755"/>
	<path d="M292.916,277.503c-0.504-0.047-0.502-0.035-0.502,0.252c0,0.5,0,0.322,0.467,0.285c0.32-0.025,0.789-0.035,0.789-0.18
		C293.67,277.718,293.273,277.534,292.916,277.503"/>
	<path d="M289.295,275.89c-0.41,0-1.041-0.072-1.111,0.215c-0.07,0.281-0.107,0.539-0.072,0.754
		c0.035,0.213,0.035,0.465,0.322,0.393s2.402-0.143,2.619-0.107c0.215,0.035,0.428-0.143,0.428-0.357v-0.717
		c0-0.145,0.037-0.324-0.357-0.324S289.51,275.89,289.295,275.89"/>
	<path d="M281.191,278.614c-0.107,0.18-0.145,0.359,0.035,0.43c0.18,0.072,0.252,0.145,0.502,0.215c0.254,0.072,0.289,0,0.289,0
		l0.07-0.357l-0.717-0.252L281.191,278.614z"/>
	<path d="M283.559,276.462c3.455-0.537,5.27-1.506,6.059-1.396c1.139,0.156,1.865-0.934,1.865-1.004c0-0.072,0-0.432-0.467-0.215
		c-0.465,0.215-3.479,0.322-4.158,0.25c-0.502,0.395-2.51,1.793-3.191,1.863C282.984,276.032,283.416,276.485,283.559,276.462"/>
	<path d="M287.25,272.663c-0.172-0.051-0.502-0.072-0.43,0.213c0.072,0.289,0,0.361-0.035,0.574
		c-0.037,0.217,0.143,0.252,0.465,0.252c2.871,0,3.412-0.361,3.945-0.537c0.215-0.072,0.357-0.107,0.322-0.43
		c-0.021-0.182-0.086-0.648-0.322-0.539c-0.539,0.25-1.041,0.43-1.648,0.502C289.018,272.761,287.5,272.735,287.25,272.663"/>
	<path d="M282.195,276.319c0.281-0.055,0.287,0.072,0.287,0.252c0,0.178,0,0.43-0.143,0.537c-0.145,0.107-0.178,0.18-0.43,0.035
		c-0.252-0.143-0.395-0.143-0.287-0.285C281.729,276.714,282.018,276.356,282.195,276.319"/>
	<path d="M280.26,276.247c0.178,0,0.215,0.037,0.285,0.182c0.072,0.141,0.109,0.07,0.182,0.285c0.07,0.217,0.035,0.395-0.182,0.395
		c-0.213,0-0.5,0-0.5-0.145C280.045,276.821,279.936,276.247,280.26,276.247"/>
	<path d="M278.396,275.567c0.143,0.072,0.75,0.18,0.75,0.393c0,0.217,0,0.467-0.213,0.467c-0.217,0-0.574,0-0.609-0.145
		C278.287,276.142,278.396,275.567,278.396,275.567"/>
	<path d="M290.836,270.261c0.203-0.076,0.359-0.037,0.395,0.143c0.035,0.178,0,0.646,0,0.824c0,0.18-0.035,0.396-0.287,0.467
		c-0.102,0.029-3.193,0.342-4.23-0.037c-0.674-0.244-0.896,0.145-1.111,0.182c-0.051,0.008-0.324-0.072-0.285-0.287
		c0.033-0.215-0.145-0.789-0.611-0.719c-0.465,0.072-0.502-0.752-0.213-0.895c0.283-0.145,1.074-0.217,1.791-0.145
		c0.719,0.072,0.861,0.252,0.789,0.574c0.178,0.107,1.256,0.395,1.863,0.357C289.545,270.69,290.549,270.368,290.836,270.261"/>
	<path d="M284.348,271.444c0-0.143-0.217-0.322-0.469-0.254c-0.248,0.072-0.75,0-0.965,0c-0.217,0-0.506,0.111-0.506,0.289v0.574
		c0,0.213,0.254,0.322,0.467,0.322c0.217,0,0.861-0.072,1.078-0.072c0.215,0,0.43-0.07,0.43-0.215
		C284.383,271.946,284.348,271.552,284.348,271.444"/>
	<path d="M282.877,272.913c-0.021-0.141-0.143-0.252-0.467-0.287c-0.322-0.035-0.969-0.035-1.182,0.107
		c-0.217,0.145-0.072,0.646,0.072,0.646c0.141,0,0.787-0.18,0.895-0.072s0.215,0.357,0.361,0.322
		C282.697,273.597,282.947,273.415,282.877,272.913"/>
	<path d="M280.797,273.737c-0.436,0-1.039,0.072-1.254,0.072c-0.217,0-0.324,0.18-0.357,0.357c-0.039,0.182,1.289,0.289,1.504,0.467
		c0.215,0.18,0.287,0.107,0.252-0.107C280.904,274.312,280.941,273.737,280.797,273.737"/>
	<path d="M290.656,268.056c0.252-0.174,0.627-0.322,0.611,0.145c-0.02,0.465,0,0.627-0.037,0.787
		c-0.035,0.162-0.072,0.217-0.449,0.197c-0.375-0.018-1.631-0.125-1.828-0.053c-0.195,0.072-0.572-0.162-0.322-0.359
		C288.883,268.575,290.424,268.218,290.656,268.056"/>
	<path d="M290.137,267.069c-0.205,0.082-1.955-0.018-2.168-0.09c-0.162,0.215-1.004,0.896-1.434,0.934
		c-0.43,0.035-0.451,0-0.43,0.252c0.018,0.25-0.361,0.93,0.033,1.02c0.396,0.09,1.436-0.105,1.74-0.305
		c0.303-0.197,0.018-0.465,0.824-0.842c0.459-0.215,1.291-0.646,1.451-0.719C290.25,267.278,290.16,267.06,290.137,267.069"/>
	<path d="M284.061,267.249c-0.072-0.109-0.717,0.164-0.717-0.359c0-0.215-0.826-0.717-0.826,0.789
		c-0.285-0.215-0.859,0.035-0.68,0.932c0.18,0.898,0.824,0.969,0.896,0.43c0.068-0.535,0.178-0.607,0.178-0.715
		c0.414,0.518,0.805,0.365,1.006-0.43C283.988,267.608,284.273,267.571,284.061,267.249"/>
	<path d="M281.012,268.897c0.107-0.18,0.324-0.393,0.359-0.035s0.07,0.719,0.215,0.787c0.145,0.072,0.035,0.791-0.18,0.791
		s-0.609-0.357-0.572-0.646C280.869,269.509,281.012,268.897,281.012,268.897"/>
	<path fill="url(#colour1)" d="M232.449,253.071c0.975,0.412,3.029,0.93,3.029,0.93c1.434,1.361,4.518,4.967,6.023,7.188
		c0.547,0.809,1.074,2.225,1.074,3.084c-0.213-0.645-1.004-1.793-1.574-2.725c-0.574-0.934-6.723-7.402-8.016-8.334
		c0.861,1.576,5.219,5.896,6.078,7.834c-1.219-1.506-6.238-6.168-7.744-7.816c-0.266-0.293-1.449-1.619-1.953-2.135
		C229.367,251.097,229.813,251.96,232.449,253.071"/>
	<path fill="url(#colour1)" d="M199.197,256.601c-0.502,0.502-1.436,1.004-1.721,1.361c-0.287,0.361,0.285,0.217-0.145,0.719
		s-0.646,0.574-0.859,0.787c-0.217,0.217,0.502,0.217,0.143,0.574s-1.146,1.578-1.436,2.08c-0.285,0.502,0.359,0.646-0.859,2.008
		c-0.705,0.789,0.43,0.572-0.859,2.439c-0.73,1.053-0.072,1.646-0.502,2.58s0.43,0.5,0.213,1.506
		c-0.133,0.631,0.217,0.787,0.574,0.215c0.359-0.574-0.141-1.506,0.145-2.008s2.008-3.441,2.51-4.23s-0.287-0.932,0.215-1.936
		s0.287-1.434,0.932-1.938c0.646-0.5-0.07-1.074,0.502-1.865c0.574-0.787,1.361-2.221,1.361-2.221S199.41,256.386,199.197,256.601"
		/>
	<path d="M261.51,273.165c0.273,0.092,0.824,0.107,1.002,0.143c0.18,0.037,0.107,0.252,0.074,0.359
		c-0.039,0.107-0.111,0.285-0.145,0.43c-0.035,0.145-0.145,0.107-0.357,0.072c-0.217-0.037-0.467-0.18-0.646-0.18
		s-0.252-0.037-0.18-0.178c0.072-0.145,0-0.504,0.035-0.611C261.33,273.093,261.4,273.128,261.51,273.165"/>
	<path fill="#FFFFFF" d="M275.342,249.216c0-0.281,0.229-0.51,0.508-0.51c0.281,0,0.506,0.229,0.506,0.51
		c0,0.279-0.225,0.508-0.506,0.508C275.57,249.724,275.342,249.495,275.342,249.216"/>
	<path fill="#FFFFFF" d="M238.486,246.562c0-0.223,0.227-0.406,0.508-0.406c0.279,0,0.506,0.184,0.506,0.406
		c0,0.225-0.227,0.406-0.506,0.406C238.713,246.968,238.486,246.786,238.486,246.562"/>
	<path fill="#FBEF66" d="M277.928,248.354c0.588,0.391,1.65,0.861,1.938,1.363c0.287,0.5,0.43,1.002-0.072,1.576
		c-0.5,0.574-1.002,1.434-1.648,1.65c-0.43,0.143-0.717,0.143-1.293-0.145c-0.572-0.285-0.859-0.932-0.93-1.506
		c0.574,0,1.004-0.145,1.506-0.645c0.5-0.502,0.646-1.506,0.572-1.865C277.928,248.427,277.715,248.212,277.928,248.354"/>
	<path fill="#FFFFFF" d="M281.656,249.501c0.246-0.164,0.432,0.072,0.574,0.43c0.145,0.361,1.076,1.076,1.648,1.221
		c0.576,0.143,0.359,0.645,0.145,0.932s-1.074,0.861-1.074,0.502s-0.574-0.43-0.574,0.072s0,1.363,0.287,1.721s0.572,0.646,0,0.859
		c0.037-0.014-0.613-0.068-1.146,0.646c-0.432,0.574-1.076,0.072-1.795,0.145c-0.715,0.07-0.574,0.43-1.217,0.285
		c-0.646-0.145-0.072-0.357-0.359-0.574c-0.287-0.213-0.574,0.217-0.861-0.143c-0.285-0.359-0.072-0.789,0.145-1.219
		c0.574,0.215,1.219,0.357,1.936-0.215c0.717-0.574,1.506-0.861,1.936-1.291s0.145-2.367,0.145-2.869
		S281.443,249.646,281.656,249.501"/>
	<path d="M277.248,237.993c0.18,0.107,0.43,0.43,0.502,0.574c-0.395,0.322-0.717,1.217-0.896,1.506
		C276.891,239.606,277.033,238.315,277.248,237.993"/>
	<path d="M278.252,238.997c0.072,0.107,0.287,0.467,0.395,0.574c-0.215,0.178-1.398,1.613-1.576,1.863
		c-0.182,0.252-0.217,0.072-0.361-0.035C276.854,241.185,277.461,239.499,278.252,238.997"/>
	<path d="M279.219,240.036c-0.252,0.25-2.795,2.869-2.975,3.121c0.072,0.25,0.393,0.393,0.465,0.607
		c0.217-0.178,2.834-2.688,3.227-2.867C279.83,240.827,279.219,240.036,279.219,240.036"/>
	<path d="M280.545,241.399c-0.285,0.25-1.578,1.182-1.971,1.648c1.793-1.146,2.152-1.074,2.438-1.182
		C280.98,241.851,280.559,241.509,280.545,241.399"/>
	<path d="M281.516,242.546c-0.539,0.215-1.688,0.824-2.01,1.076c-0.07,0.287-0.609,1.219-0.643,1.576
		c-0.037,0.359,0.25,0.289,0.609,0.289c0.355,0,0.32-0.109,0.465-0.252c0.143-0.143,1.65-1.865,1.936-2.006
		C281.873,243.229,281.693,242.905,281.516,242.546"/>
	<path d="M282.59,243.909c-0.287,0.285-1.973,1.9-2.188,2.115c-0.068,0.068,0.535,0.451,0.547,0.447
		c0.195-0.064,0.629-0.594,0.852-0.734c0.037,0.215,0.072,0.43,0.789,0.322s0.824-0.25,0.969-0.502c0.143-0.25,0-0.465-0.359-0.25
		c0.502-0.109,0.037-1.041-0.322-0.861C283.414,244.122,282.842,243.657,282.59,243.909"/>
	<path fill="#FBEF66" d="M236.053,246.202c0.287,0,0.357,0.072,0.357,0.502c0,0.432,0.719,2.727,2.654,2.582
		c1.938-0.143,2.295-1.506,2.295-1.863s-0.072-0.357,0.502-0.145c0.574,0.217,0.859,0.289,1.148,0.289
		c0.285,0,0.57,0.141,0.43,0.932c-0.145,0.787-0.863,3.227-4.375,3.01c-3.514-0.213-5.092-2.365-4.518-4.805
		c0.125-0.525,0.354-0.502,0.646-0.502H236.053z"/>
	<path d="M237.857,246.202c0-0.223,0.092-0.404,0.203-0.404c0.113,0,0.203,0.182,0.203,0.404c0,0.225-0.09,0.406-0.203,0.406
		C237.949,246.608,237.857,246.427,237.857,246.202"/>
	<path fill="#FFFFFF" d="M244.479,249.036c-0.145-0.037-0.395-0.145-0.43,0.18c-0.037,0.322,0.072,0.285,0.395,0.357
		c0.32,0.072,0.43-0.072,0.682-0.072c0.25,0,0.035-0.393,0.035-0.393L244.479,249.036z"/>
	<path fill="#FFFFFF" d="M247.346,249.718c-0.254,0-0.252,0.213-0.252,0.502c0,0.285-0.141,0.43,0.289,0.43s0.752,0,0.752-0.217
		c0-0.213-0.25-0.43-0.287-0.574C247.813,249.718,247.525,249.718,247.346,249.718"/>
	<path fill="url(#colour1)" d="M251.398,252.657c-0.039-0.156-0.145-0.322-0.322-0.182c-0.18,0.145-1.004,0.434-1.326,0.254
		c-0.324-0.182-0.504-0.037-0.432,0.143c0.072,0.178,0.252,0.43,0,0.539c-0.25,0.105-0.287,0.105-0.539-0.217
		c-0.25-0.322-0.57-0.18-1.004-0.035c-0.43,0.143-1.182,0.357-1.326,0.215c-0.143-0.143-0.357-0.252-0.465,0.107
		s0.072,0.824,0.107,1.146s0.107,0.217,0.502,0.43c0.395,0.217,1.004,0.646,1.291,0.539s0.18-0.859,0.465-1.148
		c0.289-0.285,0.395-0.25,0.682-0.178s0.322,0.107,0.682-0.072s1.291-0.646,1.576-0.859
		C251.578,253.122,251.434,252.8,251.398,252.657"/>
	<path d="M245.105,241.147c-0.4-0.023-1.506-0.715-2.061-3.369c-0.094-0.439,0.643,0.125-0.037-1.883
		c-0.209-0.623,0.771-0.77,0.844-1.166c0.07-0.395,0-0.68,0.305-0.77c0.303-0.09,0.646-0.658,0.824-0.646
		c0.252,0.018,0.412,0.664,0.646,1.021c0.23,0.359-0.037,0.684-0.217,0.879c-0.178,0.197-0.555,1.059-0.357,1.434
		c0.197,0.379-0.539,0.252-0.557,0.609c-0.018,0.361,0.307,0.594,0.287,0.934c-0.018,0.342,0.18,1.668,0.52,2.133
		C245.645,240.79,245.734,241.185,245.105,241.147"/>
	<path d="M250.824,239.392c-0.469,0-0.502,0.072-0.717,0.357c-0.215,0.289-1.039,1.148-1.256,1.828
		c-0.215,0.682-0.107,0.539,0.109,0.826c0.215,0.287,0.68,0.896,0.787,1.148c0.107,0.25,0.502,0.322,0.896,0.105
		c0.396-0.215,1.541-0.609,1.471-0.967c-0.07-0.359-0.572-0.072-0.717-0.287s0-1.221,0-1.578s-0.43-0.18-0.395-0.537
		C251.041,239.929,251.254,239.392,250.824,239.392"/>
	<path d="M252.475,244.841c-0.395,0.072-1.578-0.322-2.008-0.574c-0.43-0.25-0.18-0.072-0.324,0.145
		c-0.143,0.215-0.467,0.502-0.467,0.824c0,0.803,1.506,1.578,2.08,1.541c0.574-0.035,0.791-0.43,0.754-0.967
		C252.475,245.271,252.475,244.983,252.475,244.841"/>
	<path d="M262.369,236.058c1.168-0.068,1.414,0.498,1.898,1.506c0.504,1.039,1.221,1.148,1.221,1.756
		c0.25,0.324,0.502,1.004,0.502,1.398s-0.682,0.287-1.111,0.215s-0.357,0-0.322,0.287s0,1.4,0.035,1.793
		c0.432,0.359,2.006,1.291,2.475,1.971c0.467,0.682,0.824,1.221,0.932,1.975c-0.004-0.016,0.301,0.68-0.359,0.68
		c-0.645,0-0.752-0.143-1.254-0.109c-0.502,0.037-0.502-0.25-0.717-0.68s-0.682-2.188-1.4-2.582
		c-0.715-0.393-1.164-0.494-1.254-0.502c-0.078-0.008-0.252-0.502-0.285-0.824c-0.035-0.32-0.826-3.012,0.43-4.947
		C263.158,237.671,262.549,236.632,262.369,236.058"/>
	<path d="M268.715,249.681c0.25-0.035,0.646,0,0.859,0.611c0.217,0.607,0.574,0.105,0.861,0.357c0.287,0.25,0.754,0.682,0.645,1.613
		c-0.105,0.93-0.143,0.574-0.357,1.002c-0.217,0.432,0.072,0.574-0.467,0.611c-0.537,0.035-0.645-0.143-0.537-0.467
		c0.107-0.322,0.107-2.15-0.322-2.33c-0.432-0.18-0.682-0.145-0.719-0.609c-0.035-0.467-0.213-0.611-0.07-0.717"/>
	<path d="M265.523,254.556c0.322,0.109,1.113,0.289,1.471,0.217s0.43-0.035,0.43,0.178c0,0.217,0.18,1.004,0.682,1.184
		c0.502,0.182,0.322,0.467-0.035,0.467c-0.359,0-1.613,0.322-2.475-1.471C265.287,254.485,265.523,254.556,265.523,254.556"/>
	<path d="M266.348,258.286c0.059-0.029,1.293,0.006,1.328,0.035c0.529,0.441,0.789,0.787,1.074,0.859
		c0.289,0.072,0.324,0.467,0.217,0.754c-0.109,0.287-0.289,0.432-0.859,0.432c-0.574,0-1.543-0.824-1.723-1.148
		c-0.18-0.322-0.43-0.611-0.287-0.719C266.24,258.394,266.205,258.356,266.348,258.286"/>
	<path fill="url(#colour1)" d="M257.314,262.122c-0.211-0.094-0.395,0.574-0.574,0.715c-0.178,0.145-0.645,0.396-0.539,0.863
		c0.109,0.465,0.576,1.326,1.184,1.648c0.611,0.322,0.574,0.035,0.396-0.287c-0.18-0.322-0.359-1.65-0.287-1.973
		C257.564,262.769,257.637,262.267,257.314,262.122"/>
	<path d="M260.576,262.302c-0.303-0.111-0.502,0.18-0.465,0.43c0.035,0.252-0.037,1.076-0.324,1.398
		c-0.303,0.342,0.246,0.818,0.252,0.824c0.285,0.287,2.58,1.543,3.227,2.223c0.645,0.682,1.219,1.041,1.469,1.254
		c0.252,0.217,0.682,0.469,0.861,0.145c0.18-0.322,0.754-0.752,0.572-2.078c-0.178-1.328-0.32-1.543-1.145-2.225
		s-2.33-1.828-2.977-2.008C261.4,262.087,260.971,262.444,260.576,262.302"/>
	<path d="M267.244,264.847c0.791,0.035,1.004,0.145,1.291,0.215c0.287,0.072,0.359,0.107,0.539,0.467
		c0.178,0.357,0.391,0.746,0.357,1.004c-0.035,0.287,0,0.502-0.393,0.539c-0.396,0.035-1.328,0.105-1.293-0.396
		C267.783,266.173,267.566,265.958,267.244,264.847"/>
	<path d="M269.324,264.38c0.219-0.061,0.537,0.322,0.789,0.574c0.25,0.25,0.537,0.539,0.25,0.68
		c-0.285,0.145-0.572,0.072-0.715-0.035c-0.145-0.105-0.324-0.502-0.469-0.787C269.037,264.524,269.074,264.452,269.324,264.38"/>
	<path d="M270.543,266.388c0.363,0.047,0.469,0,0.537,0.322c0.072,0.324,0.072,0.502,0.109,0.791c0.035,0.285,0,0.607-0.289,0.607
		c-0.285,0-0.357-0.035-0.572-0.072c-0.215-0.033-0.107-0.25-0.143-0.395c-0.037-0.141-0.322-0.502-0.252-0.68
		c0.074-0.18,0.18-0.215,0.287-0.357C270.328,266.46,270.258,266.353,270.543,266.388"/>
	<path d="M290.799,258.071c0.148-0.037,0.324,0.252,0.43,0.43c-0.357,0.18-1.396,0.682-1.611,0.896
		c-0.18-0.25-0.25-0.109-0.43-0.359C289.613,258.626,290.361,258.181,290.799,258.071"/>
	<path d="M291.373,258.931c0.002,0.002-1.502,0.809-1.541,0.861c0.145,0.215,0.145,0.32,0.18,0.537
		c0.287-0.18,1.184-0.787,1.506-0.896C291.482,259.253,291.445,259.11,291.373,258.931"/>
	<path d="M291.695,259.972c0.109,0.32,0.182,0.393,0.289,0.609c-0.252,0.105-1.113,0.752-1.365,0.859
		c-0.105-0.145-0.178-0.502-0.285-0.646C290.586,260.653,291.482,260.114,291.695,259.972"/>
	<path d="M288.398,259.54c0.145,0.145,0.287,0.252,0.395,0.322c-0.322,0.18-1.326,0.646-1.543,0.932
		C287.607,260.042,287.969,259.792,288.398,259.54"/>
	<path d="M289.043,260.294c0.072,0.143,0.072,0.18,0.109,0.357c-0.217,0.217-1.793,0.932-2.225,1.543
		c-0.105-0.182,0.074-0.037,0.035-0.287C287.395,261.405,288.793,260.329,289.043,260.294"/>
	<path d="M289.33,261.298c-0.059,0.021-0.016,0.309,0.143,0.682c-0.285,0.141-2.365,1.469-2.795,1.971c0-0.223-0.025-0.805,0-0.826
		C287.07,262.804,288.938,261.44,289.33,261.298"/>
	<path fill="url(#colour1)" d="M268.248,235.448c-0.303-0.607-1.146-1.936-2.15-1.578s-0.432-0.215-1.436-0.215s-0.357,0.143-1.004,0.359
		c0.863,0.572,2.369,1.646,2.871,2.078s0.285,0.861,0.502,1.291c0.213,0.43,1.648,1.578,1.504,3.084
		c-0.143,1.504-0.072,1.361-0.215,1.648c0.73,1.41,1.23-0.746,2.08,0.215c-0.287-0.43-1.076-3.084-1.506-4.016
		c-0.432-0.932-0.432-0.43-0.934-0.646c-0.215-0.502-0.717-2.08-0.787-2.438c-0.072-0.357,0-0.213,0.215-0.213
		S268.32,235.589,268.248,235.448"/>
	<path d="M243.438,314.108c-0.395,0.064-0.465-0.357-0.715-0.18c-0.252,0.18-0.361,0.502-0.145,0.754
		c0.215,0.25,0.467,0.465,0.896,0.428c0.43-0.033,0.787-0.355,0.787-0.645c0-0.285-0.07-0.752-0.357-0.572
		C243.619,314.073,243.654,314.073,243.438,314.108"/>
	<path d="M244.658,322.05c0.395,0.252,0.357,0.34,0.285,1.094c-0.072,0.752,0.145,1.076-0.141,1.398
		c-0.01,0.008-0.461,0.063-0.574-0.359c-0.109-0.393,0.107-0.682,0.07-1.006c-0.035-0.32-0.107-0.715-0.143-0.857
		C244.119,322.175,244.369,321.872,244.658,322.05"/>
</g>
</svg>
