<?xml version="1.0" encoding="utf-8"?>
<!-- Generator: Adobe Illustrator 14.0.0, SVG Export Plug-In . SVG Version: 6.00 Build 43363)  -->
<!DOCTYPE svg PUBLIC "-//W3C//DTD SVG 1.0//EN" "http://www.w3.org/TR/2001/REC-SVG-20010904/DTD/svg10.dtd">
<svg version="1.0" xmlns="http://www.w3.org/2000/svg" xmlns:xlink="http://www.w3.org/1999/xlink" x="0px" y="0px" width="800px"
	 height="600px" viewBox="0 0 800 600" enable-background="new 0 0 800 600" xml:space="preserve">
<defs>
   <linearGradient id="colour1">
     <stop offset="100%" stop-color="#DB0000"/>
   </linearGradient> 
 </defs>
<g id="Layer_1">
</g>
<g id="Layer_2">
	<path fill="url(#colour1)" d="M128.724,148h20.667c0,0,2-7.333,5.333-8c0,0-3.667-3.333,6-7s24,1.333,21.667,18.333l5.667,3.333h-7
		c0,0-5,13-15.333,15.667c0,0,9,6.667,14,5.667s5.333-6.333,5.333-6.333l16.333,1.667l0.667-2.333l26,4.333V171c0,0,5-1,5.333-2
		s-6.667-9-5-9.333s12.667,4,12.667,4s-5.334-5.333-3.667-7.333c0,0,28.333,21.333,31.333,22.667s2.667,9,4,10
		s32.667,29.666,30.667,32.333s-0.333,8.668-15,7.334c0,0-1.333-3.001-4.333-6.334s-23-5.332-28.333-6.666s-10.333-1.667-13-4.667
		s-3.667-4.999-22.333-4.333l-9.333-11h-2.667c0,0-14.333-10-16.333-12s-4-3-3.333-0.667s4.333,5.667,1.333,5
		s-10.667-5.667-10.333-3.333s5.667,7.667,5.667,7.667s-23.666-2.333-31.333-7l0.667,4.667h-10.333c0,0-3-5.333-7-2
		s-3.333,4.333-4.667,2s-5.333-6.667-5.333-6.667s4.333-6.667,7.333-9.333s0.333-1.333,0.333-1.333l5.667,1.333l-5-3
		c0,0,3-13.333-6.667-20.667L128.724,148z"/>
	<g>
		<g>
			<path fill="url(#colour1)" d="M112.401,294.576h17.047l-1.609,5.703h-0.563c0.021-0.302,0.031-0.567,0.031-0.797
				c0-1.083-0.318-1.924-0.953-2.523c-0.636-0.599-1.708-0.939-3.219-1.023l-4.719,15.954c-0.261,0.885-0.391,1.541-0.391,1.969
				c0,0.396,0.161,0.711,0.484,0.945c0.323,0.234,0.979,0.361,1.969,0.383l-0.141,0.578h-10.516l0.188-0.578
				c1.073,0,1.854-0.201,2.344-0.602c0.489-0.4,0.938-1.299,1.344-2.695l4.719-15.954c-1.625,0.053-2.984,0.406-4.078,1.063
				s-2.094,1.75-3,3.281h-0.609L112.401,294.576z"/>
			<path fill="url(#colour1)" d="M137.819,294.091l-4.063,14.079c1.406-2.072,2.427-3.475,3.063-4.203
				c0.948-1.053,1.763-1.764,2.445-2.133s1.336-0.555,1.961-0.555c0.531,0,0.987,0.201,1.367,0.602s0.57,0.936,0.57,1.602
				c0,0.563-0.125,1.266-0.375,2.109l-1.984,6.656c-0.177,0.584-0.266,0.975-0.266,1.172c0,0.094,0.037,0.18,0.109,0.258
				s0.156,0.117,0.25,0.117c0.125,0,0.25-0.053,0.375-0.156c0.333-0.26,0.688-0.678,1.063-1.25c0.094-0.146,0.245-0.365,0.453-0.656
				l0.609,0.344c-0.896,1.479-1.745,2.494-2.547,3.047s-1.563,0.828-2.281,0.828c-0.646,0-1.151-0.168-1.516-0.5
				c-0.365-0.334-0.547-0.75-0.547-1.25c0-0.459,0.125-1.109,0.375-1.953l1.938-6.656c0.125-0.459,0.188-0.791,0.188-1
				c0-0.115-0.044-0.217-0.133-0.305s-0.19-0.133-0.305-0.133c-0.375,0-0.891,0.313-1.547,0.938
				c-1.354,1.281-2.708,3.291-4.063,6.031l-1.391,4.641h-3.875l5.125-17.657c0.208-0.75,0.313-1.286,0.313-1.609
				c0-0.26-0.104-0.463-0.313-0.609c-0.271-0.197-0.688-0.281-1.25-0.25l0.109-0.625l5.203-0.922H137.819z"/>
			<path fill="url(#colour1)" d="M156.096,301.279c0.823,0,1.596,0.189,2.32,0.57c0.724,0.381,1.271,0.908,1.641,1.586
				c0.37,0.678,0.555,1.428,0.555,2.25c0,1.688-0.472,3.375-1.414,5.063c-0.943,1.688-2.185,3.018-3.727,3.992
				c-1.542,0.975-3.094,1.461-4.656,1.461c-1.417,0-2.513-0.422-3.289-1.266c-0.776-0.844-1.164-1.875-1.164-3.094
				c0-1.447,0.289-2.805,0.867-4.07s1.313-2.369,2.203-3.313s1.914-1.709,3.07-2.297S154.856,301.279,156.096,301.279z
				 M155.455,302.107c-0.552,0-1.011,0.162-1.375,0.484c-0.729,0.656-1.552,2.189-2.469,4.602c-0.917,2.412-1.375,4.586-1.375,6.523
				c0,0.479,0.146,0.875,0.438,1.188c0.292,0.313,0.635,0.469,1.031,0.469c0.406,0,0.766-0.125,1.078-0.375
				c0.458-0.375,1.021-1.217,1.688-2.523c0.667-1.307,1.213-2.75,1.641-4.328c0.427-1.578,0.641-3.023,0.641-4.336
				c0-0.541-0.13-0.961-0.391-1.258C156.101,302.256,155.799,302.107,155.455,302.107z"/>
			<path fill="url(#colour1)" d="M169.638,301.279l-2.359,8.781c1.938-4.281,3.396-6.916,4.375-7.906c0.573-0.584,1.177-0.875,1.813-0.875
				c0.438,0,0.792,0.158,1.063,0.477s0.406,0.768,0.406,1.352c0,1.01-0.245,1.859-0.734,2.547c-0.313,0.438-0.662,0.656-1.047,0.656
				c-0.417,0-0.729-0.193-0.938-0.578s-0.354-0.611-0.438-0.68s-0.172-0.102-0.266-0.102c-0.104,0-0.213,0.031-0.328,0.094
				c-0.229,0.125-0.529,0.43-0.898,0.914s-0.826,1.295-1.367,2.43s-0.963,2.096-1.266,2.883s-0.724,2.283-1.266,4.492h-3.781
				l2.578-10.359c0.188-0.771,0.281-1.281,0.281-1.531c0-0.281-0.049-0.5-0.148-0.656s-0.234-0.271-0.406-0.344
				s-0.529-0.109-1.07-0.109l0.141-0.453l4.719-1.031H169.638z"/>
			<path fill="url(#colour1)" d="M185.509,301.279c0.823,0,1.596,0.189,2.32,0.57c0.724,0.381,1.271,0.908,1.641,1.586
				c0.37,0.678,0.555,1.428,0.555,2.25c0,1.688-0.472,3.375-1.414,5.063c-0.943,1.688-2.185,3.018-3.727,3.992
				c-1.542,0.975-3.094,1.461-4.656,1.461c-1.417,0-2.513-0.422-3.289-1.266c-0.776-0.844-1.164-1.875-1.164-3.094
				c0-1.447,0.289-2.805,0.867-4.07s1.313-2.369,2.203-3.313s1.914-1.709,3.07-2.297S184.269,301.279,185.509,301.279z
				 M184.868,302.107c-0.552,0-1.011,0.162-1.375,0.484c-0.729,0.656-1.552,2.189-2.469,4.602c-0.917,2.412-1.375,4.586-1.375,6.523
				c0,0.479,0.146,0.875,0.438,1.188c0.292,0.313,0.635,0.469,1.031,0.469c0.406,0,0.766-0.125,1.078-0.375
				c0.458-0.375,1.021-1.217,1.688-2.523c0.667-1.307,1.213-2.75,1.641-4.328c0.427-1.578,0.641-3.023,0.641-4.336
				c0-0.541-0.13-0.961-0.391-1.258C185.514,302.256,185.212,302.107,184.868,302.107z"/>
			<path fill="url(#colour1)" d="M199.973,301.279l-3.031,10.625c-0.146,0.49-0.219,0.828-0.219,1.016c0,0.094,0.037,0.166,0.109,0.219
				c0.083,0.084,0.182,0.125,0.297,0.125c0.479,0,1.12-0.428,1.922-1.281c1.146-1.24,2.349-3.021,3.609-5.344l1.422-4.781
				l3.953-0.141l-3,10.313c-0.25,0.875-0.375,1.375-0.375,1.5c0,0.084,0.039,0.17,0.117,0.258s0.159,0.133,0.242,0.133
				c0.146,0,0.287-0.063,0.422-0.188c0.375-0.303,0.87-0.912,1.484-1.828l0.531,0.375c-1.448,2.615-3.042,3.922-4.781,3.922
				c-0.646,0-1.154-0.164-1.523-0.492s-0.555-0.758-0.555-1.289c0-0.563,0.13-1.275,0.391-2.141l0.766-2.641
				c-1.354,1.969-2.338,3.297-2.953,3.984c-0.938,1.031-1.727,1.719-2.367,2.063s-1.252,0.516-1.836,0.516
				c-0.552,0-1.029-0.203-1.43-0.609s-0.602-0.922-0.602-1.547c0-0.531,0.13-1.244,0.391-2.141l1.766-6.25
				c0.292-1.021,0.438-1.709,0.438-2.063c0-0.156-0.042-0.295-0.125-0.414s-0.221-0.213-0.414-0.281s-0.549-0.102-1.07-0.102
				l0.156-0.594l5.328-0.922H199.973z"/>
			<path fill="url(#colour1)" d="M222.125,302.232h4.156l-0.5,1.719h-2.156c0.333,0.615,0.5,1.197,0.5,1.75
				c0,0.947-0.258,1.822-0.773,2.625s-1.276,1.443-2.281,1.922c-1.005,0.479-2.123,0.719-3.352,0.719c-0.323,0-0.68-0.023-1.07-0.07
				s-0.815-0.111-1.273-0.195c-0.688,0.354-1.12,0.635-1.297,0.844c-0.125,0.146-0.188,0.297-0.188,0.453
				c0,0.188,0.078,0.35,0.234,0.484c0.271,0.24,0.672,0.416,1.203,0.531c2.125,0.459,3.526,0.828,4.203,1.109
				c0.927,0.385,1.627,0.881,2.102,1.484c0.474,0.604,0.711,1.332,0.711,2.188c0,1.301-0.599,2.439-1.797,3.414
				c-1.198,0.973-3.052,1.461-5.563,1.461c-2.531,0-4.396-0.418-5.594-1.25c-0.864-0.605-1.297-1.324-1.297-2.156
				c0-0.637,0.284-1.225,0.852-1.766c0.568-0.543,1.784-1.021,3.648-1.438c-0.636-0.354-1.063-0.678-1.281-0.969
				c-0.302-0.396-0.453-0.807-0.453-1.234c0-0.697,0.278-1.313,0.836-1.844c0.557-0.531,1.492-1.057,2.805-1.578
				c-1.021-0.406-1.758-0.93-2.211-1.57s-0.68-1.389-0.68-2.242c0-0.906,0.273-1.768,0.82-2.586s1.354-1.482,2.422-1.992
				c1.067-0.51,2.294-0.766,3.68-0.766c0.885,0,1.672,0.1,2.359,0.297C221.245,301.68,221.656,301.898,222.125,302.232z
				 M213.469,316.42c-0.99,0.385-1.664,0.801-2.023,1.25c-0.359,0.447-0.539,0.932-0.539,1.453c0,0.676,0.356,1.289,1.07,1.836
				c0.713,0.547,1.852,0.82,3.414,0.82c1.302,0,2.245-0.238,2.828-0.711c0.583-0.475,0.875-1.029,0.875-1.664
				c0-0.563-0.269-1.021-0.805-1.375c-0.537-0.355-1.565-0.725-3.086-1.109C214.495,316.732,213.917,316.564,213.469,316.42z
				 M218.859,302.045c-0.511,0-0.943,0.166-1.297,0.5c-0.563,0.51-1.055,1.365-1.477,2.563s-0.633,2.334-0.633,3.406
				c0,0.51,0.148,0.914,0.445,1.211s0.664,0.445,1.102,0.445c0.427,0,0.797-0.146,1.109-0.438c0.594-0.572,1.109-1.486,1.547-2.742
				s0.656-2.393,0.656-3.414c0-0.459-0.141-0.828-0.422-1.109S219.266,302.045,218.859,302.045z"/>
			<path fill="url(#colour1)" d="M236.746,294.091l-4.063,14.079c1.406-2.072,2.427-3.475,3.063-4.203
				c0.948-1.053,1.763-1.764,2.445-2.133s1.336-0.555,1.961-0.555c0.531,0,0.987,0.201,1.367,0.602s0.57,0.936,0.57,1.602
				c0,0.563-0.125,1.266-0.375,2.109l-1.984,6.656c-0.177,0.584-0.266,0.975-0.266,1.172c0,0.094,0.037,0.18,0.109,0.258
				s0.156,0.117,0.25,0.117c0.125,0,0.25-0.053,0.375-0.156c0.333-0.26,0.688-0.678,1.063-1.25c0.094-0.146,0.245-0.365,0.453-0.656
				l0.609,0.344c-0.896,1.479-1.745,2.494-2.547,3.047s-1.563,0.828-2.281,0.828c-0.646,0-1.151-0.168-1.516-0.5
				c-0.365-0.334-0.547-0.75-0.547-1.25c0-0.459,0.125-1.109,0.375-1.953l1.938-6.656c0.125-0.459,0.188-0.791,0.188-1
				c0-0.115-0.044-0.217-0.133-0.305s-0.19-0.133-0.305-0.133c-0.375,0-0.891,0.313-1.547,0.938
				c-1.354,1.281-2.708,3.291-4.063,6.031l-1.391,4.641h-3.875l5.125-17.657c0.208-0.75,0.313-1.286,0.313-1.609
				c0-0.26-0.104-0.463-0.313-0.609c-0.271-0.197-0.688-0.281-1.25-0.25l0.109-0.625l5.203-0.922H236.746z"/>
			<path fill="url(#colour1)" d="M254.616,294.091l-2.703,9.422c0.823-0.896,1.51-1.492,2.063-1.789c0.552-0.297,1.151-0.445,1.797-0.445
				c1.25,0,2.185,0.451,2.805,1.352c0.62,0.9,0.93,1.939,0.93,3.117c0,2.813-1.021,5.322-3.063,7.531
				c-1.813,1.947-3.875,2.922-6.188,2.922c-1.719,0-3.537-0.506-5.453-1.516l4.781-16.579c0.229-0.781,0.344-1.317,0.344-1.609
				c0-0.25-0.104-0.447-0.313-0.594c-0.292-0.208-0.734-0.297-1.328-0.266l0.172-0.625l5.219-0.922H254.616z M248.616,314.842
				c0.489,0.313,0.932,0.469,1.328,0.469c0.552,0,1.016-0.109,1.391-0.328c0.594-0.354,1.216-0.994,1.867-1.922
				c0.651-0.928,1.195-2.047,1.633-3.359s0.656-2.619,0.656-3.922c0-0.74-0.167-1.303-0.5-1.688
				c-0.333-0.385-0.719-0.578-1.156-0.578c-0.729,0-1.365,0.354-1.906,1.063c-0.365,0.459-0.761,1.432-1.188,2.922L248.616,314.842z
				"/>
			<path fill="url(#colour1)" d="M268.565,301.279l-2.359,8.781c1.938-4.281,3.396-6.916,4.375-7.906c0.573-0.584,1.177-0.875,1.813-0.875
				c0.438,0,0.792,0.158,1.063,0.477s0.406,0.768,0.406,1.352c0,1.01-0.245,1.859-0.734,2.547c-0.313,0.438-0.662,0.656-1.047,0.656
				c-0.417,0-0.729-0.193-0.938-0.578s-0.354-0.611-0.438-0.68s-0.172-0.102-0.266-0.102c-0.104,0-0.213,0.031-0.328,0.094
				c-0.229,0.125-0.529,0.43-0.898,0.914s-0.826,1.295-1.367,2.43s-0.963,2.096-1.266,2.883s-0.724,2.283-1.266,4.492h-3.781
				l2.578-10.359c0.188-0.771,0.281-1.281,0.281-1.531c0-0.281-0.049-0.5-0.148-0.656s-0.234-0.271-0.406-0.344
				s-0.529-0.109-1.07-0.109l0.141-0.453l4.719-1.031H268.565z"/>
			<path fill="url(#colour1)" d="M278.92,309.904c-0.094,0.678-0.141,1.234-0.141,1.672c0,0.781,0.227,1.406,0.68,1.875
				s1.06,0.703,1.82,0.703c0.729,0,1.461-0.178,2.195-0.531s1.586-0.975,2.555-1.859l0.469,0.422
				c-1.198,1.447-2.365,2.479-3.5,3.094c-1.136,0.613-2.391,0.922-3.766,0.922c-1.74,0-2.943-0.418-3.609-1.25
				c-0.667-0.834-1-1.797-1-2.891c0-1.709,0.497-3.416,1.492-5.125c0.995-1.709,2.349-3.078,4.063-4.109
				c1.713-1.031,3.435-1.547,5.164-1.547c0.875,0,1.536,0.209,1.984,0.625c0.448,0.416,0.672,0.943,0.672,1.578
				c0,0.76-0.219,1.5-0.656,2.219c-0.604,0.979-1.365,1.768-2.281,2.367c-0.917,0.6-1.943,1.055-3.078,1.367
				C281.222,309.645,280.201,309.801,278.92,309.904z M279.061,309.092c0.917-0.135,1.627-0.32,2.133-0.555
				c0.505-0.234,1-0.609,1.484-1.125s0.903-1.166,1.258-1.953c0.354-0.787,0.531-1.523,0.531-2.211c0-0.291-0.081-0.521-0.242-0.688
				c-0.162-0.166-0.367-0.25-0.617-0.25c-0.5,0-1.063,0.35-1.688,1.047C280.774,304.629,279.821,306.539,279.061,309.092z"/>
			<path fill="url(#colour1)" d="M306.057,294.091l-5.078,17.485c-0.323,1.094-0.484,1.756-0.484,1.984c0,0.115,0.041,0.213,0.125,0.297
				c0.083,0.084,0.172,0.125,0.266,0.125c0.177,0,0.38-0.088,0.609-0.266c0.385-0.291,0.854-0.844,1.406-1.656l0.563,0.297
				c-1.469,2.563-3.084,3.844-4.844,3.844c-0.625,0-1.107-0.164-1.445-0.492c-0.339-0.328-0.508-0.748-0.508-1.258
				c0-0.49,0.135-1.188,0.406-2.094l0.469-1.594c-1.303,2.303-2.433,3.834-3.391,4.594c-0.729,0.563-1.438,0.844-2.125,0.844
				c-0.781,0-1.44-0.318-1.977-0.953s-0.805-1.563-0.805-2.781c0-1.553,0.344-3.084,1.031-4.594c0.688-1.51,1.482-2.771,2.383-3.781
				c0.9-1.01,1.76-1.732,2.578-2.164c0.817-0.432,1.622-0.648,2.414-0.648c0.406,0,0.768,0.084,1.086,0.25
				c0.317,0.166,0.68,0.479,1.086,0.938l1.156-3.891c0.281-0.958,0.422-1.646,0.422-2.063c0-0.25-0.094-0.463-0.281-0.641
				c-0.188-0.177-0.438-0.266-0.75-0.266c-0.146,0-0.328,0.016-0.547,0.047l0.156-0.609l5.141-0.953H306.057z M299.182,303.998
				c0-0.635-0.125-1.1-0.375-1.391s-0.542-0.438-0.875-0.438c-0.334,0-0.693,0.172-1.078,0.516c-0.74,0.666-1.514,2.008-2.32,4.023
				c-0.808,2.016-1.211,3.711-1.211,5.086c0,0.5,0.088,0.869,0.266,1.109c0.177,0.24,0.375,0.359,0.594,0.359
				c0.364,0,0.729-0.166,1.094-0.5c0.885-0.791,1.758-2.154,2.617-4.086S299.182,305.186,299.182,303.998z"/>
			<path fill="url(#colour1)" d="M316.989,301.279l-0.688,4.828h-0.578c-0.083-1.25-0.466-2.234-1.148-2.953s-1.414-1.078-2.195-1.078
				c-0.479,0-0.875,0.141-1.188,0.422s-0.469,0.619-0.469,1.016c0,0.334,0.067,0.646,0.203,0.938s0.438,0.688,0.906,1.188
				c1.646,1.771,2.646,2.99,3,3.656s0.531,1.381,0.531,2.141c0,0.822-0.208,1.602-0.625,2.336s-1.039,1.322-1.867,1.766
				c-0.828,0.441-1.69,0.664-2.586,0.664c-0.604,0-1.349-0.121-2.234-0.359c-0.583-0.166-1.021-0.25-1.313-0.25
				c-0.261,0-0.464,0.039-0.609,0.117s-0.308,0.242-0.484,0.492h-0.578l0.766-5.203h0.5c0.364,1.26,0.706,2.158,1.023,2.695
				s0.742,0.963,1.273,1.281s1.042,0.477,1.531,0.477c0.573,0,1.047-0.18,1.422-0.539s0.563-0.789,0.563-1.289
				c0-0.49-0.122-0.963-0.367-1.422s-0.81-1.172-1.695-2.141c-1.219-1.322-2.021-2.344-2.406-3.063
				c-0.271-0.521-0.406-1.115-0.406-1.781c0-1.125,0.409-2.063,1.227-2.813s1.966-1.125,3.445-1.125
				c0.646,0,1.438,0.115,2.375,0.344c0.469,0.115,0.844,0.172,1.125,0.172c0.406,0,0.734-0.172,0.984-0.516H316.989z"/>
		</g>
		<g>
			<path fill="url(#colour1)" d="M120.007,231.731h35.692l-3.37,11.94h-1.178c0.043-0.632,0.065-1.188,0.065-1.668
				c0-2.268-0.666-4.029-1.996-5.283c-1.331-1.254-3.577-1.968-6.739-2.143l-9.88,33.402c-0.545,1.854-0.818,3.229-0.818,4.122
				c0,0.829,0.338,1.488,1.014,1.979c0.676,0.49,2.05,0.758,4.122,0.802l-0.294,1.21h-22.017l0.393-1.21
				c2.246,0,3.882-0.42,4.907-1.26c1.025-0.84,1.963-2.721,2.813-5.644l9.88-33.402c-3.402,0.109-6.249,0.85-8.539,2.225
				c-2.29,1.373-4.384,3.664-6.281,6.869h-1.276L120.007,231.731z"/>
			<path fill="url(#colour1)" d="M167.074,245.765c1.723,0,3.342,0.398,4.858,1.194c1.515,0.797,2.66,1.903,3.435,3.321
				c0.774,1.418,1.162,2.988,1.162,4.711c0,3.533-0.987,7.066-2.96,10.6c-1.975,3.533-4.575,6.319-7.803,8.358
				c-3.228,2.039-6.478,3.059-9.749,3.059c-2.966,0-5.262-0.884-6.887-2.649c-1.625-1.768-2.437-3.926-2.437-6.479
				c0-3.03,0.605-5.872,1.816-8.521c1.21-2.65,2.748-4.962,4.612-6.936c1.865-1.974,4.008-3.577,6.429-4.81
				C161.971,246.382,164.479,245.765,167.074,245.765z M165.733,247.5c-1.156,0-2.116,0.339-2.879,1.014
				c-1.527,1.375-3.25,4.586-5.169,9.635c-1.919,5.05-2.879,9.602-2.879,13.658c0,1.004,0.305,1.832,0.916,2.486
				c0.61,0.654,1.33,0.982,2.159,0.982c0.851,0,1.603-0.262,2.257-0.785c0.959-0.785,2.137-2.547,3.533-5.284
				c1.396-2.736,2.541-5.758,3.435-9.062c0.894-3.305,1.341-6.33,1.341-9.078c0-1.134-0.273-2.013-0.818-2.634
				C167.085,247.81,166.453,247.5,165.733,247.5z"/>
			<path fill="url(#colour1)" d="M183.619,247.597l10.829-1.832h1.963l-1.472,5.333c2.29-2.094,4.166-3.506,5.627-4.236
				c1.461-0.73,2.912-1.097,4.351-1.097c2.05,0,3.631,0.791,4.744,2.372c1.112,1.582,1.668,3.517,1.668,5.808
				c0,6.26-2.17,11.81-6.51,16.651c-3.839,4.275-8.026,6.412-12.563,6.412c-0.807,0-1.494-0.077-2.061-0.229
				c-0.567-0.152-1.363-0.49-2.388-1.014l-1.701,5.889c-0.611,2.137-0.916,3.762-0.916,4.875c0,0.697,0.24,1.248,0.72,1.651
				c0.479,0.403,1.603,0.747,3.37,1.03l-0.294,1.211h-17.601l0.327-1.211c1.396-0.044,2.558-0.49,3.484-1.341
				c0.928-0.851,1.794-2.683,2.601-5.496l7.982-27.513c0.589-2.05,0.883-3.501,0.883-4.352c0-0.37-0.087-0.682-0.262-0.933
				c-0.175-0.25-0.437-0.43-0.785-0.54c-0.349-0.108-1.134-0.163-2.355-0.163L183.619,247.597z M188.722,272.722
				c0.654,1.069,1.243,1.783,1.767,2.144c0.523,0.359,1.134,0.54,1.832,0.54c0.698,0,1.379-0.191,2.044-0.573
				c0.665-0.381,1.489-1.149,2.47-2.306s1.924-2.639,2.83-4.449c0.905-1.811,1.63-3.866,2.176-6.167
				c0.545-2.301,0.818-4.499,0.818-6.593c0-1.679-0.3-2.899-0.9-3.664c-0.6-0.763-1.325-1.145-2.175-1.145
				c-0.764,0-1.483,0.196-2.159,0.589c-0.981,0.567-2.138,1.625-3.468,3.173L188.722,272.722z"/>
			<path fill="url(#colour1)" d="M235.267,230.717l-10.829,36.837c-0.633,2.181-0.949,3.544-0.949,4.089c0,0.284,0.092,0.523,0.278,0.72
				c0.185,0.196,0.387,0.295,0.605,0.295c0.393,0,0.763-0.152,1.112-0.459c1.047-0.85,2.213-2.289,3.5-4.318l1.276,0.59
				c-2.072,3.315-4.111,5.682-6.118,7.099c-1.374,0.959-2.835,1.439-4.384,1.439c-1.439,0-2.584-0.388-3.435-1.161
				c-0.851-0.774-1.276-1.706-1.276-2.797c0-0.807,0.262-2.104,0.785-3.894l8.833-30.163c0.479-1.657,0.72-2.759,0.72-3.305
				c0-0.523-0.229-0.937-0.687-1.243c-0.611-0.436-1.538-0.622-2.781-0.556l0.36-1.243l11.025-1.93H235.267z"/>
			<path fill="url(#colour1)" d="M250.764,245.765l-6.707,23.261c-0.371,1.331-0.556,2.203-0.556,2.617c0,0.24,0.098,0.464,0.294,0.671
				s0.403,0.311,0.622,0.311c0.371,0,0.741-0.164,1.112-0.49c0.981-0.807,2.159-2.269,3.533-4.385l1.112,0.654
				c-3.293,5.737-6.794,8.604-10.501,8.604c-1.418,0-2.547-0.398-3.386-1.194c-0.84-0.796-1.26-1.804-1.26-3.025
				c0-0.807,0.185-1.832,0.556-3.076l4.547-15.637c0.436-1.506,0.654-2.639,0.654-3.402c0-0.479-0.208-0.905-0.622-1.276
				c-0.415-0.37-0.981-0.556-1.701-0.556c-0.327,0-0.72,0.011-1.178,0.032l0.425-1.309l11.09-1.8H250.764z M248.736,230.717
				c1.352,0,2.491,0.469,3.418,1.407c0.927,0.938,1.391,2.072,1.391,3.402c0,1.331-0.469,2.465-1.407,3.402
				c-0.938,0.938-2.072,1.407-3.402,1.407c-1.309,0-2.432-0.469-3.37-1.407c-0.938-0.938-1.407-2.071-1.407-3.402
				c0-1.33,0.463-2.464,1.39-3.402C246.276,231.186,247.405,230.717,248.736,230.717z"/>
			<path fill="url(#colour1)" d="M271.202,245.765l-4.057,14.035c2.726-4.1,4.765-6.902,6.118-8.408c1.984-2.18,3.697-3.664,5.136-4.449
				s2.792-1.178,4.057-1.178c1.134,0,2.104,0.421,2.912,1.26c0.807,0.84,1.21,1.937,1.21,3.288c0,1.222-0.262,2.705-0.785,4.449
				l-4.188,13.97c-0.349,1.222-0.523,2.018-0.523,2.388c0,0.219,0.082,0.415,0.246,0.589c0.163,0.175,0.332,0.262,0.507,0.262
				c0.218,0,0.447-0.087,0.687-0.262c0.763-0.632,1.538-1.526,2.323-2.683c0.196-0.305,0.512-0.763,0.949-1.374l1.243,0.752
				c-3.206,5.388-6.576,8.081-10.109,8.081c-1.353,0-2.41-0.35-3.173-1.047c-0.764-0.697-1.145-1.57-1.145-2.617
				c0-0.916,0.262-2.278,0.785-4.089l4.089-13.97c0.283-0.916,0.425-1.592,0.425-2.028c0-0.239-0.098-0.452-0.294-0.638
				s-0.425-0.278-0.687-0.278c-0.829,0-1.832,0.567-3.01,1.701c-3.01,2.879-5.921,7.164-8.735,12.857l-2.683,9.716h-8.342
				l6.118-21.003c0.589-2.071,0.883-3.544,0.883-4.416c0-0.371-0.087-0.682-0.262-0.933c-0.175-0.251-0.458-0.447-0.851-0.589
				s-1.134-0.213-2.225-0.213l0.36-1.243l11.025-1.931H271.202z"/>
			<path fill="url(#colour1)" d="M302.043,263.824c-0.197,1.419-0.295,2.585-0.295,3.501c0,1.636,0.475,2.944,1.423,3.926
				c0.949,0.981,2.219,1.472,3.812,1.472c1.526,0,3.059-0.37,4.597-1.111c1.537-0.741,3.32-2.039,5.349-3.894l0.981,0.884
				c-2.509,3.031-4.951,5.19-7.328,6.477c-2.378,1.287-5.005,1.931-7.884,1.931c-3.644,0-6.162-0.873-7.558-2.617
				c-1.396-1.744-2.094-3.763-2.094-6.052c0-3.577,1.041-7.153,3.124-10.73s4.918-6.445,8.506-8.604s7.191-3.239,10.813-3.239
				c1.832,0,3.217,0.438,4.154,1.309c0.938,0.873,1.407,1.975,1.407,3.305c0,1.593-0.458,3.141-1.374,4.646
				c-1.266,2.051-2.857,3.702-4.776,4.956c-1.92,1.255-4.068,2.209-6.444,2.863C306.862,263.28,304.725,263.607,302.043,263.824z
				 M302.337,262.123c1.919-0.282,3.407-0.67,4.466-1.161c1.058-0.49,2.094-1.275,3.107-2.355c1.015-1.079,1.892-2.442,2.634-4.089
				c0.741-1.646,1.112-3.189,1.112-4.629c0-0.61-0.169-1.091-0.507-1.439c-0.339-0.349-0.769-0.523-1.292-0.523
				c-1.047,0-2.225,0.73-3.533,2.191C305.924,252.778,303.929,256.78,302.337,262.123z"/>
		</g>
	</g>
</g>
</svg>
