<?xml version="1.0" encoding="utf-8"?>
<!-- Generator: Adobe Illustrator 14.0.0, SVG Export Plug-In . SVG Version: 6.00 Build 43363)  -->
<!DOCTYPE svg PUBLIC "-//W3C//DTD SVG 1.0//EN" "http://www.w3.org/TR/2001/REC-SVG-20010904/DTD/svg10.dtd">
<svg version="1.0" id="Layer_1" xmlns="http://www.w3.org/2000/svg" xmlns:xlink="http://www.w3.org/1999/xlink" x="0px" y="0px"
	 width="800px" height="600px" viewBox="0 0 800 600" enable-background="new 0 0 800 600" xml:space="preserve">
<defs>
   <linearGradient id="colour1">
     <stop offset="100%" stop-color="#CC0000"/>
   </linearGradient> 
 </defs>
<polygon fill="none" stroke="url(#colour1)" stroke-width="2" points="229.625,250.5 234.625,278.75 265.625,278.75 272.875,249.5 
	265.125,259.25 260.875,245.5 256.375,257.5 250.125,242.5 245.875,256.75 239.625,245.25 236.375,258.25 "/>
<rect x="233.875" y="279" fill="none" stroke="url(#colour1)" stroke-width="2" width="34.75" height="3.5"/>
<ellipse fill="url(#colour1)" cx="251" cy="237.375" rx="2.5" ry="2.625"/>
<ellipse fill="url(#colour1)" cx="227.5" cy="245.5" rx="2.5" ry="2.625"/>
<ellipse fill="url(#colour1)" cx="239.25" cy="240.75" rx="2.5" ry="2.625"/>
<ellipse fill="url(#colour1)" cx="275.25" cy="245.75" rx="2.5" ry="2.625"/>
<ellipse fill="url(#colour1)" cx="262.25" cy="240.75" rx="2.5" ry="2.625"/>
<g>
	<path fill="url(#colour1)" d="M151.76,185.05v12.786h-0.988c-0.586-2.949-1.236-5.069-1.95-6.358c-0.714-1.29-1.693-2.317-2.938-3.083
		c-0.696-0.418-1.913-0.627-3.652-0.627h-2.774v36.44c0,2.416,0.105,3.925,0.316,4.529c0.21,0.604,0.622,1.132,1.235,1.584
		c0.613,0.454,1.451,0.68,2.513,0.68h1.236v1.289h-19.499v-1.289h1.236c1.08,0,1.95-0.244,2.609-0.731
		c0.476-0.325,0.852-0.883,1.126-1.672c0.202-0.557,0.302-2.021,0.302-4.39v-36.44h-2.691c-2.509,0-4.33,0.674-5.465,2.021
		c-1.593,1.881-2.6,4.564-3.021,8.048h-1.043V185.05H151.76z"/>
	<path fill="url(#colour1)" d="M168.732,210.761v13.238c0,2.556,0.123,4.163,0.371,4.825c0.247,0.662,0.682,1.19,1.304,1.585
		c0.622,0.396,1.786,0.592,3.488,0.592v1.289h-19.059v-1.289c1.72,0,2.888-0.203,3.501-0.61c0.613-0.406,1.044-0.935,1.291-1.585
		c0.248-0.649,0.371-2.252,0.371-4.808v-30.657c0-2.555-0.123-4.163-0.371-4.825c-0.247-0.662-0.682-1.189-1.304-1.585
		c-0.623-0.395-1.785-0.592-3.488-0.592v-1.289h17.302c4.504,0,7.799,0.396,9.887,1.185c2.087,0.79,3.79,2.247,5.108,4.372
		c1.318,2.126,1.978,4.617,1.978,7.473c0,3.484-0.989,6.364-2.966,8.64c-1.263,1.44-3.03,2.521-5.3,3.24l8.953,15.991
		c1.171,2.067,2.005,3.356,2.499,3.867c0.751,0.72,1.621,1.115,2.609,1.185v1.289h-11.727l-12.001-21.53H168.732z M168.732,187.593
		v20.694h1.565c2.544,0,4.449-0.296,5.712-0.889c1.264-0.592,2.257-1.66,2.98-3.205c0.723-1.544,1.084-3.558,1.084-6.044
		c0-3.6-0.664-6.259-1.991-7.978c-1.327-1.719-3.465-2.578-6.413-2.578H168.732z"/>
	<path fill="url(#colour1)" d="M215.008,231.001v1.289h-19.472v-1.289h1.236c1.08,0,1.95-0.244,2.609-0.731
		c0.476-0.325,0.842-0.883,1.099-1.672c0.201-0.557,0.302-2.021,0.302-4.39v-31.075c0-2.416-0.101-3.925-0.302-4.529
		c-0.202-0.604-0.609-1.132-1.222-1.584c-0.613-0.454-1.442-0.68-2.485-0.68h-1.236v-1.289h19.472v1.289h-1.236
		c-1.081,0-1.95,0.244-2.608,0.731c-0.477,0.326-0.852,0.883-1.126,1.672c-0.202,0.558-0.302,2.021-0.302,4.39v31.075
		c0,2.416,0.104,3.925,0.315,4.529c0.21,0.604,0.623,1.132,1.236,1.584c0.612,0.454,1.441,0.68,2.485,0.68H215.008z"/>
	<path fill="url(#colour1)" d="M231.486,210.9v13.099c0,2.556,0.124,4.163,0.371,4.825c0.247,0.662,0.687,1.19,1.318,1.585
		c0.632,0.396,1.79,0.592,3.474,0.592v1.289h-18.922v-1.289c1.721,0,2.888-0.203,3.502-0.61c0.612-0.406,1.043-0.935,1.29-1.585
		c0.248-0.649,0.371-2.252,0.371-4.808v-30.657c0-2.555-0.123-4.163-0.371-4.825c-0.247-0.662-0.683-1.189-1.305-1.585
		c-0.623-0.395-1.785-0.592-3.488-0.592v-1.289h16.231c5.346,0,9.182,1.208,11.507,3.623c2.325,2.416,3.488,5.435,3.488,9.058
		c0,3.065-0.751,5.69-2.252,7.873c-1.501,2.184-3.57,3.67-6.207,4.459C238.718,210.621,235.715,210.9,231.486,210.9z
		 M231.486,187.768v20.415c0.604,0.047,1.062,0.07,1.374,0.07c2.233,0,3.955-0.842,5.163-2.526c1.209-1.684,1.813-4.29,1.813-7.821
		c0-3.506-0.604-6.073-1.813-7.699c-1.208-1.625-3.011-2.439-5.41-2.439H231.486z"/>
	<path fill="url(#colour1)" d="M286.166,215.708l-1.401,16.583h-33.065v-1.289h1.235c1.081,0,1.95-0.244,2.609-0.731
		c0.476-0.325,0.842-0.883,1.099-1.672c0.201-0.557,0.302-2.021,0.302-4.39v-31.075c0-2.416-0.101-3.925-0.302-4.529
		c-0.202-0.604-0.609-1.132-1.223-1.584c-0.613-0.454-1.441-0.68-2.485-0.68h-1.235v-1.289h19.856v1.289h-1.621
		c-1.081,0-1.95,0.244-2.609,0.731c-0.477,0.326-0.852,0.883-1.126,1.672c-0.202,0.558-0.302,2.021-0.302,4.39v30.1
		c0,2.417,0.11,3.954,0.33,4.617c0.22,0.661,0.649,1.155,1.291,1.48c0.457,0.209,1.565,0.314,3.323,0.314h3.103
		c1.978,0,3.625-0.441,4.943-1.324c1.318-0.882,2.458-2.276,3.419-4.18c0.961-1.904,1.872-4.715,2.732-8.431H286.166z"/>
	<path fill="url(#colour1)" d="M303.495,187.768v19.23h0.741c2.362,0,4.074-0.94,5.136-2.822c1.062-1.881,1.739-4.656,2.032-8.326h1.044
		v24.735h-1.044c-0.219-2.694-0.683-4.9-1.387-6.619c-0.705-1.719-1.524-2.875-2.458-3.466c-0.934-0.593-2.289-0.889-4.064-0.889
		v13.308c0,2.602,0.086,4.193,0.26,4.773c0.174,0.581,0.499,1.058,0.976,1.428c0.476,0.372,1.245,0.558,2.307,0.558h2.225
		c3.479,0,6.266-1.022,8.363-3.066c2.096-2.043,3.602-5.156,4.518-9.336h1.016l-1.675,15.015h-32.187v-1.289h1.236
		c1.08,0,1.95-0.244,2.609-0.731c0.476-0.325,0.842-0.883,1.099-1.672c0.202-0.557,0.302-2.021,0.302-4.39v-31.075
		c0-2.137-0.045-3.449-0.137-3.937c-0.183-0.813-0.522-1.44-1.017-1.881c-0.696-0.65-1.648-0.976-2.856-0.976h-1.236v-1.289h31.171
		v13.97h-1.043c-0.532-3.414-1.277-5.865-2.238-7.351c-0.962-1.486-2.321-2.578-4.079-3.275c-1.026-0.418-2.948-0.627-5.767-0.627
		H303.495z"/>
</g>
<g>
	<path fill="url(#colour1)" d="M151.297,236.188v16.147h-0.949c-0.713-4.213-2.043-7.443-3.991-9.688
		c-1.946-2.245-4.153-3.367-6.618-3.367c-2.062,0-3.951,0.837-5.67,2.508c-1.721,1.672-2.978,3.86-3.772,6.562
		c-1.022,3.458-1.533,7.306-1.533,11.543c0,4.169,0.373,7.965,1.12,11.389c0.745,3.424,1.914,6.012,3.504,7.764
		c1.59,1.751,3.65,2.628,6.18,2.628c2.077,0,3.979-0.641,5.708-1.924c1.726-1.283,3.548-3.492,5.461-6.63v4.02
		c-1.849,2.726-3.775,4.701-5.779,5.926c-2.004,1.226-4.343,1.838-7.021,1.838c-3.52,0-6.647-0.996-9.38-2.989
		c-2.734-1.993-4.843-4.855-6.327-8.589c-1.484-3.733-2.227-7.707-2.227-11.921c0-4.443,0.823-8.658,2.469-12.643
		c1.646-3.985,3.87-7.077,6.667-9.276c2.799-2.199,5.771-3.298,8.919-3.298c2.319,0,4.769,0.71,7.348,2.13
		c1.493,0.825,2.441,1.237,2.848,1.237c0.52,0,0.969-0.269,1.351-0.808c0.38-0.538,0.628-1.391,0.741-2.559H151.297z"/>
	<path fill="url(#colour1)" d="M167.261,262.607v13.055c0,2.52,0.11,4.105,0.328,4.759c0.22,0.652,0.604,1.173,1.156,1.563
		c0.551,0.39,1.583,0.584,3.091,0.584v1.271h-16.888v-1.271c1.525,0,2.559-0.2,3.103-0.602c0.543-0.4,0.924-0.922,1.144-1.563
		c0.218-0.641,0.328-2.221,0.328-4.741v-30.232c0-2.52-0.11-4.105-0.328-4.759c-0.22-0.652-0.605-1.173-1.156-1.563
		c-0.552-0.39-1.581-0.584-3.091-0.584v-1.271h15.33c3.992,0,6.912,0.39,8.761,1.168c1.849,0.779,3.358,2.216,4.526,4.312
		c1.167,2.096,1.752,4.552,1.752,7.37c0,3.436-0.876,6.275-2.628,8.52c-1.12,1.42-2.686,2.485-4.696,3.195l7.933,15.769
		c1.039,2.039,1.776,3.311,2.215,3.813c0.665,0.71,1.436,1.1,2.311,1.168v1.271h-10.39l-10.634-21.231H167.261z M167.261,239.76
		v20.407h1.387c2.254,0,3.942-0.292,5.061-0.876c1.119-0.583,2-1.637,2.64-3.161c0.641-1.522,0.961-3.509,0.961-5.96
		c0-3.55-0.587-6.172-1.764-7.867c-1.176-1.695-3.071-2.542-5.683-2.542H167.261z"/>
	<path fill="url(#colour1)" d="M209.26,236.6c5.257-0.275,9.526,1.89,12.813,6.493c3.284,4.604,4.927,10.364,4.927,17.281
		c0,5.909-1.225,11.109-3.674,15.597c-3.245,5.956-7.828,8.933-13.749,8.933c-5.938,0-10.529-2.839-13.773-8.52
		c-2.563-4.489-3.845-9.813-3.845-15.975c0-6.917,1.667-12.683,5-17.298C200.293,238.495,204.394,236.325,209.26,236.6z
		 M209.553,238.798c-3.018,0-5.313,2.177-6.886,6.528c-1.281,3.573-1.923,8.704-1.923,15.391c0,7.948,0.989,13.823,2.969,17.624
		c1.379,2.658,3.31,3.985,5.792,3.985c1.67,0,3.065-0.572,4.186-1.718c1.427-1.465,2.538-3.807,3.333-7.026
		c0.794-3.217,1.192-7.415,1.192-12.591c0-6.161-0.405-10.771-1.216-13.828c-0.812-3.059-1.845-5.217-3.102-6.477
		C212.639,239.429,211.191,238.798,209.553,238.798z"/>
	<path fill="url(#colour1)" d="M287.088,237.05l21.721,29.773v-20.64c0-2.879-0.378-4.827-1.136-5.841
		c-1.039-1.368-2.781-2.03-5.228-1.982v-1.31h14.546v1.31c-1.862,0.26-3.112,0.596-3.75,1.008c-0.638,0.414-1.136,1.086-1.494,2.019
		c-0.356,0.933-0.535,2.531-0.535,4.797v39.969h-1.104l-29.773-39.969v30.517c0,2.762,0.579,4.626,1.737,5.594
		c1.158,0.968,2.484,1.452,3.978,1.452h1.039v1.31h-15.617v-1.31c2.424-0.023,4.112-0.566,5.065-1.629
		c0.953-1.062,1.429-2.867,1.429-5.417v-33.88l-0.941-1.274c-0.931-1.274-1.753-2.112-2.468-2.514
		c-0.714-0.401-1.743-0.625-3.084-0.672v-1.31H287.088z"/>
</g>
</svg>
