<?xml version="1.0" encoding="utf-8"?>
<!-- Generator: Adobe Illustrator 14.0.0, SVG Export Plug-In . SVG Version: 6.00 Build 43363)  -->
<!DOCTYPE svg PUBLIC "-//W3C//DTD SVG 1.0//EN" "http://www.w3.org/TR/2001/REC-SVG-20010904/DTD/svg10.dtd">
<svg version="1.0" id="Layer_1" xmlns="http://www.w3.org/2000/svg" xmlns:xlink="http://www.w3.org/1999/xlink" x="0px" y="0px"
	 width="800px" height="600px" viewBox="0 0 800 600" enable-background="new 0 0 800 600" xml:space="preserve">
 <defs>
   <linearGradient id="colour1">
     <stop offset="100%" stop-color="red"/>
   </linearGradient>
</defs>
<g>
	<path fill="url(#colour1)" d="M33.091,176.913L12.578,96.078h11.035l9.595,40.898c2.397,10.073,4.561,20.146,5.996,27.944h0.239
		c1.323-8.037,3.838-17.632,6.597-28.066l10.796-40.776h10.913l9.834,41.016c2.28,9.595,4.438,19.189,5.64,27.705h0.239
		c1.68-8.872,3.955-17.871,6.475-27.944l10.674-40.776h10.674l-22.905,80.835H77.466l-10.195-42.095
		c-2.52-10.317-4.199-18.232-5.278-26.387h-0.239c-1.44,8.037-3.237,15.952-6.235,26.387l-11.514,42.095H33.091z"/>
</g>
</svg>
