<?xml version="1.0" encoding="utf-8"?>
<!-- Generator: Adobe Illustrator 13.0.0, SVG Export Plug-In . SVG Version: 6.00 Build 14948)  -->
<!DOCTYPE svg PUBLIC "-//W3C//DTD SVG 1.1//EN" "http://www.w3.org/Graphics/SVG/1.1/DTD/svg11.dtd">
<svg version="1.1" id="Layer_1" xmlns="http://www.w3.org/2000/svg" xmlns:xlink="http://www.w3.org/1999/xlink" x="0px" y="0px"
	 width="303.386px" height="226.468px" viewBox="0 0 303.386 226.468" enable-background="new 0 0 303.386 226.468"
	 xml:space="preserve">
<g>
	<path fill="green" d="M169.377,79.474c1.387-2.215-1.496-3.789-4.715-4.91c-4.156-1.449-4.09,1.184-5.434,2.938
		c-2.484,3.234-4.559,5.516-6.879,8.879c-5.285,7.602-4.926,6.762-11.234,14.945c-2.082,3.332-2.387,1.781-4.297,1.387
		c-1.004-0.211-4.262-3.066-6.707,1.781c-2.484,4.918-18.582,32.191-19.121,33.266c-2.18,4.324-15.297,25.602-18.516,30.223
		c-2.887,4.621-4.395,7.395-7.285,12.211c-1.555,2.602-0.703,3.93,1.879,4.32c0.98,0.434,1.727,1.148,2.82,1.391
		c1.813,0.395,3.52-1.168,4.699-2.176c2.715-4.031,4.172-6.102,6.301-9.441c3.02-4.719,4.703-7.293,6.211-9.469
		c1.781-1.492,2.715-3.832,5-7.262c1.168-1.762,3.73-5.395,4.395-6.699c0.602-1.188,3.117-4.059,2.613-1.977
		c-2.613,4.914-3.992,7.785-7.113,12.105c-0.566,0.652-0.91,2.113-1.508,2.871c-2.113,2.68-3.684,6.977-6.004,10.531
		c-2.258,3.48-3.387,6.102-5.398,9.734c-1.297,2.336-1.012,2.57,0.398,3.164c1.207,0.691,1.844,1.332,2.82,1.949
		c1.406,0.891,1.93,0.863,3.289,0.992c2.516-0.992,2.336,1.578,0.703,3.859c-1.613,2.242,0.734,2.438,3.016,4.023
		c2.234,1.551,3.664,0.828,6.008,0.102c2.578-1.09,5.5-10.133,8.082-6.996c2.344,1.34,6.207,2.473,8.422-0.297
		c0.797-0.637,2.922-3.746,3.289-5.016c1.508-5.219,2.035-2.641,2.23-3.012c5.383-10.191,6.488-12.012,10.688-16.707
		c0,0,51.32-63.434,55.035-68.012c0.297-0.422-0.867-0.086-0.691-0.594c0.941-2.785,1.125-3.07,1.906-4.176
		c1.73-2.77-3.664-5.027-6.801-5.41c-4.199-0.512-6.016,4.898-7.879,4.602c-3.207-2.215-2.164-2.73-5.281-3.664
		c-2.039-0.613-5.59,0.34-7.535-1.023c-0.52,1.105-1.125,4.258-2.684,0.172l-0.004-1.664c-2.813-0.938-3.246,1.324-4.457,2.09
		l-11.605,13.887c-2.598,2.766-5.848,8.348-6.973,7.449l5.848-10.688c2.902-3.023,1.039-2.004,2.555-4.473
		c4.809-7.84,9.137-13.965,9.137-13.965L169.377,79.474z"/>
	<path fill="none" stroke="green" stroke-miterlimit="10" d="M169.377,79.474c1.387-2.215-1.496-3.789-4.715-4.91
		c-4.156-1.449-4.09,1.184-5.434,2.938c-2.484,3.234-4.559,5.516-6.879,8.879c-5.285,7.602-4.926,6.762-11.234,14.945
		c-2.082,3.332-2.387,1.781-4.297,1.387c-1.004-0.211-4.262-3.066-6.707,1.781c-2.484,4.918-18.582,32.191-19.121,33.266
		c-2.18,4.324-15.297,25.602-18.516,30.223c-2.887,4.621-4.395,7.395-7.285,12.211c-1.555,2.602-0.703,3.93,1.879,4.32
		c0.98,0.434,1.727,1.148,2.82,1.391c1.813,0.395,3.52-1.168,4.699-2.176c2.715-4.031,4.172-6.102,6.301-9.441
		c3.02-4.719,4.703-7.293,6.211-9.469c1.781-1.492,2.715-3.832,5-7.262c1.168-1.762,3.73-5.395,4.395-6.699
		c0.602-1.188,3.117-4.059,2.613-1.977c-2.613,4.914-3.992,7.785-7.113,12.105c-0.566,0.652-0.91,2.113-1.508,2.871
		c-2.113,2.68-3.684,6.977-6.004,10.531c-2.258,3.48-3.387,6.102-5.398,9.734c-1.297,2.336-1.012,2.57,0.398,3.164
		c1.207,0.691,1.844,1.332,2.82,1.949c1.406,0.891,1.93,0.863,3.289,0.992c2.516-0.992,2.336,1.578,0.703,3.859
		c-1.613,2.242,0.734,2.438,3.016,4.023c2.234,1.551,3.664,0.828,6.008,0.102c2.578-1.09,5.5-10.133,8.082-6.996
		c2.344,1.34,6.207,2.473,8.422-0.297c0.797-0.637,2.922-3.746,3.289-5.016c1.508-5.219,2.035-2.641,2.23-3.012
		c5.383-10.191,6.488-12.012,10.688-16.707c0,0,51.32-63.434,55.035-68.012c0.297-0.422-0.867-0.086-0.691-0.594
		c0.941-2.785,1.125-3.07,1.906-4.176c1.73-2.77-3.664-5.027-6.801-5.41c-4.199-0.512-6.016,4.898-7.879,4.602
		c-3.207-2.215-2.164-2.73-5.281-3.664c-2.039-0.613-5.59,0.34-7.535-1.023c-0.52,1.105-1.125,4.258-2.684,0.172l-0.004-1.664
		c-2.813-0.938-3.246,1.324-4.457,2.09l-11.605,13.887c-2.598,2.766-5.848,8.348-6.973,7.449l5.848-10.688
		c2.902-3.023,1.039-2.004,2.555-4.473c4.809-7.84,9.137-13.965,9.137-13.965L169.377,79.474z"/>
	<path fill="blue" d="M211.205,99.814c-2.32-2.992-6.988-3.375-8.332-1.621c-2.484,3.234-5.93,7.371-8.496,10.551
		c-5.363,6.648-12.582,15.094-16.203,19.75c-3.391,4.363-23.863,29.395-25.07,31.012c-2.898,3.895-11.676,12.57-15.711,23.359
		c-0.203,0.328,1.109,0.027-0.109,1.156c-1.012,1.898-1.871,3.492-2.711,5.422c-1.082,2.492-2.457,4.953-3.633,7.648
		c-1.246,2.867-3.84,6.762-1.602,7.352c0.387,0.168,3.926,2.109,5.742,3.074c1.371,1.703,0.777,1.234,2.145,1.527
		c1.922,0.672,3.914,2.039,4.32,2.164c3.063,0.941,5.492-1.938,7.477-5.125c2.078-3.691,4.137-7.355,4.555-8.348
		c0.355-0.996,3.156-3.664,4.344-6.359c2.262-5.113,2.879-5.465,3.543-6.77c1.668-3.254,4.945-6.27,4.441-4.188
		c-2.617,4.914-2.055,3.664-4.617,8.496c-0.535,1.523-10.363,20.242-10.84,22.059c-0.953,1.906-0.48,1.52-1.727,4.016
		c-1.238,2.461,1.277,3.07,3.633,4.305c2.406,1.27,4.32,0.996,5.805,0.234c0.508-0.582,1.523-1.516,2.473-2.902
		c1.109-1.613,2.207-3.75,3.395-5.242c0.773-0.645,2.426-4.773,2.711-5.188c3.035-4.391,2.738-5.539,4.289-6.238
		c0.484-1.082,1.109-1.957,1.398-2.75c0.227-0.629,0.113-1.25,0.477-1.582c1.191-1.09,1.965-0.176,1.25,1.113
		c-0.297,0.758-2.949,4.422-1.785,6.117c1.191,1.059,2.023,1.059,2.797,1.641c2.262,1.938,3.543,1.57,3.785,1.586
		c2.082,0.113,2.18-1.059,2.738-1.875c1.07-3.34,1.973-4.957,2.652-7c2.082-4.309,2.68-6.711,4.762-9.965
		c0,0,4.352-8.809,10.852-19.73c12.785-20.645,29.148-45.891,31.332-49.863c0.648-0.273,4.566-6.344,4.805-6.828
		c0.93-1.895,1.301-2.719-0.836-3.996c-1.484-0.367-4.992-3.445-7.594-0.914c-3.523,3.434-2.574,2.168-4.895,4.82
		c-0.926,1.254-9.516,10.57-17.754,22.035c-2.418,2.352-1.027-1.371,3.129-6.555c1.84-2.973,3.902-6.277,5.668-9.664
		c3.074-4.637,5.805-8.629,6.383-9.449c0,0,0.719-1.645,1.922-2.625c0,0,2.234-1.645-0.273-3.016c0,0-5.438-3.684-7.406-1.367
		C212.877,101.916,213.1,102.255,211.205,99.814"/>
	<path fill="none" stroke="blue" stroke-miterlimit="10" d="M211.205,99.814c-2.32-2.992-6.988-3.375-8.332-1.621
		c-2.484,3.234-5.93,7.371-8.496,10.551c-5.363,6.648-12.582,15.094-16.203,19.75c-3.391,4.363-23.863,29.395-25.07,31.012
		c-2.898,3.895-11.676,12.57-15.711,23.359c-0.203,0.328,1.109,0.027-0.109,1.156c-1.012,1.898-1.871,3.492-2.711,5.422
		c-1.082,2.492-2.457,4.953-3.633,7.648c-1.246,2.867-3.84,6.762-1.602,7.352c0.387,0.168,3.926,2.109,5.742,3.074
		c1.371,1.703,0.777,1.234,2.145,1.527c1.922,0.672,3.914,2.039,4.32,2.164c3.063,0.941,5.492-1.938,7.477-5.125
		c2.078-3.691,4.137-7.355,4.555-8.348c0.355-0.996,3.156-3.664,4.344-6.359c2.262-5.113,2.879-5.465,3.543-6.77
		c1.668-3.254,4.945-6.27,4.441-4.188c-2.617,4.914-2.055,3.664-4.617,8.496c-0.535,1.523-10.363,20.242-10.84,22.059
		c-0.953,1.906-0.48,1.52-1.727,4.016c-1.238,2.461,1.277,3.07,3.633,4.305c2.406,1.27,4.32,0.996,5.805,0.234
		c0.508-0.582,1.523-1.516,2.473-2.902c1.109-1.613,2.207-3.75,3.395-5.242c0.773-0.645,2.426-4.773,2.711-5.188
		c3.035-4.391,2.738-5.539,4.289-6.238c0.484-1.082,1.109-1.957,1.398-2.75c0.227-0.629,0.113-1.25,0.477-1.582
		c1.191-1.09,1.965-0.176,1.25,1.113c-0.297,0.758-2.949,4.422-1.785,6.117c1.191,1.059,2.023,1.059,2.797,1.641
		c2.262,1.938,3.543,1.57,3.785,1.586c2.082,0.113,2.18-1.059,2.738-1.875c1.07-3.34,1.973-4.957,2.652-7
		c2.082-4.309,2.68-6.711,4.762-9.965c0,0,4.352-8.809,10.852-19.73c12.785-20.645,29.148-45.891,31.332-49.863
		c0.648-0.273,4.566-6.344,4.805-6.828c0.93-1.895,1.301-2.719-0.836-3.996c-1.484-0.367-4.992-3.445-7.594-0.914
		c-3.523,3.434-2.574,2.168-4.895,4.82c-0.926,1.254-9.516,10.57-17.754,22.035c-2.418,2.352-1.027-1.371,3.129-6.555
		c1.84-2.973,3.902-6.277,5.668-9.664c3.074-4.637,5.805-8.629,6.383-9.449c0,0,0.719-1.645,1.922-2.625
		c0,0,2.234-1.645-0.273-3.016c0,0-5.438-3.684-7.406-1.367C212.877,101.916,213.1,102.255,211.205,99.814z"/>
	<path fill="white" d="M156.424,195.095c0.094-4.262,0.895-7.383,3.773-13.152c3.18-6.383,9.852-11.652,12.969-14.969
		c5.645-4.906,7.543-5.887,11.094-9.441c5.926-5.918,9.297-11.652,9.203-18.121c-0.063-4.238,0.027-6.035-1.031-10.156
		c-1.484-5.801-5.922-10.641-11.191-13.43c-3.41-1.805-4.199-2.441-7.141-3.219c-5.707-1.52-12.313-1.012-19.637-0.828
		c-4.887,0.117-8.477-1.594-12.227-3.438c-1.402-0.461-1.945-1.371-2.602-1.727c-3.285-1.789-1.543,1.914-1.543,1.914
		c0.566,4.723,1.406,6.469-0.656,13.125c-1.895,6.125-1.867,5.434-1.867,11.836c0,4.211-1.055,9.535-2.086,13.242
		c-1.176,4.242-3.59,6.738-1.871,10.984c1.309,3.25,3.582,6.285,6.293,6.285c3.961,0.184,4.035,1.121,7.895-0.734
		c2.148-1.063,2.641-3.684,4.141-6.656c1.875-2.762,1.594-2.762,3.77-4.996c1.402-1.566,2.797-3.879,3.465-5.551
		c1.031-2.578,0.469-8.223-0.469-4.602c-0.746,3.586-1.68,4.891-2.34,6.008c-0.516,0.871-1.273,2.203-4.051,4.418
		c-1.43,1.145-4.711,7.367-6.016,8.527c-1.199,1.055-3.836,0.641-5.641,0.641c-3.465,0-5.176-3.156-5.645-5.551
		c-0.293-1.5,0.336-3.301,0.656-4.352c0.461-1.52,0.91-2.867,1.617-4.996c1.309-3.961,3.648-8.594,3.184-13.496
		c-0.238-2.492-0.008-6.336,0.934-8.957c1.898-5.273,2.18-6.84,1.715-10.73c-0.688-3.523-0.023-2.91,1.773-1.66
		c3.84,2.672,5.926,2.949,10.816,3.59l7.797-0.09c2.484,0,2.875,0.277,5.363,0.277c4.813,0,10.98,2.719,14.934,6.012
		c4.609,3.613,5.879,7.414,7.137,12.293c0.879,3.375,0.566,8.434-0.184,11.379c-2.414,9.5-14.656,16.375-23.598,25.605
		c-3.68,3.801-3.84,4.539-4.867,6.199c-3.805,6.117-1.527,3.063-4.145,7.965c-1.535,2.867-2.809,11.836-2.621,13.957
		L156.424,195.095z"/>
	<path fill="white" d="M147.076,125.314c-0.445,0.164-0.891,0.328-1.34,0.492c-0.828,0.371-1.984,1.129-2.172,2.098
		c-0.16,0.828,0.277,1.602,0.637,2.219c0.191,0.332,0.512,0.957,0.984,0.957v-0.055c0.465-0.273,0.516-0.98,0.703-1.426
		c0.152-0.371,0.434-0.805,0.699-1.098c0.48-0.52,1.031-1.035,1.613-1.406c0.422-0.27,0.902-0.406,1.285-0.738
		c0.113-0.094,0.195-0.188,0.207-0.332C149.752,125.251,147.678,125.314,147.076,125.314"/>
</g>
</svg>