<?xml version="1.0" encoding="utf-8"?>
<!-- Generator: Adobe Illustrator 14.0.0, SVG Export Plug-In . SVG Version: 6.00 Build 43363)  -->
<!DOCTYPE svg PUBLIC "-//W3C//DTD SVG 1.0//EN" "http://www.w3.org/TR/2001/REC-SVG-20010904/DTD/svg10.dtd">
<svg version="1.0" id="Layer_1" xmlns="http://www.w3.org/2000/svg" xmlns:xlink="http://www.w3.org/1999/xlink" x="0px" y="0px"
	 width="800px" height="600px" viewBox="350 250 100 100" enable-background="new 0 0 800 600" xml:space="preserve">
<defs>
   <linearGradient id="colour0">
     <stop offset="100%" stop-color="white"/>
   </linearGradient> 
   <linearGradient id="colour1">
     <stop offset="100%" stop-color="#EE3124"/>
   </linearGradient> 
 </defs>
<g>
	<path fill-rule="evenodd" clip-rule="evenodd" fill="url(#colour1)" d="M372.289,283.718c-0.058,0.202-0.129,0.43-0.136,0.641
		c-0.005,0.172,0.057,0.373,0.237,0.429c2,0.636,5.771,0.375,8.618-1.164c-0.015,0.007-0.03,0.014-0.045,0.018
		c0.522-0.146,1.026,0.206,1.195,0.614c0.078,0.189,0.143,0.543-0.297,0.788c-3.119,1.684-7.659,1.211-10.087,0.78
		c-0.093-0.017-0.185,0.029-0.229,0.113c-0.263,0.504-0.271,0.935-0.115,1.348c-2.201-1.552-3.636-3.256-4.36-5.174
		C368.373,282.843,371.078,283.622,372.289,283.718L372.289,283.718z M394.126,287.519c-0.475-0.834-1.263-1.86-2.365-2.153
		c-0.094-0.025-0.16-0.111-0.16-0.208c0-0.162,0.042-0.26,0.076-0.338c0.039-0.09,0.07-0.161,0.014-0.424
		c-0.019-0.09,0.021-0.182,0.099-0.229c0.497-0.301,1.356-0.414,2.226-0.057c-0.503-1.039-1.828-1.758-2.736-1.962
		c-0.07-0.015-0.127-0.064-0.154-0.13c-0.026-0.066-0.018-0.141,0.021-0.2c0.172-0.257,0.263-0.468,0.342-0.655
		c0.281-0.66,0.503-1.014,2.394-1.704c0.045-0.149-0.029-0.21-0.35-0.363c-0.167-0.079-0.361-0.171-0.491-0.323
		c-0.112-0.13-0.198-0.414-0.182-0.585c0.023-0.242,0.162-0.504,0.306-0.776c0.3-0.57,0.473-0.962,0.208-1.287
		c-0.155,0.167-0.321,0.37-0.493,0.582c-0.511,0.627-1.09,1.339-1.78,1.584c-0.07,0.024-0.147,0.012-0.206-0.034
		c-0.058-0.045-0.089-0.117-0.082-0.191c0.019-0.192,0.061-0.431,0.104-0.685c0.108-0.63,0.251-1.465,0.098-1.907
		c-0.436,0.261-0.93,0.5-1.41,0.733c-1.393,0.676-2.709,1.315-2.614,2.35c0.006,0.066-0.019,0.131-0.066,0.177
		c-0.048,0.046-0.115,0.066-0.181,0.057c-0.332-0.05-0.664-0.101-0.995-0.15c-1.676-0.247-3.29-0.427-5.026-0.083
		c-0.791,0.173-0.841,0.375-0.974,0.913c-0.022,0.093-0.105,0.16-0.202,0.164c-3.085,0.108-6.308,1.274-8.118,2.439h4.406
		c0.352-0.386,1.074-0.371,1.527-0.378c0.391-0.007,0.834-0.015,0.949-0.135c0.329-0.404,0.324-0.976-0.062-1.34
		c-0.086-0.082-0.09-0.218-0.008-0.305c0.082-0.086,0.218-0.09,0.305-0.008c0.558,0.528,0.563,1.356,0.088,1.938
		c-0.25,0.264-0.743,0.272-1.265,0.282c-0.455,0.008-0.964,0.017-1.184,0.207c0.253,0.65,0.697,1.136,1.453,1.825
		c-0.015-0.013-0.031-0.024-0.049-0.033c0.416,0.21,1.047-0.161,1.298-0.331c0.012-0.008,0.025-0.015,0.038-0.02
		c0.364-0.15,0.675-0.377,0.978-0.597c0.365-0.266,0.742-0.54,1.205-0.674c0.017-0.005,0.036-0.008,0.053-0.008
		c0.67-0.021,1.449,0.324,2.082,0.92c0.604,0.569,0.963,1.258,0.982,1.891c0.003,0.117-0.086,0.215-0.203,0.222
		c-0.925,0.056-1.877,0.404-2.884,0.773c-0.945,0.345-1.92,0.702-2.912,0.818c-0.311,1.12-0.075,2.416,0.358,3.413
		c0.186-0.843,0.616-1.959,1.027-2.79c0.045-0.091,0.148-0.139,0.248-0.112c0.098,0.026,0.166,0.118,0.161,0.22
		c-0.029,0.561,0.272,1.019,0.601,1.299c0.325-0.765,0.642-1.365,1.267-1.882c0.534-0.54,1.005-0.364,1.459-0.165
		c0.06,0.026,0.122,0.054,0.181,0.08c0.073,0.033,0.123,0.102,0.129,0.181c0.007,0.079-0.03,0.155-0.097,0.198
		c-0.137,0.089-0.258,0.184-0.367,0.283c0.773,0.519,1.873,0.743,3.138,0.638c0.062-0.191,0.147-0.466,0.194-0.602
		c-0.16-0.146-0.297-0.343-0.412-0.557c-0.058,0.267-0.16,0.504-0.319,0.659c-0.152,0.149-0.346,0.213-0.56,0.187
		c-0.118-0.015-0.257-0.112-0.34-0.189c-0.292-0.271-0.395-0.73-0.494-1.178c-0.032-0.146-0.065-0.292-0.104-0.435
		c-0.032-0.115,0.036-0.233,0.151-0.266c0.115-0.031,0.233,0.036,0.265,0.151c0.042,0.15,0.076,0.303,0.11,0.456
		c0.078,0.351,0.149,0.668,0.289,0.865c0.013,0.019,0.082,0.115,0.197,0.175c0.082,0.009,0.133-0.023,0.187-0.075
		c0.197-0.192,0.294-0.745,0.234-1.342c-0.011-0.111,0.064-0.213,0.174-0.233c0.109-0.021,0.217,0.044,0.248,0.151
		c0.214,0.735,0.594,1.503,1,1.456c-0.004,0-0.008,0.003-0.01,0.005c0.123-0.109,0.066-0.923-0.291-1.607
		c-0.047-0.091-0.025-0.203,0.055-0.268c0.079-0.065,0.192-0.065,0.271,0l0.168,0.138c0.363,0.3,0.967,0.846,1.514,0.709
		c-0.047-0.219-0.369-0.821-1.042-1.695c-0.067-0.087-0.058-0.211,0.022-0.288c0.079-0.076,0.204-0.081,0.288-0.009
		c0.399,0.336,0.776,0.523,1.023,0.52c-0.227-0.595-0.614-1.095-1.18-1.523c-0.095-0.074-0.112-0.208-0.04-0.303
		c0.072-0.094,0.207-0.112,0.302-0.04c0.361,0.28,0.867,0.397,1.287,0.314c-0.343-0.511-0.884-0.858-1.791-1.164
		c-0.108-0.036-0.169-0.151-0.139-0.262c0.03-0.11,0.141-0.177,0.253-0.153c0.598,0.127,1.05,0.015,1.44-0.363
		c-0.375-0.356-0.844-0.449-1.562-0.323c-0.118,0.021-0.229-0.06-0.25-0.175c-0.021-0.117,0.058-0.229,0.175-0.25
		c0.812-0.143,1.538-0.051,2.097,0.609c0.068,0.081,0.067,0.199-0.001,0.279c-0.275,0.322-0.58,0.531-0.925,0.633
		c0.575,0.313,0.958,0.694,1.219,1.194c0.027,0.053,0.031,0.116,0.011,0.172c-0.02,0.057-0.063,0.103-0.117,0.126
		c-0.277,0.12-0.599,0.158-0.92,0.121c0.28,0.358,0.489,0.754,0.623,1.186c0.029,0.095-0.01,0.197-0.094,0.249
		c-0.233,0.141-0.504,0.128-0.769,0.04c0.708,1.086,0.516,1.318,0.444,1.406c-0.021,0.026-0.05,0.047-0.082,0.061
		c-0.582,0.248-1.132-0.027-1.615-0.382c0.122,0.465,0.155,0.939,0.025,1.211c-0.084,0.177-0.215,0.236-0.326,0.258
		c-0.112,0.013-0.217,0.002-0.315-0.027c-0.291,0.924-0.6,1.839-0.913,2.763c-1.588,4.696-3.227,9.539-2.118,13.682
		c0.137-0.432,0.334-0.834,0.518-1.246c0.865-1.938,2.776-4.883,6.595-5.768c-0.171-0.529-0.291-1.06-0.506-1.576
		c-0.025-0.06-0.022-0.127,0.009-0.185c0.031-0.057,0.085-0.097,0.149-0.11c0.302-0.059,0.56-0.225,0.833-0.401
		c0.412-0.266,0.865-0.558,1.505-0.476c-0.882-1.038-1.71-1.389-2.357-1.575c-0.056-0.016-0.102-0.054-0.13-0.105
		c-0.027-0.051-0.033-0.11-0.016-0.166c0.098-0.315,0.164-0.643,0.229-0.959c0.059-0.287,0.113-0.558,0.188-0.8
		c0.022-0.072,0.081-0.128,0.154-0.146s0.151,0.004,0.205,0.058c0.209,0.211,0.444,0.195,0.877,0.145
		c0.475-0.054,1.083-0.124,1.829,0.264c-0.594-0.953-1.52-2.001-2.43-2.11c-0.063-0.008-0.12-0.042-0.155-0.096
		c-0.035-0.053-0.044-0.119-0.027-0.18c0.143-0.479,0.177-0.864,0.204-1.173c0.015-0.173,0.028-0.324,0.058-0.457
		c0.015-0.068,0.062-0.125,0.126-0.152c0.064-0.027,0.137-0.021,0.197,0.015c0.143,0.088,0.254,0.055,0.49-0.028
		C392.803,287.184,393.296,287.009,394.126,287.519L394.126,287.519z M382.897,288.16c0.821,0.575,1.973,0.84,3.291,0.761
		c-0.251,0.767-0.513,1.532-0.771,2.296c-1.241-0.025-2.226-0.481-3.031-0.938C382.32,289.793,382.309,288.912,382.897,288.16
		L382.897,288.16z M382.203,290.671c0.818,0.461,1.813,0.917,3.07,0.973c-0.27,0.803-0.539,1.619-0.791,2.443
		c-1.117-0.019-2.175-0.366-3.23-1.06C381.093,291.999,381.687,290.943,382.203,290.671L382.203,290.671z M381.006,293.381
		c1.076,0.708,2.2,1.089,3.347,1.134c-0.244,0.818-0.47,1.643-0.66,2.466c-1.244-0.136-2.567-0.372-3.877-1.075
		c-0.166-0.368-0.074-1.037,0.229-1.626C380.301,293.784,380.656,293.454,381.006,293.381L381.006,293.381z M379.652,296.308
		c1.347,0.713,2.736,0.962,3.946,1.097c-0.161,0.744-0.292,1.487-0.38,2.222c-1.779,0.391-3.334,0.273-4.391-0.336
		C378.557,298.576,378.596,296.902,379.652,296.308L379.652,296.308z M378.667,299.695c1.119,0.62,2.707,0.753,4.503,0.383
		c-0.087,0.902-0.105,1.793-0.034,2.662c-1.159,0.688-2.981,1.701-4.577-0.213c-0.251-0.301-0.53-0.699-0.589-1.098
		c-0.047-0.322-0.015-0.707,0.105-1.042C378.151,300.173,378.328,299.809,378.667,299.695L378.667,299.695z M408.097,281.42
		c0.782-0.418,1.565-0.827,2.331-1.225c0.519-0.27,1.03-0.535,1.528-0.798c-1.103,0.692-2.304,1.434-3.53,2.193
		c-2.899,1.793-5.897,3.647-7.715,4.921c-0.849,0.484-1.521,1.642-2.181,3.876c0.157-0.826,0.365-1.648,0.72-2.424
		c-0.004,0.01-0.01,0.019-0.015,0.028c1.167-1.798,3.426-3.445,5.99-4.966C406.168,282.466,407.13,281.94,408.097,281.42
		L408.097,281.42z M398.309,292.984c0.847-3.742,1.625-5.532,2.631-6.108c1.824-1.278,4.817-3.128,7.712-4.918
		c2.768-1.712,5.4-3.339,7.077-4.496c-0.547,2.711-0.482,3.98,0.2,4.581c0.228,0.2,0.518,0.313,0.876,0.35
		c-4.514,1.638-11.171,4.241-13.79,5.479c-2.241,1.046-2.77,1.985-3.438,3.173C399.26,291.612,398.906,292.24,398.309,292.984
		L398.309,292.984z M403.595,289.954c4.225-2.797,10.171-5.738,16.923-8.364c0.718-0.245,1.521-0.535,2.418-0.859
		c1.565-0.566,3.476-1.256,5.687-1.972c-0.421,0.409-0.956,0.861-1.512,1.331c-1.775,1.497-3.787,3.193-3.46,4.687
		c0.15,0.692,0.771,1.248,1.887,1.687C418.528,287.032,410.646,288.286,403.595,289.954L403.595,289.954z M416.698,294.675
		c-5.499-1.685-12.007-2.329-14.393-1.65c-0.473,0.135-0.768,0.318-0.902,0.562c-0.033,0.06-0.036,0.132-0.008,0.194
		c0.029,0.062,0.084,0.107,0.151,0.121c4.037,0.857,7.943,3.696,10.406,6.666c-3.292-3.294-7.912-6.202-10.227-5.713
		c-0.754,0.16-1.24,0.668-1.406,1.471c-0.017,0.074,0.009,0.151,0.064,0.202c1.866,1.724,4.7,4.341,5.752,7.077
		c-1.526-3.081-4.637-6.071-5.843-6.413c-0.321-0.091-0.489,0.01-0.573,0.111c-0.042,0.05-0.058,0.117-0.045,0.181
		c0.411,2.046,0.792,4.273,0.776,7.205c-0.317-3.141-0.981-5.818-2.118-5.818c-0.032,0-0.064,0.007-0.093,0.021
		c-1.668,0.797-2.749,3.24-3.336,7.609c-0.047-2.402,0.143-4.139,1.199-6.326c0.049-0.102,0.011-0.225-0.088-0.281
		c-0.774-0.439-1.46-0.523-2.039-0.252c-0.777,0.365-1.357,1.339-1.815,3.089c0.051-1.764,0.49-3.009,1.311-3.711
		c0.067-0.057,0.092-0.149,0.064-0.232c-0.028-0.083-0.104-0.142-0.191-0.147c-3.828-0.237-5.742,0.822-8.068,3.854
		c1.007-1.791,2.843-3.934,6.016-4.591c0.542,0.264,1.358,0.284,2.328,0.052c1.305-0.313,3.003-1.16,3.649-2.283
		c0.27-0.546,0.463-1.115,0.612-1.693c0.07,0.011,0.143-0.013,0.193-0.067c0.985-1.07,1.459-1.915,1.879-2.66
		c0.655-1.164,1.127-2.005,3.244-2.994c1.958-0.926,6.38-2.69,10.369-4.202c-4.447,2.044-8.296,4.171-11.19,6.203
		c-0.084,0.06-0.115,0.171-0.072,0.266s0.146,0.145,0.248,0.12c4.936-1.214,10.338-2.227,15.595-2.941
		c-6.177,1.093-13.531,2.68-16.144,4.389c-0.08,0.053-0.116,0.152-0.088,0.244s0.113,0.154,0.209,0.152
		C406.698,292.434,412.329,293.169,416.698,294.675L416.698,294.675z M395.626,300.175c-1.23,2.638-1.241,4.647-1.099,7.921
		c-0.371-0.783-0.931-1.348-1.322-1.674c-0.071-0.059-0.172-0.066-0.251-0.018c-0.839,0.52-1.699,1.053-2.287,1.955
		c0.061-1.205,0.047-2.504-0.313-3.563c-0.021-0.063-0.068-0.111-0.128-0.133c-0.061-0.023-0.129-0.018-0.185,0.016
		c-1.103,0.641-1.814,1.527-2.342,2.488c0.069-1.039-0.072-2.029-0.419-2.881c-0.038-0.094-0.134-0.146-0.233-0.131
		c-0.794,0.123-1.87,0.396-2.683,0.998c0.083-0.393,0.268-0.822,0.442-1.166c0.518-1.023,1.359-2,2.159-2.801
		c1.618-1.624,3.243-2.227,5.873-2.138c-0.918,1.081-1.271,2.912-1.047,5.453c0.009,0.107,0.097,0.191,0.205,0.195
		c0.108,0.006,0.203-0.07,0.222-0.176c0.475-2.662,1.091-4.089,1.942-4.488C394.569,299.841,395.051,299.887,395.626,300.175
		L395.626,300.175z M398.377,299.306c0.79,0.109,1.657,3.19,1.84,8.329c-0.468-0.684-1.173-1.447-2.231-1.605
		c-0.037-0.004-0.075,0-0.11,0.014c-1.239,0.482-2.109,1.164-2.734,2.172C395.644,303.07,396.707,300.149,398.377,299.306
		L398.377,299.306z M402.938,292.059c4.377-2.212,16.361-4.18,21.925-5.005c-2.197,1.069-4.804,2.934-5.294,5.367
		c-0.235,1.171,0.056,2.323,0.865,3.442C416.131,293.385,408.813,292.103,402.938,292.059L402.938,292.059z M402.056,293.576
		c0.091-0.044,0.211-0.091,0.368-0.136c2.684-0.764,12.26,0.267,18.273,3.234c-1.823-0.042-3.037,0.56-4.311,1.19
		c-0.786,0.389-1.393,0.641-1.923,1.394c-0.586,0.829-0.796,1.986-0.711,3.099C411.624,298.779,406.968,294.783,402.056,293.576
		L402.056,293.576z M400.769,296.297c0.15-0.569,0.494-0.903,1.048-1.02c2.49-0.526,8.488,3.47,11.735,7.748
		c-1.208-0.369-2.734-0.453-3.727,0.082c-1.261,0.635-2.248,1.711-2.846,2.645C407.053,302.146,403.182,298.526,400.769,296.297
		L400.769,296.297z M400.137,297.599c0.09,0.02,0.249,0.076,0.507,0.232c1.754,1.061,5.192,4.821,5.832,7.976
		c-1.221-0.701-2.271-0.918-3.131-0.648c-1.052,0.354-1.955,1.305-2.586,2.283C401.11,303.143,400.657,300.214,400.137,297.599
		L400.137,297.599z M416.405,324.469c0.238-0.336,0.594-0.525,1.111-0.605c-0.007,0-0.015,0.002-0.021,0.002
		c0.833-0.045,1.567-0.215,2.229-0.398c0.182-0.049,0.64-0.141,0.821-0.273c0.125-0.092,0.144-0.201,0.142-0.27
		c-0.007-0.15-0.119-0.254-0.247-0.322c-0.209-0.113-0.364-0.113-0.598-0.08c-1.379,0.199-3.531-0.141-4.237-0.264
		c-0.578-0.324-1.159-0.355-1.761-0.088c0.332-0.609,0.877-0.957,1.678-1.082c-0.015,0.004-0.03,0.004-0.045,0.002
		c0.675,0.039,1.451,0.244,2.202,0.441c0.736,0.195,1.433,0.379,2.063,0.428c0.097,0.006,0.186-0.051,0.219-0.141
		s0.003-0.191-0.074-0.25c-0.995-0.729-2.813-1.363-3.589-1.613c-0.487-0.375-0.951-0.422-1.446-0.375
		c0.564-0.563,1.07-1.01,1.695-0.814c0.648,0.201,1.244,0.586,1.821,0.957c0.659,0.424,1.341,0.863,2.116,1.045
		c0.212,0.049,0.624-0.072,1.449-0.34c0.366-0.117,0.868-0.281,0.984-0.275c0.089-0.01,0.171-0.049,0.207-0.129
		c0.292-0.67,0.358-1.148,0.413-1.533c0.053-0.379,0.095-0.678,0.333-1.045c0.005-0.008,0.01-0.018,0.014-0.025
		c0.6-1.293,0.659-2.24,0.229-3.625c-0.006-0.014-0.011-0.029-0.02-0.041c-0.658-1.166-1.687-1.865-3.141-2.135
		c-0.753-0.119-1.521-0.129-2.264-0.137c-0.974-0.012-1.979-0.025-2.95-0.281c-0.012-0.002-0.025-0.006-0.038-0.006
		c-2.181-0.17-3.948-0.938-4.728-2.053c-0.031-0.045-0.079-0.076-0.133-0.088c-1.667-0.342-3.667-1.621-4.552-2.857
		c0.158,0.092,0.302,0.188,0.467,0.297c0.051,0.033,0.133,0.049,0.191,0.035c0.06-0.016,0.109-0.055,0.138-0.109
		c0.507-0.955,1.545-2.227,2.938-2.932c1.043-0.561,2.88-0.34,4.057,0.195c0.075,0.035,0.166,0.023,0.229-0.031
		s0.09-0.143,0.066-0.223c-0.354-1.258-0.313-3.228,0.713-4.251c0.188-0.186,0.386-0.331,0.575-0.417
		c1.184,0.255,2.229,0.615,3.335,0.997c1.729,0.595,3.517,1.209,5.912,1.42c1.504,0.061,2.529-0.322,3.421-0.804
		c0.536-0.29,0.881-0.549,1.339-0.911c0.87-0.688,1.43-1.268,1.555-2.135c0.063-0.44-0.026-1.965-0.525-2.473
		c-0.71-0.725-1.61-1-2.583-0.995c-0.975,0.006-1.827,0.327-2.465,0.938c-0.017,0.016-0.03,0.033-0.041,0.053
		c-0.592,1.097-0.025,1.685,0.676,2.157c0.01,0.006,0.02,0.012,0.03,0.017c1.96,0.905,3.462,0.719,4.47-0.552
		c0.038,0.246,0.049,0.467,0.032,0.67c-0.071,0.856-0.645,1.398-1.798,2.276c-0.04,0.03-0.086,0.07-0.131,0.095
		c-1.798,0.366-3.59-0.088-4.72-1.193c-1.111-1.087-1.194-1.955-0.96-3.487c-0.003,0.015-0.007,0.03-0.013,0.044
		c0.251-0.655,1.039-2.24,2.932-2.818c-0.009,0.003-0.017,0.005-0.025,0.006c2.55-0.457,4.825,0.161,6.245,1.695
		c0.046,0.049,0.112,0.074,0.179,0.068c0.067-0.007,0.128-0.044,0.163-0.102c0.571-0.932,0.531-2.191,0.434-3.183
		c-0.007-0.063-0.04-0.12-0.091-0.156c-0.052-0.036-0.117-0.048-0.178-0.032c-1.062,0.275-2.424,0.546-3.78,0.289
		c3.121-3.098,5.588-5.977,7.514-8.771c-0.102,4.532,0.381,8.692,1.35,11.629c-0.14-0.087-0.279-0.175-0.417-0.262
		c-0.839-0.531-1.667-1.105-2.107-1.994c-0.043-0.086-0.138-0.134-0.232-0.116s-0.167,0.096-0.176,0.192
		c-0.151,1.604-0.327,2.509-1.026,3.958c-0.03,0.062-0.028,0.136,0.005,0.196c1.268,2.335-0.288,5.575-1.643,7.182
		c-1.83,2.188-6.588,3.766-9.177,4.02c-0.09,0.008-0.164,0.072-0.188,0.158s0.01,0.18,0.082,0.23
		c0.861,0.619,1.851,1.078,2.897,1.564c1.384,0.643,2.807,1.305,4.037,2.387c-0.56-0.205-1.197-0.389-1.922-0.553
		c-0.067-0.016-0.14,0.004-0.192,0.051c-0.052,0.049-0.077,0.117-0.068,0.188c0.319,2.533,0.231,4.42-0.285,6.115
		c-0.101,0.451-0.253,0.904-0.416,1.385c-0.344,1.016-0.699,2.066-0.538,3.074c0.004,0.023,0.012,0.047,0.023,0.068
		c0.545,1.014,1.222,1.188,2.005,1.389c0.344,0.09,0.699,0.182,1.102,0.35c0.021,0.01,0.043,0.016,0.065,0.018
		c0.561,0.047,1.101,0.639,1.397,1.137c-0.619-0.271-1.31-0.445-1.902-0.182c-1.598,0.221-2.461-0.467-3.297-1.133
		c-0.418-0.332-0.813-0.648-1.288-0.848c-0.092-0.039-0.198-0.01-0.257,0.07c-1.276,1.736-2.724,1.902-4.256,2.08
		c-0.713,0.084-1.448,0.168-2.169,0.42C417.537,324.428,416.915,324.346,416.405,324.469L416.405,324.469z M398.903,322.832
		c-0.978,0.082-2.216,0.393-3.109,0.779c-1.06-0.047-1.754,0.01-2.374,0.209c0.096-0.25,0.309-0.486,0.658-0.734
		c0.048-0.035,0.081-0.088,0.088-0.146c0.038-0.287,1.271-0.463,2.007-0.568c0.588-0.084,1.11-0.211,1.523-0.338
		c0.366-0.109,0.684-0.266,0.752-0.432c0.032-0.072,0.023-0.154-0.024-0.217c-0.046-0.063-0.123-0.096-0.199-0.084l-0.177,0.021
		c-1.477,0.182-3.151,0.389-4.711,0.207c0.015,0.002,0.03,0.006,0.045,0.01c-0.706-0.242-1.289-0.381-1.805-0.301
		c0.3-0.441,0.731-0.879,1.367-1.023c0.009,0,0.017-0.004,0.026-0.006c0.678-0.248,1.383-0.035,2.13,0.188
		c0.708,0.213,1.439,0.432,2.181,0.254c0.078-0.02,0.14-0.08,0.159-0.158s-0.007-0.16-0.067-0.213
		c-0.824-0.719-1.679-0.973-2.862-1.322l-0.153-0.045c-0.478-0.49-1.146-0.828-1.813-0.939c0.719-0.246,1.726-0.391,2.567-0.414
		c0.177,0.154,0.35,0.311,0.518,0.463c0.847,0.764,1.648,1.488,2.856,1.969c0.051,0.021,0.109,0.021,0.161,0
		c0.877-0.354,1.268-0.371,2.324-0.105c0.037,0.01,0.076,0.01,0.113-0.002c1.496-0.441,2.957-1.4,4.006-2.631
		c0.063-0.074,0.069-0.182,0.014-0.262c-0.352-0.508-1.278-0.74-2.259-0.986c-0.678-0.172-1.379-0.35-1.871-0.613
		c-0.646-0.41-1.771-1.295-1.895-2.51c-0.037-0.402,0.406-0.943,0.797-1.422c0.325-0.396,0.631-0.771,0.747-1.131
		c0.021-0.064,0.011-0.135-0.027-0.189c-0.039-0.055-0.101-0.088-0.168-0.092c-1.815-0.084-4.883,0.893-7.815,1.902
		c-1.122,0.385-2.244,0.773-3.367,1.158c-0.083,0.029-0.143,0.107-0.147,0.195c-0.029,0.578-0.074,1.121-0.299,1.762
		c-0.214-0.365-0.459-0.625-0.829-0.779c0.184-0.453,0.344-0.92,0.505-1.381l0.096-0.275c0.028-0.08,0.007-0.168-0.054-0.227
		c-0.26-0.25-0.546-0.361-0.849-0.334c-0.453,0.043-0.913,0.4-1.408,1.092c-0.006,0.008-0.011,0.018-0.016,0.027
		c-1.624,3.168-2.955,4.637-5.574,7.4c-0.041,0.043-0.062,0.102-0.06,0.16c0.003,0.059,0.03,0.113,0.074,0.152
		c0.871,0.758,1.611,0.959,2.549,1.215c0.253,0.068,0.514,0.141,0.798,0.227c0.069,0.209,0.326,0.496,0.848,1.053
		c0.214,0.227,0.504,0.535,0.673,0.75c-0.204-0.072-0.569-0.229-1.215-0.564c-0.024-0.012-0.05-0.021-0.077-0.023
		c-2.241-0.23-3.621-0.83-4.476-1.945c-0.051-0.066-0.138-0.098-0.22-0.078c-0.083,0.02-0.146,0.084-0.162,0.168
		c-0.123,0.621-0.405,0.748-1.062,0.896c-0.722,0.004-1.069,0.146-1.324,0.25c-0.189,0.078-0.303,0.125-0.516,0.098
		c-0.092-0.012-0.181,0.037-0.221,0.121c-0.332,0.689-1.041,0.656-1.862,0.619c-0.604-0.025-1.226-0.055-1.708,0.242
		c-0.936-0.145-1.451-0.082-2.169,0.234c0.359-0.605,0.854-1.203,1.728-1.461c-0.015,0.004-0.029,0.006-0.044,0.008
		c0.622-0.049,1.127-0.029,1.573-0.01c0.796,0.031,1.483,0.059,2.48-0.293c0.021-0.008,0.042-0.02,0.061-0.035
		c0.094-0.072,0.269-0.211,0.237-0.404c-0.032-0.195-0.213-0.258-0.513-0.365c-0.081-0.027-0.172-0.059-0.274-0.098
		c-0.024-0.01-0.051-0.014-0.076-0.014c-0.464,0-0.897,0.104-1.317,0.205c-0.642,0.154-1.195,0.287-1.733,0.037
		c-0.033-0.016-0.07-0.021-0.106-0.02c-0.162,0.012-0.335-0.029-0.52-0.072c-0.321-0.074-0.681-0.158-1.011,0.053
		c-0.922-0.379-1.565-0.408-2.462-0.063c0.4-0.551,0.985-0.848,1.947-1.025c1.031,0.121,2.064,0.203,3.099,0.275l1.098,0.082
		c0.091,0.006,0.177-0.045,0.213-0.127c0.037-0.084,0.019-0.182-0.046-0.244c-0.395-0.383-0.801-0.621-1.255-0.789
		c-0.747-0.277-1.57-0.365-2.356-0.488c-0.475-0.189-0.844-0.258-1.22-0.193c0.714-0.605,1.6-0.93,2.607-0.945
		c0.828,0.684,1.775,1.182,2.693,1.664c0.355,0.188,0.69,0.363,1.019,0.551c0.038,0.021,0.081,0.031,0.123,0.027
		c0.979-0.076,1.373-0.145,2.292-0.67c0.063-0.035,0.103-0.1,0.108-0.172c0.068-0.994,0.79-1.811,1.756-1.984
		c0.059-0.01,0.11-0.045,0.143-0.094c0.032-0.051,0.043-0.111,0.028-0.17c-0.233-0.941-0.088-1.461,0.502-1.787
		c0.097-0.055,0.137-0.176,0.092-0.277c-0.294-0.658-0.266-0.895,0.494-1.418c0.098-0.066,0.122-0.201,0.056-0.299
		c-0.33-0.484-0.304-0.994,0.079-1.563c0.057-0.084,0.047-0.195-0.022-0.27c-0.07-0.072-0.181-0.088-0.268-0.035
		c-0.925,0.555-1.912,0.576-3.104,0.068c-0.076-0.033-0.165-0.02-0.227,0.035s-0.088,0.141-0.065,0.221
		c0.203,0.719-0.031,1.195-0.357,1.744c-0.009,0.016-0.017,0.033-0.021,0.051c-0.305,1.037-0.894,1.791-1.685,2.178
		c0.507-0.953,0.6-1.803,0.317-2.752c-0.009-0.029-0.023-0.057-0.042-0.078c-1.071-1.252-2.167-2.492-3.199-3.775
		c-2.021-2.514-3.379-4.789-4.333-8.878c-0.018-0.077-0.077-0.139-0.154-0.159c-0.077-0.021-0.159,0.003-0.213,0.06
		c-0.857,0.913-1.126,1.849-1.386,2.753c-0.176,0.613-0.325,1.17-0.67,1.697c-0.594,0.553-1.442,0.775-1.928,0.773
		c1.126-0.805,0.85-1.641,0.709-2.064c0.214-0.354,0.488-0.773,0.776-1.217c0.647-0.992,1.38-2.119,1.719-2.936
		c0.027-0.064,0.021-0.138-0.016-0.197c-0.599-0.956-0.813-2.19-1.04-3.496c-0.196-1.134-0.399-2.306-0.878-3.317
		c0.251-0.9,0.339-1.583-0.438-2.096c0.569,0.02,1.065,0.164,1.402,0.415c0.265,0.198,0.427,0.455,0.479,0.765
		c0.009,0.051,0.007,0.11,0.012,0.21c0.061,1.346,0.425,2.943,1.286,3.596c0.059,0.044,0.136,0.056,0.205,0.031
		c0.069-0.026,0.121-0.085,0.136-0.158c0.325-1.522,0.559-3.02-0.132-4.609c0.359-0.638,0.473-1.184,0.347-1.664
		c-0.059-0.224-0.17-0.434-0.333-0.626c1.143,0.325,1.843,0.996,1.92,1.881c-0.364,1.283-0.293,1.854-0.217,2.459
		c0.064,0.509,0.129,1.035-0.076,2.089c-0.022,0.116,0.052,0.228,0.168,0.252c0.115,0.024,0.229-0.05,0.254-0.165
		c0.131-0.595,0.377-0.964,0.615-1.321c0.281-0.422,0.572-0.858,0.605-1.602c0.279-0.554,0.525-1.142,0.462-1.783
		c0.557,0.609,0.858,1.367,0.874,2.185c0.006,0.334-0.026,0.81-0.149,1.125c-0.052,0.137-0.169,0.296-0.246,0.423
		c-0.31,0.51-0.655,0.999-1.052,1.446c-0.412,0.464-0.866,0.87-1.398,1.26c-0.077,0.057-0.109,0.159-0.074,0.25
		c0.604,1.596,1.267,3.172,1.34,4.906c0.002,0.074,0.044,0.143,0.108,0.18l0.25,0.139c1.825,1.031,3.713,2.098,4.991,3.746
		c0.045,0.059,0.117,0.09,0.19,0.084c0.184-0.018,0.286-0.107,0.34-0.182c0.179-0.24,0.099-0.633-0.004-1.131
		c-0.139-0.678-0.309-1.504,0.129-2.068c1.792,2.57,4.003,1.504,5.243,0.785c0.102,0.832,0.291,1.641,0.588,2.42
		c0.001,0,0.001,0.002,0.002,0.004c-0.944,2.092-3.19,1.799-4.985,1.498l-0.198-0.033c-0.118-0.02-0.229,0.061-0.249,0.178
		c-0.019,0.119,0.06,0.229,0.178,0.248l0.198,0.033c1.647,0.275,4.403,0.736,5.49-1.84c0.008,0.002,0.016,0.006,0.025,0.008
		c0.068,0.014,0.137-0.006,0.188-0.053c0.553-0.5,1.444-0.875,2.521-1.066c0.427,1.162,0.457,2.586,0.081,4.029
		c-0.029,0.109,0.033,0.223,0.142,0.26c0.108,0.035,0.225-0.02,0.267-0.125c0.616-1.537,1.301-2.742,2.592-3.578
		c0.354,1.291,0.234,2.941,0.137,4.285c-0.007,0.109,0.068,0.207,0.176,0.229c0.108,0.02,0.214-0.045,0.246-0.15
		c0.425-1.395,1.406-2.047,2.462-2.705c0.567,0.504,1.396,1.471,1.435,2.84c0.003,0.105,0.08,0.191,0.183,0.207
		c0.099,0.016,0.193-0.039,0.231-0.131c0.082-0.213,0.176-0.475,0.275-0.691c0.584-1.27,1.456-2.072,2.808-2.613
		c1.109,0.193,1.764,1.168,2.291,2.068c0.041,0.07,0.115,0.111,0.195,0.107s0.151-0.051,0.186-0.123
		c0.527-1.098,1.585-2.531,2.83-2.949c0.602-0.189,1.336-0.088,2.188,0.305c-0.001,0-0.001,0.002-0.002,0.004
		c-0.253,0.877-0.837,1.631-1.561,2.014c-0.069,0.035-0.113,0.107-0.114,0.186c-0.002,0.078,0.038,0.15,0.106,0.191
		c0.604,0.352,0.956,0.842,1.11,1.543c0.016,0.072,0.067,0.131,0.137,0.156c0.753,0.277,1.711,0.771,1.993,1.555
		c0.02,0.055,0.061,0.1,0.114,0.123c0.621,0.279,1.116,1.129,1.085,1.627c-0.006,0.102,0.059,0.193,0.155,0.221
		c1.745,0.508,3.151,0.918,4.319,1.971c-0.61-0.01-1.072,0.121-1.454,0.26c-0.033,0.014-0.063,0.033-0.087,0.061
		c-0.972,1.096-1.993,1.971-3.213,2.754c-1.549,1.107-3.519,2.238-4.692,2.697c-0.075,0.029-0.128,0.1-0.136,0.18
		c-0.008,0.082,0.03,0.16,0.099,0.203c0.997,0.635,1.887,1.127,3.449,1.217c0.473,0.33,0.853,0.869,1.04,1.229
		c-0.344-0.111-0.766-0.223-1.639-0.166c-1.416-0.811-3.058-1.645-4.693-1.488c-0.244,0.029-0.47,0.049-0.688,0.07
		C400.338,322.541,399.713,322.6,398.903,322.832L398.903,322.832z"/>
	<path fill-rule="evenodd" clip-rule="evenodd" fill="url(#colour0)" d="M382.569,282.252c0.436,0.033,0.853-0.081,1.175-0.378
		c0.322-0.296,0.533-0.723,0.584-1.171c0.276,0.01,1.9,0.134,2.085-0.413c0.039-0.113-0.022-0.235-0.135-0.274
		c-0.089-0.03-0.185,0.001-0.239,0.071c-0.056,0.071-0.046,0.075-0.113,0.102c-0.139,0.056-0.401,0.083-0.74,0.092
		c-1.028,0.024-2.768-0.131-3.948-0.236c-0.623-0.056-1.246-0.113-1.87-0.154c-0.119-0.008-0.222,0.082-0.229,0.201
		c-0.008,0.119,0.082,0.222,0.201,0.229c0,0.011,0.829,0.069,1.184,0.095C380.968,281.441,381.388,282.027,382.569,282.252
		L382.569,282.252z"/>
</g>
</svg>
