<?xml version="1.0" encoding="utf-8"?>
<!-- Generator: Adobe Illustrator 14.0.0, SVG Export Plug-In . SVG Version: 6.00 Build 43363)  -->
<!DOCTYPE svg PUBLIC "-//W3C//DTD SVG 1.0//EN" "http://www.w3.org/TR/2001/REC-SVG-20010904/DTD/svg10.dtd">
<svg version="1.0" id="Layer_1" xmlns="http://www.w3.org/2000/svg" xmlns:xlink="http://www.w3.org/1999/xlink" x="0px" y="0px"
	 width="200px" height="178px" viewBox="0 0 200 178" enable-background="new 0 0 200 178" xml:space="preserve">
<defs>
   <linearGradient id="colour1">
     <stop offset="100%" stop-color="#EA4761"/>
   </linearGradient> 
 </defs>
<g id="_x23_ea4761ff">
	<path fill="url(#colour1)" d="M98.87,9c3.54,7.98,6.59,16.17,9.31,24.46c2.891-4.44,4.78-9.55,8.221-13.61
		c4.02,6.37,6.92,13.35,10.07,20.17c3.68-3.81,7.5-7.48,11.569-10.87c1.399,6.7,2.5,13.46,3.351,20.26
		c4.109-2.33,8.27-4.6,12.469-6.78c-0.08,9.77-1.33,19.49-3.459,29.02c6.399-1.42,12.92-2.26,19.43-3.02
		c-3.87,9.17-8.53,18-13.9,26.39c-4.05-1.02-8.15-1.869-12.08-3.319c2.26-6.17,5.18-12.22,5.92-18.81
		c-2.77-0.66-5.56,0.24-8.289,0.69c0.41-7.95,0.459-15.92-0.121-23.86c-3.26,1.95-6.489,3.94-9.6,6.12l-0.439,0.31
		c-1.17-5.38-2.791-10.67-4.98-15.72c-4.35,4.41-8.22,9.27-12.27,13.96c-2.03-6.76-3.85-13.59-5.58-20.43
		c-3.77,7.08-6.33,14.69-9.12,22.18c-0.26,0.21-0.77,0.62-1.02,0.83c-2.19-7.71-4.95-15.27-8.87-22.28
		c-2.55,6.47-3.71,13.37-6.05,19.91c-3.77-4.86-7.6-9.68-11.9-14.09c-1.93,4.99-3.61,10.08-5.38,15.13
		c-3.27-1.89-6.5-3.84-9.71-5.83c-0.28,6.31-0.28,12.63-0.71,18.94c-1.44-0.09-2.88-0.16-4.32-0.21c0.18,0.78,0.52,2.36,0.69,3.14
		c-1.47,0.46-2.93,0.93-4.4,1.39c0.65,2.52,1.31,5.04,2,7.55c-1.12,4.11-3.5,7.68-5.21,11.54c-0.89,2.04,1.1,3.82,2.74,4.64
		c2.29,1.38,5.01,0.681,7.48,0.31c0.98,0.511,1.95,1.051,2.89,1.621c4.69,5.119,9.77,10.5,16.91,11.869l0.54,0.16
		c0.85,1.28,1.7,2.551,2.56,3.82c-2.72,2.09-5.53,4.04-8.39,5.92c-11.96-5.141-20.71-15.35-27.69-26.01
		c-5.29-8.17-9.88-16.81-13.5-25.85c6.47,0.74,12.94,1.63,19.32,2.99c-2.25-9.51-3.12-19.28-3.66-29.01
		c4.33,2.15,8.58,4.42,12.7,6.94c0.82-6.87,1.81-13.73,3.36-20.47c4.01,3.5,7.87,7.17,11.55,11.02c3.08-7,6.14-14.06,10.28-20.52
		c2.77,4.52,5.33,9.16,7.74,13.88C92.49,25.31,95.22,16.97,98.87,9z"/>
	<path fill="url(#colour1)" d="M48.87,96.221c-3.08-3.781,0.15-8.061,1.66-11.771c1.54,2.95,2.98,5.93,4.34,8.96
		c-0.59,1.05-1.17,2.109-1.74,3.18C51.71,96.45,50.29,96.33,48.87,96.221z"/>
	<path fill="url(#colour1)" d="M95.73,90.12c1.05-1.47,2.16-2.89,3.26-4.32c1.02,1.46,2.06,2.92,3.029,4.42
		c1.51,2.921,2.49,6.11,2.59,9.41c-1.909,5.53-1.81,11.44-0.08,17c1.851-1.78,3.48-3.909,5.771-5.149
		c3.88-0.461,7.83,0.39,11.681-0.451c4.43-0.939,8.68-2.949,12.119-5.92c3.57-3.25,6.121-7.42,8.91-11.319
		c4.07,0.55,8.09,1.399,12.04,2.51c-7.079,10.06-15.579,20.29-27.64,24.32c-7.82,2.659-16.29,0.521-23.15-3.66
		c-1.76,1.22-3.529,2.42-5.3,3.61c-1.9-1.2-3.79-2.41-5.67-3.631c-6.61,4.381-14.76,5.881-22.49,4.07
		c3.15-3.039,8.62-4.289,9.65-9.029c2.14-0.351,4.28-0.83,6.45-0.801c2.55,1.311,4.45,3.561,6.54,5.461
		c1.35-5.33,1.2-10.83-0.2-16.141C93.11,96.87,94.11,93.35,95.73,90.12z"/>
</g>
<g id="_x23_e14847ff">
	<path fill="#E14847" d="M99.37,56.14c2.79-7.49,5.351-15.1,9.12-22.18c1.73,6.84,3.55,13.67,5.58,20.43
		c4.05-4.69,7.92-9.55,12.27-13.96c2.189,5.05,3.811,10.34,4.98,15.72c-4.19,2.94-8.12,6.23-11.791,9.79
		c-2.659-2.53-5.17-5.34-8.51-7.01C107.5,56.83,103.34,56.53,99.37,56.14z"/>
	<path fill="#E14847" d="M89.48,34.69c3.92,7.01,6.68,14.57,8.87,22.28c-2.19-1.479-3.78-3.85-6.27-4.86
		c-2.38-0.03-5.07,0.36-6.84,2.11c-0.87,1.45-1.26,3.12-1.82,4.7c-0.97,3.13-1.59,6.36-2.23,9.58c-4.74-4.46-9.67-8.72-14.99-12.46
		c-0.82,3.9-1.68,7.81-1.88,11.79c-2.31,0.91-4.39,2.29-6.33,3.83c-0.58-0.45-1.75-1.34-2.33-1.79l0.07-1.12
		c0.43-6.31,0.43-12.63,0.71-18.94c3.21,1.99,6.44,3.94,9.71,5.83c1.77-5.05,3.45-10.14,5.38-15.13c4.3,4.41,8.13,9.23,11.9,14.09
		C85.77,48.06,86.93,41.16,89.48,34.69z"/>
	<path fill="#E14847" d="M131.76,55.84c3.11-2.18,6.34-4.17,9.6-6.12c0.58,7.94,0.531,15.91,0.121,23.86
		c2.729-0.45,5.52-1.35,8.289-0.69c-0.74,6.59-3.66,12.64-5.92,18.81c-1.899-1.37-3.82-2.71-5.699-4.11
		c1.369-4.38,2.359-8.86,2.959-13.41c-2.369,0.6-4.729,1.22-7.1,1.84C133.76,69.25,132.9,62.52,131.76,55.84z"/>
	<path fill="#E14847" d="M86.43,59.11c0.36-2.05,0.79-4.08,1.26-6.1c3.1-0.17,5.24,1.55,6.37,4.31c5.49-0.05,11.081,0.57,15.93,3.32
		c-1.61,3.06-3.11,6.18-4.5,9.35c-1.51-0.23-3.02-0.46-4.52-0.69c-0.571-3.28-1.201-6.55-1.921-9.8c-1.19,3.8-1.8,7.73-2.01,11.7
		c-1.2,0.32-2.4,0.66-3.61,0.98l-1.05-0.08c0.25-2.26,0.42-4.53,0.53-6.8C90.46,63.55,88.33,61.43,86.43,59.11z"/>
	<path fill="#E14847" d="M102.38,71.38C102.641,71.64,102.641,71.64,102.38,71.38z"/>
	<path fill="#E14847" d="M47.7,73.07c1.47-0.46,2.93-0.93,4.4-1.39c0.32,0.59,0.94,1.77,1.26,2.35c-1.31,2.15-2.54,4.34-3.66,6.59
		C49.01,78.11,48.35,75.59,47.7,73.07z"/>
	<path fill="#E14847" d="M56.46,72.61c1.57-0.43,3.12-0.89,4.68-1.34c0.18,0.86,0.55,2.58,0.73,3.44c-1.73,0.07-3.45,0.02-5.18-0.01
		c0.61,5.1,1.9,10.1,3.94,14.83c-1.94,1.27-3.84,2.59-5.76,3.88c-1.36-3.03-2.8-6.01-4.34-8.96C52.23,80.37,54.06,76.33,56.46,72.61
		z"/>
	<path fill="#E14847" d="M98.91,77.79c1.01-1.73,2.71-2.89,4.199-4.17c-0.549,5.52-1.319,11.04-1.09,16.6
		c-0.97-1.5-2.01-2.96-3.029-4.42c-1.1,1.43-2.21,2.85-3.26,4.32c0.13-2.21,0.11-4.42,0.12-6.63c0.55-0.03,1.66-0.11,2.22-0.15
		C98.32,81.49,98.37,79.59,98.91,77.79z"/>
	<path fill="#E14847" d="M137.38,89.83c1.8,1.43,3.681,2.75,5.63,3.96c-2.789,3.899-5.34,8.069-8.91,11.319
		c-3.439,2.971-7.689,4.98-12.119,5.92c-3.851,0.841-7.801-0.01-11.681,0.451c-2.29,1.24-3.92,3.369-5.771,5.149
		c-1.729-5.56-1.829-11.47,0.08-17c0.851,3.771,2.781,7.149,4.811,10.399c4.26-5.68,12.189-4.129,17.52-8.059
		C131.58,99.08,134.71,94.48,137.38,89.83z"/>
	<path fill="#E14847" d="M58.9,92.07c0.5-0.32,1.49-0.971,1.98-1.29c2.92,5.09,6.7,9.739,11.91,12.63
		c0.3,2.449,0.9,4.859,1.72,7.189c-7.14-1.369-12.22-6.75-16.91-11.869c0.79-1.381,1.56-2.78,2.32-4.17
		C59.58,93.73,59.24,92.9,58.9,92.07z"/>
	<path fill="#E14847" d="M93.24,100.5c1.4,5.311,1.55,10.811,0.2,16.141c-2.09-1.9-3.99-4.15-6.54-5.461
		c-2.17-0.029-4.31,0.45-6.45,0.801l-1.05,0.14c-1.73-2.149-3.02-4.63-3.66-7.32c2.97,0.44,5.93,0.91,8.9,1.41
		c1.15,1.39,2.31,2.771,3.48,4.16C90.11,107.24,92,104.02,93.24,100.5z"/>
</g>
<g id="_x23_bf4547ff">
	<path fill="#BF4547" d="M66.2,56.04c5.32,3.74,10.25,8,14.99,12.46c0.64-3.22,1.26-6.45,2.23-9.58c1.51,3.11,3.94,5.59,6.86,7.4
		c-0.17,2.31,0.48,4.98-0.98,6.99c-1.6,1.81-3.61,3.2-5.45,4.76c-1.21-1.51-2.45-2.98-3.64-4.5c-0.78-0.98-1.53-1.97-2.29-2.97
		c-1.04,0.59-2.08,1.19-3.12,1.79c-1.18-0.96-2.04-2.55-3.63-2.85c-2.34-0.18-4.64,0.42-6.93,0.79c0.02-0.62,0.06-1.87,0.08-2.5
		C64.52,63.85,65.38,59.94,66.2,56.04z"/>
	<path fill="#BF4547" d="M131.32,56.15l0.439-0.31c1.141,6.68,2,13.41,2.25,20.18c2.37-0.62,4.73-1.24,7.1-1.84
		c-0.6,4.55-1.59,9.03-2.959,13.41c-4.94-2.83-10.69-1.93-16.03-1.12c-4.36-1.9-9.229-0.81-13.83-0.89
		c0.069-0.69,0.21-2.06,0.28-2.74c3.38-4.5,9.99-5.71,12.479-10.97c1.22-2.15-0.34-4.21-1.521-5.93
		C123.2,62.38,127.13,59.09,131.32,56.15z"/>
	<path fill="#BF4547" d="M97.04,71.2c0.21-3.97,0.82-7.9,2.01-11.7c0.72,3.25,1.35,6.52,1.921,9.8
		c-0.391,0.22-1.181,0.67-1.571,0.89c-0.72,2-1.34,4.07-2.4,5.93c-5,2.4-10.48,3.63-15.52,5.96c4.85-0.09,9.56,1.18,14.37,1.41
		c-0.01,2.21,0.01,4.42-0.12,6.63c-1.62,3.229-2.62,6.75-2.49,10.38c-1.24,3.52-3.13,6.74-5.12,9.87
		c-1.17-1.39-2.33-2.771-3.48-4.16c-2.97-0.5-5.93-0.97-8.9-1.41c0.01-2.3-0.46-4.649-2.11-6.35c-2.88-3.2-4.79-7.21-7.99-10.11
		c-1.72,0.16-3.36,0.72-5.01,1.19c-2.04-4.73-3.33-9.73-3.94-14.83c1.73,0.03,3.45,0.08,5.18,0.01c2.15,0.15,3.77-0.99,4.13-3.15
		c1.01-0.29,3.04-0.87,4.05-1.16c-2.1,2.79,1.75,3.51,3.09,5.02c0.57-0.01,1.71-0.03,2.28-0.04c1.82,1.22,3.67,2.51,5.78,3.18
		c4.58,0.03,8.65-2.78,11.18-6.46l1.05,0.08c0.06,0.65,0.19,1.96,0.25,2.62C94.94,73.74,96.46,72.83,97.04,71.2z"/>
	<path fill="#BF4547" d="M109.99,60.64c3.13,2.72,6.72,5.36,8.38,9.29c0.61,3.12-1.87,5.63-4.33,7.07
		c-3.069,1.88-5.96,4.04-8.7,6.37c0.131,1.07,0.27,2.14,0.4,3.21c3.9-0.12,7.98-1.56,11.75,0.03c3.38,1.49,6.98-0.21,10.48-0.08
		c3.43-0.021,6.52,1.63,9.409,3.3c-2.67,4.65-5.8,9.25-10.44,12.141c-5.33,3.93-13.26,2.379-17.52,8.059
		c-2.029-3.25-3.96-6.629-4.811-10.399c-0.1-3.3-1.08-6.489-2.59-9.41c-0.229-5.56,0.541-11.08,1.09-16.6
		c1.42-1.12,2.861-2.22,4.301-3.32c-0.48-0.08-1.439-0.23-1.92-0.31C106.88,66.82,108.38,63.7,109.99,60.64z"/>
	<path fill="#BF4547" d="M93.46,78.66c0.69-0.4,1.37-0.8,2.05-1.21c0.01,1.31,0.03,3.92,0.04,5.23c-2.41-1.07-4.98-1.62-7.55-2.15
		C89.53,79.19,91.39,78.42,93.46,78.66z"/>
	<path fill="#BF4547" d="M60.88,90.78c0.58-0.39,1.74-1.16,2.31-1.55c2.94,4.9,7.83,8.67,9.6,14.18
		C67.58,100.52,63.8,95.87,60.88,90.78z"/>
</g>
<g>
	<path d="M4.941,136.446c1.188,0,2.772,0.132,4.422,0.132c2.146-0.033,3.169-0.066,3.961-0.099c0.132,0.065,0.165,0.824,0,0.924
		c-0.759,0.165-1.221,0.264-1.65,0.396c-0.528,0.165-0.627,0.595-0.495,1.287c0.66,2.839,2.476,9.308,3.598,13.202
		c0,0,0.066,0,0.132-0.033c1.419-3.895,4.125-11.551,5.017-14.753c0.462,0.066,1.354,0.066,1.75,0
		c0.792,2.971,4.093,12.245,5.149,15.018c0.033,0.033,0.132,0,0.165-0.033c0.891-2.739,3.069-9.868,3.663-12.575
		c0.264-1.122,0.297-1.881-0.693-2.145c-0.528-0.133-1.023-0.231-1.947-0.363c-0.165-0.132-0.132-0.858,0-0.924
		c0.792,0,2.475,0.099,3.829,0.099c2.178,0,3.103-0.099,3.795-0.099c0.132,0.099,0.132,0.824,0,0.924
		c-0.66,0.132-1.089,0.23-1.452,0.363c-0.792,0.297-1.221,0.726-1.716,2.046c-1.419,3.861-4.356,13.235-5.545,17.262
		c-0.297,0-1.386,0-1.683,0.033c-0.759-2.74-3.96-11.948-5.182-15.183c-0.033,0-0.099,0.033-0.132,0.066
		c-1.485,4.125-4.191,11.717-5.248,15.083c-0.297-0.033-1.353-0.033-1.683,0.033c-0.99-4.06-3.664-13.962-4.72-17.196
		c-0.495-1.452-0.825-1.914-1.683-2.145c-0.561-0.165-0.924-0.231-1.75-0.363C4.743,137.271,4.776,136.545,4.941,136.446z"/>
	<path d="M44.607,152.948c1.684-3.993,4.786-12.409,5.512-14.521c0.264-0.693,0.495-1.42,0.561-1.882
		c0.132,0,0.528,0.033,1.089,0.033c0.66,0,0.99-0.033,1.089-0.033c0.132,0.495,0.297,1.089,0.528,1.717
		c0.66,1.881,4.324,12.344,5.479,15.083c0.957,2.211,1.188,2.376,3.564,2.673c0.132,0.1,0.033,0.825-0.066,0.957
		c-0.858-0.032-2.542-0.099-4.027-0.099c-1.617,0-3.63,0.066-4.323,0.099c-0.099-0.132-0.165-0.825-0.033-0.957
		c0.726-0.099,1.32-0.198,1.815-0.362c0.429-0.198,0.462-0.528,0.363-0.825c-0.396-1.42-1.386-4.192-1.98-5.677
		c-0.033-0.1-0.231-0.231-0.297-0.231c-0.462-0.033-1.617,0-3.103,0c-2.112,0-2.343-0.033-2.739,0c-0.132,0-0.297,0.198-0.33,0.297
		c-0.66,1.782-1.716,4.555-1.782,5.347c-0.033,0.562,0.033,0.925,1.056,1.188c0.396,0.099,0.957,0.198,1.584,0.264
		c0.099,0.132,0.033,0.825-0.066,0.957c-0.693,0-2.376-0.099-4.225-0.099c-1.881,0-2.904,0.099-3.531,0.099
		c-0.132-0.132-0.132-0.825,0-0.957C43.123,155.721,43.519,155.49,44.607,152.948z M50.912,140.011
		c-0.561,1.65-1.915,5.38-2.476,7.129c0,0.132,0.033,0.198,0.132,0.23c0.33,0.033,1.386,0.033,2.64,0.033
		c0.792,0,1.881,0,2.211-0.033c0.066,0,0.165-0.132,0.099-0.264c-0.66-2.046-1.915-5.71-2.442-7.129
		C51.043,139.978,50.944,139.944,50.912,140.011z"/>
	<path d="M68.168,136.479c0.792,0,2.772,0.099,3.795,0.099c2.442,0,4.159-0.066,5.479-0.066c3.861,0,5.908,2.311,5.908,5.083
		s-1.782,4.423-3.763,5.313c-0.066,0.066-0.099,0.165-0.066,0.231c1.155,1.849,3.763,5.479,5.38,7.129
		c1.353,1.387,1.815,1.551,3.795,1.815c0.066,0.099,0,0.858-0.198,0.924c-1.419,0.066-4.06-0.033-5.281-0.627
		c-0.495-0.231-1.023-0.627-1.584-1.32c-1.254-1.485-3.268-4.785-4.521-6.567c-0.231-0.33-0.561-0.495-0.825-0.495
		c-0.462-0.066-1.881-0.033-2.343-0.033c-0.066,0-0.132,0.165-0.132,0.198c0,1.814,0,4.885,0.066,5.974
		c0.066,1.122,0.297,1.419,1.056,1.584c0.495,0.099,1.089,0.198,1.848,0.297c0.165,0.132,0.099,0.825-0.066,0.957
		c-0.627,0-2.211-0.099-4.39-0.099c-2.146,0-3.564,0.099-4.192,0.099c-0.165-0.132-0.165-0.825,0-0.957
		c0.726-0.099,1.254-0.165,1.684-0.264c0.792-0.165,1.056-0.562,1.122-1.815c0.033-0.759,0.066-5.248,0.066-7.063
		c0-3.367,0-6.667-0.033-7.69c-0.033-0.924-0.264-1.32-1.089-1.519c-0.495-0.099-1.122-0.198-1.782-0.264
		C67.97,137.271,68.037,136.545,68.168,136.479z M74.109,137.799c-0.099,0.066-0.231,0.33-0.231,0.495
		c-0.066,1.122-0.066,5.611-0.066,8.186c0,0.066,0.066,0.165,0.165,0.165c2.211,0.066,3.63,0,4.257-0.264
		c1.056-0.495,2.146-1.684,2.146-3.829c0-3.103-1.584-4.918-5.116-4.918C75,137.634,74.439,137.667,74.109,137.799z"/>
	<path d="M97.241,152.948c1.684-3.993,4.786-12.409,5.513-14.521c0.264-0.693,0.494-1.42,0.561-1.882
		c0.132,0,0.527,0.033,1.089,0.033c0.66,0,0.99-0.033,1.089-0.033c0.133,0.495,0.297,1.089,0.528,1.717
		c0.66,1.881,4.323,12.344,5.479,15.083c0.957,2.211,1.188,2.376,3.564,2.673c0.131,0.1,0.033,0.825-0.066,0.957
		c-0.858-0.032-2.541-0.099-4.027-0.099c-1.617,0-3.63,0.066-4.322,0.099c-0.1-0.132-0.166-0.825-0.033-0.957
		c0.726-0.099,1.32-0.198,1.814-0.362c0.43-0.198,0.463-0.528,0.363-0.825c-0.396-1.42-1.387-4.192-1.98-5.677
		c-0.033-0.1-0.23-0.231-0.297-0.231c-0.462-0.033-1.617,0-3.103,0c-2.112,0-2.343-0.033-2.739,0c-0.132,0-0.297,0.198-0.33,0.297
		c-0.66,1.782-1.716,4.555-1.782,5.347c-0.033,0.562,0.033,0.925,1.056,1.188c0.396,0.099,0.957,0.198,1.584,0.264
		c0.099,0.132,0.032,0.825-0.066,0.957c-0.693,0-2.376-0.099-4.225-0.099c-1.881,0-2.904,0.099-3.531,0.099
		c-0.132-0.132-0.132-0.825,0-0.957C95.756,155.721,96.152,155.49,97.241,152.948z M103.545,140.011
		c-0.561,1.65-1.914,5.38-2.475,7.129c0,0.132,0.033,0.198,0.132,0.23c0.33,0.033,1.386,0.033,2.64,0.033
		c0.793,0,1.882,0,2.212-0.033c0.065,0,0.165-0.132,0.099-0.264c-0.66-2.046-1.914-5.71-2.441-7.129
		C103.678,139.978,103.578,139.944,103.545,140.011z"/>
	<path d="M133.675,156.975c-0.957,0-2.904-0.099-4.918-0.099c-2.442,0-4.126,0.099-4.983,0.099c-0.133-0.165-0.1-0.825,0-0.957
		c1.023-0.099,1.848-0.198,2.344-0.33c1.056-0.197,1.221-0.857,1.254-2.376c0.099-2.574,0.132-9.638,0.132-15.116
		c0-0.132-0.132-0.264-0.231-0.264c-0.561-0.033-3.003-0.033-4.258,0c-0.561,0.032-0.99,0.264-1.386,0.924
		c-0.396,0.627-0.825,1.815-1.287,3.069c-0.132,0.099-0.957-0.099-1.022-0.264c0.264-1.387,0.594-4.027,0.66-5.446
		c0-0.065,0.297-0.165,0.362-0.132c0.595,0.297,1.452,0.495,2.673,0.495h12.213c1.518,0,2.244-0.066,3.201-0.495
		c0.099,0,0.297,0.099,0.33,0.165c-0.33,1.155-0.594,3.796-0.76,5.578c-0.099,0.165-0.957,0.165-1.056,0.032
		c-0.099-1.154-0.265-2.31-0.528-2.938c-0.264-0.659-0.66-0.924-1.287-0.957c-1.551-0.032-3.861-0.032-4.621,0
		c-0.099,0.033-0.164,0.165-0.164,0.265c0,4.852,0,13.994,0.099,15.677c0.099,1.155,0.362,1.552,1.122,1.75
		c0.527,0.164,1.09,0.23,2.244,0.362C133.906,156.183,133.84,156.909,133.675,156.975z"/>
	<path d="M146.047,152.948c1.684-3.993,4.786-12.409,5.513-14.521c0.264-0.693,0.495-1.42,0.562-1.882
		c0.131,0,0.527,0.033,1.088,0.033c0.66,0,0.99-0.033,1.09-0.033c0.132,0.495,0.297,1.089,0.527,1.717
		c0.66,1.881,4.324,12.344,5.479,15.083c0.957,2.211,1.188,2.376,3.564,2.673c0.132,0.1,0.033,0.825-0.065,0.957
		c-0.859-0.032-2.542-0.099-4.027-0.099c-1.617,0-3.631,0.066-4.323,0.099c-0.099-0.132-0.165-0.825-0.033-0.957
		c0.726-0.099,1.32-0.198,1.815-0.362c0.429-0.198,0.462-0.528,0.363-0.825c-0.396-1.42-1.387-4.192-1.98-5.677
		c-0.033-0.1-0.231-0.231-0.297-0.231c-0.463-0.033-1.617,0-3.104,0c-2.111,0-2.343-0.033-2.738,0c-0.133,0-0.297,0.198-0.33,0.297
		c-0.66,1.782-1.717,4.555-1.783,5.347c-0.032,0.562,0.033,0.925,1.057,1.188c0.396,0.099,0.957,0.198,1.584,0.264
		c0.1,0.132,0.033,0.825-0.066,0.957c-0.692,0-2.375-0.099-4.225-0.099c-1.881,0-2.904,0.099-3.531,0.099
		c-0.131-0.132-0.131-0.825,0-0.957C144.563,155.721,144.959,155.49,146.047,152.948z M152.352,140.011
		c-0.561,1.65-1.914,5.38-2.476,7.129c0,0.132,0.033,0.198,0.132,0.23c0.33,0.033,1.387,0.033,2.641,0.033
		c0.792,0,1.881,0,2.211-0.033c0.066,0,0.166-0.132,0.1-0.264c-0.66-2.046-1.914-5.71-2.442-7.129
		C152.483,139.978,152.385,139.944,152.352,140.011z"/>
	<path d="M170.863,136.479c0.791,0,2.441,0.099,4.225,0.099c2.211,0,3.201-0.099,4.125-0.099c0.1,0.165,0.1,0.824-0.033,0.924
		c-0.594,0.099-1.221,0.198-1.584,0.297c-0.66,0.198-0.891,0.462-0.924,1.519c-0.066,1.221-0.033,2.904-0.033,6.139
		c0,0.132,0.066,0.297,0.165,0.33c0.231,0.033,0.825,0.065,5.61,0.065c3.631-0.032,4.885-0.032,5.182-0.065
		c0.1,0,0.198-0.132,0.198-0.198c0-1.716,0-5.445-0.065-6.634c-0.033-0.528-0.198-0.924-0.66-1.089
		c-0.496-0.165-1.09-0.265-1.947-0.363c-0.166-0.132-0.133-0.792,0.033-0.957c0.759,0,2.376,0.132,4.125,0.132
		c1.65,0,3.564-0.099,4.093-0.099c0.099,0.132,0.132,0.792,0,0.924c-0.726,0.099-1.287,0.198-1.716,0.33
		c-0.727,0.23-0.859,0.594-0.925,1.782c-0.065,1.155-0.065,3.103-0.065,7.03c0,2.871,0,6.502,0.065,7.624
		c0.099,0.924,0.298,1.287,0.925,1.485c0.461,0.164,1.088,0.264,2.111,0.362c0.1,0.132,0.066,0.858-0.132,0.957
		c-0.989,0-2.739-0.099-4.423-0.099c-1.683,0-3.333,0.066-4.191,0.099c-0.132-0.132-0.132-0.792,0-0.957
		c0.858-0.099,1.354-0.165,1.881-0.33c0.595-0.165,0.793-0.495,0.859-1.518c0.032-0.957,0.032-4.555,0.032-6.635
		c0-0.099-0.099-0.23-0.198-0.23c-0.627-0.033-3.432-0.033-5.248-0.033c-2.574,0-5.28,0-5.61,0.033
		c-0.065,0-0.099,0.165-0.099,0.198c0,1.815,0,5.61,0.033,6.304c0.065,1.122,0.197,1.584,1.023,1.815
		c0.494,0.132,0.99,0.264,1.979,0.396c0.132,0.165,0,0.892-0.132,0.957c-0.627,0-2.178-0.099-4.291-0.099
		c-1.947,0-3.729,0.099-4.389,0.099c-0.133-0.132-0.133-0.825-0.033-0.957c0.791-0.099,1.32-0.198,1.781-0.297
		c0.958-0.297,1.057-0.891,1.156-2.409c0-1.122,0.033-3.928,0.033-6.799c0-3.202-0.033-6.7-0.066-7.294
		c-0.066-0.925-0.264-1.287-0.924-1.452c-0.496-0.165-1.09-0.231-1.98-0.363C170.697,137.271,170.73,136.611,170.863,136.479z"/>
</g>
<g>
	<path d="M15.118,172.745c-0.493,0-1.496-0.051-2.533-0.051c-1.258,0-2.125,0.051-2.567,0.051c-0.068-0.085-0.051-0.425,0-0.493
		c0.527-0.051,0.952-0.102,1.207-0.17c0.544-0.102,0.629-0.441,0.646-1.224c0.051-1.326,0.068-4.963,0.068-7.785
		c0-0.068-0.068-0.136-0.119-0.136c-0.289-0.018-1.546-0.018-2.192,0c-0.289,0.017-0.51,0.136-0.714,0.476
		c-0.204,0.323-0.425,0.936-0.663,1.581c-0.068,0.051-0.493-0.051-0.527-0.136c0.136-0.714,0.306-2.074,0.34-2.805
		c0-0.034,0.153-0.085,0.187-0.068c0.306,0.153,0.748,0.255,1.377,0.255h6.289c0.782,0,1.156-0.034,1.649-0.255
		c0.051,0,0.153,0.051,0.17,0.085c-0.17,0.595-0.306,1.955-0.391,2.873c-0.051,0.085-0.493,0.085-0.544,0.017
		c-0.051-0.595-0.136-1.189-0.272-1.513c-0.136-0.34-0.34-0.476-0.663-0.493c-0.799-0.017-1.989-0.017-2.38,0
		c-0.051,0.018-0.085,0.085-0.085,0.136c0,2.499,0,7.208,0.051,8.074c0.051,0.596,0.187,0.8,0.578,0.901
		c0.272,0.085,0.561,0.119,1.156,0.187C15.237,172.337,15.203,172.711,15.118,172.745z"/>
	<path d="M22.378,162.189c0.408,0,1.258,0.051,2.176,0.051c1.139,0,1.649-0.051,2.125-0.051c0.051,0.085,0.051,0.425-0.017,0.476
		c-0.306,0.052-0.629,0.103-0.816,0.153c-0.34,0.102-0.459,0.238-0.476,0.782c-0.034,0.629-0.017,1.495-0.017,3.161
		c0,0.068,0.034,0.153,0.085,0.17c0.119,0.018,0.425,0.034,2.89,0.034c1.87-0.017,2.516-0.017,2.668-0.034
		c0.051,0,0.102-0.067,0.102-0.102c0-0.884,0-2.805-0.034-3.417c-0.017-0.271-0.102-0.476-0.34-0.561
		c-0.255-0.085-0.561-0.136-1.003-0.188c-0.085-0.067-0.068-0.407,0.017-0.492c0.391,0,1.224,0.067,2.125,0.067
		c0.85,0,1.836-0.051,2.107-0.051c0.051,0.068,0.068,0.408,0,0.476c-0.374,0.052-0.663,0.103-0.884,0.17
		c-0.374,0.119-0.442,0.307-0.476,0.918c-0.034,0.596-0.034,1.598-0.034,3.621c0,1.479,0,3.349,0.034,3.927
		c0.051,0.476,0.153,0.663,0.476,0.765c0.238,0.085,0.561,0.136,1.088,0.187c0.051,0.068,0.034,0.442-0.068,0.493
		c-0.51,0-1.411-0.051-2.278-0.051c-0.867,0-1.717,0.034-2.159,0.051c-0.068-0.067-0.068-0.408,0-0.493
		c0.442-0.051,0.697-0.085,0.969-0.17c0.306-0.085,0.408-0.255,0.442-0.781c0.017-0.493,0.017-2.346,0.017-3.417
		c0-0.051-0.051-0.119-0.102-0.119c-0.323-0.017-1.768-0.017-2.703-0.017c-1.326,0-2.72,0-2.89,0.017
		c-0.034,0-0.051,0.085-0.051,0.103c0,0.935,0,2.89,0.017,3.246c0.034,0.578,0.102,0.816,0.527,0.936
		c0.255,0.067,0.51,0.136,1.02,0.203c0.068,0.085,0,0.459-0.068,0.493c-0.323,0-1.122-0.051-2.21-0.051
		c-1.003,0-1.92,0.051-2.261,0.051c-0.068-0.067-0.068-0.425-0.017-0.493c0.408-0.051,0.68-0.102,0.917-0.152
		c0.493-0.153,0.544-0.459,0.595-1.241c0-0.578,0.017-2.022,0.017-3.502c0-1.648-0.017-3.45-0.034-3.756
		c-0.034-0.477-0.136-0.663-0.476-0.748c-0.255-0.085-0.561-0.119-1.02-0.188C22.293,162.598,22.31,162.258,22.378,162.189z"/>
	<path d="M40.619,171.453c-1.02-1.121-1.462-2.55-1.462-4.079c0-1.258,0.374-2.346,1.054-3.281c0.935-1.291,2.788-2.158,4.539-2.158
		c3.468,0,5.218,2.532,5.218,5.304c0,1.495-0.34,2.566-1.037,3.535C47.877,172.235,46.16,173,44.46,173
		C42.828,173,41.502,172.405,40.619,171.453z M46.925,171.657c1.054-0.85,1.428-2.261,1.428-3.824c0-1.836-0.612-3.604-1.955-4.539
		c-0.612-0.425-1.343-0.68-2.227-0.68c-0.595,0-1.104,0.136-1.53,0.374c-1.241,0.731-1.819,2.261-1.819,3.995
		c0,1.784,0.663,3.722,2.159,4.691c0.595,0.374,1.258,0.577,2.125,0.577C45.82,172.252,46.483,172.031,46.925,171.657z"/>
	<path d="M55.085,162.189c0.408,0,1.428,0.051,1.955,0.051c1.258,0,2.142-0.034,2.822-0.034c1.989,0,3.043,1.19,3.043,2.618
		s-0.918,2.277-1.938,2.736c-0.034,0.034-0.051,0.085-0.034,0.119c0.595,0.952,1.938,2.822,2.771,3.672
		c0.697,0.714,0.935,0.799,1.955,0.935c0.034,0.051,0,0.442-0.102,0.477c-0.731,0.033-2.091-0.018-2.72-0.323
		c-0.255-0.119-0.527-0.323-0.816-0.68c-0.646-0.766-1.683-2.465-2.329-3.383c-0.119-0.17-0.289-0.255-0.425-0.255
		c-0.238-0.034-0.969-0.018-1.207-0.018c-0.034,0-0.068,0.085-0.068,0.103c0,0.935,0,2.516,0.034,3.076
		c0.034,0.578,0.153,0.731,0.544,0.816c0.255,0.051,0.561,0.102,0.952,0.152c0.085,0.068,0.051,0.426-0.034,0.493
		c-0.323,0-1.139-0.051-2.261-0.051c-1.104,0-1.835,0.051-2.159,0.051c-0.085-0.067-0.085-0.425,0-0.493
		c0.374-0.051,0.646-0.085,0.867-0.136c0.408-0.085,0.544-0.289,0.578-0.935c0.017-0.392,0.034-2.703,0.034-3.638
		c0-1.734,0-3.434-0.017-3.961c-0.017-0.476-0.136-0.68-0.561-0.781c-0.255-0.052-0.578-0.103-0.918-0.137
		C54.983,162.598,55.018,162.224,55.085,162.189z M58.145,162.869c-0.051,0.034-0.119,0.17-0.119,0.255
		c-0.034,0.578-0.034,2.89-0.034,4.216c0,0.034,0.034,0.085,0.085,0.085c1.139,0.034,1.87,0,2.193-0.136
		c0.544-0.255,1.105-0.867,1.105-1.972c0-1.598-0.816-2.533-2.635-2.533C58.604,162.784,58.315,162.802,58.145,162.869z"/>
	<path d="M70.844,171.453c-1.02-1.121-1.462-2.55-1.462-4.079c0-1.258,0.374-2.346,1.054-3.281c0.935-1.291,2.788-2.158,4.539-2.158
		c3.468,0,5.218,2.532,5.218,5.304c0,1.495-0.34,2.566-1.037,3.535c-1.054,1.462-2.771,2.227-4.471,2.227
		C73.054,173,71.728,172.405,70.844,171.453z M77.15,171.657c1.054-0.85,1.428-2.261,1.428-3.824c0-1.836-0.612-3.604-1.955-4.539
		c-0.612-0.425-1.343-0.68-2.227-0.68c-0.595,0-1.104,0.136-1.53,0.374c-1.241,0.731-1.819,2.261-1.819,3.995
		c0,1.784,0.663,3.722,2.159,4.691c0.595,0.374,1.258,0.577,2.125,0.577C76.045,172.252,76.708,172.031,77.15,171.657z"/>
	<path d="M85.209,162.189c0.306,0,1.36,0.051,2.159,0.051c0.799,0,1.581-0.051,2.006-0.051c0.068,0.051,0.068,0.425,0,0.476
		c-0.357,0.068-0.595,0.085-0.799,0.153c-0.391,0.119-0.493,0.306-0.51,0.901c-0.034,1.665-0.017,3.96,0.017,4.861
		c0.034,0.714,0.136,1.359,0.323,1.733c0.34,0.952,1.326,1.717,2.94,1.717c1.411,0,2.788-0.425,2.941-3.11
		c0.068-1.292,0.102-3.196,0.034-4.93c-0.017-0.85-0.204-1.071-0.765-1.173c-0.238-0.068-0.493-0.085-0.867-0.153
		c-0.068-0.067-0.051-0.425,0.017-0.476c0.306,0,1.054,0.051,2.04,0.051c0.765,0,1.53-0.051,1.819-0.051
		c0.051,0.051,0.068,0.442,0,0.476c-0.255,0.068-0.527,0.103-0.714,0.17c-0.493,0.137-0.595,0.442-0.612,1.258
		c-0.102,3.485-0.051,4.726-0.34,5.916c-0.493,2.295-2.329,2.991-4.113,2.991c-2.686,0-3.876-1.224-4.097-3.076
		c-0.136-1.071-0.102-5.389-0.136-6.256c-0.017-0.441-0.119-0.714-0.476-0.833c-0.187-0.067-0.578-0.118-0.884-0.17
		C85.124,162.614,85.141,162.24,85.209,162.189z"/>
	<path d="M111.1,172.354c-0.562,0.17-2.228,0.646-3.706,0.646c-3.978,0-6.068-2.006-6.068-5.592c0-2.244,1.139-3.995,2.991-4.828
		c0.952-0.441,1.989-0.646,3.314-0.646c1.377,0,2.346,0.271,3.366,0.374c-0.136,0.629-0.289,1.938-0.306,2.702
		c-0.051,0.085-0.477,0.119-0.561,0.052c-0.137-1.275-0.341-1.751-0.834-2.04c-0.526-0.306-1.207-0.477-2.312-0.477
		c-2.651,0-3.927,1.888-3.927,4.675c0,2.924,1.564,5.185,4.641,5.185c0.477,0,0.9-0.068,1.139-0.221
		c0.238-0.119,0.34-0.425,0.375-0.714c0.051-0.527,0.051-1.156,0.033-1.734c-0.033-0.561-0.136-0.765-0.629-0.9
		c-0.306-0.068-0.611-0.103-1.139-0.17c-0.085-0.052-0.051-0.442,0.018-0.493c0.526,0,1.342,0.051,2.379,0.051
		c1.003,0,1.514-0.034,1.854-0.051c0.051,0.051,0.051,0.459-0.018,0.51c-0.204,0.034-0.408,0.068-0.561,0.119
		c-0.323,0.102-0.408,0.323-0.426,0.815c-0.017,0.511-0.033,1.564,0,1.888c0.018,0.255,0.051,0.34,0.426,0.492
		C111.167,172.049,111.133,172.304,111.1,172.354z"/>
	<path d="M116.506,162.189c0.408,0,1.258,0.051,2.176,0.051c1.139,0,1.648-0.051,2.125-0.051c0.051,0.085,0.051,0.425-0.018,0.476
		c-0.306,0.052-0.629,0.103-0.816,0.153c-0.34,0.102-0.459,0.238-0.476,0.782c-0.034,0.629-0.017,1.495-0.017,3.161
		c0,0.068,0.033,0.153,0.085,0.17c0.118,0.018,0.425,0.034,2.89,0.034c1.869-0.017,2.516-0.017,2.668-0.034
		c0.052,0,0.103-0.067,0.103-0.102c0-0.884,0-2.805-0.034-3.417c-0.017-0.271-0.102-0.476-0.34-0.561
		c-0.255-0.085-0.561-0.136-1.003-0.188c-0.085-0.067-0.067-0.407,0.017-0.492c0.392,0,1.225,0.067,2.125,0.067
		c0.85,0,1.836-0.051,2.108-0.051c0.051,0.068,0.067,0.408,0,0.476c-0.374,0.052-0.663,0.103-0.884,0.17
		c-0.375,0.119-0.442,0.307-0.477,0.918c-0.033,0.596-0.033,1.598-0.033,3.621c0,1.479,0,3.349,0.033,3.927
		c0.051,0.476,0.153,0.663,0.477,0.765c0.238,0.085,0.561,0.136,1.088,0.187c0.051,0.068,0.033,0.442-0.068,0.493
		c-0.51,0-1.41-0.051-2.277-0.051s-1.717,0.034-2.159,0.051c-0.067-0.067-0.067-0.408,0-0.493c0.442-0.051,0.696-0.085,0.969-0.17
		c0.306-0.085,0.408-0.255,0.442-0.781c0.017-0.493,0.017-2.346,0.017-3.417c0-0.051-0.051-0.119-0.103-0.119
		c-0.322-0.017-1.768-0.017-2.702-0.017c-1.325,0-2.72,0-2.89,0.017c-0.034,0-0.051,0.085-0.051,0.103c0,0.935,0,2.89,0.017,3.246
		c0.034,0.578,0.103,0.816,0.527,0.936c0.255,0.067,0.51,0.136,1.02,0.203c0.068,0.085,0,0.459-0.067,0.493
		c-0.323,0-1.123-0.051-2.211-0.051c-1.002,0-1.92,0.051-2.26,0.051c-0.068-0.067-0.068-0.425-0.018-0.493
		c0.408-0.051,0.68-0.102,0.918-0.152c0.493-0.153,0.544-0.459,0.596-1.241c0-0.578,0.017-2.022,0.017-3.502
		c0-1.648-0.017-3.45-0.034-3.756c-0.034-0.477-0.136-0.663-0.477-0.748c-0.254-0.085-0.561-0.119-1.02-0.188
		C116.42,162.598,116.438,162.258,116.506,162.189z"/>
	<path d="M132.995,162.189c0.391,0,0.969,0.051,1.954,0.051c0.986,0,1.633-0.034,2.737-0.034c1.155,0,2.991,0.374,2.991,2.38
		c0,0.969-0.662,1.768-1.648,2.176c-0.033,0.018-0.033,0.051,0,0.068c1.326,0.306,2.396,1.122,2.396,2.617
		c0,1.411-0.832,2.363-2.125,2.924c-0.781,0.34-1.733,0.425-2.635,0.425c-0.764,0-2.753-0.085-3.875-0.051
		c-0.085-0.051-0.102-0.441-0.018-0.493c0.307-0.033,0.799-0.067,1.088-0.136c0.375-0.102,0.494-0.255,0.545-0.867
		c0.033-0.544,0.033-2.039,0.033-3.858c0-2.125,0.018-3.229-0.017-3.858c-0.017-0.476-0.17-0.629-0.459-0.714
		c-0.237-0.068-0.663-0.119-0.985-0.153C132.91,162.614,132.928,162.224,132.995,162.189z M136.055,162.853
		c-0.068,0.034-0.136,0.187-0.136,0.271c-0.017,0.493-0.052,2.295-0.052,3.502c0,0.034,0.052,0.085,0.086,0.085
		c0.187,0.017,0.578,0.034,1.054,0.034c0.833,0,1.173-0.085,1.376-0.204c0.545-0.323,0.8-0.918,0.8-1.581
		c0-1.479-0.918-2.158-2.533-2.158C136.463,162.802,136.225,162.818,136.055,162.853z M139.846,169.821
		c0-1.614-1.156-2.498-3.077-2.498c-0.255,0-0.696,0-0.815,0.033c-0.034,0-0.086,0.034-0.086,0.068c0,1.071,0,3.145,0.052,3.842
		c0.034,0.221,0.187,0.526,0.391,0.646c0.289,0.188,0.918,0.238,1.31,0.238C138.979,172.15,139.846,171.402,139.846,169.821z"/>
	<path d="M146.357,162.189c0.407,0,1.428,0.051,1.954,0.051c1.259,0,2.142-0.034,2.821-0.034c1.989,0,3.043,1.19,3.043,2.618
		s-0.918,2.277-1.938,2.736c-0.034,0.034-0.051,0.085-0.034,0.119c0.595,0.952,1.938,2.822,2.771,3.672
		c0.697,0.714,0.936,0.799,1.955,0.935c0.034,0.051,0,0.442-0.102,0.477c-0.73,0.033-2.091-0.018-2.72-0.323
		c-0.255-0.119-0.527-0.323-0.816-0.68c-0.646-0.766-1.683-2.465-2.329-3.383c-0.118-0.17-0.289-0.255-0.424-0.255
		c-0.238-0.034-0.969-0.018-1.207-0.018c-0.034,0-0.068,0.085-0.068,0.103c0,0.935,0,2.516,0.034,3.076
		c0.034,0.578,0.153,0.731,0.544,0.816c0.255,0.051,0.561,0.102,0.951,0.152c0.086,0.068,0.052,0.426-0.033,0.493
		c-0.323,0-1.139-0.051-2.262-0.051c-1.104,0-1.835,0.051-2.158,0.051c-0.085-0.067-0.085-0.425,0-0.493
		c0.374-0.051,0.646-0.085,0.867-0.136c0.408-0.085,0.544-0.289,0.578-0.935c0.017-0.392,0.033-2.703,0.033-3.638
		c0-1.734,0-3.434-0.017-3.961c-0.017-0.476-0.136-0.68-0.562-0.781c-0.254-0.052-0.577-0.103-0.918-0.137
		C146.255,162.598,146.289,162.224,146.357,162.189z M149.416,162.869c-0.051,0.034-0.118,0.17-0.118,0.255
		c-0.034,0.578-0.034,2.89-0.034,4.216c0,0.034,0.034,0.085,0.085,0.085c1.139,0.034,1.87,0,2.192-0.136
		c0.545-0.255,1.105-0.867,1.105-1.972c0-1.598-0.816-2.533-2.635-2.533C149.875,162.784,149.586,162.802,149.416,162.869z"/>
	<path d="M160.619,162.173c0.426,0,1.309,0.067,2.262,0.067h3.348c0.646,0,1.53-0.017,1.887-0.067
		c0.018,0.017,0.068,0.067,0.068,0.085c-0.136,0.51-0.255,1.648-0.306,2.328c-0.067,0.085-0.476,0.085-0.526,0.034
		c-0.052-0.493-0.119-0.782-0.188-1.037c-0.137-0.408-0.289-0.595-0.85-0.646c-0.323-0.018-2.381-0.018-2.602,0
		c-0.119,0.034-0.203,0.237-0.203,0.323c-0.018,0.951-0.018,2.838-0.018,3.604c0,0.051,0.034,0.119,0.085,0.119
		c0.681,0.017,1.989,0.017,2.601-0.034c0.374-0.034,0.493-0.238,0.578-0.511c0.068-0.187,0.137-0.425,0.188-0.68
		c0.102-0.051,0.492-0.034,0.561,0.051c-0.051,0.341-0.119,1.003-0.119,1.599c0,0.629,0.018,1.121,0.034,1.547
		c-0.085,0.085-0.493,0.102-0.578,0.017c-0.051-0.357-0.067-0.493-0.136-0.697c-0.068-0.237-0.188-0.459-0.578-0.492
		c-0.51-0.052-1.921-0.052-2.55-0.034c-0.034,0-0.085,0.085-0.085,0.136c0,0.782,0,2.584,0.034,3.399
		c0,0.34,0.187,0.578,0.391,0.646c0.341,0.085,1.819,0.102,2.517,0.102c0.73-0.017,0.951-0.17,1.258-0.561
		c0.271-0.307,0.629-0.986,0.85-1.496c0.085-0.017,0.425,0.102,0.492,0.187c-0.084,0.527-0.459,1.819-0.713,2.329
		c-0.103,0.188-0.205,0.272-1.055,0.272c-1.428,0-2.651-0.068-4.42-0.068c-1.139,0-1.988,0.051-2.686,0.051
		c-0.067-0.051-0.084-0.408-0.017-0.493c0.526-0.051,0.985-0.085,1.292-0.17c0.408-0.102,0.527-0.322,0.578-0.918
		c0.017-0.322,0.017-2.192,0.017-4.113c0-1.547,0-3.06-0.017-3.365c-0.034-0.612-0.102-0.766-0.51-0.867
		c-0.221-0.068-0.51-0.119-0.901-0.17C160.518,162.58,160.552,162.258,160.619,162.173z"/>
	<path d="M173.607,162.189c0.357,0,1.564,0.051,2.057,0.051c1.02,0,1.717-0.067,3.298-0.067c1.479,0,2.737,0.407,3.638,1.189
		c1.088,0.952,1.615,2.277,1.615,3.858c0,2.346-1.105,3.706-2.176,4.437c-1.055,0.748-2.329,1.156-4.063,1.156
		c-1.004,0-2.244-0.051-3.723-0.068h-0.85c-0.068-0.085-0.068-0.441,0-0.493c0.492-0.033,0.832-0.085,1.104-0.17
		c0.307-0.085,0.511-0.221,0.562-0.815c0.052-1.071,0.052-2.465,0.052-3.978c0-1.021,0-3.009-0.052-3.621
		c-0.034-0.595-0.187-0.748-0.612-0.85c-0.221-0.051-0.51-0.102-0.9-0.153C173.522,162.598,173.557,162.24,173.607,162.189z
		 M176.956,171.76c0.357,0.271,1.088,0.374,1.836,0.374c0.833,0,1.7-0.17,2.481-0.901c0.799-0.748,1.326-1.87,1.326-3.723
		c0-1.717-0.611-3.145-1.938-4.028c-0.766-0.51-1.785-0.697-3.009-0.697c-0.34,0-0.697,0.018-0.867,0.085
		c-0.067,0.034-0.17,0.153-0.187,0.306c-0.034,0.374-0.018,2.703-0.018,4.131c0,1.479,0,3.399,0.034,3.773
		C176.633,171.301,176.719,171.606,176.956,171.76z"/>
	<path d="M191.203,171.912c0.425,0.323,1.02,0.459,1.666,0.459c0.867,0,1.818-0.51,1.818-1.784c0-1.122-0.697-1.649-2.227-2.55
		c-1.513-0.867-2.533-1.7-2.533-3.229c0-1.819,1.496-2.873,3.35-2.873c1.172,0,1.869,0.221,2.583,0.289
		c-0.118,0.561-0.221,1.513-0.288,2.346c-0.052,0.102-0.442,0.102-0.494,0.017c-0.102-1.003-0.254-1.479-0.662-1.751
		c-0.374-0.271-0.867-0.356-1.377-0.356c-1.173,0-1.768,0.9-1.785,1.733c0,0.952,0.441,1.445,1.156,1.938
		c0.68,0.441,1.529,0.85,2.107,1.189c0.884,0.561,1.632,1.274,1.632,2.516c0,1.666-1.377,3.145-3.773,3.145
		c-1.021,0-2.04-0.322-2.448-0.526c-0.152-0.222-0.424-1.972-0.476-2.55c0.034-0.103,0.442-0.204,0.526-0.153
		C190.285,170.824,190.625,171.505,191.203,171.912z"/>
</g>
</svg>
