<?xml version="1.0" encoding="utf-8"?>
<!-- Generator: Adobe Illustrator 14.0.0, SVG Export Plug-In . SVG Version: 6.00 Build 43363)  -->
<!DOCTYPE svg PUBLIC "-//W3C//DTD SVG 1.1//EN" "http://www.w3.org/Graphics/SVG/1.1/DTD/svg11.dtd">
<svg version="1.1" id="Layer_1" xmlns="http://www.w3.org/2000/svg" xmlns:xlink="http://www.w3.org/1999/xlink" x="0px" y="0px"
	 width="643.46px" height="850.39px" viewBox="0 0 643.46 850.39" enable-background="new 0 0 643.46 850.39" xml:space="preserve">
<defs>
   <linearGradient id="colour1">
     <stop offset="100%" stop-color="#FFD200"/>
   </linearGradient>
</defs>
<g>
	<path fill="url(#colour1)" d="M373.635,242.354c1.348,1.389,4.053,1.25,4.355,3.335c-1.953-0.281-4.961,0.415-6.016-1.946
		c-0.303-0.835-0.596-1.946,0-2.781C373.332,239.854,373.029,241.939,373.635,242.354"/>
	<path fill="url(#colour1)" d="M383.098,242.396l-0.947,1.899l-0.371-0.12c-0.127-0.962-2.275-2.871-2.148-3.711
		C380.5,240.584,383.098,241.675,383.098,242.396"/>
	<path fill="url(#colour1)" d="M319.809,281.487c0,0-6.123-9.05-7.144-15.769c-0.601-4.001-1.089-8.281,1.973-10.195
		c12.911-2.336,26.915-1.06,37.631,4.675c6.563,4.243,11.814,12.319,20.789,9.128c5.029-4.033,12.471-1.909,17.061-6.58
		c5.469-4.46,1.318-11.045,1.318-16.57l-0.439-11.895c-1.533-3.186-5.693-2.119-8.096-3.611
		c-10.068-6.37-19.912-13.164-27.566-22.725c-3.285-2.759-3.066-6.794-5.688-9.98c-4.596-4.25-11.816-5.525-14.225-11.895
		c7.217-7.009,10.82-15.686,9.41-26.55c-0.264-1.985-1.09-5.024-1.09-5.024c-5.029,6.16-13.354,17.344-19.477,22.866
		c-0.654,0.64-1.094,1.914-0.221,2.764c0.654,0.635,2.188,0.425,2.627-0.215l14.219-16.99h0.66c0.219,8.284-2.627,16.14-8.316,22.09
		l-1.313-0.425c-0.221,0.21-1.094,0-0.875,0.635c5.469,5.095,10.283,11.68,16.627,15.93c1.752,1.909,0.85,6.78,3.041,8.479
		c9.625,8.711,18.543,14.49,28.602,22.351c2.412,1.699,7.734,0.391,9.492,3.149c-0.215,6.584,1.309,12.319,1.748,18.691
		c0.439,2.549,0,5.098-2.188,6.799c-3.496,4.67-9.844,3.394-14.883,2.759c-5.029-1.909-8.525-7.219-14.436-7.009v0.425
		c4.162,2.339,7.883,5.95,11.818,8.921v0.85c-0.879,1.06-2.412,1.274-3.721,1.274c-5.254-1.699-8.318-6.37-12.473-9.98
		c-3.502-1.699-7.002-4.038-10.943-4.465c0,0.642,0.664,0.642,0.439,1.277c-6.342-1.487-13.125-1.702-19.906-2.126l-1.529-0.425
		c0.875-1.909,2.617-3.394,3.277-5.305l-0.439-0.425c-3.936,3.821-8.531,5.945-13.345,7.004c-6.343,1.277-12.471-0.21-17.065-4.033
		c-6.997-7.007-11.592-16.99-7.217-26.545c8.97-4.46,21.66-5.31,30.85-0.85c12.25,3.394,20.782,15.288,33.032,18.474
		c-7.432-4.036-13.344-11.255-20.342-16.14c-6.133-2.974-11.816-6.794-18.603-7.859c-7.217-2.122-14.873,0.64-21.88,0.64
		c-0.215-2.126,1.318-4.036,3.066-5.735c11.382-2.761,25.381-2.336,35.225,3.184c9.189,2.976,19.691,3.401,26.475,11.68
		c1.313,1.277,3.061,2.976,4.809,2.766l-5.684-6.799c-5.248-6.587-12.91-8.706-21.006-9.556c-2.842-0.425-6.123-0.425-7.656-2.976
		c3.063-2.124,7.438-0.85,10.723-1.06c0.215-0.425-0.219-0.85-0.219-1.274c-1.754-2.976-4.596-5.1-8.096-4.885
		c0.219,1.06,1.527,1.06,2.188,2.124c0.439,0.42,0.873,1.272,0.219,1.697l-9.194,1.699l-8.97-1.484
		c-5.029-0.425-9.844,0.635-14.219,0.21c3.94-4.885,9.409-8.281,14.658-11.255l-0.439-0.21c-8.096,1.909-14.873,7.004-21.221,12.739
		c-4.375,1.909-8.97,3.401-13.13,5.735c-3.057,1.489-5.249,4.25-8.315,5.31c3.94-11.255,16.411-18.899,26.045-25.276l1.309-14.014
		l0.659-0.85c3.281,0.85,5.469-2.551,8.97-2.126c1.309,1.702-1.533,3.611-0.22,5.31c4.155-0.635,7.441-4.248,11.597-4.033
		c-0.22,1.484-1.533,2.974-0.879,4.668l5.693-0.635c1.748-1.274-1.752-0.85-1.538-2.334l3.5-6.584l-0.215-0.852
		c-4.375,0.212-8.095,2.761-12.255,3.186c-0.435-1.274,0.879-2.549,0.664-3.826c-1.318-1.06-3.066,0.43-4.385-0.21
		c-0.435-4.033,1.875-12.529,2.534-16.57l-3.955,4.565c-0.22,4.036-1.416,8.611-2.29,12.644l-0.884,1.272
		c-1.748,1.064-3.931,1.699-5.684,1.699c0.161-4.314,4.648-10.649,8.691-15.505c0.64-0.769,1.47-1.619,2.07-2.305
		c0.825-0.94,1.387-1.66,2.051-2.371c0,0-3.423,0-8.438,4.675c-3.677,3.425-5.029,7.012-6.782,10.835
		c-1.533,2.336-1.094,5.52-2.842,7.856c-4.595,1.699-8.535,4.883-12.69,7.859l-1.533-0.21c-4.59,2.119-8.53,5.945-12.031,9.771
		c-4.595,3.611-6.348,9.556-11.382,12.104c-5.688,7.434-7.876,16.565-8.97,25.911l-0.654,0.635c-0.874-0.635-1.313-1.27-2.407-1.27
		c-1.313,3.184-1.973,6.58-1.973,10.195c0.439,16.775,4.81,27.739,16.187,41.179l-6.338-13.145
		c-2.407-7.012-6.128-13.381-5.908-21.665c-0.22-1.702-0.654-4.25,0.874-5.52c1.094,0.425,1.094,2.334,2.412,1.694
		c0.215-8.706,1.089-18.049,3.716-26.125c0.879-1.694,1.099-4.246,3.501-4.456c5.908-8.284,11.597-17.205,20.347-23.789
		c1.094,0.425,0.439,2.124,1.748,1.699c4.38-3.608,8.97-8.708,14.443-9.985c0.439,2.766,0,5.737-0.215,8.496
		c-0.439,2.549-3.506,3.401-5.474,4.89c-19.692,12.314-31.289,31.855-29.751,54.37c0.654,8.284,3.931,15.291,8.53,22.09
		c1.968,3.186,7.305,8.689,10.107,11.079c-10.215-15.054-13.242-25.664-13.022-32.673c-0.879-15.505,7.871-31.011,22.974-36.531
		c-0.439,1.909-0.879,4.25-2.412,5.945c-10.938,7.219-17.285,19.541-14.873,32.92c1.528,5.735-0.293,11.345,24.463,29.409
		l0.146-0.215c-1.523-1.528-11.421-8.865-17.539-19.919c-5.249-8.494-5.029-21.45,0.874-29.734c1.528-2.336,3.066-4.67,5.688-5.945
		c0.439,7.644,1.753,15.505,7.661,21.023c5.029,5.095,11.377,7.646,18.594,8.286c0.435,2.124,0.728,6.826,1.162,9.16
		c0.2,1.565,2.729,9.194,9.917,16.169V281.487"/>
	<path fill="url(#colour1)" d="M236.064,345.044c1.187-4.197-0.215-4.551-4.16-4.551c-0.107,0.569-0.503,2.114-2.69,9.858
		C233.374,350.069,235.024,348.777,236.064,345.044 M241.694,345.152c-1.362,4.841-5.273,7.102-13.057,7.102
		c-1.504,5.488-2.007,7.209-2.578,10.654c-1.973-0.181-3.838-0.181-5.957,0c2.476-6.926,6.064-19.766,6.924-24.534
		c1.436,0.107,2.402,0.034,6.709,0.034C239.975,338.375,243.31,339.488,241.694,345.152"/>
	<path fill="url(#colour1)" d="M251.738,345.113c-0.898,1.255-2.441,3.162-5.527,8.181c1.65,0.144,2.441,0.144,6.421,0
		C252.417,350.855,252.099,347.408,251.738,345.113 M253.242,362.869c0,0-0.249-6.06-0.361-7.175c-4.16-0.105-5.522-0.071-8.428,0
		c-2.651,4.27-3.12,5.061-4.517,7.209c-1.396-0.144-2.222-0.105-3.12-0.144c0.503-0.681,8.501-12.156,16.929-24.78
		c0.391,0.071,1.079,0.215,2.729,0c2.476,21.484,2.686,22.629,2.939,24.78C258.046,362.835,256.181,362.688,253.242,362.869"/>
	<path fill="url(#colour1)" d="M278.061,345.01c1.04-3.728-0.469-4.595-4.448-4.595c-0.283,0.825-2.295,7.356-2.832,9.761
		C274.907,349.996,277.094,348.45,278.061,345.01 M274.477,362.906c-1.938-6.309-3.984-11.694-3.984-11.619
		c-1.758,6.274-2.544,9.075-2.974,11.619c-1.294-0.11-2.871-0.249-5.952,0c3.081-8.679,5.483-17.5,6.885-24.529
		c1.611,0.105,6.812-0.11,7.891-0.11c6.133,0,8.604,2.08,7.388,6.309c-0.791,2.8-2.549,4.88-7.534,6.206l4.629,12.124
		C280.141,362.837,277.705,362.623,274.477,362.906"/>
	<path fill="url(#colour1)" d="M296.86,362.906c-2.51-6.851-3.408-9.075-4.238-11.011c-2.041,7.246-2.432,8.821-2.793,11.011
		c-1.221-0.11-3.086-0.249-6.025,0c2.476-6.919,6.06-19.761,6.919-24.529c1.152,0.139,3.086,0.388,6.025,0
		c-0.752,1.899-2.007,5.984-3.477,11.223c3.12-2.654,8.569-7.568,12.266-11.223c0.464,0.068,2.222,0.283,4.409,0l-12.3,10.254
		l6.06,14.275C301.162,362.691,298.833,362.762,296.86,362.906"/>
	<path fill="url(#colour1)" d="M328.734,340.096c-1.934,0-3.838,1.365-4.34,3.12c-0.826,3.015,5.059,5.525,5.273,5.667
		c2.471,1.614,3.193,3.55,2.402,6.418c-1.402,4.805-6.025,8.105-11.441,8.105c-2.329,0-4.307-0.605-5.776-1.755
		c0.215-0.464,0.542-0.894,2.544-4.915h0.43c0.146,2.261,0.61,4.375,4.023,4.375c2.363,0,4.511-1.504,5.093-3.584
		c0.785-2.795-1.871-3.73-2.871-4.375c-3.511-2.117-5.635-3.84-4.551-7.676c1.211-4.409,5.518-7.571,10.219-7.571
		c2.148,0,4.16,0.61,5.592,1.76c-1.074,1.755-1.504,2.476-2.33,3.911h-0.395C332.285,341.241,330.996,340.096,328.734,340.096"/>
	<path fill="url(#colour1)" d="M349.721,341.136c-1.898,5.701-4.623,16.106-5.922,21.77c-1.211-0.11-3.082-0.249-6.021,0
		c0.504-1.399,2.402-7.783,6.455-21.77c-2.549,0.037-5.488,0.181-6.992,0.396c0.572-1.365,0.758-2.19,0.895-3.154
		c8.32,0.535,10.4,0.535,19.189,0c-0.215,0.43-0.719,1.47-0.898,3.154C354.994,341.316,352.266,341.172,349.721,341.136"/>
	<path fill="url(#colour1)" d="M378.918,348.13c-2.588,9.146-5.566,15.205-14.893,15.205c-6.6,0-10.002-1.97-7.527-10.796
		c1.793-6.384,2.975-10.544,3.691-14.165c0.322,0,2.654,0.361,6.033,0c-0.225,0.464-1.865,4.624-4.238,13.02
		c-2.297,8.105-1.223,9.824,3.232,9.824c7.275,0,8.564-5.164,10.361-11.55c0.967-3.335,1.758-6.309,2.725-11.294
		c0.576,0.071,1.543,0.286,3.623,0C380.275,343.179,379.523,345.689,378.918,348.13"/>
	<path fill="url(#colour1)" d="M388.566,360.936c6.055,0,10.254-3.66,12.227-10.657c1.436-5.129,1.006-9.79-6.025-9.79
		c-1.182,0-1.436,0-3.086,0.071c-0.82,2.08-5.313,17.935-5.742,20.156C386.916,360.86,387.658,360.936,388.566,360.936
		 M406.604,350.245c-2.119,7.529-7.744,12.661-18.33,12.661c-3.301,0-4.844-0.215-8.672,0c1.465-3.73,4.512-12.771,6.885-24.46
		c4.59,0.249,8.35-0.071,10.254-0.071C405.705,338.375,408.752,342.569,406.604,350.245"/>
	<path fill="url(#colour1)" d="M199.521,331.775c-1.68-0.261-3.872-0.386-6.65,0c-0.449-11.169-0.386-15.042-1.743-31.245
		c-4.194,6.455-5.552,8.455-19.692,31.245c-3.159-0.449-5.098-0.195-6.709,0c0.063-7.424,0.645-8.716-0.972-44.155
		c0.386,0,4.263,0.581,10.977,0c-0.063,0.71-0.581,17.17-0.449,32.275c10.908-16.975,12.974-20.596,20.073-32.275
		c1.294,0.19,3.618,0.515,6.523,0c0,2.131,0.259,9.099,1.353,31.826c8.135-13.367,18.335-31.702,18.398-31.826
		c1.421,0.256,3.745,0.386,6.006,0C218.828,299.429,201.523,328.292,199.521,331.775"/>
	<path fill="url(#colour1)" d="M218.437,331.775c4.458-12.461,10.908-35.569,12.461-44.155c2.192,0.256,5.938,0.71,11.167,0
		c-6.196,17.366-10.522,34.211-12.397,44.155C227.412,331.326,225.927,331.131,218.437,331.775"/>
	<path fill="url(#colour1)" d="M277.7,331.775c-0.259,0-2.129-0.515-5.679,0c-4.648-7.876-10.2-17.046-19.434-30.925
		c-5.938,20.981-6.973,25.049-8.457,30.925c-1.099-0.195-2.71-0.449-5.552,0c2.969-8.911,9.233-30.085,12.397-44.155
		c2.842,0.19,3.291,0.449,7.1,0c0.84,1.16,5.483,9.036,18.53,29.631l8.066-29.631c1.162,0.19,2.778,0.449,5.552,0
		C283.774,304.529,278.54,327.774,277.7,331.775"/>
	<path fill="url(#colour1)" d="M302.485,328.226c10.913,0,18.467-6.584,22.017-19.175c2.588-9.229,1.811-17.625-10.845-17.625
		c-2.129,0-2.578,0-5.547,0.129c-1.489,3.745-9.556,32.275-10.332,36.282C299.516,328.096,300.878,328.226,302.485,328.226
		 M334.961,308.987c-3.809,13.555-13.941,22.791-32.989,22.791c-5.938,0-8.716-0.391-15.62,0c2.646-6.716,8.13-22.986,12.393-44.031
		c8.262,0.449,15.044-0.129,18.462-0.129C333.35,287.618,338.838,295.171,334.961,308.987"/>
	<path fill="url(#colour1)" d="M359.301,290.716c-3.486,0-6.904,2.456-7.813,5.615c-1.484,5.425,9.102,9.946,9.49,10.2
		c4.453,2.91,5.742,6.394,4.326,11.56c-2.52,8.65-10.848,14.59-20.594,14.59c-4.199,0-7.744-1.099-10.395-3.164
		c0.391-0.84,0.971-1.616,4.584-8.845h0.777c0.258,4.065,1.094,7.874,7.227,7.874c4.262,0,8.135-2.71,9.164-6.455
		c1.422-5.034-3.354-6.714-5.16-7.874c-6.328-3.811-10.137-6.909-8.199-13.816c2.197-7.939,9.941-13.623,18.406-13.623
		c3.867,0,7.48,1.099,10.068,3.164c-1.943,3.164-2.715,4.456-4.199,7.034h-0.713C365.686,292.781,363.361,290.716,359.301,290.716"
		/>
	<path fill="url(#colour1)" d="M401.848,290.394c-8.135,0-15.879,7.744-19.053,19.175c-1.992,7.1-3.223,19.304,8.525,19.304
		c8.711,0,16.074-7.234,19.434-19.045C414.113,297.688,410.822,290.394,401.848,290.394 M403.908,286.907
		c14.98,0,21.367,8.396,17.305,22.791c-3.936,14.136-16.016,22.854-31.504,22.854c-14.912,0-21.436-8.198-17.305-22.854
		C376.35,295.689,388.479,286.907,403.908,286.907"/>
	<path fill="url(#colour1)" d="M450.969,299.561c1.875-6.716-0.84-8.267-8.008-8.267c-0.508,1.487-4.121,13.235-5.098,17.561
		C445.295,308.536,449.23,305.755,450.969,299.561 M444.514,331.775c-3.486-11.36-7.158-21.045-7.158-20.916
		c-3.174,11.296-4.59,16.331-5.361,20.916c-2.324-0.195-5.166-0.449-10.723,0c5.557-15.625,9.883-31.506,12.402-44.155
		c2.9,0.19,12.266-0.195,14.199-0.195c11.035,0,15.488,3.745,13.301,11.36c-1.426,5.037-4.59,8.779-13.555,11.172l8.32,21.819
		C454.719,331.646,450.324,331.26,444.514,331.775"/>
</g>
</svg>
