<?xml version="1.0" encoding="UTF-8" ?>
<!DOCTYPE svg PUBLIC "-//W3C//DTD SVG 1.1//EN" "http://www.w3.org/Graphics/SVG/1.1/DTD/svg11.dtd">
<svg width="1121pt" height="431pt" viewBox="0 0 1121 431" version="1.1" xmlns="http://www.w3.org/2000/svg">
<g id="#ffffffff">
<path fill="#ffffff" opacity="1.00" d=" M 0.00 0.00 L 603.15 0.00 C 586.85 0.62 570.77 4.19 555.27 9.15 C 545.17 12.52 535.08 16.33 526.08 22.11 C 524.02 23.58 521.71 24.96 520.36 27.17 C 519.41 29.09 521.28 30.51 522.38 31.79 C 505.59 40.96 489.31 53.32 480.77 70.90 C 479.92 73.10 477.90 75.94 479.95 78.06 C 481.25 79.42 483.20 78.46 484.78 78.41 C 478.09 90.55 473.93 104.05 472.03 117.77 C 456.87 114.75 442.88 107.54 430.32 98.70 C 418.34 90.22 407.43 80.30 397.08 69.92 C 386.61 58.16 378.02 43.93 363.73 36.31 C 350.26 28.87 334.23 29.99 319.51 31.83 C 293.61 35.54 267.27 35.80 241.25 33.24 C 213.76 30.42 186.19 24.44 161.42 11.85 C 159.19 10.11 155.33 11.80 156.11 14.84 C 159.14 21.27 163.31 27.15 167.83 32.63 C 143.87 28.72 120.09 22.86 97.67 13.40 C 96.04 12.76 93.72 11.68 92.35 13.40 C 90.47 15.30 92.29 17.84 93.04 19.83 C 101.13 36.25 111.99 51.22 124.24 64.78 C 132.58 73.83 141.77 82.27 152.37 88.61 C 153.55 89.38 154.85 90.11 155.52 91.40 C 163.96 106.92 178.64 118.17 194.40 125.57 C 197.40 127.19 201.44 127.45 203.39 130.57 C 209.20 138.81 217.51 144.91 226.14 149.93 C 238.76 157.13 252.72 162.12 267.15 164.03 C 278.87 180.36 299.13 188.19 318.71 188.96 C 318.85 192.46 320.82 195.72 324.30 196.76 C 333.55 199.91 343.62 198.95 353.13 197.66 C 353.75 200.63 355.27 203.60 358.32 204.66 C 365.45 207.37 373.35 206.13 380.57 204.47 C 380.97 207.18 382.04 210.13 384.95 211.00 C 391.96 213.19 399.41 211.26 406.34 209.67 C 406.65 213.22 408.52 216.81 412.25 217.70 C 420.92 219.94 429.86 217.16 438.19 214.72 C 438.66 218.77 441.23 222.41 445.21 223.65 C 453.49 226.32 462.42 225.77 470.98 225.22 C 467.53 226.08 464.61 228.15 462.37 230.87 C 455.33 232.01 448.80 226.40 441.95 229.15 C 437.96 230.66 433.41 229.37 429.60 231.46 C 424.51 234.00 419.20 238.59 419.87 244.87 C 286.42 244.90 152.96 244.83 19.51 244.91 C 22.74 248.23 26.02 251.49 29.32 254.74 C 137.90 254.76 246.47 254.75 355.05 254.75 C 389.04 254.67 423.04 254.92 457.02 254.63 L 455.42 254.69 C 457.77 256.01 458.68 258.67 459.98 260.87 C 459.62 265.91 459.62 271.70 463.24 275.67 C 466.47 278.75 471.44 278.37 475.28 276.77 C 473.73 274.31 471.59 272.03 471.08 269.09 C 471.09 266.26 471.54 263.43 471.18 260.61 C 472.22 258.65 473.35 256.75 474.34 254.76 C 483.41 254.88 492.51 254.44 501.57 255.04 C 502.25 259.16 501.92 263.40 499.54 266.95 C 502.58 266.08 506.04 265.72 508.45 263.46 C 510.53 261.44 510.72 258.39 511.24 255.71 L 511.35 255.16 C 518.91 263.81 526.99 272.58 537.52 277.62 C 544.88 281.26 553.73 280.46 561.00 277.00 C 570.99 272.33 578.69 263.98 585.08 255.20 C 585.16 255.67 585.34 256.63 585.43 257.10 C 585.83 260.39 587.19 264.04 590.41 265.52 C 593.01 266.56 595.83 266.89 598.56 267.47 C 597.32 265.71 595.64 264.17 594.98 262.08 C 594.56 259.58 595.34 257.10 596.00 254.72 C 605.39 254.78 614.78 254.74 624.18 254.75 C 625.71 258.38 628.19 261.81 628.02 265.94 C 628.46 270.05 626.56 273.80 624.33 277.09 C 628.86 276.22 634.98 276.30 637.35 271.51 C 640.24 266.34 638.32 260.28 639.54 254.75 C 790.26 254.74 940.98 254.77 1091.70 254.74 C 1094.97 251.47 1098.25 248.23 1101.47 244.90 C 960.03 244.82 818.60 244.94 677.17 244.85 C 675.78 239.49 670.84 236.29 666.29 233.77 C 664.59 232.75 662.61 233.29 660.80 233.53 C 653.32 230.39 644.90 231.05 637.40 233.70 C 634.33 230.45 629.88 229.53 625.62 230.56 C 624.24 228.33 623.08 225.98 622.02 223.59 C 635.00 225.05 647.92 227.55 661.03 227.40 C 667.24 227.34 673.81 227.27 679.45 224.33 C 682.32 222.87 684.06 220.06 685.42 217.26 C 692.91 219.71 700.90 222.23 708.84 220.81 C 713.10 220.08 716.04 216.46 716.83 212.36 C 722.59 213.90 728.85 215.81 734.73 213.76 C 738.00 212.64 739.61 209.35 740.30 206.19 C 747.75 207.22 755.52 208.80 762.95 206.87 C 766.11 206.15 768.04 203.42 769.22 200.60 C 778.92 201.25 789.21 202.29 798.44 198.54 C 801.56 197.45 803.23 194.51 804.24 191.56 C 819.05 190.70 834.18 186.35 845.56 176.47 C 848.73 173.75 851.49 170.60 854.13 167.37 C 869.51 165.18 884.37 159.72 897.76 151.91 C 906.57 146.72 914.79 140.16 920.60 131.64 C 936.95 125.72 952.25 115.66 962.46 101.39 C 964.67 98.59 965.63 94.66 968.94 92.87 C 981.30 85.30 991.72 74.99 1001.17 64.09 C 1011.28 52.23 1020.36 39.43 1027.78 25.71 C 1030.00 21.28 1032.37 16.83 1033.54 11.98 C 1033.62 9.72 1031.04 8.27 1029.11 9.31 C 1004.77 19.71 978.99 26.42 952.95 30.94 C 955.81 27.09 959.18 23.45 961.02 18.97 C 961.52 16.37 958.33 14.37 956.19 15.90 C 926.77 29.63 894.15 34.91 861.95 36.44 C 841.95 37.16 821.77 36.82 802.03 33.34 C 789.93 32.42 777.55 30.34 765.58 33.37 C 759.02 35.00 752.94 38.44 748.15 43.19 C 739.03 53.39 729.17 62.92 719.23 72.32 C 704.50 85.91 688.63 98.56 670.68 107.64 C 656.90 114.57 641.60 119.21 626.05 118.57 C 614.76 118.12 603.11 115.09 594.26 107.78 C 587.25 102.05 582.31 93.19 582.94 83.96 C 583.33 77.42 587.05 71.20 592.68 67.84 C 600.50 63.01 610.18 62.78 619.04 63.97 C 628.50 65.02 638.54 65.89 647.58 62.27 C 651.48 60.77 654.38 57.54 656.07 53.77 C 655.31 56.48 654.34 59.19 654.16 62.02 C 654.17 63.89 656.33 65.04 658.03 64.56 C 666.00 59.68 672.83 51.77 673.74 42.15 C 674.92 33.80 670.83 24.68 663.06 20.98 C 655.45 17.61 647.57 14.88 639.71 12.18 C 636.63 11.30 635.13 8.17 632.58 6.48 C 626.12 1.94 618.06 0.79 610.39 0.00 L 1121.00 0.00 L 1121.00 431.00 L 0.00 431.00 L 0.00 0.00 M 548.12 290.72 C 548.12 292.36 548.12 294.01 548.12 295.66 C 551.04 296.16 553.95 296.66 556.86 297.18 C 558.33 310.72 557.74 324.38 557.87 337.98 C 557.74 351.49 558.34 365.05 556.85 378.51 C 553.94 378.98 551.03 379.45 548.13 379.93 C 548.12 381.59 548.11 383.27 548.10 384.94 C 559.05 384.54 570.02 384.26 580.98 384.80 C 592.64 385.44 604.76 386.34 615.91 382.09 C 625.18 378.92 633.65 371.81 636.10 362.02 C 638.15 353.85 637.72 343.85 631.19 337.75 C 624.62 331.76 615.25 330.89 606.78 330.59 C 612.63 330.16 618.67 328.18 622.66 323.67 C 629.71 316.16 629.14 302.54 620.74 296.26 C 613.73 290.99 604.53 290.18 596.05 290.25 C 580.08 290.61 564.10 291.66 548.12 290.72 M 57.13 290.70 C 57.13 292.34 57.12 293.99 57.11 295.65 C 59.97 296.15 62.82 296.65 65.66 297.19 C 75.30 326.56 84.15 356.20 91.79 386.15 C 97.07 385.67 102.38 385.65 107.66 386.12 C 112.89 361.55 120.13 337.47 125.29 312.89 C 131.26 337.34 137.40 361.74 143.61 386.13 C 148.85 385.69 154.12 385.58 159.36 386.20 C 168.03 356.35 175.78 326.14 187.00 297.12 C 189.55 296.64 192.10 296.17 194.66 295.76 C 194.71 294.07 194.74 292.38 194.78 290.70 C 185.19 291.25 175.58 291.24 165.99 290.71 C 165.99 292.37 166.01 294.03 166.03 295.70 C 168.35 296.17 170.67 296.65 172.99 297.15 C 168.40 320.70 161.71 343.78 155.43 366.91 C 149.34 341.48 142.14 316.31 136.73 290.72 C 131.76 291.23 126.76 291.24 121.79 290.71 C 116.91 316.18 110.40 341.31 103.78 366.37 C 102.04 361.56 101.00 356.53 99.56 351.62 C 94.77 333.53 89.56 315.52 85.95 297.14 C 88.39 296.64 90.84 296.16 93.30 295.76 C 93.36 294.07 93.36 292.39 93.41 290.71 C 81.32 291.33 69.22 291.16 57.13 290.70 M 245.53 300.76 C 232.94 302.36 221.11 309.64 214.60 320.61 C 204.09 337.34 206.50 361.34 220.95 375.03 C 230.46 384.08 244.20 386.97 256.96 386.28 C 268.42 385.77 280.03 381.46 287.90 372.90 C 303.69 356.21 302.81 326.69 285.80 311.17 C 275.05 301.38 259.52 298.95 245.53 300.76 M 791.50 300.38 C 782.26 326.88 772.83 353.35 761.90 379.21 C 759.72 379.68 757.55 380.13 755.39 380.58 C 755.37 382.02 755.35 383.47 755.35 384.93 C 764.31 384.37 773.29 384.44 782.26 384.94 C 782.25 383.50 782.26 382.07 782.28 380.64 C 779.80 380.17 777.33 379.71 774.88 379.19 C 777.44 370.39 779.47 361.42 782.67 352.81 C 792.08 352.95 801.49 352.83 810.91 352.88 C 814.06 361.56 817.01 370.35 818.92 379.40 C 816.39 379.73 813.88 380.13 811.39 380.57 C 811.36 382.01 811.34 383.47 811.33 384.92 C 822.40 384.39 833.48 384.43 844.55 384.91 C 844.51 383.46 844.50 382.02 844.49 380.59 C 842.27 380.14 840.07 379.69 837.86 379.26 C 827.04 353.39 817.94 326.84 808.68 300.37 C 802.95 300.38 797.23 300.37 791.50 300.38 M 881.02 308.09 C 875.24 312.48 871.47 319.80 872.39 327.14 C 872.82 332.57 876.28 337.38 880.87 340.17 C 891.79 347.02 905.29 347.39 916.61 353.30 C 920.95 355.46 924.43 360.05 923.58 365.11 C 922.86 371.82 916.38 376.33 910.04 376.98 C 899.88 378.18 889.97 374.28 881.13 369.64 C 881.16 366.86 881.32 364.09 881.51 361.32 C 879.91 360.94 878.32 360.57 876.75 360.21 C 874.69 366.57 872.24 372.82 869.22 378.79 C 878.60 383.97 889.37 386.08 900.01 386.36 C 909.60 386.61 919.63 385.16 927.87 379.95 C 934.44 375.85 939.40 368.86 940.10 361.03 C 940.93 354.58 938.53 347.67 933.25 343.70 C 925.44 337.63 915.39 335.99 906.09 333.46 C 900.82 331.99 895.18 330.71 890.93 327.06 C 887.44 324.11 887.03 318.42 889.93 314.93 C 893.31 310.83 898.94 309.61 904.01 309.38 C 911.88 309.28 919.72 311.38 926.63 315.14 C 926.58 317.40 926.46 319.66 926.26 321.91 C 927.73 322.32 929.21 322.72 930.69 323.13 C 932.55 317.04 934.87 311.10 937.42 305.28 C 928.21 302.47 918.70 300.22 909.02 300.23 C 899.24 300.03 888.89 301.93 881.02 308.09 M 980.25 309.21 C 974.94 313.81 971.88 321.07 973.10 328.08 C 973.80 333.52 977.64 338.05 982.30 340.70 C 992.82 346.85 1005.43 347.55 1016.31 352.84 C 1020.31 354.75 1024.08 358.30 1024.25 363.02 C 1024.73 369.97 1018.65 375.65 1012.14 376.70 C 1001.49 378.57 990.71 374.61 981.57 369.39 C 981.78 366.70 981.93 364.00 982.01 361.31 C 980.43 360.93 978.88 360.56 977.32 360.18 C 975.28 366.57 972.79 372.80 969.78 378.80 C 981.09 384.97 994.26 386.91 1007.01 386.25 C 1016.44 385.65 1026.29 382.93 1033.20 376.15 C 1039.57 370.16 1042.48 360.50 1039.78 352.09 C 1038.24 347.18 1034.27 343.45 1029.86 341.04 C 1019.10 335.15 1006.40 334.69 995.34 329.62 C 990.91 327.77 987.29 323.00 988.92 318.05 C 990.80 311.76 998.17 309.72 1004.00 309.40 C 1012.09 309.33 1020.55 311.04 1027.38 315.59 C 1027.14 317.69 1026.97 319.80 1026.81 321.92 C 1028.29 322.33 1029.76 322.73 1031.26 323.15 C 1033.13 317.06 1035.40 311.10 1038.01 305.30 C 1028.29 302.30 1018.22 300.02 1008.00 300.23 C 998.17 300.22 987.77 302.55 980.25 309.21 M 1063.55 300.70 C 1056.74 302.13 1051.15 308.16 1050.45 315.13 C 1049.03 324.68 1057.37 334.14 1067.02 333.91 C 1076.91 334.43 1085.57 324.70 1083.99 314.94 C 1083.05 305.38 1072.84 298.37 1063.55 300.70 M 325.75 301.64 C 325.75 303.09 325.75 304.54 325.75 306.00 C 328.32 306.47 330.89 306.96 333.47 307.44 C 334.98 323.24 334.16 339.13 334.38 354.97 C 334.28 363.04 334.48 371.16 333.37 379.18 C 330.81 379.56 328.25 379.99 325.70 380.43 C 325.96 382.27 324.66 385.84 327.91 384.89 C 349.44 384.43 370.99 384.48 392.53 384.51 C 393.66 378.62 394.93 372.76 396.62 367.01 C 395.14 366.45 393.66 365.91 392.19 365.37 C 390.68 368.17 389.14 370.95 387.68 373.77 C 375.57 376.19 363.10 376.80 350.78 376.02 C 349.74 363.68 350.24 351.30 350.13 338.94 C 350.25 328.42 349.68 317.86 351.00 307.40 C 354.04 306.95 357.09 306.47 360.13 305.99 C 360.12 304.53 360.12 303.08 360.13 301.63 C 348.68 302.16 337.20 302.18 325.75 301.64 M 419.62 301.75 C 419.62 303.22 419.62 304.71 419.62 306.19 C 422.20 306.61 424.77 307.03 427.35 307.49 C 428.60 319.96 428.16 332.50 428.25 345.01 C 428.15 356.43 428.58 367.90 427.28 379.26 C 424.73 379.70 422.18 380.14 419.64 380.59 C 419.62 382.02 419.60 383.46 419.58 384.90 C 431.73 384.36 443.89 384.46 456.04 384.95 C 455.99 383.45 455.95 381.95 455.89 380.47 C 452.19 380.17 448.51 379.72 444.83 379.25 C 443.60 368.01 443.97 356.67 443.87 345.38 C 452.42 345.32 460.98 345.53 469.50 346.26 C 470.26 348.17 471.05 350.07 471.88 351.96 C 473.29 351.91 474.72 351.87 476.14 351.84 C 475.54 344.97 475.66 338.06 476.11 331.18 C 474.63 331.23 473.15 331.29 471.68 331.36 C 470.96 333.03 470.21 334.69 469.45 336.34 C 460.94 337.22 452.39 337.44 443.85 337.52 C 443.98 328.43 444.32 319.35 444.65 310.26 C 455.34 310.15 466.10 310.56 476.62 312.58 C 477.89 314.96 479.13 317.36 480.39 319.75 C 481.89 319.17 483.40 318.61 484.91 318.04 C 483.31 312.83 482.02 307.53 481.25 302.13 C 460.71 302.22 440.17 302.02 419.62 301.75 M 667.87 301.64 C 667.87 303.08 667.87 304.53 667.87 305.98 C 670.46 306.47 673.04 306.94 675.63 307.43 C 676.91 318.92 676.39 330.51 676.50 342.05 C 676.38 354.38 676.92 366.75 675.68 379.05 C 673.06 379.56 670.44 380.01 667.82 380.45 C 667.84 381.94 667.87 383.44 667.92 384.93 C 690.17 384.40 712.43 384.52 734.69 384.48 C 735.80 378.57 737.20 372.72 738.75 366.91 C 737.27 366.66 735.69 365.34 734.26 365.71 C 732.57 368.29 731.29 371.10 729.81 373.80 C 717.69 376.16 705.22 376.82 692.90 376.01 C 691.90 363.72 692.34 351.38 692.25 339.06 C 692.35 328.51 691.83 317.90 693.15 307.40 C 696.17 306.94 699.21 306.47 702.24 306.00 C 702.24 304.54 702.25 303.08 702.26 301.63 C 690.81 302.15 679.33 302.18 667.87 301.64 Z" />
<path fill="#ffffff" opacity="1.00" d=" M 626.53 47.38 C 633.45 44.04 641.63 42.85 649.06 45.10 C 649.88 45.10 652.01 46.41 650.08 46.97 C 646.65 49.62 642.22 51.01 637.93 50.03 C 634.14 49.11 630.40 47.96 626.53 47.38 Z" />
<path fill="#ffffff" opacity="1.00" d=" M 473.24 225.55 C 475.41 223.18 479.29 224.73 482.17 223.59 C 482.04 224.46 481.80 226.19 481.68 227.06 C 479.00 225.91 476.11 225.67 473.24 225.55 Z" />
<path fill="#ffffff" opacity="1.00" d=" M 576.35 300.52 C 584.39 299.02 593.17 297.77 600.95 301.02 C 609.90 304.97 610.41 319.19 602.44 324.42 C 594.60 329.65 584.69 328.58 575.75 328.34 C 575.65 319.06 575.82 309.79 576.35 300.52 Z" />
<path fill="#ffffff" opacity="1.00" d=" M 1063.50 303.78 C 1071.11 301.37 1079.75 307.06 1080.84 314.89 C 1082.21 322.22 1076.53 329.82 1069.17 330.74 C 1061.56 332.04 1053.75 325.76 1053.39 318.05 C 1052.79 311.68 1057.36 305.42 1063.50 303.78 M 1060.87 308.14 C 1060.90 313.98 1060.81 319.82 1060.93 325.67 C 1061.69 325.67 1063.19 325.66 1063.95 325.66 C 1063.98 323.13 1064.00 320.59 1064.02 318.06 C 1065.72 318.32 1067.89 317.62 1069.30 318.88 C 1070.30 320.89 1070.02 323.27 1070.53 325.43 C 1071.35 325.54 1072.97 325.75 1073.79 325.86 C 1073.06 322.72 1073.72 318.95 1071.23 316.48 C 1073.92 315.04 1074.54 310.73 1071.91 308.94 C 1068.41 307.54 1064.53 308.30 1060.87 308.14 Z" />
<path fill="#ffffff" opacity="1.00" d=" M 248.22 309.27 C 255.39 307.78 263.23 309.31 269.06 313.84 C 276.23 319.32 280.23 328.08 281.53 336.85 C 282.74 345.82 281.69 355.34 277.35 363.38 C 273.76 370.05 267.45 375.32 260.02 377.08 C 252.85 379.01 244.95 377.37 238.98 373.01 C 231.00 367.33 226.44 357.78 225.50 348.17 C 224.55 338.67 226.20 328.58 231.62 320.57 C 235.44 314.87 241.46 310.62 248.22 309.27 Z" />
<path fill="#ffffff" opacity="1.00" d=" M 1064.04 310.26 C 1066.20 310.61 1070.35 309.68 1070.39 313.01 C 1070.32 316.32 1066.26 315.75 1064.02 315.98 C 1064.00 314.07 1064.00 312.16 1064.04 310.26 Z" />
<path fill="#ffffff" opacity="1.00" d=" M 785.11 345.12 C 788.79 333.79 792.44 322.44 796.57 311.27 C 800.43 322.56 804.37 333.84 808.27 345.12 C 800.55 345.13 792.83 345.13 785.11 345.12 Z" />
<path fill="#ffffff" opacity="1.00" d=" M 575.76 337.90 C 587.48 337.53 600.43 335.55 611.01 341.88 C 621.53 348.68 618.73 365.75 608.78 371.77 C 599.01 377.83 586.90 375.75 576.32 373.38 C 575.75 361.56 575.67 349.73 575.76 337.90 Z" />
</g>
<g id="#373536ff">
<path fill="#373536" opacity="1.00" d=" M 603.15 0.00 L 610.39 0.00 C 618.06 0.79 626.12 1.94 632.58 6.48 C 635.13 8.17 636.63 11.30 639.71 12.18 C 647.57 14.88 655.45 17.61 663.06 20.98 C 670.83 24.68 674.92 33.80 673.74 42.15 C 672.83 51.77 666.00 59.68 658.03 64.56 C 656.33 65.04 654.17 63.89 654.16 62.02 C 654.34 59.19 655.31 56.48 656.07 53.77 C 654.38 57.54 651.48 60.77 647.58 62.27 C 638.54 65.89 628.50 65.02 619.04 63.97 C 610.18 62.78 600.50 63.01 592.68 67.84 C 587.05 71.20 583.33 77.42 582.94 83.96 C 582.31 93.19 587.25 102.05 594.26 107.78 C 603.11 115.09 614.76 118.12 626.05 118.57 C 641.60 119.21 656.90 114.57 670.68 107.64 C 688.63 98.56 704.50 85.91 719.23 72.32 C 729.17 62.92 739.03 53.39 748.15 43.19 C 752.94 38.44 759.02 35.00 765.58 33.37 C 777.55 30.34 789.93 32.42 802.03 33.34 C 821.77 36.82 841.95 37.16 861.95 36.44 C 894.15 34.91 926.77 29.63 956.19 15.90 C 958.33 14.37 961.52 16.37 961.02 18.97 C 959.18 23.45 955.81 27.09 952.95 30.94 C 978.99 26.42 1004.77 19.71 1029.11 9.31 C 1031.04 8.27 1033.62 9.72 1033.54 11.98 C 1032.37 16.83 1030.00 21.28 1027.78 25.71 C 1020.36 39.43 1011.28 52.23 1001.17 64.09 C 991.72 74.99 981.30 85.30 968.94 92.87 C 965.63 94.66 964.67 98.59 962.46 101.39 C 952.25 115.66 936.95 125.72 920.60 131.64 C 914.79 140.16 906.57 146.72 897.76 151.91 C 884.37 159.72 869.51 165.18 854.13 167.37 C 851.49 170.60 848.73 173.75 845.56 176.47 C 834.18 186.35 819.05 190.70 804.24 191.56 C 803.23 194.51 801.56 197.45 798.44 198.54 C 789.21 202.29 778.92 201.25 769.22 200.60 C 768.04 203.42 766.11 206.15 762.95 206.87 C 755.52 208.80 747.75 207.22 740.30 206.19 C 739.61 209.35 738.00 212.64 734.73 213.76 C 728.85 215.81 722.59 213.90 716.83 212.36 C 716.04 216.46 713.10 220.08 708.84 220.81 C 700.90 222.23 692.91 219.71 685.42 217.26 C 684.06 220.06 682.32 222.87 679.45 224.33 C 673.81 227.27 667.24 227.34 661.03 227.40 C 647.92 227.55 635.00 225.05 622.02 223.59 C 623.08 225.98 624.24 228.33 625.62 230.56 C 629.88 229.53 634.33 230.45 637.40 233.70 C 644.90 231.05 653.32 230.39 660.80 233.53 C 662.61 233.29 664.59 232.75 666.29 233.77 C 670.84 236.29 675.78 239.49 677.17 244.85 C 676.41 244.84 674.90 244.82 674.14 244.81 C 672.14 240.59 668.41 237.31 663.91 236.03 C 661.39 235.72 659.83 239.55 661.55 241.25 C 664.50 242.62 668.19 242.88 670.47 245.44 C 672.33 248.02 671.36 251.33 671.09 254.23 C 669.07 249.25 664.49 245.32 659.00 244.98 C 652.91 244.66 646.81 244.97 640.72 244.88 C 640.63 248.20 640.27 251.51 639.54 254.75 C 638.32 260.28 640.24 266.34 637.35 271.51 C 634.98 276.30 628.86 276.22 624.33 277.09 C 626.56 273.80 628.46 270.05 628.02 265.94 C 628.19 261.81 625.71 258.38 624.18 254.75 C 623.65 251.48 623.37 248.19 622.97 244.91 C 616.81 244.87 610.64 244.78 604.49 244.97 C 603.29 249.01 600.58 252.34 596.53 253.73 C 596.40 253.98 596.14 254.47 596.00 254.72 C 595.34 257.10 594.56 259.58 594.98 262.08 C 595.64 264.17 597.32 265.71 598.56 267.47 C 595.83 266.89 593.01 266.56 590.41 265.52 C 587.19 264.04 585.83 260.39 585.43 257.10 C 585.44 256.37 585.47 254.92 585.48 254.19 C 587.94 254.69 587.92 257.30 588.71 259.17 C 589.16 261.23 591.10 262.33 592.55 263.65 C 591.66 259.71 591.99 255.64 593.81 252.00 C 595.48 251.09 597.70 250.57 598.49 248.63 C 599.49 246.19 599.38 243.50 599.60 240.93 C 608.10 243.06 617.72 244.66 625.83 240.34 C 625.59 245.57 625.22 251.02 626.99 256.05 C 627.70 257.97 629.63 260.63 631.92 259.14 C 635.23 253.86 635.30 247.14 634.49 241.13 C 633.90 237.32 631.54 232.59 627.03 232.88 C 622.71 233.54 618.59 235.60 614.13 235.11 C 610.65 234.63 607.29 235.56 604.17 237.02 C 600.34 234.97 595.53 233.03 591.43 235.51 C 588.06 237.36 587.84 241.49 587.52 244.87 C 562.03 244.97 536.53 244.67 511.05 245.03 C 510.03 248.55 510.66 252.17 511.24 255.71 C 510.72 258.39 510.53 261.44 508.45 263.46 C 506.04 265.72 502.58 266.08 499.54 266.95 C 501.92 263.40 502.25 259.16 501.57 255.04 C 502.20 254.96 503.46 254.81 504.09 254.73 C 504.27 257.73 504.19 260.74 503.92 263.74 C 505.50 262.33 507.59 261.14 508.13 258.93 C 509.48 254.61 506.96 250.31 507.63 245.94 C 507.97 243.32 507.94 240.23 505.63 238.47 C 501.78 235.47 496.67 237.10 492.34 237.89 C 489.96 235.84 487.09 234.55 483.96 234.21 C 481.17 231.69 478.05 228.91 474.04 228.98 C 469.20 228.63 465.05 232.38 463.54 236.74 C 461.07 243.51 461.69 250.89 462.56 257.90 C 463.20 262.73 461.92 268.03 464.48 272.44 C 465.57 274.51 467.98 275.20 469.90 276.25 C 467.87 272.06 467.73 267.39 468.55 262.87 C 468.18 262.37 467.44 261.37 467.06 260.87 C 472.76 254.61 473.44 245.76 473.05 237.70 C 473.81 237.61 475.33 237.43 476.08 237.34 C 481.99 243.20 491.26 243.99 499.03 242.25 C 499.04 242.90 499.08 244.21 499.09 244.86 C 491.50 244.90 483.92 244.83 476.33 244.90 C 475.85 248.22 475.38 251.56 474.34 254.76 C 473.35 256.75 472.22 258.65 471.18 260.61 C 471.54 263.43 471.09 266.26 471.08 269.09 C 471.59 272.03 473.73 274.31 475.28 276.77 C 471.44 278.37 466.47 278.75 463.24 275.67 C 459.62 271.70 459.62 265.91 459.98 260.87 C 458.68 258.67 457.77 256.01 455.42 254.69 L 457.02 254.63 C 456.06 251.51 455.66 248.27 455.51 245.03 C 448.34 244.86 441.15 244.62 434.00 245.07 C 429.90 245.66 428.35 249.95 427.23 253.35 C 426.53 250.17 425.55 246.53 427.58 243.63 C 429.93 239.38 434.38 236.83 439.10 236.18 C 440.30 238.70 441.83 241.67 445.00 241.89 C 452.03 242.63 458.69 239.05 464.16 234.99 C 460.16 234.62 456.06 234.79 452.18 233.60 C 449.36 232.86 446.39 231.31 443.50 232.67 C 440.19 234.03 436.59 233.74 433.12 234.24 C 428.01 235.61 424.41 240.12 422.48 244.85 C 421.82 244.86 420.52 244.87 419.87 244.87 C 419.20 238.59 424.51 234.00 429.60 231.46 C 433.41 229.37 437.96 230.66 441.95 229.15 C 448.80 226.40 455.33 232.01 462.37 230.87 C 464.61 228.15 467.53 226.08 470.98 225.22 C 462.42 225.77 453.49 226.32 445.21 223.65 C 441.23 222.41 438.66 218.77 438.19 214.72 C 429.86 217.16 420.92 219.94 412.25 217.70 C 408.52 216.81 406.65 213.22 406.34 209.67 C 399.41 211.26 391.96 213.19 384.95 211.00 C 382.04 210.13 380.97 207.18 380.57 204.47 C 373.35 206.13 365.45 207.37 358.32 204.66 C 355.27 203.60 353.75 200.63 353.13 197.66 C 343.62 198.95 333.55 199.91 324.30 196.76 C 320.82 195.72 318.85 192.46 318.71 188.96 C 299.13 188.19 278.87 180.36 267.15 164.03 C 252.72 162.12 238.76 157.13 226.14 149.93 C 217.51 144.91 209.20 138.81 203.39 130.57 C 201.44 127.45 197.40 127.19 194.40 125.57 C 178.64 118.17 163.96 106.92 155.52 91.40 C 154.85 90.11 153.55 89.38 152.37 88.61 C 141.77 82.27 132.58 73.83 124.24 64.78 C 111.99 51.22 101.13 36.25 93.04 19.83 C 92.29 17.84 90.47 15.30 92.35 13.40 C 93.72 11.68 96.04 12.76 97.67 13.40 C 120.09 22.86 143.87 28.72 167.83 32.63 C 163.31 27.15 159.14 21.27 156.11 14.84 C 155.33 11.80 159.19 10.11 161.42 11.85 C 186.19 24.44 213.76 30.42 241.25 33.24 C 267.27 35.80 293.61 35.54 319.51 31.83 C 334.23 29.99 350.26 28.87 363.73 36.31 C 378.02 43.93 386.61 58.16 397.08 69.92 C 407.43 80.30 418.34 90.22 430.32 98.70 C 442.88 107.54 456.87 114.75 472.03 117.77 C 473.93 104.05 478.09 90.55 484.78 78.41 C 483.20 78.46 481.25 79.42 479.95 78.06 C 477.90 75.94 479.92 73.10 480.77 70.90 C 489.31 53.32 505.59 40.96 522.38 31.79 C 521.28 30.51 519.41 29.09 520.36 27.17 C 521.71 24.96 524.02 23.58 526.08 22.11 C 535.08 16.33 545.17 12.52 555.27 9.15 C 570.77 4.19 586.85 0.62 603.15 0.00 M 545.11 16.05 C 537.48 19.25 529.61 22.50 523.41 28.12 C 526.98 28.14 530.57 28.17 534.12 28.63 C 530.94 31.50 526.51 32.48 522.97 34.87 C 506.17 44.47 489.25 57.14 482.10 75.82 C 485.26 74.40 488.43 72.99 491.68 71.78 C 487.57 79.24 483.54 86.79 480.75 94.87 C 477.59 103.45 475.86 112.45 474.42 121.44 C 445.57 116.33 421.57 97.83 400.95 78.03 C 389.41 67.84 381.94 53.84 369.92 44.13 C 363.15 38.54 354.76 34.90 346.01 33.99 C 332.31 32.38 318.69 35.36 305.09 36.63 C 279.07 39.01 252.77 38.28 226.90 34.57 C 203.51 31.24 180.44 24.90 159.25 14.33 C 163.53 22.82 169.42 30.40 176.27 36.96 C 148.33 33.17 120.71 26.45 94.63 15.62 C 99.05 26.40 105.67 36.12 112.44 45.54 C 123.17 59.93 135.36 73.57 150.28 83.73 C 152.53 85.40 155.33 86.37 157.30 88.38 C 166.83 106.68 184.87 119.14 203.85 126.16 C 208.58 133.00 214.59 138.90 221.55 143.47 C 235.69 152.86 252.00 159.10 268.87 161.16 C 272.21 165.72 276.04 169.96 280.60 173.33 C 293.08 182.67 309.03 186.08 324.38 185.99 C 323.32 187.69 321.37 189.49 322.36 191.68 C 324.31 194.29 327.86 194.69 330.83 195.26 C 340.01 196.40 349.38 195.58 358.34 193.36 C 357.61 195.15 356.18 196.94 356.67 199.00 C 357.54 201.57 360.51 202.37 362.90 202.81 C 371.32 204.01 379.77 201.86 387.64 198.99 C 386.07 201.04 383.71 203.07 384.01 205.90 C 384.37 208.11 387.06 208.55 388.91 208.78 C 396.68 209.22 404.47 207.42 411.65 204.52 C 410.67 207.06 408.64 210.01 410.27 212.73 C 412.00 215.13 415.28 215.38 418.00 215.50 C 426.47 215.41 434.63 212.73 442.56 209.99 C 441.98 212.46 440.75 215.28 442.24 217.69 C 444.09 220.60 447.78 221.42 450.96 221.95 C 461.29 223.32 471.80 222.50 482.00 220.50 C 481.62 216.90 480.76 212.70 477.41 210.69 C 473.82 208.75 469.60 209.80 465.73 209.85 C 475.52 206.19 484.54 199.74 489.32 190.23 C 492.47 192.91 496.10 195.78 496.75 200.15 C 497.83 207.83 494.72 215.38 491.04 221.95 C 489.98 224.12 487.55 226.32 488.86 228.91 C 490.09 231.93 494.60 231.93 496.24 229.28 C 502.81 220.84 509.73 212.64 516.03 204.01 C 519.39 199.25 515.38 194.13 514.35 189.35 C 510.20 171.90 510.29 153.46 514.48 136.03 C 518.29 119.63 526.34 104.47 536.80 91.35 C 533.66 92.13 530.57 93.09 527.49 94.05 C 532.30 85.14 539.02 77.19 547.25 71.25 C 557.41 63.86 569.69 60.18 581.87 57.71 C 587.99 56.40 594.63 55.71 599.78 51.79 C 603.32 49.30 605.49 44.74 604.41 40.42 C 603.05 34.87 598.31 30.90 593.32 28.60 C 584.81 24.65 575.02 24.73 565.99 26.57 C 575.19 20.10 586.80 19.02 597.68 18.02 C 597.79 28.68 617.13 28.52 616.50 17.67 C 622.06 17.12 626.45 11.89 625.81 6.29 C 616.00 2.57 605.26 2.69 594.97 3.62 C 577.88 5.42 561.11 9.83 545.11 16.05 M 944.66 35.21 C 949.59 30.15 954.49 24.89 957.81 18.60 C 933.67 29.80 907.36 35.53 880.98 38.17 C 858.40 40.36 835.59 40.43 813.02 38.10 C 807.63 37.69 802.39 36.15 796.98 35.98 C 785.08 34.89 772.49 33.36 761.14 38.08 C 753.47 41.15 747.84 47.52 742.95 53.92 C 738.58 66.42 731.34 77.72 722.84 87.80 C 702.44 111.78 675.12 130.24 644.64 138.55 C 655.06 139.64 665.59 138.73 675.94 137.38 C 691.36 135.12 706.70 131.41 720.89 124.85 C 722.11 124.33 723.18 123.53 724.20 122.67 C 720.50 121.44 716.94 119.79 713.92 117.30 C 720.96 117.06 728.07 116.75 734.89 114.79 C 742.14 112.74 749.59 109.99 755.12 104.69 C 750.25 104.24 745.32 103.67 740.83 101.62 C 753.46 99.61 765.14 93.29 774.17 84.31 C 768.79 83.22 763.31 81.76 758.86 78.40 C 772.32 79.92 785.97 77.83 798.79 73.68 C 806.75 71.03 814.57 67.60 821.21 62.40 C 812.19 60.12 803.00 55.77 797.70 47.80 C 829.34 59.10 863.90 64.31 897.16 57.81 C 912.24 54.96 926.64 48.87 939.14 40.00 C 967.78 36.06 996.13 29.51 1023.20 19.24 C 1020.33 25.40 1017.01 31.47 1012.88 36.84 C 996.28 41.11 978.86 42.37 961.83 40.27 C 955.34 47.38 947.53 53.05 939.77 58.65 C 947.89 58.73 956.00 57.99 964.05 56.94 C 979.20 54.77 994.71 51.81 1008.09 43.97 C 1005.37 47.88 1002.70 51.90 999.34 55.28 C 990.77 60.20 981.38 63.62 971.98 66.61 C 956.45 71.20 940.26 74.45 924.00 73.56 C 920.69 82.56 912.24 87.94 904.07 92.03 C 920.09 91.59 935.87 87.90 951.17 83.31 C 965.33 79.00 978.78 72.62 991.23 64.66 C 985.38 71.65 978.44 77.71 971.16 83.18 C 960.07 90.89 947.64 96.52 934.83 100.69 C 914.03 107.23 891.94 109.96 870.19 108.07 C 864.44 115.51 855.68 119.56 846.90 122.19 C 867.21 124.48 887.87 123.38 908.00 119.94 C 924.06 117.03 940.06 111.80 953.20 101.85 C 943.83 113.15 930.66 120.85 916.93 125.69 C 898.06 133.59 877.46 137.20 857.03 136.60 C 845.71 136.50 834.56 134.45 823.37 133.04 C 815.96 142.65 803.39 145.57 791.91 146.50 C 809.84 149.18 827.89 151.61 846.07 151.51 C 864.44 151.61 883.18 149.49 900.09 141.92 C 891.42 148.43 881.35 152.89 871.13 156.38 C 860.64 160.01 849.55 161.18 838.57 162.35 C 822.73 163.89 806.65 163.54 791.00 160.52 C 787.35 159.98 783.78 158.78 780.08 158.66 C 774.36 161.62 768.08 163.12 761.67 163.47 C 774.40 168.03 787.58 171.41 801.01 173.13 C 815.20 174.92 830.20 174.89 843.46 168.86 C 830.04 182.64 809.54 185.75 791.14 184.69 C 793.20 186.98 796.40 188.59 797.12 191.82 C 790.19 194.75 782.47 194.49 775.10 194.21 C 767.25 193.94 759.63 191.97 751.98 190.36 C 746.80 189.22 741.88 187.21 737.18 184.79 C 733.51 186.56 729.59 187.66 725.66 188.62 C 735.18 192.82 745.88 191.40 755.98 191.78 C 758.85 193.66 761.21 196.69 762.30 200.01 C 754.63 202.04 746.67 200.15 739.02 199.00 C 730.83 197.25 721.91 196.77 714.93 191.65 C 710.67 192.73 706.32 193.35 701.95 193.66 C 710.63 197.66 720.36 197.74 729.73 197.85 C 731.02 200.49 732.93 202.98 733.18 205.99 C 733.10 207.52 731.21 207.74 730.06 207.84 C 723.76 207.77 717.74 205.46 711.93 203.24 C 706.36 200.58 699.75 200.83 694.56 197.26 C 692.97 196.32 691.81 194.65 690.07 194.03 C 685.68 194.68 681.25 194.72 676.84 194.28 C 686.02 198.51 695.85 201.95 706.11 201.56 C 707.80 204.78 709.99 208.17 709.70 211.95 C 709.26 214.42 706.04 214.47 704.07 214.48 C 694.08 213.79 684.81 209.71 675.44 206.54 C 676.52 209.91 680.16 214.03 677.38 217.39 C 673.32 220.52 667.79 220.30 662.92 220.60 C 648.62 220.74 634.50 218.20 620.38 216.31 C 621.13 213.99 621.62 211.29 623.74 209.77 C 626.73 207.59 630.62 208.43 634.05 208.63 C 623.98 205.43 616.19 198.08 608.93 190.76 C 614.40 200.05 618.06 210.21 621.08 220.51 C 634.73 221.72 648.24 224.63 662.01 224.39 C 667.76 224.17 674.04 224.20 679.05 220.95 C 681.81 219.30 682.30 215.96 682.33 213.03 C 690.85 215.81 699.91 219.49 708.99 217.59 C 713.29 216.54 714.19 211.64 713.30 207.88 C 719.82 209.96 726.92 212.96 733.79 210.83 C 737.32 209.60 737.07 205.40 736.59 202.41 C 744.91 203.76 753.54 205.74 761.94 203.97 C 765.25 203.40 766.43 199.98 765.72 197.02 C 775.80 198.20 786.39 199.26 796.24 196.18 C 799.66 195.31 801.58 191.94 800.56 188.56 C 820.15 188.61 840.87 181.12 852.37 164.54 C 863.44 163.11 874.22 159.87 884.40 155.34 C 897.19 149.49 909.89 141.84 917.96 129.99 C 920.13 127.85 923.48 127.58 926.13 126.17 C 941.28 119.22 955.63 108.66 963.58 93.67 C 964.00 92.78 964.62 92.04 965.44 91.48 C 982.04 81.63 995.26 67.12 1007.00 52.00 C 1016.21 39.67 1025.05 26.76 1030.46 12.24 C 1002.99 23.48 974.06 31.17 944.66 35.21 M 625.01 25.01 C 621.67 26.11 617.80 28.14 617.16 31.95 C 616.63 35.18 619.34 37.75 622.01 39.00 C 626.37 41.03 631.30 42.19 636.10 41.31 C 643.35 40.24 652.02 41.01 657.17 46.83 C 660.72 50.97 658.52 56.55 657.28 61.14 C 662.19 53.81 664.33 44.19 661.35 35.70 C 660.05 31.86 656.40 29.61 653.01 27.81 C 644.46 23.53 634.23 22.22 625.01 25.01 M 626.53 47.38 C 630.40 47.96 634.14 49.11 637.93 50.03 C 642.22 51.01 646.65 49.62 650.08 46.97 C 652.01 46.41 649.88 45.10 649.06 45.10 C 641.63 42.85 633.45 44.04 626.53 47.38 M 643.98 53.12 C 636.78 54.54 630.20 49.92 623.01 50.36 C 616.32 49.98 611.82 55.71 607.89 60.26 C 620.86 60.07 634.50 64.52 646.97 59.17 C 651.66 57.36 653.56 52.39 654.35 47.82 C 651.04 49.82 647.92 52.51 643.98 53.12 M 895.78 64.58 C 894.98 69.08 893.23 73.57 889.69 76.62 C 883.68 81.97 875.68 84.27 867.98 85.96 C 855.02 88.59 841.76 89.31 828.56 89.39 C 835.53 91.26 842.85 91.18 850.01 91.73 C 866.50 92.20 884.06 91.96 898.93 83.88 C 907.57 79.32 913.32 70.08 913.29 60.25 C 907.47 61.77 901.75 63.71 895.78 64.58 M 849.73 96.40 C 846.61 104.89 837.25 108.20 829.09 109.62 C 815.48 112.05 801.61 111.00 787.90 110.33 C 805.29 114.00 823.40 116.55 841.11 113.61 C 851.25 111.90 862.07 106.66 865.77 96.37 C 860.42 96.58 855.08 96.51 849.73 96.40 M 791.85 127.91 C 777.14 132.53 761.60 129.42 746.75 127.23 C 763.40 133.14 781.11 138.65 798.96 136.21 C 808.36 135.14 817.27 128.93 819.74 119.50 C 814.76 119.07 809.76 118.73 804.84 117.82 C 801.92 122.66 797.29 126.31 791.85 127.91 M 717.02 135.96 C 728.96 146.77 744.89 153.46 761.05 153.76 C 770.01 154.07 780.05 150.03 783.25 141.01 C 778.46 140.53 773.74 139.63 769.03 138.75 C 765.42 143.92 759.20 146.63 752.99 146.62 C 740.15 146.99 728.49 140.86 717.02 135.96 M 692.78 141.14 C 703.54 152.50 718.93 161.12 735.03 158.75 C 723.64 155.40 711.32 149.55 706.10 138.19 C 701.74 139.50 697.28 140.47 692.78 141.14 M 667.98 144.53 C 677.60 154.78 690.24 164.18 704.92 164.07 C 695.59 159.12 685.22 153.62 680.95 143.32 C 676.65 143.95 672.32 144.39 667.98 144.53 M 637.91 146.05 C 647.53 157.94 661.69 167.12 677.30 167.72 C 666.62 162.70 657.20 155.17 649.97 145.83 C 645.95 146.08 641.92 146.18 637.91 146.05 M 570.46 166.64 C 566.48 168.68 566.87 174.16 568.35 177.72 C 573.20 188.67 580.91 198.10 589.45 206.40 C 597.20 214.04 605.89 220.91 612.04 230.00 C 613.52 232.66 617.03 231.58 618.81 229.83 C 613.77 220.15 608.29 210.71 602.59 201.40 C 595.85 190.73 589.07 179.90 580.24 170.79 C 577.71 168.32 574.27 165.19 570.46 166.64 M 712.46 169.45 C 721.21 175.12 731.91 177.86 742.30 176.80 C 735.36 174.36 728.63 171.10 723.07 166.20 C 719.71 167.80 716.11 168.79 712.46 169.45 M 687.71 174.33 C 696.40 180.85 707.37 184.99 718.35 183.85 C 711.42 181.13 704.89 177.46 699.19 172.66 C 695.40 173.50 691.55 173.93 687.71 174.33 M 630.66 174.09 C 640.68 182.98 653.79 188.59 667.26 188.79 C 659.69 185.54 652.72 181.01 646.89 175.17 C 641.45 175.42 636.05 174.68 630.66 174.09 M 749.22 179.63 C 761.04 184.95 774.34 186.05 787.07 184.13 C 777.00 182.24 767.32 178.75 758.27 173.96 C 755.35 176.01 752.19 177.67 749.22 179.63 M 660.94 176.07 C 668.96 183.85 680.07 189.27 691.45 188.02 C 684.77 184.85 678.34 181.14 672.90 176.08 C 668.94 175.66 664.92 176.36 660.94 176.07 M 649.69 196.19 C 658.74 200.94 669.16 202.07 679.24 201.55 C 673.70 200.21 667.98 198.99 663.27 195.58 C 658.80 196.63 654.22 196.30 649.69 196.19 M 473.24 225.55 C 476.11 225.67 479.00 225.91 481.68 227.06 C 481.80 226.19 482.04 224.46 482.17 223.59 C 479.29 224.73 475.41 223.18 473.24 225.55 M 636.77 238.56 C 640.72 241.91 646.62 243.90 651.50 241.41 C 653.85 240.25 654.36 237.52 654.91 235.22 C 648.80 236.01 642.86 237.70 636.77 238.56 M 630.55 261.98 C 631.27 266.13 631.08 270.42 629.04 274.19 C 630.84 273.40 632.95 272.86 634.12 271.13 C 636.60 267.56 636.30 262.96 636.09 258.83 C 633.95 258.34 630.00 258.98 630.55 261.98 Z" />
<path fill="#373536" opacity="1.00" d=" M 605.29 14.34 C 608.06 13.01 611.53 15.15 611.74 18.17 C 612.13 21.72 607.61 24.59 604.67 22.35 C 601.64 20.59 602.09 15.66 605.29 14.34 Z" />
<path fill="#373536" opacity="1.00" d=" M 169.42 23.29 C 193.82 33.08 219.82 38.36 245.97 40.51 C 270.66 42.59 295.60 42.14 320.14 38.65 C 333.12 37.08 347.14 35.68 359.25 41.75 C 370.96 47.52 378.55 58.52 386.67 68.28 C 398.28 82.28 409.57 96.82 423.92 108.17 C 436.85 118.49 451.93 125.52 466.61 132.92 C 453.81 134.20 440.84 134.12 428.09 132.39 C 417.54 130.88 407.02 128.13 397.65 122.95 C 401.38 121.38 405.36 119.98 408.16 116.89 C 397.98 117.43 387.70 115.62 378.28 111.73 C 374.23 109.97 370.20 107.94 367.00 104.83 C 371.88 104.30 376.88 103.78 381.34 101.54 C 368.68 99.60 356.97 93.31 347.85 84.39 C 353.41 83.31 358.99 81.63 363.60 78.21 C 345.49 80.24 326.96 76.34 310.61 68.50 C 307.17 66.81 303.90 64.79 300.88 62.43 C 309.85 60.10 319.44 55.80 324.21 47.42 C 293.06 58.89 258.72 63.07 226.00 56.49 C 204.31 52.02 182.59 41.70 169.42 23.29 Z" />
<path fill="#373536" opacity="1.00" d=" M 111.78 37.83 C 119.46 39.30 127.11 41.07 134.93 41.55 C 143.91 42.34 152.91 41.40 161.83 40.44 C 168.07 47.43 175.75 52.82 183.16 58.46 C 167.40 58.64 151.58 56.60 136.40 52.37 C 127.30 49.54 117.55 45.87 111.78 37.83 Z" />
<path fill="#373536" opacity="1.00" d=" M 123.87 55.05 C 128.29 56.85 132.34 59.46 136.78 61.27 C 156.50 69.88 178.10 74.78 199.69 73.77 C 202.86 82.64 211.21 88.06 219.32 91.93 C 212.10 91.96 204.93 90.84 197.83 89.63 C 182.00 86.73 166.42 82.09 151.96 74.97 C 141.66 69.82 131.85 63.41 123.87 55.05 Z" />
<path fill="#373536" opacity="1.00" d=" M 208.59 60.36 C 214.22 62.00 219.81 63.91 225.67 64.55 C 226.62 68.19 227.56 72.03 230.16 74.90 C 235.43 81.01 243.47 83.59 251.04 85.51 C 264.53 88.59 278.45 89.43 292.26 89.45 C 286.06 90.93 279.66 91.05 273.35 91.51 C 260.17 92.10 246.72 91.92 233.94 88.32 C 225.96 86.04 218.02 82.02 213.16 75.06 C 210.10 70.79 208.84 65.54 208.59 60.36 Z" />
<path fill="#373536" opacity="1.00" d=" M 163.98 89.82 C 166.05 90.73 168.07 91.75 170.05 92.84 C 195.48 106.32 225.00 111.11 253.52 108.28 C 259.05 115.53 267.56 119.48 276.04 122.17 C 265.09 123.63 253.99 123.69 242.96 123.34 C 226.01 122.52 208.87 120.18 193.05 113.75 C 181.25 109.03 170.11 101.24 163.98 89.82 Z" />
<path fill="#373536" opacity="1.00" d=" M 256.21 96.54 C 261.42 96.71 266.64 96.62 271.85 96.55 C 274.61 104.08 282.54 107.63 289.85 109.20 C 303.73 112.10 318.07 111.48 332.12 110.37 C 315.85 114.10 298.83 116.08 282.20 113.74 C 271.70 112.19 260.20 107.16 256.21 96.54 Z" />
<path fill="#373536" opacity="1.00" d=" M 302.24 119.54 C 307.15 119.29 312.04 118.79 316.90 118.03 C 322.19 127.56 333.94 130.02 343.97 130.35 C 353.44 130.97 362.75 128.83 372.14 128.20 C 358.53 132.73 344.46 136.90 329.98 136.72 C 322.35 136.54 314.21 134.97 308.39 129.68 C 305.33 127.02 303.51 123.31 302.24 119.54 Z" />
<path fill="#373536" opacity="1.00" d=" M 210.80 127.31 C 227.67 134.06 245.79 137.99 264.02 137.60 C 276.16 137.50 288.08 135.08 300.02 133.11 C 303.18 136.61 306.74 139.85 311.10 141.78 C 317.06 144.77 323.73 145.62 330.25 146.55 C 303.07 151.33 274.96 154.78 247.59 149.50 C 233.44 146.57 218.37 140.37 210.80 127.31 Z" />
<path fill="#373536" opacity="1.00" d=" M 367.88 146.72 C 380.45 147.35 392.05 141.69 403.26 136.79 C 394.63 144.87 383.37 149.80 371.94 152.42 C 363.61 154.14 354.33 154.56 346.66 150.33 C 342.95 148.36 340.41 144.86 338.67 141.14 C 343.37 140.65 348.01 139.76 352.67 138.96 C 356.11 143.88 361.96 146.56 367.88 146.72 Z" />
<path fill="#373536" opacity="1.00" d=" M 387.65 158.83 C 398.62 155.03 410.64 149.55 415.74 138.37 C 419.89 139.65 424.14 140.54 428.43 141.21 C 418.14 152.40 403.21 160.45 387.65 158.83 Z" />
<path fill="#373536" opacity="1.00" d=" M 417.22 164.03 C 426.46 159.15 436.63 153.63 440.91 143.49 C 444.93 144.08 448.99 144.44 453.05 144.65 C 444.07 155.05 431.35 163.59 417.22 164.03 Z" />
<path fill="#373536" opacity="1.00" d=" M 471.11 146.96 C 472.06 145.41 474.00 146.20 475.48 146.17 C 475.75 148.57 476.08 150.97 476.49 153.35 C 467.91 161.40 456.66 166.93 444.82 167.62 C 455.12 162.99 463.97 155.65 471.11 146.96 Z" />
<path fill="#373536" opacity="1.00" d=" M 323.08 162.55 C 329.83 161.71 336.39 159.86 343.08 158.74 C 348.84 161.24 354.82 163.42 361.21 163.44 C 345.22 169.77 328.17 173.78 310.95 174.33 C 298.06 174.56 283.47 171.96 274.94 161.36 C 290.87 163.45 307.09 164.86 323.08 162.55 Z" />
<path fill="#373536" opacity="1.00" d=" M 380.52 176.81 C 386.95 174.02 393.41 171.10 398.72 166.42 C 401.90 167.87 405.26 168.85 408.68 169.53 C 400.47 175.00 390.33 177.40 380.52 176.81 Z" />
<path fill="#373536" opacity="1.00" d=" M 422.21 173.22 C 425.94 173.00 429.67 174.23 433.43 174.42 C 425.22 180.79 414.74 184.41 404.31 183.93 C 410.58 180.88 416.78 177.65 422.21 173.22 Z" />
<path fill="#373536" opacity="1.00" d=" M 335.99 183.89 C 345.67 182.27 354.81 178.58 363.52 174.15 C 366.25 176.16 369.21 177.81 372.18 179.44 C 360.99 184.64 348.09 186.13 335.99 183.89 Z" />
<path fill="#373536" opacity="1.00" d=" M 475.14 175.24 C 477.28 175.29 479.44 175.31 481.60 175.31 C 482.06 176.84 482.53 178.37 483.01 179.90 C 474.60 185.11 464.94 188.40 455.01 188.66 C 462.57 185.62 469.23 180.81 475.14 175.24 Z" />
<path fill="#373536" opacity="1.00" d=" M 430.77 187.70 C 437.53 184.99 443.79 181.08 449.01 176.00 C 452.78 176.20 456.55 176.27 460.33 176.20 C 452.58 183.64 441.74 189.21 430.77 187.70 Z" />
<path fill="#373536" opacity="1.00" d=" M 365.89 191.57 C 372.17 190.05 378.38 188.21 384.15 185.24 C 388.10 186.04 391.82 188.08 395.88 188.73 C 386.30 192.31 375.91 191.58 365.89 191.57 Z" />
<path fill="#373536" opacity="1.00" d=" M 392.71 197.59 C 397.61 196.05 402.74 194.94 406.97 191.84 C 410.93 192.84 414.97 193.43 419.04 193.74 C 410.81 197.40 401.58 197.75 392.71 197.59 Z" />
<path fill="#373536" opacity="1.00" d=" M 416.87 199.62 C 421.85 198.44 426.97 197.21 431.15 194.08 C 435.41 194.84 439.75 194.87 444.05 194.42 C 435.49 198.01 426.19 200.11 416.87 199.62 Z" />
<path fill="#373536" opacity="1.00" d=" M 443.79 201.59 C 448.72 200.15 453.77 198.92 458.14 196.09 C 462.47 196.10 466.91 196.80 471.31 196.30 C 462.88 200.79 453.18 201.65 443.79 201.59 Z" />
<path fill="#373536" opacity="1.00" d=" M 511.35 255.16 C 515.86 254.40 520.44 254.81 524.99 254.75 C 543.66 254.72 562.34 254.79 581.01 254.71 C 582.36 254.74 583.73 254.93 585.08 255.20 C 578.69 263.98 570.99 272.33 561.00 277.00 C 553.73 280.46 544.88 281.26 537.52 277.62 C 526.99 272.58 518.91 263.81 511.35 255.16 Z" />
<path fill="#373536" opacity="1.00" d=" M 548.12 290.72 C 564.10 291.66 580.08 290.61 596.05 290.25 C 604.53 290.18 613.73 290.99 620.74 296.26 C 629.14 302.54 629.71 316.16 622.66 323.67 C 618.67 328.18 612.63 330.16 606.78 330.59 C 615.25 330.89 624.62 331.76 631.19 337.75 C 637.72 343.85 638.15 353.85 636.10 362.02 C 633.65 371.81 625.18 378.92 615.91 382.09 C 604.76 386.34 592.64 385.44 580.98 384.80 C 570.02 384.26 559.05 384.54 548.10 384.94 C 548.11 383.27 548.12 381.59 548.13 379.93 C 551.03 379.45 553.94 378.98 556.85 378.51 C 558.34 365.05 557.74 351.49 557.87 337.98 C 557.74 324.38 558.33 310.72 556.86 297.18 C 553.95 296.66 551.04 296.16 548.12 295.66 C 548.12 294.01 548.12 292.36 548.12 290.72 M 576.35 300.52 C 575.82 309.79 575.65 319.06 575.75 328.34 C 584.69 328.58 594.60 329.65 602.44 324.42 C 610.41 319.19 609.90 304.97 600.95 301.02 C 593.17 297.77 584.39 299.02 576.35 300.52 M 575.76 337.90 C 575.67 349.73 575.75 361.56 576.32 373.38 C 586.90 375.75 599.01 377.83 608.78 371.77 C 618.73 365.75 621.53 348.68 611.01 341.88 C 600.43 335.55 587.48 337.53 575.76 337.90 Z" />
<path fill="#373536" opacity="1.00" d=" M 57.13 290.70 C 69.22 291.16 81.32 291.33 93.41 290.71 C 93.36 292.39 93.36 294.07 93.30 295.76 C 90.84 296.16 88.39 296.64 85.95 297.14 C 89.56 315.52 94.77 333.53 99.56 351.62 C 101.00 356.53 102.04 361.56 103.78 366.37 C 110.40 341.31 116.91 316.18 121.79 290.71 C 126.76 291.24 131.76 291.23 136.73 290.72 C 142.14 316.31 149.34 341.48 155.43 366.91 C 161.71 343.78 168.40 320.70 172.99 297.15 C 170.67 296.65 168.35 296.17 166.03 295.70 C 166.01 294.03 165.99 292.37 165.99 290.71 C 175.58 291.24 185.19 291.25 194.78 290.70 C 194.74 292.38 194.71 294.07 194.66 295.76 C 192.10 296.17 189.55 296.64 187.00 297.12 C 175.78 326.14 168.03 356.35 159.36 386.20 C 154.12 385.58 148.85 385.69 143.61 386.13 C 137.40 361.74 131.26 337.34 125.29 312.89 C 120.13 337.47 112.89 361.55 107.66 386.12 C 102.38 385.65 97.07 385.67 91.79 386.15 C 84.15 356.20 75.30 326.56 65.66 297.19 C 62.82 296.65 59.97 296.15 57.11 295.65 C 57.12 293.99 57.13 292.34 57.13 290.70 Z" />
<path fill="#373536" opacity="1.00" d=" M 245.53 300.76 C 259.52 298.95 275.05 301.38 285.80 311.17 C 302.81 326.69 303.69 356.21 287.90 372.90 C 280.03 381.46 268.42 385.77 256.96 386.28 C 244.20 386.97 230.46 384.08 220.95 375.03 C 206.50 361.34 204.09 337.34 214.60 320.61 C 221.11 309.64 232.94 302.36 245.53 300.76 M 248.22 309.27 C 241.46 310.62 235.44 314.87 231.62 320.57 C 226.20 328.58 224.55 338.67 225.50 348.17 C 226.44 357.78 231.00 367.33 238.98 373.01 C 244.95 377.37 252.85 379.01 260.02 377.08 C 267.45 375.32 273.76 370.05 277.35 363.38 C 281.69 355.34 282.74 345.82 281.53 336.85 C 280.23 328.08 276.23 319.32 269.06 313.84 C 263.23 309.31 255.39 307.78 248.22 309.27 Z" />
<path fill="#373536" opacity="1.00" d=" M 791.50 300.38 C 797.23 300.37 802.95 300.38 808.68 300.37 C 817.94 326.84 827.04 353.39 837.86 379.26 C 840.07 379.69 842.27 380.14 844.49 380.59 C 844.50 382.02 844.51 383.46 844.55 384.91 C 833.48 384.43 822.40 384.39 811.33 384.92 C 811.34 383.47 811.36 382.01 811.39 380.57 C 813.88 380.13 816.39 379.73 818.92 379.40 C 817.01 370.35 814.06 361.56 810.91 352.88 C 801.49 352.83 792.08 352.95 782.67 352.81 C 779.47 361.42 777.44 370.39 774.88 379.19 C 777.33 379.71 779.80 380.17 782.28 380.64 C 782.26 382.07 782.25 383.50 782.26 384.94 C 773.29 384.44 764.31 384.37 755.35 384.93 C 755.35 383.47 755.37 382.02 755.39 380.58 C 757.55 380.13 759.72 379.68 761.90 379.21 C 772.83 353.35 782.26 326.88 791.50 300.38 M 785.11 345.12 C 792.83 345.13 800.55 345.13 808.27 345.12 C 804.37 333.84 800.43 322.56 796.57 311.27 C 792.44 322.44 788.79 333.79 785.11 345.12 Z" />
<path fill="#373536" opacity="1.00" d=" M 881.02 308.09 C 888.89 301.93 899.24 300.03 909.02 300.23 C 918.70 300.22 928.21 302.47 937.42 305.28 C 934.87 311.10 932.55 317.04 930.69 323.13 C 929.21 322.72 927.73 322.32 926.26 321.91 C 926.46 319.66 926.58 317.40 926.63 315.14 C 919.72 311.38 911.88 309.28 904.01 309.38 C 898.94 309.61 893.31 310.83 889.93 314.93 C 887.03 318.42 887.44 324.11 890.93 327.06 C 895.18 330.71 900.82 331.99 906.09 333.46 C 915.39 335.99 925.44 337.63 933.25 343.70 C 938.53 347.67 940.93 354.58 940.10 361.03 C 939.40 368.86 934.44 375.85 927.87 379.95 C 919.63 385.16 909.60 386.61 900.01 386.36 C 889.37 386.08 878.60 383.97 869.22 378.79 C 872.24 372.82 874.69 366.57 876.75 360.21 C 878.32 360.57 879.91 360.94 881.51 361.32 C 881.32 364.09 881.16 366.86 881.13 369.64 C 889.97 374.28 899.88 378.18 910.04 376.98 C 916.38 376.33 922.86 371.82 923.58 365.11 C 924.43 360.05 920.95 355.46 916.61 353.30 C 905.29 347.39 891.79 347.02 880.87 340.17 C 876.28 337.38 872.82 332.57 872.39 327.14 C 871.47 319.80 875.24 312.48 881.02 308.09 Z" />
<path fill="#373536" opacity="1.00" d=" M 980.25 309.21 C 987.77 302.55 998.17 300.22 1008.00 300.23 C 1018.22 300.02 1028.29 302.30 1038.01 305.30 C 1035.40 311.10 1033.13 317.06 1031.26 323.15 C 1029.76 322.73 1028.29 322.33 1026.81 321.92 C 1026.97 319.80 1027.14 317.69 1027.38 315.59 C 1020.55 311.04 1012.09 309.33 1004.00 309.40 C 998.17 309.72 990.80 311.76 988.92 318.05 C 987.29 323.00 990.91 327.77 995.34 329.62 C 1006.40 334.69 1019.10 335.15 1029.86 341.04 C 1034.27 343.45 1038.24 347.18 1039.78 352.09 C 1042.48 360.50 1039.57 370.16 1033.20 376.15 C 1026.29 382.93 1016.44 385.65 1007.01 386.25 C 994.26 386.91 981.09 384.97 969.78 378.80 C 972.79 372.80 975.28 366.57 977.32 360.18 C 978.88 360.56 980.43 360.93 982.01 361.31 C 981.93 364.00 981.78 366.70 981.57 369.39 C 990.71 374.61 1001.49 378.57 1012.14 376.70 C 1018.65 375.65 1024.73 369.97 1024.25 363.02 C 1024.08 358.30 1020.31 354.75 1016.31 352.84 C 1005.43 347.55 992.82 346.85 982.30 340.70 C 977.64 338.05 973.80 333.52 973.10 328.08 C 971.88 321.07 974.94 313.81 980.25 309.21 Z" />
<path fill="#373536" opacity="1.00" d=" M 1063.55 300.70 C 1072.84 298.37 1083.05 305.38 1083.99 314.94 C 1085.57 324.70 1076.91 334.43 1067.02 333.91 C 1057.37 334.14 1049.03 324.68 1050.45 315.13 C 1051.15 308.16 1056.74 302.13 1063.55 300.70 M 1063.50 303.78 C 1057.36 305.42 1052.79 311.68 1053.39 318.05 C 1053.75 325.76 1061.56 332.04 1069.17 330.74 C 1076.53 329.82 1082.21 322.22 1080.84 314.89 C 1079.75 307.06 1071.11 301.37 1063.50 303.78 Z" />
<path fill="#373536" opacity="1.00" d=" M 325.75 301.64 C 337.20 302.18 348.68 302.16 360.13 301.63 C 360.12 303.08 360.12 304.53 360.13 305.99 C 357.09 306.47 354.04 306.95 351.00 307.40 C 349.68 317.86 350.25 328.42 350.13 338.94 C 350.24 351.30 349.74 363.68 350.78 376.02 C 363.10 376.80 375.57 376.19 387.68 373.77 C 389.14 370.95 390.68 368.17 392.19 365.37 C 393.66 365.91 395.14 366.45 396.62 367.01 C 394.93 372.76 393.66 378.62 392.53 384.51 C 370.99 384.48 349.44 384.43 327.91 384.89 C 324.66 385.84 325.96 382.27 325.70 380.43 C 328.25 379.99 330.81 379.56 333.37 379.18 C 334.48 371.16 334.28 363.04 334.38 354.97 C 334.16 339.13 334.98 323.24 333.47 307.44 C 330.89 306.96 328.32 306.47 325.75 306.00 C 325.75 304.54 325.75 303.09 325.75 301.64 Z" />
<path fill="#373536" opacity="1.00" d=" M 419.62 301.75 C 440.17 302.02 460.71 302.22 481.25 302.13 C 482.02 307.53 483.31 312.83 484.91 318.04 C 483.40 318.61 481.89 319.17 480.39 319.75 C 479.13 317.36 477.89 314.96 476.62 312.58 C 466.10 310.56 455.34 310.15 444.65 310.26 C 444.32 319.35 443.98 328.43 443.85 337.52 C 452.39 337.44 460.94 337.22 469.45 336.34 C 470.21 334.69 470.96 333.03 471.68 331.36 C 473.15 331.29 474.63 331.23 476.11 331.18 C 475.66 338.06 475.54 344.97 476.14 351.84 C 474.72 351.87 473.29 351.91 471.88 351.96 C 471.05 350.07 470.26 348.17 469.50 346.26 C 460.98 345.53 452.42 345.32 443.87 345.38 C 443.97 356.67 443.60 368.01 444.83 379.25 C 448.51 379.72 452.19 380.17 455.89 380.47 C 455.95 381.95 455.99 383.45 456.04 384.95 C 443.89 384.46 431.73 384.36 419.58 384.90 C 419.60 383.46 419.62 382.02 419.64 380.59 C 422.18 380.14 424.73 379.70 427.28 379.26 C 428.58 367.90 428.15 356.43 428.25 345.01 C 428.16 332.50 428.60 319.96 427.35 307.49 C 424.77 307.03 422.20 306.61 419.62 306.19 C 419.62 304.71 419.62 303.22 419.62 301.75 Z" />
<path fill="#373536" opacity="1.00" d=" M 667.87 301.64 C 679.33 302.18 690.81 302.15 702.26 301.63 C 702.25 303.08 702.24 304.54 702.24 306.00 C 699.21 306.47 696.17 306.94 693.15 307.40 C 691.83 317.90 692.35 328.51 692.25 339.06 C 692.34 351.38 691.90 363.72 692.90 376.01 C 705.22 376.82 717.69 376.16 729.81 373.80 C 731.29 371.10 732.57 368.29 734.26 365.71 C 735.69 365.34 737.27 366.66 738.75 366.91 C 737.20 372.72 735.80 378.57 734.69 384.48 C 712.43 384.52 690.17 384.40 667.92 384.93 C 667.87 383.44 667.84 381.94 667.82 380.45 C 670.44 380.01 673.06 379.56 675.68 379.05 C 676.92 366.75 676.38 354.38 676.50 342.05 C 676.39 330.51 676.91 318.92 675.63 307.43 C 673.04 306.94 670.46 306.47 667.87 305.98 C 667.87 304.53 667.87 303.08 667.87 301.64 Z" />
<path fill="#373536" opacity="1.00" d=" M 1060.87 308.14 C 1064.53 308.30 1068.41 307.54 1071.91 308.94 C 1074.54 310.73 1073.92 315.04 1071.23 316.48 C 1073.72 318.95 1073.06 322.72 1073.79 325.86 C 1072.97 325.75 1071.35 325.54 1070.53 325.43 C 1070.02 323.27 1070.30 320.89 1069.30 318.88 C 1067.89 317.62 1065.72 318.32 1064.02 318.06 C 1064.00 320.59 1063.98 323.13 1063.95 325.66 C 1063.19 325.66 1061.69 325.67 1060.93 325.67 C 1060.81 319.82 1060.90 313.98 1060.87 308.14 M 1064.04 310.26 C 1064.00 312.16 1064.00 314.07 1064.02 315.98 C 1066.26 315.75 1070.32 316.32 1070.39 313.01 C 1070.35 309.68 1066.20 310.61 1064.04 310.26 Z" />
</g>
<g id="#a59468ff">
<path fill="#a59468" opacity="1.00" d=" M 545.11 16.05 C 561.11 9.83 577.88 5.42 594.97 3.62 C 605.26 2.69 616.00 2.57 625.81 6.29 C 626.45 11.89 622.06 17.12 616.50 17.67 C 617.13 28.52 597.79 28.68 597.68 18.02 C 586.80 19.02 575.19 20.10 565.99 26.57 C 575.02 24.73 584.81 24.65 593.32 28.60 C 598.31 30.90 603.05 34.87 604.41 40.42 C 605.49 44.74 603.32 49.30 599.78 51.79 C 594.63 55.71 587.99 56.40 581.87 57.71 C 569.69 60.18 557.41 63.86 547.25 71.25 C 539.02 77.19 532.30 85.14 527.49 94.05 C 530.57 93.09 533.66 92.13 536.80 91.35 C 526.34 104.47 518.29 119.63 514.48 136.03 C 510.29 153.46 510.20 171.90 514.35 189.35 C 515.38 194.13 519.39 199.25 516.03 204.01 C 509.73 212.64 502.81 220.84 496.24 229.28 C 494.60 231.93 490.09 231.93 488.86 228.91 C 487.55 226.32 489.98 224.12 491.04 221.95 C 494.72 215.38 497.83 207.83 496.75 200.15 C 496.10 195.78 492.47 192.91 489.32 190.23 C 484.54 199.74 475.52 206.19 465.73 209.85 C 469.60 209.80 473.82 208.75 477.41 210.69 C 480.76 212.70 481.62 216.90 482.00 220.50 C 471.80 222.50 461.29 223.32 450.96 221.95 C 447.78 221.42 444.09 220.60 442.24 217.69 C 440.75 215.28 441.98 212.46 442.56 209.99 C 434.63 212.73 426.47 215.41 418.00 215.50 C 415.28 215.38 412.00 215.13 410.27 212.73 C 408.64 210.01 410.67 207.06 411.65 204.52 C 404.47 207.42 396.68 209.22 388.91 208.78 C 387.06 208.55 384.37 208.11 384.01 205.90 C 383.71 203.07 386.07 201.04 387.64 198.99 C 379.77 201.86 371.32 204.01 362.90 202.81 C 360.51 202.37 357.54 201.57 356.67 199.00 C 356.18 196.94 357.61 195.15 358.34 193.36 C 349.38 195.58 340.01 196.40 330.83 195.26 C 327.86 194.69 324.31 194.29 322.36 191.68 C 321.37 189.49 323.32 187.69 324.38 185.99 C 309.03 186.08 293.08 182.67 280.60 173.33 C 276.04 169.96 272.21 165.72 268.87 161.16 C 252.00 159.10 235.69 152.86 221.55 143.47 C 214.59 138.90 208.58 133.00 203.85 126.16 C 184.87 119.14 166.83 106.68 157.30 88.38 C 155.33 86.37 152.53 85.40 150.28 83.73 C 135.36 73.57 123.17 59.93 112.44 45.54 C 105.67 36.12 99.05 26.40 94.63 15.62 C 120.71 26.45 148.33 33.17 176.27 36.96 C 169.42 30.40 163.53 22.82 159.25 14.33 C 180.44 24.90 203.51 31.24 226.90 34.57 C 252.77 38.28 279.07 39.01 305.09 36.63 C 318.69 35.36 332.31 32.38 346.01 33.99 C 354.76 34.90 363.15 38.54 369.92 44.13 C 381.94 53.84 389.41 67.84 400.95 78.03 C 421.57 97.83 445.57 116.33 474.42 121.44 C 475.86 112.45 477.59 103.45 480.75 94.87 C 483.54 86.79 487.57 79.24 491.68 71.78 C 488.43 72.99 485.26 74.40 482.10 75.82 C 489.25 57.14 506.17 44.47 522.97 34.87 C 526.51 32.48 530.94 31.50 534.12 28.63 C 530.57 28.17 526.98 28.14 523.41 28.12 C 529.61 22.50 537.48 19.25 545.11 16.05 M 605.29 14.34 C 602.09 15.66 601.64 20.59 604.67 22.35 C 607.61 24.59 612.13 21.72 611.74 18.17 C 611.53 15.15 608.06 13.01 605.29 14.34 M 169.42 23.29 C 182.59 41.70 204.31 52.02 226.00 56.49 C 258.72 63.07 293.06 58.89 324.21 47.42 C 319.44 55.80 309.85 60.10 300.88 62.43 C 303.90 64.79 307.17 66.81 310.61 68.50 C 326.96 76.34 345.49 80.24 363.60 78.21 C 358.99 81.63 353.41 83.31 347.85 84.39 C 356.97 93.31 368.68 99.60 381.34 101.54 C 376.88 103.78 371.88 104.30 367.00 104.83 C 370.20 107.94 374.23 109.97 378.28 111.73 C 387.70 115.62 397.98 117.43 408.16 116.89 C 405.36 119.98 401.38 121.38 397.65 122.95 C 407.02 128.13 417.54 130.88 428.09 132.39 C 440.84 134.12 453.81 134.20 466.61 132.92 C 451.93 125.52 436.85 118.49 423.92 108.17 C 409.57 96.82 398.28 82.28 386.67 68.28 C 378.55 58.52 370.96 47.52 359.25 41.75 C 347.14 35.68 333.12 37.08 320.14 38.65 C 295.60 42.14 270.66 42.59 245.97 40.51 C 219.82 38.36 193.82 33.08 169.42 23.29 M 111.78 37.83 C 117.55 45.87 127.30 49.54 136.40 52.37 C 151.58 56.60 167.40 58.64 183.16 58.46 C 175.75 52.82 168.07 47.43 161.83 40.44 C 152.91 41.40 143.91 42.34 134.93 41.55 C 127.11 41.07 119.46 39.30 111.78 37.83 M 123.87 55.05 C 131.85 63.41 141.66 69.82 151.96 74.97 C 166.42 82.09 182.00 86.73 197.83 89.63 C 204.93 90.84 212.10 91.96 219.32 91.93 C 211.21 88.06 202.86 82.64 199.69 73.77 C 178.10 74.78 156.50 69.88 136.78 61.27 C 132.34 59.46 128.29 56.85 123.87 55.05 M 208.59 60.36 C 208.84 65.54 210.10 70.79 213.16 75.06 C 218.02 82.02 225.96 86.04 233.94 88.32 C 246.72 91.92 260.17 92.10 273.35 91.51 C 279.66 91.05 286.06 90.93 292.26 89.45 C 278.45 89.43 264.53 88.59 251.04 85.51 C 243.47 83.59 235.43 81.01 230.16 74.90 C 227.56 72.03 226.62 68.19 225.67 64.55 C 219.81 63.91 214.22 62.00 208.59 60.36 M 163.98 89.82 C 170.11 101.24 181.25 109.03 193.05 113.75 C 208.87 120.18 226.01 122.52 242.96 123.34 C 253.99 123.69 265.09 123.63 276.04 122.17 C 267.56 119.48 259.05 115.53 253.52 108.28 C 225.00 111.11 195.48 106.32 170.05 92.84 C 168.07 91.75 166.05 90.73 163.98 89.82 M 256.21 96.54 C 260.20 107.16 271.70 112.19 282.20 113.74 C 298.83 116.08 315.85 114.10 332.12 110.37 C 318.07 111.48 303.73 112.10 289.85 109.20 C 282.54 107.63 274.61 104.08 271.85 96.55 C 266.64 96.62 261.42 96.71 256.21 96.54 M 302.24 119.54 C 303.51 123.31 305.33 127.02 308.39 129.68 C 314.21 134.97 322.35 136.54 329.98 136.72 C 344.46 136.90 358.53 132.73 372.14 128.20 C 362.75 128.83 353.44 130.97 343.97 130.35 C 333.94 130.02 322.19 127.56 316.90 118.03 C 312.04 118.79 307.15 119.29 302.24 119.54 M 210.80 127.31 C 218.37 140.37 233.44 146.57 247.59 149.50 C 274.96 154.78 303.07 151.33 330.25 146.55 C 323.73 145.62 317.06 144.77 311.10 141.78 C 306.74 139.85 303.18 136.61 300.02 133.11 C 288.08 135.08 276.16 137.50 264.02 137.60 C 245.79 137.99 227.67 134.06 210.80 127.31 M 367.88 146.72 C 361.96 146.56 356.11 143.88 352.67 138.96 C 348.01 139.76 343.37 140.65 338.67 141.14 C 340.41 144.86 342.95 148.36 346.66 150.33 C 354.33 154.56 363.61 154.14 371.94 152.42 C 383.37 149.80 394.63 144.87 403.26 136.79 C 392.05 141.69 380.45 147.35 367.88 146.72 M 387.65 158.83 C 403.21 160.45 418.14 152.40 428.43 141.21 C 424.14 140.54 419.89 139.65 415.74 138.37 C 410.64 149.55 398.62 155.03 387.65 158.83 M 417.22 164.03 C 431.35 163.59 444.07 155.05 453.05 144.65 C 448.99 144.44 444.93 144.08 440.91 143.49 C 436.63 153.63 426.46 159.15 417.22 164.03 M 471.11 146.96 C 463.97 155.65 455.12 162.99 444.82 167.62 C 456.66 166.93 467.91 161.40 476.49 153.35 C 476.08 150.97 475.75 148.57 475.48 146.17 C 474.00 146.20 472.06 145.41 471.11 146.96 M 323.08 162.55 C 307.09 164.86 290.87 163.45 274.94 161.36 C 283.47 171.96 298.06 174.56 310.95 174.33 C 328.17 173.78 345.22 169.77 361.21 163.44 C 354.82 163.42 348.84 161.24 343.08 158.74 C 336.39 159.86 329.83 161.71 323.08 162.55 M 380.52 176.81 C 390.33 177.40 400.47 175.00 408.68 169.53 C 405.26 168.85 401.90 167.87 398.72 166.42 C 393.41 171.10 386.95 174.02 380.52 176.81 M 422.21 173.22 C 416.78 177.65 410.58 180.88 404.31 183.93 C 414.74 184.41 425.22 180.79 433.43 174.42 C 429.67 174.23 425.94 173.00 422.21 173.22 M 335.99 183.89 C 348.09 186.13 360.99 184.64 372.18 179.44 C 369.21 177.81 366.25 176.16 363.52 174.15 C 354.81 178.58 345.67 182.27 335.99 183.89 M 475.14 175.24 C 469.23 180.81 462.57 185.62 455.01 188.66 C 464.94 188.40 474.60 185.11 483.01 179.90 C 482.53 178.37 482.06 176.84 481.60 175.31 C 479.44 175.31 477.28 175.29 475.14 175.24 M 430.77 187.70 C 441.74 189.21 452.58 183.64 460.33 176.20 C 456.55 176.27 452.78 176.20 449.01 176.00 C 443.79 181.08 437.53 184.99 430.77 187.70 M 365.89 191.57 C 375.91 191.58 386.30 192.31 395.88 188.73 C 391.82 188.08 388.10 186.04 384.15 185.24 C 378.38 188.21 372.17 190.05 365.89 191.57 M 392.71 197.59 C 401.58 197.75 410.81 197.40 419.04 193.74 C 414.97 193.43 410.93 192.84 406.97 191.84 C 402.74 194.94 397.61 196.05 392.71 197.59 M 416.87 199.62 C 426.19 200.11 435.49 198.01 444.05 194.42 C 439.75 194.87 435.41 194.84 431.15 194.08 C 426.97 197.21 421.85 198.44 416.87 199.62 M 443.79 201.59 C 453.18 201.65 462.88 200.79 471.31 196.30 C 466.91 196.80 462.47 196.10 458.14 196.09 C 453.77 198.92 448.72 200.15 443.79 201.59 Z" />
<path fill="#a59468" opacity="1.00" d=" M 944.66 35.21 C 974.06 31.17 1002.99 23.48 1030.46 12.24 C 1025.05 26.76 1016.21 39.67 1007.00 52.00 C 995.26 67.12 982.04 81.63 965.44 91.48 C 964.62 92.04 964.00 92.78 963.58 93.67 C 955.63 108.66 941.28 119.22 926.13 126.17 C 923.48 127.58 920.13 127.85 917.96 129.99 C 909.89 141.84 897.19 149.49 884.40 155.34 C 874.22 159.87 863.44 163.11 852.37 164.54 C 840.87 181.12 820.15 188.61 800.56 188.56 C 801.58 191.94 799.66 195.31 796.24 196.18 C 786.39 199.26 775.80 198.20 765.72 197.02 C 766.43 199.98 765.25 203.40 761.94 203.97 C 753.54 205.74 744.91 203.76 736.59 202.41 C 737.07 205.40 737.32 209.60 733.79 210.83 C 726.92 212.96 719.82 209.96 713.30 207.88 C 714.19 211.64 713.29 216.54 708.99 217.59 C 699.91 219.49 690.85 215.81 682.33 213.03 C 682.30 215.96 681.81 219.30 679.05 220.95 C 674.04 224.20 667.76 224.17 662.01 224.39 C 648.24 224.63 634.73 221.72 621.08 220.51 C 618.06 210.21 614.40 200.05 608.93 190.76 C 616.19 198.08 623.98 205.43 634.05 208.63 C 630.62 208.43 626.73 207.59 623.74 209.77 C 621.62 211.29 621.13 213.99 620.38 216.31 C 634.50 218.20 648.62 220.74 662.92 220.60 C 667.79 220.30 673.32 220.52 677.38 217.39 C 680.16 214.03 676.52 209.91 675.44 206.54 C 684.81 209.71 694.08 213.79 704.07 214.48 C 706.04 214.47 709.26 214.42 709.70 211.95 C 709.99 208.17 707.80 204.78 706.11 201.56 C 695.85 201.95 686.02 198.51 676.84 194.28 C 681.25 194.72 685.68 194.68 690.07 194.03 C 691.81 194.65 692.97 196.32 694.56 197.26 C 699.75 200.83 706.36 200.58 711.93 203.24 C 717.74 205.46 723.76 207.77 730.06 207.84 C 731.21 207.74 733.10 207.52 733.18 205.99 C 732.93 202.98 731.02 200.49 729.73 197.85 C 720.36 197.74 710.63 197.66 701.95 193.66 C 706.32 193.35 710.67 192.73 714.93 191.65 C 721.91 196.77 730.83 197.25 739.02 199.00 C 746.67 200.15 754.63 202.04 762.30 200.01 C 761.21 196.69 758.85 193.66 755.98 191.78 C 745.88 191.40 735.18 192.82 725.66 188.62 C 729.59 187.66 733.51 186.56 737.18 184.79 C 741.88 187.21 746.80 189.22 751.98 190.36 C 759.63 191.97 767.25 193.94 775.10 194.21 C 782.47 194.49 790.19 194.75 797.12 191.82 C 796.40 188.59 793.20 186.98 791.14 184.69 C 809.54 185.75 830.04 182.64 843.46 168.86 C 830.20 174.89 815.20 174.92 801.01 173.13 C 787.58 171.41 774.40 168.03 761.67 163.47 C 768.08 163.12 774.36 161.62 780.08 158.66 C 783.78 158.78 787.35 159.98 791.00 160.52 C 806.65 163.54 822.73 163.89 838.57 162.35 C 849.55 161.18 860.64 160.01 871.13 156.38 C 881.35 152.89 891.42 148.43 900.09 141.92 C 883.18 149.49 864.44 151.61 846.07 151.51 C 827.89 151.61 809.84 149.18 791.91 146.50 C 803.39 145.57 815.96 142.65 823.37 133.04 C 834.56 134.45 845.71 136.50 857.03 136.60 C 877.46 137.20 898.06 133.59 916.93 125.69 C 930.66 120.85 943.83 113.15 953.20 101.85 C 940.06 111.80 924.06 117.03 908.00 119.94 C 887.87 123.38 867.21 124.48 846.90 122.19 C 855.68 119.56 864.44 115.51 870.19 108.07 C 891.94 109.96 914.03 107.23 934.83 100.69 C 947.64 96.52 960.07 90.89 971.16 83.18 C 978.44 77.71 985.38 71.65 991.23 64.66 C 978.78 72.62 965.33 79.00 951.17 83.31 C 935.87 87.90 920.09 91.59 904.07 92.03 C 912.24 87.94 920.69 82.56 924.00 73.56 C 940.26 74.45 956.45 71.20 971.98 66.61 C 981.38 63.62 990.77 60.20 999.34 55.28 C 1002.70 51.90 1005.37 47.88 1008.09 43.97 C 994.71 51.81 979.20 54.77 964.05 56.94 C 956.00 57.99 947.89 58.73 939.77 58.65 C 947.53 53.05 955.34 47.38 961.83 40.27 C 978.86 42.37 996.28 41.11 1012.88 36.84 C 1017.01 31.47 1020.33 25.40 1023.20 19.24 C 996.13 29.51 967.78 36.06 939.14 40.00 C 926.64 48.87 912.24 54.96 897.16 57.81 C 863.90 64.31 829.34 59.10 797.70 47.80 C 803.00 55.77 812.19 60.12 821.21 62.40 C 814.57 67.60 806.75 71.03 798.79 73.68 C 785.97 77.83 772.32 79.92 758.86 78.40 C 763.31 81.76 768.79 83.22 774.17 84.31 C 765.14 93.29 753.46 99.61 740.83 101.62 C 745.32 103.67 750.25 104.24 755.12 104.69 C 749.59 109.99 742.14 112.74 734.89 114.79 C 728.07 116.75 720.96 117.06 713.92 117.30 C 716.94 119.79 720.50 121.44 724.20 122.67 C 723.18 123.53 722.11 124.33 720.89 124.85 C 706.70 131.41 691.36 135.12 675.94 137.38 C 665.59 138.73 655.06 139.64 644.64 138.55 C 675.12 130.24 702.44 111.78 722.84 87.80 C 731.34 77.72 738.58 66.42 742.95 53.92 C 747.84 47.52 753.47 41.15 761.14 38.08 C 772.49 33.36 785.08 34.89 796.98 35.98 C 802.39 36.15 807.63 37.69 813.02 38.10 C 835.59 40.43 858.40 40.36 880.98 38.17 C 907.36 35.53 933.67 29.80 957.81 18.60 C 954.49 24.89 949.59 30.15 944.66 35.21 Z" />
<path fill="#a59468" opacity="1.00" d=" M 625.01 25.01 C 634.23 22.22 644.46 23.53 653.01 27.81 C 656.40 29.61 660.05 31.86 661.35 35.70 C 664.33 44.19 662.19 53.81 657.28 61.14 C 658.52 56.55 660.72 50.97 657.17 46.83 C 652.02 41.01 643.35 40.24 636.10 41.31 C 631.30 42.19 626.37 41.03 622.01 39.00 C 619.34 37.75 616.63 35.18 617.16 31.95 C 617.80 28.14 621.67 26.11 625.01 25.01 Z" />
<path fill="#a59468" opacity="1.00" d=" M 643.98 53.12 C 647.92 52.51 651.04 49.82 654.35 47.82 C 653.56 52.39 651.66 57.36 646.97 59.17 C 634.50 64.52 620.86 60.07 607.89 60.26 C 611.82 55.71 616.32 49.98 623.01 50.36 C 630.20 49.92 636.78 54.54 643.98 53.12 Z" />
<path fill="#a59468" opacity="1.00" d=" M 895.78 64.58 C 901.75 63.71 907.47 61.77 913.29 60.25 C 913.32 70.08 907.57 79.32 898.93 83.88 C 884.06 91.96 866.50 92.20 850.01 91.73 C 842.85 91.18 835.53 91.26 828.56 89.39 C 841.76 89.31 855.02 88.59 867.98 85.96 C 875.68 84.27 883.68 81.97 889.69 76.62 C 893.23 73.57 894.98 69.08 895.78 64.58 Z" />
<path fill="#a59468" opacity="1.00" d=" M 849.73 96.40 C 855.08 96.51 860.42 96.58 865.77 96.37 C 862.07 106.66 851.25 111.90 841.11 113.61 C 823.40 116.55 805.29 114.00 787.90 110.33 C 801.61 111.00 815.48 112.05 829.09 109.62 C 837.25 108.20 846.61 104.89 849.73 96.40 Z" />
<path fill="#a59468" opacity="1.00" d=" M 791.85 127.91 C 797.29 126.31 801.92 122.66 804.84 117.82 C 809.76 118.73 814.76 119.07 819.74 119.50 C 817.27 128.93 808.36 135.14 798.96 136.21 C 781.11 138.65 763.40 133.14 746.75 127.23 C 761.60 129.42 777.14 132.53 791.85 127.91 Z" />
<path fill="#a59468" opacity="1.00" d=" M 717.02 135.96 C 728.49 140.86 740.15 146.99 752.99 146.62 C 759.20 146.63 765.42 143.92 769.03 138.75 C 773.74 139.63 778.46 140.53 783.25 141.01 C 780.05 150.03 770.01 154.07 761.05 153.76 C 744.89 153.46 728.96 146.77 717.02 135.96 Z" />
<path fill="#a59468" opacity="1.00" d=" M 692.78 141.14 C 697.28 140.47 701.74 139.50 706.10 138.19 C 711.32 149.55 723.64 155.40 735.03 158.75 C 718.93 161.12 703.54 152.50 692.78 141.14 Z" />
<path fill="#a59468" opacity="1.00" d=" M 667.98 144.53 C 672.32 144.39 676.65 143.95 680.95 143.32 C 685.22 153.62 695.59 159.12 704.92 164.07 C 690.24 164.18 677.60 154.78 667.98 144.53 Z" />
<path fill="#a59468" opacity="1.00" d=" M 637.91 146.05 C 641.92 146.18 645.95 146.08 649.97 145.83 C 657.20 155.17 666.62 162.70 677.30 167.72 C 661.69 167.12 647.53 157.94 637.91 146.05 Z" />
<path fill="#a59468" opacity="1.00" d=" M 570.46 166.64 C 574.27 165.19 577.71 168.32 580.24 170.79 C 589.07 179.90 595.85 190.73 602.59 201.40 C 608.29 210.71 613.77 220.15 618.81 229.83 C 617.03 231.58 613.52 232.66 612.04 230.00 C 605.89 220.91 597.20 214.04 589.45 206.40 C 580.91 198.10 573.20 188.67 568.35 177.72 C 566.87 174.16 566.48 168.68 570.46 166.64 Z" />
<path fill="#a59468" opacity="1.00" d=" M 712.46 169.45 C 716.11 168.79 719.71 167.80 723.07 166.20 C 728.63 171.10 735.36 174.36 742.30 176.80 C 731.91 177.86 721.21 175.12 712.46 169.45 Z" />
<path fill="#a59468" opacity="1.00" d=" M 687.71 174.33 C 691.55 173.93 695.40 173.50 699.19 172.66 C 704.89 177.46 711.42 181.13 718.35 183.85 C 707.37 184.99 696.40 180.85 687.71 174.33 Z" />
<path fill="#a59468" opacity="1.00" d=" M 630.66 174.09 C 636.05 174.68 641.45 175.42 646.89 175.17 C 652.72 181.01 659.69 185.54 667.26 188.79 C 653.79 188.59 640.68 182.98 630.66 174.09 Z" />
<path fill="#a59468" opacity="1.00" d=" M 749.22 179.63 C 752.19 177.67 755.35 176.01 758.27 173.96 C 767.32 178.75 777.00 182.24 787.07 184.13 C 774.34 186.05 761.04 184.95 749.22 179.63 Z" />
<path fill="#a59468" opacity="1.00" d=" M 660.94 176.07 C 664.92 176.36 668.94 175.66 672.90 176.08 C 678.34 181.14 684.77 184.85 691.45 188.02 C 680.07 189.27 668.96 183.85 660.94 176.07 Z" />
<path fill="#a59468" opacity="1.00" d=" M 649.69 196.19 C 654.22 196.30 658.80 196.63 663.27 195.58 C 667.98 198.99 673.70 200.21 679.24 201.55 C 669.16 202.07 658.74 200.94 649.69 196.19 Z" />
<path fill="#a59468" opacity="1.00" d=" M 463.54 236.74 C 465.05 232.38 469.20 228.63 474.04 228.98 C 478.05 228.91 481.17 231.69 483.96 234.21 C 487.09 234.55 489.96 235.84 492.34 237.89 C 496.67 237.10 501.78 235.47 505.63 238.47 C 507.94 240.23 507.97 243.32 507.63 245.94 C 506.96 250.31 509.48 254.61 508.13 258.93 C 507.59 261.14 505.50 262.33 503.92 263.74 C 504.19 260.74 504.27 257.73 504.09 254.73 C 503.46 254.81 502.20 254.96 501.57 255.04 C 492.51 254.44 483.41 254.88 474.34 254.76 C 475.38 251.56 475.85 248.22 476.33 244.90 C 483.92 244.83 491.50 244.90 499.09 244.86 C 499.08 244.21 499.04 242.90 499.03 242.25 C 491.26 243.99 481.99 243.20 476.08 237.34 C 475.33 237.43 473.81 237.61 473.05 237.70 C 473.44 245.76 472.76 254.61 467.06 260.87 C 467.44 261.37 468.18 262.37 468.55 262.87 C 467.73 267.39 467.87 272.06 469.90 276.25 C 467.98 275.20 465.57 274.51 464.48 272.44 C 461.92 268.03 463.20 262.73 462.56 257.90 C 461.69 250.89 461.07 243.51 463.54 236.74 Z" />
<path fill="#a59468" opacity="1.00" d=" M 443.50 232.67 C 446.39 231.31 449.36 232.86 452.18 233.60 C 456.06 234.79 460.16 234.62 464.16 234.99 C 458.69 239.05 452.03 242.63 445.00 241.89 C 441.83 241.67 440.30 238.70 439.10 236.18 C 434.38 236.83 429.93 239.38 427.58 243.63 C 425.55 246.53 426.53 250.17 427.23 253.35 C 428.35 249.95 429.90 245.66 434.00 245.07 C 441.15 244.62 448.34 244.86 455.51 245.03 C 455.66 248.27 456.06 251.51 457.02 254.63 C 423.04 254.92 389.04 254.67 355.05 254.75 C 246.47 254.75 137.90 254.76 29.32 254.74 C 26.02 251.49 22.74 248.23 19.51 244.91 C 152.96 244.83 286.42 244.90 419.87 244.87 C 420.52 244.87 421.82 244.86 422.48 244.85 C 424.41 240.12 428.01 235.61 433.12 234.24 C 436.59 233.74 440.19 234.03 443.50 232.67 Z" />
<path fill="#a59468" opacity="1.00" d=" M 614.13 235.11 C 618.59 235.60 622.71 233.54 627.03 232.88 C 631.54 232.59 633.90 237.32 634.49 241.13 C 635.30 247.14 635.23 253.86 631.92 259.14 C 629.63 260.63 627.70 257.97 626.99 256.05 C 625.22 251.02 625.59 245.57 625.83 240.34 C 617.72 244.66 608.10 243.06 599.60 240.93 C 599.38 243.50 599.49 246.19 598.49 248.63 C 597.70 250.57 595.48 251.09 593.81 252.00 C 591.99 255.64 591.66 259.71 592.55 263.65 C 591.10 262.33 589.16 261.23 588.71 259.17 C 587.92 257.30 587.94 254.69 585.48 254.19 C 585.47 254.92 585.44 256.37 585.43 257.10 C 585.34 256.63 585.16 255.67 585.08 255.20 C 583.73 254.93 582.36 254.74 581.01 254.71 C 562.34 254.79 543.66 254.72 524.99 254.75 C 520.44 254.81 515.86 254.40 511.35 255.16 L 511.24 255.71 C 510.66 252.17 510.03 248.55 511.05 245.03 C 536.53 244.67 562.03 244.97 587.52 244.87 C 587.84 241.49 588.06 237.36 591.43 235.51 C 595.53 233.03 600.34 234.97 604.17 237.02 C 607.29 235.56 610.65 234.63 614.13 235.11 Z" />
<path fill="#a59468" opacity="1.00" d=" M 636.77 238.56 C 642.86 237.70 648.80 236.01 654.91 235.22 C 654.36 237.52 653.85 240.25 651.50 241.41 C 646.62 243.90 640.72 241.91 636.77 238.56 Z" />
<path fill="#a59468" opacity="1.00" d=" M 661.55 241.25 C 659.83 239.55 661.39 235.72 663.91 236.03 C 668.41 237.31 672.14 240.59 674.14 244.81 C 674.90 244.82 676.41 244.84 677.17 244.85 C 818.60 244.94 960.03 244.82 1101.47 244.90 C 1098.25 248.23 1094.97 251.47 1091.70 254.74 C 940.98 254.77 790.26 254.74 639.54 254.75 C 640.27 251.51 640.63 248.20 640.72 244.88 C 646.81 244.97 652.91 244.66 659.00 244.98 C 664.49 245.32 669.07 249.25 671.09 254.23 C 671.36 251.33 672.33 248.02 670.47 245.44 C 668.19 242.88 664.50 242.62 661.55 241.25 Z" />
<path fill="#a59468" opacity="1.00" d=" M 604.49 244.97 C 610.64 244.78 616.81 244.87 622.97 244.91 C 623.37 248.19 623.65 251.48 624.18 254.75 C 614.78 254.74 605.39 254.78 596.00 254.72 C 596.14 254.47 596.40 253.98 596.53 253.73 C 600.58 252.34 603.29 249.01 604.49 244.97 Z" />
<path fill="#a59468" opacity="1.00" d=" M 630.55 261.98 C 630.00 258.98 633.95 258.34 636.09 258.83 C 636.30 262.96 636.60 267.56 634.12 271.13 C 632.95 272.86 630.84 273.40 629.04 274.19 C 631.08 270.42 631.27 266.13 630.55 261.98 Z" />
</g>
</svg>
