<?xml version="1.0" encoding="UTF-8" standalone="no"?>
<!-- Created with Inkscape (http://www.inkscape.org/) -->
<svg
   xmlns:svg="http://www.w3.org/2000/svg"
   xmlns="http://www.w3.org/2000/svg"
   width="467.85712"
   height="466.42859"
   version="1.0">
  <defs>
   <linearGradient id="colour1">
     <stop offset="100%" stop-color="red"/>
   </linearGradient>
</defs>
    <path
       style="fill:url(#colour1);fill-opacity:1;fill-rule:evenodd;stroke:#808080;stroke-width:1.60000002;stroke-linecap:butt;stroke-linejoin:miter;stroke-miterlimit:4;stroke-dasharray:none;stroke-opacity:1"
       d="M 421.42857,600.21932 C 418.75018,598.11952 414.63185,596.01191 411.42857,594.86218 C 410.40016,594.49306 408.48073,595.04513 407.85714,594.1479 C 406.309,591.92041 410.0603,587.81902 409.28571,585.21932 C 408.83089,583.69285 406.31709,582.76507 405.71429,581.29075 C 404.65924,578.71033 406.89585,574.3297 405.35714,572.00504 C 404.24605,570.32642 400.82205,570.44865 399.28571,569.1479 C 397.99279,568.05325 397.57201,565.29127 396.07143,564.50504 C 394.74276,563.80888 392.44445,565.10904 391.07143,564.50504 C 387.8784,563.10042 385.53754,558.5357 383.21429,555.93361 C 381.03933,553.49761 378.98901,549.18638 376.07143,547.71932 C 374.82336,547.09175 372.46704,548.29659 371.42857,547.36218 C 368.35106,544.59307 370.34157,537.68208 368.92857,533.79075 C 367.96243,531.13005 366.53056,527.30083 364.28571,525.57647 C 361.91571,523.75598 356.51222,525.40812 354.64286,523.07647 C 352.69813,520.65081 355.52479,515.57072 354.28571,512.71932 C 353.62143,511.19066 351.6651,509.82385 350.35714,508.79075 C 347.79033,506.76333 344.19862,504.03545 341.07143,503.07647 C 338.71321,502.3533 334.65404,504.4091 332.85714,502.71932 C 331.36596,501.31703 333.14212,497.72009 332.14286,495.93361 C 331.28502,494.39995 329.21549,492.74312 327.5,492.36218 C 325.57136,491.93391 322.92751,494.46752 321.07143,493.79075 C 318.91721,493.00527 318.27679,489.07642 316.42857,487.71932 C 315.41773,486.97709 313.75286,486.34602 312.5,486.29075 C 310.83831,486.21745 308.73586,488.19777 307.14286,487.71932 C 304.67158,486.97708 302.47755,483.64825 301.42857,481.29075 C 301.03415,480.40432 301.60894,478.88418 301.07143,478.07647 C 300.4603,477.15813 298.66806,477.03858 297.85714,476.29075 C 296.7212,475.24319 296.13594,473.0526 295,472.00504 C 294.18908,471.25721 292.44911,471.10065 291.78571,470.21932 C 290.06636,467.93518 291.30283,463.26126 289.64286,460.93361 C 288.46908,459.28771 285.42935,458.71658 283.92857,457.36218 C 283.02166,456.54373 282.005,455.22497 281.42857,454.1479 C 280.62921,452.65427 279.63186,450.48479 279.64286,448.79075 C 279.6598,446.18171 283.38931,443.02933 282.5,440.57647 C 282.07411,439.4018 279.50201,439.54374 278.92857,438.43361 C 278.28744,437.19245 278.73951,435.07652 279.28571,433.79075 C 280.2946,431.41582 285.71354,429.8419 285,427.36218 C 284.2593,424.78806 278.71111,426.26388 276.42857,424.86218 C 274.42617,423.63252 273.05013,420.41534 271.07143,419.1479 C 268.78899,417.6859 265.09422,417.07622 262.5,416.29075 C 260.1616,415.58274 256.20986,416.02243 254.64286,414.1479 C 252.29738,411.34211 252.75123,405.56889 253.57143,402.00504 C 254.1319,399.56972 256.02358,396.56011 257.85714,394.86218 C 259.96655,392.9088 266.03569,393.42444 266.42857,390.57647 C 266.64623,388.99862 263.74423,387.99946 262.5,387.00504 C 260.45672,385.37199 257.6468,383.26967 255.35714,382.00504 C 253.42365,380.93713 250.70282,379.72755 248.57143,379.1479 C 245.44235,378.29692 240.96388,378.64857 237.85714,377.71932 C 234.78108,376.79925 229.80313,375.8665 228.21429,373.07647 C 226.99022,370.92698 230.18527,366.99275 228.92857,364.86218 C 227.32024,362.13547 221.04645,363.20734 219.28571,360.57647 C 217.08,357.28073 221.68792,350.21052 218.92857,347.36218 C 217.65903,346.0517 214.56038,347.6593 212.85714,347.00504 C 210.93586,346.26703 207.53487,344.77717 207.5,342.71932 C 207.46653,340.74399 211.6062,340.19548 212.5,338.43361 C 213.13201,337.18778 213.58464,334.98334 212.85714,333.79075 C 211.70686,331.9051 207.29322,332.77373 206.07143,330.93361 C 204.82685,329.05917 205.13125,325.47776 206.07143,323.43361 C 206.89695,321.63874 210.32809,320.97834 211.07143,319.1479 C 211.96198,316.95496 210.89424,313.59587 210.35714,311.29075 C 209.34121,306.93056 207.24294,301.23679 205,297.36218 C 203.8934,295.45057 201.21014,293.68535 200.35714,291.6479 C 199.98246,290.75295 199.86949,289.39501 200,288.43361 C 200.15523,287.29013 200.47301,285.50913 201.42857,284.86218 C 202.58195,284.0813 204.88659,285.59445 206.07143,284.86218 C 207.09042,284.23241 208.04902,282.47318 207.85714,281.29075 C 207.68724,280.24379 206.24742,279.3673 205.35714,278.79075 C 203.33618,277.48197 199.31185,277.85221 197.85714,275.93361 C 197.14213,274.9906 196.83468,272.98374 197.5,272.00504 C 198.56738,270.43491 202.06949,271.38069 203.57143,270.21932 C 205.54833,268.69068 207.26799,265.50501 207.85714,263.07647 C 208.64182,259.84195 207.62033,255.29895 207.14286,252.00504 C 206.79609,249.61279 204.50188,246.40879 205.35714,244.1479 C 207.69277,237.97365 218.65902,236.06841 223.21429,231.29075 C 224.97792,229.44102 225.53008,225.20463 227.85714,224.1479 C 228.54696,223.83465 229.69087,224.86569 230.35714,224.50504 C 231.91683,223.66078 232.1285,220.76484 232.85714,219.1479 C 233.96113,216.69803 234.42544,212.72474 236.42857,210.93361 C 237.51492,209.96223 239.94534,210.43005 241.07143,209.50504 C 242.29384,208.50091 242.40075,205.92616 243.57143,204.86218 C 246.84057,201.89099 254.0474,202.29964 257.14286,199.1479 C 257.95145,198.32461 257.75154,196.38851 258.57143,195.57647 C 260.04164,194.12032 263.35978,194.33804 265,193.07647 C 268.89001,190.08448 270.61855,182.67094 274.64286,179.86218 C 275.92211,178.96933 278.27988,179.19253 279.64286,178.43361 C 281.03447,177.65875 282.13025,175.54041 283.57143,174.86218 C 284.25693,174.53958 285.35009,174.73667 286.07143,174.50504 C 291.82045,172.65898 298.06315,166.65319 303.92857,165.21932 C 305.38566,164.86312 307.82799,164.20015 308.92857,165.21932 C 310.97855,167.11766 309.64286,174.50504 309.64286,174.50504 L 309.64286,181.29075 C 309.64286,181.29075 313.55672,185.72004 314.28571,188.07647 C 315.52066,192.06838 316.51111,198.46837 314.28571,202.00504 C 312.70335,204.51978 306.34638,203.48911 305.35714,206.29075 C 304.52741,208.64064 307.46622,211.77283 308.92857,213.79075 C 310.75184,216.3067 314.95308,218.19915 316.42857,220.93361 C 318.70395,225.15046 317.21104,232.32876 319.28571,236.6479 C 320.69968,239.59157 323.68195,243.09566 326.42857,244.86218 C 328.9662,246.49429 334.14809,245.39465 336.07143,247.71932 C 338.13065,250.20821 336.39227,255.2917 337.14286,258.43361 C 337.97042,261.89772 338.95532,266.94224 341.42857,269.50504 C 342.56184,270.67934 345.47857,270.32096 346.42857,271.6479 C 347.24178,272.78378 346.8904,274.89771 346.78571,276.29075 C 346.67858,277.71619 345.63393,279.50641 345.71429,280.93361 C 345.82288,282.8621 346.48303,285.64758 347.85714,287.00504 C 352.36456,291.45783 363.02738,289.68983 367.85714,293.79075 C 369.24558,294.96967 369.35585,297.93454 370.71429,299.1479 C 375.26977,303.21684 383.64312,305.50259 389.64286,306.6479 C 392.4844,307.19033 396.4752,307.33322 399.28571,306.6479 C 402.45157,305.87592 405.73336,302.28764 408.92857,301.6479 C 410.19363,301.39461 412.14594,301.28173 413.21429,302.00504 C 414.40461,302.81093 414.33547,305.27956 415.35714,306.29075 C 418.66072,309.56045 424.80248,311.84958 429.28571,313.07647 C 433.12195,314.1263 438.75468,312.80944 442.5,314.1479 C 444.09527,314.718 445.54823,316.7903 447.14286,317.36218 C 448.35729,317.79771 450.28997,317.11259 451.42857,317.71932 C 453.85038,319.00984 455.54674,322.62991 457.14286,324.86218 C 457.95539,325.99855 458.61642,327.84315 459.64286,328.79075 C 461.15715,330.18874 463.88177,331.06199 465.71429,332.00504 C 467.41849,332.88205 469.72114,333.99146 471.42857,334.86218 C 474.11811,336.23374 477.42443,338.7881 480.35714,339.50504 C 482.12647,339.93757 484.84356,338.60762 486.42857,339.50504 C 488.60318,340.73628 488.77231,345.07513 490.71429,346.6479 C 493.53169,348.92965 498.53117,350.26056 502.14286,350.57647 C 504.19595,350.75605 506.9791,350.17362 508.92857,349.50504 C 512.28533,348.35383 516.36544,341.77454 519.28572,343.79075 C 521.15609,345.08208 517.66206,349.08601 518.21429,351.29075 C 518.69852,353.224 520.75722,355.21544 522.14286,356.6479 C 523.46916,358.01901 525.91089,359.12001 527.14286,360.57647 C 528.00986,361.60146 528.26631,363.63148 529.28572,364.50504 C 531.44744,366.35748 535.92478,366.02736 538.21429,367.71932 C 539.50679,368.67449 541.48528,370.3989 541.42857,372.00504 C 541.35352,374.13044 537.66739,375.42682 536.78572,377.36218 C 534.68265,381.97866 536.4593,389.46309 534.41199,394.10457 C 533.45237,396.28013 530.62402,398.19922 529.3668,400.21746 C 528.64747,401.37221 527.50338,402.98994 527.50019,404.35041 C 527.49611,406.09171 528.98861,408.14643 529.86451,409.65141 C 530.1717,410.17924 530.73291,410.78244 531.07143,411.29075 C 532.11032,412.85071 532.65476,415.72447 534.28572,416.6479 C 536.70985,418.02042 540.88846,415.89834 543.57143,416.6479 C 547.55333,417.76036 552.70461,420.61944 555.35714,423.79075 C 557.27203,426.08015 556.63965,431.161 558.92857,433.07647 C 563.27957,436.71757 572.48792,433.98935 577.5,436.6479 C 579.10629,437.49992 580.31066,439.87045 581.78572,440.93361 C 582.56314,441.49395 584.03615,441.62038 584.64286,442.36218 C 587.24271,445.5409 586.43417,451.87583 588.21429,455.57647 C 589.07821,457.37246 590.90741,459.36977 592.14286,460.93361 C 593.88626,463.14041 595.43514,467.64549 598.21429,468.07647 C 600.21198,468.38626 601.93722,464.15682 603.92857,464.50504 C 605.80768,464.83363 606.52779,468.13688 607.85714,469.50504 C 609.02343,470.70537 610.74219,472.16041 612.14286,473.07647 C 613.9474,474.25667 616.8872,474.94443 618.57143,476.29075 C 619.76089,477.24157 620.40962,479.56722 621.78572,480.21932 C 624.01262,481.2746 627.67774,479.39482 630,480.21932 C 632.08151,480.95834 634.07404,483.38285 635.71429,484.86218 C 637.28958,486.28291 640.65852,487.74159 640.71429,489.86218 C 640.75218,491.30314 638.25571,492.20613 637.5,493.43361 C 636.41515,495.19571 635.38154,497.82839 635,499.86218 C 634.76293,501.12585 634.23997,503.11087 635,504.1479 C 636.26195,505.86978 640.4659,504.61281 641.78572,506.29075 C 644.70703,510.00474 642.23177,517.32137 642.85714,522.00504 C 643.21866,524.71263 645.74795,528.43551 644.64286,530.93361 C 643.63189,533.21896 639.91778,535.85117 637.5,535.21932 C 635.82851,534.7825 635.03705,531.90137 634.64286,530.21932 C 634.22655,528.44287 635.69549,525.83472 635,524.1479 C 633.95877,521.62252 630.86288,518.74481 628.21429,518.07647 C 625.54338,517.4025 621.74765,521.455 619.28572,520.21932 C 616.36864,518.75519 617.8168,511.86816 615,510.21932 C 612.39613,508.69512 607.3333,513.2036 605,511.29075 C 603.16961,509.79019 605.92753,505.13845 604.28572,503.43361 C 601.96266,501.02136 596.35074,503.17903 593.21429,502.00504 C 591.76711,501.46335 590.41651,499.5648 588.92857,499.1479 C 586.45035,498.45354 582.6352,500.70261 580.35714,499.50504 C 576.43658,497.44401 575.92334,489.81562 572.5,487.00504 C 569.48569,484.53028 563.52602,484.63564 560.35714,482.36218 C 557.08009,480.01111 554.9993,474.44215 551.78572,472.00504 C 550.94492,471.3674 549.61232,470.40307 548.57143,470.57647 C 546.5523,470.91284 545.43246,474.3669 543.57143,475.21932 C 541.80725,476.02738 539.08047,476.03835 537.14286,475.93361 C 534.18375,475.77365 530.46334,473.76841 527.5,473.79075 C 525.18717,473.80818 521.92249,474.29057 520,475.57647 C 518.0226,476.89909 517.3108,480.6476 515.35714,482.00504 C 512.71016,483.84421 508.14343,484.14954 505,484.86218 C 502.02796,485.53596 497.64549,485.13516 495,486.6479 C 493.28497,487.62858 492.14774,490.28839 490.71429,491.6479 C 489.43926,492.85716 486.91438,493.67742 486.07143,495.21932 C 484.26599,498.52177 487.22604,504.68443 485,507.71932 C 483.83498,509.30766 480.30501,508.81024 478.92857,510.21932 C 477.88577,511.28685 478.11174,513.72714 477.14286,514.86218 C 475.61567,516.65127 472.09348,517.20384 470.35714,518.79075 C 468.71142,520.29484 467.37356,523.05245 466.07143,524.86218 C 464.90744,526.47991 463.84025,529.1749 462.14286,530.21932 C 461.03273,530.90239 458.85944,530.10031 457.85714,530.93361 C 454.96415,533.3388 456.11233,539.94477 453.57143,542.71932 C 452.37364,544.02726 449.89114,544.64175 448.21429,545.21932 C 445.51121,546.15037 439.71673,544.61404 438.92857,547.36218 C 438.1349,550.12955 443.37877,552.46456 445.71429,554.1479 C 448.04657,555.82891 451.61146,557.37832 454.28572,558.43361 C 457.09228,559.54111 461.53324,559.45617 463.92857,561.29075 C 465.22697,562.28519 465.65589,564.75114 466.78572,565.93361 C 469.02345,568.2756 473.62724,569.52783 475.71429,572.00504 C 476.54842,572.99511 476.81652,574.83412 477.5,575.93361 C 478.30395,577.22688 480.40622,578.37088 480.71429,579.86218 C 481.1877,582.15383 478.8187,585.03525 478.57143,587.36218 C 478.40123,588.96387 479.79181,591.35947 478.92857,592.71932 C 477.51035,594.95342 472.80885,594.31641 470.71429,595.93361 C 469.5608,596.82422 468.45633,598.53376 467.85714,599.86218 C 467.45099,600.76263 467.98717,602.56373 467.14286,603.07647 C 465.72118,603.93984 463.39209,601.21645 461.78572,601.6479 C 460.46869,602.00164 458.93545,603.54796 458.57143,604.86218 C 458.33559,605.71364 459.75021,606.96775 459.28572,607.71932 C 458.24708,609.39988 454.7189,608.4869 452.85714,609.1479 C 450.37366,610.02964 447.63102,612.92518 445,613.07647 C 443.74799,613.14846 441.96262,612.53022 441.07143,611.6479 C 439.77036,610.35978 440.18413,607.26613 438.92857,605.93361 C 436.7576,603.62958 432.45133,601.62545 429.28571,601.6479 C 427.7517,601.65878 426.14548,604.09971 424.64286,603.79075 C 423.23094,603.50044 422.56297,601.10867 421.42857,600.21932 z"
       />
</svg>