<?xml version="1.0" encoding="utf-8"?>
<!-- Generator: Adobe Illustrator 14.0.0, SVG Export Plug-In . SVG Version: 6.00 Build 43363)  -->
<!DOCTYPE svg PUBLIC "-//W3C//DTD SVG 1.0//EN" "http://www.w3.org/TR/2001/REC-SVG-20010904/DTD/svg10.dtd">
<svg version="1.0" id="Layer_1" xmlns="http://www.w3.org/2000/svg" xmlns:xlink="http://www.w3.org/1999/xlink" x="0px" y="0px"
	 width="259px" height="194px" viewBox="0 0 259 194" enable-background="new 0 0 259 194" xml:space="preserve">
<defs>
   <linearGradient id="colour0">
     <stop offset="100%" stop-color="white"/>
   </linearGradient>
   <linearGradient id="colour1">
     <stop offset="100%" stop-color="black"/>
   </linearGradient>
 </defs>
<g id="Layer_2">
	<rect x="0" y="0" fill="url(#colour0)" stroke="url(#colour1)" stroke-width="0.3089" width="259" height="194"/>
</g>
<g id="_x23_010101ff">
	<path fill="url(#colour1)" d="M0,0h13.87c4.77,8.41,9.12,17.04,13.63,25.58c2.35,4.46,6.74,7.44,8.92,12.01
		c2.75,5.65,3.39,11.99,4.96,18.01c1.48,6.8,3.96,13.31,5.86,19.98c2.88,10.08,1.5,20.95,5.42,30.79c2.5,6.17,4.27,12.68,7.46,18.55
		c4.24,7.83,12.45,12.18,17.78,19.109c4.92,5.671,7.92,12.65,12.45,18.601c2.25,3.07,4.56,6.101,6.9,9.101
		c5.51,7.01,9.8,14.869,14.74,22.27H88.54c-11.22-12.79-18.68-28.221-28.49-42.02c-6.53-9.021-11.89-18.801-18.02-28.09
		c-5.07-7.551-6.51-16.771-8.13-25.541c-1.86-9.419-1.92-19.16-4.85-28.359c-4.61-15.25-9.71-30.5-17.59-44.42
		C7.97,20.02,3.72,15,0,9.62V0z"/>
	<path fill="url(#colour1)" d="M23.67,0h23.05c4.53,6.86,8.62,14.04,13.6,20.59c5.73,6.35,11.31,13.65,12.46,22.37
		c0.24,8.01,0.19,16.06,1.53,23.98c0.86,5.47,4.3,10.17,4.91,15.71c1.49,12.08,1.59,24.29,2.83,36.4
		c0.47,4.261,1.82,8.37,3.67,12.22c2.89,6.021,5.2,12.291,7.32,18.621c-3.28-6.42-8.89-11.08-13-16.91
		c-4.73-6.36-9.48-12.76-13.29-19.721c-5.95-12.05-6.18-25.79-9.61-38.59c-1.93-8.27-5.85-16.04-6.54-24.6
		c-0.75-4.83-0.14-9.82-1.28-14.58c-2.53-6.53-6.98-12.08-11.33-17.47C32.93,12.24,28.63,5.86,23.67,0z"/>
	<path fill="url(#colour1)" d="M62.5,0h25c4.59,6.17,9.03,12.54,14.6,17.88c6.83,6.23,11.5,14.89,12.76,24.07
		c1.13,9.33,3.02,18.6,3.08,28.03c-0.11,12.7,1.68,25.31,1.78,38c0.34,11.31,2.36,22.569,6.1,33.25
		c2.16,7.92,5.901,15.319,7.78,23.33c1.65,5.969,1.68,12.279,3.73,18.16c1.26,3.819,2.71,7.579,4.279,11.279H122.46
		c-2.72-5.529-5.09-11.23-7.57-16.859c-4.32-8.811-10.5-16.591-14.39-25.621c-2.61-5.979-5.2-11.99-6.96-18.279
		c-2.16-7.57-1.77-15.561-1.3-23.33c1.03-9.92,0.6-19.9,0.06-29.83c-0.53-11.54-4.24-22.65-4.98-34.17
		c-1.08-10.66-3.98-21.76-11.2-30C71.69,10.51,67.18,5.18,62.5,0z"/>
	<path fill="url(#colour1)" d="M111.23,0h27.27c3.609,3.91,7.48,7.7,10.189,12.31c2.951,5.83,5.73,11.88,6.781,18.38
		c1.219,7.5,1.949,15.07,2.879,22.62c1.74,13.85,8.221,26.49,10.94,40.11c1.97,9.45,4.17,18.93,4.44,28.62
		c0.34,11.34,0.42,22.71-0.74,34c-0.76,8.71-2.33,17.79,0.699,26.26c1.881,4.15,4.511,7.9,6.99,11.7h-24.56
		c-0.841-6.439-3.74-12.42-4.25-18.91c-1.41-24.88-14.62-47.29-16.54-72.09c-0.79-7.98-1.67-15.97-1.5-23.99
		c0.21-11-0.561-21.99-1.439-32.95c-0.551-7.7-3.291-14.98-4.881-22.49C125.03,13.97,117.66,7.07,111.23,0z"/>
	<path fill="url(#colour1)" d="M159.859,0h24.601c2.601,8.97,5.2,17.94,7.72,26.94c4.2,14.44,12.16,27.55,15.311,42.33
		c3,12.87,5.449,26.34,2.97,39.52c-1.06,6.29-2.29,12.56-3.84,18.75c-1.24,5.101-0.729,10.38-1.39,15.55
		c-0.601,4.61-0.881,9.27-0.681,13.92c0.21,5.75,3.229,10.82,5.53,15.93c3.23,6.681,4.6,14.021,6.8,21.061h-18.7
		c-2.869-7.609-6.16-15.13-7.93-23.09c-1.74-9.52-2.66-19.23-2.221-28.91c0.441-18.02-1.939-35.96-5.529-53.58
		c-1.83-12.37-8.311-23.36-11.25-35.44c-1.85-7.87-3.4-15.86-3.8-23.96c-0.32-5.96-0.7-11.94-1.72-17.84
		C165.061,6.92,162.51,3.29,159.859,0z"/>
	<path fill="url(#colour1)" d="M199.66,0h20.061c3.159,8.53,6.799,16.92,11.659,24.63c5.851,9.39,6.49,20.73,7.96,31.39
		c0.29,15.61-4.619,30.69-6.25,46.1c-0.359,9.28-1.49,18.53-3.35,27.62c-1.131,5.609-2.381,11.369-1.52,17.109
		c3.829,16.09,10.389,31.33,15.109,47.15h-11.74c-1.72-7.8-3.34-15.62-5.369-23.34c-2.091-7.61-6.381-14.61-7.011-22.59
		c-0.84-8.66-0.771-17.37-0.931-26.061c-0.35-10.31,1.83-20.449,3.121-30.62c1.74-9.69-0.51-19.43-1.67-29.04
		C217.38,45.66,206.93,31.78,202,15.92C200.66,10.72,200.221,5.33,199.66,0z"/>
	<path fill="url(#colour1)" d="M230.71,0h20.89c2.521,6.53,4.67,13.2,7.4,19.64v37.73c-1.77,7.8-3.12,15.69-5.05,23.45
		c-1.96,7.5-4.32,14.92-5.74,22.56c-1.12,5.8-0.8,11.72-1.06,17.591c-0.131,8.67-0.99,17.449,0.789,26.02
		c1.031,4.939,1.881,9.93,3.32,14.77c1.32,4.34,4.82,7.41,7.74,10.69V194h-1.79c-1.649-1.02-3.31-2.18-4.3-3.891
		c-3.811-6.359-4.32-13.969-7.221-20.699c-2.299-5.551-4.76-11.1-5.92-17.03c-1.31-7.069,0.061-14.25-0.25-21.37
		c-0.299-7.66,0.26-15.33-0.14-22.99c-0.38-11.2,2.57-22.089,4.851-32.95c2.14-9.61,5.14-19.41,3.25-29.33
		C245.45,29.39,237.529,14.73,230.71,0z"/>
	<path fill="url(#colour1)" d="M0,26.19c4.11,3.83,8.33,7.82,10.86,12.92c2.13,5.26,2.26,11.03,3.59,16.5
		c3.09,12.28,7.11,24.61,6.74,37.42c0.57,15.56,2.2,31.88,10.16,45.61c3.59,6.6,10.59,10.159,14.87,16.18
		c5.22,6.949,8.86,14.93,14.25,21.77c3.54,6.12,6.5,12.71,12.01,17.41h-20.2c-3.59-5.439-7.36-10.74-11.54-15.74
		c-3.79-4.449-5.3-10.38-9.35-14.64c-6.25-6.74-14.27-11.851-19.35-19.66c-5.05-7.62-6.22-17.03-6.23-25.979
		c0.11-14.74-1.94-29.36-3.13-44.021C2.09,68.39,0.87,62.92,0,57.4V26.19z"/>
	<path fill="url(#colour1)" d="M251.99,106.99c0.99-5.98,4.05-11.32,7.01-16.51v16.94c-1,8.01-1.45,16.18,0,24.17v21.04
		c-2.54-6.26-4.9-12.739-5.08-19.58C253.279,124.37,250.859,115.74,251.99,106.99z"/>
	<path fill="url(#colour1)" d="M0,146.55c2.16,1.96,4.6,3.69,6.25,6.15c4.42,6.739,8.2,13.87,12.12,20.92
		c4.52,8.05,11.87,13.83,18.18,20.38h-21.1c-0.69-5.48-2.79-10.79-6.34-15.05c-3.5-4.24-6.24-9.021-9.11-13.69V146.55z"/>
	<path fill="url(#colour1)" d="M0,184.26c3.25,2.41,5.26,5.91,6.41,9.74H0V184.26z"/>
</g>
</svg>
