<?xml version="1.0" encoding="utf-8"?>
<svg version="1.0" xmlns="http://www.w3.org/2000/svg" xmlns:xlink="http://www.w3.org/1999/xlink"  viewBox="400 320 100 142">
<defs>
  <linearGradient id="colour1">
     <stop offset="100%" stop-color="red"/>
   </linearGradient>
</defs>
<g>
	<path fill-rule="evenodd" clip-rule="evenodd" fill="url(#colour1)" d="M291.849,383.877c-0.555,0-1.723-1.712-1.673-3.499l0.012-9.065
		c0,0,1.083,0,2.318,0c1.238,0,2.936-0.167,4.482,0.838c0,0-1.08-3.181-4.482-3.181h-2.318c0,0,0-0.334,0-1.34v-1.005
		c0,0,0-2.01-0.463-2.68c0,0,2.935,0,3.245,0c2.629,0,4.793,0,7.111,1.507c0,0-0.466-3.852-5.875-3.852c-3.09,0-9.891,0-10.354,0
		c0,0,1.854,1.674,1.699,5.024l0.155,13.735c0,3.346,1.236,3.514,1.236,3.514C287.097,383.875,291.849,383.877,291.849,383.877
		L291.849,383.877z M325.986,365.953c-0.052,0-3.023-0.001-3.023-0.001s1.332,0.847,0.542,4.448l0.003,0l-2.352,10.583
		c0,0-0.241,1.487-0.686,1.479c-1.555-0.027-2.259-2.554-2.522-3.414c-0.177-0.565-1.902-10.46-1.975-10.76
		c-0.55-2.254-1.859-2.333-2.646-2.336c-0.025,0-0.053,0-0.075,0h-3.009c0,0,0.817,0.468,1.24,2.173
		c0.056,0.224,2.1,10.956,2.1,10.956s0.421,2.253,1.75,3.373c1.59,1.341,2.978,1.422,3.937,1.422c0.695,0,1.256-0.396,1.256-0.396
		l-0.382,1.504c-0.69,2.966-2.872,4.449-2.872,4.449s4.697,0.003,4.74,0c0.292-0.024,1.481-0.381,2.423-4.266l3.432-14.683
		C328.721,366.186,327.008,365.963,325.986,365.953L325.986,365.953z M307.454,379.421c0,2.971,1.838,4.456,1.838,4.456
		s-2.338,0-4.676,0c0,0-1.503,0.212-1.503-4.456v-13.363c0-3.607-1.502-4.454-1.502-4.454h2.839c1.002,0,3.005,0,3.005,4.879
		V379.421L307.454,379.421z"/>
	<path fill-rule="evenodd" clip-rule="evenodd" fill="url(#colour1)" d="M369.367,425.783c3.51-0.572,4.666-2.057,4.666-2.057v-4.299
		c-2.782,5.057-7.333,3.289-8.345,2.781c-3.287-1.264-3.541-5.563-3.541-5.563c2.53-3.035,5.563-2.275,9.61-6.574
		c5.058-5.313,1.264-11.127-5.817-11.127c-7.332,0-11.379,6.828-11.379,14.16c0,6.463,3.732,11.553,9.467,12.67
		C365.446,426.045,367.935,426.01,369.367,425.783L369.367,425.783z M324.471,422.717c-1.518,0-2.783-1.518-2.783-3.289
		c0-6.574,5.564-7.586,7.082-9.355v11.127C328.011,421.955,327.504,422.717,324.471,422.717L324.471,422.717L324.471,422.717z
		 M238.239,422.209c-0.758,0-7.079,0-7.838,0c-2.529,0-2.276-2.023-2.529-3.793v-11.381c0,0,1.771,0,3.792,0
		c2.024,0,4.806-0.252,7.334,1.266c0,0-1.77-4.805-7.334-4.805h-3.792c0,0,0-0.504,0-2.023v-1.518c0,0,0-3.033-0.758-4.046
		c0,0,4.804,0,5.311,0c4.298,0,7.839,0,11.631,2.279c0,0-0.759-5.817-9.608-5.817c-5.059,0-16.185,0-16.943,0
		c0,0,3.035,2.528,2.782,7.584l0.252,20.738c0,3.531,0.986,4.721,1.581,5.115h18.769c2.599-0.656,3.675-2.828,3.675-4.105v-2.023
		C244.563,419.68,243.296,422.209,238.239,422.209L238.239,422.209z M387.436,418.67c0,1.768-1.771,4.299-5.311,4.299
		c-3.793,0-5.058-3.793-5.058-3.793v4.803c0,0,1.654,1.324,4.427,1.83h4.054c3.915-0.785,7.506-3.898,7.704-7.941v-0.715
		c0-1.771-0.505-3.289-1.518-4.805c-1.771-2.023-4.805-3.541-7.081-5.057c-1.265-0.76-2.021-2.275-2.021-2.783
		c0-1.012,0.505-2.781,4.045-2.781s5.058,3.793,5.058,3.793v-4.551c0,0-2.782-2.023-6.827-2.023c-4.299,0-8.092,2.781-8.092,6.322
		c0.252,3.285,1.517,5.309,4.045,7.08c1.013,0.758,2.276,1.516,3.793,2.275C386.677,415.887,387.436,417.152,387.436,418.67
		L387.436,418.67z M328.77,407.543c-1.771,2.781-14.414,3.287-12.392,13.402c0.593,2.965,2.268,4.385,4.54,4.863h3.818
		c2.166-0.5,3.426-1.877,4.033-3.092c0.506,3.033,2.021,3.033,2.021,3.033c3.794,0,7.081,0,7.081,0s-2.78-1.771-2.78-5.313V405.52
		c0-3.541-4.048-6.574-8.093-6.574c-4.046,0-6.827,2.023-6.827,2.023c0,1.262,0,4.805,0,4.805s1.516-3.795,5.31-3.795
		c3.54,0,3.794,1.77,3.794,2.781C329.275,404.76,329.527,405.773,328.77,407.543L328.77,407.543z M292.102,396.922
		c1.77,0,3.288-1.518,3.288-3.288c0-1.769-1.518-3.287-3.288-3.287c-1.77,0-3.288,1.518-3.288,3.287
		C288.814,395.404,290.333,396.922,292.102,396.922L292.102,396.922z M367.457,408.553c1.013-2.275,2.024-7.838-2.021-7.584
		c-4.552,0.504-3.794,12.895-3.794,12.895C363.159,412.096,365.688,411.842,367.457,408.553L367.457,408.553z M350.263,401.979
		c2.276,0,4.046,1.266,4.046,1.266v-4.047h-5.816v-6.322c0,0-1.515,2.781-4.803,5.312c-2.022,1.768-6.321,3.791-6.321,3.791h4.551
		v18.715c0,5.057,2.275,5.057,2.275,5.057c3.793,0,7.082,0,7.082,0s-2.784-1.771-2.784-5.057v-18.715
		C350.263,401.979,348.998,401.979,350.263,401.979L350.263,401.979z M317.137,401.221c0,0-0.506-2.023-3.54-2.023
		c-4.552,0-5.563,5.311-5.563,5.311c-0.252-4.299-1.518-5.563-4.551-5.563h-4.298c0,0,2.527,1.01,2.527,5.563v15.93
		c0,5.313,2.024,5.313,2.024,5.313h7.079c-0.251,0-2.781-1.771-2.781-5.313v-13.146c0.253-1.266,1.012-2.023,1.769-2.783
		c2.276-1.516,5.564-1.012,7.335,1.012C317.137,405.52,317.137,402.736,317.137,401.221L317.137,401.221z M295.39,420.438
		c0,3.541,2.782,5.313,2.782,5.313s-3.54,0-7.081,0c0,0-2.276,0.252-2.276-5.313v-15.93c0-4.299-2.276-5.311-2.276-5.311h4.299
		c1.518,0,4.552,0,4.552,5.818V420.438L295.39,420.438z M282.998,420.438v-14.412c0-5.563-4.55-7.08-8.091-7.08
		c-4.299,0-5.815,3.791-6.321,5.057c-1.012-3.539-4.552-5.057-7.334-5.057c-5.563,0-6.826,5.057-6.826,5.057
		s-0.253-4.805-4.552-4.805h-4.299c0,0,2.528,1.012,2.528,5.311v15.93c0,3.73,0.997,4.967,1.592,5.371h7.288
		c-0.682-0.584-2.556-2.322-2.556-5.371v-14.16c0.253-0.758,1.264-2.781,4.298-2.781c1.77,0,3.54,1.771,3.54,3.795v13.146
		c0,5.313,2.023,5.313,2.023,5.313h7.08c0,0-2.528-1.771-2.528-5.313v-14.16c0.254-0.758,1.012-2.781,3.793-2.781
		c2.024,0,3.792,1.771,3.792,3.795c0,0,0,12.137,0,13.146c0,5.564,2.277,5.313,2.277,5.313c3.54,0,7.08,0,7.08,0
		S282.998,423.979,282.998,420.438L282.998,420.438z"/>
</g>
</svg>
