<?xml version="1.0" encoding="UTF-8"?>
<svg xmlns="http://www.w3.org/2000/svg" xmlns:xlink="http://www.w3.org/1999/xlink" width="1500" height="1500" viewBox="0 0 500 500">
<g id="UKhorse" fill="url(#colour1)" stroke="none">
<path d="M605.979,1562.266c-6.268,0-12.535,0-18.802,0c0-1.059,0-2.119,0-3.178 c-52.225-8.59,15.727-38.891,28.203-54.005c20.161-24.43,22.396-55.012,34.47-92.128c15.344-47.169,46.667-88.146,47.004-127.074 c0.765-88.39-12.756-132.939-40.737-212.848c-16.253,12.232-34.736,11.135-53.272,25.416c-14.83,11.425-16.871,35.3-37.604,34.943 c-57.828-0.992-2.857-75.29,6.268-101.658c3.643-10.53,0.128-22.961,3.134-31.769c6.527-19.13,23.209-22.804,25.068-38.122 c-11.162-9.864-10.781-31.427-15.668-47.652c24.701,35.504,64.979,35.871,78.34-3.177c2.811,13.033,2.467,29.268,9.401,38.122 c15.921-10.796,25.357,6.7,37.604,9.531c7.729,1.787,18.212-3.148,28.203,0c6.233,1.965,11.609,24.252,25.068,9.53 c-9.35,22.924,33.434,18.512,31.336,44.477c6.268,0,12.535,0,18.802,0c-16.494,13.579,8.737,11.534,9.401,25.413 c-8.017,52.596,66.375,72.771,109.677,69.892c35.618-2.367,58.422-19.922,84.608-22.238c40.021-3.543,68.97,16.615,109.677,28.593 c21.342,6.278,30.099,0.318,47.004,9.528c53.152,28.964,55.76,114.55,128.479,123.897c-13.765-0.187-25.898,1.278-34.47,6.354 c9.314,8.558,27.835,7.787,34.47,19.062c-23.98-3.293-20.721,13.122-37.604,15.883c-61.497,10.055-76.382-51.928-103.409-85.774 c0.207,39.503-19.503,59.348-6.268,92.127c7.311,18.109,31.109,21.7,37.604,38.124c9.856,24.937,1.088,56.723,9.399,82.598 c4.407,13.712,16.37,18.394,15.669,34.944c29.57-5.966,32.188,36.683,9.4,41.299c-22.146-8.255-34.005-26.943-47.004-44.476 c4.722-90.562-53.591-117.22-106.543-149.312c-8.416-9.471-9.603-26.271-15.668-38.121c-39.999,12.396-49.948,55.259-43.87,114.365 c-37.98,32.445-52.191,88.988-97.143,114.366c-0.851,10.787,2.427,25.757-3.134,31.768c-6.665,6.366-27.967,9.841-37.603,3.178 c26.126-76.722,111.188-111.125,78.34-228.733c-49.411,14.889-108.454,26.551-169.216,12.708 c-11.201,33.122-38.199,50.226-37.604,95.306c27.903,16.048,55.912,57.91,87.741,41.3c13.64,7.946,24.18,41.689,6.267,54.005 c-36.129-44.18-129.136-46.538-128.478-117.543c-21.79,46.741-58.312,78.547-68.94,136.604c-5.667,5.905-15.824,7.257-25.068,9.53 C619.834,1544.541,615.986,1556.526,605.979,1562.266z"/>
</g>
</svg>