<?xml version="1.0" encoding="UTF-8" standalone="no"?>
<svg  xmlns:svg="http://www.w3.org/2000/svg"
   xmlns="http://www.w3.org/2000/svg"
   viewBox="0 0 146 148"
   height="148"
   width="146"
   y="0px"
   x="0px"
   version="1.0">
<g>    
<path fill="red" d="m 12.548668,0.19930334 c 7.144,-0.475 10.869,5.62699996 11.595,10.43599966 0.434,0.764 0.671,0.549 0.837,-0.043 0.35,-6.1739997 5.875,-11.21899966 10.993,-10.52899966 8.328,0.107 13.389,9.37499996 11.966,17.21899966 -1.738,9.582 -6.899,15.352 -10.808,21.293 -4.422,6.152 -10.373,15.039 -12.29,19.316 0,0 -6.049,-9.203 -13.917,-20.029 -5.2619999,-7.238 -9.4739999,-15.082 -9.8649999,-21.836 -0.44799996,-7.7159997 2.72,-14.6319997 11.4889999,-15.82699966 z"
     id="heart" />
<path fill="black" d="m 109.50119,57.891303 c 2.879,-5.775 4.976,-11.701 5.348,-18.037 0.341,-2.332 -1.075,-2.371 -1.288,-0.729 -4.077,15.592 -25.763002,11.371 -25.017002,-3.297 0.605,-11.895 12.419002,-14.453 18.582002,-10.564 2.434,1.433 2.296,0.574 0.968,-0.912 -9.155002,-10.211 -3.61,-23.36099966 8.761,-23.60199966 13.38,0.79299996 16.852,14.86899966 8.645,23.14799966 -1.021,0.994 -3.284,4.19 0.123,1.955 8.286,-5.888 19.787,0.443 19.553,9.521 -0.433,16.738 -20.839,17.986 -25.203,4.006 -0.42,-1.551 -1.63,-2.328 -1.296,0.305 0.605,4.766 1.857,11.953 5.438,18.205 h -14.614 z"
     id="club" />
<path fill="black" d="m 21.765448,129.6563 c 0.015,-2.025 -1.587,-2.064 -1.569,-0.586 -0.134,7.428 -6.417,11.086 -10.9799999,10.219 -7.036,-1.338 -9.28199996,-8.322 -9.21499996,-12.436 0.207,-12.697 12.98799986,-22.059 24.52099986,-38.333997 8.45,14.688997 22.397,26.228997 23.223,37.583997 1.098,15.1 -18.009,20.73 -20.737,3.133 -0.176,-1.242 -1.639,-1.801 -1.525,-0.064 0.414,4.822 -0.176,6.832 5.266,18.719 h -14.222 c 3.147,-5.555 5.023,-12.373 5.238,-18.235 z"
     id="spade" />
<path fill="red" d="m 96.737868,117.9733 c 9.920002,-9.682 16.436002,-20.237997 22.667002,-30.390997 5.464,11.172 13.306,20.942997 21.786,30.390997 -9.073,9.367 -16.105,19.385 -21.759,29.918 -6.267,-10.797 -12.865,-20.572 -22.694002,-29.918 z"
     id="diamond" />
</g>
</svg>