<svg xmlns="http://www.w3.org/2000/svg" version="1.0" xmlns:xlink="http://www.w3.org/1999/xlink" viewBox="0 0 245 320"><defs>   <linearGradient id="colour1">     <stop stop-color="orange" offset="0"/>   </linearGradient></defs><g id="rosette" fill="url(#colour1)" stroke="none">	<path opacity="0.8" d="M125,187l29-2,44,86-31-9-31,27-11-102z" fill-rule="nonzero" stroke-dashoffset="0" stroke="#000" stroke-linecap="round" stroke-miterlimit="7.5" stroke-width="5.63839912" fill="#000"/>	<path opacity="0.8" d="M83,193l36,3-16,119-29.6-28-32.5,11,42.1-105z" fill-rule="nonzero" stroke-dashoffset="0" stroke="#000" stroke-linecap="round" stroke-miterlimit="7.5" stroke-width="5.63839912" fill="#000"/>	<path d="M80.5,185l35.5,4-16,119-29.1-29-32.5,12,42.1-106z" fill-rule="nonzero" stroke-dashoffset="0" stroke="#000" stroke-linecap="round" stroke-miterlimit="7.5" stroke-width="5.63839912" fill="#d38d5f"/>	<path d="M125,178l29-2,44,85-31-8-31,27-11-102z" fill-rule="nonzero" stroke-dashoffset="0" stroke="#000" stroke-linecap="round" stroke-miterlimit="7.5" stroke-width="5.63839912" fill="#d38d5f"/>	<path d="M80.5,185l35.5,3-16,120-29.1-29-32.5,11,42.1-105z" fill-rule="nonzero"/>	<path d="M126,178l29-2,44,86-30-9-31,27-12-102z" fill-rule="nonzero"/>	<path opacity="0.8" fill="#000" fill-rule="nonzero" stroke-dashoffset="0" transform="translate(8.506243,19.628582)" stroke="#000" stroke-linecap="round" stroke-miterlimit="7.5" stroke-dasharray="none" stroke-width="7" d="M180,195l-33-17-8,36-23-29-21.7,30-9.3-36-32.1,18,6.2-36-36.9,3,20.5-30-35.2-12,31.3-20-27.5-24.7,36.6-5.4-15-33.9,35.7,10,0.1-37.1,28.6,23.7,14.7-33.9,17,33.2,28-24.8,1,37,35-11.4-13,34.5,37,3.9-27,26,32,18.8-35,13,22,30-37-3,8,37z"/>	<path fill-rule="nonzero" stroke-dashoffset="0" transform="translate(5.9416445,11.883289)" stroke="#000" stroke-linecap="round" stroke-miterlimit="7.5" stroke-dasharray="none" stroke-width="7" d="M180,195l-33-17-8,36-23-29-21.7,30-9.3-36-32.1,18,6.2-36-36.9,3,20.5-30-35.2-12,31.3-20-27.5-24.7,36.6-5.4-15-33.9,35.7,10,0.1-37.1,28.6,23.7,14.7-33.9,17,33.2,28-24.8,1,37,35-11.4-13,34.5,37,3.9-27,26,32,18.8-35,13,22,30-37-3,8,37z"/>	<path fill-rule="nonzero" transform="translate(5.7157907,11.989324)" d="M180,195l-33-17-8,36-23-29-21.7,30-9.3-36-32.1,18,6.2-36-36.9,3,20.5-30-35.2-12,31.3-20-27.5-24.7,36.6-5.4-15-33.9,35.7,10,0.1-37.1,28.6,23.7,14.7-33.9,17,33.2,28-24.8,1,37,35-11.4-13,34.5,37,3.9-27,26,32,18.8-35,13,22,30-37-3,8,37z"/></g></svg>