<?xml version="1.0" encoding="utf-8"?>
<!DOCTYPE svg PUBLIC "-//W3C//DTD SVG 1.0//EN" "http://www.w3.org/TR/2001/REC-SVG-20010904/DTD/svg10.dtd">
<svg version="1.0" xmlns="http://www.w3.org/2000/svg" xmlns:xlink="http://www.w3.org/1999/xlink" x="0px" y="0px"
	 viewBox="300 200 100 350" xml:space="preserve">
<defs>
   <linearGradient id="colour0">
     <stop offset="100%" stop-color="gray"/>
   </linearGradient>
   <linearGradient id="colour1">
     <stop offset="100%" stop-color="red"/>
   </linearGradient>
   <linearGradient id="colour2">
     <stop offset="100%" stop-color="orange"/>
   </linearGradient>
   <linearGradient id="colour3">
     <stop offset="100%" stop-color="yellow"/>
   </linearGradient>
<!-- Patterns -->   
<pattern id="cap_check_PT" x="0" y="0" width="4" height="4" patternUnits="userSpaceOnUse" patternTransform="scale(10,10)">
<rect x="0" y="0" width="5" height="5" fill="url(#colour0)" />
<path d="M0,0V5H1V0zM2,0V5H3V0zM4,0V5H5V0zM0,0H5V1H0zM0,2H5V3H0zM0,4H5V5H0z" fill="url(#colour1)" fill-rule="evenodd" />
</pattern>
<pattern id="cap_stripes_PT" x="0" y="0" width="4" height="4" patternUnits="userSpaceOnUse" patternTransform="translate(-28, 0) scale(11,1)">
<rect x="0" y="0" width="5" height="5" fill="url(#colour0)" />
<path d="M0,0V5H1V0zM2,0V5H3V0zM4,0V5H5V0z" fill="url(#colour1)" fill-rule="evenodd" />
</pattern>
<pattern id="cap_stripes3_PT" x="0" y="0" width="6" height="6" patternUnits="userSpaceOnUse" patternTransform="translate(-28, 0) scale(11,1)">
<rect x="0" y="0" width="6" height="6" fill="url(#colour0)" />
<path d="M0,0V6H1V0z" fill="url(#colour1)" fill-rule="evenodd" />
<path d="M1,0V6H2V0z" fill="url(#colour2)" fill-rule="evenodd" />
<path d="M3,0V6H4V0z" fill="url(#colour1)" fill-rule="evenodd" />
<path d="M4,0V6H5V0z" fill="url(#colour2)" fill-rule="evenodd" />
</pattern>
<!-- clipPath definitions -->
<clipPath id="Cap_CP" display="inline">
<path d="m 327.24902,246.16556 c -9.47541,30.72765 -52.16231,30.28532 -61.60103,-0.34198 l 0.0206,9.39318 c 0.0377,17.23301 12.80096,29.27139 30.61096,29.27139 17.81,0 31.97103,-13.53876 31.30849,-29.93415 z" />
<circle cx="296.5" cy="237" r="32" />
</clipPath>
<clipPath id="Cap_peak_CP" display="inline">
        <use xlink:href="#Cap_peak"  overflow="visible"/>
</clipPath>
<clipPath id="Cap_crown_CP" display="inline">
    <circle cx="296.5" cy="237" r="32" fill="url(#colour0)" />
</clipPath>
</defs>
<!-- have reduced size of peak, so can move whole cap down by 5 pixels transform="translate(0 5)" has now been moved to ENEMeroFactory addUse() -->
<g id="Cap" fill="url(#colour0)" stroke="none">
      <path id="Cap_peak"
         d="m 327.24902,246.16556 c -9.47541,30.72765 -52.16231,30.28532 -61.60103,-0.34198 l 0.0206,9.39318 c 0.0377,17.23301 12.80096,29.27139 30.61096,29.27139 17.81,0 31.97103,-13.53876 31.30849,-29.93415 z"
          />
<circle id="Cap_crown" cx="296.5" cy="237" r="32" />
</g>
<!-- New Patterns -->
<g id="basic quarters" display="none">
<path display="none" fill="url(#colour1)" d="M296.5,237  L296.5,269  A32,32 0 0,1 264.5,237 z" />
<path display="none" fill="url(#colour1)" d="M296.5,237  L296.5,205  A32,32 0 0,1 328.5,237 z" />
</g>
<g id="Quartered_Cap" display="none" fill="url(#colour1)" stroke="none">
    <path d="m 296.5,237 c -2.8912,15.16409 -0.96335,22.83187 0,32 -8.37758,0 -16.70357,-3.44874 -22.62742,-9.37258 C 267.94874,253.70357 264.5,245.37758 264.5,237 c 10.90433,-2.37659 21.5474,-2.14063 32,0 z"
        />
    <path d="m 296.5,237 c 0.61179,-10.05487 1.55669,-19.77664 0,-32 8.37758,0 16.70357,3.44874 22.62742,9.37258 5.92384,5.92385 9.37258,14.24984 9.37258,22.62742 -12.15447,3.34849 -22.05935,1.50942 -32,0 z"
         />
    <rect clip-path="url(#Cap_peak_CP)"  x="264.5" y="250" width="32" height="40" />
</g>
<g id="Quartered_Cap_3" display="none">
    <path d="m 296.5,237 c -2.8912,15.16409 -0.96335,22.83187 0,32 -8.37758,0 -16.70357,-3.44874 -22.62742,-9.37258 C 267.94874,253.70357 264.5,245.37758 264.5,237 c 10.90433,-2.37659 21.5474,-2.14063 32,0 z"
       fill="url(#colour1)" stroke="none" />
    <path d="m 296.5,237 c 0.61179,-10.05487 1.55669,-19.77664 0,-32 8.37758,0 16.70357,3.44874 22.62742,9.37258 5.92384,5.92385 9.37258,14.24984 9.37258,22.62742 -12.15447,3.34849 -22.05935,1.50942 -32,0 z"
        fill="url(#colour2)" stroke="none" />
    <rect fill="url(#colour1)" stroke="none" clip-path="url(#Cap_peak_CP)"  x="264.5" y="250" width="32" height="40" />
</g>
<g id="Quartered_Cap_4" display="none">
    <rect fill="url(#colour3)" stroke="none" clip-path="url(#Cap_crown_CP)"  x="264.5" y="180" width="32" height="100" />
    <path d="m 296.5,237 c -2.8912,15.16409 -0.96335,22.83187 0,32 -8.37758,0 -16.70357,-3.44874 -22.62742,-9.37258 C 267.94874,253.70357 264.5,245.37758 264.5,237 c 10.90433,-2.37659 21.5474,-2.14063 32,0 z"
       fill="url(#colour1)" stroke="none" />
    <path d="m 296.5,237 c 0.61179,-10.05487 1.55669,-19.77664 0,-32 8.37758,0 16.70357,3.44874 22.62742,9.37258 5.92384,5.92385 9.37258,14.24984 9.37258,22.62742 -12.15447,3.34849 -22.05935,1.50942 -32,0 z"
        fill="url(#colour2)" stroke="none" />
    <rect fill="url(#colour1)" stroke="none" clip-path="url(#Cap_peak_CP)"  x="264.5" y="250" width="32" height="40" />
</g>
<g id="Halved_Cap" display="none">
    <!-- change to be consistent with jacket - base colour is on right -->
    <rect fill="url(#colour1)" stroke="none" clip-path="url(#Cap_crown_CP)"  x="264.5" y="180" width="32" height="100" />
    <rect fill="url(#colour1)" stroke="none" clip-path="url(#Cap_peak_CP)"  x="264.5" y="250" width="32" height="40" />
</g>
<g id="Segment_Cap" display="none">
    <path fill="url(#colour1)" stroke="none" d="M296.5,237  L296.5,269  A32,32 0 0,0 324.5, 253 z" />
    <path fill="url(#colour1)" stroke="none" d="M296.5,237  L296.5,269  A32,32 0 0,0 324.5, 253 z" transform="rotate(120 296.5 237)" />
    <path fill="url(#colour1)" stroke="none" d="M296.5,237  L296.5,269  A32,32 0 0,0 324.5, 253 z" transform="rotate(240 296.5 237)" />
</g>
<g id="Peak" display="none">
    <rect fill="url(#colour1)" stroke="none" clip-path="url(#Cap_peak_CP)"  x="260" y="250" width="70" height="40" />
</g>
<rect id="Checked_Cap" display="none" clip-path="url(#Cap_CP)" fill="url(#cap_check_PT)" stroke="none" x="260" y="200" width="70" height="90" />
<rect id="Striped_Cap_2016" display="none" clip-path="url(#Cap_CP)" fill="url(#cap_stripes_PT)" stroke="none" x="260" y="200" width="70" height="90" />
<rect id="Striped_Cap_3Colours" display="none" clip-path="url(#Cap_CP)" fill="url(#cap_stripes3_PT)" stroke="none" x="260" y="200" width="70" height="90" />
<g id="Hooped_Cap" display="none" stroke="url(#colour1)" fill="none">
<circle cx="296.5" cy="237" r="8.5" stroke-width="5" />
<circle cx="296.5" cy="237" r="18.5" stroke-width="5" />
<circle cx="296.5" cy="237" r="28.5" stroke-width="5" />
</g>
<g id="Hooped_Cap_3colours" display="none" fill="none">
<circle stroke="url(#colour1)" cx="296.5" cy="237" r="12.5" stroke-width="7.5" />
<circle stroke="url(#colour2)" cx="296.5" cy="237" r="20.0" stroke-width="7.5" />
</g>
<circle id="single_hoop" display="none" fill="none" cx="296.5" cy="237" r="19" stroke="url(#colour1)" stroke-width="5" />
<circle id="disc" display="none" stroke="none" cx="296.5" cy="237" r="19" fill="url(#colour1)" />
<g id="Diamonds" display="none" fill="url(#colour1)" stroke="none">
    <polygon points="296.5,206 303,218 296.5,230 290,218" transform="rotate(30 296.5 237)"/>
    <polygon points="296.5,206 303,218 296.5,230 290,218" transform="rotate(90 296.5 237)"/>
    <polygon points="296.5,206 303,218 296.5,230 290,218" transform="rotate(150 296.5 237)"/>
    <polygon points="296.5,206 303,218 296.5,230 290,218" transform="rotate(210 296.5 237)"/>
    <polygon points="296.5,206 303,218 296.5,230 290,218" transform="rotate(270 296.5 237)"/>
    <polygon points="296.5,206 303,218 296.5,230 290,218" transform="rotate(330 296.5 237)"/>
</g>
<path id="Piping" display="none" fill="none" stroke="url(#colour1)"
         d="m 269.00425,264.49947 c 2.88652,6.06546 6.90807,11.2682 12.99859,14.42312 5.54526,2.6141 11.1554,3.50922 17.15985,3.79263 5.5357,-0.48073 11.9368,-3.03664 16.05813,-6.60525 4.30257,-3.72555 7.07463,-8.72167 8.776,-13.44577"
         style="stroke-width:3;stroke-linecap:round" />

<!-- Patterns -->
<g id="SE_diamond_cap" display="none" clip-path="url(#Cap_CP)">
			<polygon display="inline" fill="url(#colour1)" stroke="none" points="289.132,258.766 282.062,269.587 274.99,258.766 282.062,247.945"/>
			<polygon display="inline" fill="url(#colour1)" stroke="none" points="289.132,258.766 282.062,269.587 274.99,258.766 282.062,247.945 			"/>
			<polygon display="inline" fill="url(#colour1)" stroke="none" points="303.274,237.124 296.204,247.945 289.132,237.124 296.204,226.303 			"/>
			<polygon display="inline" fill="url(#colour1)" stroke="none" points="317.417,215.482 310.346,226.303 303.274,215.482 310.346,204.661 			"/>
			<polygon display="inline" fill="url(#colour1)" stroke="none" points="317.24,280.138 310.169,290.959 303.098,280.138 310.169,269.317 			"/>
			<polygon display="inline" fill="url(#colour1)" stroke="none" points="331.382,258.496 324.312,269.317 317.24,258.496 324.312,247.675 			"/>
			<polygon display="inline" fill="url(#colour1)" stroke="none" points="303.274,280.408 296.204,291.229 289.132,280.408 296.204,269.587 			"/>
			<polygon display="inline" fill="url(#colour1)" stroke="none" points="331.294,280.002 324.223,290.824 317.151,280.002 324.223,269.182 			"/>
			<polygon display="inline" fill="url(#colour1)" stroke="none" points="303.274,280.408 296.204,291.229 289.132,280.408 296.204,269.587 			"/>
			<polygon display="inline" fill="url(#colour1)" stroke="none" points="317.417,258.766 310.346,269.587 303.274,258.766 310.346,247.945 			"/>
			<polygon display="inline" fill="url(#colour1)" stroke="none" points="331.559,237.124 324.488,247.945 317.417,237.124 324.488,226.303 			"/>
			<polygon display="inline" fill="url(#colour1)" stroke="none" points="274.99,215.482 267.919,226.303 260.848,215.482 267.919,204.661 			"/>
			<polygon display="inline" fill="url(#colour1)" stroke="none" points="274.99,215.482 267.919,226.303 260.848,215.482 267.919,204.661 			"/>
			<polygon display="inline" fill="url(#colour1)" stroke="none" points="274.99,258.766 267.919,269.587 260.848,258.766 267.919,247.945 			"/>
			<polygon display="inline" fill="url(#colour1)" stroke="none" points="289.132,237.124 282.062,247.945 274.99,237.124 282.062,226.303 			"/>
			<polygon display="inline" fill="url(#colour1)" stroke="none" points="289.132,237.124 282.062,247.945 274.99,237.124 282.062,226.303 			"/>
			<polygon display="inline" fill="url(#colour1)" stroke="none" points="303.274,215.482 296.204,226.303 289.132,215.482 296.204,204.661 			"/>
			<polygon display="inline" fill="url(#colour1)" stroke="none" points="274.99,237.124 267.919,247.945 260.848,237.124 267.919,226.303 			"/>
			<polygon display="inline" fill="url(#colour1)" stroke="none" points="303.274,258.766 296.204,269.587 289.132,258.766 296.204,247.945 			"/>
			<polygon display="inline" fill="url(#colour1)" stroke="none" points="289.132,215.482 282.062,226.303 274.99,215.482 282.062,204.661 			"/>
			<polygon display="inline" fill="url(#colour1)" stroke="none" points="317.417,237.124 310.346,247.945 303.274,237.124 310.346,226.303 			"/>
			<polygon display="inline" fill="url(#colour1)" stroke="none" points="303.274,258.766 296.204,269.587 289.132,258.766 296.204,247.945 			"/>
			<polygon display="inline" fill="url(#colour1)" stroke="none" points="289.132,280.408 282.062,291.229 274.99,280.408 282.062,269.587 			"/>
			<polygon display="inline" fill="url(#colour1)" stroke="none" points="289.132,215.482 282.062,226.303 274.99,215.482 282.062,204.661 			"/>
		</g>

<g id="Horseshoes" display="none" fill="url(#colour1)" clip-path="url(#Cap_CP)">
			<path id="Horsehoe_2_" display="inline" fill="url(#colour1)" fill-rule="evenodd" clip-rule="evenodd" d="M311.493,242.226
				c0,0,1.059-0.975,1.392-1.275c0.572-0.515,0.787-0.52,1.107-0.483c0.473,0.051,0.812,0.227,1.101,0.851
				c0.296,0.637,0.407,2.487,0.407,2.487c0.235,1.285,0.651,2.538,1.005,3.081c1.017,1.569,1.815,1.878,2.534,2.179
				c0.7,0.294,2.312,0.321,2.9,0.156c0.59-0.165,1.627-0.427,2.792-1.433c1.166-1.004,1.647-2.585,1.647-2.585
				c0.315-1.231,0.336-2.49-0.489-3.917c-0.85-1.468-2.589-2.242-3.438-2.598c-0.605-0.253-2.53-0.558-3.256-1.205
				c-0.729-0.646-0.516-1.5-0.187-1.892c0.156-0.233,1.727-1.549,1.727-1.549s1.066,0.93,1.182,1.199l-0.508,0.4
				c-0.537,0.368,0.321,0.645,0.321,0.645s1.993,0.442,3.527,1.163c1.534,0.72,2.318,1.73,2.919,2.495
				c0.925,1.177,1.464,2.816,0.914,5.304c-0.3,1.354-0.951,3.452-3.813,5.415c-1.283,0.88-2.934,1.499-5.121,1.314
				c-2.381-0.2-3.877-1.055-5.34-3.129c-1.227-1.737-1.375-5.156-1.479-5.563c-0.103-0.406-0.286-0.238-0.286-0.238l-0.595,0.586
				L311.493,242.226L311.493,242.226z M314.611,242.912c0.087-0.079,0.077-0.229-0.02-0.335c-0.098-0.106-0.246-0.129-0.332-0.049
				c-0.086,0.078-0.075,0.227,0.022,0.333C314.379,242.966,314.527,242.989,314.611,242.912L314.611,242.912z M320.973,237.294
				c0.086-0.079,0.076-0.228-0.021-0.334c-0.097-0.106-0.245-0.129-0.332-0.05c-0.084,0.078-0.076,0.228,0.021,0.334
				S320.887,237.372,320.973,237.294L320.973,237.294z M326.049,239.457c0.087-0.08,0.076-0.229-0.021-0.335
				c-0.098-0.106-0.245-0.129-0.331-0.05c-0.087,0.079-0.077,0.228,0.021,0.335C325.814,239.513,325.963,239.536,326.049,239.457
				L326.049,239.457z M328.147,243.659c0.087-0.079,0.077-0.229-0.02-0.334c-0.098-0.106-0.246-0.13-0.332-0.051
				c-0.086,0.078-0.075,0.228,0.022,0.334C327.915,243.714,328.063,243.737,328.147,243.659L328.147,243.659z M325.649,249.011
				c0.086-0.079,0.077-0.229-0.021-0.334c-0.098-0.107-0.246-0.128-0.331-0.05c-0.087,0.079-0.077,0.228,0.021,0.335
				C325.416,249.067,325.563,249.089,325.649,249.011L325.649,249.011z M320.012,250.862c0.085-0.078,0.077-0.229-0.021-0.334
				c-0.097-0.106-0.247-0.128-0.332-0.05c-0.085,0.079-0.076,0.229,0.021,0.335C319.777,250.919,319.926,250.941,320.012,250.862
				L320.012,250.862z M316.182,248.37c0.085-0.079,0.076-0.228-0.021-0.333c-0.098-0.106-0.246-0.129-0.331-0.05
				c-0.087,0.079-0.076,0.228,0.02,0.334C315.947,248.426,316.095,248.449,316.182,248.37L316.182,248.37z"/>
			<path id="Horsehoe_1_" display="inline" fill="url(#colour1)" fill-rule="evenodd" clip-rule="evenodd" d="M288.645,252.685c0,0,1.438-0.004,1.886,0
				c0.771,0.007,0.932,0.148,1.144,0.392c0.313,0.357,0.445,0.716,0.237,1.372c-0.213,0.669-1.38,2.108-1.38,2.108
				c-0.694,1.106-1.233,2.311-1.34,2.95c-0.311,1.844,0.07,2.612,0.397,3.318c0.318,0.69,1.488,1.798,2.034,2.074
				c0.546,0.277,1.488,0.784,3.027,0.83c1.538,0.047,2.96-0.793,2.96-0.793c1.064-0.695,1.93-1.61,2.285-3.219
				c0.365-1.656-0.395-3.402-0.779-4.237c-0.276-0.596-1.489-2.12-1.588-3.088c-0.101-0.968,0.633-1.454,1.141-1.521
				c0.272-0.067,2.32,0.024,2.32,0.024s0.158,1.406,0.061,1.683l-0.645-0.047c-0.645-0.092-0.199,0.691-0.199,0.691
				s1.172,1.673,1.816,3.24c0.645,1.566,0.541,2.842,0.467,3.812c-0.113,1.492-0.822,3.065-2.908,4.529
				c-1.136,0.796-3.033,1.903-6.47,1.417c-1.54-0.218-3.175-0.876-4.664-2.49c-1.621-1.756-2.146-3.397-1.824-5.915
				c0.271-2.11,2.47-4.732,2.667-5.101c0.198-0.369-0.05-0.369-0.05-0.369l-0.833,0.031L288.645,252.685L288.645,252.685z
				 M290.48,255.297c0.117,0,0.212-0.117,0.212-0.261c0-0.145-0.095-0.261-0.212-0.261c-0.115,0-0.209,0.117-0.209,0.261
				C290.271,255.18,290.365,255.297,290.48,255.297L290.48,255.297z M298.965,255.451c0.117,0,0.211-0.117,0.211-0.261
				s-0.094-0.261-0.211-0.261c-0.115,0-0.21,0.117-0.21,0.261S298.85,255.451,298.965,255.451L298.965,255.451z M301.248,260.475
				c0.117,0,0.211-0.118,0.211-0.261c0-0.145-0.094-0.261-0.211-0.261s-0.211,0.116-0.211,0.261
				C301.037,260.357,301.131,260.475,301.248,260.475L301.248,260.475z M299.957,264.992c0.117,0,0.211-0.117,0.211-0.26
				c0-0.145-0.094-0.262-0.211-0.262c-0.115,0-0.209,0.118-0.209,0.262C299.748,264.875,299.842,264.992,299.957,264.992
				L299.957,264.992z M294.5,267.25c0.116,0,0.21-0.117,0.21-0.261c0-0.145-0.094-0.261-0.21-0.261c-0.117,0-0.21,0.116-0.21,0.261
				C294.29,267.133,294.383,267.25,294.5,267.25L294.5,267.25z M289.092,264.807c0.115,0,0.21-0.117,0.21-0.261
				c0-0.144-0.095-0.261-0.21-0.261c-0.117,0-0.212,0.117-0.212,0.261C288.88,264.69,288.976,264.807,289.092,264.807
				L289.092,264.807z M287.951,260.382c0.117,0,0.21-0.116,0.21-0.26c0-0.144-0.094-0.261-0.21-0.261s-0.21,0.117-0.21,0.261
				C287.74,260.266,287.834,260.382,287.951,260.382L287.951,260.382z"/>
			<path id="Horsehoe_3_" display="inline" fill="url(#colour1)" fill-rule="evenodd" clip-rule="evenodd" d="M279.23,241.757l-1.604,0.584l-0.143-0.823
				c0,0-0.052-0.243-0.371,0.028c-0.32,0.271-2.428,2.967-4.436,3.668c-2.395,0.838-4.109,0.665-6.164-0.556
				c-1.888-1.121-2.872-2.583-3.405-4.044c-1.188-3.261-0.5-5.347,0.043-6.623c0.998-2.344,2.389-3.365,3.826-3.786
				c0.933-0.274,2.158-0.641,3.825-0.335c1.667,0.305,3.547,1.104,3.547,1.104s0.859,0.273,0.635-0.338l-0.181-0.621
				c0.25-0.152,1.659-0.29,1.659-0.29s0.514,1.984,0.505,2.265c0.04,0.51-0.283,1.329-1.251,1.431
				c-0.966,0.105-2.71-0.765-3.35-0.911c-0.897-0.203-2.763-0.583-4.307,0.118c-1.5,0.682-2.215,1.719-2.674,2.904
				c0,0-0.526,1.566-0.161,3.061c0.364,1.496,1.056,2.312,1.44,2.789c0.383,0.477,1.71,1.391,2.451,1.559
				c0.76,0.173,1.589,0.385,3.329-0.301c0.603-0.237,1.669-1.014,2.607-1.924c0,0,1.166-1.44,1.776-1.788
				c0.598-0.34,0.976-0.286,1.391-0.053c0.282,0.156,0.454,0.285,0.621,1.036C278.935,240.35,279.23,241.757,279.23,241.757
				L279.23,241.757z M276.294,240.504c0.024,0.112,0.158,0.18,0.298,0.15c0.142-0.03,0.237-0.146,0.212-0.259
				c-0.024-0.115-0.158-0.183-0.299-0.153C276.364,240.272,276.27,240.39,276.294,240.504L276.294,240.504z M274.381,232.236
				c0.024,0.114,0.158,0.182,0.299,0.152s0.235-0.147,0.211-0.259c-0.024-0.115-0.158-0.183-0.299-0.152
				C274.451,232.006,274.356,232.122,274.381,232.236L274.381,232.236z M268.992,231.047c0.024,0.115,0.159,0.182,0.298,0.152
				c0.142-0.03,0.236-0.146,0.211-0.261s-0.157-0.182-0.298-0.152C269.063,230.816,268.968,230.932,268.992,231.047L268.992,231.047
				z M264.842,233.248c0.024,0.112,0.158,0.18,0.298,0.15c0.141-0.03,0.237-0.146,0.213-0.26c-0.025-0.114-0.159-0.181-0.3-0.151
				C264.913,233.017,264.818,233.133,264.842,233.248L264.842,233.248z M263.767,239.055c0.024,0.114,0.158,0.182,0.299,0.152
				c0.142-0.03,0.235-0.146,0.211-0.261c-0.024-0.113-0.157-0.182-0.299-0.151C263.837,238.824,263.743,238.942,263.767,239.055
				L263.767,239.055z M267.28,243.838c0.024,0.114,0.157,0.182,0.298,0.152c0.14-0.03,0.235-0.147,0.211-0.261
				c-0.024-0.112-0.159-0.182-0.299-0.151C267.35,243.607,267.255,243.725,267.28,243.838L267.28,243.838z M271.845,244.034
				c0.024,0.115,0.157,0.182,0.298,0.153c0.14-0.031,0.235-0.146,0.211-0.261c-0.024-0.114-0.158-0.181-0.299-0.151
				C271.915,243.805,271.821,243.92,271.845,244.034L271.845,244.034z"/>
			<path id="Horsehoe_5_" display="inline" fill="url(#colour1)" fill-rule="evenodd" clip-rule="evenodd" d="M291.888,215.315
				c0,0-1.292,0.631-1.697,0.823c-0.696,0.33-0.903,0.273-1.199,0.146c-0.438-0.184-0.713-0.449-0.812-1.13
				c-0.101-0.694,0.321-2.499,0.321-2.499c0.143-1.299,0.102-2.618-0.081-3.239c-0.525-1.794-1.202-2.319-1.805-2.813
				c-0.587-0.482-2.123-0.969-2.734-0.979c-0.613-0.011-1.681-0.056-3.086,0.574c-1.404,0.629-2.318,2.006-2.318,2.006
				c-0.654,1.09-1.034,2.29-0.652,3.894c0.395,1.649,1.839,2.889,2.55,3.473c0.508,0.416,2.265,1.258,2.775,2.086
				c0.513,0.828,0.065,1.584-0.363,1.866c-0.216,0.179-2.098,0.991-2.098,0.991s-0.755-1.196-0.789-1.487l0.601-0.239
				c0.621-0.198-0.123-0.709-0.123-0.709s-1.784-0.994-3.048-2.123c-1.263-1.129-1.727-2.321-2.083-3.226
				c-0.549-1.393-0.597-3.118,0.642-5.344c0.674-1.212,1.899-3.036,5.203-4.098c1.48-0.477,3.239-0.597,5.282,0.206
				c2.224,0.873,3.414,2.12,4.221,4.526c0.678,2.016-0.158,5.334-0.174,5.753c-0.018,0.418,0.205,0.31,0.205,0.31l0.738-0.392
				L291.888,215.315L291.888,215.315z M289.097,213.766c-0.105,0.051-0.139,0.198-0.077,0.327c0.063,0.13,0.199,0.194,0.305,0.143
				c0.104-0.05,0.137-0.196,0.074-0.326C289.336,213.78,289.2,213.716,289.097,213.766L289.097,213.766z M281.395,217.329
				c-0.105,0.051-0.138,0.197-0.075,0.327c0.062,0.129,0.198,0.194,0.303,0.142c0.104-0.05,0.138-0.196,0.075-0.326
				C281.635,217.342,281.499,217.278,281.395,217.329L281.395,217.329z M277.149,213.803c-0.105,0.052-0.139,0.198-0.076,0.327
				c0.063,0.13,0.198,0.193,0.303,0.143c0.105-0.051,0.139-0.197,0.076-0.327C277.39,213.817,277.255,213.752,277.149,213.803
				L277.149,213.803z M276.341,209.176c-0.105,0.051-0.14,0.197-0.077,0.326c0.063,0.13,0.199,0.195,0.304,0.144
				c0.104-0.051,0.137-0.197,0.074-0.327C276.58,209.19,276.444,209.126,276.341,209.176L276.341,209.176z M280.266,204.764
				c-0.104,0.05-0.139,0.197-0.076,0.326c0.063,0.13,0.199,0.193,0.303,0.143c0.105-0.051,0.139-0.197,0.076-0.327
				C280.506,204.776,280.371,204.712,280.266,204.764L280.266,204.764z M286.198,204.603c-0.104,0.05-0.139,0.197-0.076,0.326
				c0.062,0.129,0.2,0.193,0.303,0.143c0.104-0.051,0.139-0.198,0.076-0.327C286.438,204.615,286.302,204.551,286.198,204.603
				L286.198,204.603z M289.154,208.086c-0.104,0.051-0.138,0.196-0.076,0.326c0.063,0.129,0.199,0.194,0.303,0.143
				c0.105-0.051,0.138-0.197,0.076-0.326C289.395,208.099,289.26,208.036,289.154,208.086L289.154,208.086z"/>
			<path id="Horsehoe_4_" display="inline" fill="url(#colour1)" fill-rule="evenodd" clip-rule="evenodd" d="M306.267,217.72l0.912-1.442l0.617,0.563
				c0,0,0.188,0.161,0.276-0.248c0.088-0.41,0.107-3.833,1.268-5.616c1.382-2.128,2.845-3.039,5.217-3.329
				c2.179-0.267,3.851,0.288,5.166,1.119c2.935,1.854,3.665,3.925,4.016,5.267c0.644,2.465,0.166,4.124-0.713,5.335
				c-0.57,0.788-1.316,1.827-2.822,2.604c-1.505,0.778-3.48,1.295-3.48,1.295s-0.848,0.31-0.296,0.656l0.522,0.381
				c-0.105,0.274-1.136,1.243-1.136,1.243s-1.62-1.255-1.784-1.482c-0.344-0.379-0.589-1.225,0.114-1.898
				c0.701-0.674,2.613-1.051,3.208-1.327c0.835-0.388,2.544-1.227,3.337-2.727c0.771-1.457,0.702-2.714,0.341-3.932
				c0,0-0.541-1.562-1.744-2.521c-1.202-0.96-2.249-1.184-2.845-1.326c-0.595-0.143-2.204-0.054-2.894,0.266
				c-0.705,0.328-1.492,0.667-2.449,2.273c-0.332,0.556-0.701,1.823-0.887,3.116c0,0-0.042,1.853-0.313,2.5
				c-0.264,0.635-0.597,0.823-1.067,0.892c-0.318,0.049-0.532,0.052-1.125-0.44C307.361,218.654,306.267,217.72,306.267,217.72
				L306.267,217.72z M309.357,216.917c-0.088-0.075-0.235-0.046-0.328,0.063c-0.094,0.11-0.099,0.26-0.01,0.334
				c0.09,0.077,0.237,0.048,0.33-0.062S309.446,216.993,309.357,216.917L309.357,216.917z M315.926,222.29
				c-0.088-0.075-0.236-0.047-0.329,0.063c-0.094,0.11-0.097,0.26-0.01,0.334c0.09,0.077,0.237,0.048,0.33-0.062
				C316.011,222.515,316.016,222.365,315.926,222.29L315.926,222.29z M320.917,219.936c-0.09-0.075-0.236-0.047-0.329,0.063
				c-0.094,0.11-0.098,0.26-0.008,0.335s0.235,0.048,0.329-0.063C321.001,220.163,321.006,220.012,320.917,219.936L320.917,219.936z
				 M322.854,215.657c-0.087-0.074-0.235-0.046-0.327,0.063c-0.094,0.11-0.098,0.26-0.009,0.335c0.088,0.075,0.236,0.046,0.33-0.064
				C322.94,215.883,322.944,215.733,322.854,215.657L322.854,215.657z M320.156,210.404c-0.09-0.076-0.236-0.047-0.33,0.062
				c-0.094,0.11-0.097,0.26-0.007,0.335c0.088,0.075,0.235,0.048,0.329-0.063C320.241,210.63,320.244,210.479,320.156,210.404
				L320.156,210.404z M314.451,208.768c-0.088-0.076-0.235-0.048-0.329,0.062c-0.093,0.11-0.096,0.26-0.007,0.335
				c0.087,0.074,0.236,0.047,0.329-0.063S314.54,208.842,314.451,208.768L314.451,208.768z M310.719,211.403
				c-0.089-0.075-0.236-0.048-0.329,0.062c-0.093,0.11-0.097,0.26-0.008,0.335c0.088,0.075,0.235,0.047,0.33-0.063
				C310.804,211.628,310.808,211.479,310.719,211.403L310.719,211.403z"/>
		</g>

<polygon id="Star" display="none" fill="url(#colour1)" stroke="none" points="296.156,214.055 290.954,230.221 273.845,230.221 287.739,240.279
		282.401,256.431 296.156,246.395 309.911,256.431 304.645,240.143 318.467,230.289 301.426,230.289 	"/>
<circle id="Pom_Pom" display="none" cx="296.5" cy="237" r="6" fill="url(#colour1)" />
<g id="Pom_Pom_old" display="none" fill="url(#colour1)" stroke="gray">
<path fill-rule="evenodd" clip-rule="evenodd"
      d="M297.141,231.528 
		c3.123,0,5.67,2.547,5.67,5.669s-2.547,5.669-5.67,5.669c-3.122,0-5.669-2.547-5.669-5.669S294.019,231.528,297.141,231.528
		L297.141,231.528z"/>
</g>
<g id="Spotted_Cap" display="none" fill="url(#colour1)" stroke="none">
	<circle cx="296.333" cy="237" r="9.917"/>
	<ellipse cx="271.167" cy="237" rx="4.958" ry="9.917"/>
	<ellipse cx="321.789" cy="237.788" rx="5.279" ry="9.917"/>
	<ellipse cx="297" cy="210.667" rx="9.917" ry="5.667"/>
	<ellipse cx="296.667" cy="262.167" rx="9.917" ry="6.375"/>
</g>
<g id="Diamonds_Cap" display="none" fill="url(#colour1)" stroke="none">
        <polygon points="306.733,237.092 296.44,221.256 286.267,236.908 296.56,252.743 		"/>
        <path d="M310.757,237.06l10.808,10.174l6.773-6.375c0-1.279,0-2.564,0-3.874c0-1.424-0.094-2.825-0.257-4.204
                l-6.39-6.014L310.757,237.06z"/>
        <path d="M281,235.94l-10.311-10.174l-5.678,5.603c-0.292,1.828-0.452,3.702-0.452,5.615c0,1.123,0,2.221,0,3.32
                l6.009,5.929L281,235.94z"/>
        <path d="M296.56,218.243l10.174-8.074l-8.663-6.875c-0.537-0.028-1.078-0.043-1.622-0.043
                c-0.55,0-1.096,0.015-1.639,0.044l-8.543,6.779L296.56,218.243z"/>
        <polygon points="286.767,262.804 297.06,271.453 307.233,262.905 296.94,254.256 		"/>
</g>
<g id="Diamond_Hoop" display="none">
        <path fill="none" d="M317.167,257.664l-6.492-11.171l10.471-7.312l5.517,9.494c1.383-3.681,2.148-7.675,2.148-11.851
                c0-8.782-3.358-16.768-8.817-22.692l5.973,10.278l-10.471,7.312l-6.492-11.171l10.277-7.177
                c-5.717-5.823-13.543-9.458-22.182-9.583l5.32,9.155l-10.47,7.312l-6.492-11.171l7.229-5.048
                c-9.801,1.241-18.249,7.024-23.281,15.235l5.063-3.536l6.492,11.172l-10.471,7.312l-4.432-7.626
                c-1.024,3.223-1.585,6.659-1.585,10.229c0,4.03,0.708,7.892,2,11.466l9.603-6.706l6.492,11.172l-9.437,6.589
                c5.451,6,13.043,9.918,21.516,10.454l-5.43-9.343l10.471-7.312l6.492,11.172l-7.891,5.51c11.685-0.608,21.738-7.655,26.875-17.743
                L317.167,257.664z"/>
        <path fill="url(#colour1)" d="M291.948,220.257l10.47-7.312l-5.32-9.155c-0.153-0.002-0.304-0.012-0.458-0.012
                c-1.34,0-2.658,0.095-3.956,0.259l-7.229,5.048L291.948,220.257z"/>
        <path fill="url(#colour1)" d="M280.959,226.908l-6.492-11.172l-5.063,3.536c-1.392,2.271-2.522,4.726-3.347,7.322l4.432,7.626
                L280.959,226.908z"/>
        <path fill="url(#colour1)" d="M276.074,241.583l-9.603,6.706c1.496,4.139,3.779,7.885,6.659,11.055l9.437-6.589L276.074,241.583z"/>
        <path fill="url(#colour1)" d="M299.687,253.142l-10.471,7.312l5.43,9.343c0.661,0.042,1.325,0.07,1.995,0.07
                c0.552,0,1.102-0.015,1.647-0.043l7.891-5.51L299.687,253.142z"/>
        <path fill="url(#colour1)" d="M310.675,246.492l6.492,11.171l7.995-5.583c0.561-1.101,1.062-2.238,1.5-3.407l-5.517-9.494
                L310.675,246.492z"/>
        <path fill="url(#colour1)" d="M315.495,231.721l10.471-7.312l-5.973-10.278c-0.235-0.255-0.47-0.511-0.713-0.758l-10.277,7.177
                L315.495,231.721z"/>
</g>
<g id="Tassle" display="none" fill="url(#colour1)" stroke="url(#colour1)">
    <g>
    <path stroke-width="0.0425" d="M305.338,258.651c-0.012-0.956,0.021-2.084,0.058-3.279
           c0.104-3.421,0.232-7.679-0.697-10.152c-0.772-2.056-1.903-2.46-3.613-3.071c-0.547-0.195-1.167-0.417-1.822-0.718
           c-2.25-1.034-4.245-3.051-5.731-4.694l0.49-0.443c1.444,1.596,3.375,3.553,5.517,4.537c0.63,0.289,1.209,0.496,1.77,0.696
           c1.748,0.624,3.128,1.118,4.009,3.46c0.976,2.596,0.851,6.745,0.74,10.405c-0.036,1.188-0.07,2.31-0.059,3.25L305.338,258.651
           L305.338,258.651z"/>
   <path stroke-width="0.0425" d="M309.08,264.443c-1.7-2.081-2.252-5.163-2.785-8.144
           c-0.328-1.831-0.638-3.56-1.193-5.009c-3.551-9.265-7.495-14.476-11.722-15.489l0.133-0.554
           c4.483,1.074,8.448,6.255,12.121,15.838c0.575,1.5,0.89,3.255,1.222,5.113c0.521,2.909,1.061,5.917,2.667,7.884L309.08,264.443
           L309.08,264.443z"/>
   <path stroke-width="0.0425" d="M312.443,264.245c-1.288-5.08-4.005-10.226-5.51-12.84
           c-2.647-4.6-8.156-14.171-14.353-14.792l0.066-0.657c6.534,0.655,11.95,10.065,14.86,15.12c1.521,2.645,4.269,7.851,5.578,13.007
           L312.443,264.245L312.443,264.245z"/>
   <path stroke-width="0.0425" d="M305.368,250.529l-0.403-0.875
           c-0.71-1.548-1.444-3.15-2.353-4.546c-0.861-1.327-2.096-2.323-3.29-3.285c-1.153-0.93-2.347-1.892-3.179-3.142l0.55-0.366
           c0.775,1.166,1.876,2.054,3.043,2.994c1.234,0.995,2.511,2.024,3.43,3.439c0.934,1.438,1.678,3.061,2.398,4.631l0.402,0.872
           L305.368,250.529L305.368,250.529z"/>
   <path stroke-width="0.0425" d="M312.936,262.617l-0.661-0.012
           c0.063-3.43-1.763-7.286-3.557-10.605c-1.953-3.618-7.204-12.372-13.763-15.516l0.285-0.596
           c6.733,3.229,12.075,12.124,14.059,15.799C311.133,255.081,313,259.034,312.936,262.617L312.936,262.617z"/>
   <path stroke-width="0.0425" d="M309.974,266.662c-0.386-1.411-0.705-2.779-1.014-4.101
           c-0.837-3.584-1.627-6.97-3.599-10.692c-1.95-3.684-4.313-6.977-6.599-10.162c-1.31-1.825-2.663-3.712-3.942-5.671l0.554-0.361
           c1.271,1.948,2.62,3.829,3.926,5.647c2.297,3.203,4.674,6.515,6.646,10.238c2.011,3.798,2.811,7.224,3.657,10.852
           c0.307,1.316,0.625,2.678,1.008,4.077L309.974,266.662L309.974,266.662z"/>
   <path stroke-width="0.0425" d="M306.939,260.229c-0.06-0.802-0.445-1.484-0.854-2.207
           c-0.253-0.449-0.516-0.914-0.708-1.424c-0.508-1.352-0.668-2.805-0.823-4.211c-0.125-1.126-0.253-2.29-0.562-3.369
           c-1.388-4.858-5.341-8.051-9.524-11.431c-0.712-0.575-1.426-1.152-2.126-1.737l0.385-0.461c0.698,0.583,1.409,1.158,2.119,1.731
           c4.073,3.29,8.284,6.692,9.724,11.732c0.322,1.128,0.454,2.318,0.581,3.468c0.151,1.369,0.308,2.784,0.789,4.065
           c0.176,0.468,0.427,0.911,0.669,1.34c0.422,0.748,0.858,1.521,0.93,2.457L306.939,260.229L306.939,260.229z"/>
   <path stroke-width="0.0425" d="M309.759,257.338c-0.111-0.947-0.197-2.071-0.287-3.261
           c-0.259-3.415-0.581-7.664-1.768-10.028c-0.985-1.963-2.152-2.245-3.918-2.672c-0.564-0.137-1.204-0.291-1.887-0.521
           c-2.347-0.791-4.544-2.586-6.195-4.062l0.44-0.493c1.605,1.434,3.733,3.176,5.966,3.929c0.655,0.221,1.253,0.365,1.831,0.505
           c1.805,0.436,3.229,0.781,4.354,3.018c1.245,2.48,1.559,6.621,1.835,10.274c0.09,1.183,0.175,2.299,0.285,3.232L309.759,257.338
           L309.759,257.338z"/>
   <path stroke-width="0.0425" d="M314.093,262.702c-1.91-1.891-2.784-4.897-3.631-7.804
           c-0.52-1.786-1.01-3.473-1.716-4.855c-4.51-8.837-8.981-13.603-13.292-14.164l0.074-0.565c4.571,0.595,9.061,5.329,13.727,14.47
           c0.729,1.431,1.228,3.143,1.755,4.955c0.824,2.838,1.679,5.772,3.483,7.558L314.093,262.702L314.093,262.702z"/>
   <path stroke-width="0.0425" d="M317.418,262.149c-1.815-4.908-5.063-9.741-6.837-12.186
           c-3.119-4.295-9.601-13.197-15.834-13.194l-0.004-0.661c0.014,0,0.029,0,0.043,0c6.547,0,12.908,8.756,16.329,13.466
           c1.794,2.472,5.08,7.363,6.922,12.345L317.418,262.149L317.418,262.149z"/>
   <path stroke-width="0.0425" d="M308.932,249.257l-0.495-0.831
           c-0.869-1.463-1.769-2.977-2.817-4.269c-0.997-1.229-2.33-2.088-3.619-2.918c-1.245-0.803-2.534-1.633-3.493-2.788l0.508-0.422
           c0.895,1.077,2.084,1.844,3.344,2.655c1.332,0.859,2.71,1.747,3.773,3.058c1.079,1.33,1.99,2.864,2.872,4.348l0.494,0.828
           L308.932,249.257L308.932,249.257z"/>
   <path stroke-width="0.0425" d="M317.075,260.537c-0.3-3.414-2.522-7.057-4.656-10.17
           c-2.325-3.391-8.473-11.542-15.326-13.976l0.221-0.623c7.036,2.5,13.288,10.781,15.649,14.225
           c2.184,3.184,4.457,6.919,4.77,10.486L317.075,260.537L317.075,260.537z"/>
   <path stroke-width="0.0425" d="M315.216,264.814c-0.533-1.363-0.996-2.69-1.442-3.974
           c-1.21-3.475-2.354-6.758-4.706-10.25c-2.33-3.456-5.026-6.48-7.635-9.405c-1.495-1.676-3.04-3.411-4.52-5.225l0.511-0.417
           c1.472,1.803,3.012,3.532,4.502,5.203c2.623,2.941,5.335,5.983,7.689,9.476c2.401,3.563,3.558,6.885,4.782,10.402
           c0.445,1.278,0.905,2.598,1.434,3.95L315.216,264.814L315.216,264.814z"/>
   <path stroke-width="0.0425" d="M309.03,262.697c-0.006-0.805-0.344-1.511-0.701-2.259
           c-0.223-0.465-0.452-0.947-0.61-1.47c-0.416-1.383-0.478-2.845-0.537-4.258c-0.048-1.131-0.098-2.301-0.333-3.397
           c-1.057-4.941-4.784-8.394-8.73-12.049c-0.672-0.622-1.345-1.245-2.004-1.876l0.415-0.434c0.657,0.629,1.327,1.25,1.996,1.87
           c3.842,3.559,7.814,7.238,8.911,12.364c0.246,1.146,0.297,2.342,0.346,3.499c0.058,1.375,0.117,2.798,0.512,4.11
           c0.145,0.479,0.364,0.939,0.577,1.383c0.37,0.774,0.753,1.576,0.761,2.514L309.03,262.697L309.03,262.697z"/>
   <path stroke-width="0.0425" d="M308.206,258.439c-0.012-0.956,0.022-2.084,0.059-3.279
           c0.104-3.421,0.232-7.679-0.697-10.152c-0.773-2.056-1.903-2.46-3.613-3.071c-0.548-0.195-1.168-0.417-1.822-0.718
           c-2.251-1.034-4.246-3.052-5.732-4.694l0.49-0.443c1.444,1.595,3.376,3.553,5.518,4.537c0.629,0.29,1.209,0.496,1.769,0.697
           c1.748,0.624,3.129,1.118,4.01,3.46c0.976,2.596,0.85,6.745,0.739,10.405c-0.035,1.188-0.069,2.31-0.058,3.25L308.206,258.439
           L308.206,258.439z"/>
   <path stroke-width="0.0425" d="M311.949,264.23c-1.7-2.081-2.252-5.163-2.786-8.144
           c-0.328-1.831-0.638-3.56-1.192-5.01c-3.552-9.264-7.495-14.475-11.723-15.488l0.133-0.554
           c4.483,1.074,8.447,6.255,12.121,15.838c0.575,1.5,0.89,3.255,1.222,5.113c0.521,2.909,1.06,5.917,2.667,7.884L311.949,264.23
           L311.949,264.23z"/>
   <path stroke-width="0.0425" d="M315.313,264.032c-1.288-5.08-4.005-10.225-5.51-12.84
           c-2.647-4.6-8.156-14.171-14.353-14.792l0.065-0.657c6.535,0.655,11.951,10.065,14.86,15.12c1.521,2.644,4.27,7.851,5.578,13.007
           L315.313,264.032L315.313,264.032z"/>
   <path stroke-width="0.0425" d="M308.237,250.316l-0.404-0.875
           c-0.709-1.549-1.444-3.15-2.352-4.546c-0.862-1.327-2.097-2.323-3.29-3.285c-1.153-0.93-2.348-1.892-3.179-3.142l0.55-0.366
           c0.775,1.166,1.877,2.054,3.043,2.994c1.234,0.995,2.511,2.024,3.43,3.439c0.935,1.437,1.679,3.061,2.399,4.63l0.401,0.872
           L308.237,250.316L308.237,250.316z"/>
   <path stroke-width="0.0425" d="M315.804,262.404l-0.66-0.012
           c0.062-3.43-1.764-7.286-3.558-10.605c-1.953-3.618-7.204-12.373-13.764-15.516l0.286-0.596
           c6.733,3.228,12.075,12.124,14.059,15.798C314.002,254.868,315.868,258.822,315.804,262.404L315.804,262.404z"/>
   <path stroke-width="0.0425" d="M312.842,266.45c-0.386-1.411-0.704-2.779-1.013-4.101
           c-0.837-3.585-1.627-6.97-3.599-10.692c-1.951-3.684-4.314-6.977-6.6-10.162c-1.309-1.825-2.663-3.712-3.941-5.671l0.554-0.361
           c1.271,1.948,2.62,3.828,3.925,5.647c2.298,3.203,4.675,6.515,6.646,10.238c2.012,3.797,2.811,7.224,3.657,10.852
           c0.308,1.316,0.625,2.677,1.008,4.077L312.842,266.45L312.842,266.45z"/>
   <path stroke-width="0.0425" d="M309.809,260.017c-0.061-0.802-0.445-1.484-0.854-2.207
           c-0.253-0.449-0.516-0.914-0.708-1.424c-0.508-1.352-0.668-2.805-0.823-4.211c-0.125-1.126-0.254-2.29-0.563-3.369
           c-1.387-4.858-5.34-8.05-9.523-11.431c-0.713-0.575-1.426-1.152-2.127-1.737l0.385-0.461c0.698,0.583,1.409,1.158,2.119,1.731
           c4.073,3.29,8.284,6.692,9.725,11.733c0.322,1.128,0.454,2.317,0.581,3.468c0.15,1.369,0.307,2.784,0.789,4.065
           c0.175,0.468,0.426,0.912,0.668,1.341c0.423,0.748,0.859,1.521,0.93,2.457L309.809,260.017L309.809,260.017z"/>
   <path stroke-width="0.0425" d="M312.628,257.125c-0.112-0.947-0.197-2.071-0.287-3.261
           c-0.259-3.415-0.581-7.664-1.769-10.028c-0.984-1.963-2.152-2.245-3.918-2.672c-0.564-0.137-1.203-0.291-1.887-0.521
           c-2.347-0.791-4.543-2.586-6.194-4.062l0.439-0.493c1.604,1.434,3.733,3.176,5.966,3.929c0.656,0.221,1.254,0.365,1.831,0.505
           c1.805,0.436,3.23,0.781,4.354,3.018c1.245,2.48,1.559,6.621,1.835,10.274c0.09,1.183,0.175,2.299,0.285,3.232L312.628,257.125
           L312.628,257.125z"/>
   <path stroke-width="0.0425" d="M316.962,262.49c-1.91-1.891-2.785-4.897-3.631-7.804
           c-0.52-1.786-1.01-3.473-1.716-4.855c-4.51-8.837-8.982-13.603-13.293-14.164l0.075-0.565c4.57,0.595,9.06,5.329,13.726,14.47
           c0.729,1.431,1.228,3.143,1.755,4.955c0.825,2.837,1.68,5.772,3.484,7.558L316.962,262.49L316.962,262.49z"/>
   <path stroke-width="0.0425" d="M311.801,249.045l-0.496-0.831
           c-0.869-1.463-1.768-2.977-2.817-4.269c-0.997-1.229-2.33-2.088-3.619-2.918c-1.245-0.803-2.533-1.633-3.493-2.788l0.509-0.423
           c0.895,1.078,2.084,1.844,3.343,2.656c1.333,0.858,2.711,1.747,3.774,3.058c1.079,1.33,1.99,2.864,2.872,4.348l0.493,0.828
           L311.801,249.045L311.801,249.045z"/>
   <path stroke-width="0.0425" d="M319.943,260.324c-0.3-3.414-2.521-7.057-4.656-10.17
           c-2.324-3.391-8.472-11.542-15.325-13.976l0.221-0.623c7.421,2.636,19.342,19.61,15.649,14.225
           c-2.184-3.184,4.457,6.919,4.769,10.485L319.943,260.324L319.943,260.324z"/>
   <path stroke-width="0.0425" d="M314.259,264.708c-0.532-1.363-0.995-2.69-1.441-3.974
           c-1.21-3.475-2.354-6.757-4.707-10.25c-2.329-3.456-5.025-6.48-7.634-9.406c-1.495-1.676-3.041-3.41-4.52-5.225l0.511-0.417
           c1.471,1.804,3.012,3.532,4.502,5.203c2.623,2.941,5.335,5.983,7.688,9.476c2.401,3.563,3.558,6.885,4.783,10.402
           c0.445,1.277,0.905,2.598,1.434,3.95L314.259,264.708L314.259,264.708z"/>
   <path stroke-width="0.0425" d="M311.899,262.484c-0.006-0.805-0.344-1.511-0.701-2.259
           c-0.223-0.465-0.453-0.947-0.61-1.47c-0.416-1.383-0.478-2.845-0.537-4.258c-0.048-1.131-0.098-2.301-0.333-3.398
           c-1.057-4.941-4.784-8.394-8.73-12.049c-0.673-0.622-1.345-1.245-2.004-1.876l0.415-0.434c0.657,0.629,1.327,1.25,1.996,1.87
           c3.842,3.558,7.814,7.238,8.911,12.364c0.245,1.146,0.296,2.341,0.345,3.498c0.059,1.376,0.118,2.799,0.513,4.11
           c0.145,0.479,0.363,0.939,0.577,1.383c0.37,0.774,0.753,1.576,0.76,2.514L311.899,262.484L311.899,262.484z"/>
   <path stroke-width="0.0425" d="M311.588,257.724c-0.103-0.95-0.178-2.077-0.256-3.27
           c-0.224-3.415-0.502-7.666-1.663-10.04c-0.965-1.973-2.13-2.267-3.89-2.711c-0.563-0.143-1.202-0.304-1.883-0.541
           c-2.339-0.815-4.518-2.632-6.153-4.125l0.445-0.488c1.589,1.45,3.7,3.214,5.925,3.989c0.654,0.228,1.251,0.378,1.828,0.524
           c1.8,0.454,3.22,0.814,4.32,3.062c1.22,2.491,1.491,6.632,1.73,10.287c0.078,1.186,0.15,2.306,0.252,3.241L311.588,257.724
           L311.588,257.724z"/>
   <path stroke-width="0.0425" d="M315.866,263.132c-1.892-1.909-2.734-4.925-3.55-7.841
           c-0.502-1.791-0.975-3.482-1.666-4.872c-4.42-8.883-8.844-13.694-13.148-14.299l0.08-0.564c4.564,0.641,9.006,5.42,13.577,14.608
           c0.716,1.438,1.196,3.155,1.704,4.973c0.797,2.846,1.621,5.789,3.408,7.593L315.866,263.132L315.866,263.132z"/>
   <path stroke-width="0.0425" d="M319.195,262.613c-1.768-4.934-4.963-9.796-6.711-12.256
           c-3.074-4.326-9.472-13.327-15.7-13.354l0.003-0.66c6.567,0.028,12.857,8.878,16.236,13.632
           c1.768,2.487,4.999,7.407,6.795,12.415L319.195,262.613L319.195,262.613z"/>
   <path stroke-width="0.0425" d="M310.843,249.636l-0.485-0.833
           c-0.854-1.474-1.738-2.998-2.775-4.301c-0.984-1.239-2.309-2.112-3.589-2.956c-1.237-0.815-2.518-1.659-3.464-2.824l0.512-0.417
           c0.884,1.087,2.064,1.865,3.316,2.689c1.323,0.873,2.692,1.775,3.742,3.096c1.066,1.342,1.962,2.887,2.83,4.381l0.483,0.829
           L310.843,249.636L310.843,249.636z"/>
   <path stroke-width="0.0425" d="M319.529,260.946l-0.659,0.051
           c-0.265-3.42-2.45-7.084-4.553-10.217c-2.29-3.415-8.353-11.628-15.182-14.131l0.228-0.621
           c7.01,2.571,13.177,10.916,15.503,14.384C317.016,253.616,319.252,257.374,319.529,260.946L319.529,260.946z"/>
   <path stroke-width="0.0425" d="M316.968,265.255c-0.519-1.368-0.968-2.699-1.401-3.985
           c-1.175-3.488-2.284-6.783-4.603-10.299c-2.293-3.481-4.96-6.534-7.539-9.486c-1.478-1.691-3.005-3.441-4.466-5.269l0.518-0.413
           c1.45,1.817,2.973,3.561,4.446,5.247c2.593,2.969,5.274,6.04,7.594,9.557c2.364,3.588,3.487,6.922,4.677,10.453
           c0.431,1.281,0.878,2.606,1.393,3.962L316.968,265.255L316.968,265.255z"/>
   <path stroke-width="0.0425" d="M313.333,259.142c-0.136-0.793-0.585-1.435-1.061-2.115
           c-0.294-0.422-0.601-0.86-0.841-1.35c-0.635-1.297-0.933-2.729-1.222-4.113c-0.231-1.109-0.47-2.255-0.88-3.299
           c-1.846-4.704-6.085-7.504-10.573-10.47c-0.764-0.504-1.53-1.01-2.283-1.526l0.339-0.496c0.75,0.514,1.513,1.018,2.274,1.521
           c4.369,2.886,8.886,5.87,10.801,10.75c0.429,1.092,0.673,2.264,0.909,3.397c0.281,1.348,0.572,2.742,1.174,3.972
           c0.22,0.449,0.512,0.866,0.794,1.271c0.491,0.704,1,1.432,1.16,2.357L313.333,259.142L313.333,259.142z"/>
   <path stroke-width="0.0425" d="M315.863,255.994c-0.201-0.932-0.394-2.042-0.597-3.218
           c-0.584-3.374-1.311-7.574-2.718-9.813c-1.168-1.86-2.356-2.029-4.154-2.286c-0.575-0.083-1.227-0.175-1.929-0.339
           c-2.411-0.563-4.77-2.14-6.554-3.451l0.391-0.533c1.734,1.274,4.019,2.805,6.313,3.341c0.674,0.157,1.282,0.244,1.871,0.328
           c1.838,0.262,3.289,0.469,4.622,2.588c1.476,2.35,2.184,6.442,2.808,10.052c0.202,1.168,0.394,2.272,0.592,3.19L315.863,255.994
           L315.863,255.994z"/>
   <path stroke-width="0.0425" d="M320.689,260.92c-2.082-1.7-3.238-4.609-4.359-7.421
           c-0.688-1.729-1.336-3.36-2.171-4.669c-5.333-8.367-10.239-12.684-14.584-12.83l0.02-0.57c4.606,0.156,9.528,4.439,15.046,13.094
           c0.862,1.354,1.521,3.011,2.22,4.764c1.092,2.746,2.223,5.585,4.189,7.191L320.689,260.92L320.689,260.92z"/>
   <path stroke-width="0.0425" d="M323.947,260.052c-2.276-4.712-5.971-9.213-7.97-11.477
           c-3.515-3.978-10.816-12.221-17.021-11.622l-0.067-0.657c0.014-0.001,0.028-0.002,0.042-0.004
           c6.517-0.625,13.685,7.484,17.541,11.845c2.021,2.29,5.76,6.844,8.068,11.628L323.947,260.052L323.947,260.052z"/>
   <path stroke-width="0.0425" d="M314.269,248.03l-0.572-0.78
           c-1.005-1.374-2.045-2.794-3.212-3.98c-1.11-1.127-2.519-1.856-3.882-2.56c-1.315-0.681-2.678-1.384-3.743-2.442l0.465-0.469
           c0.994,0.987,2.251,1.636,3.582,2.324c1.408,0.728,2.865,1.48,4.049,2.684c1.201,1.22,2.254,2.661,3.273,4.054l0.571,0.777
           L314.269,248.03L314.269,248.03z"/>
   <path stroke-width="0.0425" d="M323.452,258.48c-0.625-3.37-3.186-6.784-5.606-9.68
           c-2.639-3.153-9.536-10.68-16.59-12.449l0.16-0.641c7.242,1.816,14.256,9.463,16.936,12.666c2.478,2.961,5.098,6.462,5.749,9.982
           L323.452,258.48L323.452,258.48z"/>
   <path stroke-width="0.0425" d="M322.01,262.915c-0.661-1.306-1.249-2.583-1.815-3.817
           c-1.536-3.344-2.988-6.502-5.663-9.754c-2.649-3.217-5.622-5.971-8.498-8.633c-1.648-1.526-3.352-3.105-4.998-4.77l0.469-0.464
           c1.637,1.655,3.335,3.228,4.979,4.75c2.892,2.677,5.881,5.446,8.559,8.698c2.73,3.317,4.198,6.514,5.754,9.898
           c0.564,1.229,1.148,2.5,1.804,3.795L322.01,262.915L322.01,262.915z"/>
   <path stroke-width="0.0425" d="M315.649,261.398c-0.082-0.801-0.486-1.472-0.913-2.182
           c-0.267-0.442-0.541-0.899-0.748-1.405c-0.546-1.337-0.747-2.786-0.941-4.187c-0.155-1.122-0.316-2.281-0.655-3.35
           c-1.524-4.818-5.564-7.899-9.842-11.161c-0.728-0.555-1.457-1.111-2.173-1.677l0.371-0.472c0.715,0.564,1.44,1.118,2.165,1.67
           c4.164,3.176,8.47,6.459,10.052,11.457c0.354,1.117,0.519,2.303,0.678,3.45c0.188,1.364,0.384,2.774,0.901,4.042
           c0.19,0.462,0.452,0.9,0.707,1.322c0.442,0.736,0.899,1.497,0.997,2.43L315.649,261.398L315.649,261.398z"/>
   <path stroke-width="0.0425" d="M314.423,257.239c-0.103-0.95-0.177-2.077-0.255-3.27
           c-0.224-3.415-0.502-7.666-1.663-10.04c-0.967-1.973-2.13-2.267-3.89-2.711c-0.564-0.142-1.203-0.304-1.883-0.541
           c-2.34-0.815-4.519-2.632-6.154-4.125l0.445-0.488c1.59,1.45,3.7,3.214,5.926,3.989c0.653,0.229,1.251,0.378,1.827,0.525
           c1.799,0.454,3.221,0.814,4.321,3.062c1.219,2.491,1.49,6.632,1.729,10.287c0.078,1.185,0.151,2.306,0.253,3.241L314.423,257.239
           L314.423,257.239z"/>
   <path stroke-width="0.0425" d="M318.702,262.646c-1.892-1.909-2.735-4.925-3.551-7.84
           c-0.502-1.791-0.976-3.483-1.666-4.873c-4.42-8.883-8.843-13.693-13.147-14.298l0.079-0.564
           c4.565,0.641,9.006,5.42,13.578,14.608c0.716,1.438,1.196,3.155,1.704,4.973c0.797,2.846,1.62,5.789,3.407,7.593L318.702,262.646
           L318.702,262.646z"/>
   <path stroke-width="0.0425" d="M322.031,262.127c-1.768-4.934-4.963-9.796-6.711-12.255
           c-3.074-4.326-9.472-13.327-15.699-13.354l0.002-0.66c6.567,0.028,12.856,8.878,16.235,13.632c1.767,2.486,5,7.407,6.795,12.415
           L322.031,262.127L322.031,262.127z"/>
   <path stroke-width="0.0425" d="M313.679,249.15l-0.486-0.833
           c-0.854-1.474-1.738-2.998-2.774-4.301c-0.985-1.239-2.31-2.112-3.589-2.956c-1.237-0.815-2.518-1.659-3.465-2.824l0.513-0.417
           c0.883,1.087,2.064,1.865,3.315,2.689c1.323,0.873,2.692,1.775,3.742,3.096c1.067,1.341,1.963,2.886,2.83,4.38l0.483,0.829
           L313.679,249.15L313.679,249.15z"/>
   <path stroke-width="0.0425" d="M322.364,260.46l-0.658,0.051
           c-0.267-3.42-2.451-7.084-4.554-10.217c-2.29-3.415-8.353-11.628-15.183-14.131l0.229-0.621
           c7.011,2.57,13.177,10.916,15.502,14.384C319.852,253.13,322.087,256.888,322.364,260.46L322.364,260.46z"/>
   <path stroke-width="0.0425" d="M319.803,264.77c-0.52-1.368-0.967-2.699-1.4-3.985
           c-1.175-3.489-2.285-6.783-4.603-10.3c-2.294-3.48-4.961-6.533-7.54-9.485c-1.477-1.692-3.005-3.441-4.465-5.269l0.517-0.413
           c1.451,1.817,2.974,3.561,4.446,5.247c2.593,2.968,5.275,6.039,7.594,9.556c2.365,3.588,3.487,6.922,4.677,10.453
           c0.432,1.28,0.877,2.605,1.392,3.961L319.803,264.77L319.803,264.77z"/>
   <path stroke-width="0.0425" d="M316.169,258.656c-0.137-0.793-0.585-1.435-1.061-2.115
           c-0.295-0.423-0.601-0.86-0.841-1.35c-0.635-1.297-0.933-2.729-1.222-4.113c-0.231-1.109-0.472-2.255-0.882-3.3
           c-1.844-4.704-6.084-7.504-10.571-10.469c-0.765-0.504-1.529-1.01-2.282-1.526l0.339-0.496c0.751,0.514,1.513,1.018,2.274,1.521
           c4.369,2.886,8.886,5.871,10.801,10.75c0.428,1.092,0.673,2.264,0.909,3.397c0.28,1.348,0.571,2.742,1.174,3.971
           c0.219,0.449,0.511,0.867,0.793,1.271c0.492,0.704,1,1.432,1.16,2.357L316.169,258.656L316.169,258.656z"/>
   <path stroke-width="0.0425" d="M318.699,255.509c-0.202-0.932-0.395-2.042-0.598-3.218
           c-0.583-3.374-1.31-7.574-2.718-9.813c-1.167-1.86-2.356-2.029-4.155-2.286c-0.574-0.083-1.225-0.175-1.928-0.339
           c-2.411-0.563-4.769-2.141-6.554-3.452l0.391-0.532c1.734,1.274,4.02,2.805,6.313,3.341c0.675,0.158,1.283,0.244,1.871,0.328
           c1.838,0.262,3.29,0.469,4.623,2.588c1.476,2.35,2.184,6.441,2.807,10.052c0.203,1.168,0.394,2.272,0.593,3.19L318.699,255.509
           L318.699,255.509z"/>
   <path stroke-width="0.0425" d="M323.525,260.435c-2.082-1.7-3.24-4.609-4.359-7.422
           c-0.688-1.728-1.337-3.36-2.172-4.669c-5.333-8.367-10.24-12.684-14.584-12.83l0.021-0.57c4.606,0.156,9.527,4.439,15.045,13.094
           c0.862,1.354,1.521,3.011,2.22,4.764c1.092,2.746,2.223,5.585,4.19,7.191L323.525,260.435L323.525,260.435z"/>
   <path stroke-width="0.0425" d="M317.104,247.544l-0.573-0.78
           c-1.005-1.374-2.044-2.795-3.212-3.981c-1.11-1.128-2.52-1.855-3.882-2.56c-1.316-0.681-2.678-1.384-3.743-2.442l0.466-0.469
           c0.993,0.987,2.251,1.637,3.581,2.325c1.409,0.727,2.865,1.479,4.05,2.683c1.2,1.22,2.254,2.661,3.273,4.054l0.57,0.777
           L317.104,247.544L317.104,247.544z"/>
   <path stroke-width="0.0425" d="M326.286,257.995c-0.624-3.37-3.184-6.784-5.605-9.679
           c-2.638-3.154-9.535-10.681-16.59-12.449l0.16-0.641c7.639,1.916,21.126,17.674,16.937,12.666
           c-2.478-2.961,5.097,6.462,5.748,9.982L326.286,257.995L326.286,257.995z"/>
   <path stroke-width="0.0425" d="M321.047,262.901c-0.66-1.307-1.248-2.583-1.814-3.818
           c-1.536-3.344-2.988-6.502-5.664-9.753c-2.648-3.217-5.621-5.971-8.497-8.634c-1.648-1.526-3.353-3.104-4.999-4.77l0.47-0.464
           c1.636,1.655,3.335,3.228,4.979,4.75c2.892,2.678,5.882,5.447,8.558,8.698c2.73,3.318,4.199,6.514,5.755,9.898
           c0.564,1.229,1.148,2.5,1.804,3.794L321.047,262.901L321.047,262.901z"/>
   <path stroke-width="0.0425" d="M318.485,260.913c-0.082-0.801-0.486-1.472-0.913-2.182
           c-0.267-0.442-0.542-0.899-0.748-1.405c-0.547-1.337-0.747-2.786-0.941-4.187c-0.155-1.122-0.317-2.281-0.656-3.351
           c-1.523-4.817-5.563-7.898-9.841-11.16c-0.729-0.555-1.457-1.111-2.174-1.677l0.372-0.472c0.714,0.564,1.44,1.118,2.165,1.67
           c4.164,3.175,8.47,6.458,10.051,11.457c0.354,1.117,0.519,2.302,0.678,3.449c0.189,1.364,0.385,2.775,0.902,4.042
           c0.189,0.462,0.451,0.9,0.707,1.322c0.442,0.736,0.899,1.497,0.996,2.43L318.485,260.913L318.485,260.913z"/>
	</g>
    <ellipse fill="url(#colour1)" stroke="url(#colour1)" stroke-width="0.1292" cx="296.414" cy="237.05" rx="5.039" ry="4.95"/>
</g>
<g id="new_diamonds_2015" display="none" transform="translate(-35, 0)" fill="url(#colour1)" stroke="none">
<rect
   width="11.531694"
   height="11.521495"
   x="26.764019"
   y="410.09924"
   transform="matrix(0.79078993,-0.61208765,0.78866344,0.61482517,0,0)"
   id="rect2994"
    />
<rect width="11.531694"
   height="11.521495"
   x="26.465378"
   y="410.62418"
   transform="matrix(0.79078993,-0.61208765,0.78866344,0.61482517,0,0)"
   id="rect2994-1"
    />
<rect width="11.531694"
   height="11.521495"
   x="-344.13959"
   y="319.54749"
   transform="matrix(-0.12187248,-0.99254577,0.93156211,-0.36358222,0,0)"
   id="rect2994-7"
    />
<rect width="11.531694"
   height="11.521495"
   x="-368.61859"
   y="-81.355591"
   transform="matrix(-0.92089575,-0.38980896,0.14992253,-0.98869775,0,0)"
   id="rect2994-4"
    />
<rect width="11.531694"
   height="11.521495"
   x="360.71179"
   y="141.33086"
   transform="matrix(0.95686346,0.29053799,-0.04483978,0.99899419,0,0)"
   id="rect2994-0"
    />
<rect width="11.531694"
   height="11.521495"
   x="351.50845"
   y="-311.05484"
   transform="matrix(0.09350603,0.99561871,-0.94155574,0.33685722,0,0)"
   id="rect2994-9"
    />
<rect width="11.531694"
   height="11.521495"
   x="25.766056"
   y="-402.74905"
   transform="matrix(-0.73196286,0.68134453,-0.84121812,-0.54069592,0,0)"
   id="rect2994-48"
    />
</g>
		<g id="Cap_Stars" display="none" clip-path="url(#Cap_CP)" fill="url(#colour1)" stroke="none">
			<polygon id="Star_14_" points="267.447,225.174 262.463,232.049 254.332,229.392 259.373,236.329 
				254.328,243.177 262.424,240.543 267.403,247.449 267.43,238.891 275.529,236.354 267.43,233.707 			"/>
			<polygon id="Star_13_" points="326.225,224.827 325.141,233.249 316.729,234.809 324.477,238.486 
				323.325,246.914 329.173,240.726 336.85,244.405 332.776,236.878 338.673,230.773 330.295,232.327 			"/>
			<polygon id="Star_15_" points="296.156,216.837 293.555,210.662 285,210.662 291.947,206.819 289.278,200.649 
				296.156,204.483 303.033,200.649 300.4,206.871 307.312,210.636 298.791,210.636 			"/>
			<polygon id="Star_12_" points="296.156,254.649 293.555,260.825 285,260.825 291.947,264.667 289.278,270.837 
				296.156,267.003 303.033,270.837 300.4,264.615 307.312,260.851 298.791,260.851 			"/>
			<polygon id="Star_11_" points="296.156,224.649 293.555,232.732 285,232.732 291.947,237.761 289.278,245.837 
				296.156,240.819 303.033,245.837 300.4,237.693 307.312,232.766 298.791,232.766 			"/>
		</g>
   <g transform="translate(-36,6)" id="one_diamond" display="none" fill="url(#colour1)" stroke="none">
<rect
   width="25.715103"
   height="25.298727"
   x="110.11179"
   y="401.00555"
   transform="matrix(0.6302812,-0.77636693,0.61613182,0.78764306,0,0)" />
   </g>
   <g id="ww_hoop" stroke="url(#colour1)" fill="none" display="none">
    <path d="m 321.85487,229.42635 c 0.166,1.042 6,1.833 5.667,3.833 -0.108,0.647 -5.333,2.535 -5.333,3.167 0,1.266 6,3 5.723,5.229 -0.157,1.263 -5.385,0.668 -5.551,1.403 -2.715,12.042 -13.144,22.869 -26.005,22.869 -11.293,0 -21.301,-8.767 -25.331,-18.609 -0.165,-0.403 -6.023,-4.146 -6.169,-4.558 -0.995,-2.815 9.5,-5.5 -0.167,-9 -2.967,-1.074 4.875,-2.852 5.87,-5.667 3.706,-10.486 13.708,-18 25.463,-18 13.186,0 24,7.833 25.833,19.333 z"
        stroke-width="3" />
   </g>
    <g id="capital_R" fill="url(#colour1)" stroke="none" display="none">
      <path
         d="m 291.58644,250.72099 6.72,0 c 1.862,0 3.29,0.497 4.284,1.491 0.84,0.84 1.26,1.96 1.26,3.36 l 0,0.042 c 0,1.19 -0.291,2.16 -0.871,2.909 -0.582,0.749 -1.341,1.299 -2.279,1.648 l 3.591,5.25 -3.78,0 -3.15,-4.704 -0.042,0 -2.499,0 0,4.704 -3.234,0 z m 6.51,7.14 c 0.798,0 1.41,-0.189 1.837,-0.567 0.427,-0.378 0.641,-0.882 0.641,-1.512 l 0,-0.042 c 0,-0.7 -0.224,-1.225 -0.672,-1.575 -0.448,-0.35 -1.071,-0.525 -1.869,-0.525 l -3.213,0 0,4.221 z" />
</g>
<g id="roundel" display="none">
	<path fill-rule="evenodd" clip-rule="evenodd" fill="url(#colour1)" d="M297.139,213.028
		c13.314,0,24.171,10.857,24.171,24.169s-10.857,24.169-24.171,24.169c-13.31,0-24.167-10.857-24.167-24.169
		S283.829,213.028,297.139,213.028L297.139,213.028z"/>
	<path fill-rule="evenodd" clip-rule="evenodd" fill="url(#colour2)" d="M297.14,221.028
		c8.907,0,16.171,7.264,16.171,16.169s-7.264,16.169-16.171,16.169c-8.904,0-16.168-7.264-16.168-16.169
		S288.235,221.028,297.14,221.028L297.14,221.028z"/>
        </g>
<g id="horizontal_halves" display="none">
	<path fill-rule="evenodd" clip-rule="evenodd" fill="url(#colour1)" d="M297.139,213.028
		c13.314,0,24.171,10.857,24.171,24.169s-10.857,24.169-24.171,24.169c-13.31,0-24.167-10.857-24.167-24.169
		S283.829,213.028,297.139,213.028L297.139,213.028z"/>
</g>
<g id="stripe" fill="url(#colour1)" stroke="none" display="none">
      <rect width="13.6" height="64" x="290" y="204" />
</g>
<g id="cross" fill="url(#colour1)" stroke="none" display="none">
      <rect width="64" height="13" x="265" y="230" />
      <rect width="13.6" height="64" x="290" y="204" />
</g>
<g id="button" fill="url(#colour1)" stroke="none" display="none">
<path d="m 301.61919,236.74914 c 0,3.0203 -2.4484,5.4687 -5.4688,5.4687 -3.0202,0 -5.4687,-2.4485 -5.4687,-5.4687 0,-3.0203 2.4485,-5.4687 5.4687,-5.4687 3.0204,0 5.4688,2.4484 5.4688,5.4687 z" />
</g>
<!-- Archive -->
<path id="Cap_2015" fill="url(#colour0)" d="M328.338,254.555c0,18.581-14.325,33.735-31.889,33.735c-17.564,0-31.89-15.154-31.89-33.735
				c0-5.991,0-11.579,0-17.57c0-18.581,14.325-33.734,31.89-33.734c17.564,0,31.889,15.154,31.889,33.734
				C328.338,242.976,328.338,248.563,328.338,254.555L328.338,254.555z"/>
<path id="Hooped_Cap_2015" display="none" fill-rule="evenodd" clip-rule="evenodd" fill="url(#colour1)" stroke="none" d="M296.641,203.778
		c17.738,0,32.17,14.824,32.17,33.044c0,18.221-14.432,33.044-32.17,33.044c-17.738,0-32.169-14.823-32.169-33.044
		C264.472,218.602,278.903,203.778,296.641,203.778z M269.395,236.823c0,15.432,12.222,27.987,27.246,27.987
		c15.024,0,27.246-12.555,27.246-27.987s-12.222-27.987-27.246-27.987C281.617,208.836,269.395,221.391,269.395,236.823z
		 M274.319,236.823c0,12.644,10.014,22.93,22.322,22.93c12.309,0,22.323-10.286,22.323-22.93s-10.015-22.93-22.323-22.93
		C284.333,213.893,274.319,224.179,274.319,236.823z M279.242,236.823c0,9.855,7.805,17.872,17.398,17.872
		s17.399-8.017,17.399-17.872s-7.806-17.872-17.399-17.872S279.242,226.968,279.242,236.823z M296.641,224.008
		c6.88,0,12.476,5.749,12.476,12.815s-5.596,12.815-12.476,12.815c-6.879,0-12.475-5.749-12.475-12.815
		S289.762,224.008,296.641,224.008z M289.089,236.823c0,4.277,3.388,7.757,7.552,7.757c4.164,0,7.553-3.48,7.553-7.757
		s-3.389-7.757-7.553-7.757C292.477,229.065,289.089,232.545,289.089,236.823z"/>
<g id="single_hoop_2015" display="none" stroke="url(#colour1)" fill="none">
    <g transform="translate(262,195)">
	<path stroke-width="7" d="m 56.628468,41.433796 a 21.760014,22.284349 0 1 1 -43.520028,0 21.760014,22.284349 0 1 1 43.520028,0 z" />
        </g>
</g>
<g id="Checked_Cap_2015" display="none">
		<g display="inline" clip-path="url(#Cap_CP)">
			<rect x="262" y="241.5" fill="url(#colour1)" width="10" height="10"/>
			<rect x="282" y="241.5" fill="url(#colour1)" width="10" height="10"/>
			<rect x="282" y="241.5" fill="url(#colour1)" width="10" height="10"/>
			<rect x="302" y="241.5" fill="url(#colour1)" width="10" height="10"/>
			<rect x="322" y="241.5" fill="url(#colour1)" width="10" height="10"/>
			<rect x="272" y="271.25" fill="url(#colour1)" width="10" height="10"/>
			<rect x="292" y="271.25" fill="url(#colour1)" width="10" height="10"/>
			<rect x="312" y="271.25" fill="url(#colour1)" width="10" height="10"/>
			<rect x="262" y="261.5" fill="url(#colour1)" width="10" height="10"/>
			<rect x="282" y="261.5" fill="url(#colour1)" width="10" height="10"/>
			<rect x="282" y="281.125" fill="url(#colour1)" width="10" height="10"/>
			<rect x="302" y="281.125" fill="url(#colour1)" width="10" height="10"/>
			<rect x="282" y="261.5" fill="url(#colour1)" width="10" height="10"/>
			<rect x="302" y="261.5" fill="url(#colour1)" width="10" height="10"/>
			<rect x="322" y="261.5" fill="url(#colour1)" width="10" height="10"/>
			<rect x="282" y="201.5" fill="url(#colour1)" width="10" height="10"/>
			<rect x="302" y="201.5" fill="url(#colour1)" width="10" height="10"/>
			<rect x="292" y="211.5" fill="url(#colour1)" width="10" height="10"/>
			<rect x="292" y="211.5" fill="url(#colour1)" width="10" height="10"/>
			<rect x="272" y="231.5" fill="url(#colour1)" width="10" height="10"/>
			<rect x="292" y="231.5" fill="url(#colour1)" width="10" height="10"/>
			<rect x="292" y="231.5" fill="url(#colour1)" width="10" height="10"/>
			<rect x="322" y="221.5" fill="url(#colour1)" width="10" height="10"/>
			<rect x="312" y="231.5" fill="url(#colour1)" width="10" height="10"/>
			<rect x="262" y="221.5" fill="url(#colour1)" width="10" height="10"/>
			<rect x="282" y="221.5" fill="url(#colour1)" width="10" height="10"/>
			<rect x="272" y="211.5" fill="url(#colour1)" width="10" height="10"/>
			<rect x="312" y="211.5" fill="url(#colour1)" width="10" height="10"/>
			<rect x="292" y="251.5" fill="url(#colour1)" width="10" height="10"/>
			<rect x="302" y="221.5" fill="url(#colour1)" width="10" height="10"/>
			<rect x="312" y="251.5" fill="url(#colour1)" width="10" height="10"/>
			<rect x="292" y="251.5" fill="url(#colour1)" width="10" height="10"/>
			<rect x="272" y="251.5" fill="url(#colour1)" width="10" height="10"/>
			<rect x="302" y="221.5" fill="url(#colour1)" width="10" height="10"/>
		</g>
		</g>
<g id="Cap_with_Peak" display="none">                
	<path fill-rule="evenodd" clip-rule="evenodd" fill="url(#colour1)" d="M328.338,253.555
		c0,18.581-14.325,33.735-31.889,33.735c-17.564,0-31.89-15.154-31.89-33.735c0-5.991,0-11.579,0-17.57
		c0-18.581,14.325-33.734,31.89-33.734c17.564,0,31.889,15.154,31.889,33.734C328.338,241.976,328.338,247.563,328.338,253.555
		L328.338,253.555z"/>
<path fill-rule="evenodd" clip-rule="evenodd" fill="url(#colour0)" d="M296.641,203.778
		c17.738,0,32.17,14.824,32.17,33.044c0,18.221-14.432,33.044-32.17,33.044c-17.738,0-32.169-14.823-32.169-33.044
		C264.472,218.602,278.903,203.778,296.641,203.778z"/>
</g>
<path id="Quartered_Cap_2015" display="none" fill="url(#colour1)" d="M296.448,236.981v33.661c-8.782,0-18.005-5.044-23.782-11.142
		c0,0-7.748-14.605-8.167-22.5l31.772,0.047l-0.945,0.996L296.448,236.981z M318.98,213.198c-5.777-6.098-13.75-9.878-22.532-9.878
		v33.662h31.89C328.338,227.711,324.757,219.295,318.98,213.198z"/>
<g id="Quartered_Cap_3_2015" display="none">
<path fill="url(#colour1)" d="M296.448,236.981v33.661c-8.782,0-18.005-5.044-23.782-11.142
		c0,0-7.748-14.605-8.167-22.5l31.772,0.047l-0.945,0.996L296.448,236.981z"/>
<path fill="url(#colour2)" d="M318.98,213.198c-5.777-6.098-13.75-9.878-22.532-9.878
		v33.662h31.89C328.338,227.711,324.757,219.295,318.98,213.198z"/>
</g>
<rect id="Halved_Cap_2015" display="none" x="297.449" y="203" clip-path="url(#Cap_CP)" fill-rule="evenodd" clip-rule="evenodd" fill="url(#colour1)" width="33.218" height="85.29"/>
<clipPath id="Cap_CP_2015" display="inline">
        <use xlink:href="#Cap_2015"  overflow="visible"/>
</clipPath>
<path id="Old_Striped_Cap" display="none" clip-path="url(#Cap_CP)" fill-rule="evenodd" clip-rule="evenodd" fill="url(#colour1)" stroke="none" d="M300.334,288.623
			h-7.667v-85.79h7.667V288.623z M315.334,204.105h-7.667v84.29h7.667V204.105z M269.667,202.938H262v85.79h7.667V202.938z
			 M285,204.105h-7.667v83.623H285V204.105z M330.666,202.938H323v85.79h7.666V202.938z"/>
<g id="Striped_Cap_2015" display="none" clip-path="url(#Cap_CP)" fill="url(#colour1)" stroke="none">
      <path d="m 302.3,288.623 -11.1,-0.33898 0,-85.79 11.1,1.01694 z m 22.2,-84.85698 -11.1,-0.33899 0,84.96797 11.1,0.33899 z M 262.54835,201.58207 262,202.938 l 0,85.79 0.88734,-1.01695 z m 17.55165,1.84497 -11.1,0 0,84.30096 11.1,0.67797 z m 50.566,-0.48904 0.13061,0.67797 0,86.46796 -0.13061,-1.35593 z"
        />
      </g>
       <!-- use fill-opacity instead of opacity as that leads (inexplicably) to enormous PDF files .  What colour to fill with - black seems default (original Mero dezsign), but maybe a bit dark? -->
<g id="Cap_shadows">
	<path fill="black" fill-opacity="0.15" fill-rule="evenodd" clip-rule="evenodd" d="m 328.338,239.651 c 0,18.54 -14.15551,32.64405 -31.72051,32.64405 -17.564,0 -32.05949,-14.10405 -32.05949,-32.64405 0,-1.042 0,-2.079 0,-3.117 l 0.785,0 c 0.188,6.673 11.511,17.163 15.874,18.691 1.472,0.515 1.058,2.89 2.761,2.766 3.395,-0.248 4.719,-4.721 7.439,-3.51 3.407,1.517 3.33,4.856 4.389,7.484 0.16,0.397 1.124,0.397 1.284,0 1.06,-2.628 0.981,-5.967 4.388,-7.484 2.721,-1.211 4.045,3.262 7.439,3.51 1.703,0.124 1.289,-2.251 2.762,-2.766 4.362,-1.529 15.688,-12.019 15.875,-18.691 l 0.783,0 c 0.001,1.038 0.001,2.075 0.001,3.117 z m -26.677,-6.802 c 0.515,0.974 0.811,2.104 0.811,3.307 0,3.643 -2.706,6.614 -6.023,6.614 -3.318,0 -6.023,-2.971 -6.023,-6.614 0,-1.203 0.296,-2.333 0.811,-3.307 1.044,1.974 2.991,3.307 5.213,3.307 2.222,0 4.167,-1.333 5.211,-3.307 z m 20.48364,35.6809 c -5.31229,7.61976 -12.38226,12.66842 -25.01867,13.87874 -11.86823,-1.29094 -19.89092,-4.21942 -25.86514,-13.87874 6.88532,6.68421 14.36833,10.43006 25.52615,10.27368 12.37853,-0.17349 19.48655,-4.76623 25.18817,-9.9347 z" />
<g id="Cap_Border">
<circle cx="296.5" cy="237" r="6" stroke="#666666" stroke-width="1.5" fill="none" />
<circle cx="296.5" cy="237" r="32" stroke="#666666" stroke-width="1.5" fill="none" />
<path d="m 265.66949,245.48759 c -2.25449,25.90406 11.65229,39.43198 32.66543,39.0867 20.75963,-0.34111 31.79711,-19.15346 28.85086,-39.00195"
         stroke="#666666" stroke-width="1.5" fill="none" />
</g>
</g>
<g id="seams" display="none">
  <path fill="none" stroke="url(#colour1)" stroke-width="3px" d="m 265.18644,233.8983 63.05085,7.45763" />
  <path fill="none" stroke="url(#colour1)" stroke-width="3px" d="m 277.05085,262.37288 39.66101,-49.49152" />
  <path fill="none" stroke="url(#colour1)" stroke-width="3px" d="m 280.77966,209.49153 30.84746,54.91525" />
</g>    
</svg>
