<?xml version="1.0" encoding="UTF-8" standalone="no"?>
<svg
   xmlns:svg="http://www.w3.org/2000/svg"
   xmlns="http://www.w3.org/2000/svg"
   width="286.30328"
   height="255.84435">
<defs>
    <linearGradient id="colour1"> 
     <stop offset="100%" stop-color="red"/> 
   </linearGradient> 
</defs>	 
<path
     style="fill:url(#colour1)"
     d="M 50.920336,255.23249 C 49.652946,253.87211 49.206626,251.46417 49.277126,246.3671 C 49.367486,239.83326 49.282526,239.4185 47.701246,238.67331 C 45.593126,237.67986 44.978816,237.27244 43.038286,235.58077 C 39.272946,232.2983 38.398926,230.70383 38.034986,226.45325 C 37.807336,223.79436 38.087126,222.37182 39.399886,219.51369 C 39.643766,218.98272 39.843306,218.41181 39.843306,218.24501 C 39.843306,218.07822 40.670496,216.2908 41.681506,214.27299 C 42.692516,212.25517 43.518686,210.34449 43.517436,210.02705 C 43.511486,208.5196 40.055386,199.54377 37.514906,194.4379 C 35.660116,190.71013 31.383006,182.47052 30.517486,180.95775 C 30.131856,180.28374 29.156426,178.4915 28.349866,176.97498 C 27.543316,175.45846 26.629616,173.85332 26.319436,173.40801 C 26.009256,172.96268 25.372446,171.79083 24.904306,170.80389 C 24.436166,169.81694 23.607836,168.36421 23.063576,167.57558 C 22.519326,166.78697 22.074026,166.03868 22.074026,165.91274 C 22.074026,165.78679 21.437846,164.43298 20.660296,162.90427 C 18.973766,159.58844 15.027586,150.85138 15.027586,150.43315 C 15.027586,150.27096 14.751856,149.56758 14.414846,148.87005 C 14.077846,148.17254 13.802116,147.35051 13.802116,147.04331 C 13.802116,146.73612 13.539106,145.90036 13.217656,145.18606 C 12.896206,144.47177 12.565146,143.54268 12.481976,143.12142 C 11.803966,139.68742 11.449766,139.03967 9.0033764,136.75985 C 7.6828864,135.52929 6.1199664,134.19951 5.5302064,133.80479 C 2.3880864,131.70183 0.53369636,128.64666 0.083806364,124.83163 C -0.50074364,119.87464 1.9674764,115.59963 7.6505064,111.72601 C 12.707216,108.27929 12.888896,108.08175 14.137626,104.67237 C 14.870386,102.67172 16.914686,98.086169 17.620466,96.860019 C 17.862946,96.438759 18.361126,95.548619 18.727556,94.881909 C 19.528126,93.425249 23.498656,88.075889 24.022576,87.748089 C 24.226756,87.620339 24.688796,87.131129 25.049336,86.660969 C 25.976026,85.452469 29.807476,82.294319 32.320846,80.667269 C 35.141526,78.841269 38.400256,77.500519 42.141056,76.626899 C 45.456136,75.852699 45.898726,75.598049 47.168626,73.734369 C 50.107076,69.421999 50.888756,68.432409 52.547336,66.925049 C 57.180946,62.713929 63.573706,61.707619 68.704136,64.381749 C 70.017586,65.066369 73.821986,68.069859 74.970186,69.328659 C 75.896676,70.344409 76.607346,73.008349 76.607346,75.465529 C 76.607346,78.093399 77.132476,80.081219 78.148066,81.297729 C 78.921746,82.224469 79.050616,82.259999 83.671346,82.820329 C 88.737882,83.434709 97.492502,83.639829 101.57626,83.239829 C 104.8048,82.923589 110.68192,81.705539 111.89208,81.101829 C 112.42047,80.838229 112.99305,80.622559 113.16446,80.622559 C 113.77231,80.622559 117.52994,78.656279 119.0466,77.544569 C 121.27897,75.908229 128.48306,68.888369 130.06596,66.806989 C 135.02421,60.287319 136.85222,53.586699 135.02864,48.616169 C 134.47501,47.107149 134.14473,46.667689 133.14201,46.105889 C 131.38106,45.119259 128.53492,44.882649 126.51165,45.554679 C 124.54877,46.206639 122.42128,48.235579 121.38337,50.445409 C 120.98766,51.287929 120.44365,52.435159 120.17446,52.994829 C 119.65203,54.081009 118.32754,55.194109 117.5575,55.194109 C 116.69249,55.194109 114.65142,51.821559 112.27322,46.462639 C 111.41778,44.535029 110.26168,39.907649 109.90042,36.965269 C 109.18341,31.125349 109.81756,26.589999 111.99947,21.953289 C 112.39593,21.110779 112.99177,19.778219 113.32355,18.992049 C 113.96177,17.479789 115.20312,16.406269 115.97228,16.701419 C 116.44259,16.881889 116.73184,17.451939 118.76825,22.211529 C 120.10124,25.327039 121.29171,26.554289 123.9782,27.582339 C 126.03773,28.370479 127.60731,28.400279 130.749,27.710889 C 132.85776,27.248159 133.29286,27.027319 134.5292,25.792179 C 136.98102,23.342759 138.54551,19.060619 137.8849,16.607319 C 137.20729,14.090849 134.65096,11.322169 131.55805,9.7548592 C 128.45814,8.1840192 127.16167,5.5724392 128.76632,4.1312592 C 129.41659,3.5472392 133.0706,1.8187592 135.4298,0.97920919 C 137.46794,0.25388919 139.58372,0.016799186 144.16127,0.00074918575 C 150.20892,-0.020470814 153.47241,0.40804919 154.95965,1.4186592 C 155.58608,1.8443292 156.27638,2.1926192 156.49363,2.1926192 C 156.9414,2.1926192 159.13176,3.5381992 160.16894,4.4504392 C 161.17024,5.3311192 161.08416,6.8158792 159.9574,8.0991992 C 159.46192,8.6635192 158.04881,9.7854092 156.81714,10.592279 C 154.14488,12.342919 153.06216,13.562809 152.09637,15.911159 C 150.70051,19.305229 151.28016,21.629899 154.30138,24.754319 C 156.54016,27.069569 157.99121,27.621079 161.84415,27.621079 C 163.93888,27.621079 164.8288,27.483479 165.73978,27.018729 C 167.12927,26.309859 169.33585,23.807919 170.47744,21.646919 C 172.62074,17.589699 173.00318,17.052839 173.8195,16.955479 C 174.83645,16.834199 176.70954,17.708489 177.1347,18.502909 C 177.31299,18.836059 177.87692,20.300139 178.38787,21.756419 C 179.23339,24.166299 179.32031,24.775859 179.35517,28.540169 C 179.37623,30.814959 179.30528,33.503319 179.19748,34.514339 C 178.64384,39.707129 176.13945,46.396989 172.77484,51.670879 C 171.28994,53.998399 170.80263,54.565969 170.27993,54.576679 C 169.64278,54.589739 167.44544,52.102669 166.64839,50.466289 C 164.74353,46.555519 163.51576,45.121549 161.52128,44.478039 C 158.66816,43.557499 154.05355,45.234219 153.10825,47.534929 C 151.8382,50.626039 151.51411,52.312979 151.51909,55.806839 C 151.52452,59.624799 151.71391,60.383199 153.73789,64.691479 C 154.86276,67.085889 156.62664,69.903119 158.61837,72.486439 C 160.05256,74.346639 164.83708,78.611649 166.34033,79.369939 C 166.94798,79.676459 167.99661,80.210229 168.67062,80.556079 C 175.38143,83.999609 184.83643,85.397959 193.00386,84.154849 C 196.89218,83.563029 198.32427,83.214609 202.91855,81.742619 C 206.76956,80.508769 206.85105,80.463849 207.71287,79.099759 C 208.19507,78.336529 208.68363,77.229549 208.79854,76.639789 C 208.91347,76.050039 209.26038,74.809249 209.56945,73.882489 C 209.87853,72.955729 210.34391,71.438569 210.60364,70.511009 C 211.41702,67.606239 214.2697,65.660629 219.22117,64.633609 C 221.42539,64.176429 226.35428,64.207189 227.79945,64.687139 C 230.61826,65.623329 233.22804,68.241609 238.29334,75.215199 C 239.17758,76.432569 240.57514,77.156709 242.50506,77.397509 C 245.37376,77.755439 251.87867,80.636159 254.73151,82.812009 C 255.75805,83.594959 257.21834,84.789699 257.9766,85.466979 C 258.73486,86.144259 259.87224,87.137869 260.50412,87.674989 C 261.13601,88.212119 261.653,88.817049 261.653,89.019299 C 261.653,89.221529 262.14726,89.862119 262.75136,90.442799 C 263.35546,91.023479 264.20556,92.118979 264.64047,92.877239 C 265.07538,93.635499 265.67129,94.531629 265.96472,94.868629 C 266.25814,95.205629 266.90334,96.308549 267.39846,97.319559 C 267.89361,98.330569 268.52312,99.571359 268.79739,100.07687 C 269.51589,101.40114 270.11939,102.84809 270.95841,105.25813 L 271.69563,107.37573 L 274.41008,108.4916 C 280.99551,111.19879 283.54666,113.05747 285.42763,116.51867 C 286.28555,118.09731 286.31505,118.29228 286.30114,122.28847 C 286.28686,126.3841 286.27605,126.44684 285.1932,128.72218 C 283.80195,131.64551 282.58837,132.79637 278.04364,135.50229 C 276.02161,136.7062 274.11694,137.90855 273.81103,138.1742 C 273.50513,138.43984 272.77172,139.6961 272.18125,140.9659 C 271.59077,142.23569 270.71104,144.1018 270.22627,145.11281 C 269.7415,146.12383 269.24872,147.29568 269.1312,147.71694 C 268.89281,148.57144 260.85099,164.87776 258.78142,168.70307 C 258.05212,170.05108 256.60763,172.71399 255.57144,174.62064 C 254.53525,176.5273 253.68746,178.19926 253.68746,178.33612 C 253.68746,178.47299 253.46904,178.76625 253.20207,178.98781 C 252.93511,179.20937 252.23047,180.36364 251.63621,181.55285 C 251.04195,182.74206 250.37398,183.92196 250.15182,184.17486 C 249.92966,184.42775 249.11517,185.77854 248.34184,187.17662 C 247.56851,188.5747 245.22489,192.31929 243.13379,195.49793 C 241.0427,198.67657 239.11535,201.69587 238.85078,202.20748 C 238.58621,202.7191 237.93957,203.77509 237.4138,204.55413 C 236.64803,205.6888 236.49186,206.18009 236.62878,207.02381 C 236.87825,208.56115 237.84028,209.72539 239.75319,210.80497 C 242.3213,212.25432 243.64083,213.62054 244.85642,216.0888 C 246.45726,219.33932 246.74696,220.90627 246.37046,224.27841 C 245.86725,228.78556 245.45544,229.36442 237.48697,236.76546 C 235.92463,238.21655 235.81456,238.40503 236.14519,239.06321 C 236.57122,239.9113 237.08462,243.63879 237.43818,248.45088 C 237.62527,250.99722 237.58867,252.30722 237.29984,253.40211 C 236.75649,255.46186 236.66269,255.55852 235.21076,255.55494 C 233.70632,255.55122 227.5841,254.51494 225.35989,253.88752 C 221.84823,252.89693 218.81549,252.13776 217.22979,251.85234 C 216.30303,251.68553 214.64865,251.29045 213.55339,250.97439 C 212.45812,250.65832 210.66587,250.31197 209.57061,250.20471 C 208.47535,250.09746 206.82097,249.86213 205.89421,249.68176 C 203.55547,249.22659 196.96117,248.27621 192.56725,247.76108 C 190.54523,247.52402 188.27045,247.1857 187.51219,247.00925 C 186.75394,246.83281 185.27894,246.68508 184.23444,246.68096 C 183.18993,246.67684 180.77729,246.47799 178.87302,246.23907 C 176.96874,246.00015 173.82524,245.71126 171.88748,245.59709 C 169.9497,245.48293 167.3992,245.32416 166.21969,245.24427 C 163.37576,245.05163 144.1122,245.09156 138.49347,245.30174 C 132.30427,245.53325 113.60629,246.90691 109.54179,247.4287 C 107.68827,247.66664 105.2067,247.95333 104.02718,248.06578 C 102.84767,248.17823 101.67582,248.3084 101.42307,248.35505 C 101.17032,248.40171 99.447002,248.59939 97.593482,248.79436 C 95.739962,248.98933 93.051592,249.34407 91.619322,249.58267 C 88.568682,250.09088 84.290846,250.73724 79.364656,251.43428 C 77.426876,251.70847 75.083176,252.06643 74.156416,252.22976 C 73.229646,252.39308 71.713136,252.64188 70.786376,252.78265 C 69.859616,252.92342 68.205226,253.19064 67.109966,253.37647 C 66.014706,253.5623 63.395266,254.00104 61.288996,254.35146 C 59.182726,254.70187 56.563286,255.18601 55.468026,255.42732 C 52.715176,256.03385 51.623336,255.98708 50.920336,255.23249 z M 194.08379,227.95351 C 197.09144,226.17895 198.6004,223.29285 198.63241,219.25363 C 198.65545,216.34439 198.14594,215.1296 196.5938,214.39306 C 194.86926,213.57472 193.04051,213.74857 190.73556,214.94999 C 187.75619,216.50295 187.45784,216.96356 186.58348,221.36033 C 185.87134,224.94129 186.2686,226.314 188.49846,227.97749 C 189.66875,228.85054 189.97592,228.93971 191.35167,228.80586 C 192.19963,228.72336 193.42908,228.3398 194.08379,227.95351 z M 98.948992,227.38474 C 99.728192,226.96772 100.31698,224.59604 100.09875,222.75347 C 99.860282,220.73988 97.788712,216.97694 96.246052,215.75513 C 93.824632,213.83733 92.809602,213.78563 90.027642,215.43836 C 86.703502,217.41319 86.124986,219.23817 87.968782,221.9331 C 89.010392,223.45553 91.053622,225.52425 92.078882,226.09446 C 94.571422,227.48073 97.679072,228.06437 98.948992,227.38474 z M 150.68693,225.24583 C 153.88449,223.52474 154.26533,222.58469 153.82017,217.51182 C 153.59022,214.89147 153.37119,213.86111 152.91211,213.24017 C 152.57935,212.79009 152.21748,212.06483 152.10797,211.62848 C 151.87349,210.69423 150.33379,209.2704 148.51848,208.3091 C 147.38754,207.71021 146.76278,207.62395 143.54853,207.62283 L 139.87212,207.62156 L 138.02268,208.74798 C 134.94156,210.62457 133.64005,212.58271 133.37535,215.73998 C 133.00756,220.12699 135.40186,223.6146 140.17849,225.64961 C 141.8289,226.35274 142.36098,226.42518 145.38673,226.35874 C 148.5657,226.28894 148.8662,226.22584 150.68693,225.24583 z M 120.34358,204.82804 C 122.12099,203.88298 122.61955,203.43595 124.24346,201.33116 C 125.93604,199.13735 126.69971,197.27025 127.43883,193.5188 C 128.43461,188.46452 128.74368,184.42767 128.36342,181.44237 C 127.55057,175.06101 126.8212,171.4864 125.17021,165.79259 C 123.99067,161.72467 120.42982,152.68742 118.87663,149.81979 C 118.54477,149.20709 118.27273,148.44883 118.2721,148.13477 C 118.27148,147.82071 117.98251,147.0906 117.62998,146.51231 C 117.0619,145.58046 116.0283,143.20861 114.28321,138.83229 C 113.98085,138.07403 113.23281,136.21285 112.6209,134.69633 C 111.5726,132.0983 109.88083,127.18271 108.61417,123.05439 C 107.88907,120.69115 107.68047,115.7353 108.14931,112.01053 C 108.55202,108.81109 108.18559,104.95802 107.35535,103.66206 C 106.55494,102.41264 105.11057,101.76481 103.10809,101.75707 C 102.09708,101.75317 99.891232,101.55022 98.206212,101.3061 C 96.521202,101.06196 94.340762,100.85784 93.360792,100.8525 C 92.380832,100.84715 91.346842,100.71992 91.063042,100.56975 C 90.779242,100.41959 88.479062,100.04982 85.951536,99.748069 C 81.549066,99.222469 81.240216,99.139159 78.598736,97.764719 C 77.082216,96.975639 75.289966,96.155569 74.615956,95.942359 C 73.941956,95.729139 73.252626,95.446529 73.084126,95.314319 C 72.684936,95.001109 68.462176,93.954079 65.731316,93.491179 C 60.025576,92.524009 51.067956,93.108309 46.136106,94.769369 C 42.195626,96.096539 40.324636,97.247389 37.653566,99.986999 C 32.834876,104.92936 29.965976,110.48754 28.458106,117.80219 C 27.352756,123.16421 27.523546,132.39637 28.818816,137.30045 C 30.870936,145.07008 33.979996,152.2209 39.741486,162.42254 C 40.360046,163.51781 41.290866,165.18485 41.809966,166.12708 C 42.329076,167.06931 43.530286,169.20622 44.479346,170.87577 C 45.428396,172.54532 47.202526,175.84142 48.421866,178.20045 C 49.641196,180.55947 51.165236,183.24784 51.808606,184.1746 C 52.451986,185.10136 53.903456,187.514 55.034106,189.53603 C 60.364916,199.06947 63.161246,202.1418 67.875886,203.64536 C 71.613636,204.83736 76.940496,204.06527 79.360876,201.98069 L 80.659656,200.86208 L 80.310156,196.42452 C 79.920486,191.47689 79.733126,190.45358 78.291736,185.40007 C 77.345546,182.08273 77.017116,181.06872 75.165976,175.74951 C 74.755486,174.57 73.719486,171.47688 72.863746,168.87593 C 71.140296,163.63764 70.528756,162.72892 68.727066,162.72892 C 67.428806,162.72892 66.713116,163.479 65.757866,165.84084 C 63.641126,171.07442 61.193776,172.83503 60.356716,169.7264 C 60.066206,168.64754 58.428186,164.82089 57.592676,163.26921 C 57.435126,162.97662 57.306226,162.51779 57.306226,162.24959 C 57.306226,161.98138 56.809976,160.70426 56.203446,159.41153 C 54.715956,156.24119 53.862656,154.35031 52.930696,152.15925 C 52.500666,151.14824 51.600966,149.08026 50.931366,147.56375 C 49.415676,144.13103 48.115216,140.65245 48.115216,140.0309 C 48.115216,139.27869 49.703996,137.97798 50.872516,137.77354 C 52.031866,137.57071 54.828756,138.70449 56.778996,140.16787 C 58.156806,141.20173 60.840266,142.50869 61.585176,142.50869 C 62.707276,142.50869 62.272656,141.44985 59.746566,138.02938 C 54.592416,131.05037 54.357706,130.48251 56.182296,129.40598 C 56.743646,129.07478 57.743166,128.62666 58.403456,128.41016 C 59.063746,128.19367 59.879706,127.8408 60.216716,127.626 C 61.504256,126.80535 68.196616,125.621 73.850046,125.2133 C 74.945306,125.13431 77.126046,124.90824 78.696146,124.71092 C 80.628986,124.468 81.651376,124.45265 81.862086,124.66336 C 82.799846,125.60113 82.180866,130.07618 80.686226,133.1645 C 79.357206,135.91061 78.717156,138.19999 78.813686,139.86231 C 78.896396,141.28652 78.978026,141.44426 79.671016,141.51887 C 80.092276,141.56423 80.947286,141.2885 81.571056,140.90614 C 82.721156,140.20115 85.491986,137.19136 85.491986,136.64707 C 85.491986,136.48373 85.986336,136.14353 86.590542,135.89108 C 87.478002,135.52028 87.896402,135.50049 88.767892,135.78811 C 90.153212,136.24531 90.926822,137.88143 92.235282,143.12142 C 92.761242,145.2277 93.375162,147.64034 93.599562,148.48285 C 94.081042,150.29057 95.510712,158.76907 96.063392,163.09424 C 96.231002,164.40598 96.176502,164.57811 95.440892,165.0601 C 93.983082,166.01529 92.285322,165.7548 90.069282,164.23593 C 88.984032,163.4921 87.873082,162.74534 87.600482,162.57644 C 87.327902,162.40754 86.771742,162.03175 86.364582,161.74133 C 85.285186,160.97142 84.165646,160.91259 84.019506,161.61808 C 83.900206,162.19405 84.439786,163.62555 87.267542,170.23491 C 87.772172,171.41442 88.770932,173.75813 89.486992,175.44315 C 90.203042,177.12816 91.198542,179.40293 91.699212,180.4982 C 92.199882,181.59347 92.796702,183.01363 93.025472,183.65415 C 93.254242,184.29465 93.637002,185.19077 93.876042,185.64553 C 94.115082,186.10028 94.911422,187.68016 95.645712,189.15637 C 97.173072,192.22702 97.052952,192.01065 99.257972,195.66336 C 101.17866,198.84509 104.08542,202.53416 105.50085,203.58644 C 107.7706,205.27384 110.97051,205.95537 115.60928,205.73939 C 118.35389,205.61159 119.16277,205.45588 120.34358,204.82804 z M 217.37419,203.95869 C 218.40025,203.52997 218.71727,203.13787 221.45227,198.91471 C 223.56612,195.6507 224.05371,194.85529 225.2295,192.75288 C 227.25881,189.12432 229.86536,183.7572 232.29693,178.20045 C 234.18722,173.88061 236.3253,169.76852 238.35012,166.5585 C 238.98785,165.54749 240.34849,163.34165 241.37377,161.65663 C 242.39906,159.97162 243.64969,158.04008 244.15297,157.36433 C 244.65624,156.68858 245.3481,155.48226 245.69044,154.68362 C 246.03278,153.88498 246.45332,153.23154 246.62497,153.23154 C 246.79662,153.23154 247.30259,152.50775 247.74935,151.62312 C 248.19612,150.73847 248.92821,149.46323 249.37623,148.78921 C 249.82424,148.11521 250.36192,147.21909 250.57106,146.79783 C 250.78021,146.37658 251.49803,145.01161 252.16621,143.76458 C 252.8344,142.51755 253.38109,141.35114 253.38109,141.17257 C 253.38109,140.994 253.78529,140.01526 254.2793,138.99758 C 254.77332,137.97991 255.34049,136.52687 255.5397,135.76862 C 255.73889,135.01037 256.01441,134.11424 256.15197,133.77724 C 257.01276,131.66833 257.87364,127.3274 258.12657,123.82031 C 258.31903,121.15179 257.66767,114.55085 257.10714,113.48931 C 256.94885,113.18955 256.6043,112.09921 256.34147,111.06634 C 255.43245,107.4941 250.95098,101.95994 247.57089,100.23555 C 246.91383,99.900329 246.28029,99.470849 246.16303,99.281119 C 246.04578,99.091399 245.17477,98.602239 244.22745,98.194099 C 243.28014,97.785959 242.22933,97.330589 241.89233,97.182169 C 241.17121,96.864579 239.42538,96.400889 236.14883,95.656719 C 233.33165,95.016879 223.49822,94.795269 221.05937,95.316669 C 220.21687,95.496769 218.42462,95.771679 217.0766,95.927549 C 215.72859,96.083429 213.72954,96.413199 212.63428,96.660389 C 211.53902,96.907579 209.33318,97.397309 207.73241,97.748669 C 206.13165,98.100029 203.9258,98.662669 202.83054,98.998969 C 201.73528,99.335269 200.01196,99.829119 199.00095,100.09643 C 197.98994,100.36374 196.1977,100.85294 195.01818,101.18354 C 193.23547,101.68322 191.70154,101.80003 185.92723,101.87583 C 180.32559,101.94937 178.84287,102.05761 178.26807,102.43497 C 177.33395,103.04823 176.81884,105.33067 176.76059,109.1147 C 176.71588,112.01797 175.83412,120.89978 175.33105,123.51394 C 175.18513,124.2722 174.2817,126.85486 173.32343,129.25319 C 172.36515,131.65151 171.5811,133.77118 171.5811,133.96356 C 171.5811,134.15595 171.24465,135.08885 170.83342,136.03668 C 168.31377,141.8442 165.04796,150.79397 163.3851,156.44839 C 162.06121,160.95019 161.16065,164.17881 160.69326,166.09895 C 160.23517,167.98087 160.0955,168.88063 159.33789,174.83041 C 158.91569,178.14607 158.90927,186.23846 159.32618,189.57475 C 160.08975,195.68506 160.6391,197.46083 162.32118,199.25612 C 163.19075,200.18421 167.24812,202.25025 168.20116,202.25025 C 168.53679,202.25025 169.33119,202.45424 169.96648,202.70356 C 174.86824,204.62721 179.4612,203.95986 183.45482,200.74374 C 184.16986,200.1679 184.75489,199.50872 184.75489,199.27888 C 184.75489,199.04903 184.96194,198.78153 185.215,198.68442 C 185.90855,198.41828 187.50758,195.89627 188.29589,193.82516 C 188.68072,192.81415 189.30232,191.30121 189.67724,190.46305 C 190.05216,189.62491 190.94568,187.2812 191.66285,185.25482 C 193.39885,180.34964 195.1932,176.03928 196.75665,173.01855 C 197.46184,171.65604 198.24101,170.12768 198.48814,169.62218 C 198.73526,169.11667 199.11318,168.49627 199.32795,168.24352 C 199.54273,167.99077 200.00887,167.02571 200.36384,166.09895 C 200.71881,165.17219 201.1261,164.1382 201.26893,163.8012 C 201.83268,162.4711 202.52417,159.7137 202.52417,158.79581 C 202.52417,157.95097 202.41984,157.82704 201.70858,157.82704 C 200.82665,157.82704 198.88361,158.86786 196.80844,160.45187 C 194.8515,161.94564 193.67615,162.24845 192.17167,161.64648 C 190.35702,160.9204 190.13567,160.13464 190.74733,156.59027 C 191.02214,154.99781 191.3708,153.46353 191.52213,153.18077 C 191.67346,152.89801 191.99733,151.86317 192.24184,150.88112 C 192.48636,149.89907 193.1182,147.92373 193.64595,146.49147 C 194.94115,142.9764 196.00204,139.30329 196.24532,137.49177 C 196.46758,135.83673 197.47545,134.54315 198.54269,134.54315 C 199.33271,134.54315 200.60511,135.18495 202.91379,136.74794 C 204.82523,138.04199 207.0065,138.94128 207.64218,138.69734 C 207.90753,138.59552 208.03878,137.91859 208.03878,136.65182 C 208.03878,134.98058 207.87339,134.45507 206.6288,132.17185 C 205.56668,130.22337 205.20766,129.22597 205.17355,128.12916 C 205.1171,126.31289 205.46383,125.8847 207.96967,124.67616 C 209.84621,123.77111 210.14092,123.72168 213.81757,123.6951 C 217.36951,123.66943 218.14488,123.77564 223.20395,124.98077 C 226.23698,125.70329 229.14193,126.42708 229.6594,126.5892 C 230.17687,126.75133 231.07299,126.88609 231.65079,126.88867 C 233.42634,126.89659 234.19983,127.90466 233.79787,129.68688 C 233.44019,131.27277 233.20461,131.59573 230.13954,134.70212 C 228.59974,136.26269 227.3399,137.76145 227.3399,138.03271 C 227.3399,138.8681 228.70039,138.60118 230.29352,137.45324 C 233.05145,135.46599 234.60689,135.26964 235.72075,136.7681 L 236.34984,137.6144 L 234.99898,141.66998 C 234.25601,143.90054 233.47385,146.00499 233.26085,146.34653 C 233.04786,146.68807 232.53388,148.00819 232.11868,149.28012 C 231.70348,150.55206 231.15799,152.06486 230.90648,152.64191 C 230.23323,154.18659 228.11124,159.78378 227.2048,162.40587 C 226.7711,163.66046 226.24495,164.79922 226.03556,164.93645 C 224.98116,165.6275 222.72163,164.1853 221.69484,162.16588 C 220.96205,160.72468 219.77784,159.62547 218.532,159.23005 C 217.92194,159.03643 217.73713,159.26796 216.67104,161.56132 C 216.02004,162.96175 215.06421,165.00369 214.54696,166.09895 C 214.02972,167.19421 213.33421,168.71073 213.00138,169.46898 C 212.66856,170.22725 211.96146,171.79089 211.43006,172.94376 C 210.89868,174.09662 209.49308,177.54325 208.30654,180.60293 C 207.11999,183.66262 205.96133,186.64851 205.73175,187.23827 C 205.50215,187.82803 205.22207,188.79309 205.10934,189.38284 C 204.99659,189.9726 204.76139,190.63245 204.58664,190.84918 C 204.06153,191.50048 203.93236,195.70562 204.37907,197.60658 C 205.12582,200.78427 206.21999,202.29749 208.30607,203.03757 C 209.08582,203.3142 209.99953,203.65671 210.33653,203.79871 C 211.9765,204.48968 215.89039,204.57866 217.37419,203.95869 z M 149.04002,127.2112 C 152.22308,126.76591 154.40816,125.78802 157.21213,123.55392 C 158.50922,122.52045 159.93916,119.3147 159.93916,117.44023 C 159.93916,115.16153 157.86241,110.56544 156.63264,110.12248 C 156.34495,110.01887 155.76491,109.70587 155.34366,109.42693 C 153.51512,108.21616 148.63702,107.27649 144.18005,107.27649 C 141.48081,107.27649 140.10022,107.43959 137.9912,108.00762 C 130.77899,109.95013 127.53404,112.58441 126.99003,116.93842 C 126.6666,119.52717 127.30742,120.85973 129.89061,122.97007 C 134.69176,126.89237 141.12857,128.31796 149.04002,127.2112 z M 145.6408,37.138339 C 146.56741,36.786039 147.36246,35.273729 147.58403,33.442049 C 147.79695,31.681759 147.10017,30.962769 144.98431,30.759469 C 142.5937,30.529769 140.52147,31.842079 139.87876,33.992749 C 139.72662,34.501829 139.89044,34.987709 140.4707,35.748469 C 141.56695,37.185739 143.88038,37.807639 145.6408,37.138339 z "
     id="path2427" />
</svg>
