<svg xmlns="http://www.w3.org/2000/svg" version="1.1" viewBox="250 350 400 200">
<defs>
   <linearGradient id="colour1">
     <stop stop-color="red" offset="0"/>
   </linearGradient>
</defs>
<g fill="url(#colour1)" stroke="none">
<path d="M342,417l-0.96,2.58c-1.3-1.76-4.74-4.3-7.57-4.67-1.22-0.159-3.88,0.162-3.44,2.77,0.253,1.08,1.48,2.34,5.55,2.87l-1.31,1.12-4.48-0.295c0.007-0.174-0.018-1.01-0.863-2.17-0.545-0.747-1.32-1.48-2.3-2.16-1.23-0.856-2.79-1.64-4.63-2.35l-0.015-0.006-0.014,0.008c-0.065,0.04-6.67,3.85-12.7-0.989l-0.011-0.009-0.018,0.004c-0.029,0.009-2.94,0.747-5.89,2.76-1.74,1.18-3.15,2.56-4.21,4.1-1.29,1.89-2.04,4.03-2.22,6.36-0.832-2.45-34.7-19.7-35.7-20.8,0.933-0.729,23.2-17.8,50.5-10.4l0.023,0.006,0.015-0.021c0.006-0.008,0.127-0.212,0.004-0.537-0.184-0.486-0.921-1.22-3.33-1.96,1.21-0.011,7.53,0.183,10.7,4.98l0.007,0.008,0.007,0.004,7.9,3.34-0.861,0.574-0.043,0.029,0.043,0.028c0.119,0.071,11.8,7.4,12.8,8.56l0.005,0.006,0.006,0.001,1.74,0.813c-0.055,0.157-0.323,0.973-0.332,1.97-2-1-2,1,0,2zm-18-14c-0.078,0.521-0.547,0.9-1.08,0.86-0.559-0.043-0.978-0.531-0.935-1.09,0.021-0.264,0.141-0.494,0.317-0.661-2.99-1.47-4.56-1.69-4.56-1.69,3.62,2.4,5.17,4.41,5.17,4.41l0.979-0.668,9.16,5.11c-2-2-5-4-8-5zm15,12s-2.78-2.47-0.621-3.34c1-1-5-2,1,3zm-22-18c-1.64-2.61-4.45-3.04-4.45-3.04s3.88,1.66-0.031,1.58c1,0,2,1,4,1z" />
</g>
</svg>
