<?xml version="1.0" encoding="utf-8"?>
<!DOCTYPE svg PUBLIC "-//W3C//DTD SVG 1.0//EN" "http://www.w3.org/TR/2001/REC-SVG-20010904/DTD/svg10.dtd">
<svg version="1.0" id="Layer_1" xmlns="http://www.w3.org/2000/svg" xmlns:xlink="http://www.w3.org/1999/xlink" 
	 width="200px" height="200px" viewBox="200 300 200 200" xml:space="preserve">
<defs>
   <linearGradient id="colour1">
     <stop offset="100%" stop-color="#9B9999"/>
   </linearGradient>
 </defs>
			<path display="inline" fill-rule="evenodd" clip-rule="evenodd" fill="url(#colour1)" d="M252.251,441.021c0,0,5.527-6.377,8.503-8.929
				l-1.063-20.408l4.039-2.55l-0.425,21.684l2.126-1.915l-0.638-20.407l3.615-2.764l-0.425,21.046l1.913-1.913l-0.638-19.559
				c0,0,1.701-1.7,4.039-2.551l-0.638,19.559l2.126-1.275l-0.638-18.92c0,0,2.764-1.701,3.827-2.127l-0.425,18.92l1.488-1.063
				l-0.497-18.141l3.897-1.559l-0.779,18.141l2.338-1.771l-1.205-16.582l3.402-0.992l-0.354,16.652l2.055-1.134l-0.921-15.802
				l3.047-0.921l0.071,15.376l2.125-1.134l-1.7-14.313l3.755-0.851l-0.284,14.315l1.984-0.568l-1.204-13.959l2.763-0.426
				l0.212,13.747l1.984-1.133l-1.559-12.827l3.118-0.282l0.07,12.472l2.268-1.063l-1.771-11.479l2.977-0.779l0.212,11.551
				l1.913-0.638l-1.346-10.984l2.622-0.637l0.07,11.054l1.984-0.991l-1.488-10.134l3.189-0.496l-0.072,9.92l2.056-1.134
				l-1.488-9.071l3.401-0.565l-0.354,8.786l1.771-0.779l-0.639-8.361l2.552-0.567l-0.142,8.247l1.204-0.212l-0.212-8.39l2.409-0.922
				l-0.283,7.726l1.134-0.639v-7.37l2.621-0.991l-0.566,6.803l1.559-1.133l-0.283-6.166l2.339-1.205l-0.284,6.094l0.992-0.92
				l-0.213-5.245l2.268-1.559l-0.141,5.67l1.063-1.701l-0.07-4.252l1.842-1.134v3.756l1.135-0.78l-0.426-3.542l1.842-1.275
				l0.213,2.551l0.496-0.071l0.354-3.613l1.134-0.779v1.771l1.771-2.976l-0.07,2.339l-2.268,2.479l1.699-0.213l-0.283,1.276
				l-3.613,1.842l2.764,0.07l-0.496,1.914l-4.961,0.851l-0.07,0.354l4.252,0.141l-0.851,2.552l-4.96-0.071l-0.496,0.212l4.96,1.063
				l-1.276,2.126l-5.881-0.92l-1.347,0.282l6.236,2.196l-1.347,1.843l-7.439-2.196l-0.639,0.284l7.369,3.188l-1.416,1.843
				l-8.504-3.33l-0.779,0.354l8.291,3.756l-0.992,1.63l-9.426-3.613l-0.92,0.283l8.928,4.038l-1.134,1.631l-10.134-4.322
				l-0.779,0.07l9.496,5.387l-1.347,1.132l-10.912-4.96l-0.78,0.143l10.347,6.023l-1.843,0.992l-10.559-5.245l-0.779-0.07
				l10.063,6.023l-0.992,0.921l-11.409-5.386l-0.638,0.071l10.347,6.307l-1.276,0.922l-12.33-5.741l-0.566,0.071l11.763,6.449
				l-1.56,0.991l-13.676-5.881l-0.567,0.142l12.331,7.016l-1.559,1.063l-14.173-6.306l-0.851,0.069l13.109,7.158l-1.984,0.92
				l-14.456-6.307l-0.921,0.213l13.958,7.158l-2.621,1.274l-13.463-6.022l-1.417,0.142l13.252,7.298l-2.552,1.206l-14.314-5.882
				l-1.063-0.071l13.109,7.085l-2.764,1.915l-14.243-5.882l-0.85,0.283l13.605,7.581l-2.126,1.631l-15.448-5.881l-0.567,0.212
				l13.818,7.865l-1.843,1.843l-15.73-5.385l-0.851,0.07l14.384,7.582l-2.055,2.552l-17.574-6.449c0,0-9.212,10.629-9.992,12.331
				L252.251,441.021L252.251,441.021z"/>
</svg>
