<?xml version="1.0" encoding="utf-8"?>
<!DOCTYPE svg PUBLIC "-//W3C//DTD SVG 1.1//EN" "http://www.w3.org/Graphics/SVG/1.1/DTD/svg11.dtd">
<svg version="1.1" id="fleur de lis" xmlns="http://www.w3.org/2000/svg" xmlns:xlink="http://www.w3.org/1999/xlink" viewBox="0 0 303.386 226.468" xml:space="preserve">
<g>
	<defs>
   <linearGradient id="colour1">
     <stop offset="100%" stop-color="#9B9999"/>
   </linearGradient>
 </defs>
	<path fill="url(#colour1)" d="M171.866,176.681c0,0-7.28-8.059-4.94-23.14s29.381-13.39,18.98,13.261
		c10.789,0.521,29.25-25.479,4.81-40.041c0,0-28.47-3.121-28.989,28.341c0,0,0.26,18.979,6.24,28.34L171.866,176.681z"/>
	<path fill="url(#colour1)" d="M143.109,176.681c0,0,7.281-8.059,4.94-23.14c-2.34-15.081-29.379-13.39-18.98,13.261
		c-10.79,0.521-29.25-25.479-4.81-40.041c0,0,28.469-3.121,28.99,28.341c0,0-0.26,18.979-6.24,28.34L143.109,176.681z"/>
	<path fill="url(#colour1)" d="M157.956,94.523c0,0,11.961,13.259,12.61,24.05c0,0-11.57,25.479-9.49,26.649l-0.52,20.409
		c0,0,3.77,16.771,4.42,17.941c0.65,1.169,0.13,5.198,0.13,5.198s-4.55,8.451-7.541,7.931c0,0-2.729,0.779-7.929-9.491
		c0,0,0-4.679,1.3-4.679c0,0,3.51-10.011,4.29-17.161l-0.52-20.019c0,0-5.2-18.2-9.75-27.561c0,0,5.33-21.061,12.739-23.66"/>
	<rect fill="url(#colour1)" x="146.516" y="154.972" width="22.621" height="4.289"/>
	<rect fill="url(#colour1)" x="146.516" y="159.522" width="22.621" height="4.289"/>
</g>	
</svg>