<?xml version="1.0" encoding="utf-8"?>
<!DOCTYPE svg PUBLIC "-//W3C//DTD SVG 1.1//EN" "http://www.w3.org/Graphics/SVG/1.1/DTD/svg11.dtd">
<svg version="1.1" id="Layer_1" xmlns="http://www.w3.org/2000/svg" xmlns:xlink="http://www.w3.org/1999/xlink" x="0px" y="0px"
	 width="451px" height="573px" viewBox="0 0 451 573" enable-background="new 0 0 451 573" xml:space="preserve">
<defs>
   <linearGradient id="colour1">
     <stop stop-color="red" offset="0"/>
   </linearGradient>
</defs>
<g fill="url(#colour1)" stroke="none">
	<path d="M191.49,58.54c19.39-7.101,39.1-13.36,58.66-19.98c10.35-1.17,20.58,1.71,30.91,2.05
		c4.84,0.82,9.779,0.771,14.62,1.681c0.05,5.77-0.261,11.52-0.511,17.27c-3.47,0.4-6.739-1.02-10.13-1.41
		c0.391,1.69,0.76,3.431,1.74,4.9c4.85,7.88,8.51,16.43,11.979,24.979c6.601,16.171,11.131,33.311,12.131,50.78
		c-0.101,1.57,1.47,4.47-0.851,4.88c-2.859-1.33-5.479-3.1-8.24-4.609c-0.199,2.609-1.17,5.17-1.01,7.79
		c2.71,4.949,6.08,9.52,8.931,14.39c-2.2,6.99-4.11,14.08-6.631,20.96c-2.939-4.96-5.199-10.29-7.989-15.34
		c-2.73,0.97-4.12,4.13-3.511,6.88c1.49,6.49,3.4,12.9,4.87,19.4c0.4,1.229-0.1,2.439-1.029,3.279
		c-3.73,3.96-7.101,8.25-10.841,12.2c-0.399-0.09-1.21-0.28-1.609-0.37c-0.88-5.189-2.74-10.13-3.88-15.26
		c-2.011,1.25-3.87,2.71-5.62,4.31c0.22,6.25-0.4,12.561,0.71,18.761c0.52,2.699-2.28,4.31-3.74,6.13
		c2.3,4.609,5.5,8.67,8.271,13.01c10.02,14.37,19.659,29.01,29.39,43.59c13.11,18.95,25.649,38.29,38.82,57.19
		c5.579,8.31,10.71,17.079,18.05,24.01c6.029,6.399,13.31,12.21,22.06,14.189c6.28,1.29,11.94-3.05,15.479-7.81
		c5.211-7.63,6.171-17.5,4-26.33c-2.439-12.42-8.56-23.7-14.839-34.55c-14.98-27.35-30.261-54.53-45.24-81.86
		c-1.72-3.22-4.03-6.26-4.67-9.92c-0.58-5.87,0-11.8-0.66-17.67c-1.29-7.45-0.021-15.08-1.37-22.53
		c-0.56-6.27,0.12-12.619-1.05-18.85c-0.101-7.72-0.641-15.479-0.181-23.18c8.75-11.16,19.54-21.011,32.131-27.69
		c13.739-6.83,28.55-12.09,43.899-13.5c0.06,6.75-0.01,13.521-1.03,20.2c-8.29,3.3-17.079,5.34-25.13,9.17
		c0.23,1.75,0.561,3.48,1.12,5.16c7.54-2.57,15.33-4.33,22.97-6.57c0.86,10-1.17,19.891-1.29,29.88
		c-10.739,2.801-21.31,6.42-31.05,11.82c-9.37,4.63-17.83,12.31-21.21,22.43c-2.979,11.57,2.761,22.62,7.9,32.61
		c11.34,25.05,22.84,50.01,33.87,75.19c8.659,18.77,18.05,37.85,19.93,58.739c0.06,5.64,0.45,11.34-0.351,16.95
		c-1.569,6.04-3.859,12.39-8.88,16.43c-6.59,5.141-15.05,7.851-23.39,7.38c-6.74,0.391-13.189-2.04-19.229-4.739
		c-11.21-5.29-20.63-13.69-28.66-23c-3.69-4.25-6.07-9.521-10.15-13.421c-0.56-0.09-1.689-0.289-2.26-0.38
		c-2.3,12.311-5.1,24.521-7.37,36.841c-1.74,8.369-0.16,17.279,3.83,24.789c3.58,6.44,10.36,10.181,17.19,12.29
		c14.189,4.431,28.529,10.03,43.649,9.4c9.931,0.34,19.76-1.44,29.49-3.21c0.6,4.42-0.61,8.77-1.58,13.04
		c-3.98,16.87-10.811,33.37-21.65,47.03c-5.529,6.81-12.439,12.43-20.02,16.81c-12.44,7.46-25.94,13.49-40.25,16.21
		c-2.83,0.24-5.65,0.601-8.34,1.55c4.17,5.57,10.87,10.96,9.75,18.71c-1.57,4.021-5.73,6.19-8.28,9.521
		c-1.62,1.76-2.86,4.39-5.52,4.62c-2.03-2.91-4.25-5.681-6.37-8.521c-10.13,1.03-20.12,3.181-30.23,4.49
		c-1.3,0.16-2.83,0.58-3.47,1.87c-3.03,5.25-5.75,10.7-8.08,16.3c-1.17-0.28-2.45-0.27-3.46-0.97c-4.3-2.74-8.36-5.851-12.53-8.771
		c1.761-4.899,3.57-10.729-0.26-15.18c-4.97,1.39-8.39,5.87-13.47,6.96c-1.67-6.77-3.62-13.53-4.431-20.46
		c4.381-2.29,8.971-4.12,13.5-6.06c1.03-0.351,1.69-1.221,2.181-2.131c-3.83-1.609-7.771-2.93-11.69-4.289
		c0.58-1.561,1.37-3.04,2.42-4.341c3.851-4.979,7.21-10.319,11.12-15.26c10.87,7.43,23.7,13.51,37.21,11.9
		c9.16-1.41,18.181-3.83,26.87-7.08c7.07-2.681,14.01-6.771,18.16-13.3c4.9-7.66,5.88-17.07,5.5-25.96
		c-0.15-8.591-5.04-16.98-12.79-20.851c-6.47-3.03-13.72-4.06-20.81-3.55c-9.62,1.74-18.74,7.11-24.2,15.34
		c-1.891,2.57-2.96,5.58-4.36,8.42c-4.75,0.851-9.39,2.44-14.27,2.42c0.59-5.93,2.159-11.72,3.619-17.479
		c-1.439,0.09-2.89,0.189-4.329,0.29c-2.65,6.38-3.851,13.239-6.131,19.76c-5.04,1.04-10.01,2.41-15.05,3.45
		c0.04-2.71,0.62-5.351,1.32-7.94c2.18-9.68,4.37-19.359,6.689-29c0.25-1.59,0.421-3.18,0.511-4.78
		c-30.16,8.9-60.36,17.7-90.45,26.851c-1.48,0.38-3.15,1.09-4.54,0.09c-8.71-4.41-16.78-9.99-25.66-14.06
		c3.8,7.68,7.36,15.859,7.66,24.54c-5.54,2.75-10.85,5.949-16.22,9.02c-1.5,0.95-3.271,1.2-4.99,1.46c-0.61-3.8,4.8-5.21,3.9-8.87
		c-0.631-1.79-2.261-2.93-3.811-3.87c-7.06-4.26-14.39-8.05-21.47-12.27c-0.9-0.61-2.36-0.97-3.13,0.06
		c-5.5,5.54-11.11,10.95-16.69,16.41c-0.87,0.86-2.04,1.271-3.12,1.78c-2.92-5.38-5.029-11.13-7.55-16.69
		c-0.45-1.37-1.38-2.689-1.24-4.18c2.57-4.18,7.351-6.9,8.59-11.89c-6.67-0.391-13.06,2.18-19.699,2.04
		c2.81-6.45,6.409-12.521,9.31-18.931c2.98-5.58,10.44-1.21,14.96-4.229c-2.17-2.83-4.7-5.33-7.43-7.601
		c5.22-4.489,11.689-7.189,17.52-10.8c1.311-0.5,2.99-2.34,4.29-0.899c4.891,4.8,9.01,10.319,13.91,15.109
		c5.67,4.93,12.96,7.561,20.2,9.21c9.14,2.16,18.6,1.16,27.899,1.29c9.11,0.101,18.811-4.09,23.431-12.25
		c4.67-7.2,4.62-16.1,4.1-24.35c-0.53-8.26-5.439-16.351-13.229-19.62c-7.471-3.87-16.061-2.94-24.17-2.87
		c-2.08,0.09-2.721-2.39-3.91-3.67c-1.83-2.93-4.36-5.63-5.021-9.13c5.03-0.7,10.061-1.561,15.16-1.181
		c0.11-1.039,0.21-2.079,0.33-3.109c-6.25-0.08-12.5-0.04-18.75-0.03c-3.28-4.11-5.91-8.67-8.41-13.28
		c14.07-1.819,28.22-2.949,42.28-4.92c5.37-4.029,9.89-9.06,15.04-13.359c4.31-3.62,7.92-8.07,12.6-11.23
		c2.891-0.51,5.78,0.351,8.63,0.74c17.021,2.65,34.08,4.95,51.101,7.6c7.56,1.13,15.229,1.74,22.67,3.601
		c-4.41,10.27-9.94,20.01-14.59,30.17c-4.48,0.28-8.8-1.271-13.28-1.21c-12.26-0.561-25.06,3.859-33.52,12.939
		c-13.921,15.99-11.36,43.681,5.72,56.44c7.3,4.41,15.46,7.12,23.06,10.96c2.971,1.41,5.84,3.09,9,4.06
		c2.101-8.81,4.25-17.63,6.561-26.359c11.81-25.87,23.64-51.74,35.58-77.55c0.51-1.44,1.859-3.23,0.64-4.671
		c-3.88-5.5-8.48-10.439-12.521-15.819c-6.64-7.61-12.029-16.3-19.319-23.34c-11.46,4.54-22.49,10.1-33.96,14.62
		c-11.471-7.16-22.53-14.95-34.03-22.061c-1.43-1.01-3.02-2.01-3.86-3.59c0.141-2.82,1.021-5.54,1.33-8.34
		c-6.81,2.16-12.62,7.47-14.84,14.33c-1.13,6.899-0.66,14.24,3.061,20.34c-3.69,0.16-7.28-0.87-10.95-1
		c-1.891-0.2-3.91-0.04-5.67-0.89c-1.601-2.12-2-5.061-4.15-6.79c-3.83-3.44-9.13-4.181-14.06-4.551
		c-4.311-1.02-8.78-0.56-13.12-1.39c-8.83-0.67-18.061-0.84-26.38,2.61c-2.71,1.54-6.061,3.17-6.641,6.58
		c4.87,5.029,9.82,10.83,10.63,18.039c0.46,6.261-4.59,10.87-9.399,13.96c-2.59,1.9-5.49,3.391-8.66,4.021
		c-0.02-2.05-0.03-4.1,0-6.14c-1.65-1.311-3.1-3.131-5.29-3.48c-6.42-1.51-12.9-3.14-19.54-3.189
		c-4.07,5.55-8.05,11.159-12.11,16.72c-2.989-0.311-4.52-3.16-6.489-5.061c-2.261-2.569-5.09-4.76-6.641-7.85
		c1.771-5.55,6.891-9.73,7.54-15.72c-6.33-0.61-12.439,1.13-18.33,3.22c-0.25-6.66-0.27-13.34,0.091-19.99
		c3.609-2.699,8.279-3.59,11.739-6.55c0.08-0.569,0.25-1.71,0.34-2.28c-2.199-0.34-4.35-0.88-6.489-1.439
		c0.25-1.5-0.021-3.48,1.66-4.21c5.3-3.59,10.64-7.11,16-10.601c3.25,4.561,6.77,9.2,11.93,11.721c4.31,2.029,9.03,4.06,13.91,3.29
		c6.25-3.44,11.91-7.82,17.819-11.8c14.03-9.29,27.891-18.82,41.91-28.11c5.66-4.17,11.86-7.61,17.181-12.23
		c-6.87,1.07-13.69,2.471-20.58,3.391c0.21-1.65,0.17-3.37,0.76-4.95c6.92-17.521,13.6-35.13,20.39-52.7
		c0.98-2.979,3.44-5.05,5.88-6.84c8.58-6.31,16.19-13.81,24.53-20.42c11.59-10.09,23.42-19.89,34.96-30.03
		c1.53-1.08,2.2-2.83,2.6-4.59c-9.789-0.24-19.039,3.71-28.72,4.43c-0.27-4.67-0.319-9.35-0.08-14.02
		c7.11-1.61,14.23-3.17,21.37-4.63c4.48-0.811,8.69-3.471,11.21-7.29c2.37-6.86-1.29-15.38-8.189-18.03
		c-2.9-0.56-5.98-0.06-8.45,1.58c-5.76,3.34-8.94,9.39-12.811,14.54c-5.319-0.521-9.88-3.98-14.39-6.63
		C188.2,72.35,189.04,65.23,191.49,58.54 M239.28,56c-1.63,1.489-2.8,3.39-4.26,5.029c1.45,1.86,2.56,4.131,4.55,5.48
		c3.64,2.63,9.61-1.08,8.95-5.47C248.47,56.52,243.04,53.79,239.28,56z"/>
	<path d="M65.15,60.2c4.03-1.271,8.02-2.99,12.32-3c2.449,4.529,5.539,9.359,10.59,11.22
		c1.819,0.06,3.939,0.55,5.399-0.84c2.7-1.91,3.34-5.391,4.511-8.28c2.81,4.06,5.63,8.12,8.489,12.14c1.66,1.99,1.32,4.71,0.78,7.05
		c-2.29,8.9-4.13,17.91-6.46,26.811c-0.85,2.47,1.43,4.39,2.77,6.16c16.521,18.49,32.921,37.1,49.96,55.109
		c0.73,2.21-1.13,4.141-2.079,5.971c-8.381,12.989-16.46,26.16-25.051,39c-0.479,0.02-1.439,0.04-1.92,0.05
		c-3.7-3.92-7.66-7.57-11.239-11.59c1.949-3.11,4.22-6.38,4.25-10.19c0.649-8.91-2.561-17.399-4.66-25.899
		c-3.23-10.28-6.98-21.301-15.75-28.221c-3.931-3.189-9.221-2.34-13.891-2.16c-7.55,1.391-12.42,8.141-15.029,14.881
		c-0.271,0.04-0.79,0.119-1.061,0.159c-3.51-4.1-6.41-8.689-9.57-13.06c-0.979-1.09-1.029-2.58-1.25-3.95
		c2.891-2.46,5.311-5.399,7.521-8.47c-0.95-8.26-2.99-16.351-4.48-24.521c-6.04-0.609-12.05-1.31-18.14-1.239
		c0.83-5.11,4.59-9,6.85-13.5c1.101-1.44,1.62-3.7,3.351-4.44c3.95-0.17,7.91,0.23,11.87,0.311c0.85-1.61,3.5-3.49,1.77-5.381
		C61.68,70.55,57.72,67.4,54.27,63.75C57.73,62.1,61.51,61.34,65.15,60.2z"/>
	<path d="M191.32,92.57c4.14-1.689,8.71-1.279,13.06-1.02c-12.909,5.81-24.949,14.61-39.42,16.02
		c-3.859,0.601-9.109-1.76-8.46-6.33c3.561,1.631,7.65,2.04,11.45,1.051C175.81,99.22,183.5,95.73,191.32,92.57z"/>
</g>
</svg>
