<?xml version="1.0" encoding="utf-8"?>
<svg version="1.1" id="Layer_1" xmlns="http://www.w3.org/2000/svg" xmlns:xlink="http://www.w3.org/1999/xlink" x="0px" y="0px"
	 width="303.386px" height="226.468px" viewBox="0 0 303.386 226.468" enable-background="new 0 0 303.386 226.468"
	 xml:space="preserve">
	 <defs>
   <linearGradient id="colour0"> 
     <stop offset="100%" stop-color="blue"/> 
   </linearGradient> 
   <linearGradient id="colour1"> 
     <stop offset="100%" stop-color="white"/> 
   </linearGradient> 
</defs>	 
<rect x="109.638" y="107.17" fill-rule="evenodd" clip-rule="evenodd" fill="url(#colour0)" width="91.765" height="65.882" />
<g id="Godolphin_Logo">
	<path fill="url(#colour1)" d="M141.756,142.179l0.953-0.953c0,0-2.166-1.733-4.854,2.253c0,0-0.303,3.38,1.972,3.705
		c2.275,0.324,3.641-2.016,3.641-2.016s0.325-1.494-1.171-1.755l-0.715,0.716c0,0,1.561,1.17,0.326,2.209
		c-1.236,1.041-2.99-2.014-2.861-3.313C139.178,141.725,141.344,140.879,141.756,142.179z"/>
	<path fill="url(#colour1)" d="M154.063,143.111c0,0,1.234-0.846,1.625-0.716c0.39,0.13,1.495,1.104,0.975,2.796
		c-0.52,1.689-2.08,1.754-2.08,1.754s-1.625,0.261-1.625-2.471l1.236-0.649c0,0-0.716,2.536,1.364,2.211
		C156.598,144.28,155.037,143.241,154.063,143.111z"/>
	<path fill="url(#colour1)" d="M160.762,149.332l-0.131-5.786l-0.52-0.194l1.494-0.845l0.195,1.039c0,0,3.25-2.988,2.73,1.69
		c0,0-0.845,0.909-2.015,1.301c0,0,1.3-0.586,0.845-2.146s-1.365-0.584-1.365-0.584l-0.26,4.809L160.762,149.332z"/>
	<polygon fill="url(#colour1)" points="157.746,140.64 159.306,139.795 159.241,146.23 158.266,146.945 158.266,140.836 	"/>
	<path fill="url(#colour1)" d="M172.827,143.287c0,0,1.3-0.976,1.56-0.586l0.26,1.819c0,0,2.08-1.688,2.471-2.014
		c0.39-0.324,0.846,3.575,0.715,3.834l-0.975,0.586c0,0,0.064-2.99-0.78-2.926c-0.845,0.065-2.536,2.86-2.536,2.86l-0.129-3.25
		L172.827,143.287z"/>
	<path fill="url(#colour1)" d="M147.822,142.005l1.105-0.976l0.13,0.52c0,0,3.966,1.562,3.315,3.056s-1.105,2.406-3.186,2.015
		c-2.08-0.39-0.324-2.858,0-2.795c0.325,0.065-0.455,2.211,1.689,2.08c2.146-0.13-0.844-2.989-0.129-2.405L147.822,142.005z"/>
	<path fill="url(#colour1)" d="M164.698,140.513c0,0,1.3-0.649,1.95-0.649l-0.064,4.656c0,0,1.516-1.688,2.426-2.036
		c0.91-0.346,0.693,3.771,0.693,3.771l-0.996,0.65c0,0,0.26-3.25-0.737-2.947c-0.997,0.304-2.384,2.644-2.384,2.644l-0.043-5.938
		L164.698,140.513z"/>
	<g>
		<g>
			<polyline fill="url(#colour1)" points="171.133,146.861 172.087,146.297 171.957,142.7 170.396,143.394 170.96,143.568 170.96,146.861"/>
			<path fill="url(#colour1)" d="M171.133,142.094c0,0,0.607,0.476,1.258-0.563C172.391,141.531,171.307,140.707,171.133,142.094z"/>
		</g>
		<g>
			<polyline fill="url(#colour1)" points="171.133,146.861 172.087,146.297 171.957,142.7 170.396,143.394 170.96,143.568 170.96,146.861"/>
			<path fill="url(#colour1)" d="M171.133,142.094c0,0,0.607,0.476,1.258-0.563C172.391,141.531,171.307,140.707,171.133,142.094z"/>
		</g>
	</g>
	<path fill="url(#colour1)" d="M145.136,143.284c0,0,1.235-0.846,1.625-0.716c0.39,0.131,1.495,1.105,0.976,2.795
		c-0.521,1.691-2.08,1.755-2.08,1.755s-1.625,0.262-1.625-2.47l1.234-0.649c0,0-0.715,2.535,1.365,2.21
		C147.672,144.455,146.111,143.414,145.136,143.284z"/>
	<path fill="url(#colour1)" d="M163.076,130.381c0,3.644-2.794,6.598-6.24,6.598s-6.24-2.954-6.24-6.598s2.794-6.598,6.24-6.598
		S163.076,126.738,163.076,130.381z M158.439,129.093c-1.777,1.818-2.34-0.175-2.34-0.175s0.346-2.08,1.344-2.773
		c0.996-0.693,0.736-2.079,0.736-2.079c-0.91-0.304-1.191-0.13-1.191-0.13l0.129,0.714c-3.51,4.355-1.689,5.461-1.689,5.461
		c-0.52,1.625,0.194,1.755,0.194,1.755s2.405,0.129,3.12,0.064s-0.064-0.844-0.064-0.844c-5.59-0.587,0.391-0.521,0.391-0.521
		C158.396,130.131,158.439,129.093,158.439,129.093z M157.801,132.807c-0.618-0.941-1.333,0-1.333,0
		C157.702,134.042,157.801,132.807,157.801,132.807z"/>
</g>
</svg>