<?xml version="1.0" encoding="utf-8"?>
<svg version="1.1" xmlns="http://www.w3.org/2000/svg" xmlns:xlink="http://www.w3.org/1999/xlink"
	  viewBox="0 0 160 114.118" xml:space="preserve">
<g id="malaysian airlines">
  	 <defs>
   <linearGradient id="colour0"> 
     <stop offset="100%" stop-color="red"/> 
   </linearGradient> 
   <linearGradient id="colour1"> 
     <stop offset="100%" stop-color="white"/> 
   </linearGradient> 
   <linearGradient id="colour2"> 
     <stop offset="100%" stop-color="#802986"/> 
   </linearGradient> 
   </defs>
	<path fill-rule="evenodd" clip-rule="evenodd" fill="url(#colour1)" d="M27.899,58.442c-0.141-2.666,4.21-2.104,8.56-2.946
		c7.999-1.403,14.313-15.155,20.628-20.909c9.542-8.56,23.294-16.839,36.626-16.979c10.244-0.14,39.291,0,39.291,0l0.703,1.825
		c0,0-29.33,0-31.014,0c-1.824,0-6.455,1.684-7.998,5.051c-1.684,3.368-8.561,21.751-9.824,25.4
		c-2.946,8.559,10.244,9.541,13.893,0.701c2.527-6.314,3.789-16.278,10.244-16.418c6.455-0.141,29.609,0,29.609,0l1.264,1.543
		c0,0-17.541,0-19.225,0c-1.545,0-4.49,3.228-5.053,4.912c-0.701,1.543-4.068,10.104-4.35,11.646c-0.281,1.684,0,4.49,3.227,4.49
		c3.229,0,22.453,0,22.453,0l-0.42,1.684H27.899L27.899,58.442z"/>
	<path fill-rule="evenodd" clip-rule="evenodd" fill="url(#colour2)" d="M27.758,58.583c0,2.807,5.192,0.842,8.701,2.947
		c4.771,3.087,1.263,15.576,4.07,21.049c5.472,10.805,11.366,15.717,28.206,15.857c10.244,0.141,35.223,0,35.223,0l1.965-1.684
		c0,0-29.19,0-31.014,0s-5.473-1.686-4.91-4.912c0.561-3.367,7.438-21.61,8.56-25.118c2.526-8.28,16.419-9.542,14.314-0.843
		c-1.404,6.175-8.279,16.699,0.141,16.699c6.455,0,28.064,0,28.064,0l2.246-1.543c0,0-15.576,0-17.26,0
		c-1.686,0-3.369-3.368-2.807-4.912c0.42-1.543,3.227-9.682,4.068-11.227c0.703-1.543,3.789-5.051,7.018-5.051
		c3.367,0,21.33,0,21.33,0l0.701-1.264H27.758L27.758,58.583z"/>
</g>
</svg>