<?xml version="1.0" encoding="utf-8"?>
<svg xmlns="http://www.w3.org/2000/svg" xml:space="preserve" version="1.1"  viewBox="0 0 792 612">
<defs>
   <linearGradient id="colour1">
     <stop stop-color="red" offset="0"/>
   </linearGradient>
</defs>
<g id="spicer" fill="url(#colour1)" stroke="none">
		<path d="M496,144c3.58-0.549,7.29,0.046,10.6,1.38,2.68,1.04,5.14,2.55,7.34,4.35,0.274,0.297,0.697,0.153,1.03,0.042,1.55-0.086,3.08-0.29,4.63-0.361,0.895-0.25,1.84-0.113,2.75-0.29,0.219-0.014,0.438-0.025,0.656-0.036-1.54,1.56-3.07,3.14-4.66,4.65-0.781,0.236-1.44-0.545-2.12-0.805-0.074,4.36,0,8.73-0.035,13.1,0.042,0.76-0.467,1.38-0.867,1.98-0.043,3.9,0.061,7.8-0.054,11.7-0.499,0.789,0.05,1.66,0.052,2.49,0.008,1.23-0.019,2.46,0.002,3.68-0.544,0.572-1.25,0.949-1.93,1.33-0.253,0.103-0.504,0.211-0.752,0.326-1.12,0.614-2.48,0.365-3.7,0.324-0.385-0.099-0.78-0.156-1.18-0.177-0.341-0.212-0.581-0.531-0.78-0.867-0.656-1.07-1.4-2.09-2.05-3.16-0.356-0.885,0.673-1.52,0.689-2.37-0.092-0.291-0.265-0.541-0.417-0.801-1.74-2.86-3.36-5.79-5.18-8.61,0.018-0.262,0.041-0.522,0.069-0.78-0.522-0.138-1.05-0.261-1.58-0.34-0.646-0.089-1.03-0.667-1.41-1.12-1.24-1.74-2.39-3.53-3.63-5.27-0.302-0.365-0.251-0.872-0.003-1.25,1.2-2.06,2.34-4.15,3.56-6.2,1.14-0.205,2.29-0.286,3.43-0.471-1.21-0.015-2.43-0.111-3.63,0.005-0.711,0.534-1.16,1.3-1.71,1.97-1.23,1.55-2.38,3.16-3.41,4.85-0.006,0.311-0.006,0.62,0.007,0.93,1.14,1.96,2.48,3.82,3.97,5.54,0.634,0.651,1.22,1.42,2.12,1.73,0.266,0.01,0.536,0.022,0.801,0.036,1.95,2.91,3.9,5.83,5.84,8.75,0.146,0.192,0.302,0.38,0.472,0.56,0.229,1.12-1.35,2.04-0.554,3.15,0.752,1.47,1.7,2.83,2.71,4.14,1.67,0.386,3.55,0.451,5.12-0.331,0.952,1.27,2.06,2.41,3.11,3.6,0.014,8.48,0.036,17-0.013,25.4-0.308,0.57-0.545,1.17-0.854,1.74-0.104,0.249-0.209,0.496-0.31,0.746-0.408,0.708-0.669,1.48-1.06,2.2-0.297,0.678-0.596,1.36-0.946,2.01-0.111,0.271-0.22,0.54-0.324,0.814-0.129,0.045-0.391,0.134-0.521,0.18-0.943-0.021-1.89,0.061-2.83-0.027l-0.183-0.204c-0.225,0.413-0.785,0.177-1.16,0.242-3.4-0.024-6.8-0.016-10.2-0.027-0.302-0.1-0.604-0.1-0.901-0.001-2.26,0.008-4.52,0.026-6.77,0.022-0.105-0.033-0.318-0.105-0.424-0.14-0.104,0.034-0.311,0.104-0.416,0.137-1.49,0.012-2.99-0.008-4.48,0.006-0.129-0.054-0.381-0.159-0.506-0.21-0.103-0.266-0.208-0.526-0.317-0.785-0.396-0.704-0.684-1.46-1.07-2.17-0.108-0.256-0.217-0.512-0.321-0.766-0.369-0.72-0.684-1.46-1.06-2.17-0.109-0.25-0.219-0.501-0.327-0.75-0.579-0.778-0.422-1.76-0.434-2.66-0.007-4.72,0-9.45-0.001-14.2-0.056-0.638,0.555-1.04,0.885-1.51,0.989-1.13,1.81-2.41,2.92-3.43-0.067-0.224-0.141-0.444-0.233-0.655-0.13-0.232-0.248-0.472-0.357-0.713-0.325-0.672-0.655-1.34-0.932-2.04-0.938-2.24-1.62-4.57-2.13-6.94-0.159-0.737-0.155-1.49-0.152-2.24,0.008-7.62-0.021-15.2,0.013-22.9,0.173-1.87,0.586-3.72,1.22-5.5,0.191-0.433,0.37-0.872,0.563-1.31,1.83-3.98,5.64-6.7,9.66-8.4,0.394-0.13,0.783-0.278,1.16-0.446-2-2-1-2,0-3m15,23c0.379,0.359,0.729,0.755,1.16,1.06,0.584-0.129,0.898-0.708,1.32-1.07-0.032-0.124-0.093-0.371-0.124-0.492-0.182-0.293-0.339-0.595-0.491-0.9-0.23-0.344-0.38-0.726-0.513-1.11,0,0-1,1-1,2m1,18c-0.006,0.189-0.012,0.571-0.017,0.759,0.183,0.242,0.368,0.484,0.551,0.727,0.569,0.059,1.29,0.216,1.68-0.327,0.494-0.421,0.272-1.12-0.003-1.59-0.122-0.084-0.366-0.246-0.488-0.327-2-1-3-1-3,0m-28,12c-0.08,0.338,0.102,0.722,0.354,0.957l0.104-0.021c-0.125,0.285-0.021,0.598,0.186,0.821,1.31,2.93,3.54,5.41,6.11,7.38,0.018,2.04-0.012,4.09,0.018,6.13,0.576-0.109,1.15-0.485,1.08-1.12-0.007-1.98,0.031-3.96-0.012-5.95-0.249-0.36-0.712-0.498-1.06-0.743-2.63-1.65-4.68-4.08-6.19-6.72l-0.064,0.098,0.033-0.113z" 
		 />
</g>                
</svg>
