<?xml version="1.0" encoding="UTF-8" standalone="no"?>
<svg xmlns:svg="http://www.w3.org/2000/svg" xmlns="http://www.w3.org/2000/svg"  version="1.0">
<defs>
   <linearGradient id="colour1">
     <stop offset="100%" stop-color="red"/>
   </linearGradient>
 </defs>  
 <g id="stags_head" fill="url(#colour1)" stroke="none">
<path
     d="M 104.21564,425.06021 C 99.689916,423.49694 94.192336,419.89046 93.218216,417.84576 C 93.059676,417.51298 91.214016,414.58798 89.116766,411.34576 C 85.387966,405.5813 84.432766,403.05393 83.298316,395.95082 C 82.990866,394.02582 81.393086,390.91015 79.747686,389.0271 C 77.012616,385.89701 76.803136,385.14718 77.305066,380.28393 C 77.623566,377.19793 78.755166,373.69902 80.000216,371.95051 C 83.067226,367.64329 88.088146,352.95082 86.493066,352.95082 C 85.806566,352.95082 84.723236,353.57936 84.085676,354.34759 C 83.448106,355.11581 82.155506,355.63039 81.213226,355.49111 C 80.270946,355.35183 80.057486,355.43031 80.738866,355.66552 C 81.702616,355.99821 81.668196,356.68808 80.583886,358.772 C 77.461476,364.77287 71.630516,367.76306 62.999996,367.78926 C 60.524996,367.79677 55.799996,368.55607 52.499996,369.4766 C 49.199996,370.39713 45.374996,371.39748 43.999996,371.69959 C 41.06652,372.34412 40.03638,373.62422 40.01531,376.65113 C 39.99402,379.71019 37.35203,380.95962 33.57578,379.69646 C 27.55385,377.68212 25.65054,374.34082 28.01181,369.92876 C 28.89865,368.27169 28.49724,367.8848 24.76181,366.79632 C 19.82241,365.35702 8,359.13897 8,357.98037 C 8,357.54757 6.6328,356.62715 4.96178,355.93499 C 1.30758,354.42137 0,352.23505 0,347.63869 C 0,343.79555 2.19159,337.84264 4.19222,336.25154 C 6.3261,334.55447 12.57262,332.84959 14.27006,333.50096 C 15.13648,333.83343 16.13269,334.85422 16.48387,335.76938 C 17.23526,337.72747 13.75484,340.95082 10.88922,340.95082 C 9.64663,340.95082 9,341.65787 9,343.01656 C 9,346.64164 10.95587,348.92403 16.29572,351.53026 C 27.08227,356.79485 35.80053,352.68678 41.9257,339.45332 C 45.153036,332.48063 45.699076,329.50091 43.947826,328.41858 C 43.369136,328.06093 42.944466,325.22187 43.004116,322.10956 C 43.063766,318.99725 42.816406,314.79243 42.454436,312.76551 C 41.73629,308.7442 43.889236,300.70512 47.123106,295.33279 C 50.097466,290.39156 49.634296,288.95082 45.071426,288.95082 C 41.51302,288.95082 38,287.02753 38,285.07939 C 38,282.99852 40.61346,282.11771 45.182116,282.6588 C 48.333746,283.03206 50.955356,282.77748 52.506016,281.9476 C 54.666756,280.79121 54.857676,280.19162 54.318266,276.2562 C 53.782726,272.34904 54.038626,271.51945 56.607666,268.83405 C 58.198446,267.17122 61.074996,264.8641 62.999996,263.70712 C 64.924996,262.55013 66.718276,261.42588 66.985056,261.20877 C 67.251836,260.99167 66.394096,260.00239 65.078966,259.01039 C 61.471836,256.28952 62.921466,253.95171 68.218616,253.94708 C 74.301886,253.94177 81.968866,248.91219 83.915756,243.64968 C 84.523516,242.0069 84.218986,241.00825 82.711606,239.70082 C 81.601906,238.73832 80.425326,237.92426 80.096986,237.8918 C 79.768646,237.85933 77.893806,237.7086 75.930696,237.55683 C 73.616326,237.3779 70.392816,235.82661 66.762356,233.14463 C 55.246426,224.63732 55.635056,224.74191 37.89965,225.37698 C 20.95192,225.98384 17.99447,225.48481 14.85035,221.4877 C 13.80396,220.15744 12.10815,218.80253 11.08189,218.47681 C 10.05562,218.15108 8.93516,217.11199 8.59199,216.1677 C 8.24882,215.22342 7.30686,213.32582 6.49876,211.95082 C 3.7911,207.34369 5.16493,200.74525 9.64762,196.82694 C 12.18617,194.60799 20.55882,192.1559 25.98815,192.04129 C 28.45663,191.98919 33.94857,190.82251 38.19246,189.44869 C 42.436346,188.07486 46.686716,186.95082 47.637726,186.95082 C 48.588736,186.95082 51.871796,186.10953 54.933416,185.08128 C 57.995036,184.05303 63.333996,182.40028 66.797766,181.40849 C 70.261546,180.4167 73.325606,179.23299 73.606786,178.77803 C 73.887966,178.32306 75.103976,177.94393 76.309016,177.93551 C 77.514056,177.92709 79.153536,177.50676 79.952306,177.00145 C 81.156656,176.23958 80.964986,175.64309 78.829776,173.50788 C 71.462056,166.14015 73.251496,146.95082 81.306276,146.95082 C 83.834416,146.95082 89.745086,150.60599 90.995696,152.94279 C 91.529416,153.94005 94.111226,155.78285 96.733046,157.0379 C 99.354866,158.29295 102.41433,160.36178 103.53184,161.63531 C 106.08297,164.54262 108.2446,164.64697 107.81955,161.84229 C 107.62365,160.54965 105.8246,158.84042 103.17018,157.42505 C 95.528536,153.35041 93.790016,150.93698 90.345596,139.62185 C 89.041346,135.33734 89.050886,134.04072 90.430126,128.12185 C 92.143706,120.76819 94.255156,114.36232 95.314656,113.30282 C 95.691596,112.92589 95.999996,111.34249 95.999996,109.78415 C 95.999996,107.69682 95.514216,106.95082 94.154986,106.95082 C 91.977576,106.95082 90.030856,104.92328 86.953926,99.450822 C 85.001346,95.978062 84.716446,94.080542 84.792456,85.054912 C 84.867136,76.187292 85.228326,73.982162 87.249356,70.054912 C 89.085156,66.487592 90.168296,65.450822 92.059346,65.450822 C 94.447366,65.450822 94.499996,65.626672 94.499996,73.606342 C 94.499996,78.091882 94.837496,82.104382 95.249996,82.523012 C 95.662496,82.941642 95.999996,84.255712 95.999996,85.443172 C 95.999996,86.630632 97.088036,88.624362 98.417876,89.873672 L 100.83575,92.145142 L 100.27263,87.946772 C 99.689446,83.598842 100.95131,81.611172 103.63978,82.642832 C 105.18293,83.235002 106.98642,89.099642 106.99442,93.551602 C 107.00734,100.73375 110.47992,104.89099 115.82645,104.12499 C 117.55825,103.87688 117.97576,103.36471 117.45987,102.12125 C 117.0787,101.20251 116.54536,92.575822 116.27467,82.950822 L 115.7825,65.450822 L 112.49553,61.950822 C 107.01363,56.113642 105,50.672632 105,41.697252 C 105,33.118202 105.58379,31.452792 110.69497,25.450822 C 117.34547,17.641252 120.48417,14.910992 122.5,15.181972 C 125.40356,15.572282 125.61389,19.914762 122.8718,22.858052 C 118.32843,27.734792 117.08519,47.295352 121.51793,44.159182 C 122.0686,43.769582 123.41484,41.736072 124.50957,39.640262 C 129.66871,29.763392 142.82604,17.478622 153.68431,12.400302 C 157.98294,10.389872 163.64899,6.7375023 166.27554,4.2839423 C 175.04005,-3.9033667 180.16724,0.36091226 174.36859,11.014932 C 172.84891,13.807082 170.68179,16.580532 169.55277,17.178172 C 168.42375,17.775802 166.77222,19.094132 165.8827,20.107802 C 164.99319,21.121462 163.93766,21.950822 163.53708,21.950822 C 161.61173,21.950822 157.14149,26.155972 157.65216,27.486752 C 158.2801,29.123142 164.98025,29.542572 166.55,28.043752 C 167.0725,27.544862 169.19074,26.680242 171.25719,26.122372 C 174.25234,25.313792 175.31716,25.410842 176.50719,26.600872 C 178.33355,28.427232 178.33329,28.405632 176.56959,31.816262 C 175.78286,33.337622 173.23873,35.899382 170.91597,37.509052 C 166.82777,40.342182 166.35796,40.427752 156.21883,40.186182 C 145.90211,39.940372 145.70852,39.978012 143.32136,42.693722 C 135.30249,51.816282 132.44641,70.374622 134.50966,99.950822 C 134.95089,106.27582 135.25524,112.57582 135.18598,113.95082 C 134.11823,135.15062 133.65988,139.84688 132.31529,143.36367 C 129.25643,151.36417 129.72515,159.95082 133.22073,159.95082 C 133.85343,159.95082 135.45083,160.96332 136.7705,162.20082 L 139.1699,164.45082 L 141.08495,162.09004 C 143.51776,159.09099 143.49017,157.59483 140.90354,152.25157 C 138.10374,146.46795 137.74456,141.4264 139.43406,131.62548 C 141.62069,118.94065 144.65728,111.78939 153.14755,99.329752 C 155.96608,95.193502 158,91.087702 158,89.534302 C 158,87.991662 159.09367,85.766242 160.58442,84.275502 C 162.78244,82.077472 163.37526,81.897512 164.54955,83.071792 C 167.54537,86.067622 166.08231,94.434312 160.41842,106.69625 C 154.86239,118.72465 153.97334,124.02188 155.19965,137.79108 C 156.21957,149.24284 159.65554,151.46882 168.05422,146.11885 C 172.46051,143.31204 186.45451,129.17839 191.74893,122.1877 C 193.26202,120.18983 195.87751,117.16922 197.56113,115.47522 C 199.24475,113.78122 201.70445,110.38274 203.02712,107.92302 C 204.3498,105.46331 206.20004,102.55082 207.13878,101.45082 C 210.52854,97.478712 215.69291,86.304652 217.30661,79.450822 C 219.67297,69.400212 219.96226,56.696132 217.87912,54.308572 C 216.98764,53.286812 215.24841,49.750822 214.01416,46.450822 C 209.60319,34.657222 212.03204,20.950822 218.53291,20.950822 C 221.38791,20.950822 222.50993,22.834502 223.42888,29.170302 C 224.28923,35.102142 228.24289,44.947622 230.20569,46.046062 C 231.31991,46.669602 232.85165,45.262532 236.34515,40.406282 C 238.90532,36.847442 241,33.290252 241,32.501402 C 241,31.264342 244.99607,22.651492 251.25787,10.392332 C 253.33777,6.3203623 257.2346,5.6521323 259.05583,9.0551423 C 260.45411,11.667842 259.52439,22.673992 257.07861,32.461942 C 255.13857,40.225912 252.59805,44.753322 245.58144,52.950822 C 240.56611,58.810222 239.65213,60.568962 236.05528,71.281712 C 233.08754,80.120752 234.04873,81.473312 240.78155,77.932372 C 245.20222,75.607432 251.37054,69.940052 258.6087,61.552972 C 262.57326,56.959122 264.71219,56.899732 265.54899,61.360262 C 266.76941,67.865682 257.36951,83.501362 248.70559,89.377392 C 246.61867,90.792772 244.55091,91.950822 244.11058,91.950822 C 243.67025,91.950822 242.54157,92.799902 241.6024,93.837672 C 240.66324,94.875432 237.29437,96.301422 234.11603,97.006542 C 228.48161,98.256532 228.2678,98.428012 225.55877,103.86969 C 224.03062,106.93931 222.28405,110.57582 221.6775,111.95082 C 220.10217,115.52202 212.54132,126.99645 209.81132,129.9591 C 208.54009,131.33865 206.0375,133.50679 204.25,134.77719 C 202.4625,136.04759 201,137.71021 201,138.47191 C 201,139.96197 206.79819,141.93615 211.20121,141.94524 C 213.9981,141.95102 222.57391,139.89414 227.07539,138.13789 C 230.27652,136.88896 238.16641,128.22726 240.41039,123.49842 C 242.35673,119.39681 246.29873,117.82098 248.67312,120.19537 C 250.01158,121.53383 249.73683,122.6214 246.17473,130.08473 C 243.00589,136.7241 240.58777,140.02998 234.56223,145.96053 C 230.37659,150.08019 226.40028,153.59863 225.72599,153.77929 C 225.05169,153.95995 222.39158,154.97245 219.81462,156.02929 C 214.73604,158.11207 199.63272,158.7836 198.51574,156.97629 C 197.32316,155.04666 187.8995,156.74729 183.67841,159.65388 C 181.4444,161.1922 177.11534,164.13273 174.05829,166.1884 C 165.36453,172.03437 165.07809,172.26816 165.59143,173.09875 C 165.8578,173.52975 169.65214,173.60658 174.0233,173.2695 C 178.65779,172.91212 185.66258,173.18578 190.82668,173.92598 C 198.66443,175.0494 200.07804,175.00762 203.12329,173.56256 C 205.83542,172.27556 207.58984,172.12142 211.40775,172.83468 C 217.47729,173.9686 218.34319,175.31774 215.91234,179.85319 C 214.86055,181.8156 214,184.0062 214,184.72119 C 214,187.9239 205.70251,196.03234 197.73591,200.61471 C 196.623,201.25486 194.74194,202.99574 193.55576,204.48335 C 191.87673,206.58905 190.41359,207.24394 186.94954,207.44023 C 184.50229,207.57891 180.89555,208.39686 178.93455,209.25791 C 176.23943,210.44129 174.40867,210.60071 171.43455,209.91099 C 164.68041,208.34465 165,207.75407 165,221.8016 C 165,234.2957 163.98358,240.40192 161.5628,242.45082 C 160.28601,243.53146 157.0182,255.09344 156.25437,261.23278 C 155.75487,265.24755 157.53792,270.95082 159.29258,270.95082 C 159.87005,270.95082 161.15701,270.21371 162.1525,269.31281 C 163.62807,267.97743 164.24309,267.90768 165.48124,268.93525 C 167.94339,270.97865 167.34658,275.72511 164.26886,278.57745 C 161.94071,280.73511 160.9269,281.01699 157.398,280.4878 L 153.25828,279.86701 L 154.30306,284.43268 C 155.06697,287.77099 155.00498,291.20979 154.07244,297.22459 C 151.35671,314.741 151.39954,315.51205 155.35646,320.34096 C 159.74162,325.69246 164.03662,327.71079 167.59211,326.0908 C 171.22527,324.43543 172,324.66171 172,327.37824 C 172,329.82044 167.90743,333.95082 165.48759,333.95082 C 164.8041,333.95082 163.71152,334.59349 163.05962,335.37899 C 161.33108,337.46175 164.09295,342.2385 170.82712,348.81316 C 183.29022,360.98103 200.09407,362.95353 203.62272,352.66283 C 205.41828,347.42638 202.86585,341.12279 200.5,344.95082 C 200.16008,345.50082 199.00852,345.95082 197.94098,345.95082 C 194.89095,345.95082 195.45949,342.10682 198.69126,340.8781 C 202.7282,339.34326 206.06835,340.13619 208.31854,343.16356 C 210.23438,345.74112 210.26532,346.23945 208.93939,353.16356 C 208.17188,357.17155 207.66407,360.84093 207.81093,361.31773 C 208.57955,363.81323 205.62137,369.03248 202.67641,370.37678 C 192.51303,375.01612 180.89248,376.13826 171.44722,373.39245 C 167.49916,372.24472 165.56554,372.11297 164.10906,372.89245 C 161.40929,374.33732 157.13312,374.22054 150.61992,372.52407 C 143.96793,370.79145 141.33851,369.48843 137.76043,366.15154 C 136.25367,364.74633 134.86931,363.78882 134.68409,364.02372 C 134.49886,364.25863 133.29637,366.25082 132.01189,368.45082 C 128.56915,374.34738 126.10264,376.76937 122.80218,377.49427 C 120.74069,377.94705 118.55697,379.90542 115.53276,384.01352 C 108.58116,393.4566 106.54006,398.4651 106.51865,406.1325 C 106.50179,412.17425 106.78129,413.10803 109.43709,415.8825 C 112.32521,418.89966 116.28569,419.91561 117.5,417.95082 C 118.56435,416.22866 121.83635,416.85986 122.48801,418.91305 C 123.32897,421.56266 121.42741,424.83782 118.3741,425.99869 C 114.66595,427.40852 110.14691,427.10898 104.21564,425.06021 z M 103.573,417.42935 C 102.51315,416.62752 101.40118,416.2163 101.10196,416.51553 C 100.47427,417.14322 103.01406,418.92821 104.5,418.9037 C 105.05,418.89463 104.63285,418.23117 103.573,417.42935 z M 100.1256,406.44969 C 99.973436,403.97531 100.27053,401.95082 100.7858,401.95082 C 101.30107,401.95082 101.51483,400.86363 101.26081,399.53484 C 100.62525,396.21012 106.99424,384.73226 112.96019,378.45082 C 119.09296,371.99374 121,369.06552 121,366.10587 C 121,364.0344 120.78427,363.88497 119.42378,365.01407 C 118.23261,366.00266 117.66969,366.0344 117.11941,365.14402 C 116.63012,364.35234 115.11231,365.27557 112.49267,367.95832 C 110.34846,370.1542 108.01043,371.95082 107.29705,371.95082 C 106.58367,371.95082 106,372.40082 106,372.95082 C 106,373.50082 105.325,373.95082 104.5,373.95082 C 101.81801,373.95082 102.90781,372.11033 107.43357,368.99653 C 112.54466,365.48 116,361.0632 116,358.04645 C 116,354.66935 117.84357,355.64261 118.18664,359.20082 L 118.5,362.45082 L 119.92924,359.95082 C 121.78869,356.69829 121.65376,348.96767 119.66806,344.98725 C 118.27462,342.19403 118.26916,341.78477 119.61841,341.26701 C 120.45222,340.94704 121.49201,341.08251 121.92905,341.56804 C 123.20684,342.98762 124.84499,350.82759 124.29959,352.91319 C 124.02444,353.96536 124.51947,355.85438 125.39966,357.11103 C 126.27985,358.36767 127,361.1857 127,363.37333 C 127,365.69393 127.36302,366.95508 127.87145,366.40082 C 128.93372,365.2428 132.38844,354.21512 132.193,352.60615 C 130.92695,342.18325 130.94783,338.66066 132.28481,337.12152 C 133.08299,336.20263 134.02311,332.97582 134.37396,329.95082 C 134.72481,326.92582 135.19458,323.21332 135.41788,321.70082 C 135.64118,320.18832 135.67532,318.95082 135.49373,318.95082 C 133.93109,318.95082 132,320.44468 132,321.65352 C 132,324.23633 128.64287,328.95082 126.80368,328.95082 C 125.6831,328.95082 124.20994,330.68528 122.76929,333.70082 C 121.08129,337.23408 119.85961,338.5344 118,338.7771 C 113.00139,339.42947 110.56692,345.71144 113.13146,351.34 C 113.75376,352.7058 113.96938,354.58823 113.61061,355.52317 C 112.99679,357.12276 112.84737,357.12267 111.07818,355.52157 C 108.02926,352.76234 107.55027,347.42623 109.93996,342.84151 C 111.07298,340.66776 112,337.74851 112,336.35428 C 112,333.40958 113.63942,329.95082 115.03518,329.95082 C 115.56583,329.95082 116,331.30082 116,332.95082 C 116,336.64223 116.90652,336.70073 119.4807,333.17545 C 120.91367,331.21302 121.5082,328.6638 121.63065,323.95687 C 121.83781,315.99402 121.69502,316.45282 123.5,317.95082 C 124.325,318.63551 125,320.71561 125,322.57326 C 125,326.55407 126.1464,326.9143 127.97017,323.50656 C 128.85552,321.85227 129.04007,319.67073 128.54119,316.75656 C 127.37826,309.96339 127.40806,306.67278 128.63633,306.25055 C 129.91061,305.81251 132,310.99893 132,314.60004 C 132,318.83033 133.72716,317.06377 134.26611,312.28224 C 134.84901,307.11079 133.20903,301.30332 130.0214,297.2509 C 127.47626,294.01528 127.46969,292.95082 129.99488,292.95082 C 133.58422,292.95082 138.75915,308.17035 137.75934,315.78618 C 137.49474,317.80173 137.56861,321.47582 137.92349,323.95082 C 138.49725,327.95228 138.69376,328.22686 139.69731,326.42923 C 140.31802,325.31736 141.07613,321.09318 141.38199,317.04217 C 141.72812,312.45776 142.52526,309.0279 143.49316,307.95838 C 144.4291,306.92418 144.77244,305.52139 144.35554,304.43497 C 143.72873,302.80152 143.58393,302.84328 142.83268,304.8741 C 141.17786,309.3475 139.51251,306.43776 138.78604,297.80374 C 138.39337,293.13679 137.41647,288.05469 136.61517,286.51018 C 134.49958,282.43237 136.00635,279.35717 138.76722,282.11804 C 139.65684,283.00766 140.10326,282.84531 140.6443,281.43538 C 141.11981,280.19621 140.06911,277.18587 137.46167,272.31691 C 133.41059,264.75219 133.35143,262.05344 137.31839,265.78021 C 138.58917,266.97405 139.9374,267.95082 140.31445,267.95082 C 141.61053,267.95082 140.99868,264.19461 139.5,262.95082 C 138.675,262.26613 137.98171,261.19853 137.95936,260.57838 C 137.93701,259.95822 136.58701,257.89282 134.95936,255.98859 C 133.33171,254.08437 131.97677,251.83437 131.94839,250.98859 C 131.88855,249.20592 124.45154,242.95082 122.39186,242.95082 C 120.14974,242.95082 120.8193,244.27592 124.40573,246.93644 C 126.24859,248.30354 127.54869,249.96334 127.29483,250.62489 C 126.99196,251.41416 125.2288,250.67815 122.16663,248.48418 C 116.87268,244.6912 115.44298,244.23914 112.20821,245.33542 C 110.43575,245.93612 110.06207,246.60371 110.55919,248.28147 C 110.91271,249.47461 111.89213,250.99475 112.73568,251.65956 C 113.87161,252.55479 114.1352,254.05896 113.75197,257.45896 C 113.17166,262.6075 112.4598,263.81062 110.91054,262.26136 C 110.16903,261.51985 110.19417,259.94343 110.99494,256.96962 C 112.03946,253.09056 111.9561,252.60837 110.00462,251.2415 C 108.83265,250.42062 107.4633,248.6694 106.96163,247.34991 C 105.14387,242.56882 102.31616,245.12557 100.40706,253.27639 C 99.680576,256.37806 92.763186,263.7404 92.190286,262.02169 C 91.760796,260.73321 88.999996,260.57658 88.999996,261.84069 C 88.999996,262.85549 81.865996,266.33395 77.749996,267.32607 C 73.023386,268.46536 74.746686,266.19569 79.910536,264.48053 C 86.784346,262.19742 95.999996,252.11954 95.999996,246.88572 C 95.999996,244.35923 93.951096,246.41872 93.018306,249.88281 C 92.307206,252.52365 90.734776,254.74918 88.229766,256.66027 C 84.053986,259.846 77.723656,262.95082 75.404146,262.95082 C 73.177206,262.95082 62.999996,267.93321 62.999996,269.02344 C 62.999996,270.22848 63.678716,270.19313 66.173096,268.85818 C 70.491406,266.54709 69.654966,269.70145 64.442416,275.38487 C 57.976686,282.43468 57.242526,284.49694 62.129656,281.88143 C 63.583216,281.10351 64.517806,281.13568 65.558596,281.99945 C 66.345506,282.65253 67.891736,282.95089 68.994666,282.66246 C 70.299766,282.32117 70.999996,282.62914 70.999996,283.54444 C 70.999996,284.31795 70.437496,284.96401 69.749996,284.98013 C 67.653186,285.02931 61.942176,290.84495 60.425066,294.47591 C 59.638086,296.35943 58.786596,299.52188 58.532876,301.50359 C 58.232316,303.85114 57.144166,305.83618 55.410146,307.20015 C 52.256126,309.68111 49.052786,316.27797 49.021956,320.35581 C 49.000516,323.19216 49.046976,323.21827 50.988566,321.46116 C 52.082286,320.47136 54.379196,317.47662 56.092816,314.80617 C 57.806436,312.13573 59.585016,309.95082 60.045226,309.95082 C 61.857806,309.95082 61.881376,311.8319 60.097226,314.10008 C 59.065696,315.41146 57.513206,318.18012 56.647236,320.25266 C 55.781276,322.3252 54.421226,324.67244 53.624906,325.46877 C 52.828586,326.26509 51.194606,330.18682 49.993846,334.18372 C 47.954276,340.97273 42.440566,350.78801 39.00463,353.74628 C 36.58148,355.83257 29.03977,358.95082 26.41709,358.95082 C 23.23182,358.95082 23.31189,361.31626 26.54705,362.7903 C 29.99933,364.36327 32.50763,364.24902 34,362.45082 C 34.76353,361.53082 36.95675,360.95082 39.6721,360.95082 C 45.079146,360.95082 49.010786,359.02958 52.359166,354.75114 C 53.753506,352.96951 55.225596,351.84309 55.630496,352.24798 C 56.035386,352.65288 55.834166,353.51665 55.183326,354.16749 C 53.125166,356.22565 53.753826,358.15594 56.249996,357.44263 C 59.301166,356.57073 63.652586,351.43787 64.366436,347.86864 C 64.720216,346.09974 65.581766,344.95082 66.554456,344.95082 C 69.098536,344.95082 67.355736,350.85245 63.646586,354.7977 C 60.189096,358.47528 57.539976,359.82835 51.499996,361.00176 C 44.940496,362.2761 35.11536,366.2078 34.50309,367.80337 C 34.18913,368.62153 34.51,369.65751 35.21613,370.10556 C 36.02742,370.62033 35.27741,370.92583 33.17857,370.93551 C 30.13642,370.94953 29.99143,371.08511 31.45427,372.54795 C 32.4587,373.55238 33.69129,373.86773 34.7757,373.39772 C 35.72406,372.98667 37.39796,372.47893 38.49547,372.2694 C 39.59298,372.05988 41.16798,371.17731 41.99547,370.30814 C 43.354246,368.88093 43.190276,368.76955 40.30281,369.15839 C 32.81798,370.16632 39.30236,367.47141 57.686906,361.93354 C 62.096746,360.60519 71.999996,351.33044 71.999996,348.52881 C 71.999996,347.72584 72.449996,346.79074 72.999996,346.45082 C 73.549996,346.1109 73.999996,344.28434 73.999996,342.3918 C 73.999996,339.61749 74.387486,338.95082 75.999996,338.95082 C 77.662696,338.95082 77.999996,338.28415 77.999996,334.99787 C 77.999996,332.82375 77.515126,329.98076 76.922516,328.68011 C 75.648526,325.88402 77.729876,315.85449 79.719196,315.2036 C 80.635506,314.90379 80.785906,316.43761 80.324586,321.37775 C 79.750356,327.52703 79.842266,327.95082 81.750076,327.95082 C 83.526046,327.95082 83.700056,328.37048 83.097666,331.20082 C 82.151246,335.64757 82.937736,345.65892 84.090496,343.83864 C 84.573876,343.07534 84.976266,340.05883 84.984686,337.13528 C 85.005056,330.06304 90.809436,316.95082 93.919726,316.95082 C 95.880136,316.95082 95.839356,317.20712 92.985226,322.82368 C 89.399316,329.88028 88.342756,334.45396 89.872666,336.29739 C 91.510046,338.27032 92.388416,350.88453 91.190516,355.22297 C 89.954816,359.69831 91.214736,360.08874 93.640546,355.98218 C 95.741366,352.42577 97.460266,351.59556 98.966116,353.41 C 100.40179,355.13987 97.497676,360.4704 91.818316,366.52983 C 89.562066,368.93707 86.589846,373.18226 85.213386,375.96359 C 83.033476,380.36839 82.870006,381.3701 83.945796,383.7312 L 85.180856,386.44187 L 87.605916,383.44635 C 91.858466,378.19342 93.306426,376.95082 95.174966,376.95082 C 97.962426,376.95082 97.362076,379.20754 93.606176,382.84791 C 90.531216,385.82827 90.204536,386.69231 90.129206,392.04408 C 90.083466,395.29279 90.464636,397.95082 90.976226,397.95082 C 91.487826,397.95082 92.776476,395.98389 93.839886,393.57987 C 95.749786,389.26222 97.613336,387.23082 98.683026,388.30052 C 98.985506,388.603 98.070626,392.45415 96.649966,396.85863 C 94.307876,404.1198 94.195506,405.17386 95.445276,408.1588 C 96.203366,409.96941 97.170806,411.79582 97.595146,412.21749 C 99.129086,413.74178 100.39639,410.85315 100.1256,406.44969 z M 101.66667,385.28415 C 100.6124,384.22989 100.89106,380.13619 102.06653,379.4097 C 103.44471,378.55794 103.62944,378.81167 104.46264,382.70082 C 104.99001,385.16243 104.8162,385.95082 103.74612,385.95082 C 102.96909,385.95082 102.03333,385.65082 101.66667,385.28415 z M 71.999996,318.31684 C 71.999996,315.76815 72.533136,311.83065 73.184756,309.56684 C 74.592736,304.67532 79.787766,296.95082 81.669516,296.95082 C 83.639796,296.95082 83.298626,298.2925 80.501216,301.54528 C 79.126886,303.14333 78.001886,305.40822 78.001216,306.57838 C 78.000546,307.74853 77.324996,309.26613 76.499996,309.95082 C 75.478006,310.799 74.999996,313.06872 74.999996,317.07326 C 74.999996,321.63109 74.663186,322.95082 73.499996,322.95082 C 72.382456,322.95082 71.999996,321.76927 71.999996,318.31684 z M 104,322.32202 C 104,321.97618 105.58145,319.94274 107.51434,317.80326 C 110.19914,314.83151 110.88656,313.34701 110.42656,311.51423 C 109.97776,309.72609 110.35346,308.83202 111.90186,308.00334 C 115.18857,306.24435 117.29821,301.21079 116.68011,296.60253 C 116.32955,293.98892 116.68011,291.5363 117.68086,289.60108 C 118.82594,287.38673 119.05176,285.125 118.56093,280.78662 C 117.94648,275.35561 118.04286,274.95082 119.95034,274.95082 C 121.76955,274.95082 122,275.57281 122,280.48294 C 122,283.5256 121.3109,287.66431 120.46866,289.68007 C 119.62642,291.69583 119.24333,294.04388 119.61734,294.89795 C 121.26595,298.66261 118.86843,305.84689 114.63683,309.82227 C 113.26603,311.11007 112.38976,312.80295 112.68956,313.58422 C 113.4638,315.60186 108.10852,322.95082 105.864,322.95082 C 104.8388,322.95082 104,322.66786 104,322.32202 z M 73.701846,297.31934 C 72.112966,295.73046 81.138176,284.95082 84.057346,284.95082 C 87.279176,284.95082 87.161806,286.81579 83.831586,288.53791 C 80.003696,290.51739 78.972406,291.53529 77.081016,295.20082 C 75.648596,297.97686 74.856166,298.47366 73.701846,297.31934 z M 106,293.35855 C 106,293.0328 106.9,291.62211 108,290.22369 C 110.14527,287.49642 110.62805,284.95082 109,284.95082 C 108.45,284.95082 108,284.05082 108,282.95082 C 108,281.85082 108.39541,280.95082 108.87868,280.95082 C 109.36195,280.95082 110.35087,279.51796 111.07627,277.76668 C 112.08423,275.33325 112.11284,274.48843 111.19759,274.18335 C 109.7554,273.70262 109.6023,270.31465 110.98416,269.46061 C 111.52546,269.12607 112.34156,267.41201 112.79773,265.65159 C 113.88416,261.45893 116.62041,261.29684 116.18696,265.45082 C 116.01479,267.10082 115.24666,269.09038 114.48001,269.87206 C 113.28677,271.08869 113.33184,271.47579 114.79305,272.56095 C 116.38457,273.74289 116.34095,274.13233 114.14796,278.32011 C 112.85434,280.79043 112.10921,283.31851 112.49211,283.93805 C 113.47748,285.53242 112.38439,289.20159 110.15994,291.76641 C 108.39799,293.79796 106,294.71574 106,293.35855 z M 82.497726,279.94715 C 81.592116,278.48184 82.346816,277.71582 87.377916,274.99377 C 92.419096,272.26626 94.867216,272.98379 90.985056,276.051 C 86.779086,279.37404 83.168026,281.03172 82.497726,279.94715 z M 66.006826,278.70082 C 66.013136,277.54714 67.893606,276.10158 75.297346,271.55899 C 76.835896,270.61501 80.627316,269.65823 83.722736,269.43282 C 88.748546,269.06684 89.813506,268.56884 93.675376,264.7787 C 96.898216,261.61572 97.999996,260.9878 97.999996,262.31404 C 97.999996,264.41217 97.037916,265.42654 90.905256,269.79437 C 87.525056,272.20184 85.664416,272.9047 83.866226,272.45338 C 80.883346,271.70473 77.094326,273.07057 71.293446,276.98554 C 66.331466,280.33434 65.997306,280.44276 66.006826,278.70082 z M 160.36163,368.45082 C 160.69577,367.58006 160.37836,366.95082 159.60498,366.95082 C 157.70228,366.95082 153,361.99433 153,359.98877 C 153,359.05964 151.89943,357.26551 150.55428,356.00182 C 146.58149,352.26957 144.48593,343.92596 144.59699,332.28241 C 144.67508,324.09416 145.02839,321.77957 146.41127,320.39669 C 147.62529,319.18267 147.81667,318.36749 147.06429,317.61511 C 146.47893,317.02975 146,315.51582 146,314.25082 C 146,309.84883 144.18304,311.98576 143.49172,317.20082 C 143.10894,320.08832 141.95743,324.97747 140.93281,328.0656 C 136.93757,340.10688 138.31039,350.48719 144.42826,354.49577 C 148.18891,356.95984 146.41254,358.3689 142.55279,355.98344 C 138.49796,353.47742 137,353.41388 137,355.74787 C 137,358.09442 143.54404,364.31091 148,366.19728 C 149.925,367.01221 152.625,368.15968 154,368.74721 C 157.57604,370.27525 159.69949,370.17632 160.36163,368.45082 z M 191.69461,368.45217 C 193.26394,367.35297 193.94052,367.27237 194.23298,368.14976 C 194.7933,369.83073 200.75167,367.28334 202.08446,364.793 C 203.47183,362.20067 202.37263,360.68103 200.02064,361.93977 C 198.99875,362.48667 194.46809,363.07404 189.9525,363.24505 C 182.83854,363.51444 181.12533,363.23226 177.12117,361.13158 C 174.57953,359.79818 171.78957,358.08702 170.92126,357.32901 C 168.54275,355.25265 166.81751,355.64746 167.18045,358.18508 C 167.3562,359.41392 168.9479,361.32642 170.71755,362.43508 C 172.4872,363.54374 174.1778,365.15254 174.47444,366.0102 C 175.70098,369.55648 187.69057,371.25671 191.69461,368.45217 z M 167.36163,363.45082 C 167.04504,362.62582 166.43532,361.95082 166.00668,361.95082 C 164.09938,361.95082 155.02632,352.02384 153.21095,347.95082 C 151.00164,342.99393 149.16832,336.81182 148.76266,332.95082 C 148.61149,331.512 147.86329,330.45082 147,330.45082 C 145.27501,330.45082 145.22419,334.11172 146.86119,340.45082 C 147.42932,342.65082 148.25546,345.85404 148.69707,347.56909 C 149.50705,350.71474 156.19232,358.95082 157.93568,358.95082 C 158.45317,358.95082 160.35462,360.30082 162.16114,361.95082 C 165.6746,365.15986 168.30903,365.91973 167.36163,363.45082 z M 74.516526,358.59246 C 78.440156,354.50609 79.919536,351.36755 80.239606,346.45082 C 80.619566,340.61396 78.781916,340.7332 76.642676,346.68422 C 75.621146,349.52594 73.039996,353.78595 70.906786,356.1509 C 68.773576,358.51586 67.021876,361.04364 67.014116,361.76821 C 66.991496,363.87897 71.117516,362.13244 74.516526,358.59246 z M 164.63635,353.88255 C 164.32552,352.32841 163.32418,350.18439 162.41116,349.11805 C 161.49814,348.05172 159.90989,344.76536 158.88172,341.81504 C 157.05541,336.57445 153.62592,332.44594 151.95619,333.4779 C 151.49667,333.7619 151.78826,336.24219 152.60417,338.98965 C 156.04912,350.59006 166.58635,363.63258 164.63635,353.88255 z M 158.1875,333.26771 C 157.46563,332.97884 156.60312,333.01436 156.27083,333.34665 C 155.93854,333.67894 156.52917,333.91529 157.58333,333.87187 C 158.74828,333.82389 158.98523,333.58693 158.1875,333.26771 z M 152.87861,325.99183 C 147.86942,321.4627 147,321.16084 147,323.95082 C 147,325.24647 147.66667,325.95082 148.89301,325.95082 C 149.93417,325.95082 151.03165,326.59092 151.33186,327.37326 C 151.63207,328.1556 152.91772,328.99431 154.18885,329.23707 C 155.45998,329.47983 156.67037,329.73974 156.87861,329.81464 C 157.08684,329.88954 155.28684,328.16928 152.87861,325.99183 z M 52.685546,304.77651 C 53.958496,303.58063 54.999996,302.20594 54.999996,301.72164 C 54.999996,300.19207 59.157426,291.5261 60.766886,289.70082 C 62.189856,288.08704 62.106956,287.95082 59.701896,287.95082 C 57.663906,287.95082 56.713776,288.7705 55.355106,291.70082 C 54.398806,293.76332 52.577696,297.12938 51.308186,299.18095 C 49.105826,302.74005 48.226456,306.95082 49.685546,306.95082 C 50.062596,306.95082 51.412596,305.97238 52.685546,304.77651 z M 150.16728,295.3499 C 150.41282,288.22435 145.89968,270.7178 144.24402,272.37346 C 143.97809,272.63939 143.58615,278.23681 143.37304,284.81216 C 143.00736,296.09512 143.09068,296.73987 144.85488,296.27852 C 146.03039,295.97112 146.97312,296.43838 147.39488,297.53747 C 148.20961,299.66063 150.0693,298.19324 150.16728,295.3499 z M 162,276.55781 C 162,276.34165 161.325,275.90578 160.5,275.58919 C 159.675,275.27261 159,275.44947 159,275.9822 C 159,276.51494 159.675,276.95082 160.5,276.95082 C 161.325,276.95082 162,276.77396 162,276.55781 z M 155,274.40116 C 155,274.09885 154.28358,272.4661 153.40796,270.77283 C 152.53233,269.07955 152.02198,266.61616 152.27385,265.29862 C 152.52571,263.98108 152.34213,262.66227 151.86589,262.36794 C 151.38965,262.0736 151,260.50226 151,258.87605 C 151,255.47157 148.83275,247.95082 147.85168,247.95082 C 147.48793,247.95082 147.4086,249.63832 147.6754,251.70082 C 147.94219,253.76332 147.71945,256.57582 147.1804,257.95082 C 146.1193,260.6575 146.19404,260.77275 143.93778,252.95082 C 143.22386,250.47582 142.21769,247.89072 141.70185,247.20615 C 141.18601,246.52158 141.00472,245.04076 141.299,243.91544 C 141.63265,242.63955 141.01837,240.9579 139.66702,239.44777 C 137.29705,236.79932 132,234.99931 132,236.84241 C 132,237.45204 132.43247,237.95082 132.96104,237.95082 C 134.62081,237.95082 138,242.23705 138,244.34233 C 138,246.06137 137.43879,245.8087 134.17228,242.61904 C 131.588,240.09556 129.80131,239.08983 128.67228,239.52308 C 127.75252,239.87603 127,240.34361 127,240.56216 C 127,240.78072 129.93301,244.44507 133.51781,248.70518 C 137.1026,252.96528 140.54883,258.13832 141.1761,260.20082 C 142.43161,264.32906 143.59414,264.85368 145.60795,262.20082 C 146.8381,260.58031 146.93875,260.6173 146.9682,262.70082 C 147.00098,265.02029 148.4093,265.71561 149.5,263.95082 C 149.83992,263.40082 150.58148,262.95082 151.14791,262.95082 C 151.71434,262.95082 151.01279,264.33535 149.58889,266.02755 C 146.29277,269.94477 146.32698,271.48719 149.75,273.29018 C 152.65787,274.82181 155,275.31745 155,274.40116 z M 98.330376,252.72569 C 100.32163,248.53607 100.6002,247.08059 99.719466,245.46797 C 98.685756,243.57523 98.577916,243.63585 97.970966,246.45082 C 97.615206,248.10082 96.104786,251.84061 94.614486,254.76147 C 92.190826,259.51161 92.112486,259.96099 93.872236,259.01919 C 94.954306,258.44009 96.960466,255.60801 98.330376,252.72569 z M 85.568516,254.90367 C 90.182006,251.72951 92.999996,247.56346 92.999996,243.91715 C 92.999996,241.26065 90.909216,241.79512 89.375986,244.84356 C 87.813836,247.9495 82.978346,252.84776 80.074556,254.26573 C 78.739776,254.91753 77.464456,256.01332 77.240506,256.70082 C 76.492906,258.99589 81.050026,258.01248 85.568516,254.90367 z M 154,248.8918 C 154,248.37426 153.08226,247.95082 151.96057,247.95082 C 150.26642,247.95082 150.13944,248.187 151.21057,249.34586 C 152.5408,250.78504 154,250.54751 154,248.8918 z M 149.77377,242.20082 C 146.31199,234.156 140.18787,228.48061 137.05684,230.41569 C 135.15777,231.58938 135.96402,233.4115 139.35332,235.60575 C 141.18404,236.79096 143.44958,239.37846 144.38786,241.35575 C 145.65648,244.02916 146.71723,244.95082 148.52548,244.95082 C 150.79839,244.95082 150.87987,244.7713 149.77377,242.20082 z M 154,237.93725 C 154,236.82979 153.47898,235.0894 152.84218,234.06972 C 151.61539,232.10532 152.27462,228.95082 153.91194,228.95082 C 154.44802,228.95082 155.99962,230.81721 157.35993,233.09834 L 159.83321,237.24587 L 160.49699,232.81948 C 161.14617,228.49039 159.33101,221.57445 156.63281,218.09664 C 155.00597,215.99975 150.84754,214.70328 149.63567,215.91515 C 148.91747,216.63335 149.80118,218.18698 152.5,220.95082 C 155.28588,223.80382 156.095,225.25582 155.32693,226.02389 C 154.55887,226.79195 152.93364,225.71906 149.64862,222.27538 C 147.11738,219.62187 145.03593,216.91896 145.02318,216.26891 C 145.01043,215.61887 146.2375,214.21309 147.75,213.14497 C 149.92387,211.60979 150.8789,211.43839 152.30857,212.32687 C 153.76049,213.22918 154.39507,213.07667 155.52654,211.5535 C 156.3017,210.50997 156.68398,209.2485 156.37603,208.75023 C 155.39011,207.15498 144.99745,203.01457 143.46003,203.60453 C 142.43789,203.99676 142.15733,203.7044 142.55683,202.66331 C 142.87557,201.83271 142.65567,200.85605 142.06817,200.49295 C 141.48068,200.12986 141,199.40934 141,198.8918 C 141,197.58427 143.36243,197.71325 144.74546,199.09628 C 146.60026,200.95108 155.91111,203.90367 156.56564,202.84461 C 157.6459,201.09671 152.59379,198.16625 147.68737,197.6948 C 141.79435,197.12856 137.87989,194.00539 139.94479,191.51735 C 141.08897,190.13869 141.52155,190.18601 144.01685,191.96282 C 148.14047,194.8991 154.69398,194.56291 162.52196,191.01354 C 166.08488,189.39803 169,187.70036 169,187.24094 C 169,186.07555 174.70965,183.24713 179.55515,182.01218 C 182.26264,181.32214 184.75294,181.30637 187.04855,181.96474 C 192.21606,183.44677 202.17327,183.13434 204.44113,181.41902 C 205.50875,180.61151 207.14115,179.95082 208.06868,179.95082 C 210.23056,179.95082 212.48647,177.36951 211.08276,176.50197 C 210.52487,176.15717 207.57071,176.60116 204.51796,177.48862 C 199.76273,178.87101 198.00278,178.9254 192.23376,177.86827 C 175.05192,174.71983 162,176.02854 162,180.89979 C 162,183.08253 161.00656,183.52887 159.45,182.04548 C 158.88069,181.50294 155.8953,181.70721 152,182.55525 C 148.425,183.33356 143.7,183.92423 141.5,183.86785 C 134.98413,183.70087 134.90756,183.73433 135.58936,186.45082 C 136.09148,188.45144 135.84559,188.94447 134.35841,188.91902 C 133.33628,188.90152 131.63683,188.23408 130.58183,187.43581 C 128.96744,186.21425 128.84269,185.59149 129.79412,183.50332 C 131.05783,180.72979 129.63859,178.91223 127.71287,180.83795 C 126.03299,182.51783 125,182.18003 125,179.95082 C 125,177.69798 123.96448,177.38634 122.23278,179.11804 C 121.07497,180.27585 120.85793,179.97192 119.43545,175.20082 C 119.22628,174.49924 117.47234,173.95082 115.43777,173.95082 C 112.60039,173.95082 111.69387,173.49618 111.26558,171.85839 C 110.77648,169.98808 110.22912,169.83546 106.1092,170.42071 C 98.948676,171.43788 91.127266,174.68604 86.687396,178.4864 C 84.461326,180.39183 81.552926,181.95082 80.224286,181.95082 C 78.895646,181.95082 76.614146,182.5773 75.154286,183.343 C 68.738456,186.7081 62.819536,188.54663 41,193.95201 C 39.075,194.4289 35.475,195.34767 33,195.99373 C 30.525,196.63979 26.83133,197.12341 24.79185,197.06844 C 19.33961,196.92149 16.32745,198.43352 14.67099,202.14886 C 12.23401,207.61483 12.13613,209.64554 14.15007,212.95719 C 16.04786,216.07786 16.15187,216.11123 22.28622,215.568 C 25.7038,215.26535 30.86002,214.73441 33.74449,214.38813 C 38.09802,213.8655 39.09809,214.04287 39.63124,215.43222 C 40.51466,217.73439 37.55689,220.65332 35.80019,219.21295 C 34.20598,217.90581 22.5,218.9953 22.5,220.45082 C 22.5,221.64734 34.34044,222.74203 36.78589,221.7716 C 37.72865,221.39749 41.3125,221.05976 44.749996,221.02111 C 49.492596,220.96777 50.999996,220.60328 50.999996,219.50984 C 50.999996,215.91424 53.930796,216.68528 65.249996,223.25877 C 71.460146,226.86524 74.396816,229.7863 70.249996,228.2322 C 68.734696,227.66432 68.679076,227.79663 69.835276,229.21881 C 70.890166,230.51637 71.551196,230.62354 72.983296,229.72918 C 74.445506,228.81601 74.575876,228.24456 73.657476,226.77396 C 73.031256,225.77123 72.262006,224.95082 71.948006,224.95082 C 70.720796,224.95082 66.985806,220.7828 67.486726,219.97229 C 68.215456,218.79318 73.666436,221.6365 75.387286,224.09336 C 76.222246,225.28544 77.049096,225.68039 77.427616,225.06794 C 78.426496,223.45171 80.931116,224.91695 82.562666,228.072 C 84.105456,231.05543 86.493366,231.8779 87.291706,229.70082 C 87.570126,228.94156 89.203786,230.11932 91.452956,232.70082 C 93.902096,235.51182 95.975926,236.95082 97.577916,236.95082 C 100.52355,236.95082 100.65579,235.85427 97.999996,233.45082 C 96.899996,232.45533 95.999996,231.26059 95.999996,230.79583 C 95.999996,229.29246 98.643646,229.89957 100.36112,231.79736 C 103.34706,235.09678 114.40244,237.02904 112.47794,233.91513 C 111.50133,232.33494 113.7744,232.00109 120.22358,232.77749 C 127.61812,233.66771 131.3465,232.6179 130.48051,229.88942 C 130.02223,228.44549 130.78707,228.03025 134.96285,227.45593 C 140.4248,226.70472 141.80601,225.62693 140.03753,223.49604 C 138.77072,221.96963 139.26038,221.52363 143.25,220.57003 C 145.53821,220.02309 146,220.24185 146,221.87275 C 146,222.95077 146.45,224.1109 147,224.45082 C 148.67146,225.48384 148.1193,226.95082 146.05902,226.95082 C 142.60753,226.95082 142.99544,228.52993 147.54336,232.99338 C 149.99451,235.399 152,237.94854 152,238.65903 C 152,239.36951 152.45,239.95082 153,239.95082 C 153.55,239.95082 154,239.04471 154,237.93725 z M 121,228.95082 C 121,228.40082 121.9,227.95082 123,227.95082 C 124.1,227.95082 125,228.40082 125,228.95082 C 125,229.50082 124.1,229.95082 123,229.95082 C 121.9,229.95082 121,229.50082 121,228.95082 z M 124.75,225.26149 C 123.7875,225.00997 123,224.01524 123,223.05098 C 123,221.40369 123.30119,221.39302 127.98662,222.87431 C 130.72927,223.74139 132.97927,224.78832 132.98662,225.20082 C 133.00077,225.99416 127.70296,226.03318 124.75,225.26149 z M 105.05178,221.78068 C 103.15525,221.2363 101.13025,220.22136 100.55178,219.52524 C 99.973296,218.82912 97.924996,217.6524 95.999996,216.91031 C 92.133236,215.41967 88.737076,212.18525 89.589856,210.80543 C 89.891436,210.31745 90.622726,210.21766 91.214936,210.58366 C 93.025606,211.70272 91.070726,205.68551 88.850666,203.30632 C 87.455086,201.81071 87.197326,200.9469 87.998816,200.45155 C 89.729076,199.38219 93.554376,203.5201 94.858026,207.87131 C 95.619286,210.41217 96.774126,211.95247 98.255636,212.40296 C 99.627036,212.81998 100.01138,213.28694 99.243766,213.60353 C 97.522526,214.31342 98.703376,215.95082 100.93657,215.95082 C 101.93677,215.95082 103.27395,216.57599 103.90809,217.34008 C 104.54224,218.10417 106.17234,218.94177 107.53054,219.20141 C 109.4456,219.5675 110,219.25295 110,217.80033 C 110,216.16118 110.53092,216.00851 114.25,216.57816 C 116.5875,216.9362 118.65756,217.36158 118.85014,217.52345 C 119.80459,218.32573 117.60418,219.95082 115.56343,219.95082 C 114.28823,219.95082 112.68469,220.62582 112,221.45082 C 110.59574,223.14285 109.91072,223.17537 105.05178,221.78068 z M 131.08048,220.85339 C 129.63192,220.27652 129.02997,219.53166 129.58048,218.99726 C 130.80841,217.8053 136.17996,218.91093 135.72931,220.26289 C 135.22252,221.78326 133.85245,221.95728 131.08048,220.85339 z M 42,217.41944 C 42,216.0617 41.55,214.95082 41,214.95082 C 39.37745,214.95082 39.85801,212.94254 41.64461,212.25696 C 43.707326,211.46541 45.967896,214.35757 45.295676,216.92812 C 44.506886,219.94448 42,220.3182 42,217.41944 z M 132.44615,214.86369 C 132.07661,214.26576 132.28744,213.26338 132.91466,212.63616 C 134.1707,211.38012 137.06759,212.6536 137.77381,214.77226 C 138.27341,216.27106 133.36798,216.35523 132.44615,214.86369 z M 19,209.57582 C 19,208.68207 19.42834,207.95082 19.95186,207.95082 C 20.47539,207.95082 22.44155,206.36737 24.32112,204.43204 C 26.64376,202.04049 28.27787,201.12022 29.42213,201.55931 C 33.58295,203.15597 28.68657,209.3036 22.25,210.56427 C 19.65552,211.07243 19,210.87306 19,209.57582 z M 135.5,209.95082 C 134.42314,208.20843 136.01929,206.72194 137.57802,208.01557 C 138.348,208.65459 138.73138,209.57645 138.42997,210.06413 C 137.70049,211.24445 136.2652,211.18894 135.5,209.95082 z M 100.11497,205.58935 C 99.338856,204.6542 99.261716,203.9071 99.900506,203.51231 C 100.44921,203.1732 99.008556,200.96097 96.699066,198.59625 C 92.884336,194.6903 92.271166,194.40006 89.999996,195.42527 C 86.863606,196.84104 83.060516,196.2721 82.293126,194.27233 C 81.472066,192.13266 83.942176,190.8116 87.582446,191.44351 C 89.828236,191.83335 91.135196,191.45891 92.397586,190.06398 C 93.530736,188.81186 93.761726,187.92159 93.065136,187.49108 C 91.142746,186.30298 91.947296,183.37549 94.999996,180.45082 C 98.138926,177.44354 98.843116,177.62791 96.787846,180.91891 C 95.023916,183.74342 95.999906,184.05607 101.45559,182.41415 C 107.19352,180.68729 111.38315,180.55032 114.09375,182.00099 C 116.52513,183.30223 115.71881,184.95155 112.999,184.24031 C 110.38826,183.55758 110.43055,185.43855 113.06747,187.28553 C 114.20458,188.08199 115.94209,190.245 116.92861,192.09223 C 118.2892,194.63992 119.48012,195.52648 121.86113,195.76418 C 123.60819,195.93859 125,195.60603 125,195.01418 C 125,193.82674 127.98167,193.51856 128.0318,194.70082 C 128.0493,195.11332 128.7243,196.32433 129.5318,197.39195 C 130.95333,199.27137 131.04283,199.27451 132.34736,197.49046 C 134.18737,194.97409 135.29569,197.08364 133.48889,199.66322 C 131.56152,202.41493 128.67981,203.01615 125.44985,201.34042 C 121.94802,199.52365 119.48736,199.58538 116.46482,201.56583 C 113.78225,203.32352 113.03876,201.99346 115.54238,199.91565 C 116.68064,198.97097 116.7901,198.34937 115.96014,197.5432 C 115.14002,196.7466 114.11317,197.29242 112.16775,199.55904 C 110.70049,201.26857 108.825,202.92054 108,203.2301 C 106.84772,203.66245 106.92499,203.81123 108.33333,203.87187 C 109.34167,203.91529 109.98169,204.51332 109.75561,205.20082 C 109.14474,207.05847 101.58701,207.36306 100.11497,205.58935 z M 109,196.83424 C 109,196.18548 107.96311,195.91588 106.52514,196.19076 C 104.94235,196.49333 103.46523,196.01739 102.42718,194.87036 C 100.1867,192.39466 101.52654,190.68792 105.0952,191.47173 C 108.42218,192.20246 108.79111,191.11863 106.25,188.07924 C 104.58228,186.0845 104.34719,186.06165 101.25,187.59335 C 97.544316,189.42598 96.867976,193.04247 99.654986,196.12208 C 101.49589,198.15625 109,198.72812 109,196.83424 z M 41,201.96424 C 41,200.72513 47.513116,197.95082 50.422116,197.95082 C 51.619956,197.95082 53.064756,197.48606 53.632806,196.91801 C 54.200846,196.34997 56.306306,195.73798 58.311616,195.55804 C 60.316916,195.3781 62.661226,194.64694 63.521186,193.93323 C 64.543646,193.08467 65.424346,192.97517 66.066006,193.61683 C 67.778306,195.32913 63.885716,197.57142 55.999996,199.41527 C 51.874996,200.37978 47.718606,201.56986 46.763566,202.05987 C 44.442936,203.25057 41,203.19344 41,201.96424 z M 68.499996,193.95082 C 67.662956,192.59646 68.792426,190.95082 70.559016,190.95082 C 71.351556,190.95082 71.999996,191.85082 71.999996,192.95082 C 71.999996,195.02113 69.587486,195.71042 68.499996,193.95082 z M 108,237.95082 C 107.175,237.41766 106.05,236.98145 105.5,236.98145 C 104.95,236.98145 105.175,237.41766 106,237.95082 C 106.825,238.48398 107.95,238.92019 108.5,238.92019 C 109.05,238.92019 108.825,238.48398 108,237.95082 z M 126,236.95082 C 127.1208,236.2265 126.5836,235.97757 123.875,235.96613 C 121.88125,235.95771 118.73125,235.7215 116.875,235.44122 L 113.5,234.93162 L 116.5,236.39611 C 119.99357,238.10156 123.86919,238.32785 126,236.95082 z M 82.139216,231.91755 C 80.840776,230.83585 79.103426,229.95082 78.278426,229.95082 C 77.236876,229.95082 77.499956,230.55192 79.139216,231.91755 C 80.437646,232.99925 82.174996,233.88428 82.999996,233.88428 C 84.041546,233.88428 83.778466,233.28319 82.139216,231.91755 z M 176,206.11134 C 176,205.64962 174.875,204.75927 173.5,204.13277 C 172.125,203.50628 171,202.5698 171,202.05171 C 171,201.53362 169.65516,200.81435 168.01147,200.45334 C 166.36777,200.09232 164.76622,199.38157 164.45245,198.87388 C 163.58071,197.46338 168.16291,197.78727 171.15333,199.34752 C 177.304,202.55666 186.51778,204.54009 187.54602,202.87636 C 187.86063,202.36731 186.99303,201.95082 185.61803,201.95082 C 183.11051,201.95082 181.25938,200.3581 182.41907,199.19842 C 182.7597,198.85779 184.98098,198.67964 187.35523,198.80254 C 192.78749,199.08374 196.09031,197.83757 200.12042,193.98618 C 201.86733,192.31673 203.64319,190.95082 204.06675,190.95082 C 205.14748,190.95082 209.23702,184.1464 208.83271,183.02095 C 208.47161,182.01577 200.48849,185.35141 199.52526,186.90994 C 199.20114,187.43438 198.19724,187.58 197.29437,187.23354 C 196.06429,186.76151 195.81231,187.01931 196.28915,188.26196 C 197.25484,190.7785 193.41208,192.29389 186.68084,192.05098 C 182.77044,191.90987 181.03067,192.19144 181.46552,192.89503 C 181.8244,193.47571 183.06648,193.95082 184.22568,193.95082 C 188.22073,193.95082 184.93793,195.33741 180.30571,195.60654 C 177.75285,195.75486 175.35543,196.37572 174.97812,196.98623 C 174.23977,198.18089 167.91309,197.41826 164.67595,195.74438 C 163.24262,195.00323 162.73954,195.23081 162.32741,196.80681 C 162.01177,198.0138 161.24487,198.59828 160.40146,198.27463 C 156.98673,196.96428 159.50004,199.77608 164.75,203.13963 C 170.05144,206.53617 176,208.10749 176,206.11134 z M 189,187.95082 C 189,187.40082 187.875,186.95082 186.5,186.95082 C 185.125,186.95082 184,187.40082 184,187.95082 C 184,188.50082 185.125,188.95082 186.5,188.95082 C 187.875,188.95082 189,188.50082 189,187.95082 z M 148.85325,179.06268 C 149.86862,178.41927 149.94272,177.71232 149.15005,176.23119 C 147.85188,173.80553 149.36452,171.95082 152.64098,171.95082 C 153.87352,171.95082 155.14247,171.52932 155.46086,171.01414 C 155.77926,170.49897 157.26831,169.45676 158.76988,168.69811 C 162.75741,166.68346 166.4274,164.53401 167,163.87788 C 167.275,163.56276 168.33022,162.99799 169.34494,162.62283 C 170.35966,162.24767 171.40722,161.10962 171.67285,160.09383 C 171.93849,159.07804 173.6519,157.53351 175.48043,156.66154 C 177.30896,155.78958 180.26731,153.25655 182.05453,151.03259 C 185.52226,146.71746 187.19043,146.4888 193,149.53229 C 201.37126,153.91777 202.79956,154.22218 209.99465,153.15428 C 218.35129,151.91397 226.88034,147.81373 231.50823,142.81187 C 233.37018,140.79947 235.48003,138.94408 236.19679,138.68879 C 236.91356,138.4335 237.17475,137.87527 236.77722,137.44828 C 236.37969,137.02128 234.52469,137.83872 232.655,139.2648 C 230.78531,140.69088 227.16542,142.38398 224.61079,143.02724 C 222.05616,143.6705 219.7221,144.59146 219.42398,145.07382 C 218.79851,146.08585 210.35417,146.11577 204.49868,145.1267 C 199.91347,144.3522 195.95994,141.8836 195.62248,139.58439 C 195.49529,138.71777 195.0782,137.69568 194.69561,137.3131 C 193.48634,136.10383 193.94265,133.95082 195.40822,133.95082 C 197.34976,133.95082 204.62536,126.48618 209.8118,119.17301 C 212.18329,115.82908 214.77079,112.55601 215.5618,111.89953 C 216.35281,111.24305 217,110.05594 217,109.2615 C 217,108.46706 219.05105,103.57216 221.55789,98.383942 C 225.69934,89.812672 227.9217,87.397072 229.42621,89.831422 C 231.1945,92.692572 239.01686,91.204112 244.45411,86.971862 C 250.44253,82.310602 260.71287,68.950822 258.3078,68.950822 C 257.8567,68.950822 255.03888,71.487682 252.04596,74.588292 C 243.52513,83.415742 234.44491,86.395732 229.90411,81.854932 C 228.26328,80.214102 227.92927,78.965662 228.36574,76.104932 C 228.67238,74.095172 229.18742,70.650822 229.51028,68.450822 C 229.83315,66.250822 230.31402,63.418272 230.57889,62.156262 C 230.84376,60.894252 234.64372,56.263982 239.02324,51.866762 C 243.53226,47.339522 247.88283,41.903172 249.05368,39.332982 C 251.63631,33.663762 255.1005,18.130972 253.94194,17.414942 C 253.4684,17.122282 252.10702,19.035622 250.91665,21.666822 C 248.40634,27.215612 241.54209,41.219752 239.41019,45.141772 C 238.6057,46.621792 237.05929,48.114612 235.97374,48.459162 C 234.88818,48.803702 234,49.505272 234,50.018212 C 234,51.398882 227.62291,51.149892 225.87116,49.700822 C 223.73953,47.937512 221,43.309882 221,41.472432 C 221,40.620622 220.59627,39.142292 220.10283,38.187252 C 219.60939,37.232212 218.73985,35.325822 218.17051,33.950822 C 217.25603,31.742242 217.12819,32.033662 217.07384,36.450822 C 217.04001,39.200822 217.68455,42.739762 218.50616,44.315132 C 219.32777,45.890502 220,47.602682 220,48.119992 C 220,48.637302 220.93505,51.113112 222.07789,53.621802 C 224.01574,57.875652 224.08614,58.933432 223.12238,69.316942 C 221.64919,85.189022 220.43205,88.524802 209.75561,105.95082 C 207.18138,110.15246 197.38531,122.5022 191.06441,129.5145 C 188.55399,132.29953 185.78808,135.44953 184.91794,136.5145 C 184.04781,137.57948 181.95104,139.65551 180.25844,141.1279 C 178.56585,142.60029 176.80277,144.46405 176.3405,145.26959 C 174.96846,147.66043 163.7193,153.94547 160.80716,153.94825 C 155.93958,153.9529 151.37988,150.37925 150.00982,145.48589 C 148.12495,138.75381 149.14968,120.62884 151.73617,114.95082 C 154.59003,108.68586 155.46996,105.54233 154.13964,106.36452 C 152.81073,107.18583 147,119.21422 147,121.14379 C 147,121.91766 146.47243,123.07839 145.82763,123.72319 C 144.63215,124.91867 144.32034,126.62142 143.68,135.45082 C 143.29286,140.789 144.76652,147.77188 147.39011,153.03099 C 149.50409,157.26857 149.42089,159.12193 147,161.72045 C 145.9,162.90116 145,164.34715 145,164.93376 C 145,167.03252 139.72776,168.17373 135.88035,166.90776 C 132.97255,165.95097 131.69665,165.98708 129.39258,167.09139 C 125.83431,168.79682 125.44624,170.74648 128.04776,173.84769 L 130.05843,176.24455 L 132.34367,174.09769 C 135.24943,171.36787 138.08399,171.09555 135.65499,173.77956 C 132.37184,177.40739 134.54343,179.57898 138.17126,176.29583 C 139.89928,174.73199 140,174.78707 140,177.29583 C 140,179.69987 140.35445,179.94937 143.75,179.93551 C 145.8125,179.92709 148.10896,179.53431 148.85325,179.06268 z M 150.17965,164.66728 C 149.45126,163.78963 149.43661,162.92001 150.13333,161.91728 C 150.90517,160.80645 151.27526,160.75395 151.65946,161.70082 C 151.93843,162.38832 153.08427,162.95082 154.20578,162.95082 C 155.90494,162.95082 156.03735,163.20089 155,164.45082 C 153.47375,166.28984 151.59622,166.37415 150.17965,164.66728 z M 124.44132,162.88598 C 123.03385,161.33074 122.66162,159.32835 122.74061,153.7369 C 122.82891,147.48588 123.13687,146.35176 125.17086,144.78705 C 126.45189,143.80158 126.9375,142.98529 126.25,142.97306 C 124.12707,142.93529 124.86769,139.95082 127,139.95082 C 128.1,139.95082 129,139.50082 129,138.95082 C 129,138.40082 128.13141,137.95082 127.06981,137.95082 C 125.36843,137.95082 125.24988,137.56633 126.06981,134.70742 C 126.58141,132.92355 127,128.19855 127,124.20742 C 127,120.03635 127.4252,116.95082 128,116.95082 C 129.3805,116.95082 129.26406,114.20551 127.86376,113.73874 C 127.05558,113.46935 127.12503,112.72348 128.10431,111.15541 C 129.20291,109.39626 129.23494,108.55666 128.26279,107.00001 C 127.27214,105.41372 127.33397,104.75971 128.59367,103.50001 C 129.44572,102.64795 130.67321,101.9223 131.32143,101.88743 C 131.96964,101.85257 131.54696,101.43907 130.38213,100.96854 C 128.3157,100.1338 128.27109,99.655582 128.54553,81.281922 C 128.80513,63.901452 129.03407,61.834552 131.5174,54.450822 C 132.99723,50.050822 134.6735,45.576492 135.24245,44.507862 C 138.68884,38.034702 148.3091,33.369042 154.61807,35.111032 C 159.21138,36.379312 167.87759,35.501812 169.80625,33.573142 C 171.95767,31.421722 170.5722,30.369082 167.45717,31.788382 C 163.58041,33.554752 156.85823,33.181732 154.08002,31.046062 C 151.83054,29.316852 151.75279,28.961852 152.97658,26.007372 C 153.85448,23.887912 156.54293,21.360322 161.04583,18.420902 C 167.40891,14.267202 172.03649,8.9350923 171.97069,5.8327923 C 171.9542,5.0555523 170.66476,5.8537923 169.02395,7.6569823 C 167.41937,9.4203723 163.81758,12.023042 161.01998,13.440692 C 151.52926,18.250012 145.51672,22.706842 139,29.763162 C 129.71887,39.812792 127,43.441552 127,45.779052 C 127,46.908602 126.56474,48.101792 126.03275,48.430582 C 125.50077,48.759362 125.3211,50.306342 125.6335,51.868312 C 126.41476,55.774642 124.55844,56.551272 121.09494,53.767122 C 117.28119,50.701432 114.00369,43.378672 113.98469,37.881072 C 113.97383,34.739142 113.69731,33.881072 113.0338,34.930362 C 111.25889,37.737282 110.84303,43.877832 112.03656,49.655672 C 113.01667,54.400322 113.9829,56.144572 117.36683,59.277942 L 121.5,63.105052 L 121.79714,81.277942 C 121.96057,91.273022 122.18557,101.69323 122.29714,104.43395 C 122.49283,109.24091 122.39437,109.43562 119.51221,109.94165 C 115.85345,110.58404 115.08704,113.29663 117.71855,116.29003 C 119.30565,118.09539 119.59961,119.93125 119.50559,127.45082 C 119.44371,132.40082 119.01865,139.15082 118.56103,142.45082 C 117.16163,152.54219 115.30685,153.20877 108.12655,146.20082 C 103.79548,141.97371 103.12942,140.73528 102.07591,134.95082 C 101.09604,129.57064 101.16967,126.73869 102.50329,118.51271 C 103.38944,113.04676 104.34277,108.20523 104.62179,107.75377 C 105.45805,106.40066 103.9642,102.95082 102.54202,102.95082 C 101.81425,102.95082 100.95898,104.41332 100.64142,106.20082 C 100.32385,107.98832 99.381996,113.27582 98.548416,117.95082 C 95.787556,133.43459 95.705316,135.16241 97.445066,141.13 C 98.355686,144.25354 99.968036,147.91177 101.02808,149.25939 C 103.29341,152.13929 110.92737,155.95082 114.43008,155.95082 C 117.75732,155.95082 118.35742,157.31738 115.97642,159.47216 C 113.06765,162.10456 113.4896,163.95082 117,163.95082 C 120.3032,163.95082 121.25655,166.4758 118.25,167.26149 C 116.95076,167.60102 117.08764,167.7487 118.78138,167.83482 C 120.03615,167.89862 121.33737,168.66642 121.673,169.54104 C 122.15461,170.79611 122.70052,170.47218 124.26319,168.00412 C 126.17314,164.98756 126.17944,164.80658 124.44132,162.88598 z M 99.348416,167.68532 C 100.93668,166.52395 100.79455,166.14402 97.621086,163.06818 C 95.719186,161.22479 93.272456,159.20676 92.183916,158.58369 C 91.095376,157.96061 88.529466,156.11856 86.481886,154.49023 L 82.759026,151.52965 L 80.440016,154.22566 C 78.586656,156.38031 78.234436,157.67759 78.685896,160.68624 C 78.996576,162.75676 79.869356,165.10975 80.625386,165.91511 C 81.800666,167.16705 81.999996,166.42991 81.999996,160.83177 C 81.999996,157.23058 82.313756,153.97039 82.697236,153.58691 C 83.080726,153.20343 84.093226,154.72068 84.947236,156.95859 C 85.969126,159.6364 88.209426,162.35428 91.499996,164.90825 C 97.296906,169.40752 97.092216,169.33509 99.348416,167.68532 z M 114.72278,130.81134 C 115.17273,123.51051 115.00114,122.24045 113.36902,120.79107 C 112.34106,119.87821 110.61761,118.97821 109.53914,118.79107 C 107.96666,118.51821 107.45535,119.18008 106.95763,122.13271 C 105.83922,128.76744 106.70214,135.72377 109.05313,139.02543 C 112.3929,143.71571 114.07795,141.27444 114.72278,130.81134 z M 99.187496,103.26771 C 98.465626,102.97884 97.603116,103.01436 97.270826,103.34665 C 96.938536,103.67894 97.529166,103.91529 98.583326,103.87187 C 99.748276,103.82389 99.985226,103.58693 99.187496,103.26771 z M 96.970746,98.486072 C 97.947766,97.308822 97.763106,96.426882 96.029956,93.992892 C 94.843916,92.327262 94.153536,90.511402 94.495776,89.957642 C 94.838016,89.403892 94.745696,88.950822 94.290626,88.950822 C 93.835556,88.950822 92.695976,87.713322 91.758226,86.200822 L 90.053216,83.450822 L 90.020576,86.450822 C 89.987906,89.453522 93.945356,99.901602 95.127556,99.933752 C 95.472706,99.943142 96.302146,99.291682 96.970746,98.486072 z"
      />
 </g>
</svg>
