<?xml version="1.0" encoding="UTF-8"?>
<!-- Generator: Adobe Illustrator 18.1.0, SVG Export Plug-In . SVG Version: 6.00 Build 0)  -->
<svg version="1.1" xmlns="http://www.w3.org/2000/svg" xmlns:xlink="http://www.w3.org/1999/xlink" x="0px" y="0px" viewBox="0 0 1611.72 1106.714" enable-background="new 0 0 1611.72 1106.714" xml:space="preserve">
<defs>
   <linearGradient id="colour1">
     <stop offset="100%" stop-color="green"/>
   </linearGradient>
 </defs>
<g>
		<path fill-rule="evenodd" clip-rule="evenodd" fill="url(#colour1)" d="M43.737,50.598c4.629-0.793,8.556-1.339,13.223-1.875    c7.442-0.856,13.769-1.225,21.262-1.254c4.638,0.285,8.551,0.572,13.18,0.961c11.654,0.974,21.716,2.875,33.253,5.872    c1.39,15.22,2.177,28.107,2.646,43.383c0.262,8.968,0.693,16.538,0.918,25.508c0.247,9.846,0.601,18.161,0.601,28.011v89.207    c0,21.366-0.547,39.404-1.371,60.754c-0.794,20.362-2.338,41.552-4.315,61.864l-49.314,9.733v20.559h171v-20.592L194.585,363    c-0.718-8.171-1.27-15.079-1.702-23.271c-0.621-11.453-1.097-21.125-1.524-32.585c-0.001-0.034,0.091-0.062,0.089-0.096    c-1.166-25.025-1.628-46.176-1.628-71.229V130.115c0-6.066,0.29-11.189,0.401-17.26c0.369-20.718,1.241-37.264,2.801-58.759    c6.283-1.754,15.089-3.786,21.968-5.042c4.711-0.839,8.714-1.153,13.49-1.453c5.43-0.34,10.011-0.281,15.451-0.281    c0.025,0,0.045,0,0.069,0c9.56,0,19.777,0.297,29.247,2.063l14.879,58.937h21.61L303.229,7.924    c-9.234,1.137-17.027,2.207-26.255,3.393c-2.912,0.371-5.381,0.716-8.308,1.056c-6.574,0.765-15.465,1.314-22.621,1.635    c-5.064,0.225-9.344,0.312-14.413,0.312H58.995c-2.816,0-5.195-0.104-7.997-0.388c-3.059-0.305-5.634-0.627-8.668-1.123    c-5.14-1.067-9.516-1.785-14.725-2.437l-14.09-1.921L7.938,110.32h21.4L43.737,50.598z"/>
		<path fill-rule="evenodd" clip-rule="evenodd" fill="url(#colour1)" d="M482.82,372.63l-50.372-9.145    c-0.981-9.592-1.929-17.701-2.668-27.315c-1.013-13.319-1.961-26.922-1.961-40.35v-44.861c0-7.366,0.308-13.584,0.716-20.938    c0.236-0.02,0.495-0.035,0.733-0.053c5.456-0.377,12.362-0.494,17.853,0.165c1.949,0.234,5.748,0.86,7.645,1.829    c2.243,1.301,4.018,2.62,5.906,4.396c2.413,2.261,4.338,4.296,6.456,6.836c2.755,3.714,4.97,6.933,7.449,10.837    c7.02,11.014,13.054,21.459,19.208,32.722l12.271,22.364c5.331,9.717,9.919,17.871,15.453,27.472    c2.051,3.557,3.771,6.565,5.795,10.137c4.224,7.756,8.351,14.004,13.826,20.932c3.062,3.85,5.963,6.781,9.702,9.976    c12.887,11.049,28.336,15.689,44.833,15.689h44.155v-22.3l-9.98-0.071c-2.012-0.014-3.674-0.334-5.554-1.05    c-2.464-0.944-4.421-2.018-6.555-3.569c-2.441-1.764-4.372-3.421-6.497-5.554c-2.435-2.447-4.365-4.632-6.504-7.34    c-0.039-0.049-0.069-0.09-0.109-0.14c-2.46-3.015-5.289-7.113-7.529-10.643c-2.796-4.423-5.107-8.188-7.782-12.685    c-0.021-0.035-0.038-0.063-0.059-0.097c-4.24-6.967-7.702-12.92-11.661-20.051c-4.209-7.562-7.702-13.979-11.768-21.617    l-10.957-19.658c-4.488-8.025-8.21-14.839-12.535-22.953c-0.69-1.296-6.691-10.696-7.641-12.169    c-1.447-2.244-2.698-4.119-4.217-6.315c-1.774-2.577-3.349-4.7-5.298-7.146c-2.627-3.313-5.099-5.912-8.275-8.7    c1.557-0.802,2.851-1.52,4.356-2.415c2.842-1.69,5.186-3.211,7.888-5.118c0.195-0.139,0.357-0.261,0.543-0.411    c5.476-4.446,9.666-8.744,13.971-14.332c4.622-5.973,7.992-11.436,11.257-18.247c0.046-0.097,0.084-0.178,0.128-0.276    c3.213-7.258,5.264-13.687,6.849-21.464c1.708-8.392,2.426-15.633,2.4-24.197c-0.012-3.825-0.224-7.053-0.711-10.847    c-0.504-3.959-1.087-7.282-1.959-11.177c-1.748-7.745-3.623-14.198-6.298-21.675c-3.333-9.332-7.303-16.82-13.156-24.818    c-5.914-8.097-13.039-15.41-20.856-21.728c-4.533-3.663-8.686-6.395-13.875-9.046c-15.995-8.164-34.066-11.191-51.878-11.191    H314.82v20.925l47.888,8.485c0.763,7.417,1.312,13.688,1.862,21.123c0.784,10.561,1.307,19.487,1.767,30.068l0.866,31.184    c0.281,12.388,0.617,22.85,0.617,35.239v75.552c0,11.286-0.426,20.813-0.779,32.091c-0.361,11.473-0.782,21.157-1.209,32.628    c-0.753,20.437-1.908,41.587-3.778,61.969l-47.233,9.138v20.598h168V372.63z M427.82,165.111v-40.26    c0-7.344-0.016-13.545,0.318-20.882c0.666-14.363,1.303-26.48,2.383-40.817c0.371-4.99,0.684-9.199,1.168-14.178    c3.075-0.231,5.653-0.326,8.737-0.323c3.386,0.014,6.238,0.388,9.515,1.243c3.826,1.015,6.979,2.157,10.569,3.823    c7.904,4.307,13.922,9.198,19.757,16.053c3.275,3.826,5.74,7.317,8.254,11.681c2.785,4.874,4.806,9.181,6.776,14.437    c0.031,0.081,0.058,0.15,0.09,0.231c1.885,4.674,3.32,10.216,4.121,15.371c0.977,6.401,1.31,11.877,1.31,18.353    c0,0.039,0,0.071,0,0.11c0,5.856-0.27,10.803-1.053,16.606c-0.811,5.906-2.17,11.549-4.385,17.03    c-0.034,0.083-0.055,0.152-0.087,0.237c-3.727,9.917-9.647,17.331-18.495,23.158c-0.045,0.029-0.082,0.054-0.126,0.085    c-7.543,5.133-15.873,7.8-24.773,8.903c-3.638,0.442-6.732,0.626-10.397,0.617c-3.576,0.001-6.595-0.073-10.168-0.246    c-1.101-0.06-2.031-0.123-3.13-0.213c-0.154-3.713-0.075-6.85-0.21-10.565C427.74,178.376,427.82,172.305,427.82,165.111z"/>
		<path fill-rule="evenodd" clip-rule="evenodd" fill="url(#colour1)" d="M815.82,372.628l-49.835-9.107l-0.035-1.606    c-0.739-9.039-1.287-16.67-1.955-25.714c-0.238-6.806-0.456-12.552-0.789-19.354c-0.651-13.196-1.055-24.343-1.389-37.552    c-0.214-9.686-0.359-17.861-0.65-27.544c-0.235-7.395-0.348-13.64-0.348-21.037v-54.255c0-14.952,0.577-34.533,1.068-50.747    l-0.029-0.031c0.456-16.298,0.944-30.053,1.683-46.34c0.55-12.364,1.099-22.791,2.299-35.11l49.98-9.005V14.32h-171v20.91    l50.419,9.009c1.773,18.168,3.305,39.139,4.061,58.044c0.969,24.474,1.52,45.154,1.52,69.647v41.469    c0,29.458-0.615,54.329-1.71,83.767c-0.494,12.072-1.088,22.258-1.845,34.317c-0.691,11.099-1.59,20.46-2.667,31.528    l-49.778,9.732v20.577h171V372.628z"/>
		<path fill-rule="evenodd" clip-rule="evenodd" fill="url(#colour1)" d="M879.676,272.007c-0.217,9.1-0.444,16.781-0.744,25.88    c-0.326,10.294-0.763,18.982-1.451,29.258c-0.005,0.097-0.012,0.178-0.017,0.275c-0.497,12.483-1.242,23.011-2.505,35.44    l-46.038,8.092l-7.663,22.368h168.157l15.641-19.789l-58.708-10.727c-0.326-2.694-0.558-4.955-0.797-7.657l-1.392-16.255    c-0.647-15.66-1.139-28.88-1.671-44.545c-0.74-21.539-0.59-37.245-0.59-58.331c13.23,2.663,24.633,3.798,38.126,3.786    c9.505,0.001,18.683-1.13,27.763-3.622c10.664-2.928,19.268-6.949,28.358-13.244c8.128-5.321,14.409-10.74,20.866-18.003    c7.072-7.965,12.112-15.544,16.723-25.149c4.625-8.927,7.605-16.961,9.923-26.748c2.524-10.716,3.581-20.031,3.528-31.04    c0.011-6.812-0.367-12.567-1.262-19.321c-0.988-7.551-2.416-13.857-4.775-21.099c-1.697-6.115-3.611-11.149-6.406-16.849    c-3.197-6.506-6.514-11.705-11.066-17.344c-6.938-8.91-14.404-15.238-24.328-20.629c-7.89-4.284-15.04-7.03-23.773-9.127    c-4.879-1.174-9.049-1.918-14.026-2.582c-9.282-1.245-18.812-1.724-28.219-1.724H823.426l3.783,22.256l48.613,8.197    c2.468,31.641,3.188,48.568,3.332,51.78c0.491,11.474,0.838,21.16,1.143,32.639c0.348,12.982,0.523,23.943,0.523,36.931v58.888    C880.82,236.238,880.055,257.291,879.676,272.007z M943.044,90.499c0.709-15.729,1.235-26.907,2.285-41.291    c6.193-1.292,13.611-1.888,20.12-1.888c0.037,0,0.067,0,0.109,0c4.263,0,7.864,0.425,12.034,1.312    c4.429,0.944,8.056,2.348,12.009,4.557c3.906,2.216,6.922,4.611,9.99,7.888c3.508,3.776,6.059,7.37,8.481,11.923    c0.057,0.106,0.108,0.201,0.165,0.306c5.351,9.288,8.931,17.689,11.926,27.981c3.249,11.319,4.642,21.29,4.615,33.065    c-0.021,15.229-2.204,31.379-10.255,44.688c-0.098,0.168-0.181,0.312-0.273,0.485c-2.918,5.48-6.027,9.775-10.322,14.256    c-4.662,4.832-9.339,8.223-15.377,11.149c-5.635,2.747-10.638,4.574-16.711,6.099c-8.434,2.056-15.877,2.704-24.538,2.146    c-1.925-0.123-3.481-0.329-5.481-0.69v-67.506C941.82,125.817,942.154,109.639,943.044,90.499z"/>
		<path fill-rule="evenodd" clip-rule="evenodd" fill="url(#colour1)" d="M1358.645,284.32h-21.472l-21.477,68.674    c-4.149,1.079-9.257,1.849-13.67,2.348c-0.217,0.024-0.398,0.02-0.615,0.057c-21.689,3.81-40.646,3.712-62.299-0.283    c-10.172-1.902-18.488-4.187-28.241-7.638c-1.723-23.46-2.051-48.06-2.051-71.84V170.236c0-24.661,0.369-45.481,1.544-70.114    c0-0.04-0.077-0.074-0.071-0.114c0.574-15.809,1.781-39.76,3.598-55.755l49.93-9.045V14.32h-171v20.892l49.885,9.039    c0.941,8.54,1.47,15.779,1.78,24.365c0.006,0.169,0.016,0.313,0.031,0.482c0.631,7.629,1.03,14.082,1.347,21.73    c0.342,8.313,0.59,15.333,0.843,23.649c0.243,7.715,0.153,14.23,0.241,21.95c0.082,8.753-0.127,16.143-0.127,24.896v61.647    c1,15.776-0.049,29.098-0.871,44.852c-0.006,0.097,0.106,0.18,0.102,0.277c-0.259,10.34-0.457,19.067-0.787,29.406    c-0.368,11.442-0.723,21.1-1.261,32.537c-0.377,6.46-0.776,11.907-1.372,18.349c-0.496,5.479-1.25,10.095-2.037,15.54    l-48.773,8.665v20.723h255.896L1358.645,284.32z"/>
		<path fill-rule="evenodd" clip-rule="evenodd" fill="url(#colour1)" d="M1582.938,296.32l-15.816,60.194    c-26.382,2.574-58.393,2.369-84.293-4.91c-0.776-12.086-1.278-20.369-1.309-31.632c0-0.116,0-0.216-0.006-0.333    c-0.714-20.17-1.133-37.92-1.144-57.426c0-0.106,0-0.197-0.005-0.303c-0.491-16.285-0.196-30.059,0.988-46.308    c12.05-1.534,25.75-2.205,38.23-2.18c10.445,0.025,19.267,0.77,29.636,2.026l9.179,44.87h21.422v-125h-21.34l-9.178,42.592    c-11.518,1.36-25.42,2.428-37.542,2.385c-7.611-0.027-21.498-0.853-30.324-1.495c-0.337-5.647-0.544-10.413-0.698-16.068    c-0.616-23.953-0.518-44.187,0.336-68.132c0.476-14.148,1.216-26.08,2.499-40.178c11.113-2.531,24.426-3.869,36.025-4.341    c14.679-0.596,32.048-0.154,46.177,0.905l14.136,60.332h22.3l-6.442-97H1363.82v20.995l50.068,8.469    c1.283,13.633,2.012,25.176,2.523,38.861c0.006,0.14-0.003,0.259,0.008,0.4c1.189,15.445,1.669,28.527,1.628,44.019    c0,0.158,0.075,0.291,0.081,0.448c0.486,11.669,0.691,21.528,0.691,33.207v91.669c-1,7.254-0.731,13.381-0.984,20.64    l-0.834,21.945c-0.254,7.658-0.516,14.121-0.837,21.776c-0.356,8.542-0.79,15.748-1.452,24.271    c-0.01,0.132-0.025,0.245-0.03,0.376c-0.279,6.718-1.057,15.611-1.905,22.569l-48.957,8.621v20.736h234.769l5.748-97H1582.938z"/>
		<path fill-rule="evenodd" clip-rule="evenodd" fill="url(#colour1)" d="M279.131,721.174c-2.156,3.591-4.079,6.561-6.472,9.996    c-2.627,3.777-5.013,6.851-8.022,10.327c-2.936,3.399-5.624,6.09-9.02,9.033c-3.62,3.131-6.962,5.454-11.157,7.761    c-6.495,3.275-12.279,5.459-19.318,7.291c-7.749,1.982-14.516,2.819-22.512,2.799c-14.853-0.026-29.209-3.575-42.307-10.602    c-0.04-0.025-0.075-0.041-0.116-0.062c-7.189-3.74-12.927-7.554-19.155-12.737c-6.889-5.749-12.226-11.191-17.837-18.197    c-5.79-7.522-10.089-14.337-14.386-22.801c-4.706-9.277-7.957-17.482-10.885-27.458c-0.021-0.072-0.039-0.135-0.062-0.207    c-3.38-10.684-5.495-19.95-7.09-31.043c-1.749-12.221-2.474-22.646-2.437-34.991c0.056-27.748,3.323-55.531,13.293-81.555    c0.027-0.069,0.048-0.127,0.074-0.197c3.6-10.004,8.017-19.106,13.793-27.845c6.586-9.978,13.595-17.486,23.095-24.743    c8.393-6.194,16.377-10.25,26.33-13.371c5.273-1.656,9.837-2.702,15.305-3.512c6.065-0.893,11.244-1.266,17.375-1.253    c9.311,0.01,17.173,0.486,26.418,1.602c9.495,1.85,17.525,3.343,27.052,5.033c4.596,1.057,8.458,1.877,13.011,3.107l12.91,56.772    h20.595l-2.69-105.915l-12.31,3.203c-1.212,0.309-2.25,0.543-3.492,0.702c-1.577,0.208-2.912,0.37-4.498,0.504    c-3.303,0.261-6.099,0.424-9.411,0.527c-6.612,0.206-12.199,0.288-18.816,0.27c-6.36-0.031-11.729-0.217-18.076-0.629    c-6.712-0.43-12.373-0.892-19.065-1.563c-0.322-0.034-0.595-0.047-0.919-0.05c-1.943-0.019-3.583-0.083-5.522-0.218    c-2.75-0.195-5.077-0.293-7.833-0.332c-2.748-0.346-5.084-0.514-7.853-0.565c-1.094-0.234-2.033-0.359-3.151-0.423    c-2.752-0.177-5.509-0.172-8.265-0.171c-21.949-0.064-40.604,4.457-60.089,14.56c-9.67,5.016-17.372,10.173-25.691,17.206    c-9.049,7.662-15.988,14.981-23.159,24.426c-7.294,9.538-12.7,18.18-18.085,28.912c-5.817,11.587-9.942,21.774-13.828,34.144    c-0.028,0.095-0.053,0.173-0.079,0.269c-7.69,27.076-10.993,50.892-10.966,79.043c0.007,11.311,0.691,20.866,2.295,32.062    c1.766,12.293,4.01,22.574,7.53,34.484c2.861,10.942,6.137,19.966,10.962,30.194c5.355,11.326,10.741,20.489,18.03,30.677    c0.031,0.046,0.058,0.082,0.091,0.124c6.751,9.157,13.234,16.328,21.673,23.96c9.392,8.48,18.247,14.643,29.459,20.51    c10.996,5.841,20.959,9.54,33.104,12.282c6.262,1.423,11.622,2.318,18.008,3.001c6.912,0.734,12.783,1.04,19.734,1.024    c4.733-0.021,8.729-0.196,13.444-0.585c4.703-0.352,8.67-0.709,13.362-1.189c4.28-0.398,7.893-0.761,12.167-1.211    c3.506-0.362,9.053-0.936,13.159-0.941c2.955,0,8.479,0.336,12.125,0.615c7.143,0.554,13.17,1.056,20.306,1.686l32.648-81.126    l-17.223-11.858L279.131,721.174z"/>
		<path fill-rule="evenodd" clip-rule="evenodd" fill="url(#colour1)" d="M596.08,780.354c-2.177-0.922-3.908-1.961-5.747-3.446    c-2.199-1.77-3.937-3.415-5.823-5.516c-2.179-2.432-3.909-4.584-5.812-7.238c-0.133-0.181-0.25-0.336-0.393-0.512    c-2.462-3.012-5.152-6.964-7.31-10.482c-2.649-4.331-4.795-8.046-7.226-12.511c-2.365-4.594-4.397-8.454-6.84-13.007    c-5.389-10.043-9.842-18.569-15-28.731c-7.508-15.185-14.024-27.919-21.949-42.892c-1.251-2.365-5.251-9.23-6.636-11.585    c-2.825-4.821-5.334-8.821-8.447-13.462c-0.143-0.212-0.268-0.389-0.424-0.59c-2.627-3.368-5.1-6.018-8.281-8.873    c4.604-2.557,8.292-5.086,12.335-8.465c0.039-0.031,0.071-0.062,0.11-0.093c5.259-4.502,9.256-8.837,13.316-14.451    c4.312-5.966,7.351-11.444,10.123-18.264c1.624-3.446,2.795-6.452,3.931-10.089c1.249-4.01,2.091-7.461,2.827-11.595    c0.716-4.015,1.155-7.435,1.478-11.502c0.355-4.372,0.498-8.079,0.479-12.466c-0.045-7.749-0.732-14.295-2.292-21.885    c-1.595-7.819-3.424-14.327-6.136-21.832c-3.031-9.034-6.688-16.31-12.129-24.132c-5.547-7.996-12.071-15.136-19.35-21.534    c-4.129-3.636-7.939-6.346-12.73-9.053c-9.807-5.536-20.754-9.03-31.889-10.512c-6.136-0.819-11.367-1.317-17.558-1.317H306.82    v21.133l44.969,8.498c1.385,18.954,2.308,33.288,2.737,51.164c0.003,0.084-0.172,0.154-0.169,0.238    c1.098,23.09,1.462,42.604,1.462,65.716v75.715c0,11.336-0.018,20.902-0.347,32.228c-0.344,11.6-0.571,21.384-1.004,32.978    c-0.749,20.272-1.881,41.406-3.73,61.626l-43.919,9.685v21.019h158v-21.127l-46.806-9.665c-0.812-9.53-1.641-17.586-2.31-27.126    c-0.914-13.152-1.884-26.889-1.884-40.232v-45.406c0-7.187,0.34-13.256,0.753-20.427c5.13-0.408,11.22-0.486,16.345,0.15    c1.384,0.181,2.581,0.393,3.938,0.719c1.064,0.249,1.961,0.549,2.96,0.988c0.796,0.513,1.446,0.988,2.16,1.609    c1.133,0.973,2.058,1.837,3.102,2.902c2.19,2.245,3.965,4.217,5.97,6.633c5.109,7.694,9.049,14.446,13.233,22.678    c0.045,0.093,0.086,0.171,0.135,0.259c8.171,14.999,14.927,27.736,22.76,42.912c3.014,5.908,5.568,10.891,8.605,16.784    c1.719,3.342,3.191,6.147,4.954,9.463c2.076,3.947,3.922,7.233,6.212,11.062c1.815,3.575,3.441,6.55,5.473,10.006    c2.425,4.15,4.699,7.519,7.634,11.321c2.662,3.684,5.197,6.819,8.484,9.956c11.72,11.211,26.477,16.541,42.26,16.541h42.021    v-22.943l-10.057-0.066C599.068,781.3,597.644,781.005,596.08,780.354z M479.46,556.701c-1.005,6.266-2.43,11.471-4.755,17.379    c-0.078,0.197-0.14,0.367-0.206,0.569c-1.495,4.568-3.323,8.253-6.056,12.205c-1.436,2.049-2.786,3.689-4.528,5.489    c-1.948,2.013-3.723,3.586-5.95,5.277c-6.436,4.75-14.462,7.254-22.365,8.165c-3.433,0.383-6.352,0.543-9.806,0.543    c-3.391,0.016-6.256-0.005-9.648-0.062c-0.664-0.011-1.093-0.031-1.757-0.052c-0.42-10.84-0.568-20.111-0.568-30.64v-40.361    c0-7.313,0.025-13.486,0.329-20.792c0.323-7.836,0.614-14.448,1.133-22.275l1.071-18.77c0.283-5.066,0.553-9.341,0.949-14.402    c2.599-0.364,4.807-0.523,7.432-0.534c3.01,0.004,5.552,0.375,8.439,1.231c3.415,1.039,6.196,2.267,9.266,4.09    c0.068,0.04,0.127,0.075,0.197,0.114c7.185,4.05,13.326,9.384,18.401,15.878c6.45,8.238,10.699,16.166,13.991,26.096    c0.023,0.069,0.044,0.128,0.067,0.198c1.95,5.499,3.197,10.286,4.177,16.038C481.295,534.141,481.352,544.625,479.46,556.701z"/>
		<path fill-rule="evenodd" clip-rule="evenodd" fill="url(#colour1)" d="M881.302,549.391c-0.026-0.088-0.047-0.166-0.073-0.254    c-6.829-23.339-15.475-42.25-28.648-62.688c-6.421-9.944-12.815-17.726-21.332-25.945c-9.303-8.975-17.979-15.719-28.971-22.518    c-5.338-3.302-10.068-5.735-15.858-8.158c-18.287-7.658-38.112-10.674-57.851-10.634c-11.269-0.022-20.802,1.067-31.776,3.632    c-12.138,2.848-22.082,6.638-33.038,12.59c-10.048,5.229-18.026,10.649-26.59,18.063c-9.343,8.1-16.473,15.836-23.784,25.806    c-15.062,19.921-24.761,39.113-31.869,63.052c-3.751,11.604-6.169,21.647-8.11,33.682c-2.142,13.328-3.04,24.731-3.014,38.225    c0.031,14.875,1.286,27.442,4.196,42.027c1.486,7.56,3.018,13.887,5.152,21.286c2.333,8.092,4.59,14.844,7.593,22.713    c0.014,0.036,0.028,0.072,0.044,0.114c5.714,14.445,11.971,26.102,20.855,38.845c9.375,13.427,20.543,25.379,33.133,35.83    c12.731,10.627,25.195,17.632,40.898,22.972c16.315,5.552,33.133,7.916,50.212,7.911c11.606,0.025,21.423-1.098,32.724-3.741    c12.624-2.965,22.966-6.912,34.357-13.11c0.098-0.057,0.181-0.104,0.278-0.16c9.838-5.748,17.666-11.445,26.156-19.04    c9.318-8.351,16.478-16.2,23.944-26.237c0.078-0.108,0.146-0.201,0.223-0.311c13.643-19.914,22.667-38.498,29.874-61.538    c0.021-0.057,0.036-0.104,0.052-0.16c6.943-23.422,9.955-44.097,9.976-68.528c0-10.891-0.642-20.085-2.152-30.872    C886.284,570.567,884.318,560.789,881.302,549.391z M823.788,649.277c-1.257,11.543-3.326,22.802-6.437,33.931    c-0.01,0.041-0.02,0.072-0.03,0.114c-4.398,16.478-11.423,33.184-21.387,47.352c-4.166,5.856-8.123,10.497-13.248,15.542    c-5.558,5.469-10.88,9.463-17.683,13.276c-0.093,0.052-0.171,0.098-0.263,0.149c-5.132,3.084-9.826,5.339-15.591,6.943    c-6.482,1.774-12.173,2.735-18.894,2.735h-0.041c-11.807,0-22.87-3.507-33.047-9.183c-4.122-2.308-7.463-4.62-11.212-7.491    c-0.071-0.057-0.132-0.163-0.204-0.214c-4.052-2.944-7.247-5.773-10.7-9.4c-3.872-4.077-6.88-7.786-10.083-12.406    c-3.258-4.698-5.783-8.823-8.488-13.857c-2.974-5.546-5.269-10.347-7.716-16.142c-2.658-6.664-4.56-12.435-6.391-19.373    c-2.03-7.683-3.402-14.271-4.611-22.13c-1.21-7.838-1.958-14.497-2.521-22.413c-1.08-15.486-1.177-28.623-0.328-44.129    c0.8-14.476,2.604-28.611,5.861-42.658c4.07-17.553,11.179-35.72,20.59-50.798c3.017-4.836,5.849-8.744,9.507-13.116    c3.997-4.778,7.737-8.513,12.522-12.504c3.177-2.514,5.986-4.477,9.44-6.594c3.809-2.336,7.185-3.961,11.32-5.655    c8.504-3.491,16.298-4.936,25.492-4.936h0.035c12.224,0,22.609,2.341,33.514,7.862c5.844,2.949,10.476,6.012,15.419,10.303    c5.501,4.797,9.696,9.353,13.998,15.25c0.026,0.035,0.048,0.053,0.074,0.087c11.091,14.825,19.249,31.854,24.09,49.727    c0.026,0.103,0.053,0.188,0.083,0.288c1.837,6.059,3.084,11.268,4.181,17.502c2.297,13.033,3.451,26.128,3.979,39.348    c0.306,7.559,0.43,13.947,0.42,21.512C825.444,629.146,824.953,638.392,823.788,649.277z"/>
		<path fill-rule="evenodd" clip-rule="evenodd" fill="url(#colour1)" d="M1457.82,445.366l45.57,9.116    c1.304,13.223,1.95,24.417,2.535,37.69c0.76,16.896,0.895,31.174,0.895,48.086v105.966c0,4.104,0.041,7.57-0.119,11.673    c-0.232,5.53-0.272,10.203-0.292,15.744c0,1.319,0.028,2.442,0.008,3.762c-2.406-3.327-4.391-6.152-6.729-9.53    c-0.031-0.042-0.048-0.078-0.079-0.119c-4.393-6.157-8.052-11.394-12.335-17.633c-4.48-6.509-8.245-12.014-12.684-18.543    l-82.487-122.28c-4.562-6.639-8.323-12.309-12.665-19.095l-13.415-21.022c-9.359-15.637-17.151-28.86-26.268-44.86H1229.82v20.555    l38.962,10.253l19.829,19.455c0.322,6.84,0.538,12.615,0.792,19.459l0.695,18.013c0.279,6.909,0.498,12.745,0.565,19.66    c0.077,7.724,0.156,14.245,0.156,21.975v120.618c0,20.991-0.179,37.475-1.239,57.182c-0.006,0.125-0.048,0.229-0.048,0.353    c-0.217,11.507-0.527,30.185-1.666,42.054l-46.047,8.516v21.908h132v-21.846l-47.059-9.07    c-1.945-21.983-2.941-43.559-2.941-65.517v-155.3c0-11.951,0.435-23.224,1.081-35.236c1.65,2.179,3.052,4.026,4.681,6.22    c7.539,10.172,13.828,18.819,21.164,29.141l112.608,167.003c20.551,30.335,37.12,56.288,55.787,87.818l2.946,4.787h17.732V534.079    c0-14.146,0.372-26.087,0.79-40.226c0.378-12.523,1.343-26.313,2.409-38.895l45.801-9.698V424.32h-131V445.366z"/>
		<polygon fill-rule="evenodd" clip-rule="evenodd" fill="url(#colour1)" points="955.004,457.172 980.671,476.126 999.441,450.718     974.758,431.611   "/>
		<polygon fill-rule="evenodd" clip-rule="evenodd" fill="url(#colour1)" points="1046.954,432.848 1070.117,454.312 1091.548,431.246     1068.503,409.756   "/>
		<polygon fill-rule="evenodd" clip-rule="evenodd" fill="url(#colour1)" points="1155.932,476.737 1180.808,456.268 1160.143,432.218     1136.25,452.097   "/>
		<polygon fill-rule="evenodd" clip-rule="evenodd" fill="url(#colour1)" points="1280.286,503.638 1271.014,473.853 1240.587,483.782     1250.459,513.586   "/>
		<polygon fill-rule="evenodd" clip-rule="evenodd" fill="url(#colour1)" points="878.176,471.31 865.904,500.257 894.743,512.697     907.171,483.787   "/>
		<path fill-rule="evenodd" clip-rule="evenodd" fill="url(#colour1)" d="M1205.28,754.32l49.881-232.538l-10.787-4.981l-56.317,72.277    l-28.24-105.904l-11.521-0.822l-38.504,90.05l-35.809-107.485l-11.678,0.194l-30.381,103.133L988.4,484.218l-11.366,1.304    l-24.929,97.603l-45.095-58.928l-10.886,4.69l39.357,225.434h-5.789h-5.873v6.253v27.458v6.289h5.873h284.196l5.931-0.138v-6.151    v-27.458v-6.253h-5.931H1205.28z M921.026,570.955l26.915,35.183l17.006-3.457l21.596-84.461l38.577,74.48l18.119-1.713    l25.574-86.809l30.738,92.285l18.429,0.771l33.476-78.311l23.856,89.502l16.862,3.456l35.87-46.043l-40.361,188.482H952.955    L921.026,570.955z M1202.82,777.32h-262v-6h262V777.32z"/>
</g>
</svg>