<?xml version="1.0" encoding="UTF-8" standalone="no"?>
<svg
   xmlns:svg="http://www.w3.org/2000/svg"
   xmlns="http://www.w3.org/2000/svg"
   version="1.1"
   id="svg5690"
   width="84"
   height="84"
   viewBox="0 0 84 84">
<defs>
   <linearGradient id="colour1">
     <stop offset="100%" stop-color="yellow"/>
   </linearGradient>
   <linearGradient id="colour2">
     <stop offset="100%" stop-color="red"/>
   </linearGradient>
 </defs>
 <g>
    <g transform="translate(2.3135593,2.1355932)">
        <g transform="translate(-2.6694915,1.4237288)">
            <g transform="matrix(1.031347,0,0,1.0419999,0.39540891,-3.4204667)">
                <path fill="url(#colour1)" stroke="none"
                d="M 61.62735,65.166591 C 68.15692,63.21854 73.7143,58.519915 75.14777,53.735396 76.70648,48.53289 73.6997,41.538541 68.61475,38.538349 66.659,37.38443 65.05885,36.113206 65.05885,35.713405 c 0,-0.3998 1.09964,-1.759974 2.44366,-3.022609 5.92397,-5.565288 7.09883,-13.066329 2.83937,-18.128408 C 62.8563,5.6662795 43.01493,4.5185825 27.58248,12.089029 20.66941,15.48026 13.33913,22.971605 9.9217,30.137867 c -5.31102,11.137045 -3.15182,22.5 4.27547,22.5 4.11798,0 6.30522,-1.363573 8.88637,-5.53995 2.18649,-3.537814 2.02909,-5.91383 -0.24136,-3.643383 -0.65083,0.650833 -2.64282,1.183333 -4.42663,1.183333 -8.19935,0 -8.50432,-12.712792 -0.54602,-22.760973 7.50147,-9.471377 24.69908,-14.0752145 34.6263,-9.269534 3.15053,1.525147 5.37135,3.553692 7.07715,6.464413 4.84793,8.272359 2.19975,17.558871 -4.6183,16.195261 -2.41245,-0.48249 -2.89583,-0.249491 -2.89583,1.395833 0,1.584281 0.68119,1.975 3.44329,1.975 4.34264,0 6.55671,2.894751 6.55671,8.572468 0,5.281635 -4.55937,11.846463 -9.77749,14.078154 -5.92979,2.536062 -6.58077,2.924135 -6.99633,4.170821 -0.57124,1.713738 10.26771,1.519593 16.34232,-0.292719 z"
                 />
            </g>
            <path fill="url(#colour1)" stroke="none"
            d="m 44.847455,58.194915 c 0,0 0.70002,-20.093089 -0.25489,-35.540884 -0.0636,-5.818219 0.46167,-6.459793 -0.95343,-8.309744 -1.66522,-1.322334 -9.31034,1.16438 -10.9714,2.408409 -1.80925,0.927081 -2.66981,4.512464 -2.54606,6.476329 -0.0909,7.055561 0.21495,14.111287 0.44289,21.162954 0.14898,4.244541 0.29987,8.489136 0.40157,12.735135"
            id="path6296" />
        </g>
        <path transform="matrix(1.0659865,0.71620761,-0.68287335,1.1180223,-131.65195,-80.2959)"
         d="m 183.12712,21.355932 -8.2484,0.64428 -4.1454,7.160087 -3.16164,-7.645601 -8.09065,-1.729922 6.2944,-5.369522 -0.8549,-8.2292382 7.0518,4.3270542 7.56229,-3.3560264 -1.93615,8.0437884 z"
         fill="url(#colour2)" stroke="none" />
    </g>
    <path d="m 22.148023,32.656857 c 4.86439,-2.932354 10.722831,-3.41962 16.273994,-3.134986 3.033331,0.245552 5.795422,0.629928 7.278692,1.507761 5.250702,1.449693 8.822822,4.007723 13.65882,4.404935 4.28777,0.616953 8.819704,0.997892 13.14734,0.03041 1.842691,-0.523961 3.317384,-0.739267 4.885369,-1.801385"
     fill="none" stroke="url(#colour2)" stroke-width="2" />
    <path d="m 24.202123,37.594217 c 4.86439,-2.932354 10.722831,-3.41962 16.273994,-3.134986 3.033331,0.245552 5.795422,0.629928 7.278692,1.507761 5.250702,1.449693 8.822822,4.007723 13.65882,4.404935 4.28777,0.616953 8.819704,0.997892 13.14734,0.03041 1.842691,-0.523961 3.317384,-0.739267 4.885369,-1.801385"
     fill="none" stroke="url(#colour2)" stroke-width="2" />
    <path d="m 25.586375,42.376176 c 4.86439,-2.932354 10.722831,-3.41962 16.273994,-3.134986 3.033331,0.245552 5.795422,0.629928 7.278692,1.507761 5.250702,1.449693 8.822822,4.007723 13.65882,4.404935 4.28777,0.616953 8.819704,0.997892 13.14734,0.03041 1.842691,-0.523961 3.317384,-0.739267 4.885369,-1.801385"
     fill="none" stroke="url(#colour2)" stroke-width="2" />
</g>     
</svg>
