<!-- Created with Inkscape (http://www.inkscape.org/) -->

<svg xmlns:rdf="http://www.w3.org/1999/02/22-rdf-syntax-ns#" xmlns="http://www.w3.org/2000/svg" version="1.0" xmlns:cc="http://creativecommons.org/ns#" xmlns:xlink="http://www.w3.org/1999/xlink" viewBox="0 0 744 400" xmlns:dc="http://purl.org/dc/elements/1.1/">

<defs>
   <linearGradient id="colour1">
     <stop stop-color="orange" offset="0"/>
   </linearGradient>
</defs>
	<g transform="translate(9.949149,14.92372)">

		<path d="M436,187c-13-2,28-21,40-27,38-19,56-34,94-50,23-10.2,38,1,62-8,15-6.5,44,11,51,24,7,15,14,34,10,49-7,29-11,56-15,86-1,6-1,36-3,42-4,29-4,48-14,76-13,40-60-14-89-21-9-2-39-12-75-36-14-10-34-22-56-35-3-50-1-73-2-74" fill-rule="evenodd" fill="url(#colour1)"/>

		<path d="M314,188c13-2-38-26-50-31-39-18-56-36-94-53-22-9.2-42-7.4-64-10.7-21-3-37.5,14.7-44.2,27.7-7.3,14-23.1,35-24.5,67-1.3,29,0.1,41,2.8,69,1.5,17,4.9,27,5.9,46,1.7,28-0.6,59,26.1,80,30.9,25,83.9-16,113-23,9-2,59-31,68-37,14-10,54-20,62-34,6-10,5,1,5,1" fill-rule="evenodd" fill="url(#colour1)"/>

		<path display="none" stroke-linejoin="miter" d="M101,84.1c-15.5,0.4-42.4,17.9-48.6,30.9-7.5,15-20.3,34-21.8,68-1.3,31,1.9,48-0.4,77-1.5,18,7.3,38,11.7,48-1,11,8.2,66,33.8,83,23.6,16,80.3-18,110-26,9-3,61-35,70-42,14-11,47-19,62-27,0,0,1-1,1-1v-109c14-2-39-27-51-33-40-19-59-34-97-52-22-10.2-42-12.1-65-16.5-2-0.3-3-0.4-5-0.4zm-3.8,11.5c-10,2.7,44.8-1.7,31.8-2.3-21-1.1,30,17.7,51,26.7,37,16,31,19,93,43,12,5,56,22,43,24l-3,104c0,1-1,1-1,2-14,6-41,11-55,20-8,6-54,41-63,42-34,4-87,46-110,32-24.2-15-26.2-26-27.3-53-0.6-18-6.9-51-10.4-66-6-26-4.7-67-3.5-95,1.4-31,16.6-31,25.9-53,10.6-24.1,13.3-23.7,28.1-24.4z" fill-rule="evenodd" stroke="#000" stroke-linecap="butt" stroke-miterlimit="4" stroke-dasharray="none" stroke-width="1.16786182" fill="#000"/>

		<path display="none" d="M649,92.9c-2,0-57,3.7-81,14.1-37,16-53,31-91,50-12,5-59,20-46,22l8,109c0,1,36,35,50,34,11,0,56,34,65,33,14-3,100,67,113,28,10-28,12-61,17-90,1-6,2-39,3-45,4-30,3-36,11-65,3-15,1-48-6-62-7-13-30-17-43-28.1zm-13,12.1c15-1,39,12,44,23,7,14,13,43,10,57-6,28-12,41-16,69-1,6-2,31-3,38-4,27-10,53-18,80-12,37-83-32-114-32-8,0-27-18-35-24-12-9-63-47-69-32-8,16-21-1-23,16l29-112c-12-1,34-24,45-30,34-17,51-24,85-39,21-9,34-6,55-15,1,0,5,3,10,1z" fill-rule="evenodd" fill="#000"/>

		<path stroke-linejoin="miter" d="M322,173c-11,8-11,23-13,38-3,16,0,35,0,52,0,10,3,24,6,31,8,16,37,12,54,15,11,3,47,2,56-3,15-7,15-22,20-42,4-15,4-38,4-55,0-12-8-31-15-38-13-13-53-6-70-8-7-1-29,0-42,10z" fill-rule="evenodd" stroke="url(#colour1)" stroke-linecap="butt" stroke-miterlimit="4" stroke-dasharray="none" stroke-width="6.42324066" fill="url(#colour1)"/>

		<path fill="url(#colour1)" d="M216,282l38-13,32-16,21-6,1,7s-19,2-44,14c-24,7-56,20-56,20l8-6z"/>

		<path d="M309,267c34-18,135,0,135,0s10,10-13,37c-30,21-116-5-116-5s-5-19-6-32z" fill-opacity="0.22222224" fill="url(#colour1)"/>

		<path fill="url(#colour1)" d="M204,195l27,6,19,4,56,15,1,17-13-16-90-26z"/>

		<path fill="url(#colour1)" d="M454,218l17-3,15-1,42-15-46,20-36,7,8-8z"/>

		<path fill="url(#colour1)" d="M452,253l6,7,17,4,21,9,16,8-68-20,8-8z"/>

	</g>

</svg>

