<svg xmlns="http://www.w3.org/2000/svg" version="1.1" xmlns:xlink="http://www.w3.org/1999/xlink" viewBox="220 360 100 100">
<defs>
   <linearGradient id="colour1">
     <stop offset="100%" stop-color="yellow"/>
   </linearGradient>
   <linearGradient id="colour2">
     <stop offset="100%" stop-color="red"/>
   </linearGradient>
 </defs>
	<g id="Circle_C">
<ellipse fill="url(#colour1)" cx="297.286" cy="411.262" rx="46.181" ry="44.965"/>
		<path fill="url(#colour2)" d="M289.538,381.083c-2.411,0.604-5.53,2.708-6.691,9.31c-0.403,2.322-0.648,5.245-0.75,8.94
			c-0.033,1.267-0.049,4.121-0.049,8.731c0,5.667,0.037,9.211,0.115,10.834c0.234,4.938,0.85,8.494,1.883,10.867
			c1.353,3.092,3.723,4.994,7.047,5.658c0.53,0.114,1.753,0.252,6.305,0.252c3.904,0,6.626-0.191,8.322-0.585
			c2.553-0.597,4.457-2.419,5.508-5.271c0.872-2.345,1.297-6.192,1.297-11.756v-4.761h-7.003v5.503c0,2.552-0.192,3.816-0.354,4.428
			c-0.222,0.873-0.489,0.993-0.618,1.051c-0.659,0.302-2.489,0.794-7.582,0.794c-3.313,0-4.086-0.089-4.244-0.116
			c-0.809-0.132-2.193-0.486-2.588-1.411c-0.147-0.343-0.627-1.819-0.8-6.939c-0.053-1.318-0.079-4.188-0.079-8.547
			c0-4.38,0.026-7.248,0.078-8.524c0.173-5.147,0.658-6.663,0.804-7.006c0.268-0.639,1.323-1.157,2.829-1.399
			c0.288-0.041,1.303-0.117,4.533-0.117c5.506,0,6.769,0.699,6.966,0.839c0.322,0.232,0.503,0.907,0.598,1.432
			c0.115,0.63,0.251,1.909,0.251,4.509v3.975h7.054L312.333,399c-0.045-3.431-0.156-5.896-0.34-7.54
			c-0.356-3.11-1.064-5.464-2.165-7.208c-1.214-1.919-3.118-3.126-5.664-3.589c-0.54-0.103-1.642-0.243-4.79-0.243
			C294.521,380.42,291.305,380.637,289.538,381.083z"/>
	</g>
   </svg>