<svg xmlns="http://www.w3.org/2000/svg" version="1.1" xmlns:xlink="http://www.w3.org/1999/xlink" viewBox="0 0 100 100">
<defs>
   <linearGradient id="colour0">
     <stop offset="100%" stop-color="yellow"/>
   </linearGradient>
   <linearGradient id="colour1">
     <stop offset="100%" stop-color="red"/>
   </linearGradient>
 </defs>
 <g>
<path fill="url(#colour1)" d="m 39.311879,64.859882 c -1.6e-5,0.332759 -0.0139,0.613881 -0.04164,0.843367 -0.02778,0.229489 -0.06942,0.415947 -0.124935,0.559377 -0.05554,0.143429 -0.124952,0.243831 -0.208227,0.301203 -0.08331,0.05738 -0.174925,0.08605 -0.274859,0.08605 l -12.710139,0 c -0.444217,0 -0.785708,-0.131955 -1.024472,-0.395866 -0.238768,-0.26391 -0.358151,-0.648301 -0.35815,-1.153176 l 0,-0.757309 c -1e-6,-0.229485 0.01388,-0.438893 0.04164,-0.628223 0.02776,-0.189323 0.07497,-0.381519 0.141593,-0.576587 0.06664,-0.195061 0.163804,-0.407337 0.291518,-0.636829 0.127711,-0.229484 0.285962,-0.504869 0.474756,-0.826155 l 8.362371,-13.700417 -8.295739,0 c -0.133266,1.9e-5 -0.247097,-0.03153 -0.341491,-0.09466 -0.0944,-0.0631 -0.172135,-0.163492 -0.233214,-0.301204 -0.06108,-0.137673 -0.105504,-0.321263 -0.133264,-0.550771 -0.02777,-0.229467 -0.04164,-0.504852 -0.04164,-0.826156 -1e-6,-0.34421 0.01388,-0.633938 0.04164,-0.869184 0.02776,-0.235203 0.07218,-0.42453 0.133264,-0.567982 0.06108,-0.143407 0.138816,-0.243809 0.233214,-0.301202 0.09439,-0.05735 0.208225,-0.08604 0.341491,-0.08605 l 11.910549,0 c 0.455307,2.2e-5 0.791246,0.120502 1.007816,0.361442 0.216541,0.240984 0.324818,0.579479 0.324833,1.015484 l 0,0.843366 c -1.5e-5,0.309829 -0.0139,0.576609 -0.04164,0.800339 -0.02778,0.22377 -0.07775,0.441784 -0.149923,0.65404 -0.0722,0.212295 -0.169372,0.430307 -0.291516,0.65404 -0.122175,0.223768 -0.277651,0.490547 -0.466428,0.800338 l -8.229106,13.511089 9.012037,0 c 0.210987,5e-6 0.372016,0.137695 0.483086,0.413078 0.111038,0.275389 0.166565,0.751575 0.16658,1.428562 z"
     style="marker:none" />
</g>     
</svg>
