<?xml version="1.0" encoding="utf-8"?>
<!DOCTYPE svg PUBLIC "-//W3C//DTD SVG 1.1//EN" "http://www.w3.org/Graphics/SVG/1.1/DTD/svg11.dtd">
<svg version="1.1" xmlns="http://www.w3.org/2000/svg" xmlns:xlink="http://www.w3.org/1999/xlink" width="328px" height="235px" viewBox="0 0 328 235" enable-background="new 0 0 612 792" xml:space="preserve">
 <defs>
   <linearGradient id="colour1">
     <stop offset="100%" stop-color="red"/>
   </linearGradient>
   <linearGradient id="colour2">
     <stop offset="100%" stop-color="orange"/>
   </linearGradient>
</defs>
<g>
<path transform="matrix(-1,0,0,1,350,0)" fill="url(#colour1)" stroke="white" stroke-width="2.5" fill-opacity="1.00" d=" M 229.84 38.12 C 232.26 30.62 230.28 21.92 235.32 15.33 C 235.77 21.55 238.17 27.37 239.81 33.33 C 242.44 42.14 249.20 49.67 248.80 59.29 C 251.09 56.44 252.99 52.40 257.03 51.89 C 259.01 51.17 260.44 52.83 261.94 53.81 C 260.99 57.44 259.41 61.04 259.44 64.84 C 259.92 66.99 261.35 69.73 263.92 69.63 C 272.09 70.01 280.22 68.26 287.96 65.74 C 292.75 66.88 297.42 68.52 302.27 69.35 C 304.35 69.25 306.14 67.92 308.02 67.15 C 307.90 69.83 308.32 72.65 307.42 75.23 C 304.57 76.15 301.55 76.53 298.85 77.87 C 296.34 78.94 293.88 80.56 291.05 80.46 C 285.71 80.40 280.17 80.10 275.35 77.57 C 272.78 76.73 269.87 74.30 267.19 76.08 C 265.14 73.45 261.82 74.40 259.01 74.89 C 259.23 76.61 259.26 78.40 259.85 80.06 C 260.76 81.64 262.89 81.47 264.43 82.00 C 265.66 80.62 266.91 79.27 268.19 77.94 C 265.53 83.81 263.15 89.79 261.67 96.08 C 263.26 98.55 265.33 100.93 265.68 103.97 C 266.44 108.82 266.44 113.81 267.87 118.54 C 268.97 121.85 272.11 124.35 272.11 128.02 C 272.25 132.08 272.45 136.15 273.40 140.12 C 271.00 143.06 267.92 145.40 265.68 148.45 C 263.75 154.17 261.90 160.01 261.47 166.07 C 261.31 168.04 260.49 169.85 259.74 171.65 C 256.25 171.55 252.74 171.66 249.30 172.28 C 247.99 171.16 246.69 170.04 245.40 168.92 C 245.54 168.36 245.69 167.80 245.84 167.25 C 247.17 168.77 248.25 171.77 250.82 170.82 C 252.95 170.89 252.33 168.28 252.89 166.90 C 252.22 166.74 250.88 166.42 250.21 166.26 C 249.55 164.43 248.87 162.60 248.21 160.77 C 247.65 161.11 246.53 161.79 245.97 162.13 C 245.83 159.12 245.15 156.18 244.05 153.38 C 241.70 152.99 237.94 154.05 237.12 150.98 C 235.99 147.08 236.26 142.94 236.19 138.93 C 236.04 133.75 238.09 128.91 239.07 123.91 C 237.90 123.69 236.72 123.37 235.52 123.45 C 233.92 125.61 232.84 128.09 231.46 130.39 C 228.71 135.24 224.90 139.40 222.30 144.34 C 220.64 147.53 218.44 150.38 216.33 153.27 C 214.07 156.10 214.35 160.18 211.87 162.85 C 210.45 164.66 208.27 166.06 207.76 168.43 C 207.07 171.23 206.23 173.98 205.07 176.62 C 203.48 180.20 205.11 184.11 204.57 187.84 C 203.92 190.27 202.51 192.51 202.32 195.06 C 202.63 204.15 209.09 212.61 206.04 221.83 C 201.19 224.14 195.47 222.40 190.29 222.54 C 189.20 219.47 190.81 216.22 190.35 213.07 C 189.48 210.01 186.77 207.32 187.52 203.95 C 187.77 202.33 189.14 201.24 190.01 199.94 C 192.70 197.22 191.42 193.08 191.34 189.69 C 190.28 187.63 189.43 185.46 188.72 183.26 C 189.91 182.49 191.11 181.72 192.31 180.95 C 192.06 178.56 191.88 176.17 191.65 173.78 C 179.43 175.65 167.40 179.10 154.98 179.50 C 149.36 179.84 144.07 177.84 138.74 176.43 C 136.62 178.16 135.32 180.64 134.02 183.00 C 131.49 187.18 132.88 192.20 132.55 196.80 C 135.80 201.39 137.76 206.73 139.36 212.08 C 140.22 214.89 139.09 218.76 135.89 219.38 C 130.81 220.37 125.18 220.18 120.58 217.60 C 119.91 212.17 120.90 206.59 119.47 201.24 C 116.89 194.55 110.94 190.17 106.31 185.00 C 107.23 181.20 111.48 179.04 112.15 175.03 C 113.13 167.70 109.91 160.70 106.95 154.20 C 104.38 147.16 101.46 140.26 98.72 133.29 C 96.70 128.23 94.05 123.37 92.86 118.02 C 92.01 114.33 93.20 110.63 93.43 106.94 C 93.12 106.86 92.51 106.70 92.20 106.62 C 83.53 110.47 75.88 116.79 66.39 118.64 C 61.10 119.60 55.59 119.74 50.32 118.66 C 43.96 116.83 39.57 111.43 35.67 106.42 C 33.80 103.85 31.00 101.45 31.03 98.02 C 30.82 91.87 31.05 85.71 31.13 79.56 C 32.20 80.71 33.28 81.85 34.35 83.00 C 35.66 82.22 36.97 81.44 38.27 80.65 C 41.94 84.19 43.52 89.28 47.19 92.81 C 52.09 97.69 58.15 101.66 64.99 103.09 C 70.35 104.18 75.78 106.73 81.32 105.21 C 87.92 103.55 93.61 99.65 99.71 96.78 C 105.72 93.40 112.13 90.76 118.75 88.80 C 121.28 88.01 123.89 88.93 126.35 89.55 C 135.41 92.13 144.56 94.68 154.03 95.06 C 162.48 96.39 171.12 96.45 179.55 94.87 C 183.09 94.15 186.72 94.80 190.28 94.36 C 193.55 93.22 195.10 89.67 198.07 88.13 C 202.13 87.35 206.48 87.44 210.14 85.22 C 217.08 81.33 225.11 79.61 231.50 74.73 C 235.82 72.38 239.98 69.64 243.06 65.72 C 240.33 63.49 237.14 61.48 235.63 58.15 C 232.31 51.95 231.07 44.96 229.84 38.12 M 250.27 76.24 C 250.35 77.89 250.53 79.54 250.94 81.14 C 252.66 80.81 254.43 80.61 256.10 80.05 C 258.24 78.71 256.88 75.87 257.13 73.83 C 254.76 74.26 251.89 74.12 250.27 76.24 M 254.97 165.04 C 253.33 166.49 254.27 168.83 254.35 170.69 C 255.37 170.68 257.40 170.68 258.41 170.67 C 260.79 167.87 261.12 164.26 260.74 160.74 C 258.75 162.08 256.69 163.36 254.97 165.04 Z" />
</g>
</svg>
