<?xml version="1.0" encoding="utf-8"?>
<!-- Generator: Adobe Illustrator 13.0.0, SVG Export Plug-In . SVG Version: 6.00 Build 14948)  -->
<!DOCTYPE svg PUBLIC "-//W3C//DTD SVG 1.1//EN" "http://www.w3.org/Graphics/SVG/1.1/DTD/svg11.dtd">
<svg version="1.1" id="Layer_1" xmlns="http://www.w3.org/2000/svg" xmlns:xlink="http://www.w3.org/1999/xlink" viewBox="400 350 100 100" 
	 xml:space="preserve">
	 <defs>
   <linearGradient id="colour0"> 
     <stop offset="100%" stop-color="blue"/> 
   </linearGradient> 
   <linearGradient id="colour1"> 
     <stop offset="100%" stop-color="white"/> 
   </linearGradient> 
</defs>	 
<g id="DAP_Logo">
	<g>
		<g>
			<path fill="#FFFFFF" d="M304.175,382.213v-3.947l1.472-0.403c0.143-0.039,0.258-0.075,0.352-0.106
				c0.004-0.083,0.007-0.182,0.007-0.3c0,0,0-9.205,0-9.209c-0.091-0.029-0.202-0.063-0.34-0.1l-1.49-0.393v-3.963h9.378
				c3.163,0,5.741,0.851,7.664,2.528c2,1.746,3.014,4.056,3.014,6.863c0,2.707-0.918,4.923-2.729,6.587
				c-1.762,1.62-4.112,2.442-6.986,2.442H304.175z M313.182,377.382c0.096,0.007,0.21,0.012,0.347,0.012
				c1.399,0,2.003-0.533,2.334-0.936c0.606-0.733,0.914-1.884,0.914-3.419c0-1.498-0.331-2.605-1.012-3.385
				c-0.381-0.438-1.059-1.014-2.583-1.043V377.382z"/>
			<path fill="#FFFFFF" d="M323.536,388.213v-4.075l1.32-0.253l-0.197-0.523h-2.372l-0.205,0.553l1.277,0.341v3.958h-8.658v-4.107
				l1.66-0.285c0.039-0.007,0.131-0.022,0.286-0.205c0.119-0.14,0.442-0.593,0.887-1.793l4.636-12.402h4.736l4.874,12.832
				c0.43,1.098,0.71,1.425,0.761,1.479c0.017,0.018,0.051,0.053,0.217,0.065l1.843,0.146v4.271H323.536z"/>
			<path fill="#FFFFFF" d="M328.6,398.213v-4.064l1.611-0.319c0.083-0.017,0.153-0.032,0.214-0.048
				c0.002-0.053,0.004-0.112,0.004-0.181v-9.373c-0.07-0.019-0.152-0.037-0.247-0.058l-1.582-0.338v-4.04h9.402
				c1.984,0,3.619,0.505,4.858,1.5c1.351,1.087,2.064,2.579,2.064,4.316c0,1.826-0.766,3.403-2.214,4.56
				c-1.3,1.037-3.016,1.576-5.104,1.604c0,0,0,2.012,0,2.02c0.046,0.01,1.807,0.323,1.807,0.323v4.099H328.6z"/>
		</g>
		<path fill="#158749" d="M306.175,380.213v-0.422c0.763-0.209,1.258-0.44,1.486-0.692c0.229-0.253,0.344-0.801,0.344-1.643v-9.196
			c0-0.649-0.115-1.103-0.344-1.36c-0.229-0.256-0.724-0.484-1.486-0.686v-0.422h7.378c2.68,0,4.796,0.68,6.35,2.035
			c1.552,1.355,2.328,3.142,2.328,5.356c0,2.134-0.694,3.839-2.082,5.114c-1.388,1.276-3.266,1.915-5.633,1.915H306.175z
			 M313.06,366.61h-1.878v11.086c0,0.618,0.181,1.056,0.542,1.313c0.36,0.257,0.963,0.385,1.805,0.385
			c1.67,0,2.961-0.554,3.876-1.661s1.372-2.672,1.372-4.693c0-1.982-0.501-3.55-1.505-4.7
			C316.269,367.187,314.864,366.61,313.06,366.61z"/>
		<path fill="#158749" d="M325.536,386.213v-0.422c0.591-0.113,1.009-0.251,1.253-0.415c0.243-0.165,0.366-0.396,0.366-0.692
			c0-0.241-0.094-0.609-0.278-1.107l-0.834-2.215h-5.146l-0.712,1.913c-0.183,0.489-0.274,0.883-0.274,1.18
			c0,0.635,0.483,1.079,1.448,1.337v0.422h-4.658v-0.422c0.562-0.097,1.052-0.39,1.469-0.879s0.83-1.288,1.24-2.396l4.147-11.097
			h1.969l4.385,11.542c0.401,1.027,0.796,1.743,1.182,2.148s0.888,0.632,1.508,0.681v0.422H325.536z M321.359,380.326h4.296
			l-2.196-5.85L321.359,380.326z"/>
		<path fill="#158749" d="M330.6,381.792h7.402c1.524,0,2.727,0.354,3.605,1.06c0.878,0.706,1.317,1.625,1.317,2.757
			c0,1.219-0.487,2.219-1.462,2.997c-0.976,0.778-2.316,1.167-4.026,1.167c-0.594,0-1.204-0.04-1.83-0.12v4.116
			c0,0.65,0.131,1.119,0.392,1.408s0.732,0.493,1.415,0.614v0.422H330.6v-0.422c0.73-0.145,1.219-0.364,1.463-0.656
			c0.244-0.293,0.366-0.805,0.366-1.534v-9.413c0-0.657-0.116-1.111-0.349-1.359c-0.232-0.249-0.726-0.453-1.48-0.614V381.792z
			 M336.822,382.61h-1.216v6.188c0.369,0.112,0.723,0.168,1.06,0.168c0.883,0,1.572-0.282,2.07-0.849
			c0.498-0.565,0.747-1.357,0.747-2.377c0-0.931-0.246-1.686-0.735-2.263C338.26,382.899,337.617,382.61,336.822,382.61z"/>
	</g>
</g>
</svg>