<svg xmlns="http://www.w3.org/2000/svg" version="1.1" xmlns:xlink="http://www.w3.org/1999/xlink" viewBox="320 300 80 115">
	<g id="Double_Eagle_Ranch">
		<path fill="black" d="M303.821,362.854c0.162,8.855,7.425,15.929,16.19,15.769c8.768-0.16,15.769-7.493,15.606-16.35
			c-0.162-8.854-7.426-15.928-16.191-15.768C310.659,346.666,303.659,354,303.821,362.854z"/>
		<polygon fill="black" points="307.384,376.178 303.079,363.98 302.114,363.208 304.025,362.314 334.853,361.432 336.912,362.786 335.9,366.019 
			332.545,375.824 		"/>
		<polygon fill="black" points="304.881,362.299 301.754,361.072 303.982,359.961 302.13,358.281 304.586,357.808 302.73,355.913 
			305.403,355.649 303.973,353.535 306.221,353.495 305.751,351.253 307.902,351.749 307.324,349.404 309.799,350.001 
			309.325,347.547 311.595,348.684 311.658,346.326 313.609,347.576 313.995,345.212 316.061,346.996 316.663,344.735 
			318.194,346.529 319.55,344.469 321.089,346.69 322.337,344.632 323.342,346.862 324.918,345.228 325.39,347.576 327.614,346.249 
			327.549,348.499 329.46,347.607 329.498,349.749 331.631,349.174 331.026,351.327 333.377,350.963 332.559,353.12 
			335.132,353.288 333.777,355.346 336.138,355.625 334.459,357.476 336.93,357.966 335.036,359.714 337.298,360.424 
			335.078,361.962 		"/>
		<path fill="#FFFFFF" d="M335.296,362.28c0.159,8.69-6.687,15.864-15.289,16.021c-8.604,0.157-15.705-6.761-15.865-15.452
			c-0.156-8.691,6.688-15.864,15.291-16.022C328.034,346.67,335.138,353.589,335.296,362.28z"/>
		<polygon fill="black" points="332.211,375.08 307.266,375.536 307.363,380.89 332.95,380.423 332.854,375.07 		"/>
		<g>
			<path fill="black" d="M340.51,375.349c0.053,0.117,0.284,0.582,0.354,0.887c-2.253,0.446-7.354,0.475-8.589-0.805
				c0.262-0.235,0.424-0.513,0.498-0.749c-1.539,0.381-3.496-0.65-3.842-1.452c4.104-1.976,0.073-4.306-1.086-3.802
				c-3.01,1.304-5.543,0.521-5.543,0.521s0.303-1.14,2.152-2.234c1.366-0.81,0.802-1.434,0.802-1.434
				c-0.193-0.272-1.129-1.149-2.197-0.807c-0.861,0.275-0.617,1.53-0.617,1.53s-2.226-0.31-1.912-2.979
				c0.078-0.654,1.516-2.028,1.516-2.028c1.96-0.404,3.592-0.18,4.23-0.056c-0.141-0.56,0.009-0.889,0.009-0.889
				c2.659,1.117,5.066,0.461,7.742,1.083c2.948,0.684,4.805,1.529,4.805,1.529l-1.228,0.105c0,0,0.587,0.265,0.856,0.368
				c2.442,0.946,5.959,3.044,5.959,3.044l-1.819-0.076c0,0,1.868,1.044,3.923,2.6c1.095,0.828,3.374,2.563,3.374,2.563
				s-2.186,0.913-4.855,1.273c0.579,0.611,1.19,1.279,1.19,1.279S343.814,375.512,340.51,375.349z"/>
			<path fill="#231F20" d="M336.478,365.38c-0.028-0.016-0.055-0.029-0.082-0.043c0.024,0.013,0.049,0.026,0.072,0.037
				C336.471,365.377,336.475,365.38,336.478,365.38z"/>
			<path fill="#231F20" d="M336.383,365.33c0.006,0.002,0.008,0.005,0.013,0.007C336.391,365.335,336.389,365.332,336.383,365.33z"
				/>
			<path fill="#FFFFFF" d="M334.099,370.982c0,0-0.212-1.382-1.983-2.41c0,0,3.092,0.9,4.563,3.996
				c-0.682-2.229-2.219-3.493-3.296-4.106c-0.663-0.333-1.112-0.486-1.112-0.486s0.22,0.041,0.59,0.149
				c1.021,0.184,2.268,0.562,3.335,1.064c0.741,0.35,2.022,1.205,2.427,1.645c0,0-0.72-1.39-1.921-2.221
				c0,0,2.186,1.091,3.575,2.734c0.464,0.55,1.416,1.9,1.416,1.9c-0.835-2.379-2.246-4.405-3.539-5.527
				c-0.816-0.573-1.508-0.987-1.508-0.987s0.145,0.054,0.401,0.173c0.712,0.206,3.509,1.158,7.07,4.238c0,0-0.306-0.514-0.757-1.078
				c-0.463-0.579-1.604-1.529-1.604-1.529c1.104,0.467,2.778,1.672,4.531,3.412c0,0-1.933-3.258-6.092-5.752
				c-0.038-0.018-0.061-0.027-0.061-0.027s0.621,0.116,1.291,0.273c0.495,0.117,1.236,0.259,1.236,0.259s-1.972-1.405-5.331-2.759
				c-0.948-0.382-1.475-0.563-1.475-0.563c0.231-0.011,1.142,0.072,1.42,0.047c-2.526-0.979-3.765-1.083-5.999-1.076
				c-1.994,0.005-2.172,0.219-4.292-0.498c0,0,0.34,1.507,2.065,1.925c0.299,0.074,0.648,0.089,1,0.087
				c0.845-0.041,1.289-0.606,2.096-0.406c-0.262,0.089-0.616,0.175-0.893,0.375c0.604-0.075,1.529-0.012,2.35,0.224
				c2.088,0.603,2.992,1.387,2.992,1.387c-0.043-0.022-0.085-0.046-0.128-0.07c-2.448-1.145-3.915-0.478-4.051-0.385
				c-0.29,0.2,0.889,0.411,1.434,0.921c-0.739-0.402-1.767-0.435-2.674-0.121c-0.385,0.133-0.751,0.373-1.257,0.287
				c-0.158-0.015-0.337-0.051-0.534-0.135c-0.532-0.228-0.646-0.589-0.646-0.741c0-0.093,0.047-0.188,0.047-0.188
				c0.09,0.246,0.355,0.463,0.725,0.559c0.274,0.069,0.556,0.063,0.788-0.009c0,0.001,0,0.001,0,0.001
				c0.126-0.036,0.367-0.114,0.52-0.406c0.075-0.152,0.05-0.314-0.028-0.458c0.032-0.014,0.284-0.105,0.746-0.137
				c-0.466-0.09-0.902-0.041-1.108-0.031c0.088,0.147,0.107,0.322,0.032,0.488c-0.15,0.329-0.605,0.499-1.019,0.381
				c-0.413-0.119-0.627-0.483-0.478-0.812c0.02-0.042,0.042-0.079,0.071-0.116c-0.021-0.006-0.044-0.012-0.063-0.019
				c-0.122-0.046-0.347-0.147-0.347-0.147c0.042,0.1,0.12,0.217,0.189,0.272c-0.337,0.307-0.758,0.951,0.411,1.75
				c-0.594-0.02-1.153-0.765-1.23-1.424c-0.007,0.103-0.007,0.216-0.002,0.347c0.084,2.107,2.225,2.896,2.776,3.063
				c0.142,0.038,0.277,0.08,0.407,0.13c0,0-0.713-0.063-1.549,0.176C330.704,368.521,332.913,368.967,334.099,370.982z"/>
			<path fill="#BAC4C9" d="M331.769,364.9c-0.191,0.237,0.319,0.385,0.319,0.385s-0.827-0.09-1.472,0.126
				c-0.029,0.021-0.129,0.101-0.316,0.152c0.024,0.055,0.054,0.106,0.09,0.143c0.11,0.105,0.321,0.167,0.321,0.167
				s-0.293,0.237-0.791,0.203c0.506,0.086,0.872-0.154,1.257-0.287c0.907-0.313,1.935-0.281,2.674,0.121
				c-0.545-0.51-1.724-0.721-1.434-0.921c0.136-0.093,1.603-0.76,4.051,0.385c-0.023-0.011-0.079-0.042-0.085-0.044
				C334.227,364.208,332.277,364.271,331.769,364.9z"/>
			<path fill="#004C54" d="M330.25,364.935c-0.106,0.231-0.438,0.349-0.74,0.262s-0.461-0.346-0.355-0.579
				c0.016-0.035,0.04-0.067,0.065-0.097c-0.063-0.012-0.125-0.028-0.184-0.048c-0.029,0.037-0.052,0.074-0.071,0.116
				c-0.149,0.328,0.064,0.692,0.478,0.812c0.413,0.118,0.868-0.052,1.019-0.381c0.075-0.166,0.056-0.341-0.032-0.488
				c-0.071,0.007-0.149,0.014-0.233,0.02C330.283,364.663,330.309,364.803,330.25,364.935z"/>
			<path fill="black" d="M329.51,365.196c0.303,0.087,0.634-0.03,0.74-0.262c0.059-0.132,0.033-0.271-0.055-0.384
				c-0.176,0.012-0.377,0.021-0.581,0.014c-0.104,0.075-0.216,0.197-0.227,0.377c0,0-0.106-0.11-0.102-0.24
				c0.004-0.075,0.034-0.132,0.054-0.16c-0.039-0.005-0.081-0.014-0.12-0.021c-0.025,0.029-0.05,0.062-0.065,0.097
				C329.049,364.851,329.207,365.109,329.51,365.196z"/>
			<path fill="#FFFFFF" d="M329.286,364.701c-0.005,0.13,0.102,0.24,0.102,0.24c0.011-0.18,0.122-0.302,0.227-0.377
				c-0.091-0.004-0.183-0.011-0.274-0.023C329.32,364.569,329.29,364.626,329.286,364.701z"/>
			<path fill="#FFFFFF" d="M341.691,373.248c0,0-0.952-1.351-1.416-1.9c-1.39-1.644-3.575-2.734-3.575-2.734
				c1.201,0.831,1.921,2.221,1.921,2.221c-0.404-0.439-1.686-1.295-2.427-1.645c-1.067-0.503-2.313-0.881-3.335-1.064
				c1.469,0.426,5.305,1.911,7.238,6.15c0,0,0.394,0.062,1.684,0.036c1.364-0.026,1.998-0.306,1.998-0.306s-2.015-3.298-4.146-5.148
				c-0.459-0.398-0.993-0.797-1.481-1.137C339.445,368.843,340.856,370.869,341.691,373.248z"/>
			<path fill="#FFFFFF" d="M331.95,369.714c2.679,1.871,3.168,4.269,2.415,5.205c0,0,0.011,0.007,0.034,0.013
				c0.143,0.049,0.639,0.275,1.763,0.313c1.185,0.04,2.048-0.033,2.545-0.188c-0.518-3.69-3.624-5.737-5.325-6.595
				c1.077,0.613,2.614,1.878,3.296,4.106c-1.471-3.096-4.563-3.996-4.563-3.996c1.771,1.028,1.983,2.41,1.983,2.41
				c-1.186-2.016-3.395-2.461-4.47-2.362c-0.113,0.033-0.23,0.072-0.349,0.117C330.084,368.782,330.82,368.926,331.95,369.714z"/>
			<path fill="#FFFFFF" d="M346.287,371.949c-1.753-1.74-3.427-2.945-4.531-3.412c0,0,1.141,0.95,1.604,1.529
				c0.451,0.564,0.757,1.078,0.757,1.078c-3.562-3.08-6.358-4.032-7.07-4.238c0.627,0.285,1.925,0.954,3.466,2.165
				c1.454,1.138,2.842,2.704,3.446,3.299c1.821,0.078,3.472-0.637,3.472-0.637s-1.463-1.508-3.354-3.034
				c-1.965-1.585-3.558-2.353-3.881-2.502C344.354,368.691,346.287,371.949,346.287,371.949z"/>
			<path fill="#FFFFFF" d="M329.686,369.269c0,0,1.044,0.177,1.682,1.382c0.945,1.783-0.247,2.666-0.247,2.666
				s0.915,0.411,1.921,0.183c0,0,0.146-0.833-0.32-1.756C331.502,369.338,329.686,369.269,329.686,369.269z"/>
			<path fill="#FFD600" d="M327.634,363.973c-0.462-0.282-0.823-0.819-0.959-1.17c-0.518-0.11-2.028-0.797-4.09-0.351
				c-0.469,0.436-1.072,0.993-1.284,1.447c-0.758,1.764,0.72,2.605,0.72,2.605s-0.517-2.663,2.525-1.81
				c0.972,0.273,2.731,1.766,3.175,3.145c0.032,0.12,0.028,0.307-0.002,0.318c-0.724,0.401-2.861,1.387-3.956,1.056
				c0.377-0.968,2.849-1.188,2.035-2.331c0,0-0.282,0.673-1.047,1.092c-0.336,0.185-1.259,0.646-1.83,1.601
				c0,0,2.509,0.718,5.623-0.967c0.316-0.149,0.578-0.287,0.862-0.354C326.7,366.919,327.634,363.973,327.634,363.973z
				 M326.255,364.022c-0.177-0.11-0.497-0.396-0.092-0.462c0,0,0.285,0.096,0.661,0.231c-0.019,0.203-0.002,0.385,0.213,0.724
				C327.037,364.516,326.397,364.111,326.255,364.022z"/>
			<path fill="black" d="M326.163,363.561c-0.405,0.065-0.085,0.352,0.092,0.462c0.143,0.089,0.782,0.493,0.782,0.493
				c-0.215-0.339-0.231-0.521-0.213-0.724C326.448,363.656,326.163,363.561,326.163,363.561z"/>
		</g>
		<g>
			<path fill="black" d="M298.868,376.11c-0.048,0.118-0.264,0.59-0.32,0.898c2.266,0.362,7.365,0.205,8.553-1.118
				c-0.271-0.226-0.442-0.496-0.526-0.73c1.552,0.325,3.47-0.776,3.786-1.592c-4.173-1.825-0.229-4.3,0.947-3.839
				c3.056,1.192,5.558,0.318,5.558,0.318s-0.342-1.127-2.232-2.154c-1.393-0.759-0.853-1.403-0.853-1.403
				c0.184-0.278,1.086-1.189,2.166-0.886c0.871,0.245,0.674,1.506,0.674,1.506s2.212-0.391,1.801-3.045
				c-0.101-0.651-1.589-1.972-1.589-1.972c-1.973-0.333-3.597-0.05-4.229,0.099c0.12-0.565-0.041-0.889-0.041-0.889
				c-2.616,1.215-5.047,0.646-7.697,1.365c-2.923,0.791-4.745,1.704-4.745,1.704l1.23,0.061c0,0-0.576,0.286-0.842,0.4
				c-2.407,1.033-5.845,3.258-5.845,3.258l1.814-0.143c0,0-1.828,1.112-3.825,2.741c-1.064,0.868-3.277,2.686-3.277,2.686
				s2.216,0.832,4.897,1.095c-0.556,0.632-1.142,1.321-1.142,1.321S295.569,376.393,298.868,376.11z"/>
			<path fill="#231F20" d="M302.535,366c0.024-0.016,0.052-0.031,0.079-0.046c-0.025,0.014-0.048,0.028-0.072,0.04
				C302.54,365.996,302.538,365.999,302.535,366z"/>
			<path fill="#231F20" d="M302.627,365.946c-0.004,0.001-0.01,0.005-0.013,0.008C302.617,365.951,302.623,365.947,302.627,365.946z
				"/>
			<path fill="#FFFFFF" d="M305.114,371.513c0,0,0.162-1.389,1.897-2.481c0,0-3.061,1.012-4.416,4.159
				c0.599-2.252,2.089-3.571,3.143-4.223c0.652-0.358,1.094-0.526,1.094-0.526s-0.218,0.047-0.584,0.169
				c-1.013,0.22-2.245,0.644-3.293,1.187c-0.729,0.376-1.977,1.278-2.364,1.732c0,0,0.669-1.415,1.84-2.291
				c0,0-2.147,1.171-3.475,2.864c-0.444,0.566-1.343,1.951-1.343,1.951c0.745-2.408,2.081-4.485,3.333-5.653
				c0.795-0.603,1.469-1.041,1.469-1.041s-0.142,0.059-0.394,0.186c-0.706,0.233-3.464,1.287-6.912,4.493
				c0,0,0.287-0.523,0.719-1.104c0.441-0.597,1.546-1.587,1.546-1.587c-1.087,0.507-2.715,1.771-4.405,3.576
				c0,0,1.814-3.328,5.878-5.972c0.04-0.019,0.06-0.029,0.06-0.029s-0.614,0.14-1.28,0.32c-0.489,0.135-1.227,0.306-1.227,0.306
				s1.92-1.479,5.229-2.953c0.932-0.418,1.45-0.615,1.45-0.615c-0.23-0.003-1.136,0.113-1.415,0.097
				c2.489-1.069,3.721-1.219,5.956-1.294c1.993-0.068,2.177,0.141,4.271-0.653c0,0-0.287,1.519-1.995,1.998
				c-0.295,0.086-0.645,0.113-0.995,0.123c-0.846-0.009-1.312-0.559-2.108-0.329c0.265,0.079,0.622,0.151,0.903,0.343
				c-0.605-0.054-1.526,0.044-2.337,0.31c-2.065,0.678-2.94,1.493-2.94,1.493c0.041-0.023,0.083-0.048,0.124-0.073
				c2.405-1.234,3.896-0.621,4.035-0.532c0.298,0.188-0.874,0.441-1.399,0.972c0.724-0.43,1.749-0.499,2.668-0.219
				c0.388,0.119,0.765,0.345,1.266,0.241c0.157-0.02,0.334-0.063,0.527-0.154c0.525-0.247,0.624-0.612,0.618-0.763
				c-0.001-0.094-0.052-0.187-0.052-0.187c-0.081,0.249-0.338,0.475-0.705,0.584c-0.271,0.081-0.551,0.083-0.786,0.021
				c0,0.001,0,0.001,0,0.001c-0.127-0.032-0.372-0.101-0.532-0.387c-0.083-0.148-0.065-0.312,0.009-0.46
				c-0.032-0.013-0.288-0.095-0.749-0.108c0.462-0.106,0.897-0.074,1.104-0.072c-0.082,0.151-0.094,0.326-0.012,0.491
				c0.161,0.321,0.622,0.475,1.029,0.342c0.409-0.134,0.61-0.505,0.449-0.827c-0.022-0.042-0.046-0.079-0.075-0.115
				c0.021-0.006,0.041-0.013,0.062-0.021c0.119-0.05,0.342-0.161,0.342-0.161c-0.039,0.103-0.113,0.223-0.181,0.28
				c0.349,0.295,0.793,0.923-0.346,1.764c0.592-0.042,1.123-0.807,1.179-1.469c0.008,0.102,0.014,0.216,0.013,0.347
				c-0.008,2.109-2.116,2.976-2.662,3.163c-0.142,0.043-0.274,0.089-0.403,0.144c0,0,0.712-0.088,1.555,0.121
				C308.416,368.929,306.227,369.453,305.114,371.513z"/>
			<path fill="#BAC4C9" d="M307.223,365.35c0.198,0.229-0.308,0.396-0.308,0.396s0.826-0.121,1.477,0.07
				c0.029,0.02,0.131,0.097,0.322,0.142c-0.022,0.056-0.05,0.108-0.085,0.145c-0.106,0.111-0.315,0.18-0.315,0.18
				s0.303,0.227,0.798,0.174c-0.501,0.104-0.878-0.122-1.266-0.241c-0.919-0.28-1.944-0.211-2.668,0.219
				c0.525-0.53,1.697-0.783,1.399-0.972c-0.139-0.089-1.63-0.702-4.035,0.532c0.024-0.012,0.081-0.047,0.085-0.048
				C304.739,364.748,306.69,364.738,307.223,365.35z"/>
			<path fill="#004C54" d="M308.742,365.326c0.113,0.229,0.448,0.334,0.747,0.235c0.298-0.096,0.448-0.361,0.335-0.591
				c-0.018-0.035-0.042-0.065-0.069-0.095c0.061-0.014,0.123-0.033,0.183-0.055c0.029,0.036,0.053,0.073,0.075,0.115
				c0.161,0.322-0.04,0.693-0.449,0.827c-0.407,0.133-0.868-0.021-1.029-0.342c-0.082-0.165-0.07-0.34,0.012-0.491
				c0.071,0.005,0.151,0.008,0.236,0.011C308.699,365.058,308.676,365.196,308.742,365.326z"/>
			<path fill="black" d="M309.489,365.562c-0.299,0.099-0.634-0.007-0.747-0.235c-0.066-0.13-0.043-0.269,0.04-0.385
				c0.174,0.007,0.375,0.01,0.58-0.007c0.106,0.071,0.223,0.188,0.239,0.369c0,0,0.104-0.115,0.093-0.245
				c-0.006-0.075-0.038-0.13-0.059-0.158c0.039-0.007,0.08-0.016,0.119-0.024c0.027,0.029,0.052,0.06,0.069,0.095
				C309.938,365.2,309.787,365.466,309.489,365.562z"/>
			<path fill="#FFFFFF" d="M309.694,365.059c0.011,0.13-0.093,0.245-0.093,0.245c-0.017-0.181-0.133-0.298-0.239-0.369
				c0.091-0.008,0.182-0.018,0.273-0.034C309.656,364.929,309.688,364.983,309.694,365.059z"/>
			<path fill="#FFFFFF" d="M297.612,374.054c0,0,0.899-1.385,1.343-1.951c1.328-1.693,3.475-2.864,3.475-2.864
				c-1.171,0.876-1.84,2.291-1.84,2.291c0.388-0.454,1.636-1.356,2.364-1.732c1.048-0.543,2.28-0.967,3.293-1.187
				c-1.451,0.479-5.231,2.105-7.008,6.41c0,0-0.392,0.076-1.68,0.1c-1.366,0.021-2.01-0.233-2.01-0.233s1.894-3.369,3.956-5.295
				c0.443-0.416,0.963-0.834,1.439-1.191C299.693,369.568,298.357,371.646,297.612,374.054z"/>
			<path fill="#FFFFFF" d="M307.215,370.166c-2.606,1.968-3.008,4.381-2.223,5.29c0,0-0.011,0.006-0.032,0.014
				c-0.143,0.053-0.63,0.299-1.753,0.377c-1.181,0.083-2.045,0.042-2.547-0.096c0.38-3.707,3.411-5.864,5.078-6.783
				c-1.054,0.651-2.544,1.971-3.143,4.223c1.355-3.147,4.416-4.159,4.416-4.159c-1.735,1.093-1.897,2.481-1.897,2.481
				c1.112-2.06,3.302-2.584,4.381-2.523c0.116,0.029,0.233,0.062,0.354,0.103C309.048,369.166,308.316,369.337,307.215,370.166z"/>
			<path fill="#FFFFFF" d="M292.969,372.924c1.69-1.806,3.318-3.069,4.405-3.576c0,0-1.105,0.99-1.546,1.587
				c-0.432,0.58-0.719,1.104-0.719,1.104c3.447-3.206,6.206-4.26,6.912-4.493c-0.615,0.31-1.888,1.024-3.383,2.289
				c-1.414,1.192-2.742,2.808-3.325,3.425c-1.819,0.145-3.492-0.512-3.492-0.512s1.407-1.559,3.239-3.152
				c1.906-1.655,3.47-2.481,3.787-2.643C294.783,369.596,292.969,372.924,292.969,372.924z"/>
			<path fill="#FFFFFF" d="M309.461,369.639c0,0-1.036,0.213-1.63,1.441c-0.878,1.816,0.345,2.654,0.345,2.654
				s-0.897,0.444-1.914,0.254c0,0-0.174-0.827,0.258-1.766C307.65,369.772,309.461,369.639,309.461,369.639z"/>
			<path fill="#FFD600" d="M309.704,368.614c0.286,0.055,0.552,0.185,0.876,0.323c3.174,1.569,5.653,0.76,5.653,0.76
				c-0.605-0.934-1.545-1.36-1.887-1.532c-0.78-0.391-1.085-1.053-1.085-1.053c-0.772,1.172,1.704,1.301,2.117,2.256
				c-1.08,0.369-3.253-0.537-3.991-0.912c-0.031-0.01-0.043-0.195-0.014-0.318c0.391-1.394,2.097-2.949,3.058-3.258
				c3.008-0.963,2.59,1.716,2.59,1.716s1.445-0.894,0.625-2.63c-0.229-0.446-0.853-0.98-1.337-1.399
				c-2.077-0.37-3.561,0.37-4.075,0.5c-0.119,0.354-0.463,0.904-0.915,1.203C311.319,364.27,312.36,367.182,309.704,368.614z
				 M311.936,364.792c0.201-0.348,0.213-0.529,0.185-0.729c0.373-0.151,0.654-0.258,0.654-0.258c0.407,0.052,0.098,0.35-0.074,0.467
				C312.56,364.364,311.936,364.792,311.936,364.792z"/>
			<path fill="black" d="M312.774,363.805c0.407,0.052,0.098,0.35-0.074,0.467c-0.141,0.093-0.765,0.521-0.765,0.521
				c0.201-0.348,0.213-0.529,0.185-0.729C312.493,363.911,312.774,363.805,312.774,363.805z"/>
		</g>
			<rect x="307.955" y="375.945" transform="matrix(0.9998 -0.0183 0.0183 0.9998 -6.8558 5.9146)" fill="#FFFFFF" width="24.308" height="4.068"/>
		<g>
			<path fill="black" d="M312.605,376.928l1.75-0.032c0.168-0.002,0.314,0.014,0.437,0.047c0.121,0.034,0.219,0.084,0.293,0.147
				c0.073,0.068,0.127,0.146,0.161,0.235c0.033,0.09,0.051,0.191,0.053,0.305c0.004,0.174-0.034,0.317-0.114,0.433
				c-0.081,0.114-0.191,0.196-0.327,0.243l0.001,0.007c0.155,0.03,0.263,0.107,0.321,0.231c0.06,0.122,0.092,0.291,0.096,0.508
				c0,0.043,0.002,0.09,0.004,0.138c0.002,0.05,0.009,0.101,0.018,0.158c0.012,0.058,0.024,0.112,0.04,0.163
				c0.017,0.053,0.039,0.097,0.064,0.131l-0.627,0.013c-0.05-0.085-0.075-0.222-0.079-0.416c-0.002-0.108-0.009-0.201-0.022-0.281
				c-0.013-0.08-0.036-0.147-0.07-0.205c-0.032-0.058-0.081-0.102-0.147-0.132c-0.063-0.031-0.148-0.046-0.251-0.044l-0.985,0.018
				l0.02,1.089l-0.582,0.009L312.605,376.928z M314.211,378.144c0.168-0.003,0.292-0.037,0.372-0.099
				c0.078-0.063,0.118-0.17,0.115-0.32c-0.003-0.143-0.046-0.243-0.133-0.305c-0.086-0.063-0.209-0.093-0.368-0.09l-1.002,0.019
				l0.016,0.813L314.211,378.144z"/>
			<path fill="black" d="M316.675,376.854l0.688-0.014l1.282,2.743l-0.647,0.012l-0.302-0.682l-1.301,0.024l-0.275,0.692l-0.626,0.011
				L316.675,376.854z M317.514,378.484l-0.495-1.156l-0.458,1.174L317.514,378.484z"/>
			<path fill="black" d="M318.839,376.814l0.666-0.012l1.683,2.046h0.008l-0.038-2.076l0.558-0.011l0.05,2.764l-0.653,0.013l-1.695-2.047
				l-0.007,0.002l0.037,2.075l-0.558,0.011L318.839,376.814z"/>
			<path fill="black" d="M324.572,377.732c-0.033-0.209-0.13-0.372-0.293-0.484c-0.162-0.115-0.365-0.171-0.61-0.166
				c-0.278,0.004-0.502,0.102-0.67,0.289s-0.248,0.457-0.242,0.805c0.002,0.142,0.027,0.272,0.075,0.391
				c0.05,0.119,0.118,0.222,0.208,0.309c0.089,0.086,0.194,0.151,0.315,0.197c0.118,0.043,0.247,0.064,0.39,0.062
				c0.144-0.003,0.265-0.024,0.368-0.07c0.104-0.045,0.188-0.103,0.254-0.175c0.067-0.072,0.117-0.148,0.148-0.227
				c0.034-0.08,0.057-0.161,0.069-0.244l0.625-0.011c-0.021,0.15-0.061,0.291-0.121,0.426c-0.061,0.133-0.151,0.256-0.268,0.364
				c-0.118,0.108-0.274,0.196-0.469,0.263c-0.193,0.065-0.428,0.102-0.699,0.107c-0.244,0.004-0.457-0.029-0.645-0.102
				c-0.187-0.073-0.344-0.176-0.471-0.31c-0.125-0.134-0.222-0.286-0.284-0.461s-0.096-0.359-0.101-0.56
				c-0.004-0.197,0.023-0.385,0.081-0.562c0.056-0.177,0.147-0.335,0.271-0.472c0.124-0.137,0.283-0.247,0.477-0.325
				c0.196-0.08,0.425-0.121,0.688-0.126c0.232-0.005,0.44,0.02,0.623,0.071c0.182,0.054,0.338,0.13,0.466,0.229
				c0.127,0.099,0.229,0.211,0.302,0.343c0.073,0.133,0.119,0.275,0.137,0.427L324.572,377.732z"/>
			<path fill="black" d="M325.646,376.689l0.581-0.01l0.021,1.079l1.711-0.032l-0.021-1.079l0.582-0.01l0.052,2.765l-0.584,0.01l-0.022-1.254
				l-1.709,0.031l0.023,1.255l-0.583,0.01L325.646,376.689z"/>
		</g>
		<g>
			<path fill="black" d="M305.406,360.748c-0.356-0.1-0.47-0.133-0.571,0.339l-0.079-0.022l0.335-1.563c0.316-1.481,1.302-1.518,1.833-1.365
				c0.698,0.197,1.363,0.836,1.064,2.238l-0.324,1.513l-0.079-0.022c0.102-0.471-0.015-0.503-0.37-0.604L305.406,360.748z
				 M307.566,360.517c0.162,0.046,0.221-0.034,0.26-0.208c0.168-0.797-0.516-1.128-1.07-1.284c-1.016-0.29-1.412,0.123-1.52,0.614
				l-0.042,0.205L307.566,360.517z"/>
			<path fill="black" d="M307.162,357.517c-0.764-0.605-0.902-1.656-0.384-2.511c0.52-0.855,1.43-1.074,2.191-0.469
				c0.764,0.606,0.903,1.657,0.384,2.511C308.835,357.904,307.925,358.122,307.162,357.517z M308.519,355.283
				c-0.436-0.345-1.203-0.816-1.599-0.164c-0.394,0.651,0.26,1.309,0.693,1.653c0.437,0.345,1.204,0.817,1.598,0.165
				C309.607,356.284,308.954,355.628,308.519,355.283z"/>
			<path fill="black" d="M310.017,351.363l0.811-0.724l0.05,0.074c-0.315,0.283-0.241,0.425-0.012,0.759l0.812,1.181
				c0.263,0.381,0.621,1.12-0.202,1.856c-0.589,0.526-1.092,0.455-1.506-0.146l-0.91-1.323c-0.227-0.329-0.298-0.436-0.633-0.137
				l-0.05-0.074l1.231-1.1l0.051,0.073c-0.334,0.298-0.261,0.403-0.035,0.734l1.006,1.458c0.207,0.303,0.487,0.512,0.894,0.15
				c0.446-0.399,0.279-0.96,0.028-1.327l-0.834-1.212c-0.229-0.333-0.334-0.451-0.65-0.169L310.017,351.363z"/>
			<path fill="black" d="M312.023,350.658c-0.155-0.379-0.205-0.501-0.59-0.299l-0.033-0.084l1.426-0.75c0.958-0.504,1.234,0.171,1.271,0.265
				c0.176,0.431-0.078,0.775-0.346,1.013l0.005,0.009c0.421-0.118,0.877-0.131,1.091,0.394c0.131,0.318,0.126,0.957-0.848,1.472
				l-1.337,0.702l-0.035-0.083c0.386-0.203,0.335-0.324,0.181-0.705L312.023,350.658z M312.984,351.137
				c0.5-0.263,0.605-0.592,0.446-0.981c-0.058-0.14-0.295-0.578-0.828-0.299l-0.114,0.062L312.984,351.137z M313.486,352.371
				c0.088,0.216,0.161,0.274,0.35,0.174c0.336-0.177,0.45-0.566,0.298-0.943c-0.076-0.188-0.328-0.681-0.954-0.352l-0.122,0.065
				L313.486,352.371z"/>
			<path fill="black" d="M317.834,351.343l-2.588,0.682l-0.018-0.091c0.413-0.108,0.387-0.24,0.303-0.647l-0.427-2.072
				c-0.084-0.408-0.111-0.537-0.525-0.429l-0.018-0.09l1.558-0.41l0.019,0.09c-0.444,0.117-0.418,0.248-0.334,0.654l0.411,2.002
				c0.107,0.508,0.137,0.5,0.6,0.379c0.576-0.153,0.728-0.31,0.802-1.241l0.088-0.022L317.834,351.343z"/>
			<path fill="black" d="M319.123,349.44c0.52-0.013,0.559-0.354,0.618-0.826l0.083-0.001l0.039,1.805l-0.081,0.002
				c-0.083-0.468-0.135-0.808-0.655-0.795l0.021,0.919c0.011,0.433,0.012,0.526,0.325,0.519c0.424-0.01,0.958-0.022,1.164-0.916
				l0.081-0.002l-0.111,1.087l-2.585,0.061l-0.002-0.093c0.423-0.009,0.42-0.144,0.411-0.562l-0.048-2.126
				c-0.011-0.417-0.013-0.552-0.437-0.542l-0.003-0.093l2.505-0.06l0.021,1.012l-0.08,0.002c-0.149-0.761-0.458-0.805-1.05-0.791
				l-0.248,0.005L319.123,349.44z"/>
			<path fill="black" d="M323.464,349.989c0.5,0.167,0.626-0.146,0.81-0.573l0.077,0.025l-0.437,1.733l-0.079-0.026
				c0.044-0.474,0.084-0.814-0.417-0.982l-0.222,0.882c-0.105,0.416-0.128,0.505,0.173,0.605c0.408,0.136,0.921,0.307,1.354-0.472
				l0.078,0.026l-0.394,0.996l-2.485-0.829l0.022-0.089c0.409,0.136,0.441,0.008,0.543-0.393l0.516-2.041
				c0.101-0.401,0.133-0.529-0.276-0.666l0.023-0.089l2.407,0.803l-0.246,0.971l-0.077-0.026c0.059-0.774-0.224-0.923-0.793-1.113
				l-0.239-0.08L323.464,349.989z"/>
			<path fill="black" d="M325.721,351.857l-0.211,0.175c-0.094,0.078-0.175,0.144-0.218,0.229c-0.111,0.211,0.028,0.33,0.216,0.476l-0.041,0.081
				l-0.862-0.583l0.043-0.08c0.276,0.157,0.577-0.129,0.791-0.303l2.088-1.687l0.039,0.027l-0.321,3.093
				c-0.024,0.241-0.072,0.579,0.146,0.726l-0.042,0.081l-1.251-0.847l0.041-0.08c0.108,0.073,0.305,0.205,0.379,0.063
				c0.037-0.074,0.038-0.116,0.05-0.198l0.057-0.56L325.721,351.857z M326.783,351.001l-0.914,0.741l0.78,0.527L326.783,351.001z"/>
			<path fill="black" d="M330.672,354.707l-0.058-0.065c0.229-0.532,0.22-1.17-0.161-1.607c-0.546-0.622-1.229-0.15-1.67,0.351
				c-0.459,0.524-0.873,1.234-0.302,1.884c0.119,0.136,0.243,0.236,0.409,0.323l0.352-0.399c0.26-0.294,0.341-0.388,0.04-0.733
				l0.059-0.064l1.047,1.197l-0.057,0.066c-0.253-0.289-0.337-0.195-0.597,0.1l-0.36,0.409c-0.432-0.122-0.881-0.605-1.079-0.833
				c-0.683-0.782-0.716-1.865-0.096-2.568c0.659-0.752,1.655-0.692,2.304,0.05c0.234,0.269,0.333,0.469,0.395,0.626
				c0.061,0.156,0.083,0.27,0.149,0.347c0.086,0.099,0.214,0.048,0.311,0.004l0.059,0.067L330.672,354.707z"/>
			<path fill="black" d="M330.831,359.198l-1.386-2.595l0.067-0.049c0.222,0.415,0.322,0.345,0.635,0.129l1.59-1.1
				c0.313-0.217,0.414-0.286,0.191-0.7l0.069-0.049l0.834,1.563l-0.068,0.047c-0.239-0.444-0.34-0.375-0.651-0.16l-1.536,1.063
				c-0.389,0.27-0.373,0.3-0.125,0.763c0.309,0.58,0.487,0.698,1.285,0.49l0.048,0.088L330.831,359.198z"/>
			<path fill="black" d="M332.83,359.981c0.187,0.556,0.482,0.484,0.89,0.396l0.03,0.088l-1.479,0.637l-0.029-0.087
				c0.36-0.243,0.622-0.412,0.437-0.967l-0.752,0.325c-0.355,0.151-0.431,0.185-0.319,0.519c0.151,0.453,0.343,1.022,1.149,0.951
				l0.029,0.086l-0.936,0.238l-0.924-2.761l0.075-0.033c0.152,0.454,0.262,0.405,0.604,0.259l1.74-0.751
				c0.343-0.146,0.452-0.194,0.301-0.648l0.075-0.031l0.896,2.674l-0.827,0.356l-0.029-0.087c0.578-0.409,0.509-0.756,0.299-1.388
				l-0.089-0.267L332.83,359.981z"/>
		</g>
        </g>
            </svg>