<svg xmlns="http://www.w3.org/2000/svg" version="1.1" xmlns:xlink="http://www.w3.org/1999/xlink" viewBox="-10 -20 50 50">
<defs>
   <linearGradient id="colour1">
     <stop offset="100%" stop-color="yellow"/>
   </linearGradient>
   <linearGradient id="colour2">
     <stop offset="100%" stop-color="red"/>
   </linearGradient>
 </defs>
<g> 
<circle fill="url(#colour1)" cx="13" cy="-13" r="20"/> 
<path fill="url(#colour2)" d="M 22.96875 -12.109375 C 23.0625 -12.65625 23.125 -13.34375 23.125 -14.3125 C 23.125 -19.078125 21.078125 -26.484375 13.171875 -26.484375 C 6.171875 -26.484375 1.890625 -20.375 1.890625 -12.546875 C 1.890625 -4.71875 6.3125 0.59375 13.71875 0.59375 C 17.546875 0.59375 20.234375 -0.328125 21.78125 -1.078125 L 20.984375 -4.453125 C 19.390625 -3.703125 17.453125 -3.109375 14.3125 -3.109375 C 9.890625 -3.109375 6.171875 -5.734375 6.0625 -12.109375 L 22.96875 -12.109375 Z M 6.109375 -15.5 C 6.46875 -18.765625 8.359375 -23.109375 12.828125 -23.109375 C 17.75 -23.109375 18.9375 -18.4375 18.890625 -15.5 L 6.109375 -15.5 Z M 6.109375 -15.5 "/>
</g>
</svg>
