<?xml version="1.0" encoding="UTF-8" standalone="no"?>
<svg
   xmlns:svg="http://www.w3.org/2000/svg"
   xmlns="http://www.w3.org/2000/svg"
   viewBox="0 0 240 234"
   height="234"
   width="240"
   version="1.1">
<defs>
   <linearGradient id="colour1">
     <stop offset="100%" stop-color="red"/>
   </linearGradient>
   <linearGradient id="colour2">
     <stop offset="100%" stop-color="green"/>
   </linearGradient>
 </defs>
<g>    
  <path d="m 125.04841,152.7598 c 12.33218,-6.84123 23.48779,-21.66811 28.5297,-37.91869 2.20238,-7.09849 4.66512,-22.407424 5.9597,-37.046739 l 0.71158,-8.046731 -10.46224,-4.67949 C 126.40474,54.609805 104.68842,53.565433 81.699046,61.793686 c -3.89809,1.395188 -9.46917,3.769349 -12.38017,5.275912 l -5.29273,2.739207 0.64532,10.02902 c 1.99728,31.040105 13.11844,55.808545 30.86896,68.749735 9.737684,7.09935 11.638544,7.85832 18.465744,7.37301 4.08707,-0.29053 7.66648,-1.32808 11.04224,-3.20077 z m -19.19287,-4.32101 C 86.935436,138.06319 73.532746,112.14418 71.021146,81.07371 l -0.68483,-8.471895 6.71737,-3.113577 c 11.61852,-5.385315 18.51132,-6.632844 36.689164,-6.64038 18.07958,-0.0075 26.96797,1.788624 35.12213,7.097289 l 4.09869,2.668403 -0.64639,12.127315 c -0.76114,14.280331 -5.00863,31.786195 -10.25655,42.271865 -4.1971,8.38609 -13.17109,16.97149 -22.24782,21.28446 -3.5233,1.67415 -6.92196,3.0397 -7.55258,3.03454 -0.63063,-0.005 -3.51278,-1.30699 -6.40479,-2.89294 z m -0.99466,-17.16346 c -1.97275,-3.53882 -4.899884,-10.03422 -6.504724,-14.43422 -2.59503,-7.11482 -2.92243,-9.43842 -2.95893,-21.000004 -0.0376,-11.941641 0.18626,-13.488481 2.75077,-19.000005 1.53549,-3.3 2.610584,-6.174053 2.389084,-6.386783 -0.2215,-0.212731 -3.676414,2.128355 -7.677604,5.202414 -9.83197,7.553773 -12.23052,12.21442 -12.1889,23.684374 0.0424,11.677374 2.73815,16.455984 16.52179,29.286884 5.782484,5.38279 10.680504,9.62819 10.884484,9.43422 0.20399,-0.19396 -1.2432,-3.24806 -3.21597,-6.78688 z m 19.5661,3.96345 c 9.98264,-6.09128 16.49291,-16.77562 17.43435,-28.61241 l 0.60447,-7.599944 -5.04347,0.65734 c -2.77392,0.361544 -8.12683,0.657344 -11.89537,0.657344 -6.78526,0 -6.83338,0.0194 -4.94843,2 1.09459,1.15011 3.23902,2 5.04639,2 h 3.14295 l -0.67261,6.88166 c -0.8436,8.63113 -4.01734,18.48445 -7.52691,23.36834 -1.48211,2.0625 -2.3642,3.75 -1.96018,3.75 0.40402,0 3.02248,-1.39605 5.81881,-3.10233 z M 113.74285,102.6668 V 87.992473 l 2.43398,2.174323 c 3.16394,2.82641 8.97101,2.87073 12.67965,0.0968 2.69272,-2.014091 6.17693,-6.809979 4.0314,-5.549082 -0.57531,0.338101 -3.56124,0.16115 -6.6354,-0.393224 -5.7639,-1.039423 -10.8228,-4.501788 -12.07971,-8.267471 -0.57046,-1.709098 -1.24762,-1.371638 -5.79613,2.888476 l -5.15021,4.823622 v 16.787603 16.78759 h 5.25821 5.25821 z"
     fill="url(#colour1)" stroke="none" />
</g>  
</svg>
