<?xml version="1.0" encoding="utf-8"?>
<!-- Generator: Adobe Illustrator 14.0.0, SVG Export Plug-In . SVG Version: 6.00 Build 43363)  -->
<!DOCTYPE svg PUBLIC "-//W3C//DTD SVG 1.1//EN" "http://www.w3.org/Graphics/SVG/1.1/DTD/svg11.dtd">
<svg version="1.1" xmlns="http://www.w3.org/2000/svg" xmlns:xlink="http://www.w3.org/1999/xlink" x="0px" y="0px" width="792px"
	 height="612px" viewBox="0 0 792 612" enable-background="new 0 0 792 612" xml:space="preserve">
<g id="Jim Rome Emblem">
	<g>
		<path fill="none" d="M491.903,249.135c-0.02-0.006-0.065,0.006-0.118,0.023C491.825,249.149,491.863,249.146,491.903,249.135z"/>
		<path fill="none" d="M476.179,276.666c0.985-0.449,1.727-0.791,2.194-1.006c-0.192-0.173-0.271-0.537-0.177-1.211
			C476.827,274.866,476.452,275.703,476.179,276.666z"/>
		<path fill="none" d="M349.303,321.795l-1.292,0.502c-1.578-1.159,3.194-2.37-0.264-2.145c-0.871,0.654-1.516,1.856-1.444,2.693
			c1.118-0.205,2.247-0.419,3.394-0.65C349.607,322.057,349.489,321.922,349.303,321.795z"/>
		<path fill="none" d="M393.875,315.638c1.619-0.366,3.457-0.809,5.535-1.346c-0.323-1.411-2.411-1.017-3.819-0.046l0.039,0.967
			l-1.31-0.619C394.083,314.805,394.026,315.248,393.875,315.638z"/>
		<path fill="none" d="M478.968,275.383l1.128-1.932c-0.038-0.005-0.076,0-0.114-0.006
			C479.649,274.1,478.179,274.908,478.968,275.383z"/>
		<path fill="none" d="M499.46,244.049c0.401,0.905,0.924,1.951,1.299,3.1c15.461,12.974-6.042,29.976-52.555,47.924
			c-0.003,0.039-0.012,0.075-0.01,0.115c-0.409,0.243-0.9,0.358-1.41,0.434c-1.832,0.7-3.709,1.401-5.616,2.104
			c-0.061,0.079-0.127,0.157-0.181,0.236l-0.026-0.16c-0.337,0.124-0.669,0.247-1.008,0.371c-0.699,0.389-1.485,0.961-1.885,1.577
			c-0.487,0.001-0.861-0.198-1.171-0.471c-1.301,0.467-2.616,0.934-3.948,1.402c0.021,0.435,0.196,0.792,0.538,0.918
			c-3.455,0.555-6.445,3.68-10.012,3.183c-0.315,0.57,0.072,0.721-0.799,1.299c-4.855,1.312-9.606,4.752-14.067,3.935
			c0.933-0.657,0.327-0.918-0.121-1.25c-0.636,0.199-1.272,0.397-1.913,0.596c0,0.069,0.001,0.142,0.006,0.229
			c0.406,0.883,0.435,1.366,1.896,1.302c-2.678,1.45-7.032,2.794-8.883,2.372c0.823,0.17,0.486,0.561,0.02,0.973
			c12.021-3.121,31.831-9.347,61.887-21.738C518.5,269,516,251,516,251C514.087,247.386,507.939,245.223,499.46,244.049z"/>
		<path fill="none" d="M190,330c4,6.5,77-1,108.885-6.729c10.368-1.863,13.263-1.644,14.188-0.775
			c1.289-1.043,2.443-1.34,4.716-2.527c2.198-0.356,5.814-0.646,8.152-0.447c7.833-3.664,16.476-3.952,24.687-7.092l0.854,0.986
			c7.701-4.142,18.238-4.411,24.88-7.41l-0.184,2.061c2.347,0.062,4.826-1.82,3.917-2.995c2.33-0.013,5.161-2.386,6.972-1.212
			c2.321-0.246,2.459-1.637,4.215-2.424c4.125-0.552,5.86-1.076,9.059-2.388c0.022-0.092,0.055-0.183,0.104-0.268l1.056-0.214
			c-0.411,0.172-0.793,0.331-1.159,0.481c-0.13,0.512,0.149,1.063,1.051,0.884c1.374-1.017,5.816-1.333,3.564-3.057
			c4.846-0.079,9.78-4.49,14.61-4.27c-0.579-0.474,0.446-0.958,0.733-1.53c3.704-1.502,8.154-1.789,10.687-4.026
			c0.705,0.041-0.513,1.409,1.011,0.818c0.79-0.609-0.307-0.776,0.646-1.579c5.477-3.591,12.444-4.232,17.529-7.21
			c8.672-5.812,17.951-11.095,25.145-17.424l0.219,0.427c1.393-3.245,6.739-3.782,6.7-7.393c0.894-0.187,1.962-1.975,2.316-0.944
			c0.296-1.266,1.451-2.316,2.744-3.476c-0.364-0.165-0.748-0.354-1.129-0.574c0.364-0.109,0.99-0.098,1.222-0.522
			c-1.021-1.256-3.464,1.235-3.852-1.108c-0.815-0.125-0.736,1.021-0.247,1.042c-8.08-2.065-17.996-0.372-27.257,0.695
			c-6.838-0.903-0.671-3.786-5.899-1.71c-0.474-0.401-0.25,0.884-0.358,0.422c-2.014,0.777-3.45-2.241-4.791-0.934
			c0.721,1.327-0.89,0.864-0.854,1.708c-4.236-0.525-5.218-1.629-8.391-0.241l0.166-0.753c-3.622,2.485-8.217,1.916-11.151,4.723
			c-21.117,3.243-41.118,8.155-61.514,12.583c-20.324,3.713-39.771,9.333-60.348,13.437c-5.229-0.571-5.593-0.452-10.585,1.737
			c0.13-0.357,0.434-0.52,0.008-0.703c0.162,1.59-3.621,1.163-3.71,2.745c-7.531,1.82-14.256,4.229-21.833,6.604
			c1.149-0.534,1.373-1.949-0.026-1.406l-1.191,1.421l-0.376-0.345c-0.908,0.528-1.734,1.6-0.576,1.77
			c-18.17,7.186-37.449,10.709-54.205,19.081C198.474,316.932,187.544,326.009,190,330z"/>
		<path fill="none" d="M391.61,315.451c-0.333,0.274-0.699,0.587-1.085,0.901c0.521-0.104,1.069-0.216,1.661-0.343
			C392.042,315.784,391.87,315.578,391.61,315.451z"/>
		<path fill="#999999" d="M288.656,338.615c-0.417,0.016-0.719,0.107-0.953,0.243C287.879,338.888,288.17,338.826,288.656,338.615z"
			/>
		<path fill="#999999" d="M308.141,336.794c-0.082,0.067-0.169,0.147-0.274,0.256L308.141,336.794z"/>
		<path fill="#999999" d="M316.237,335.727c0.084-0.101,0.13-0.199,0.157-0.293C316.325,335.52,316.271,335.616,316.237,335.727z"/>
		<path fill="#999999" d="M400.445,298.778c-0.049,0.085-0.081,0.176-0.104,0.268c0.366-0.151,0.748-0.309,1.159-0.481
			L400.445,298.778z"/>
		<path fill="#999999" d="M270.126,341.63c-0.223,0.369-0.629,0.61-0.488,0.966C270.942,342.446,271.166,342.091,270.126,341.63z"/>
		<path fill="#999999" d="M295.25,338.601c-0.299,1.082,1.719-0.663,2.407-0.215C296.999,337.696,295.824,338.458,295.25,338.601z"
			/>
		<path fill="#999999" d="M307.275,335.645c-0.391,0.257-0.56,0.155-0.93,0.167l0.473,0.813
			C307.371,336.47,307.993,335.853,307.275,335.645z"/>
		<polygon fill="#999999" points="367.619,252.57 367.257,252.661 367.776,254.001 		"/>
		<path fill="#999999" d="M388.5,243l9.147,3.431c-0.036,0.101-0.047,0.204-0.01,0.31c-1.496,0.717-0.89-0.894-1.963-0.631
			l-3.755,3.919c0.095-0.495-1.649-1.223-0.438-2.037c-3.224,0.789-4.716,3.115-6.525,4.563c-1.019-0.109-4.044,1.16-5.111,1.431
			c-0.688-0.808,0.927-0.112,1.038-0.872l-1.832-0.765c2.135-0.543-0.576-1.572,0.471-2.45c-1.626,0.905-5.864,1.051-8.524,1.26
			c2.177,1.628-3.301,1.623-2.841,3.358c-2.971,0.929-1.794-1.113-3.021-1.27c-3.021,1.312-6.118,1.445-8.943,2.243
			c0,0-0.093-0.229,0.04-0.381c-2.52,1.073-6.893,1.475-9.181,3.623c0.044-0.379-0.269-0.666,0.35-1.087
			c-2.958-0.01-0.031,2.354-3.521,2.013l0.564-1.032c-1.836,1.285-4.095,0.112-6.106,1.956c-0.185-0.453,0.29-0.718,0.561-1.043
			c-2.025,0.851-4.458,1.204-5.964,2.794c-0.41-0.492-0.238-1.042,0.502-1.633c-2.246-0.184-1.91,2.068-3.941,1.944
			c-0.571,0.056-1.771-0.439-1.426-0.553c-0.77,0.98-3.661,1.652-4.63,2.205c-0.402-0.501-1.201-0.5-2.532-0.815
			c-10.431,2.562-21.187,5.02-31.046,9.386c-2.2-1.247,2.107-1.749,0.684-2.632c0.485,1.461-1.625,0.91-4.615,2.276l-0.188-0.182
			c-1.246,0.693-2.266-0.056-3.571,0.823l0.16,0.374c-1.244,1.403-3.934-0.934-4.194,1.19l-1.479-0.715
			c-1.004,2.109-2.543,0.167-3.966,2.12l0.125-0.36c-2.712,0.012-4.619,3.363-5.977,2.324c-2.035,0.913-4.367,1.997-4.349,3.415
			c-0.613-0.349-0.574-1.23-0.396-1.762c-7.664,3.122-16.56,5.702-22.856,9.964c-0.441-0.152-0.092-0.524,0.017-0.881
			c-3.764,3.038-9.434,1.647-11.451,5.752l-0.649,1.636c-1.181-0.073-1.44-0.938-2.379-1.045c-0.21,0.46-0.884,0.847-1.608,1.229
			L222.5,296c0,0-89,26-73.5,48c7.191,7.191,57.569,7.659,125.468-3.245c-0.099,0.088-0.184,0.187-0.234,0.316l1.666,1.392
			c3.135-0.189,0.604-1.917,3.885-1.78l-0.278,0.853l1.927-0.777c-0.034-0.349-0.167-0.754-0.426-1.083
			c1.242-0.209,2.488-0.422,3.74-0.639c0.438,0.458,0.82,0.88,0.023,1.383c2.191,0.414,1.928-0.978,2.932-1.561
			c-0.167-0.027-0.231-0.138-0.241-0.295c1.301-0.229,2.609-0.465,3.92-0.702c0.506,0.401,1.146,0.629,2.083,0.33
			c-0.124-0.233-0.153-0.462-0.125-0.687c1.812-0.333,3.634-0.674,5.465-1.021c1.372,0.501,2.87,0.924,3.498,1.328
			c1.747-0.923-0.791-1.279,1.291-1.971c-0.631,0.859,0.788,1.27,1.73,1.102c-1.279-0.164-1.051-0.954-0.423-1.64
			c1.147-0.227,2.299-0.456,3.453-0.688c0.768,0.288,1.254,0.717,1.131,0.926l-1.343,1.254c0.866-0.723,0.54,0.647,1.763,0.037
			c0.228-0.715,0.726-1.772,1.058-2.743c0.75-0.153,1.504-0.312,2.256-0.467c0.197,0.052,0.359,0.074,0.467,0.002l-1.751,1.184
			c2.439-0.75,0.9,2.091,3.374,1.098l0.476-1.223c0.423,0.071,0.717,0.378,0.61,0.752c0.47-0.592,1.661-0.703,2.168-1.046l0.3,0.7
			c0.978-0.662,2.04-2.518,3.59-1.304c-1.332-1.584-1.3,0.208-3.273-0.272c-0.69-0.562-0.271-0.945,0.36-1.224
			c0.554-0.118,1.107-0.236,1.662-0.356c0.394,1.504,2.79-0.537,4.022-0.746c0.87,0.536,1.58,0.721,2.113,1.042l0.275-1.337
			c0.925,2.327,2.464-1.03,4.062-0.547c-0.604,0.883-0.317,1.822,0.774,1.983c-1.41-1.271,0.717-2.243,1.177-3.179
			c0.362-0.084,0.724-0.166,1.086-0.251c0.547,0.714-1.022,2.288-0.235,3.152c1.027-1.646,3.083,0.326,3.594-1.639
			c-1.997-0.178,0.074-1.204,0.307-2.072c2.4-0.327-0.234,0.868,1.568,1.186c0.785-0.374,1.614-1.569,0.934-2.083
			c1.31-0.314,2.624-0.634,3.94-0.955c-0.216,0.654-2.749,0.798-1.843,1.334c1.315-0.216,1.755-0.747,1.995-1.371
			c0.965-0.236,1.934-0.479,2.902-0.719c-0.313,0.524-0.365,0.996,0.257,1.354l1.321-0.978c-0.207,0.624-0.464,1.729,0.251,2.137
			c0.083-1.446,3.348-1.07,3.546-1.448c0.056-1.21-1.117,0.589-1.073-0.365c1.49-0.644,1.762-2.706,4.309-2.493
			c-1.136,1.082,0.847,1.464,0.452,2.233c1.273,0.224,0.063-1.433,1.875-1.178l-0.033,0.729c6.263-1.202,14.021-3.162,18.608-7.337
			c1.271,0.899,3.287,0.53,6.574,0.471c-1.459-0.012-0.37-1.163,0.358-1.517l1.831,0.921c0.881,0.121,1.757-0.184,2.589-0.653
			C412.52,311.591,502.825,288.065,523,253C544,216.5,388.5,243,388.5,243z M395.591,314.246c1.408-0.971,3.496-1.365,3.819,0.046
			c-2.078,0.537-3.916,0.979-5.535,1.346c0.151-0.39,0.207-0.833,0.445-1.044l1.31,0.619L395.591,314.246z M346.303,322.846
			c-0.072-0.837,0.573-2.039,1.444-2.693c3.458-0.226-1.314,0.985,0.264,2.145l1.292-0.502c0.186,0.127,0.304,0.262,0.395,0.4
			C348.55,322.427,347.421,322.641,346.303,322.846z M478.373,275.659c-0.468,0.216-1.209,0.557-2.194,1.006
			c0.273-0.963,0.648-1.799,2.018-2.218C478.103,275.122,478.181,275.486,478.373,275.659z M478.968,275.383
			c-0.789-0.476,0.682-1.283,1.014-1.938c0.038,0.006,0.076,0.001,0.114,0.006L478.968,275.383z M491.785,249.158
			c0.053-0.018,0.099-0.029,0.118-0.023C491.863,249.146,491.825,249.149,491.785,249.158z M264.606,290.857
			c-1.158-0.17-0.332-1.242,0.576-1.77l0.376,0.345l1.191-1.421c1.399-0.543,1.175,0.872,0.026,1.406
			c7.577-2.376,14.301-4.785,21.833-6.604c0.089-1.582,3.872-1.155,3.71-2.745c0.426,0.183,0.122,0.346-0.008,0.703
			c4.992-2.189,5.356-2.309,10.585-1.737c20.577-4.104,40.023-9.724,60.348-13.437c20.396-4.427,40.396-9.339,61.514-12.583
			c2.935-2.808,7.529-2.238,11.151-4.723l-0.166,0.753c3.173-1.388,4.154-0.284,8.391,0.241c-0.036-0.844,1.574-0.381,0.854-1.708
			c1.341-1.308,2.777,1.711,4.791,0.934c0.108,0.462-0.115-0.823,0.358-0.422c5.229-2.075-0.938,0.808,5.899,1.71
			c9.261-1.066,19.177-2.76,27.257-0.695c-0.489-0.021-0.568-1.167,0.247-1.042c0.388,2.343,2.831-0.148,3.852,1.108
			c-0.231,0.424-0.857,0.413-1.222,0.522c0.381,0.22,0.765,0.409,1.129,0.574c-1.293,1.16-2.448,2.21-2.744,3.476
			c-0.354-1.031-1.423,0.757-2.316,0.944c0.039,3.61-5.308,4.148-6.7,7.393l-0.219-0.427c-7.193,6.329-16.473,11.613-25.145,17.424
			c-5.085,2.978-12.053,3.619-17.529,7.21c-0.952,0.802,0.145,0.969-0.646,1.579c-1.523,0.591-0.306-0.777-1.011-0.818
			c-2.532,2.237-6.982,2.524-10.687,4.026c-0.287,0.571-1.313,1.056-0.733,1.53c-4.83-0.22-9.765,4.191-14.61,4.27
			c2.252,1.724-2.19,2.04-3.564,3.057c-0.901,0.18-1.181-0.372-1.051-0.884c-3.199,1.312-4.935,1.835-9.059,2.388
			c-1.755,0.788-1.894,2.178-4.215,2.424c-1.811-1.174-4.642,1.2-6.972,1.212c0.909,1.175-1.571,3.057-3.917,2.995l0.184-2.061
			c-6.642,2.999-17.179,3.269-24.88,7.41l-0.854-0.986c-8.211,3.14-16.854,3.428-24.687,7.092c-2.338-0.199-5.955,0.091-8.152,0.447
			c-2.272,1.188-3.427,1.484-4.716,2.527c-0.925-0.868-3.82-1.088-14.188,0.775C267,329,194,336.5,190,330
			c-2.456-3.991,8.474-13.068,20.401-20.063C227.157,301.566,246.436,298.042,264.606,290.857z M391.61,315.451
			c0.26,0.127,0.431,0.333,0.576,0.559c-0.592,0.127-1.14,0.239-1.661,0.343C390.911,316.038,391.277,315.726,391.61,315.451z
			 M461.5,292.5c-30.056,12.391-49.865,18.617-61.887,21.738c0.467-0.412,0.804-0.803-0.02-0.973
			c1.851,0.422,6.205-0.922,8.883-2.372c-1.461,0.064-1.489-0.419-1.896-1.302c-0.005-0.087-0.006-0.159-0.006-0.229
			c0.641-0.198,1.277-0.396,1.913-0.596c0.448,0.332,1.054,0.593,0.121,1.25c4.461,0.817,9.212-2.623,14.067-3.935
			c0.871-0.579,0.483-0.729,0.799-1.299c3.566,0.497,6.557-2.628,10.012-3.183c-0.342-0.125-0.518-0.483-0.538-0.918
			c1.332-0.468,2.647-0.936,3.948-1.402c0.31,0.272,0.684,0.472,1.171,0.471c0.399-0.616,1.186-1.188,1.885-1.577
			c0.339-0.124,0.671-0.248,1.008-0.371l0.026,0.16c0.054-0.08,0.12-0.158,0.181-0.236c1.907-0.703,3.784-1.404,5.616-2.104
			c0.51-0.075,1.001-0.19,1.41-0.434c-0.002-0.04,0.007-0.076,0.01-0.115c46.513-17.949,68.016-34.951,52.555-47.924
			c-0.375-1.149-0.897-2.195-1.299-3.1c8.479,1.173,14.627,3.337,16.54,6.951C516,251,518.5,269,461.5,292.5z"/>
	</g>
	<path fill="#1C75BC" d="M197.5,288.5c0,0-4,2.5-7.5,2.5s-13.5,4.5-16.5,5.5s-31.5,11-38,15c0,0-10.5,4.5-13,6s-4,6.5,1.5,7
		s56,0,70-1.5s78-7.5,90-11s16.5-0.5,26-4.5s14-3.5,14-3.5l-2-51.5c0,0,75.5,6,87,6.5c0,0,4.5,1.5,0,2s-31.5,4.5-33,4.5
		s-26,4.5-26,7s1.5,4.5,3.5,4.5s4,7,4,7l7.5-3l35.5,11l1.5-3.5l92.5,26c0,0,15,0,17.5,0s18,5.5,18,5.5l2-1.5l7.5-1l-127-42l2.5-1.5
		l-5,0.5c0,0-6.5-1-4.5-1.5s31.5-6,31.5-6s3-2,7-2.5c0,0,6-3,3.5-5s2.5-2.5-0.5-3.5s-42.5-14.5-74-15.5s-48-0.5-48-0.5l-0.5-2.5
		l-23,3l8.5,2.5l-19-1l5.5,3c0,0-7.5,14-9.5,47.5c0,0-5.5,1-5.5,4L183,304c0,0-5.5-1-1-3.5S196.5,295,197.5,288.5z"/>
</g>
</svg>
