<svg xmlns:rdf="http://www.w3.org/1999/02/22-rdf-syntax-ns#" xmlns="http://www.w3.org/2000/svg" version="1.0" xmlns:xlink="http://www.w3.org/1999/xlink" viewBox="0 0 100 180">
<defs>
   <linearGradient id="colour1">
     <stop offset="100%" stop-color="yellow"/>
   </linearGradient>
   <linearGradient id="colour2">
     <stop offset="100%" stop-color="red"/>
   </linearGradient>
 </defs>
 <path
     style="fill:url(#colour1)"
     d="m 51.137049,168.97211 c -8.203026,-5.40081 -14.012791,-15.53754 -16.826395,-29.35825 -0.634948,-3.11892 -1.061993,-23.31777 -1.071201,-50.666853 -0.0084,-25.014124 -0.345922,-46.392475 -0.75,-47.507446 -1.707758,-4.712211 -5.326699,-6.64055 -8.26051,-4.401583 -3.376813,2.57705 -4.974177,9.75896 -4.974177,22.3644 l 0,8.937222 -9.5000003,0 c -6.8762278,0 -9.52957179,-0.636069 -9.60707179,-2.303039 C -0.42275609,53.766558 0.72416091,35.13827 2.4718089,28.288182 5.0519479,18.175062 12.052633,6.7980018 17.988375,3.0716669 31.062337,-5.1358974 45.85891,6.4930868 51.640678,29.519824 c 1.991862,7.932882 2.099466,10.968947 1.861181,52.51356 -0.247058,43.074026 -0.202549,44.192656 1.924314,48.363816 2.487011,4.87747 6.393734,5.45227 9.328593,1.37253 1.88211,-2.61632 2.029627,-5.51798 2.502614,-49.226436 0.474299,-43.829759 0.633043,-46.934681 2.817931,-55.116816 9.60236,-35.959647 37.033229,-36.272291 47.517079,-0.541577 2.0115,6.855533 2.19726,10.660512 2.66237,54.535464 0.55036,51.916055 0.71405,53.246755 6.54986,53.246755 2.32175,0 3.88184,-1.35116 5.24399,-4.54168 1.7631,-4.12966 1.9806,-8.5393 2.39747,-48.606911 0.45241,-43.484295 0.49456,-44.201198 3.19713,-54.378512 8.37928,-31.5546432 31.42483,-36.6312815 44.26688,-9.751427 4.94304,10.346341 6.55428,20.074471 6.15019,37.132777 l -0.30552,12.897018 -9.5,0 -9.5,0 -0.5,-13.509428 c -0.39084,-10.56003 -0.92379,-14.079647 -2.44113,-16.121271 -2.86088,-3.8494 -6.92211,-3.180464 -9.31087,1.533625 -1.99558,3.93817 -2.11681,6.402735 -2.42431,49.285031 -0.37083,51.712928 -0.8709,55.564468 -8.99761,69.298908 -12.96367,21.90908 -32.83013,15.66428 -41.13499,-12.93032 -2.05115,-7.06234 -2.22302,-10.62822 -2.69109,-55.832505 -0.4717,-45.555083 -0.61321,-48.445726 -2.499998,-51.068868 -2.7335,-3.800285 -5.821441,-3.578668 -8.639211,0.620025 -2.33988,3.486589 -2.36521,3.923055 -2.86079,49.285031 -0.56881,52.066477 -1.11406,56.326347 -9.01856,70.459747 -6.60978,11.8184 -18.266128,16.34936 -27.099152,10.53375 z"
 /> 
</svg>
