<svg viewBox="0 0 116 114" version="1.1" xmlns="http://www.w3.org/2000/svg">
    <defs>
  <linearGradient id="colour0">
     <stop offset="100%" stop-color="blue"/>
   </linearGradient>
   <linearGradient id="colour1">
     <stop offset="100%" stop-color="yellow"/>
   </linearGradient>
   <linearGradient id="colour2">
     <stop offset="100%" stop-color="red"/>
   </linearGradient>
 </defs>
<g>
	<path fill="url(#colour1)" d=" M 51.34 31.45 C 62.49 28.04 75.55 34.97 78.77 46.20 C 81.75 55.01 78.38 65.46 70.78 70.83 C 64.16 75.90 54.66 76.63 47.28 72.81 C 39.62 69.08 34.58 60.61 35.10 52.09 C 35.24 42.64 42.22 33.86 51.34 31.45 Z" />
	<path fill="url(#colour0)" d=" M 52.16 36.27 C 57.68 34.51 64.07 35.64 68.52 39.39 C 73.47 43.38 75.96 50.18 74.62 56.42 C 73.16 64.90 64.51 71.14 56.02 70.34 C 46.84 69.98 39.17 61.07 39.91 51.97 C 40.28 44.87 45.34 38.32 52.16 36.27 Z" />
	<path fill="url(#colour1)" d=" M 47.53 44.07 C 48.17 40.09 53.05 40.73 56.04 39.98 C 59.11 39.05 61.93 41.08 63.91 43.22 C 65.12 45.08 64.51 47.46 64.62 49.54 C 62.58 50.37 61.26 52.14 60.07 53.90 C 58.35 52.35 56.72 50.72 55.17 49.01 C 55.10 49.82 54.95 51.44 54.87 52.25 C 53.49 51.35 52.10 50.49 50.77 49.53 C 49.16 48.24 46.91 46.42 47.53 44.07 Z" />
	<path fill="#486850" d=" M 50.77 49.53 C 52.10 50.49 53.49 51.35 54.87 52.25 C 54.95 51.44 55.10 49.82 55.17 49.01 C 56.72 50.72 58.35 52.35 60.07 53.90 C 61.26 52.14 62.58 50.37 64.62 49.54 C 66.87 49.90 66.52 51.39 65.87 52.92 C 65.42 52.43 64.53 51.45 64.08 50.96 C 63.20 52.83 59.82 55.72 62.63 57.28 C 64.16 56.69 65.66 56.02 67.17 55.38 C 67.13 56.25 67.07 58.01 67.04 58.88 C 66.37 59.60 65.70 60.32 65.03 61.05 C 65.24 61.49 65.66 62.39 65.87 62.84 C 63.99 64.38 61.64 64.69 59.30 64.92 C 57.84 65.93 56.42 67.04 54.73 67.65 C 55.31 66.55 55.89 65.46 56.49 64.38 C 54.38 63.94 52.04 63.74 50.53 61.99 C 53.13 61.26 55.68 62.04 58.06 63.07 C 58.74 61.81 59.42 60.55 60.11 59.29 C 57.63 58.94 55.18 58.26 53.07 56.87 C 53.72 56.59 55.01 56.03 55.66 55.75 C 54.06 53.74 52.40 51.08 49.38 51.80 C 49.85 51.05 50.31 50.29 50.77 49.53 Z" />
</g>
</svg>
