<?xml version="1.0" encoding="UTF-8" standalone="no"?>
<!-- Created with Inkscape (http://www.inkscape.org/) -->

<svg
   xmlns:svg="http://www.w3.org/2000/svg"
   xmlns="http://www.w3.org/2000/svg"
   version="1.1"
   viewBox="0 0 73 62"
   width="100%"
   height="100%"
   >
 <defs>
   <linearGradient id="colour1">
     <stop offset="100%" stop-color="red"/>
   </linearGradient>
 </defs>
   <path fill="url(#colour1)"
     d="m 48.4703,57 c -1.12,-0.454 -2.56,-1.46 -3.2,-2.23 -0.971,-1.17 -0.594,-1.34 2.26,-1.01 5.2,0.607 5.99,-2.05 4.83,-16 -1.1,-13.1 -0.415,-18.5 2.67,-21 2.62,-2.12 6.77,-2.27 9.32,-0.329 1.72,1.3 1.66,1.41 -0.993,1.72 -4.92,0.565 -5.74,4 -4.52,19 1.13,13.9 0.709,16.6 -2.99,19.2 -2.5,1.75 -4.27,1.91 -7.38,0.649 z"
     id="path3126" />
  <path fill="url(#colour1)"
     d="m 44.8703,50.4 c -0.953,-1.15 -1.03,-2.04 -0.265,-3.25 1.49,-2.37 4.48,-2.69 5.98,-0.637 2.78,3.8 -2.7,7.52 -5.71,3.89 z"
     id="path3122" />
  <path fill="url(#colour1)"
     d="m 14.0703,40.9 c 4.8,-4.5 5.9,-8.8 5.9,-22.9 0.0311,-17.1 1.66,-18.2 5.56,-3.5 l 2.13,8 1.19,-7 c 1.52,-8.97 3.11,-13.9 4.12,-12.8 0.438,0.463 2.24,5.56 4.01,11.3 3.83,12.5 7.13,20.2 10.6,24.8 3.74,4.91 2.28,4.99 -2.12,0.117 -3.8,-4.3 -7.8,-12 -11.1,-21.9 l -1.8,-5.5 -0.8,7.5 c -1.7,17.4 -1.9,18.6 -3.1,16.5 -0.6,-1.1 -2,-5.1 -3.2,-9 l -2.14,-7 -0.581,7.63 c -0.9,10.7 -3.2,15 -9.3,16.5 l -3,0.7 3.6,-3.4 z"
     id="path3120" />
  <path fill="url(#colour1)"
     d="m 8.5703,39.7 c -3.75,-2.7 0.23,-9.5 4.2,-7.1 2.46,1.54 2.83,5.5 0.654,7.09 -1.1,0.7 -2.2,1.3 -2.5,1.3 -0.3,0 -1.42,-0.6 -2.4,-1.3 z"
     id="path3118" />
  <path fill="url(#colour1)"
     d="m 13.4703,36.5 c 0,-2.31 -3.37,-3.33 -4.57,-1.38 -1.04,1.68 0.895,4.06 2.98,3.66 0.9,-0.2 1.6,-1.2 1.6,-2.3 z"
     id="path3116" />
  <path fill="url(#colour1)"
     d="m 60.6703,25.3 c -1.51,-1.51 -0.601,-5.22 1.44,-5.87 2.81,-0.893 5.32,1.61 4.42,4.42 -0.649,2.05 -4.36,2.96 -5.87,1.44 z"
     id="path3094" />
</svg>
