<svg xmlns="http://www.w3.org/2000/svg" version="1.1" xmlns:xlink="http://www.w3.org/1999/xlink" viewBox="320 360 80 115">
<defs>
   <linearGradient id="colour0">
     <stop offset="100%" stop-color="yellow"/>
   </linearGradient>
   <linearGradient id="colour1">
     <stop offset="100%" stop-color="red"/>
   </linearGradient>
 </defs>
<g id="Reeves">
	  <path id="SE_r_in_d" display="none" fill="url(#colour1)" d="M22.4,49.3c-6.5-7.8-12.4-14.9-13.1-15.8-1-1.4,0.87-4.1,11.8-17.1,7.1-8.48,13.3-15.5,13.7-15.7,0.681-0.237,24.4,27.1,26.5,30.5,0.549,0.907-3.35,6.24-12.3,16.8-7.21,8.52-13.5,15.5-13.9,15.5-0.419,0-6.13-6.38-12.7-14.2zm19.6,3.2c3.58-4.36,7.06-7.94,7.75-7.95,0.688-0.0135,1.25-0.595,1.25-1.29,0-0.698,1.81-3.46,4.03-6.14,3.49-4.23,3.85-5.09,2.67-6.48-0.8-1-6-7.2-11.7-14-5.6-6.71-10.6-12.2-11.1-12.2-0.636,0-17.5,19.3-22.7,26.1-1.04,1.34-0.46,2.56,3.62,7.65,2.67,3.33,6.02,7.31,7.44,8.84s4.52,5.15,6.88,8.05c2.37,2.9,4.53,5.27,4.8,5.27,0.275,0.0011,3.42-3.57,7-7.93zm-12.8-1.22-5.24-6.26,5.19-0.5c4.57-0.441,4.99-0.663,3.53-1.87-1.1-0.9-1.7-2.9-1.7-5.7,0-3.66,0.318-4.38,1.93-4.38,2.52,0,5.68,4.1,6.49,8.43,0.548,2.92,1.11,3.5,3.66,3.76l3.01,0.311-5.08,6c-2.79,3.3-5.42,6.12-5.83,6.26-0.414,0.144-3.11-2.56-5.99-6zm-11.9-14.1-4.21-5,2.85-3.6c1.57-1.98,3.8-4.45,4.96-5.5l2-1.9v9.4c-0.0084,5.17-0.346,9.9-0.75,10.5-0.456,0.68-2.33-0.798-4.95-3.9zm29-0.0909c-1.23-2.53-2.79-4.6-3.46-4.6-0.674,0,0.289-1.26,2.14-2.81,2.69-2.24,3.26-3.35,2.86-5.47-0.635-3.32,0.0089-2.92,5.12,3.18l4.1,4.89-4.26,4.7-4.26,4.7-2.23-4.6zm-15.3-11c0-4.38,0.138-4.61,2.8-4.61,3.16,0,5.2,1.6,5.2,4.08,0,2.1-1.72,3.56-5.26,4.45-2.7,0.7-2.7,0.6-2.7-3.9zm10-6.75c-2.48-0.508-7.09-0.797-10.3-0.64-3.16,0.156-5.75,0.032-5.75-0.276,0.0024-0.732,9.06-11.4,9.87-11.6,0.345-0.0979,3.25,2.94,6.46,6.75s5.46,6.88,5,6.82c-0.5-0.1-2.9-0.6-5.4-1.1z"/>
		<polygon fill="url(#colour1)" points="297.338,362.412 338.112,416.838 297.338,471.088 256.388,416.838 		"/>
		<path fill="url(#colour0)" d="M297.339,462.807l-34.477-45.969l34.477-45.969l34.297,45.969L297.339,462.807L297.339,462.807z
			 M264.612,416.838l32.724,43.631l32.554-43.631l-32.554-43.632L264.612,416.838L264.612,416.838z"/>
		<path fill="url(#colour0)" d="M277.563,395.488c6.067,0,20.3,0,25.2,0s14,1.283,14,9.683c0,8.4-8.983,9.45-13.883,9.8
			c0,0,6.364,1.23,8.866,4.316c3.5,4.317,4.2,15.4,10.733,16.451v0.816h-15.167c0,0-3.616-12.834-5.25-15.283
			c-1.633-2.45-3.85-5.601-6.649-5.601c-2.801,0-3.733,0-3.733,0s0,9.45,0,12.25s1.4,7.351,4.55,7.351v0.934h-19.367v-1.051
			c0,0,3.5-0.699,3.851-4.434c0.35-3.732,0.467-26.25,0.467-27.883s-0.35-5.717-3.384-6.417L277.563,395.488z M292.146,397.938
			v15.75c0,0,13.416,0.693,13.416-8.283C305.563,396.305,292.146,397.938,292.146,397.938z M280.013,434.805
			c1.867-1.4,3.267-1.051,4.434-8.983c0.233-9.101-0.117-22.284-0.233-24.5c-0.117-2.217-3.033-4.784-3.851-4.784
			c0,0,2.567,1.867,2.567,5.484c0,3.813,0.019,21.302-0.117,25.899C282.74,430.381,281.646,433.988,280.013,434.805z"/>
</g>
</svg>
