<svg xmlns="http://www.w3.org/2000/svg" version="1.1" xmlns:xlink="http://www.w3.org/1999/xlink" viewBox="0 0 50 70">
<defs>
   <linearGradient id="colour1">
     <stop offset="100%" stop-color="red"/>
   </linearGradient>
 </defs>
<g> 
<path fill="url(#colour1)" d="M 50.066406 35.425781 C 49.902344 32.480469 49.308594 29.507812 48.457031 26.625 L 49.789062 26.511719 L 46.753906 21.816406 L 45.980469 26.835938 L 47.535156 26.703125 C 48.050781 28.839844 48.402344 31.003906 48.503906 33.148438 C 48.605469 35.339844 48.578125 38.390625 46.605469 39.9375 C 45.0625 41.148438 42.722656 40.746094 42.722656 40.746094 C 41.839844 40.59375 41.09375 39.640625 41.070312 38.628906 L 40.902344 31.910156 L 42.152344 31.910156 L 40.191406 27.121094 L 38.269531 31.910156 L 39.605469 31.910156 L 39.4375 38.613281 C 39.414062 39.625 38.667969 40.589844 37.785156 40.75 C 37.785156 40.75 35.472656 41.171875 33.898438 39.9375 C 31.929688 38.390625 31.898438 35.339844 32.003906 33.148438 C 32.101562 31.003906 32.457031 28.839844 32.96875 26.703125 L 34.511719 26.835938 L 33.742188 21.816406 L 30.707031 26.511719 L 32.046875 26.625 C 31.199219 29.507812 30.605469 32.480469 30.441406 35.425781 C 30.3125 37.683594 30.410156 40.585938 32.335938 42.214844 C 34.222656 43.808594 37.824219 42.691406 37.824219 42.691406 C 38.6875 42.425781 39.394531 43.039062 39.394531 44.050781 L 39.394531 58.179688 C 40.296875 58.179688 40.492188 58.179688 41.113281 58.179688 L 41.113281 44.050781 C 41.113281 43.039062 41.820312 42.425781 42.683594 42.691406 C 42.683594 42.691406 46.285156 43.808594 48.167969 42.214844 C 50.09375 40.585938 50.191406 37.683594 50.066406 35.425781 "/>
</g>
</svg>
