<!-- Created with Inkscape (http://www.inkscape.org/) --><svg xmlns="http://www.w3.org/2000/svg" height="100%" width="100%" version="1.1" viewBox="0 0 75 76"><defs>   <linearGradient id="colour1">     <stop offset="100%" stop-color="red"/>   </linearGradient></defs><g fill="url(#colour1)" stroke="none">	<path d="M71.3,74.5c-9.1,0.2-18.1,0.4-27.2,0.6,9.1-0.2,18.1-0.4,27.2-0.6zm-41.6-4.5c-12.2-3-22.4-13.4-24.9-25.8-0.49-5.3-0.69-10.7,0.3-15.9,3.32-11.7,13.4-21.2,25.4-23.5,10.9-2.33,23.1,0.85,30.6,9.36,3.95,4.42,7,9.74,8.7,15.4,0.866,5.05,0.687,10.3,0.0325,15.3-1.57,8.6-7.99,15.3-14.7,20.4-6.41,4.87-14.9,5.6-22.7,5.14-0.8,0-2-0.2-2.7-0.4zm19.8-8.8c11.8-5.8,17.6-20.8,13.1-33.1-3-9.2-11.7-16.1-21.3-16.9-10-1.2-21.1,2.5-26.4,11.4-4.8,8-5.16,18.5-1.3,26.9,3.4,7.3,10.6,12.2,18.3,14.1,5.9,0.5,12.1,0.1,17.6-2.3v-0.04zm-24.5-21.2c-1.53-4.31-2.5-8.98-5.09-12.8-2.88-0.2-1.65-2.49,0.713-2.07,1.99-0.0298,7.68-0.792,7.08,1.72-2.83,1.7,0.0973,5.98,0.352,8.63,0.878,2.99,1.76,5.97,2.64,8.95,2.28-6.44,3.97-13.1,7.09-19.2,2.01,1.33,2.65,5.4,3.84,7.9,1.31,3.3,2.07,7.01,4.31,9.81,1.6-2.92,2.11-6.56,3.09-9.81,0.784-2.69,2.12-6.44-1.86-6.69,1.28-2.27,5.98-1.27,8.53-1.08,3.79,1.45-2.99,1.92-2.68,4.49-2.62,6.34-4.33,13-6.27,19.6-0.0687,2.13-2.07,5.12-2.85,1.55-2.1-5.2-4.4-10.5-5.7-16.1-1-2.3-2.7,4.2-3.4,5.5-1.5,4.2-2.5,8.7-4.7,12.6-2.2-4.1-3.4-8.6-4.9-13h-0.1z"/></g></svg>